<?xml version="1.0" encoding="iso-8859-1"?>
<!-- Generator: Adobe Illustrator 19.0.0, SVG Export Plug-In . SVG Version: 6.00 Build 0)  -->
<svg xmlns="http://www.w3.org/2000/svg" xmlns:xlink="http://www.w3.org/1999/xlink" version="1.1" id="Layer_1" x="0px" y="0px" viewBox="0 0 491.52 491.52" style="enable-background:new 0 0 491.52 491.52;" xml:space="preserve">
<path style="fill:#FCD462;" d="M470.291,32.6H21.229C9.504,32.6,0,42.104,0,53.828v383.864c0,11.724,9.504,21.228,21.229,21.228  h449.063c11.725,0,21.229-9.504,21.229-21.228V53.828C491.52,42.104,482.016,32.6,470.291,32.6z"/>
<path style="fill:#27A2DB;" d="M440.926,104.954H50.593c-8.593,0-15.559,6.967-15.559,15.56v174.767  c0,8.594,6.966,15.56,15.559,15.56h390.333c8.594,0,15.559-6.966,15.559-15.56V120.514  C456.485,111.92,449.52,104.954,440.926,104.954z"/>
<path style="fill:#E56353;" d="M440.926,146.477H50.593c-8.593,0-15.559,6.967-15.559,15.56v174.767  c0,8.594,6.966,15.56,15.559,15.56h390.333c8.594,0,15.559-6.966,15.559-15.56V162.037  C456.485,153.444,449.52,146.477,440.926,146.477z"/>
<path style="fill:#44C4A1;" d="M440.926,185.047H50.593c-8.593,0-15.559,6.967-15.559,15.56v174.767  c0,8.594,6.966,15.56,15.559,15.56h390.333c8.594,0,15.559-6.966,15.559-15.56V200.607  C456.485,192.014,449.52,185.047,440.926,185.047z"/>
<path style="fill:#F6C358;" d="M308.317,249.421c-6.688,0-12.677,4.488-14.177,11.005c-5.07,22.037-24.803,38.472-48.379,38.472  s-43.31-16.435-48.381-38.473c-1.499-6.517-7.488-11.004-14.175-11.004H0v188.271c0,11.724,9.504,21.228,21.229,21.228h449.063  c11.725,0,21.229-9.504,21.229-21.229V249.421H308.317z"/>
<path style="fill:#DC8744;" d="M461.334,446.146h-16.918v-8.517h16.918V446.146z M427.498,446.146H410.58v-8.517h16.918V446.146z   M393.654,446.146h-16.918v-8.517h16.918V446.146z M359.818,446.146h-16.926v-8.517h16.926V446.146z M325.974,446.146h-16.918  v-8.517h16.918V446.146z M292.137,446.146h-16.926v-8.517h16.926V446.146z M258.293,446.146h-16.918v-8.517h16.918V446.146z   M224.457,446.146h-16.926v-8.517h16.926V446.146z M190.613,446.146h-16.918v-8.517h16.918V446.146z M156.768,446.146H139.85v-8.517  h16.918V446.146z M122.932,446.146h-16.918v-8.517h16.918V446.146z M89.088,446.146H72.17v-8.517h16.918V446.146z M55.252,446.146  H38.325v-8.517h16.926V446.146z M21.407,446.146h-0.175c-4.666,0-8.459-3.793-8.459-8.455v-10.326h8.517L21.407,446.146z   M478.743,436.315h-8.517v-16.922h8.517V436.315z M21.291,410.447h-8.517v-16.922h8.517V410.447z M478.743,402.475h-8.517v-16.922  h8.517V402.475z M21.291,376.603h-8.517v-16.918h8.517V376.603z M478.743,368.635h-8.517v-16.922h8.517V368.635z M21.291,342.763  h-8.517v-16.918h8.517V342.763z M478.743,334.794h-8.517v-16.922h8.517V334.794z M21.291,308.922h-8.517v-16.918h8.517V308.922z   M478.743,300.954h-8.517v-16.922h8.517V300.954z M21.291,275.082h-8.517v-16.918h8.517V275.082z M478.743,267.11h-8.517v-16.918  h8.517V267.11z M21.291,241.242h-8.517V224.32h8.517V241.242z M478.743,233.27h-8.517v-16.918h8.517V233.27z M21.291,207.402h-8.517  V190.48h8.517V207.402z M478.743,199.429h-8.517v-16.918h8.517V199.429z M21.291,173.562h-8.517v-16.922h8.517V173.562z   M478.743,165.589h-8.517v-16.922h8.517V165.589z M21.291,139.721h-8.517v-16.922h8.517V139.721z M478.743,131.749h-8.517v-16.922  h8.517V131.749z M21.291,105.881h-8.517V88.959h8.517V105.881z M478.743,97.909h-8.517V80.987h8.517V97.909z M21.291,72.037h-8.517  V55.119h8.517V72.037z M478.743,64.068h-8.517l0.067-18.694c4.658,0,8.451,3.793,8.451,8.455V64.068z M453.275,53.892h-16.918  v-8.517h16.918V53.892z M419.439,53.892h-16.918v-8.517h16.918V53.892z M385.594,53.892h-16.918v-8.517h16.918V53.892z   M351.758,53.892H334.84v-8.517h16.918V53.892z M317.914,53.892h-16.918v-8.517h16.918V53.892z M284.078,53.892h-16.926v-8.517  h16.926V53.892z M250.233,53.892h-16.918v-8.517h16.918V53.892z M216.397,53.892h-16.926v-8.517h16.926V53.892z M182.553,53.892  h-16.918v-8.517h16.918V53.892z M148.709,53.892h-16.918v-8.517h16.918V53.892z M114.872,53.892H97.954v-8.517h16.918V53.892z   M81.028,53.892H64.11v-8.517h16.918V53.892z M47.192,53.892H30.274v-8.517h16.918V53.892z"/>
<path style="fill:#EBF0F3;" d="M124.427,382.97H53.508c-2.959,0-5.358,2.399-5.358,5.358v19.227c0,2.96,2.399,5.359,5.358,5.359  h70.919c2.96,0,5.359-2.399,5.359-5.359v-19.227C129.786,385.369,127.387,382.97,124.427,382.97z"/>
<g>
</g>
<g>
</g>
<g>
</g>
<g>
</g>
<g>
</g>
<g>
</g>
<g>
</g>
<g>
</g>
<g>
</g>
<g>
</g>
<g>
</g>
<g>
</g>
<g>
</g>
<g>
</g>
<g>
</g>
</svg>
