<?xml version="1.0" encoding="iso-8859-1"?>
<!-- Generator: Adobe Illustrator 19.0.0, SVG Export Plug-In . SVG Version: 6.00 Build 0)  -->
<svg xmlns="http://www.w3.org/2000/svg" xmlns:xlink="http://www.w3.org/1999/xlink" version="1.1" id="Layer_1" x="0px" y="0px" viewBox="0 0 512.667 512.667" style="enable-background:new 0 0 512.667 512.667;" xml:space="preserve">
<rect x="315.319" y="314.481" transform="matrix(-0.7071 0.7071 -0.7071 -0.7071 853.3592 352.2885)" style="fill:#344A5E;" width="76.799" height="76.799"/>
<path style="fill:#F3705A;" d="M495.467,495.067L495.467,495.067c-23.467,23.467-61.867,23.467-85.333,0l-77.867-77.867  c-5.333-5.333-5.333-14.933,0-20.267l65.067-65.067c5.333-5.333,14.933-5.333,20.267,0l77.867,77.867  C517.867,433.201,517.867,471.601,495.467,495.067z"/>
<circle style="fill:#F3F3F3;" cx="201.067" cy="200.667" r="177.067"/>
<polygon style="fill:#F7B64C;" points="170.134,203.867 170.134,252.934 201.067,280.667 232.001,252.934 232.001,203.867 "/>
<path style="fill:#4EC0AA;" d="M326.934,326.534L326.934,326.534c-2.133-22.4-17.067-41.6-38.4-49.067l-45.867-16l-41.6,10.667  l-41.6-10.667l-46.933,16c-21.333,7.467-36.267,26.667-38.4,49.067l0,0c-1.067,17.067,11.733,30.933,27.733,30.933h197.333  C316.267,357.467,329.067,342.534,326.934,326.534z"/>
<polygon style="fill:#CED6E0;" points="214.934,357.467 242.667,262.534 185.067,273.201 159.467,262.534 187.201,357.467 "/>
<polygon style="fill:#F05540;" points="210.667,293.467 219.201,284.934 201.067,266.801 181.867,284.934 190.401,293.467 "/>
<polygon style="fill:#F3705A;" points="218.134,357.467 210.667,293.467 190.401,293.467 182.934,357.467 "/>
<path style="fill:#415A6B;" d="M201.067,91.867c-33.067,0-59.733,30.933-58.667,67.2c0,1.067,0-1.067,0,0  c3.2,42.667,28.8,74.667,58.667,74.667s55.467-33.067,58.667-74.667c0-1.067,0,1.067,0,0  C260.801,123.867,234.134,91.867,201.067,91.867L201.067,91.867z"/>
<g>
	
		<ellipse transform="matrix(0.2747 -0.9615 0.9615 0.2747 1.0103 381.5347)" style="fill:#FFD15C;" cx="253.408" cy="190.098" rx="18.133" ry="10.666"/>
	
		<ellipse transform="matrix(0.2747 0.9615 -0.9615 0.2747 291.2327 -4.7315)" style="fill:#FFD15C;" cx="148.753" cy="190.679" rx="18.133" ry="10.666"/>
	<path style="fill:#FFD15C;" d="M245.867,144.134c-17.067,5.333-37.333,1.067-53.333-9.6c-9.6,9.6-21.333,16-37.333,14.933   c0,1.067,0,1.067,0,2.133c-8.533,46.933,10.667,100.267,45.867,100.267s54.4-53.333,45.867-100.267   C246.934,148.401,245.867,146.267,245.867,144.134z"/>
</g>
<polygon style="fill:#F3F3F3;" points="232.001,244.401 201.067,266.801 218.134,293.467 242.667,262.534 "/>
<polygon style="fill:#66C6B9;" points="232.001,357.467 265.067,315.867 243.734,298.801 266.134,283.867 237.334,252.934   209.601,357.467 "/>
<polygon style="fill:#F3F3F3;" points="170.134,244.401 201.067,266.801 184.001,293.467 159.467,262.534 "/>
<polygon style="fill:#66C6B9;" points="137.067,315.867 170.134,357.467 191.467,357.467 164.801,252.934 134.934,283.867   158.401,294.534 "/>
<path style="fill:#415A6B;" d="M342.934,342.534c-77.867,77.867-204.8,77.867-283.733,0s-77.867-204.8,0-283.733  s204.8-77.867,283.733,0S420.801,263.601,342.934,342.534z M92.267,91.867c-59.733,59.733-59.733,156.8,0,217.6  c59.733,59.733,156.8,59.733,217.6,0c59.733-59.733,59.733-156.8,0-217.6C249.067,32.134,152.001,32.134,92.267,91.867z"/>
<g>
</g>
<g>
</g>
<g>
</g>
<g>
</g>
<g>
</g>
<g>
</g>
<g>
</g>
<g>
</g>
<g>
</g>
<g>
</g>
<g>
</g>
<g>
</g>
<g>
</g>
<g>
</g>
<g>
</g>
</svg>
