<?xml version="1.0" encoding="iso-8859-1"?>
<!-- Generator: Adobe Illustrator 19.0.0, SVG Export Plug-In . SVG Version: 6.00 Build 0)  -->
<svg xmlns="http://www.w3.org/2000/svg" xmlns:xlink="http://www.w3.org/1999/xlink" version="1.1" id="Layer_1" x="0px" y="0px" viewBox="0 0 491.52 491.52" style="enable-background:new 0 0 491.52 491.52;" xml:space="preserve">
<rect y="382.515" style="fill:#EBF0F3;" width="491.52" height="23.148"/>
<polygon style="fill:#E1E6E9;" points="489.903,405.774 1.617,405.774 43.083,413.119 448.437,413.119 "/>
<path style="fill:#64798A;" d="M461.75,78.401H29.77c-5.337,0-9.662,4.326-9.662,9.663v294.463h451.305V88.064  C471.413,82.727,467.086,78.401,461.75,78.401z"/>
<rect x="37.98" y="96.276" style="fill:#EBF0F3;" width="415.539" height="268.39"/>
<polyline style="fill:#E1E6E9;" points="453.539,96.275 453.539,364.656 37.982,364.656 "/>
<circle style="fill:#3A556A;" cx="245.76" cy="86.886" r="4.342"/>
<rect x="53.002" y="108.442" style="fill:#27A2DB;" width="303.36" height="20.178"/>
<circle style="fill:#44C4A1;" cx="377.856" cy="118.528" r="10.24"/>
<circle style="fill:#FCD462;" cx="403.046" cy="118.528" r="10.24"/>
<circle style="fill:#E56353;" cx="428.237" cy="118.528" r="10.24"/>
<circle style="fill:#F6C358;" cx="245.76" cy="191.437" r="44.114"/>
<circle style="fill:#FCD462;" cx="245.76" cy="191.437" r="36.751"/>
<g>
	<path style="fill:#DC8744;" d="M245.76,228.198c13.249,0,24.825-7.034,31.292-17.548c-6.617-10.285-18.153-17.105-31.292-17.105   s-24.675,6.819-31.292,17.105C220.935,221.165,232.511,228.198,245.76,228.198z"/>
	<circle style="fill:#DC8744;" cx="245.76" cy="172.739" r="11.612"/>
</g>
<rect x="174.694" y="256.205" style="fill:#D5D6DB;" width="142.131" height="18.54"/>
<rect x="174.694" y="252.774" style="fill:#FFFFFF;" width="142.131" height="18.54"/>
<rect x="174.694" y="288" style="fill:#D5D6DB;" width="142.131" height="18.54"/>
<rect x="174.694" y="284.621" style="fill:#FFFFFF;" width="142.131" height="18.54"/>
<rect x="270.392" y="319.846" style="fill:#3A556A;" width="46.438" height="18.54"/>
<rect x="270.392" y="316.431" style="fill:#64798A;" width="46.438" height="18.54"/>
<g>
	<rect x="179.558" y="258.714" style="fill:#D5D6DB;" width="54.6" height="6.702"/>
	<rect x="179.558" y="290.524" style="fill:#D5D6DB;" width="54.6" height="6.702"/>
</g>
<g>
</g>
<g>
</g>
<g>
</g>
<g>
</g>
<g>
</g>
<g>
</g>
<g>
</g>
<g>
</g>
<g>
</g>
<g>
</g>
<g>
</g>
<g>
</g>
<g>
</g>
<g>
</g>
<g>
</g>
</svg>
