<?xml version="1.0" encoding="iso-8859-1"?>
<!-- Generator: Adobe Illustrator 19.0.0, SVG Export Plug-In . SVG Version: 6.00 Build 0)  -->
<svg xmlns="http://www.w3.org/2000/svg" xmlns:xlink="http://www.w3.org/1999/xlink" version="1.1" id="Layer_1" x="0px" y="0px" viewBox="0 0 512 512" style="enable-background:new 0 0 512 512;" xml:space="preserve">
<path style="fill:#F3F3F3;" d="M442.607,67.2C402.074,25.6,344.474,0,281.54,0c-124.8,0-227.2,101.333-227.2,227.2L3.14,349.867  c-3.2,6.4,2.133,13.867,9.6,13.867h42.667v46.933c0,24.533,19.2,43.733,43.733,43.733h41.6V512h273.067v-2.133  c0-53.333,19.2-103.467,51.2-146.133c28.8-38.4,44.8-85.333,44.8-136.533C509.807,164.267,484.207,107.733,442.607,67.2z"/>
<path style="fill:#8AD7F8;" d="M385.007,177.067c2.133-12.8-3.2-27.733-13.867-36.267c-13.867-11.733-34.133-11.733-48-2.133  c-11.733-37.333-52.267-59.733-90.667-49.067s-60.8,50.133-52.267,88.533c-19.2,4.267-34.133,21.333-34.133,42.667  c0,24.533,19.2,43.733,43.733,43.733H383.94c24.533,0,43.733-19.2,43.733-43.733C427.674,197.333,408.474,177.067,385.007,177.067z"/>
<polygon style="fill:#415A6B;" points="258.074,371.2 278.34,308.267 232.474,308.267 315.674,219.733 296.474,283.733   341.274,283.733 "/>
<g>
</g>
<g>
</g>
<g>
</g>
<g>
</g>
<g>
</g>
<g>
</g>
<g>
</g>
<g>
</g>
<g>
</g>
<g>
</g>
<g>
</g>
<g>
</g>
<g>
</g>
<g>
</g>
<g>
</g>
</svg>
