<?xml version="1.0" encoding="iso-8859-1"?>
<!-- Generator: Adobe Illustrator 19.0.0, SVG Export Plug-In . SVG Version: 6.00 Build 0)  -->
<svg xmlns="http://www.w3.org/2000/svg" xmlns:xlink="http://www.w3.org/1999/xlink" version="1.1" id="Layer_1" x="0px" y="0px" viewBox="0 0 512.002 512.002" style="enable-background:new 0 0 512.002 512.002;" xml:space="preserve">
<path style="fill:#FBCB99;" d="M297.694,223.037c5.934,5.934,15.589,5.934,21.523,0l0.307-0.307  c0.319,3.406,1.782,6.723,4.384,9.326l0.356,0.355c5.935,5.934,15.59,5.936,21.524,0.002l39.436-39.436  c-1.555,8.356-2.4,20.087,2.64,27.879c2.795,4.325,6.924,6.835,12.314,7.636l1.856,0.276l1.842-0.349  c4.173-0.797,14.243-4.976,17.612-26.549c1.847-11.811,6.079-17.924,10.17-23.84c7.644-11.054,12.442-20.267,9.161-45.548  l17.925-17.926l-61.295-61.295l-23.833,23.831c-21.7-3.449-55.635,31.625-57.066,33.118l-25.352,25.351  c-5.933,5.935-5.934,15.59,0,21.525l0.356,0.357c2.602,2.602,5.921,4.064,9.328,4.383l-12.839,12.836  c-5.934,5.934-5.934,15.591,0,21.525l0.357,0.356c2.554,2.552,5.796,4.037,9.16,4.393l-0.22,0.22  c-5.936,5.934-5.934,15.589,0,21.523L297.694,223.037z"/>
<g>
	<path style="fill:#E9B585;" d="M291.553,157.443c0.422,0.422,0.869,0.804,1.327,1.165c-1.459-5.139-0.175-10.901,3.862-14.941   l25.352-25.351c1.432-1.493,35.367-36.567,57.066-33.118l23.833-23.831l54.467,54.467l1.28-1.28l-61.294-61.292l-23.833,23.831   c-21.7-3.449-55.635,31.625-57.066,33.118l-25.352,25.351c-5.933,5.935-5.934,15.59,0,21.525L291.553,157.443z"/>
	<path style="fill:#E9B585;" d="M394.015,142.189c0-19.345-17.426-19.602-17.426-19.602h-72.42l-12.972,12.972   c-0.797,0.797-1.478,1.666-2.061,2.579h89.413v61.512l6.676-6.676c-1.555,8.356-2.4,20.087,2.64,27.879   c1.608,2.489,3.673,4.357,6.152,5.663v-84.329H394.015z"/>
</g>
<path style="fill:#FBCB99;" d="M214.307,288.957c-5.934-5.934-15.589-5.935-21.523-0.001l-0.307,0.308  c-0.319-3.406-1.782-6.723-4.384-9.326l-0.356-0.356c-5.934-5.934-15.59-5.935-21.524-0.001l-39.436,39.436  c1.555-8.356,2.4-20.088-2.64-27.879c-2.795-4.324-6.925-6.835-12.314-7.636l-1.856-0.276l-1.842,0.349  c-4.173,0.797-14.243,4.976-17.612,26.549c-1.847,11.809-6.079,17.925-10.17,23.84c-7.644,11.054-12.441,20.266-9.161,45.548  l-17.925,17.926l61.294,61.294l23.833-23.832c21.7,3.45,55.635-31.623,57.066-33.118l25.351-25.351  c5.934-5.934,5.934-15.591,0-21.525l-0.355-0.356c-2.602-2.601-5.921-4.064-9.328-4.383l12.839-12.836  c5.934-5.934,5.934-15.59,0-21.525l-0.357-0.356c-2.554-2.554-5.796-4.038-9.16-4.393l0.22-0.22c5.936-5.934,5.935-15.589,0-21.523  L214.307,288.957z"/>
<g>
	<path style="fill:#E9B585;" d="M223.091,315.478c0.212,0.023,0.423,0.063,0.636,0.094l-0.124-0.123   c-0.082-0.082-0.17-0.154-0.254-0.233c-0.013,0.014-0.023,0.029-0.038,0.042L223.091,315.478z"/>
	<path style="fill:#E9B585;" d="M220.6,354.702l-0.153-0.153c-0.108-0.108-0.223-0.202-0.335-0.305l-0.344,0.344   C220.048,354.614,220.323,354.661,220.6,354.702z"/>
	<path style="fill:#E9B585;" d="M61.908,401.859l17.925-17.926c-3.28-25.282,1.517-34.493,9.161-45.548   c4.091-5.916,8.323-12.032,10.17-23.84c3.369-21.574,13.438-25.752,17.612-26.549l1.842-0.349l1.856,0.276   c0.427,0.064,0.831,0.157,1.243,0.241c-2.582-2.524-5.888-4.067-9.89-4.663l-1.856-0.276l-1.842,0.349   c-4.173,0.797-14.243,4.976-17.612,26.549c-1.847,11.809-6.079,17.925-10.17,23.84c-7.644,11.054-12.441,20.266-9.161,45.548   L53.26,397.437l61.294,61.294l2.114-2.113L61.908,401.859z"/>
	<path style="fill:#E9B585;" d="M211.269,289.264l0.307-0.308c0.434-0.434,0.893-0.827,1.364-1.197   c-0.722-0.569-1.481-1.07-2.273-1.489C210.965,287.25,211.174,288.251,211.269,289.264z"/>
</g>
<path style="fill:#FBCB99;" d="M224.142,213.202c5.934-5.934,5.935-15.59,0.001-21.524l-0.307-0.306  c3.405-0.321,6.722-1.782,9.324-4.384l0.356-0.356c5.934-5.934,5.935-15.589,0.001-21.524l-39.436-39.436  c8.356,1.555,20.088,2.4,27.879-2.64c4.324-2.795,6.836-6.924,7.638-12.315l0.275-1.856l-0.349-1.842  c-0.796-4.172-4.976-14.241-26.549-17.612c-11.808-1.846-17.925-6.078-23.84-10.169c-11.054-7.645-20.266-12.441-45.548-9.162  l-17.925-17.925l-61.296,61.297l23.832,23.833c-3.449,21.7,31.623,55.635,33.118,57.066l25.351,25.351  c5.934,5.934,15.591,5.934,21.525,0l0.356-0.356c2.602-2.603,4.064-5.92,4.383-9.327l12.838,12.839  c5.934,5.934,15.59,5.934,21.524,0l0.356-0.357c2.554-2.552,4.038-5.796,4.393-9.16l0.22,0.22c5.934,5.935,15.589,5.935,21.524,0  L224.142,213.202z"/>
<path style="fill:#E9B585;" d="M146.371,216.285l-25.351-25.351c-1.495-1.432-36.567-35.366-33.118-57.066l-23.832-23.833  l54.737-54.737l-3.145-3.145l-61.295,61.297l23.832,23.833c-3.449,21.7,31.623,55.635,33.118,57.066l25.351,25.351  c5.567,5.567,14.408,5.911,20.382,1.034C153.179,220.71,149.317,219.231,146.371,216.285z"/>
<path style="fill:#FBCB99;" d="M287.859,298.79c-5.934,5.934-5.935,15.591-0.001,21.525l0.307,0.306  c-3.405,0.321-6.723,1.781-9.324,4.383l-0.357,0.356c-5.934,5.934-5.934,15.59,0,21.525l39.436,39.435  c-8.356-1.555-20.088-2.399-27.879,2.642c-4.324,2.792-6.836,6.923-7.638,12.312l-0.275,1.857l0.349,1.842  c0.796,4.172,4.976,14.243,26.551,17.611c11.807,1.847,17.923,6.078,23.838,10.17c11.056,7.644,20.266,12.44,45.55,9.161  l17.924,17.925l61.295-61.295l-23.832-23.833c3.449-21.699-31.623-55.634-33.118-57.065l-25.351-25.351  c-5.934-5.934-15.591-5.934-21.525,0l-0.356,0.355c-2.602,2.602-4.064,5.921-4.383,9.328l-12.838-12.839  c-5.934-5.934-15.589-5.934-21.524,0l-0.356,0.356c-2.555,2.554-4.038,5.797-4.393,9.16l-0.22-0.219  c-5.934-5.935-15.59-5.934-21.524,0L287.859,298.79z"/>
<g>
	<path style="fill:#E9B585;" d="M378.483,295.444v79.515h-71.925l11.361,11.361c-8.356-1.555-20.088-2.399-27.879,2.642   c-0.733,0.474-1.395,0.999-2.024,1.549h89.048c2.779-0.209,16.929-2.125,16.951-19.538v-59.997L378.483,295.444z"/>
	<path style="fill:#E9B585;" d="M314.161,290.697l0.22,0.219c0.062-0.59,0.171-1.175,0.303-1.754l-0.333,0.333   c-0.243,0.243-0.466,0.496-0.69,0.752C313.827,290.397,313.999,290.536,314.161,290.697z"/>
	<path style="fill:#E9B585;" d="M400.761,452.1l-17.924-17.925c-25.284,3.279-34.494-1.517-45.55-9.161   c-5.916-4.092-12.032-8.323-23.838-10.17c-21.575-3.368-25.755-13.438-26.551-17.611l-0.349-1.842l0.275-1.857   c0.125-0.839,0.305-1.635,0.514-2.413c-2.683,2.619-4.319,6.009-4.936,10.151l-0.275,1.857l0.349,1.842   c0.796,4.172,4.976,14.243,26.551,17.611c11.807,1.847,17.923,6.078,23.838,10.17c11.056,7.644,20.266,12.44,45.55,9.161   l17.924,17.925l61.295-61.295l-1.658-1.658L400.761,452.1z"/>
	<path style="fill:#E9B585;" d="M343.058,232.409l-0.356-0.355c-2.601-2.602-4.065-5.92-4.384-9.326l-0.307,0.307   c-4.834,4.834-12.134,5.728-17.885,2.687c0.702,2.318,1.957,4.502,3.784,6.331l0.356,0.355c5.502,5.501,14.192,5.894,20.16,1.199   C343.952,233.237,343.493,232.844,343.058,232.409z"/>
</g>
<path style="fill:#FCD638;" d="M365.457,390.51c2.779-0.209,16.929-2.125,16.951-19.538V256.548h-50.395v15.745  c8.358,5.563,13.301,14.742,13.301,24.86c0,16.479-13.407,29.886-29.887,29.886c-16.479,0-29.886-13.407-29.886-29.886  c0-10.118,4.942-19.298,13.3-24.86v-15.745h-44.867h-5.527v50.396h-4.688c-5.565-8.359-14.744-13.301-24.861-13.301  c-16.48,0-29.887,13.407-29.887,29.887c0,16.479,13.407,29.886,29.887,29.886c10.114,0,19.292-4.941,24.86-13.302h4.689v50.396  L365.457,390.51L365.457,390.51z"/>
<path style="fill:#EF4C35;" d="M289.421,159.683c-10.119,0-20.404,4.942-25.967,13.301h-3.584v-50.396H142.414  c-2.753,0.228-14.421,1.99-16.505,15.279v118.681h55.92v-18.255l-4.132-3.319c-5.739-4.611-9.167-11.724-9.167-19.031  c0-13.431,10.927-24.358,24.358-24.358c13.431,0,24.358,10.927,24.358,24.358c0,7.307-3.427,14.423-9.167,19.032l-4.132,3.319  v18.254h55.923v-50.395h3.584c5.563,8.358,15.849,13.301,25.967,13.301c16.478,0,29.885-13.407,29.885-29.887  C319.305,173.089,305.899,159.683,289.421,159.683z"/>
<path style="fill:#F7971D;" d="M364.982,122.588H253.975v50.396h10.217c5.563-8.358,14.742-13.301,24.861-13.301  c16.478,0,29.885,13.407,29.885,29.885c0,16.48-13.407,29.887-29.885,29.887c-10.118,0-19.299-4.942-24.861-13.301h-10.217v50.395  h44.867v15.745c-8.358,5.563-13.3,14.742-13.3,24.86c0,16.479,13.407,29.886,29.886,29.886c16.48,0,29.887-13.407,29.887-29.886  c0-10.118-4.942-19.298-13.301-24.86v-15.745h50.395v-114.36C382.408,122.844,364.982,122.588,364.982,122.588z"/>
<path style="fill:#6598CB;" d="M218.92,293.644c10.117,0,19.297,4.942,24.861,13.301h10.215v-50.396h-44.869v-10.217  c8.358-5.563,13.3-14.742,13.3-24.86c0-16.479-13.407-29.886-29.886-29.886s-29.886,13.407-29.886,29.886  c0,9.957,5.056,19.336,13.3,24.857v10.22h-50.393V370.02c0.01,0.293,0.017,0.596,0.017,0.914c0,17.448,14.172,19.367,16.951,19.575  h111.466v-50.396H243.78c-5.568,8.362-14.747,13.302-24.86,13.302c-16.48,0-29.887-13.407-29.887-29.886  S202.439,293.644,218.92,293.644z"/>
<path style="fill:#4982AA;" d="M141.113,374.958v-118.41h-15.551v113.43c0.012,0.305,0.019,0.623,0.019,0.956  c0,17.448,14.172,19.367,16.951,19.575h111.466v-15.551H141.113z"/>
<path style="fill:#F37521;" d="M364.982,122.588h-110.28v15.551h112.239v118.409h15.466V142.189  C382.408,122.844,364.982,122.588,364.982,122.588z"/>
<path style="fill:#F9B338;" d="M382.408,370.973V256.548h-15.531v118.41H254.142v15.551h111.315  C368.236,390.302,382.387,388.386,382.408,370.973z"/>
<path style="fill:#DF3126;" d="M142.414,122.588c-3.026,0.252-16.834,2.338-16.834,19.565c0,0.318-0.007,0.622-0.017,0.914v113.481  h15.551V138.14h112.859v-15.551H142.414z"/>
<g>
	<path style="fill:#6598CB;" d="M71.845,2.179l-0.743,0.743c-0.135,0.15-0.208,0.244-0.208,0.244l-0.022-0.014L13.944,60.08   l-9.695,9.695l0.013,0.023c0,0-0.094,0.072-0.245,0.208l-0.743,0.743c-1.526,1.69-3.92,5.445-0.201,9.679l12.573,12.573   l16.185,16.185l12.574,12.574c4.233,3.719,7.989,1.324,9.679-0.202l0.743-0.743c0.136-0.151,0.208-0.244,0.208-0.244l0.024,0.013   l9.694-9.695l56.928-56.928l-0.014-0.023c0,0,0.094-0.073,0.244-0.208l0.744-0.744c1.526-1.69,3.92-5.445,0.201-9.678   l-12.576-12.572L94.098,14.551L81.524,1.978C77.292-1.742,73.536,0.652,71.845,2.179z"/>
	<path style="fill:#6598CB;" d="M440.157,2.179l0.743,0.743c0.135,0.15,0.208,0.244,0.208,0.244l0.023-0.014l56.928,56.928   l9.695,9.695l-0.013,0.023c0,0,0.094,0.072,0.245,0.208l0.743,0.743c1.526,1.69,3.92,5.445,0.201,9.679l-12.573,12.573   l-16.186,16.185l-12.574,12.574c-4.233,3.719-7.989,1.324-9.679-0.202l-0.743-0.743c-0.136-0.151-0.208-0.244-0.208-0.244   l-0.023,0.013l-9.695-9.695L390.32,53.961l0.014-0.023c0,0-0.094-0.073-0.244-0.208l-0.744-0.744   c-1.526-1.69-3.92-5.445-0.201-9.678l12.574-12.574l16.185-16.185l12.573-12.573C434.712-1.742,438.466,0.652,440.157,2.179z"/>
</g>
<g>
	<path style="fill:#4982AA;" d="M57.256,109.186L41.073,93.001L28.499,80.428c-3.719-4.234-1.324-7.989,0.201-9.679l0.743-0.743   c0.151-0.136,0.245-0.208,0.245-0.208l-0.013-0.023l9.695-9.695L89.498,9.951l-7.974-7.974c-4.233-3.72-7.988-1.325-9.679,0.201   l-0.743,0.743c-0.135,0.15-0.208,0.244-0.208,0.244l-0.022-0.014L13.944,60.08l-9.695,9.695l0.013,0.023   c0,0-0.094,0.072-0.245,0.208l-0.743,0.743c-1.526,1.69-3.92,5.445-0.201,9.679l12.573,12.573l16.185,16.185l12.574,12.574   c4.233,3.719,7.989,1.324,9.679-0.202l0.743-0.743c0.136-0.151,0.208-0.244,0.208-0.244l0.024,0.013l6.797-6.797L57.256,109.186z"/>
	<path style="fill:#4982AA;" d="M472.674,110.89l-56.928-56.928l0.014-0.023c0,0-0.094-0.073-0.244-0.208l-0.744-0.744   c-1.526-1.69-3.92-5.445-0.201-9.678l12.574-12.574L443.33,14.55l4.6-4.6l-6.8-6.8l-0.023,0.014c0,0-0.072-0.094-0.208-0.244   l-0.743-0.743c-1.691-1.527-5.447-3.921-9.679-0.201L417.903,14.55l-16.185,16.185l-12.574,12.574   c-3.719,4.233-1.324,7.988,0.201,9.678l0.744,0.744c0.15,0.134,0.244,0.208,0.244,0.208l-0.014,0.023l56.928,56.928l9.695,9.695   l0.023-0.013c0,0,0.071,0.093,0.208,0.244l0.743,0.743c1.69,1.527,5.447,3.921,9.679,0.202l7.974-7.974L472.674,110.89z"/>
</g>
<path style="fill:#6598CB;" d="M71.845,509.823l-0.743-0.743c-0.135-0.15-0.208-0.244-0.208-0.244l-0.023,0.014l-56.928-56.928  l-9.695-9.695l0.013-0.023c0,0-0.094-0.072-0.245-0.209l-0.743-0.743c-1.526-1.69-3.92-5.445-0.201-9.679L15.645,419l16.185-16.185  l12.574-12.574c4.233-3.719,7.989-1.324,9.679,0.202l0.743,0.743c0.136,0.151,0.208,0.244,0.208,0.244l0.024-0.013l9.694,9.695  l56.928,56.928l-0.014,0.023c0,0,0.094,0.073,0.244,0.208l0.744,0.744c1.526,1.69,3.92,5.445,0.201,9.678l-12.574,12.574  l-16.184,16.184l-12.573,12.573C77.292,513.744,73.536,511.35,71.845,509.823z"/>
<path style="fill:#4982AA;" d="M39.369,451.922l-9.695-9.695l0.013-0.023c0,0-0.094-0.072-0.245-0.209l-0.743-0.743  c-1.526-1.69-3.92-5.445-0.201-9.679L41.072,419l16.185-16.185l4.6-4.601l-6.797-6.798l-0.024,0.013c0,0-0.071-0.093-0.208-0.244  l-0.743-0.743c-1.69-1.527-5.447-3.921-9.679-0.202L31.83,402.814l-16.185,16.185L3.074,431.574  c-3.719,4.234-1.324,7.989,0.201,9.679l0.743,0.743c0.151,0.136,0.245,0.209,0.245,0.209l-0.013,0.023l9.695,9.695l56.928,56.928  l0.023-0.014c0,0,0.073,0.094,0.208,0.244l0.743,0.743c1.691,1.527,5.447,3.921,9.679,0.201l7.974-7.974L39.369,451.922z"/>
<path style="fill:#6598CB;" d="M440.157,509.823l0.743-0.743c0.135-0.15,0.208-0.244,0.208-0.244l0.023,0.014l56.928-56.928  l9.695-9.695l-0.013-0.023c0,0,0.094-0.072,0.245-0.209l0.743-0.743c1.526-1.69,3.92-5.445,0.201-9.679L496.357,419l-16.185-16.185  l-12.574-12.574c-4.233-3.719-7.989-1.324-9.679,0.202l-0.743,0.743c-0.136,0.151-0.208,0.244-0.208,0.244l-0.023-0.013  l-9.695,9.695l-56.928,56.928l0.014,0.023c0,0-0.094,0.073-0.244,0.208l-0.744,0.744c-1.526,1.69-3.92,5.445-0.201,9.678  l12.574,12.574l16.185,16.184l12.573,12.573C434.712,513.744,438.466,511.35,440.157,509.823z"/>
<path style="fill:#4982AA;" d="M443.331,497.451l-16.185-16.185l-12.574-12.574c-3.719-4.233-1.324-7.988,0.201-9.678l0.744-0.744  c0.15-0.134,0.244-0.208,0.244-0.208l-0.014-0.023l56.928-56.928l2.895-2.896l-7.974-7.974c-4.233-3.719-7.989-1.324-9.679,0.202  l-0.743,0.743c-0.136,0.151-0.208,0.244-0.208,0.244l-0.023-0.013l-9.695,9.695L390.32,458.04l0.014,0.023  c0,0-0.094,0.073-0.244,0.208l-0.744,0.744c-1.526,1.69-3.92,5.445-0.201,9.678l12.574,12.574l16.186,16.184l12.573,12.573  c4.233,3.72,7.988,1.325,9.679-0.201l0.743-0.743c0.135-0.15,0.208-0.244,0.208-0.244l0.023,0.014l6.8-6.8L443.331,497.451z"/>
<g>
</g>
<g>
</g>
<g>
</g>
<g>
</g>
<g>
</g>
<g>
</g>
<g>
</g>
<g>
</g>
<g>
</g>
<g>
</g>
<g>
</g>
<g>
</g>
<g>
</g>
<g>
</g>
<g>
</g>
</svg>
