<?xml version="1.0" encoding="iso-8859-1"?>
<!-- Generator: Adobe Illustrator 19.0.0, SVG Export Plug-In . SVG Version: 6.00 Build 0)  -->
<svg xmlns="http://www.w3.org/2000/svg" xmlns:xlink="http://www.w3.org/1999/xlink" version="1.1" id="Layer_1" x="0px" y="0px" viewBox="0 0 512 512" style="enable-background:new 0 0 512 512;" xml:space="preserve">
<polygon style="fill:#F7B64C;" points="227.2,105.6 227.2,151.467 256,178.133 284.8,151.467 284.8,105.6 "/>
<path style="fill:#344A5E;" d="M378.667,256l-3.2-34.133c-2.133-21.333-16-39.467-36.267-45.867l-43.733-14.933l-39.467,9.6  l-39.467-9.6L172.8,176c-20.267,6.4-34.133,24.533-36.267,45.867l-3.2,34.133H378.667z"/>
<polygon style="fill:#CED6E0;" points="267.733,256 295.467,161.067 241.067,170.667 216.533,161.067 244.267,256 "/>
<polygon style="fill:#F05540;" points="265.6,190.933 274.133,182.4 256,165.333 237.867,182.4 246.4,190.933 "/>
<polygon style="fill:#F3705A;" points="273.067,256 265.6,190.933 246.4,190.933 238.933,256 "/>
<path style="fill:#415A6B;" d="M256,0c-30.933,0-56.533,29.867-55.467,64c0,1.067,0-1.067,0,0c3.2,39.467,27.733,70.4,55.467,70.4  s52.267-30.933,55.467-70.4c0-1.067,0,1.067,0,0C313.6,29.867,288,0,256,0L256,0z"/>
<g>
	
		<ellipse transform="matrix(0.2747 -0.9615 0.9615 0.2747 132.1127 360.6253)" style="fill:#FFD15C;" cx="305.099" cy="92.741" rx="17.066" ry="10.666"/>
	
		<ellipse transform="matrix(0.2747 0.9615 -0.9615 0.2747 239.2626 -131.0143)" style="fill:#FFD15C;" cx="206.475" cy="93.089" rx="17.066" ry="10.666"/>
	<path style="fill:#FFD15C;" d="M253.867,55.467c-13.867,0-27.733-2.133-39.467-6.4C211.2,57.6,209.067,67.2,208,76.8   c-2.133,39.467,19.2,73.6,46.933,73.6S304,116.267,301.867,76.8c-1.067-10.667-3.2-20.267-6.4-28.8   C283.733,53.333,268.8,55.467,253.867,55.467z"/>
</g>
<path style="fill:#F3F3F3;" d="M284.8,144c-7.467,10.667-17.067,18.133-28.8,21.333c8.533,7.467,14.933,18.133,16,25.6  l23.467-29.867L284.8,144z"/>
<polygon style="fill:#415A6B;" points="280.533,256 316.8,212.267 296.533,195.2 317.867,181.333 290.133,152.533 263.467,256 "/>
<path style="fill:#F3F3F3;" d="M227.2,144c7.467,10.667,17.067,18.133,28.8,21.333c-8.533,7.467-14.933,18.133-16,25.6  l-23.467-29.867L227.2,144z"/>
<polygon style="fill:#415A6B;" points="231.467,256 195.2,212.267 215.467,192 194.133,181.333 221.867,152.533 248.533,256 "/>
<path style="fill:#344A5E;" d="M298.667,393.6l-32-30.933v-44.8c0-6.4-4.267-10.667-10.667-10.667l0,0  c-6.4,0-10.667,4.267-10.667,10.667v44.8L214.4,393.6c-4.267,4.267-4.267,10.667,0,14.933l0,0c4.267,4.267,10.667,4.267,14.933,0  L256,381.867l26.667,26.667c4.267,4.267,10.667,4.267,14.933,0C301.867,404.267,301.867,397.867,298.667,393.6z"/>
<polygon style="fill:#F7B64C;" points="361.6,373.333 361.6,411.733 390.4,433.067 419.2,411.733 419.2,373.333 "/>
<path style="fill:#8AD7F8;" d="M512,512l-2.133-19.2c-2.133-12.8-9.6-24.533-21.333-30.933L429.867,428.8l-39.467,4.267  l-39.467-4.267l-58.667,33.067c-11.733,6.4-19.2,18.133-21.333,30.933L268.8,512H512z"/>
<polygon style="fill:#CED6E0;" points="405.333,512 429.867,428.8 375.467,438.4 350.933,428.8 375.467,512 "/>
<polygon style="fill:#F05540;" points="400,458.667 408.533,450.133 390.4,433.067 373.333,450.133 380.8,458.667 "/>
<polygon style="fill:#F3705A;" points="406.4,512 400,458.667 380.8,458.667 374.4,512 "/>
<g>
	<polygon style="fill:#F3F3F3;" points="419.2,411.733 390.4,433.067 407.467,456.533 429.867,428.8  "/>
	<polygon style="fill:#F3F3F3;" points="361.6,411.733 390.4,433.067 373.333,456.533 350.933,428.8  "/>
</g>
<polygon style="fill:#55C0EB;" points="336,475.733 355.2,512 375.467,512 357.333,418.133 331.733,451.2 350.933,460.8 "/>
<path style="fill:#FFD15C;" d="M389.333,284.8l-39.467,32c0,0-5.333,18.133-6.4,27.733c-2.133,39.467,19.2,73.6,46.933,73.6  s49.067-34.133,46.933-73.6c-1.067-10.667-6.4-28.8-6.4-28.8L389.333,284.8z"/>
<path style="fill:#415A6B;" d="M445.867,328.533C444.8,342.4,440.533,355.2,435.2,365.867c-1.067-2.133-1.067-5.333-2.133-7.467  c0,0,8.533-26.667-6.4-41.6c-12.8-13.867-59.733-13.867-72.533,0c-14.933,14.933-6.4,41.6-6.4,41.6  c-1.067,2.133-2.133,4.267-2.133,7.467c-5.333-10.667-9.6-23.467-10.667-37.333l0,0c-1.067-33.067,24.533-60.8,55.467-60.8  C422.4,267.733,448,296.533,445.867,328.533z"/>
<g>
	
		<ellipse transform="matrix(0.2747 -0.9615 0.9615 0.2747 -27.7428 683.9964)" style="fill:#FFD15C;" cx="439.519" cy="360.388" rx="17.066" ry="10.666"/>
	
		<ellipse transform="matrix(0.2747 0.9615 -0.9615 0.2747 594.7121 -66.4601)" style="fill:#FFD15C;" cx="341.409" cy="360.978" rx="17.066" ry="10.666"/>
</g>
<polygon style="fill:#55C0EB;" points="445.867,475.733 426.667,512 405.333,512 423.467,418.133 450.133,451.2 429.867,460.8 "/>
<polygon style="fill:#F7B64C;" points="92.8,373.333 92.8,411.733 121.6,433.067 150.4,411.733 150.4,373.333 "/>
<path style="fill:#8AD7F8;" d="M243.2,512l-2.133-19.2c-2.133-12.8-9.6-24.533-21.333-30.933L161.067,428.8l-39.467,4.267  L82.133,428.8l-58.667,33.067C11.733,468.267,4.267,480,2.133,492.8L0,512H243.2z"/>
<polygon style="fill:#CED6E0;" points="136.533,512 161.067,428.8 106.667,438.4 82.133,428.8 106.667,512 "/>
<polygon style="fill:#F05540;" points="131.2,458.667 138.667,450.133 121.6,433.067 103.467,450.133 112,458.667 "/>
<polygon style="fill:#F3705A;" points="137.6,512 131.2,458.667 112,458.667 105.6,512 "/>
<g>
	<polygon style="fill:#F3F3F3;" points="150.4,411.733 121.6,433.067 138.667,456.533 161.067,428.8  "/>
	<polygon style="fill:#F3F3F3;" points="92.8,411.733 121.6,433.067 104.533,456.533 82.133,428.8  "/>
</g>
<polygon style="fill:#55C0EB;" points="66.133,475.733 85.333,512 106.667,512 88.533,418.133 61.867,451.2 82.133,460.8 "/>
<path style="fill:#FFD15C;" d="M119.467,284.8L80,316.8c0,0-5.333,18.133-6.4,27.733c-2.133,39.467,19.2,73.6,46.933,73.6  s49.067-34.133,46.933-73.6c-1.067-10.667-6.4-28.8-6.4-28.8L119.467,284.8z"/>
<path style="fill:#415A6B;" d="M177.067,328.533C176,342.4,171.733,355.2,166.4,365.867c-1.067-2.133-1.067-5.333-2.133-7.467  c0,0,8.533-26.667-6.4-41.6c-12.8-13.867-59.733-13.867-72.533,0c-14.933,14.933-6.4,41.6-6.4,41.6  c-1.067,2.133-2.133,4.267-2.133,7.467c-5.333-10.667-9.6-23.467-10.667-37.333l0,0c-1.067-33.067,24.533-60.8,55.467-60.8  S178.133,296.533,177.067,328.533z"/>
<g>
	
		<ellipse transform="matrix(0.2747 -0.9615 0.9615 0.2747 -222.8568 425.6422)" style="fill:#FFD15C;" cx="170.711" cy="360.543" rx="17.066" ry="10.666"/>
	
		<ellipse transform="matrix(0.2747 0.9615 -0.9615 0.2747 399.2359 193.0595)" style="fill:#FFD15C;" cx="71.647" cy="361.165" rx="17.066" ry="10.666"/>
</g>
<polygon style="fill:#55C0EB;" points="176,475.733 156.8,512 136.533,512 154.667,418.133 180.267,451.2 161.067,460.8 "/>
<g>
</g>
<g>
</g>
<g>
</g>
<g>
</g>
<g>
</g>
<g>
</g>
<g>
</g>
<g>
</g>
<g>
</g>
<g>
</g>
<g>
</g>
<g>
</g>
<g>
</g>
<g>
</g>
<g>
</g>
</svg>
