<?xml version="1.0" encoding="iso-8859-1"?>
<!-- Generator: Adobe Illustrator 19.0.0, SVG Export Plug-In . SVG Version: 6.00 Build 0)  -->
<svg xmlns="http://www.w3.org/2000/svg" xmlns:xlink="http://www.w3.org/1999/xlink" version="1.1" id="Layer_1" x="0px" y="0px" viewBox="0 0 491.52 491.52" style="enable-background:new 0 0 491.52 491.52;" xml:space="preserve">
<path style="fill:#E1E6E9;" d="M273.214,17.246H26.752c-14.767,0-26.739,11.972-26.739,26.739v420.796  c0,14.768,11.972,26.739,26.739,26.739h246.462c14.768,0,26.739-11.971,26.739-26.739V43.985  C299.953,29.218,287.982,17.246,273.214,17.246z"/>
<path style="fill:#EBF0F3;" d="M273.214,0H26.752C11.984,0,0.013,11.972,0.013,26.739v420.796c0,14.768,11.972,26.739,26.739,26.739  h246.462c14.768,0,26.739-11.971,26.739-26.739V26.739C299.953,11.972,287.982,0,273.214,0z"/>
<path style="fill:#64798A;" d="M26.749,403.439c-0.48,0-0.867-0.329-0.867-0.736V45.7c0-0.407,0.387-0.739,0.867-0.739h246.467  c0.48,0,0.867,0.332,0.867,0.739v357.003c0,0.407-0.387,0.736-0.867,0.736H26.749z"/>
<path style="fill:#3A556A;" d="M149.983,463.877c-13.145,0-23.84-10.695-23.84-23.844c0-13.149,10.695-23.844,23.84-23.844  s23.84,10.695,23.84,23.844C173.823,453.183,163.128,463.877,149.983,463.877z M149.983,424.812  c-8.387,0-15.217,6.829-15.217,15.221c0,8.392,6.829,15.221,15.217,15.221c8.387,0,15.217-6.829,15.217-15.221  C165.2,431.642,158.37,424.812,149.983,424.812z"/>
<path style="fill:#64798A;" d="M190.096,28.465H109.87c-2.06,0-3.73-1.67-3.73-3.73v-5.562c0-2.06,1.67-3.73,3.73-3.73h80.226  c2.06,0,3.73,1.67,3.73,3.73v5.562C193.826,26.795,192.156,28.465,190.096,28.465z"/>
<g>
	<path style="fill:#EBF0F3;" d="M145.821,221.378v-13.825c-17.308-1.765-32.844-8.646-46.592-20.637l13.825-16.476   c10.604,9.217,21.516,14.703,32.767,16.476v-36.743c-14.272-3.406-24.721-7.891-31.349-13.447   c-6.627-5.556-9.941-13.794-9.941-24.714s3.807-19.851,11.451-26.802c7.645-6.943,17.585-10.727,29.838-11.359V64.38h12.114v9.656   c13.887,1.017,27.018,5.749,39.394,14.21l-12.314,17.424c-8.338-5.934-17.354-9.594-27.08-10.989v35.603h0.57   c14.518,3.414,25.184,8.022,31.996,13.825c6.828,5.81,10.234,14.241,10.234,25.284c0,11.051-3.915,20.051-11.744,26.987   c-7.829,6.951-18.171,10.735-31.056,11.367v13.632H145.821z M132.458,99.135c-3.221,2.836-4.824,6.373-4.824,10.604   c0,4.231,1.264,7.575,3.791,10.033c2.512,2.466,7.321,4.832,14.395,7.105V94.111C140.134,94.619,135.68,96.292,132.458,99.135z    M172.33,182.177c3.529-2.898,5.302-6.558,5.302-10.981c0-4.416-1.387-7.922-4.161-10.511c-2.79-2.589-7.968-5.017-15.536-7.29   v34.084C163.992,186.855,168.785,185.082,172.33,182.177z"/>
	<rect x="59.712" y="246.733" style="fill:#EBF0F3;" width="180.531" height="37.591"/>
	<rect x="59.712" y="299.008" style="fill:#EBF0F3;" width="180.531" height="37.591"/>
</g>
<g>
	<rect x="169.638" y="348.467" style="fill:#FCD462;" width="70.595" height="37.591"/>
	<circle style="fill:#FCD462;" cx="359.744" cy="131.763" r="131.763"/>
</g>
<path style="fill:#64798A;" d="M415.405,134.02H304.13V84.103c0-30.678,24.962-55.638,55.64-55.638s55.636,24.96,55.636,55.638  V134.02z M319.616,118.534h80.304V84.103c0-22.14-18.009-40.152-40.15-40.152s-40.154,18.012-40.154,40.152V118.534z"/>
<path style="fill:#27A2DB;" d="M425.517,111.228H294.019c-4.18,0-7.568,3.388-7.568,7.568v88.493c0,4.18,3.388,7.568,7.568,7.568  h131.498c4.18,0,7.568-3.388,7.568-7.568v-88.493C433.085,114.616,429.696,111.228,425.517,111.228z"/>
<path style="fill:#1C75A1;" d="M370.883,154.604c0-6.139-4.977-11.115-11.115-11.115c-6.139,0-11.115,4.976-11.115,11.115  c0,3.505,1.655,6.593,4.189,8.63l-4.189,19.363h22.23l-4.189-19.363C369.228,161.196,370.883,158.108,370.883,154.604z"/>
<g>
</g>
<g>
</g>
<g>
</g>
<g>
</g>
<g>
</g>
<g>
</g>
<g>
</g>
<g>
</g>
<g>
</g>
<g>
</g>
<g>
</g>
<g>
</g>
<g>
</g>
<g>
</g>
<g>
</g>
</svg>
