<?xml version="1.0" encoding="iso-8859-1"?>
<!-- Generator: Adobe Illustrator 19.0.0, SVG Export Plug-In . SVG Version: 6.00 Build 0)  -->
<svg xmlns="http://www.w3.org/2000/svg" xmlns:xlink="http://www.w3.org/1999/xlink" version="1.1" id="Layer_1" x="0px" y="0px" viewBox="0 0 512 512" style="enable-background:new 0 0 512 512;" xml:space="preserve">
<path style="fill:#415A6B;" d="M480,483.2H32c-18.133,0-32-13.867-32-32V32C0,13.867,13.867,0,32,0h448c18.133,0,32,13.867,32,32  v419.2C512,469.333,498.133,483.2,480,483.2z"/>
<path style="fill:#ADB3BA;" d="M86.4,74.667v333.867c0,11.733,9.6,21.333,21.333,21.333h329.6c11.733,0,21.333-9.6,21.333-21.333  V74.667c0-11.733-9.6-21.333-21.333-21.333h-329.6C96,53.333,86.4,62.933,86.4,74.667z"/>
<g>
	<path style="fill:#344A5E;" d="M104.533,160h-35.2c-12.8,0-22.4-9.6-22.4-22.4l0,0c0-12.8,9.6-22.4,22.4-22.4h35.2   c12.8,0,22.4,9.6,22.4,22.4l0,0C126.933,150.4,117.333,160,104.533,160z"/>
	<path style="fill:#344A5E;" d="M104.533,373.333h-35.2c-12.8,0-22.4-9.6-22.4-22.4l0,0c0-12.8,9.6-22.4,22.4-22.4h35.2   c12.8,0,22.4,9.6,22.4,22.4l0,0C126.933,363.733,117.333,373.333,104.533,373.333z"/>
	<polygon style="fill:#344A5E;" points="101.333,512 41.6,512 41.6,483.2 112,483.2  "/>
	<polygon style="fill:#344A5E;" points="470.4,512 410.667,512 400,483.2 470.4,483.2  "/>
</g>
<g>
	<circle style="fill:#415A6B;" cx="251.733" cy="242.133" r="42.667"/>
	<path style="fill:#415A6B;" d="M322.133,252.8h-140.8c-6.4,0-10.667-4.267-10.667-10.667s4.267-10.667,10.667-10.667h140.8   c6.4,0,10.667,4.267,10.667,10.667S328.533,252.8,322.133,252.8z"/>
	<path style="fill:#415A6B;" d="M251.733,323.2c-6.4,0-10.667-4.267-10.667-10.667v-140.8c0-6.4,4.267-10.667,10.667-10.667   c6.4,0,10.667,4.267,10.667,10.667v140.8C262.4,317.867,258.133,323.2,251.733,323.2z"/>
</g>
<circle style="fill:#344A5E;" cx="251.733" cy="242.133" r="19.2"/>
<path style="fill:#415A6B;" d="M404.267,307.2c-6.4,0-10.667-4.267-10.667-10.667v-108.8c0-6.4,4.267-10.667,10.667-10.667  s10.667,4.267,10.667,10.667v108.8C414.933,301.867,409.6,307.2,404.267,307.2z"/>
<g>
</g>
<g>
</g>
<g>
</g>
<g>
</g>
<g>
</g>
<g>
</g>
<g>
</g>
<g>
</g>
<g>
</g>
<g>
</g>
<g>
</g>
<g>
</g>
<g>
</g>
<g>
</g>
<g>
</g>
</svg>
