<?xml version="1.0" encoding="iso-8859-1"?>
<!-- Generator: Adobe Illustrator 19.0.0, SVG Export Plug-In . SVG Version: 6.00 Build 0)  -->
<svg xmlns="http://www.w3.org/2000/svg" xmlns:xlink="http://www.w3.org/1999/xlink" version="1.1" id="Layer_1" x="0px" y="0px" viewBox="0 0 512 512" style="enable-background:new 0 0 512 512;" xml:space="preserve">
<path style="fill:#6598CB;" d="M395.685,257.224c-5.595-11.524-15.996-15.575-17.163-16l-30.847-12.363l-16.225,16.838  l-16.944-16.502l-30.614,11.987l-0.243,0.087c-1.894,0.7-11.617,4.762-17.041,15.953l-3.111,6.416l5.582,4.437  c17.855,14.193,39.318,21.695,62.073,21.695c22.749,0,44.211-7.5,62.063-21.689l5.585-4.439L395.685,257.224z"/>
<path style="fill:#3B7EAD;" d="M323.65,279.808c-26.985-4.413-42.003-19.065-46.319-23.904c1.943-5.115,5.93-7.813,8.468-9.065  l29.112-11.801l5.687,0.093l-6.093-5.935l-30.614,11.987l-0.243,0.087c-1.894,0.7-11.617,4.762-17.041,15.953l-3.111,6.416  l5.582,4.437c15.579,12.383,33.905,19.67,53.438,21.328C334.13,287.252,345.316,283.35,323.65,279.808z"/>
<path style="fill:#C8D0E2;" d="M214.872,377.868h-19.073c-1.893-6.657-4.553-13.069-7.928-19.127l13.491-13.49  c1.269-1.268,1.269-3.325,0-4.595l-30.363-30.368c-0.609-0.611-1.437-0.954-2.298-0.954c-0.861,0-1.688,0.344-2.298,0.954  l-13.495,13.493c-6.057-3.379-12.467-6.038-19.122-7.93v-19.074c0-1.794-1.456-3.25-3.251-3.25H87.589  c-1.793,0-3.251,1.456-3.251,3.25v19.074c-6.652,1.892-13.063,4.551-19.121,7.93l-13.496-13.493  c-0.609-0.611-1.436-0.954-2.296-0.954c-0.864,0-1.689,0.344-2.299,0.954l-30.363,30.369c-1.27,1.271-1.27,3.328,0,4.594  l13.491,13.493c-3.379,6.059-6.04,12.471-7.928,19.123H3.251c-1.795,0-3.251,1.456-3.251,3.25v42.944c0,1.794,1.456,3.25,3.251,3.25  h19.074c1.89,6.65,4.547,13.063,7.928,19.125L16.763,459.93c-1.27,1.27-1.27,3.325,0,4.594l30.363,30.366  c0.635,0.634,1.468,0.952,2.299,0.952c0.832,0,1.663-0.317,2.296-0.95l13.496-13.494c6.053,3.378,12.467,6.039,19.121,7.931V508.4  c0,1.794,1.458,3.25,3.251,3.25h42.945c1.795,0,3.251-1.456,3.251-3.25v-19.071c6.653-1.893,13.066-4.554,19.122-7.932  l13.495,13.492c0.633,0.633,1.465,0.952,2.297,0.952c0.832,0,1.663-0.318,2.297-0.952l30.365-30.364  c1.269-1.269,1.269-3.325,0-4.595l-13.491-13.496c3.375-6.052,6.036-12.464,7.931-19.123h19.072c1.795,0,3.251-1.456,3.251-3.25  v-42.944C218.123,379.322,216.667,377.868,214.872,377.868z M154.435,402.591c0,0.83-0.029,1.719-0.088,2.717  c-0.016,0.221-0.029,0.435-0.048,0.651l-0.016,0.179c-0.052,0.68-0.116,1.327-0.193,1.932c-0.028,0.25-0.063,0.526-0.1,0.802  c-0.101,0.722-0.219,1.435-0.353,2.152c-0.042,0.229-0.067,0.368-0.093,0.506c-0.17,0.855-0.376,1.737-0.608,2.611  c-0.045,0.169-0.081,0.302-0.12,0.436c-0.008,0.024-0.016,0.049-0.022,0.073c-0.18,0.661-0.391,1.354-0.622,2.062  c-0.07,0.214-0.145,0.437-0.224,0.663c-0.24,0.696-0.485,1.352-0.746,2.002l-0.198,0.496c-0.677,1.63-1.467,3.266-2.338,4.82  l-0.183,0.322c-0.391,0.678-0.783,1.327-1.209,1.991c-0.098,0.159-0.186,0.29-0.274,0.424c-1.48,2.259-3.171,4.39-5.036,6.356  l-0.19,0.196c-1.866,1.954-3.939,3.757-6.159,5.364l-0.794,0.562c-0.519,0.358-1.066,0.72-1.599,1.057l-0.196,0.122  c-0.221,0.14-0.44,0.279-0.664,0.414c-0.283,0.169-0.549,0.321-0.817,0.473l-0.164,0.092c-0.237,0.138-0.368,0.215-0.503,0.287  c-0.292,0.161-0.568,0.305-0.842,0.447l-0.29,0.149c-0.696,0.359-1.415,0.704-2.123,1.025l-0.162,0.072  c-0.367,0.162-0.767,0.336-1.165,0.503c-0.373,0.152-0.748,0.3-1.125,0.443l-0.248,0.097c-0.592,0.22-1.211,0.437-1.859,0.647  l-0.289,0.096l-0.217,0.067c-0.061,0.021-0.126,0.041-0.194,0.067l-0.708,0.203c-0.02,0.006-0.038,0.011-0.056,0.016l-1.49,0.402  c-0.136,0.034-0.274,0.068-0.412,0.101l-1.012,0.236c-1.068,0.228-1.929,0.39-2.781,0.519c-0.098,0.014-0.19,0.027-0.28,0.038  l-0.255,0.032c-0.771,0.109-1.611,0.203-2.473,0.274c-0.295,0.025-0.575,0.046-0.856,0.066c-1.122,0.072-2.066,0.107-2.979,0.107  c-0.92,0-1.879-0.033-3.014-0.11c-0.236-0.014-0.491-0.035-0.748-0.055c-0.542-0.046-1.034-0.105-1.525-0.164l-0.233-0.028  c-0.342-0.035-0.57-0.061-0.792-0.09c-0.221-0.026-0.365-0.045-0.507-0.067c-0.858-0.128-1.736-0.292-2.78-0.517  c-0.375-0.081-0.711-0.16-1.045-0.242c-0.53-0.126-1.073-0.273-1.617-0.428l-0.295-0.078c-0.386-0.111-0.816-0.238-1.239-0.372  c-0.581-0.186-1.141-0.383-1.697-0.587c-0.02-0.006-0.039-0.012-0.06-0.018c-0.116-0.04-0.225-0.08-0.336-0.12  c-0.435-0.165-0.884-0.345-1.329-0.527c-0.405-0.165-0.817-0.345-1.232-0.53c-0.791-0.354-1.568-0.73-2.302-1.11l-0.352-0.181  c-0.3-0.156-0.512-0.264-0.717-0.379c-0.472-0.258-0.942-0.532-1.407-0.809c-0.166-0.099-0.311-0.189-0.451-0.275  c-0.093-0.06-0.187-0.115-0.287-0.163l-0.047-0.022l-0.265-0.189c-0.042-0.03-0.086-0.059-0.127-0.086  c-11.262-7.208-18.752-18.897-20.548-32.075l-0.065-0.513c-0.088-0.691-0.158-1.413-0.218-2.21l-0.051-0.71  c-0.058-0.958-0.087-1.86-0.087-2.714c0-1.035,0.042-2.094,0.136-3.341l0.016-0.242c0.024-0.344,0.048-0.707,0.088-1.067  l0.027-0.246c0.079-0.721,0.16-1.344,0.249-1.93c0.032-0.205,0.07-0.422,0.11-0.638l0.028-0.166  c0.087-0.497,0.159-0.924,0.243-1.344c0.052-0.259,0.106-0.49,0.159-0.72l0.07-0.322c0.088-0.391,0.173-0.765,0.266-1.136  c0.059-0.229,0.131-0.489,0.204-0.75l0.077-0.273c0.096-0.349,0.19-0.69,0.294-1.028c0.091-0.297,0.179-0.559,0.264-0.821  l0.046-0.139c0.12-0.361,0.24-0.723,0.367-1.084c0.128-0.348,0.242-0.651,0.359-0.952c0.14-0.366,0.278-0.725,0.425-1.076  c0.121-0.302,0.26-0.621,0.402-0.94c0.147-0.339,0.302-0.678,0.462-1.019c0.146-0.306,0.288-0.605,0.436-0.901  c0.18-0.358,0.353-0.698,0.531-1.033c0.142-0.273,0.304-0.571,0.47-0.865c0.184-0.331,0.372-0.653,0.563-0.977  c0.16-0.274,0.334-0.568,0.515-0.858c0.19-0.309,0.401-0.63,0.611-0.952c0.178-0.275,0.363-0.553,0.552-0.829  c0.214-0.31,0.444-0.63,0.676-0.948c0.185-0.258,0.373-0.519,0.568-0.775c0.221-0.293,0.47-0.601,0.716-0.91l0.1-0.127  c0.159-0.198,0.317-0.401,0.486-0.595c0.25-0.306,0.501-0.591,0.752-0.874l0.175-0.204c0.152-0.175,0.305-0.346,0.459-0.517  c0.262-0.283,0.521-0.555,0.78-0.824l0.255-0.262c0.148-0.156,0.279-0.295,0.414-0.427c0.455-0.453,0.918-0.896,1.415-1.349  l0.234-0.214c0.515-0.466,1.002-0.886,1.474-1.277c0.17-0.139,0.321-0.256,0.47-0.375l0.096-0.072c0.4-0.322,0.748-0.6,1.107-0.869  c0.159-0.121,0.349-0.258,0.538-0.393l0.137-0.098c0.346-0.249,0.686-0.495,1.034-0.732c0.189-0.129,0.393-0.263,0.595-0.393  l0.159-0.106c0.338-0.221,0.686-0.446,1.037-0.664c0.198-0.121,0.416-0.25,0.637-0.379l0.146-0.086  c0.348-0.206,0.688-0.402,1.031-0.593c0.246-0.137,0.489-0.265,0.731-0.392l0.106-0.057c0.364-0.19,0.717-0.374,1.072-0.55  c0.285-0.14,0.575-0.277,0.868-0.413c0.356-0.167,0.719-0.333,1.087-0.491c0.273-0.119,0.566-0.244,0.864-0.367  c0.394-0.159,0.761-0.303,1.131-0.443c0.283-0.109,0.585-0.22,0.895-0.329c0.388-0.139,0.765-0.264,1.143-0.388  c0.295-0.097,0.607-0.197,0.918-0.292c0.383-0.116,0.778-0.228,1.174-0.335c0.296-0.08,0.597-0.162,0.9-0.242  c0.435-0.107,0.839-0.198,1.243-0.287c0.343-0.076,0.628-0.138,0.913-0.198c0.396-0.077,0.779-0.142,1.165-0.21l0.306-0.051  c0.234-0.04,0.463-0.08,0.692-0.116c0.43-0.063,0.846-0.112,1.261-0.161l0.296-0.037c0.227-0.028,0.449-0.055,0.671-0.076  c0.486-0.048,0.994-0.082,1.497-0.116l0.15-0.012c0.197-0.016,0.376-0.028,0.559-0.04c0.759-0.036,1.537-0.055,2.296-0.055  c0.749,0,1.5,0.019,2.234,0.055c0.209,0.012,0.411,0.027,0.611,0.042l0.284,0.02c0.464,0.03,0.907,0.061,1.346,0.105  c0.219,0.022,0.428,0.048,0.642,0.075l0.475,0.059c0.367,0.042,0.728,0.087,1.087,0.141c0.267,0.039,0.535,0.086,0.801,0.134  l0.161,0.027c0.393,0.066,0.792,0.135,1.186,0.213c0.321,0.065,0.613,0.128,0.909,0.197c0.456,0.1,0.844,0.187,1.229,0.285  c0.285,0.071,0.58,0.148,0.871,0.23l0.142,0.037c0.351,0.097,0.723,0.203,1.094,0.314c0.308,0.091,0.629,0.196,0.948,0.299  c0.365,0.119,0.733,0.244,1.101,0.373c0.316,0.113,0.64,0.234,0.965,0.357c0.342,0.13,0.691,0.267,1.041,0.411  c0.325,0.132,0.635,0.263,0.946,0.398c0.339,0.148,0.692,0.306,1.043,0.473c0.285,0.132,0.587,0.275,0.888,0.423  c0.329,0.164,0.666,0.336,0.996,0.51c0.308,0.163,0.601,0.315,0.888,0.475c0.342,0.188,0.661,0.376,0.98,0.564l0.148,0.087  c0.234,0.138,0.477,0.278,0.713,0.425c0.332,0.206,0.649,0.412,0.963,0.619l0.147,0.095c0.21,0.136,0.44,0.283,0.663,0.436  c0.3,0.206,0.572,0.401,0.844,0.599l0.248,0.177c0.223,0.158,0.43,0.307,0.631,0.46c0.304,0.228,0.595,0.46,0.886,0.692l0.237,0.187  c0.187,0.146,0.364,0.285,0.536,0.43c0.41,0.337,0.801,0.681,1.187,1.028c0.265,0.233,0.539,0.481,0.809,0.736  c0.372,0.342,0.741,0.691,1.105,1.055c0.166,0.164,0.313,0.318,0.46,0.473l0.339,0.354c0.22,0.224,0.436,0.451,0.648,0.681  c0.18,0.197,0.342,0.382,0.505,0.566l0.259,0.299c0.221,0.254,0.431,0.493,0.638,0.739c0.168,0.203,0.343,0.423,0.519,0.644  l0.227,0.286c0.191,0.243,0.385,0.484,0.573,0.73c0.179,0.239,0.364,0.493,0.545,0.748c0.259,0.356,0.474,0.654,0.684,0.959  c0.199,0.292,0.386,0.576,0.574,0.86c0.181,0.278,0.377,0.579,0.569,0.886c0.196,0.321,0.367,0.604,0.535,0.889  c0.201,0.342,0.388,0.661,0.566,0.985c0.162,0.29,0.328,0.599,0.492,0.91c0.16,0.299,0.329,0.63,0.494,0.96  c0.158,0.322,0.313,0.634,0.46,0.952c0.147,0.315,0.302,0.652,0.449,0.992c0.144,0.326,0.285,0.65,0.417,0.976  c0.121,0.288,0.252,0.624,0.382,0.958c0.145,0.383,0.266,0.698,0.378,1.012c0.134,0.376,0.259,0.752,0.383,1.127  c0.114,0.346,0.211,0.634,0.301,0.93c0.106,0.348,0.201,0.686,0.295,1.026l0.081,0.297c0.07,0.253,0.142,0.501,0.206,0.756  c0.087,0.346,0.161,0.672,0.234,1.002l0.098,0.432c0.056,0.25,0.105,0.469,0.15,0.688c0.081,0.398,0.146,0.77,0.209,1.146  l0.068,0.387c0.04,0.209,0.072,0.407,0.106,0.607c0.093,0.622,0.173,1.236,0.249,1.924c0.002,0.023,0.006,0.045,0.006,0.066  c0.012,0.085,0.023,0.169,0.03,0.256c0.036,0.348,0.06,0.703,0.086,1.06l0.016,0.218  C154.394,400.506,154.435,401.556,154.435,402.591z"/>
<path style="fill:#ACB7C9;" d="M64.027,373.989l-0.088,0.111c-0.249,0.313-0.497,0.624-0.712,0.909  c-0.201,0.264-0.397,0.533-0.578,0.784c-0.234,0.323-0.465,0.645-0.681,0.96c-0.193,0.278-0.38,0.562-0.554,0.83  c-0.213,0.325-0.423,0.651-0.614,0.958c-0.184,0.295-0.363,0.592-0.524,0.87c-0.193,0.325-0.381,0.651-0.561,0.973  c-0.169,0.304-0.335,0.611-0.472,0.871c-0.18,0.338-0.355,0.678-0.542,1.051c-0.145,0.297-0.289,0.594-0.432,0.897  c-0.164,0.348-0.322,0.696-0.465,1.026c-0.147,0.331-0.288,0.662-0.406,0.952c-0.15,0.354-0.287,0.714-0.43,1.08  c-0.115,0.3-0.23,0.603-0.369,0.982c-0.125,0.356-0.243,0.714-0.361,1.066l-0.036,0.11c-0.092,0.277-0.185,0.554-0.282,0.875  c-0.102,0.342-0.201,0.687-0.297,1.032l-0.072,0.255c-0.075,0.276-0.15,0.55-0.205,0.768c-0.099,0.384-0.187,0.768-0.273,1.157  l-0.066,0.29c-0.056,0.239-0.108,0.477-0.166,0.76c-0.085,0.423-0.159,0.849-0.244,1.342l-0.021,0.127  c-0.045,0.232-0.085,0.466-0.119,0.692c-0.098,0.634-0.177,1.275-0.247,1.916l-0.033,0.273c-0.037,0.373-0.063,0.749-0.091,1.127  l-0.012,0.19c-0.091,1.253-0.134,2.322-0.134,3.367c0,0.861,0.027,1.764,0.087,2.772l0.05,0.677c0.057,0.748,0.129,1.491,0.22,2.229  l0.065,0.515c1.813,13.287,9.349,25.047,20.691,32.307l0.444,0.315l0.26,0.128c0.154,0.098,0.313,0.194,0.485,0.299  c0.471,0.278,0.94,0.551,1.416,0.812c0.218,0.121,0.441,0.237,0.731,0.386l0.339,0.177c0.74,0.383,1.516,0.758,2.329,1.121  c0.418,0.186,0.837,0.37,1.233,0.532c0.452,0.186,0.901,0.366,1.331,0.528c0.135,0.052,0.273,0.1,0.415,0.149  c0.556,0.201,1.12,0.398,1.717,0.591c0.422,0.132,0.85,0.259,1.285,0.384l0.24,0.066c0.55,0.157,1.103,0.303,1.634,0.431  c0.332,0.082,0.667,0.158,1.058,0.246c1.041,0.224,1.925,0.39,2.788,0.517c0.166,0.026,0.333,0.047,0.533,0.07  c0.239,0.033,0.486,0.061,0.799,0.094l0.204,0.023c0.501,0.062,1.002,0.12,1.528,0.164c0.273,0.02,0.543,0.045,0.781,0.058  c1.135,0.076,2.099,0.111,3.036,0.111c0.916,0,1.872-0.034,2.994-0.108c0.282-0.019,0.561-0.04,0.865-0.067  c0.442-0.036,0.877-0.078,1.294-0.126c-0.104-0.011-0.213-0.02-0.315-0.032l-0.204-0.023c-0.314-0.032-0.559-0.06-0.801-0.093  c-0.197-0.023-0.365-0.045-0.531-0.07c-0.861-0.128-1.75-0.294-2.788-0.518c-0.393-0.088-0.727-0.162-1.058-0.246  c-0.533-0.127-1.082-0.274-1.634-0.431l-0.24-0.066c-0.432-0.124-0.861-0.252-1.285-0.384c-0.599-0.193-1.16-0.39-1.718-0.591  c-0.142-0.049-0.278-0.097-0.414-0.149c-0.427-0.161-0.879-0.342-1.329-0.528c-0.4-0.162-0.819-0.346-1.234-0.532  c-0.814-0.363-1.589-0.738-2.327-1.121l-0.341-0.177c-0.294-0.149-0.515-0.264-0.732-0.386c-0.474-0.262-0.949-0.534-1.416-0.812  c-0.174-0.106-0.334-0.201-0.486-0.299l-0.258-0.128l-0.443-0.315c-11.347-7.261-18.881-19.021-20.691-32.308l-0.066-0.515  c-0.092-0.738-0.166-1.481-0.221-2.229l-0.047-0.677c-0.061-1.008-0.091-1.911-0.091-2.772c0-1.045,0.043-2.113,0.136-3.367  l0.012-0.19c0.026-0.378,0.052-0.755,0.091-1.127l0.031-0.273c0.071-0.641,0.152-1.281,0.249-1.916  c0.034-0.226,0.076-0.461,0.118-0.692l0.021-0.127c0.085-0.493,0.158-0.919,0.243-1.342c0.057-0.283,0.111-0.521,0.167-0.76  l0.066-0.29c0.083-0.39,0.174-0.773,0.27-1.157c0.057-0.217,0.13-0.491,0.206-0.768l0.073-0.255c0.095-0.345,0.19-0.69,0.294-1.032  c0.1-0.321,0.191-0.598,0.283-0.875l0.036-0.109c0.116-0.352,0.236-0.71,0.362-1.066c0.137-0.378,0.252-0.68,0.367-0.982  c0.142-0.365,0.282-0.725,0.427-1.08c0.118-0.29,0.263-0.622,0.41-0.952c0.142-0.331,0.3-0.677,0.465-1.026  c0.141-0.303,0.287-0.6,0.435-0.897c0.185-0.373,0.358-0.713,0.538-1.051c0.138-0.26,0.304-0.568,0.476-0.871  c0.175-0.322,0.367-0.648,0.556-0.973c0.164-0.278,0.344-0.577,0.526-0.87c0.189-0.307,0.401-0.633,0.614-0.958  c0.174-0.268,0.362-0.552,0.554-0.83c0.217-0.315,0.449-0.638,0.681-0.96c0.181-0.25,0.375-0.52,0.579-0.784  c0.215-0.286,0.465-0.597,0.713-0.909l0.087-0.111c0.169-0.213,0.338-0.423,0.514-0.63c0.24-0.292,0.495-0.582,0.75-0.871  l0.159-0.181c0.157-0.179,0.311-0.356,0.472-0.532c0.276-0.3,0.536-0.573,0.797-0.844l0.234-0.243  c0.14-0.147,0.285-0.296,0.43-0.441c0.472-0.474,0.946-0.924,1.429-1.366l0.228-0.206c0.494-0.449,0.988-0.879,1.491-1.294  c0.183-0.151,0.343-0.279,0.503-0.403l0.099-0.076c0.362-0.293,0.718-0.575,1.082-0.849c0.162-0.122,0.365-0.268,0.569-0.413  l0.122-0.087c0.327-0.239,0.671-0.485,1.018-0.726c0.21-0.141,0.423-0.282,0.633-0.418l0.138-0.089  c0.337-0.221,0.689-0.449,1.044-0.668c0.201-0.125,0.427-0.258,0.654-0.393l0.131-0.075c0.353-0.208,0.693-0.406,1.039-0.598  c0.246-0.136,0.493-0.267,0.741-0.398l0.106-0.055c0.367-0.193,0.719-0.375,1.075-0.549c0.289-0.147,0.587-0.285,0.885-0.424  c0.346-0.162,0.716-0.329,1.09-0.491c0.264-0.117,0.562-0.243,0.863-0.366c0.406-0.164,0.771-0.308,1.137-0.45  c0.287-0.109,0.595-0.221,0.905-0.334c0.392-0.137,0.768-0.264,1.15-0.388c0.305-0.099,0.615-0.2,0.928-0.294  c0.382-0.116,0.786-0.229,1.191-0.341c0.28-0.077,0.583-0.158,0.887-0.237c0.459-0.113,0.861-0.205,1.264-0.295  c0.345-0.076,0.631-0.138,0.916-0.197c0.406-0.08,0.794-0.146,1.181-0.213l0.29-0.05c0.234-0.041,0.472-0.08,0.708-0.117  c0.444-0.066,0.863-0.117,1.281-0.166l0.269-0.032c0.04-0.004,0.081-0.01,0.121-0.014c-0.185-0.022-0.367-0.043-0.566-0.066  c-0.444-0.043-0.895-0.075-1.343-0.106l-0.252-0.019c-0.216-0.017-0.436-0.032-0.656-0.043c-1.465-0.073-2.982-0.078-4.579,0.002  c-0.198,0.01-0.395,0.026-0.591,0.039l-0.102,0.009c-0.511,0.033-1.023,0.07-1.511,0.117c-0.234,0.022-0.467,0.051-0.701,0.079  l-0.268,0.032c-0.418,0.049-0.838,0.101-1.283,0.166c-0.237,0.037-0.473,0.076-0.709,0.117l-0.288,0.05  c-0.388,0.068-0.773,0.132-1.181,0.213c-0.287,0.059-0.572,0.12-0.916,0.197c-0.404,0.09-0.808,0.181-1.264,0.295  c-0.304,0.078-0.605,0.16-0.888,0.237c-0.404,0.111-0.808,0.224-1.187,0.341c-0.314,0.093-0.627,0.195-0.93,0.294  c-0.381,0.124-0.757,0.252-1.15,0.388c-0.312,0.112-0.618,0.225-0.905,0.334c-0.367,0.141-0.732,0.286-1.141,0.45  c-0.298,0.124-0.595,0.249-0.861,0.366c-0.374,0.162-0.746,0.329-1.09,0.491c-0.299,0.139-0.597,0.277-0.886,0.424  c-0.357,0.174-0.709,0.356-1.075,0.549l-0.105,0.055c-0.249,0.131-0.497,0.263-0.742,0.398c-0.344,0.191-0.687,0.39-1.039,0.598  l-0.129,0.075c-0.23,0.135-0.455,0.268-0.658,0.393c-0.353,0.218-0.703,0.445-1.043,0.668l-0.136,0.089  c-0.214,0.137-0.425,0.277-0.634,0.418c-0.348,0.24-0.692,0.487-1.021,0.726l-0.121,0.087c-0.204,0.145-0.406,0.29-0.57,0.413  c-0.362,0.274-0.718,0.556-1.08,0.849l-0.097,0.076c-0.161,0.124-0.322,0.253-0.504,0.403c-0.505,0.415-0.997,0.846-1.495,1.294  l-0.226,0.206c-0.485,0.442-0.957,0.891-1.43,1.366c-0.145,0.145-0.287,0.294-0.431,0.441l-0.231,0.243  c-0.262,0.27-0.524,0.543-0.8,0.844c-0.158,0.175-0.316,0.352-0.471,0.532l-0.158,0.181c-0.256,0.289-0.51,0.58-0.751,0.871  C64.364,373.568,64.196,373.777,64.027,373.989z"/>
<path style="fill:#C8D0E2;" d="M506.622,139.854h-31.548c-3.128-11.011-7.531-21.617-13.115-31.636l22.314-22.314  c2.1-2.096,2.1-5.5,0-7.6l-50.222-50.23c-1.006-1.011-2.376-1.579-3.802-1.579c-1.426,0-2.791,0.569-3.802,1.579l-22.32,22.317  c-10.018-5.588-20.623-9.986-31.631-13.116V5.726c0-2.968-2.408-5.375-5.378-5.375h-71.033c-2.965,0-5.378,2.407-5.378,5.375v31.549  c-11.001,3.131-21.606,7.528-31.625,13.116l-22.326-22.317c-1.007-1.011-2.373-1.579-3.797-1.579c-1.428,0-2.793,0.569-3.804,1.579  l-50.22,50.233c-2.1,2.101-2.1,5.504,0,7.598l22.314,22.32c-5.589,10.022-9.99,20.628-13.115,31.63h-31.55  c-2.968,0-5.376,2.407-5.376,5.374v71.033c0,2.967,2.408,5.374,5.376,5.374h31.55c3.125,10.998,7.522,21.608,13.115,31.635  l-22.314,22.318c-2.1,2.099-2.1,5.5,0,7.598l50.22,50.228c1.053,1.049,2.428,1.575,3.804,1.575c1.377,0,2.75-0.525,3.797-1.571  l22.326-22.321c10.01,5.588,20.619,9.988,31.625,13.118v31.546c0,2.968,2.413,5.375,5.378,5.375h71.033  c2.969,0,5.378-2.407,5.378-5.375v-31.543c11.003-3.132,21.613-7.532,31.631-13.12l22.32,22.317  c1.047,1.047,2.424,1.575,3.799,1.575c1.378,0,2.752-0.528,3.802-1.575l50.224-50.224c2.1-2.098,2.1-5.501,0-7.601l-22.314-22.324  c5.585-10.01,9.986-20.615,13.117-31.63h31.546c2.97,0,5.378-2.407,5.378-5.374v-71.033  C512,142.261,509.593,139.854,506.622,139.854z M331.605,279.816c-54.717,0-99.073-44.355-99.073-99.073  c0-54.715,44.356-99.073,99.073-99.073c54.715,0,99.073,44.356,99.073,99.073C430.678,235.461,386.32,279.816,331.605,279.816z"/>
<path style="fill:#ACB7C9;" d="M219.23,180.448c0,54.651,44.427,98.953,99.23,98.953c1.743,0,3.545,0.196,5.264,0.107  c-51.166-4.041-91.495-46.962-91.495-99.023c0-52.224,40.506-95.008,91.895-98.826c-1.875-0.105-3.763-0.162-5.664-0.162  C263.657,81.497,219.23,125.801,219.23,180.448z"/>
<path style="fill:#694B4B;" d="M332.806,111.158h-3.47c-23.708,0-42.993,19.288-42.993,42.995v5.733v5.367v9.068  c0,0,9.787-0.972,10.991-5.717l-0.006-0.006c0.413-0.449,0.759-0.96,1.002-1.535c5.553-0.167,31.489-0.369,46.301-18.256  c1.768,5.171,7.746,14.961,19.253,18.046c0.236,0.622,0.589,1.185,1.019,1.675l-0.096,0.076c1.203,4.745,10.992,5.717,10.992,5.717  v-9.105v-5.331v-5.733C375.8,130.446,356.512,111.158,332.806,111.158z M365.22,165.516l0.416-0.298h0.057l-0.673,0.499  L365.22,165.516z M365.01,165.646l0.047-0.147l0.145-0.282h0.059l-0.171,0.353L365.01,165.646z M363.868,166.528l-0.014-0.023  l1.058-0.766l-0.249,0.242l-0.776,0.573L363.868,166.528z M364.744,166.28l-0.334,0.686c-0.001-0.002-0.002-0.002-0.006-0.002  l-0.046-0.021c-0.007-0.003-0.018-0.007-0.024-0.013l0.542-1.075l0.014-0.014L364.744,166.28z"/>
<path style="fill:#563B3B;" d="M293.922,165.254v-5.366v-5.733c0-23.018,18.183-41.866,40.939-42.943  c-0.681-0.032-1.367-0.052-2.054-0.052h-3.47c-23.708,0-42.993,19.288-42.993,42.995v5.733v5.366v9.068c0,0,4.326-0.432,7.578-2.111  v-6.957H293.922z"/>
<path style="fill:#FBCB99;" d="M370.636,168.088c-1.645-0.512-3.432-0.211-4.819,0.807c-1.386,1.021-2.205,2.64-2.205,4.363v15.424  c0,1.722,0.817,3.342,2.204,4.359c0.942,0.694,2.068,1.054,3.21,1.054c0.539,0,1.083-0.08,1.608-0.245  c1.038-0.325,2.058-0.791,3.03-1.387c0.572-0.353,1.074-0.809,1.48-1.341c0.597-0.307,1.132-0.723,1.577-1.226  c2.188-2.475,3.392-5.645,3.392-8.928C380.114,175.032,376.306,169.856,370.636,168.088z"/>
<path style="fill:#EDBA89;" d="M296.481,168.894c-1.388-1.018-3.175-1.319-4.819-0.807c-5.671,1.767-9.479,6.943-9.479,12.88  c0,5.937,3.807,11.114,9.479,12.882c0.527,0.165,1.071,0.245,1.611,0.245c1.139,0,2.266-0.359,3.207-1.054  c1.386-1.017,2.206-2.638,2.206-4.358v-15.426C298.688,171.534,297.868,169.915,296.481,168.894z"/>
<path style="fill:#FBCB99;" d="M345.928,215.572c-1.064-1.017-2.491-1.551-3.974-1.498l-0.185,0.01  c-0.331,0.011-0.66,0.053-0.983,0.124c-2.091,0.465-4.221,0.702-6.328,0.702h-6.617c-2.171,0-4.364-0.25-6.515-0.746  c-1.609-0.368-3.294,0.018-4.586,1.043c-1.288,1.028-2.038,2.588-2.038,4.235v15.746l-0.006,0.053  c-0.085,1.561,0.51,3.084,1.629,4.177l10.875,10.593c1.012,0.987,2.368,1.536,3.779,1.536c0.027,0,0.058,0,0.086,0  c1.44-0.024,2.812-0.62,3.811-1.659l11.206-11.631c0.972-1.007,1.515-2.354,1.515-3.753v-15.019  C347.598,218.006,346.994,216.595,345.928,215.572z"/>
<path style="fill:#EDBA89;" d="M332.075,248.385l-10.877-10.592c-1.121-1.092-1.714-2.616-1.628-4.18l0.006-0.051v-15.748  c0-1.383,0.533-2.701,1.469-3.697c-1.522-0.266-3.088,0.121-4.305,1.09c-1.288,1.028-2.038,2.588-2.038,4.235v15.746l-0.006,0.053  c-0.085,1.561,0.51,3.084,1.629,4.177l10.875,10.593c1.012,0.987,2.368,1.536,3.779,1.536c0.027,0,0.058,0,0.086,0  c1.44-0.024,2.812-0.62,3.811-1.659l0.049-0.049C333.858,249.654,332.86,249.153,332.075,248.385z"/>
<path style="fill:#FBCB99;" d="M362.794,163.67c-0.654-0.243-1.273-0.529-1.875-0.83c-9.096-4.244-12.871-9.764-14.392-13.057  c-0.091-0.122-0.179-0.262-0.273-0.434c-1.087-1.998-2.781-0.733-2.781-0.733l-0.008-0.002  c-8.494,6.514-17.773,10.323-25.486,12.541c-3.004,0.887-5.878,1.529-8.482,1.995c-5.169,0.949-8.496,1.074-8.496,1.074  c-2.83,0.205-5.024,2.561-5.024,5.4v22.085c0,17.57,14.294,31.862,31.862,31.862h6.617c17.567,0,31.859-14.292,31.859-31.862  v-22.965C366.318,166.481,364.913,164.459,362.794,163.67z"/>
<path style="fill:#EDBA89;" d="M302.475,191.708v-22.085c0-2.84,2.194-5.196,5.025-5.4c0,0,3.324-0.125,8.495-1.074  c2.602-0.466,5.48-1.108,8.483-1.995c6.827-1.964,14.878-5.178,22.532-10.407c-0.181-0.338-0.343-0.66-0.482-0.965  c-0.091-0.122-0.179-0.262-0.273-0.434c-1.087-1.998-2.781-0.733-2.781-0.733l-0.008-0.002  c-8.494,6.514-17.773,10.323-25.486,12.541c-3.004,0.887-5.878,1.529-8.482,1.995c-5.169,0.949-8.496,1.074-8.496,1.074  c-2.83,0.205-5.024,2.561-5.024,5.4v22.085c0,17.57,14.294,31.862,31.862,31.862h6.493  C316.77,223.57,302.475,209.277,302.475,191.708z"/>
<g>
</g>
<g>
</g>
<g>
</g>
<g>
</g>
<g>
</g>
<g>
</g>
<g>
</g>
<g>
</g>
<g>
</g>
<g>
</g>
<g>
</g>
<g>
</g>
<g>
</g>
<g>
</g>
<g>
</g>
</svg>
