<?xml version="1.0" encoding="iso-8859-1"?>
<!-- Generator: Adobe Illustrator 19.0.0, SVG Export Plug-In . SVG Version: 6.00 Build 0)  -->
<svg xmlns="http://www.w3.org/2000/svg" xmlns:xlink="http://www.w3.org/1999/xlink" version="1.1" id="Layer_1" x="0px" y="0px" viewBox="0 0 491.52 491.52" style="enable-background:new 0 0 491.52 491.52;" xml:space="preserve">
<path style="fill:#27A2DB;" d="M437.389,25.384h-29.642v66.64h29.642c3.329,0,6.028-2.699,6.028-6.029V31.413  C443.418,28.083,440.719,25.384,437.389,25.384z"/>
<path style="fill:#E56353;" d="M437.389,92.024h-29.642v66.64h29.642c3.329,0,6.028-2.699,6.028-6.029V98.053  C443.418,94.723,440.719,92.024,437.389,92.024z"/>
<path style="fill:#44C4A1;" d="M437.389,158.664h-29.642v66.64h29.642c3.329,0,6.028-2.699,6.028-6.029v-54.582  C443.418,161.363,440.719,158.664,437.389,158.664z"/>
<path style="fill:#64798A;" d="M437.389,225.304h-29.642v66.64h29.642c3.329,0,6.028-2.699,6.028-6.029v-54.582  C443.418,228.003,440.719,225.304,437.389,225.304z"/>
<rect x="407.757" y="25.385" style="fill:#2D93BA;" width="13.763" height="66.662"/>
<rect x="407.757" y="92.022" style="fill:#D15241;" width="13.763" height="66.662"/>
<rect x="407.757" y="158.664" style="fill:#3EA69B;" width="13.763" height="66.662"/>
<rect x="407.757" y="225.28" style="fill:#3A556A;" width="13.763" height="66.662"/>
<path style="fill:#64798A;" d="M48.102,53.799V433.18l53.799-7.603V0C72.189,0,48.102,24.087,48.102,53.799z"/>
<path style="fill:#FCD462;" d="M413.888,20.772C413.888,9.3,404.588,0,393.116,0H101.902v425.578l311.986-44.089V20.772z"/>
<path style="fill:#EBF0F3;" d="M106.255,381.677c-28.444,0-51.502,23.058-51.502,51.502c0,28.443,23.058,51.501,51.502,51.501  h307.632c-15.2,0-15.2-103.003,0-103.003H106.255z"/>
<path style="fill:#DC8744;" d="M407.237,491.52H106.445c-32.169,0-58.342-26.171-58.342-58.339s26.174-58.342,58.342-58.342h300.792  c3.676,0,6.651,2.978,6.651,6.651c0,3.673-2.975,6.651-6.651,6.651H106.445c-24.836,0-45.041,20.205-45.041,45.041  c0,24.833,20.205,45.038,45.041,45.038h300.792c3.676,0,6.651,2.978,6.651,6.651C413.887,488.542,410.913,491.52,407.237,491.52z"/>
<circle style="fill:#27A2DB;" cx="257.894" cy="126.1" r="71.091"/>
<polygon style="fill:#EBF0F3;" points="261.147,195.079 263.31,188.017 275.916,152.166 276.645,143.274 271.518,135.775   244.789,135.775 238.099,145.639 247.385,195.079 "/>
<rect x="244.751" y="125.88" style="fill:#F6C358;" width="26.803" height="23.219"/>
<polygon style="fill:#E56353;" points="253.414,149.101 249.93,154.389 253.414,159.678 262.892,159.678 266.375,154.389   262.892,149.101 "/>
<g>
	<polygon style="fill:#E1E6E9;" points="239.66,143.274 244.789,135.775 255.29,149.067 246.821,163.906  "/>
	<polygon style="fill:#E1E6E9;" points="278.071,142.721 271.517,135.775 261.016,149.067 268.464,162.116  "/>
</g>
<polygon style="fill:#D15241;" points="267.403,195.079 262.892,159.678 253.415,159.678 248.901,195.079 "/>
<path style="fill:#3A556A;" d="M290.388,191.887c2.708-1.327,5.467-2.557,8.149-3.938c1.136-0.585,2.223-1.267,3.351-1.86  c1.203-1.503,1.037-1.158,0.408-0.211c0.054-0.027,0.076-0.033,0.125-0.057c1.477-2.021,3.024-4.021,4.62-5.916  c2.138-2.539,4.749-4.586,7.436-6.526l-0.702-3.644c0,0-1.959-12.847-15.022-16.113l-5.026-1.162  c-4.112-0.952-7.924-2.914-11.091-5.709l-4.565-4.029l-0.152,0.482l-17.552,51.877h25.49  C287.221,193.825,288.704,192.711,290.388,191.887z"/>
<path style="fill:#2F4859;" d="M263.543,195.079c6.145-11.148,14.33-24.037,22.022-29.826c0,0-2.594-2.977-6.953-4.968  c0,0,6.554-1.636,8.847-3.6c0,0-4.294-9.64-9.387-13.964c0,0-15.546,28.249-21.791,52.359H263.543z"/>
<path style="fill:#3A556A;" d="M218.617,185.09c0.274,0.319,1.265,1.216,1.892,1.91c0.049,0.049,0.111,0.097,0.155,0.146  c0.949,0.589,1.904,1.168,2.893,1.687c0.655,0.344,2.135,0.944,2.828,1.22c0.532,0.208,0.416,0.165,0,0  c-0.445-0.174-1.316-0.512-2.889-1.116c3.898,1.496,7.236,3.613,10.03,6.142h24.211l-17.551-51.877l-0.152-0.482l-4.564,4.029  c-3.167,2.795-6.979,4.757-11.093,5.709l-5.023,1.162c-13.063,3.266-15.022,16.113-15.022,16.113l-0.74,3.841  C209.519,176.093,214.362,180.135,218.617,185.09z"/>
<path style="fill:#2F4859;" d="M254.561,195.079c-6.145-11.148-14.33-24.037-22.022-29.826c0,0,2.594-2.977,6.953-4.968  c0,0-6.554-1.636-8.847-3.6c0,0,4.294-9.64,9.387-13.964c0,0,15.546,28.249,21.791,52.359H254.561z"/>
<g>
	
		<ellipse transform="matrix(-0.9555 -0.2951 0.2951 -0.9555 514.7081 295.0579)" style="fill:#FCD462;" cx="279.617" cy="108.693" rx="4.849" ry="7.793"/>
	
		<ellipse transform="matrix(-0.2951 -0.9555 0.9555 -0.2951 202.606 366.884)" style="fill:#FCD462;" cx="236.64" cy="108.704" rx="7.793" ry="4.849"/>
	<path style="fill:#FCD462;" d="M280.586,94.666V79.349h-43.482v15.536h0.152c-0.372,1.832-0.588,3.829-0.588,6.042   c0,15.766,9.974,35.514,22.278,35.514c12.304,0,22.278-19.748,22.278-35.514C281.224,98.624,280.988,96.557,280.586,94.666z"/>
</g>
<path style="fill:#64798A;" d="M282.856,82.479c0,0-4.29-12.547-24.703-11.212c-20.413-1.335-24.703,11.212-24.703,11.212  c-1.068,6.14,3.337,23.092,3.337,23.092h0.881V89.239c0-1.944,0.52-3.892,1.685-5.447c2.952-3.94,6.364-1.312,6.364-1.312  c5.728,5.873,12.435,5.206,12.435,5.206s6.707,0.667,12.435-5.206c0,0,3.412-2.628,6.364,1.312c1.166,1.556,1.685,3.503,1.685,5.447  v16.333h0.881C279.519,105.572,283.924,88.619,282.856,82.479z"/>
<path style="fill:#1C75A1;" d="M257.895,50.077c-41.988,0-76.025,34.037-76.025,76.025s34.037,76.025,76.025,76.025  c41.988,0,76.025-34.037,76.025-76.025S299.883,50.077,257.895,50.077z M257.895,193.086c-36.994,0-66.984-29.99-66.984-66.984  c0-36.994,29.99-66.984,66.984-66.984c36.994,0,66.984,29.99,66.984,66.984C324.879,163.096,294.889,193.086,257.895,193.086z"/>
<g>
</g>
<g>
</g>
<g>
</g>
<g>
</g>
<g>
</g>
<g>
</g>
<g>
</g>
<g>
</g>
<g>
</g>
<g>
</g>
<g>
</g>
<g>
</g>
<g>
</g>
<g>
</g>
<g>
</g>
</svg>
