<?xml version="1.0" encoding="iso-8859-1"?>
<!-- Generator: Adobe Illustrator 19.0.0, SVG Export Plug-In . SVG Version: 6.00 Build 0)  -->
<svg xmlns="http://www.w3.org/2000/svg" xmlns:xlink="http://www.w3.org/1999/xlink" version="1.1" id="Layer_1" x="0px" y="0px" viewBox="0 0 512 512" style="enable-background:new 0 0 512 512;" xml:space="preserve">
<path style="fill:#8AD7F8;" d="M512,509.733c-1.067-140.8-115.2-253.867-256-253.867S1.067,368.933,0,509.733H512z"/>
<g>
	<path style="fill:#F3F3F3;" d="M258.133,493.733c0-1.067,0-3.2-1.067-4.267H256c-1.067,0-1.067-1.067-2.133,0   c-2.133,0-4.267,1.067-6.4,1.067c-1.067,0-2.133,1.067-3.2,1.067c-4.267-1.067-7.467,1.067-10.667,3.2   c-1.067,1.067-3.2,2.133-4.267,2.133c-2.133,0-4.267,0-5.333,1.067c0,0,0,0-1.067,0c-2.133-2.133-2.133,0-3.2,1.067   c-1.067,2.133-2.133,3.2-3.2,4.267c-3.2,2.133-4.267,4.267-5.333,7.467h94.933c-1.067-1.067-1.067-2.133-2.133-3.2l0,0   c1.067,1.067,2.133,2.133,2.133,3.2h2.133c0-1.067,0-2.133,0-2.133c0,1.067,0,2.133,0,2.133h33.067   c-2.133-1.067-3.2-3.2-4.267-5.333c0-1.067-1.067-2.133-2.133-3.2c1.067,0,2.133,0,2.133,0c1.067-2.133,3.2-1.067,3.2,0   c2.133,2.133,3.2,4.267,6.4,6.4c2.133,1.067,6.4,1.067,7.467,0c1.067-1.067,2.133-1.067,2.133,1.067c0,1.067,0,1.067,1.067,2.133   h18.133c1.067,0,2.133-1.067,3.2-1.067c0,0,1.067,0,1.067,1.067H435.2V510.8c2.133,0,2.133,0,3.2,1.067h35.2   c1.067-2.133,2.133-4.267,5.333-4.267l0,0c1.067,1.067,1.067,2.133,2.133,3.2h1.067c-2.133-3.2,1.067-4.267,2.133-5.333   c1.067-1.067,2.133-2.133,3.2-3.2c0,0,0,0,1.067,0c2.133-1.067,5.333,0,5.333-3.2c0,0,1.067,0,1.067-1.067s0-1.067,1.067-2.133   V494.8c0-1.067,1.067-1.067,1.067-2.133c1.067-2.133,0-4.267,1.067-7.467c1.067-1.067,1.067-4.267,1.067-6.4   c0-2.133-1.067-3.2-3.2-2.133l0,0c0-1.067,1.067-2.133,1.067-3.2c-2.133-1.067-3.2-1.067-5.333-2.133l0,0c1.067,0,2.133,0,3.2,0   c-2.133-2.133-3.2-3.2-5.333-4.267c-1.067-1.067-1.067-2.133-2.133-2.133c-2.133-1.067-2.133-2.133-2.133-4.267   c0-3.2,2.133-3.2,4.267-5.333c-1.067-2.133-5.333-2.133-6.4,1.067c-1.067,0-1.067-1.067-1.067-1.067l-1.067-1.067   c-2.133,0-3.2-1.067-3.2-3.2c1.067,0,2.133-1.067,2.133-1.067c1.067-1.067,1.067-3.2,2.133-5.333l1.067-1.067   c1.067,0,1.067,1.067,2.133,1.067c0,1.067,0,2.133,1.067,3.2c0,0,0,1.067-1.067,1.067c1.067,0,1.067-1.067,2.133-2.133   c1.067-1.067,2.133-3.2,4.267-2.133c2.133,0,2.133,2.133,2.133,3.2S494.933,450,496,450c2.133-1.067,2.133,1.067,3.2,2.133v1.067   c1.067,2.133,2.133,4.267,4.267,6.4l1.067-1.067c-1.067-3.2-2.133-7.467-3.2-10.667c-1.067-1.067-2.133-2.133-3.2-2.133   c-1.067-1.067-2.133-2.133-1.067-3.2c1.067-1.067,1.067-3.2,1.067-3.2c-1.067-1.067-1.067-2.133,0-2.133   c-10.667-36.267-29.867-69.333-54.4-97.067h-1.067c-1.067,1.067-1.067,2.133-1.067,2.133c1.067,1.067,2.133,2.133,4.267,3.2   c-1.067,0-2.133,0-2.133,0v1.067l-9.6,1.067c0,1.067,1.067,2.133,1.067,3.2c0,0,0,0,0,1.067c-2.133-1.067-5.333-2.133-7.467-3.2   V347.6c-2.133-1.067-3.2-3.2-5.333-3.2c-1.067,0-3.2,0-4.267,0l-1.067,1.067c0,0,0,1.067,1.067,1.067   c-1.067,0-3.2,1.067-4.267,1.067c-1.067,0-2.133,0-3.2-1.067c-2.133-1.067-6.4,0-6.4,2.133c-1.067-1.067-1.067-1.067-2.133-2.133   c-1.067,2.133-2.133,1.067-3.2,1.067c0,0-1.067,0-1.067,1.067c0,0,1.067,0,1.067,1.067c-2.133,1.067-3.2,2.133-4.267,3.2   c1.067-2.133,2.133-4.267,3.2-6.4c0-1.067,1.067-2.133,1.067-3.2c-1.067,0-1.067-2.133-1.067-2.133c-1.067,0-3.2-1.066-5.333-1.066   c-1.067,0-3.2,1.067-4.267,2.133c0-2.133-2.133-1.067-3.2-1.067c0,0,0-1.067,1.067-1.067c-3.2-1.067-4.267-1.067-5.333,1.067   c0,1.067,0,2.133,1.067,3.2c0,0-1.067,1.067-2.133,1.067c-1.067,1.067-2.133,1.067-3.2,1.067s-3.2,0-4.267,0   c1.067,1.067,1.067,1.067,1.067,1.067c-5.333,1.067-7.467,5.333-4.267,8.533c-2.133,1.067-4.267,1.067-6.4,2.133l-1.067,1.067   c0,1.067,1.067,2.133,2.133,2.133c3.2,1.067,5.333,2.133,6.4,5.333c0,1.067,1.067,1.067,1.067,2.133c0,0,0,0-1.067,0   c0-1.067,0-2.133-1.067-2.133c-2.133,0-3.2-2.133-2.133-3.2c-2.133,0-3.2-1.067-4.267-1.067c-2.133-1.067-2.133,0-2.133,2.133   c-1.067,0-1.067,0-2.133-1.067c0,0,0,0,0,1.067c1.067,1.067,2.133,1.067,3.2,2.133c-3.2,1.067-3.2,1.067-4.267-3.2   c0-1.067-1.067-1.067-1.067-1.067c0,1.067-1.067,2.133-1.067,3.2s0,1.067,0,2.133c1.067,1.067,2.133,2.133,2.133,4.267   c0,2.133,1.067,3.2,3.2,2.133c2.133-1.067,4.267,1.067,4.267,2.133c0,1.067,1.067,2.133,1.067,3.2c0,0-1.067,0-2.133-1.067v-1.067   c-1.067-2.133-2.133-2.133-3.2-1.067c-2.133,1.067,0,1.067,0,2.133c0,1.067,0,3.2-1.067,4.267c0,1.067-1.067,1.067-1.067,2.133   c-2.133,0-3.2,0-5.333,0v-1.067c1.067,0,2.133,0,4.267,0c0-1.067,1.067-3.2,1.067-4.267c0-1.067,0-2.133-1.067-3.2   c-3.2-2.133-3.2-6.4-5.333-9.6c-1.067-3.2-1.067-3.2-4.267-3.2h-1.067c-1.067,2.133-1.067,4.267-1.067,6.4v1.067   c0,1.067,1.067,2.133,1.067,4.267c3.2,0,4.267,2.133,3.2,4.267c-4.267-2.133-7.467-4.267-12.8-2.133c2.133,2.133,1.067,3.2,0,5.333   c0-1.067,0-1.067-1.067-2.133c-1.067,1.067-2.133,1.067-3.2,2.133c-1.067,0-2.133,0-3.2,2.133c-1.067,0-1.067,0-1.067,0v-1.067   c-1.067,1.067-3.2,2.133-4.267,3.2S320,389.2,320,391.334c0,0-1.067,1.067-2.133,1.067c-1.067,0-2.133-1.067-2.133-2.133   c0-1.067,1.067-1.067,1.067-2.133c0-5.333-2.133-5.333-3.2-5.333c1.067,2.133,1.067,5.333,2.133,7.467   c-3.2-2.133-4.267,1.067-5.333,2.133c-2.133,1.067,0,2.133,0,3.2c-2.133,3.2-4.267,0-6.4,0c1.067,1.067,1.067,1.067,2.133,2.133   l1.067,1.067l-1.067,1.067c-1.067-1.067-4.267-1.067-4.267-2.133c-1.067-2.133-2.133-4.267-4.267-6.4l0,0c1.067,0,1.067,0,2.133,0   c2.133,0,4.267,1.067,6.4,1.067c2.133,0,4.267-1.067,5.333-3.2c0-1.067-1.067-3.2-3.2-3.2c-1.067,0-1.067-1.067-2.133-1.067   c-2.133-1.067-4.267-1.067-6.4-2.133c-1.067,0-2.133,0-2.133-1.067h-1.067c-1.067,0-3.2,1.067-4.267,0   c1.067-1.067,1.067-1.067,2.133-1.067c-1.067-1.067-2.133-2.133-4.267,0c0-1.067,0-2.133,0-2.133l0,0   c0,1.067-1.067,1.067-1.067,2.133L288,379.6c-1.067,1.067-1.067,1.067-2.133,2.133c0-1.067,0-2.133,1.067-3.2   c-1.067,0-1.067,0-1.067,1.067c-1.067,1.067-2.133,2.133-2.133,2.133c-2.133,0-3.2,3.2-5.333,2.133c-1.067,0-2.133,2.133-3.2,4.267   c1.067,0,1.067,1.067,1.067,1.067c-1.067,1.067-2.133,1.067-4.267,2.133c0,1.067,0,1.067,0,1.067c-1.067,1.067-2.133,3.2-3.2,4.267   c-1.067,1.067-1.067,3.2-3.2,4.267c-1.067,1.067-2.133,3.2-4.267,4.267c1.067,0,1.067,0,2.133,0   c-1.067,1.067-3.2,1.067-4.267,2.133c-1.067,1.067-2.133,2.133-3.2,3.2c-2.133,2.133-2.133,2.133-2.133,3.2c1.067,0,2.133,0,3.2,0   l0,0c-1.067,0-3.2,0-4.267,1.067c2.133,2.133,2.133,3.2,0,4.267h1.067c0,1.067-1.067,2.133-1.067,3.2   c1.067,1.067,3.2,2.133,4.267,1.067c2.133-1.067,3.2-3.2,4.267-5.333c1.067,4.267,2.133,8.533,3.2,12.8   c0,0,1.067-1.067,2.133-1.067s1.067-2.133,1.067-2.133c3.2,0,3.2-2.133,3.2-4.267c0-3.2,1.067-4.267,3.2-6.4l0,0   c-1.067,0-2.133,0-3.2,0c0-1.067,1.067-1.067,1.067-1.067c1.067,0,2.133,0,3.2-1.067c-1.067-1.067-1.067-2.133-2.133-3.2   c0-1.067-1.067-2.133-1.067-3.2c0-3.2,2.133-5.333,5.333-7.467c1.067-1.067,2.133-2.133,2.133-4.267c0-2.133,2.133-3.2,4.267-3.2   s2.133,1.067,2.133,2.133c-2.133,2.133-3.2,4.267-5.333,6.4c-1.067,1.067-2.133,2.133-2.133,3.2c1.067,2.133-1.067,6.4,3.2,7.467   c0,0,0,0,0,1.067c1.067-1.067,3.2-1.067,4.267-2.133c2.133-1.067,5.333-1.067,7.467,1.067c-1.067,1.067-2.133,1.067-3.2,2.133   c0,0-1.067,0-2.133,0s-2.133,0-4.267,0c-2.133,1.067-3.2,2.133-1.067,4.267c1.067,1.067,0,2.133,0,3.2   c-1.067,0-1.067,0-2.133-1.067s-2.133-1.067-3.2,0c0,1.067-1.067,2.133-1.067,4.267c0,3.2-1.067,5.333-4.267,5.333   c0-2.133-1.067-2.133-2.133-1.067c-2.133,1.067-4.267,2.133-6.4,4.267c-1.067-2.133-3.2-2.133-5.333,0   c-1.067-1.067-3.2-2.133-2.133-4.267c1.067-1.067,1.067-2.133,1.067-4.267c0-1.067,0-2.133,0-4.267l0,0   c-1.067,2.133-3.2,3.2-3.2,5.333s0,5.333,1.067,7.467c-2.133,2.133-5.333,0-6.4,3.2c-1.067,1.067-2.133,1.067-2.133,2.133   c-1.067,2.133-2.133,4.267-4.267,4.267c-1.067,0-2.133,1.067-2.133,2.133c-1.067,2.133-4.267,4.267-6.4,3.2c0,1.067,0,2.133,0,3.2   c-1.067,0-3.2,0-4.267,0c-2.133,0-2.133,1.067-2.133,2.133c2.133,1.067,3.2,1.067,4.267,2.133c2.133,2.133,2.133,5.333,1.067,8.533   c-1.067,3.2-2.133,3.2-4.267,3.2c-3.2,0-6.4,0-8.533,0s-3.2,2.133-3.2,3.2c0,2.133,0,4.267-1.067,6.4   c0,1.067-1.067,3.2-1.067,4.267c0,2.133,1.067,3.2,1.067,5.333c1.067,0,2.133-1.067,3.2,0c1.067,0,2.133,2.133,2.133,3.2   c1.067-1.067,3.2-2.133,4.267-2.133c3.2,0,4.267-1.067,5.333-3.2c1.067-1.067,2.133-3.2,2.133-4.267c0-1.067,0-2.133,0-3.2   c1.067-2.133,2.133-4.267,4.267-5.333s3.2-2.133,3.2-4.267c0-3.2,2.133-3.2,4.267-2.133c1.067,0,1.067,0,2.133,0   c1.067-1.067,2.133-1.067,3.2-2.133c2.133-2.133,4.267-1.067,4.267,1.067c1.067,3.2,3.2,4.267,5.333,6.4   c1.067,1.067,3.2,2.133,4.267,3.2c2.133,1.067,1.067,3.2,1.067,5.333l0,0c1.067-2.133,3.2-3.2,2.133-5.333v-1.067h1.067   c1.067,0,1.067,0,2.133,1.067l0,0c0-1.067-1.067-1.067-1.067-2.133c-2.133-1.067-4.267-2.133-5.333-4.267   c-1.067-1.067-1.067-1.067-2.133-2.133c-1.067-1.067-1.067-2.133-2.133-3.2c-2.133-2.133-2.133-4.267,1.067-5.333   c0,1.067,1.067,1.067,1.067,2.133c0-1.067,0-1.067,1.067-2.133c1.067,1.067,1.067,1.067,1.067,2.133   c1.067,1.067,1.067,2.133,2.133,3.2c2.133,1.067,4.267,2.133,5.333,3.2c1.067,0,1.067,2.133,1.067,3.2s0,2.133,1.067,3.2   c1.067,2.133,2.133,3.2,3.2,4.267c2.133,1.067,4.267,1.067,6.4,2.133c0,0,0,0,0-1.067c-1.067-1.067-2.133-1.067-3.2-2.133l0,0   l-1.067-5.333c1.067,1.067,1.067,1.067,2.133,2.133c0-1.067,0-2.133,0-2.133c2.133-2.133,4.267,0,6.4,0   c0,1.067-1.067,1.067-1.067,2.133c2.133,1.067,2.133,3.2,1.067,5.333c1.067,0,1.067,0,2.133,1.067   c1.067,3.2,4.267,2.133,5.333,4.267h2.133c1.067-3.2,2.133-1.067,4.267-1.067c1.067,0,2.133,0,2.133,0   c2.133-1.067,3.2-1.067,5.333-2.133c0,2.133,0,4.267,0,6.4c0,2.133-1.067,5.333-2.133,7.467c0,2.133-3.2,4.267-5.333,2.133   c-2.133-1.067-3.2,0-5.333,0c-1.067,0-2.133,1.067-2.133,1.067c-3.2,0-7.467-1.067-10.667-2.133H281.6   c-2.133-2.133-3.2-1.067-5.333,0c1.067,6.4,1.067,7.467,1.067,9.6c0,1.067-1.067,3.2-1.067,3.2c-3.2-1.067-5.333-2.133-8.533-3.2   l0,0c-1.067-1.067-1.067-2.133-2.133-2.133c-2.133-1.067-5.333-1.067-8.533-2.133C256,500.133,256,499.067,256,498   C257.067,495.867,258.133,494.8,258.133,493.733z"/>
	<path style="fill:#F3F3F3;" d="M37.333,409.467c0,2.133,0,4.267,0,7.467c0,0,1.067,1.067,2.133,2.133l0,0c1.067,0,1.067,0,2.133,0   c-2.133-4.267-1.067-5.333,1.067-7.467c0,0,1.067,0,2.133,0c0,1.067,0,1.067,0,2.133c-2.133,0-2.133,1.067-1.067,2.133   c1.067,2.133,2.133,3.2,3.2,5.333c0,0,0,1.067,0,2.133c-1.067,0-1.067,0-2.133-1.067c-1.067-1.067-2.133-2.133-2.133-3.2v1.067   c-1.067,3.2-1.067,5.333-2.133,8.533c0,1.067,0,2.133,0,3.2c0,3.2,2.133,5.333,0,8.533v1.067c0,2.133,1.067,3.2,1.067,5.333   c1.067,3.2,1.067,7.467-1.067,11.733c0,1.067-1.067,1.067-1.067,2.133c0,3.2,1.067,5.333,3.2,7.467   c2.133,3.2,5.333,5.333,7.467,7.467c3.2,3.2,4.267,3.2,7.467,2.133c2.133-1.067,2.133,0,3.2,1.067   c1.067,2.133,1.067,4.267,2.133,5.333s3.2,2.133,5.333,3.2c1.067,2.133,2.133,2.133,4.267,3.2c0,1.067,1.067,2.133,1.067,3.2   c0,2.133,2.133,4.267,1.067,6.4c0,0,0,1.067,1.067,2.133L76.8,501.2c1.067,2.133,1.067,3.2,2.133,5.333   c1.067,0,2.133,1.067,3.2,2.133h3.2c1.067-1.067,2.133-2.133,3.2-3.2l1.067,1.067c0,1.067,0,1.067,0,2.133h3.2   c-1.067-1.067-1.067-2.133-2.133-3.2c-1.067-1.067-2.133-2.133-4.267-1.067c-1.067,1.067-3.2,2.133-4.267,0s-1.067-3.2-2.133-4.267   c0-1.067-1.067-3.2,0-4.267c1.067-3.2,3.2-6.4,4.267-8.533c0-1.067,1.067-2.133,0-4.267c-1.067-2.133-3.2-2.133-5.333-2.133   s-4.267-1.067-5.333-1.067c1.067-1.067,2.133-3.2,3.2-6.4c0,0,0-1.067,1.067-1.067C80,471.333,80,471.333,80,471.333   c0-2.133,2.133-3.2,3.2-4.267c1.067-1.067,1.067-1.067,2.133-2.133c-1.067,0-2.133-1.067-3.2-1.067c-3.2,0-6.4-1.067-8.533,3.2   c-1.067,1.067-2.133,3.2-3.2,4.267h-1.067c-1.067,0-2.133,0-2.133,0c-1.067-1.067-3.2,1.067-4.267,0   c-2.133-3.2-3.2-7.467-2.133-11.733c1.067-3.2,2.133-6.4,3.2-9.6c0-1.067,1.067-2.133,2.133-3.2s2.133-2.133,2.133-2.133   c1.067-4.267,3.2-6.4,7.467-7.467c1.067,0,2.133,0,2.133-1.067c2.133-1.067,3.2-1.067,5.333,0c1.067,0,1.067,0,2.133,0   c0,1.067,1.067,2.133,3.2,1.067c0,1.067,1.067,1.067,1.067,1.067c0-1.067,1.067-3.2,2.133-3.2c1.067-1.067,6.4,0,7.467,1.067   c1.067,2.133,2.133,2.133,4.267,2.133c1.067,2.133,1.067,4.267,0,6.4c-1.067,1.067-1.067,3.2-1.067,4.267c0,2.133,0,4.267,0,6.4   c1.067,0,1.067-1.067,2.133-1.067c3.2-3.2,3.2-6.4,4.267-10.667c1.067-4.267,1.067-7.467,5.333-9.6   c1.067-1.067,3.2-1.067,4.267-2.133c1.067,0,2.133-1.067,3.2-2.133c2.133-1.067,5.333-1.067,6.4-4.267h1.067   c2.133,1.067,1.067-1.067,1.067-2.133c1.067,0,3.2-1.067,1.067-3.2c2.133-1.067,2.133-5.333,5.333-6.4   c-1.067,1.067-1.067,3.2-2.133,4.267h1.067c1.067-1.067,2.133-3.2,3.2-4.267v1.067c3.2-1.067,4.267-6.4,8.533-4.267   c-1.067,0-1.067,0-2.133-1.067c3.2,0,5.333,0,7.467,0c0-1.067,0-2.133,0-2.133c1.067-1.067,3.2-3.2,4.267-4.267   c3.2-1.067,7.467-2.133,10.667-3.2c1.067,0,2.133,0,3.2-1.067c0,0,0,0,1.067,0l-1.067,1.067c0,0,1.067,0,1.067,1.067   c-3.2,0-6.4,0-8.533,4.267c1.067,0,2.133,0,2.133,0c3.2-2.133,6.4-2.133,8.533-2.133c1.067,0,1.067-1.067,2.133-1.067   c-1.067,0-1.067-1.067-2.133-1.067c-2.133-1.067-3.2-3.2-1.067-5.333l1.067-1.067c-1.067-1.067-1.067-1.067-2.133-1.067h1.067   c1.067,1.067,3.2,0,4.267-1.067v-1.067c-1.067,0-2.133-1.067-3.2-1.067c-3.2,1.067-6.4,2.133-9.6,3.2   c-1.067,0-2.133,1.067-3.2,1.067c0,0,0,0,0-1.067c5.333-2.133,9.6-4.267,14.933-6.4h1.067c3.2,1.067,5.333,1.067,8.533,2.133   c2.133,0,4.267,1.067,6.4,0c2.133-1.067,4.267-1.067,6.4-1.067c-2.133,2.133-5.333,3.2-7.467,5.333   c-1.067,1.067-2.133,1.067-2.133,1.067c-1.067,1.067-2.133,2.133-4.267,3.2c3.2,1.067,5.333,1.067,8.533,2.133   c-1.067,1.067-2.133,1.067-3.2,1.067l0,0c1.067-1.067,3.2-1.067,4.267-2.133l0,0c-1.067,1.067-1.067,1.067-2.133,2.133   c1.067,0,2.133,0,2.133,0c1.067,0,1.067-1.067,1.067-2.133c0-1.067,1.067-2.133,1.067-3.2c-2.133-1.067,1.067-1.067,1.067-2.133   c-2.133,0-3.2-1.067-3.2-3.2c1.067-1.067,3.2-2.133,5.333-4.267c-1.067,0-1.067,0-2.133,0c2.133-1.067,4.267-2.133,4.267-5.333   c-1.067,0-1.067,0-1.067,0c0-1.067,1.067-1.067,1.067-2.133c-2.133,0-4.267,1.067-6.4,1.067c0,0,0,0,0-1.067   c2.133,0,5.333-1.067,7.467-2.133c-1.067-1.067-2.133-2.133-4.267-3.2c2.133-1.067,0-2.133,0-3.2c1.067-1.067,3.2-1.067,3.2-4.267   c2.133-1.067,1.067-2.133,1.067-3.2c1.067,0,2.133-3.2,2.133-5.333c-3.2,1.067-6.4,3.2-9.6,4.267c0,0,0,0,0-1.067   c-1.067-1.067-2.133-2.133-3.2-2.133c2.133-2.133,4.267-4.267,6.4-6.4c-3.2-1.067-2.133-4.267-2.133-5.333   c-2.133-1.067-3.2-1.067-4.267-2.133c-2.133-1.067-3.2-1.067-4.267,0c-1.067,1.067-1.067,1.067-2.133,2.133l-1.067,1.067   c-1.067,1.067-1.067,2.133-2.133,2.133c-1.067,1.067-2.133,1.067-4.267,2.133c-2.133,1.067-1.067,2.133-1.067,3.2v1.067   c-2.133,3.2-5.333,5.333-8.533,6.4c-2.133,1.067-5.333-1.067-5.333,3.2l0,0c-2.133,2.133-4.267,5.333-6.4,7.467c0,0,0,0-1.067,0   v-1.067c-1.067,0-1.067,0-2.133,0c0-1.067,0-1.067,0-2.133c0-1.067,0-2.133,0-2.133c1.067-1.067,2.133-3.2,3.2-4.267   c1.067-1.067,2.133-2.133,3.2-4.267c-1.067-1.067-2.133-1.067-3.2-2.133c-1.067-1.067-2.133-3.2-3.2-4.267   c0-3.2-1.067-4.267-4.267-4.267c-1.067,0-1.067,0-2.133-1.067c2.133-2.133,3.2-3.2,5.333-4.267c-1.067,0-1.067-1.067-2.133-1.067   c6.4-6.4,13.867-8.533,22.4-10.667c-1.067-1.067-1.067-2.133-2.133-2.133c0,0,0,0,0-1.067c2.133,2.133,3.2,3.2,5.333,1.067   c1.067,1.067,5.333,1.067,7.467-1.067c-1.067-1.067-1.067-2.133-2.133-3.2c0,0,1.067,0,1.067-1.067c0,1.067,1.067,2.133,1.067,3.2   c2.133-1.067,4.267-2.133,6.4-2.133h1.067c1.067,0,1.067,1.067,2.133,1.067c0-1.067,1.067-1.067,1.067-3.2c0,1.067,0,2.133,0,3.2   c3.2,0,5.333,0,7.467-3.2c0-1.067,1.067-2.133,2.133-2.133S204.8,322,205.867,322c1.067-1.067,2.133-2.133,1.067-4.267   c-1.067-1.067-3.2-2.133-4.267-1.067c-2.133,2.133-4.267,3.2-6.4,4.267C195.2,322,193.067,322,190.933,322c0,0,0-1.067-1.067-1.067   c1.067-1.067,2.133-2.133,3.2-2.133c2.133,0,3.2-1.067,3.2-3.2c-2.133,1.067-3.2,1.067-4.267,2.133l0,0   c1.067-1.067,2.133-2.133,2.133-3.2c0,0-1.067,0-1.067-1.067c2.133-1.067,4.267,0,4.267-3.2c0-1.067,3.2-2.133,2.133-5.333   c-3.2,1.067-5.333,2.133-8.533,3.2c-1.067,1.067-2.133,1.067,0,3.2L192,312.4c-1.067,0-2.133,0-3.2,1.067   c0,2.133-2.133,2.133-3.2,2.133c-2.133,0-4.267,0-5.333,3.2c-1.067-1.067-1.067-2.133,1.067-3.2c1.067,0,2.133-1.067,1.067-2.133   c-1.067,0-3.2,0-2.133,2.133l-1.067,1.067l0,0V315.6c-2.133,1.067-3.2,0-7.467-3.2c-1.067-1.067,0-2.133,0-3.2   c-2.133,0-3.2,0-5.333,0c0,0,0,0,0,1.067l4.267,1.067c-1.067,0-3.2,0-4.267,1.067c-1.067,0-2.133,1.067-3.2,1.067   c-1.067,1.067-2.133,2.133-4.267,1.067c3.2,0,3.2-2.133,3.2-3.2c-2.133-1.067-6.4,0-8.533-4.267c2.133,0,3.2,0,4.267,0   c0-1.067,0-2.133,0-3.2c-2.133-1.067-2.133-3.2-3.2-4.267c-1.067-1.067-2.133-2.133-3.2-1.067c0,0-1.067,0-2.133,0   c1.067-1.067,1.067-1.067,1.067-2.133c-1.067,0-2.133,0-3.2,1.067c1.067-1.067,1.067-2.133,2.133-4.267   c-4.267,2.133-7.467,1.067-10.667,0c-1.067,0-2.133,0-3.2-1.067c-1.067-1.067-3.2,0-5.333,1.067c0-1.067-1.067-2.133-1.067-3.2   c0,0,0-1.067-1.067-1.067c-1.067-1.067-2.133-2.133-3.2-3.2c-17.067,9.6-32,21.333-46.933,34.133c0,0,1.067,0,1.067,1.067   c6.4,2.133,6.4,2.133,7.467,1.067c0,1.067,0,2.133,0,2.133c1.067-1.067,1.067-1.067,2.133-2.133c0,1.067,0,2.133-1.067,2.133   c-2.133,2.133-3.2,5.333-5.333,7.467c-1.067,1.067-1.067,3.2-2.133,4.267c0,0,1.067,0,2.133,0C81.067,338,77.867,338,76.8,341.2   c1.067,0,1.067,0,2.133,0c0,1.067,0,1.067,0,1.067c-1.067,1.067-2.133,1.067-2.133,1.067c-1.067,1.067-2.133,2.133-2.133,3.2   c1.067,0,1.067,0,2.133,0c0,0,0,0,0,1.067c-1.067,0-2.133,1.067-4.267,1.067c0,0,0,0,1.067,0c-1.067,1.067-2.133,1.067-2.133,2.133   c3.2,1.067,3.2,3.2,2.133,4.267c2.133,1.067,1.067,2.133,0,3.2c-1.067,4.267-4.267,7.467-6.4,6.4   c1.067-1.067,1.067-2.133,2.133-3.2c-1.067-1.067-2.133-1.067-2.133-2.133c0,0-1.067,0-1.067,1.067   c-3.2,5.333-7.467,8.533-12.8,12.8c-4.267,4.267-8.533,7.467-11.733,12.8c-2.133,4.267-4.267,8.533-5.333,12.8   C35.2,402,34.133,405.2,37.333,409.467C37.333,408.4,37.333,408.4,37.333,409.467z"/>
</g>
<path style="fill:#F3705A;" d="M381.867,52.133c-69.333-69.333-182.4-69.333-252.8,0l0,0c-69.333,69.333-69.333,182.4,0,252.8  L256,430.8l125.867-125.867C452.267,234.533,452.267,121.467,381.867,52.133z"/>
<path style="fill:#FFFFFF;" d="M163.2,86.267c51.2-51.2,134.4-51.2,185.6,0s51.2,134.4,0,185.6s-134.4,51.2-185.6,0  C112,219.6,112,136.4,163.2,86.267"/>
<path style="fill:#344A5E;" d="M339.2,239.867L301.867,222.8L256,236.667L210.133,222.8L172.8,239.867  c-8.533,4.267-14.933,9.6-20.267,17.067c3.2,4.267,7.467,9.6,11.733,13.867c51.2,51.2,134.4,51.2,185.6,0  c4.267-4.267,8.533-8.533,11.733-13.867C355.2,250.533,347.733,244.133,339.2,239.867z"/>
<path style="fill:#E8EAE9;" d="M228.267,228.133L229.333,306c18.133,3.2,36.267,3.2,53.333,0l1.067-77.867L256,236.667  L228.267,228.133z"/>
<path style="fill:#4EC0AA;" d="M256,236.667l-16,16l7.467,13.867l-8.533,42.667c10.667,1.067,21.333,1.067,32,0l-8.533-42.667  l7.467-13.867L256,236.667z"/>
<path style="fill:#F3F3F3;" d="M256,236.667c0,0,27.733-18.133,29.867-33.067l10.667,18.133l-19.2,41.6L256,236.667z"/>
<path style="fill:#415A6B;" d="M291.2,212.133l-20.267,96c8.533-1.067,17.067-3.2,25.6-5.333l22.4-38.4l-16-19.2L320,237.733  L291.2,212.133z"/>
<path style="fill:#F3F3F3;" d="M256,236.667c0,0-27.733-18.133-29.867-33.067l-10.667,18.133l19.2,41.6L256,236.667z"/>
<path style="fill:#415A6B;" d="M220.8,212.133l-27.733,25.6l17.067,7.467l-16,19.2l22.4,38.4c8.533,3.2,17.067,4.267,25.6,5.333  L220.8,212.133z"/>
<path style="fill:#F7B64C;" d="M226.133,184.4v19.2c2.133,16,29.867,33.067,29.867,33.067s27.733-18.133,29.867-33.067v-19.2  H226.133z"/>
<g>
	<path style="fill:#415A6B;" d="M256,137.467c0,26.667-10.667,48-23.467,48c-12.8,0-24.533-21.333-25.6-48   c-1.067-27.733,9.6-51.2,23.467-51.2S256,109.733,256,137.467z"/>
	<path style="fill:#415A6B;" d="M307.2,131.067c-1.067,29.867-21.333,52.267-44.8,52.267s-43.733-22.4-44.8-52.267   c-1.067-30.933,19.2-56.533,44.8-56.533S309.333,100.133,307.2,131.067z"/>
</g>
<g>
	<path style="fill:#FFD15C;" d="M300.8,133.2c-20.267-2.133-41.6-9.6-58.667-21.333c-7.467,12.8-17.067,23.467-30.933,29.867   c0,3.2-1.067,7.467,0,10.667c1.067,33.067,21.333,58.667,45.867,58.667c24.533,0,44.8-25.6,45.867-58.667   C302.933,146,301.867,139.6,300.8,133.2z"/>
	<path style="fill:#FFD15C;" d="M309.333,160.933c-2.133,9.6-8.533,16-13.867,14.933c-5.333-1.067-7.467-9.6-5.333-19.2   c2.133-9.6,8.533-17.067,13.867-16C309.333,142.8,311.467,151.333,309.333,160.933z"/>
	<path style="fill:#FFD15C;" d="M202.667,160.933c2.133,9.6,8.533,16,13.867,14.933c5.333-1.067,7.467-9.6,5.333-19.2   c-2.133-9.6-8.533-17.067-13.867-16C202.667,142.8,200.533,151.333,202.667,160.933z"/>
</g>
<g>
</g>
<g>
</g>
<g>
</g>
<g>
</g>
<g>
</g>
<g>
</g>
<g>
</g>
<g>
</g>
<g>
</g>
<g>
</g>
<g>
</g>
<g>
</g>
<g>
</g>
<g>
</g>
<g>
</g>
</svg>
