<?xml version="1.0" encoding="iso-8859-1"?>
<!-- Generator: Adobe Illustrator 19.0.0, SVG Export Plug-In . SVG Version: 6.00 Build 0)  -->
<svg xmlns="http://www.w3.org/2000/svg" xmlns:xlink="http://www.w3.org/1999/xlink" version="1.1" id="Layer_1" x="0px" y="0px" viewBox="0 0 491.52 491.52" style="enable-background:new 0 0 491.52 491.52;" xml:space="preserve">
<path style="fill:#E56353;" d="M471.291,154.747c2.339-8.653,3.699-17.708,3.699-27.1s-1.361-18.448-3.699-27.1l17.603-12.95  c2.645-1.946,3.404-5.569,1.762-8.413l-17.736-30.72c-1.642-2.844-5.16-3.998-8.167-2.681l-19.938,8.735  c-12.783-12.861-28.953-22.282-47.017-27.06l-2.414-21.725C395.021,2.469,392.262,0,388.98,0h-35.474  c-3.283,0-6.042,2.469-6.404,5.733l-2.414,21.725c-18.065,4.778-34.233,14.199-47.017,27.06l-19.937-8.735  c-3.007-1.318-6.525-0.164-8.167,2.68l-17.736,30.72c-1.642,2.844-0.883,6.467,1.762,8.413l17.603,12.95  c-2.34,8.652-3.699,17.708-3.699,27.1s1.36,18.448,3.699,27.1l-17.603,12.95c-2.645,1.946-3.404,5.569-1.762,8.413l17.736,30.72  c1.642,2.844,5.16,3.998,8.167,2.68l19.937-8.735c12.784,12.861,28.953,22.281,47.017,27.059l2.414,21.726  c0.362,3.264,3.121,5.733,6.404,5.733h35.474c3.283,0,6.042-2.469,6.404-5.733l2.414-21.726  c18.064-4.778,34.234-14.199,47.017-27.06l19.938,8.735c3.007,1.318,6.525,0.163,8.167-2.68l17.736-30.721  c1.642-2.843,0.883-6.467-1.762-8.413L471.291,154.747z"/>
<circle style="fill:#FCD462;" cx="371.251" cy="127.647" r="82.074"/>
<circle style="fill:#F6C358;" cx="371.251" cy="127.647" r="68.378"/>
<path style="fill:#DC8744;" d="M368.422,180.858v-9.371c-11.732-1.196-22.263-5.861-31.582-13.989l9.371-11.168  c7.188,6.248,14.585,9.967,22.211,11.168v-24.907c-9.674-2.309-16.758-5.349-21.25-9.115c-4.492-3.766-6.739-9.35-6.739-16.752  c0-7.402,2.581-13.456,7.762-18.168c5.182-4.707,11.921-7.271,20.226-7.7v-6.42h8.212v6.545c9.413,0.69,18.314,3.897,26.704,9.632  l-8.347,11.811c-5.652-4.022-11.764-6.504-18.356-7.449v24.133h0.387c9.841,2.314,17.071,5.438,21.689,9.371  c4.628,3.939,6.937,9.653,6.937,17.139c0,7.491-2.654,13.592-7.961,18.293c-5.307,4.712-12.317,7.277-21.052,7.705v9.241H368.422z   M359.364,97.994c-2.184,1.922-3.27,4.32-3.27,7.188c0,2.868,0.857,5.135,2.57,6.801c1.703,1.672,4.962,3.275,9.758,4.816V94.588  C364.567,94.933,361.548,96.067,359.364,97.994z M386.392,154.285c2.392-1.964,3.594-4.445,3.594-7.444  c0-2.993-0.94-5.37-2.821-7.125c-1.891-1.755-5.401-3.401-10.531-4.942v23.104C380.74,157.456,383.989,156.254,386.392,154.285z"/>
<path style="fill:#64798A;" d="M296.327,356.29c3.146-11.637,4.976-23.816,4.976-36.448s-1.83-24.811-4.976-36.448l23.675-17.417  c3.557-2.617,4.578-7.49,2.369-11.315l-23.854-41.317c-2.209-3.825-6.94-5.378-10.984-3.605l-26.816,11.749  c-17.193-17.297-38.941-29.968-63.236-36.394l-3.246-29.22c-0.487-4.389-4.198-7.71-8.613-7.71h-47.71  c-4.415,0-8.126,3.321-8.613,7.71l-3.247,29.22c-24.296,6.426-46.042,19.097-63.236,36.395l-26.815-11.749  c-4.045-1.772-8.776-0.22-10.984,3.605L1.162,254.661c-2.209,3.825-1.188,8.698,2.369,11.316l23.675,17.417  c-3.147,11.637-4.976,23.816-4.976,36.448s1.829,24.811,4.976,36.448L3.531,373.707c-3.557,2.617-4.578,7.49-2.369,11.315  l23.854,41.317c2.209,3.825,6.94,5.377,10.984,3.605l26.815-11.748c17.194,17.297,38.941,29.967,63.236,36.394l3.247,29.22  c0.487,4.389,4.198,7.71,8.613,7.71h47.71c4.415,0,8.126-3.321,8.613-7.71l3.246-29.22c24.295-6.426,46.043-19.097,63.236-36.394  l26.816,11.749c4.045,1.772,8.776,0.219,10.984-3.605l23.854-41.318c2.209-3.824,1.188-8.698-2.369-11.315L296.327,356.29z"/>
<path style="fill:#FFFFFF;" d="M161.767,426.001c-58.537,0-106.16-47.623-106.16-106.16s47.623-106.16,106.16-106.16  s106.16,47.623,106.16,106.16S220.304,426.001,161.767,426.001z"/>
<g>
	<rect x="158.771" y="221.082" style="fill:#E1E6E9;" width="5.99" height="15.13"/>
	<rect x="158.771" y="403.456" style="fill:#E1E6E9;" width="5.99" height="15.13"/>
	<rect x="245.371" y="316.872" style="fill:#E1E6E9;" width="15.13" height="5.99"/>
	<rect x="63.048" y="316.846" style="fill:#E1E6E9;" width="15.13" height="5.99"/>
	
		<rect x="207.234" y="235.041" transform="matrix(-0.8471 -0.5315 0.5315 -0.8471 259.3727 559.8414)" style="fill:#E1E6E9;" width="5.99" height="15.13"/>
	
		<rect x="110.303" y="389.527" transform="matrix(-0.8471 -0.5315 0.5315 -0.8471 -1.7705 793.6736)" style="fill:#E1E6E9;" width="5.99" height="15.13"/>
	
		<rect x="235.978" y="360.745" transform="matrix(0.5315 -0.8471 0.8471 0.5315 -200.0209 374.9934)" style="fill:#E1E6E9;" width="5.99" height="15.13"/>
	
		<rect x="81.519" y="263.819" transform="matrix(0.5315 -0.8471 0.8471 0.5315 -190.2854 198.7421)" style="fill:#E1E6E9;" width="5.99" height="15.13"/>
	
		<rect x="240.088" y="271.011" transform="matrix(-0.4525 -0.8917 0.8917 -0.4525 104.6712 621.4107)" style="fill:#E1E6E9;" width="5.99" height="15.13"/>
	
		<rect x="77.445" y="353.543" transform="matrix(-0.4525 -0.8917 0.8917 -0.4525 -205.1716 596.2559)" style="fill:#E1E6E9;" width="5.99" height="15.13"/>
	
		<rect x="200.029" y="393.586" transform="matrix(0.8917 -0.4525 0.4525 0.8917 -159.5585 135.3042)" style="fill:#E1E6E9;" width="5.99" height="15.13"/>
	
		<rect x="117.533" y="230.969" transform="matrix(0.8917 -0.4525 0.4525 0.8917 -94.8985 80.3671)" style="fill:#E1E6E9;" width="5.99" height="15.13"/>
</g>
<g>
	<path style="fill:#3A556A;" d="M161.767,255.293c-2.33,0-4.22,1.89-4.22,4.22v56.108c0,2.331,1.889,4.22,4.22,4.22   c2.33,0,4.221-1.89,4.221-4.22v-56.108C165.988,257.183,164.097,255.293,161.767,255.293z"/>
	<path style="fill:#3A556A;" d="M206.641,319.841c0-2.33-1.89-4.22-4.22-4.22h-36.474c-2.331,0-4.22,1.889-4.22,4.22   c0,2.33,1.89,4.221,4.22,4.221h36.474C204.752,324.062,206.641,322.171,206.641,319.841z"/>
</g>
<polygon style="fill:#E56353;" points="131.855,355.553 151.147,336.261 149.727,334.841 227.661,256.906 224.82,254.066   146.886,332 145.466,330.58 126.174,349.872 "/>
<circle style="fill:#FCD462;" cx="161.766" cy="319.846" r="8.172"/>
<g>
</g>
<g>
</g>
<g>
</g>
<g>
</g>
<g>
</g>
<g>
</g>
<g>
</g>
<g>
</g>
<g>
</g>
<g>
</g>
<g>
</g>
<g>
</g>
<g>
</g>
<g>
</g>
<g>
</g>
</svg>
