<?xml version="1.0" encoding="iso-8859-1"?>
<!-- Generator: Adobe Illustrator 19.0.0, SVG Export Plug-In . SVG Version: 6.00 Build 0)  -->
<svg xmlns="http://www.w3.org/2000/svg" xmlns:xlink="http://www.w3.org/1999/xlink" version="1.1" id="Layer_1" x="0px" y="0px" viewBox="0 0 512 512" style="enable-background:new 0 0 512 512;" xml:space="preserve">
<g>
	<path style="fill:#D9D8DA;" d="M91.947,80.918c44.587-41.754,102.789-64.749,163.883-64.749   c54.994,0,107.639,18.641,150.126,52.817h-13.025c-4.466,0-8.084,3.618-8.084,8.084c0,4.466,3.618,8.084,8.084,8.084h32.309   c4.465,0,8.084-3.618,8.084-8.084V47.966c0-4.466-3.62-8.084-8.084-8.084c-4.466,0-8.084,3.618-8.084,8.084v9.27   C371.618,20.206,314.995,0,255.83,0C190.617,0,128.49,24.546,80.894,69.116c-3.258,3.052-3.427,8.168-0.375,11.427   C83.571,83.8,88.686,83.97,91.947,80.918z"/>
	<path style="fill:#D9D8DA;" d="M133.545,439.841c0-4.466-3.618-8.084-8.084-8.084H93.152c-4.466,0-8.084,3.618-8.084,8.084v29.103   c0,4.466,3.618,8.084,8.084,8.084c4.466,0,8.084-3.618,8.084-8.084v-8.889C145.571,493.664,199.83,512,255.83,512   c61.775,0,121.433-22.312,167.986-62.827c3.367-2.931,3.722-8.037,0.79-11.405c-2.932-3.367-8.036-3.721-11.405-0.79   c-43.608,37.952-99.497,58.854-157.37,58.854c-52.038,0-102.465-16.909-143.808-47.906h13.439   C129.926,447.926,133.545,444.306,133.545,439.841z"/>
</g>
<polygon style="fill:#EF4C35;" points="125.599,354.318 131.71,338.044 112.963,324.248 94.155,338.091 100.951,354.318 "/>
<polygon style="fill:#DD3E2B;" points="100.951,354.318 101.31,355.175 92.918,407.197 133.698,407.197 125.297,355.124   125.599,354.318 "/>
<polygon style="fill:#D2D2D7;" points="98.148,407.197 106.642,354.543 98.434,334.943 72.1,309.904 77.254,347.449 93.99,407.197   "/>
<polygon style="fill:#E4E4EA;" points="132.704,407.197 149.633,346.759 154.792,309.206 127.39,334.868 119.984,354.594   128.471,407.197 "/>
<path style="fill:#F5F5F7;" d="M133.095,345.412c5.42,3.988,8.698,0.438,9.921-1.41l17.266-35.49l-22.284-14.709l-5.26,9.471  l-19.599,20.345l-19.071-18.576l-3.696-12.847l-24.725,16.317l16.859,34.652c0.467,0.922,3.886,7.043,10.406,2.252l20.052-14.756  l19.11,14.063C132.377,344.908,132.711,345.13,133.095,345.412z"/>
<path style="fill:#694B4B;" d="M115.806,116.52h-5.23c-35.725,0-64.786,29.065-64.786,64.787v8.64v8.089v13.664  c0,0,14.75-1.463,16.563-8.616l-0.01-0.008c0.623-0.677,1.145-1.45,1.511-2.312c8.367-0.252,47.449-0.557,69.769-27.511  c2.663,7.792,11.674,22.546,29.01,27.193c0.358,0.94,0.888,1.788,1.538,2.522l-0.144,0.115c1.814,7.153,16.564,8.616,16.564,8.616  V197.98v-8.032v-8.64C180.593,145.586,151.529,116.52,115.806,116.52z M164.651,198.433l0.624-0.452h0.088l-1.016,0.752  L164.651,198.433z M164.334,198.627l0.07-0.22l0.217-0.426h0.087l-0.257,0.535L164.334,198.627z M162.615,199.956l-0.024-0.033  l1.597-1.156l-0.377,0.364l-1.168,0.864L162.615,199.956z M163.934,199.581l-0.501,1.035c-0.003-0.001-0.004-0.001-0.004-0.001  l-0.074-0.034c-0.011-0.004-0.025-0.012-0.033-0.018l0.816-1.621l0.022-0.019L163.934,199.581z"/>
<path style="fill:#563B3B;" d="M57.211,198.036v-8.089v-8.64c0-34.687,27.4-63.086,61.69-64.708  c-1.028-0.049-2.059-0.079-3.096-0.079h-5.23c-35.725,0-64.786,29.065-64.786,64.787v8.64v8.089v13.664c0,0,6.517-0.65,11.42-3.183  v-10.481H57.211z"/>
<path style="fill:#FBCB99;" d="M172.812,202.308c-2.479-0.773-5.173-0.322-7.263,1.215c-2.089,1.537-3.323,3.977-3.323,6.573v23.244  c0,2.592,1.234,5.032,3.323,6.568c1.419,1.046,3.116,1.589,4.835,1.589c0.811,0,1.632-0.12,2.424-0.37  c1.564-0.486,3.1-1.19,4.565-2.089c0.862-0.528,1.619-1.216,2.231-2.019c0.899-0.465,1.705-1.092,2.377-1.849  c3.296-3.727,5.111-8.505,5.111-13.454C187.094,212.771,181.355,204.97,172.812,202.308z"/>
<path style="fill:#EDBA89;" d="M61.07,203.523c-2.09-1.537-4.786-1.988-7.262-1.217c-8.542,2.665-14.284,10.464-14.284,19.409  c0,8.949,5.742,16.747,14.284,19.412c0.794,0.25,1.614,0.37,2.428,0.37c1.717,0,3.414-0.543,4.833-1.588  c2.092-1.536,3.324-3.975,3.324-6.569v-23.247C64.394,207.501,63.162,205.06,61.07,203.523z"/>
<path style="fill:#FBCB99;" d="M135.58,273.861c-1.604-1.535-3.755-2.34-5.99-2.258l-0.278,0.013  c-0.498,0.018-0.994,0.082-1.481,0.189c-3.151,0.701-6.361,1.056-9.535,1.056h-9.973c-3.271,0-6.574-0.376-9.821-1.12  c-2.423-0.558-4.963,0.022-6.904,1.569c-1.943,1.548-3.076,3.898-3.076,6.38v23.728l-0.004,0.08  c-0.128,2.354,0.764,4.649,2.452,6.295l16.389,15.965c1.524,1.484,3.568,2.312,5.69,2.312c0.044,0,0.089,0,0.132,0  c2.172-0.036,4.239-0.933,5.744-2.499l16.884-17.527c1.465-1.52,2.283-3.548,2.283-5.658v-22.631  C138.095,277.529,137.187,275.4,135.58,273.861z"/>
<path style="fill:#EDBA89;" d="M114.705,323.307l-16.392-15.964c-1.688-1.644-2.583-3.939-2.453-6.294l0.008-0.081v-23.728  c0-2.088,0.807-4.073,2.217-5.574c-2.294-0.401-4.654,0.185-6.485,1.642c-1.943,1.548-3.076,3.898-3.076,6.38v23.728l-0.004,0.08  c-0.128,2.354,0.764,4.649,2.452,6.295l16.389,15.965c1.524,1.484,3.568,2.312,5.69,2.312c0.044,0,0.089,0,0.132,0  c2.172-0.036,4.239-0.933,5.744-2.499l0.072-0.075C117.391,325.216,115.89,324.464,114.705,323.307z"/>
<path style="fill:#FBCB99;" d="M160.997,195.651c-0.987-0.368-1.918-0.796-2.826-1.251c-13.707-6.396-19.396-14.713-21.687-19.676  c-0.135-0.188-0.272-0.393-0.412-0.653c-1.638-3.012-4.191-1.105-4.191-1.105l-0.012-0.006c-12.8,9.817-26.781,15.559-38.404,18.9  c-4.525,1.337-8.86,2.305-12.78,3.006c-7.791,1.43-12.8,1.618-12.8,1.618c-4.267,0.307-7.572,3.86-7.572,8.138v33.283  c0,26.474,21.538,48.011,48.012,48.011h9.973c26.471,0,48.008-21.536,48.008-48.011v-34.609  C166.306,199.886,164.187,196.841,160.997,195.651z"/>
<path style="fill:#EDBA89;" d="M70.103,237.903V204.62c0-4.278,3.304-7.831,7.57-8.138c0,0,5.008-0.188,12.801-1.618  c3.921-0.702,8.256-1.67,12.782-3.006c10.285-2.958,22.42-7.801,33.952-15.68c-0.272-0.51-0.513-0.996-0.724-1.455  c-0.135-0.188-0.272-0.393-0.412-0.653c-1.638-3.012-4.191-1.105-4.191-1.105l-0.012-0.006c-12.8,9.817-26.781,15.559-38.404,18.9  c-4.525,1.337-8.86,2.305-12.78,3.006c-7.791,1.43-12.8,1.618-12.8,1.618c-4.267,0.307-7.572,3.86-7.572,8.138v33.283  c0,26.474,21.538,48.011,48.012,48.011h9.785C91.64,285.914,70.103,264.376,70.103,237.903z"/>
<g>
	<path style="fill:#324A5E;" d="M19.842,407.197h79.51L70.86,305.48l-29.386,12.245l-0.04,0.015   c-11.934,4.19-32.132,19.386-32.132,49.763v29.169C9.461,399.817,10.794,407.197,19.842,407.197z"/>
	<path style="fill:#324A5E;" d="M216.16,397.024v-29.521c0-30.749-21.005-45.986-32.176-49.779l-28.279-11.785l-28.364,101.257   h78.303C214.37,407.197,215.919,400.333,216.16,397.024z"/>
</g>
<g>
	<path style="fill:#283D4C;" d="M44.874,359.114c-4.466,0-8.084,3.618-8.084,8.084v40h16.168v-40   C52.959,362.733,49.339,359.114,44.874,359.114z"/>
	<path style="fill:#283D4C;" d="M181.053,359.114c-4.466,0-8.084,3.618-8.084,8.084v40h16.168v-40   C189.138,362.733,185.518,359.114,181.053,359.114z"/>
	<path style="fill:#283D4C;" d="M70.86,305.48l-29.386,12.245l-0.04,0.015c-11.934,4.19-32.132,19.386-32.132,49.763v29.169   c0.157,3.145,1.49,10.527,10.539,10.527h1.318v-39.695c0-30.377,20.197-45.573,32.132-49.763l0.04-0.015l18.767-7.821L70.86,305.48   z"/>
</g>
<polygon style="fill:#EF4C35;" points="412.137,354.318 418.247,338.044 399.5,324.248 380.691,338.091 387.487,354.318 "/>
<polygon style="fill:#DD3E2B;" points="387.487,354.318 387.846,355.175 379.455,407.197 420.235,407.197 411.834,355.124   412.137,354.318 "/>
<polygon style="fill:#D2D2D7;" points="384.685,407.197 393.179,354.543 384.971,334.943 358.637,309.904 363.791,347.449   380.526,407.197 "/>
<polygon style="fill:#E4E4EA;" points="419.241,407.197 436.17,346.759 441.328,309.206 413.927,334.868 406.521,354.594   415.007,407.197 "/>
<path style="fill:#F5F5F7;" d="M419.631,345.412c5.42,3.988,8.698,0.438,9.921-1.41l17.267-35.49l-22.284-14.709l-5.26,9.471  l-19.599,20.345l-19.072-18.576l-3.696-12.847l-24.725,16.317l16.859,34.652c0.467,0.922,3.886,7.043,10.406,2.252l20.052-14.756  l19.11,14.063C418.914,344.908,419.248,345.13,419.631,345.412z"/>
<path style="fill:#694B4B;" d="M402.343,116.52h-5.23c-35.725,0-64.785,29.065-64.785,64.787v8.64v8.089v13.664  c0,0,14.75-1.463,16.563-8.616l-0.01-0.008c0.623-0.677,1.144-1.45,1.511-2.312c8.367-0.252,47.45-0.557,69.769-27.511  c2.663,7.792,11.674,22.546,29.01,27.193c0.358,0.94,0.888,1.788,1.538,2.522l-0.144,0.115c1.814,7.153,16.564,8.616,16.564,8.616  V197.98v-8.032v-8.64C467.13,145.586,438.066,116.52,402.343,116.52z M451.188,198.433l0.624-0.452h0.088l-1.016,0.752  L451.188,198.433z M450.871,198.627l0.07-0.22l0.217-0.426h0.087l-0.257,0.535L450.871,198.627z M449.152,199.956l-0.024-0.033  l1.597-1.156l-0.377,0.364l-1.168,0.864L449.152,199.956z M450.471,199.581l-0.501,1.035c-0.003-0.001-0.004-0.001-0.004-0.001  l-0.074-0.034c-0.011-0.004-0.024-0.012-0.033-0.018l0.816-1.621l0.022-0.019L450.471,199.581z"/>
<path style="fill:#563B3B;" d="M343.748,198.036v-8.089v-8.64c0-34.687,27.4-63.086,61.69-64.708  c-1.028-0.049-2.059-0.079-3.096-0.079h-5.23c-35.725,0-64.785,29.065-64.785,64.787v8.64v8.089v13.664c0,0,6.517-0.65,11.42-3.183  V198.036z"/>
<path style="fill:#FBCB99;" d="M459.349,202.308c-2.479-0.773-5.173-0.322-7.263,1.215c-2.089,1.537-3.323,3.977-3.323,6.573v23.244  c0,2.592,1.234,5.032,3.323,6.568c1.419,1.046,3.116,1.589,4.835,1.589c0.811,0,1.632-0.12,2.424-0.37  c1.564-0.486,3.1-1.19,4.565-2.089c0.862-0.528,1.619-1.216,2.231-2.019c0.899-0.465,1.705-1.092,2.377-1.849  c3.296-3.727,5.111-8.505,5.111-13.454C473.631,212.771,467.892,204.97,459.349,202.308z"/>
<path style="fill:#EDBA89;" d="M347.606,203.523c-2.09-1.537-4.786-1.988-7.262-1.217c-8.542,2.665-14.284,10.464-14.284,19.409  c0,8.949,5.742,16.747,14.284,19.412c0.794,0.25,1.614,0.37,2.428,0.37c1.717,0,3.414-0.543,4.833-1.588  c2.091-1.536,3.324-3.975,3.324-6.569v-23.247C350.931,207.501,349.699,205.06,347.606,203.523z"/>
<path style="fill:#FBCB99;" d="M422.117,273.861c-1.604-1.535-3.755-2.34-5.99-2.258l-0.278,0.013  c-0.498,0.018-0.994,0.082-1.481,0.189c-3.151,0.701-6.361,1.056-9.535,1.056h-9.973c-3.271,0-6.574-0.376-9.821-1.12  c-2.423-0.558-4.963,0.022-6.904,1.569c-1.943,1.548-3.075,3.898-3.075,6.38v23.728l-0.004,0.08  c-0.128,2.354,0.764,4.649,2.452,6.295l16.389,15.965c1.524,1.484,3.568,2.312,5.69,2.312c0.044,0,0.089,0,0.132,0  c2.172-0.036,4.239-0.933,5.744-2.499l16.884-17.527c1.465-1.52,2.283-3.548,2.283-5.658v-22.631  C424.632,277.529,423.725,275.4,422.117,273.861z"/>
<path style="fill:#EDBA89;" d="M401.241,323.307l-16.392-15.964c-1.688-1.644-2.583-3.939-2.453-6.294l0.008-0.081v-23.728  c0-2.088,0.807-4.073,2.217-5.574c-2.294-0.401-4.654,0.185-6.485,1.642c-1.943,1.548-3.075,3.898-3.075,6.38v23.728l-0.004,0.08  c-0.128,2.354,0.764,4.649,2.452,6.295l16.389,15.965c1.524,1.484,3.568,2.312,5.69,2.312c0.044,0,0.089,0,0.132,0  c2.172-0.036,4.239-0.933,5.744-2.499l0.072-0.075C403.928,325.216,402.427,324.464,401.241,323.307z"/>
<path style="fill:#FBCB99;" d="M447.534,195.651c-0.987-0.368-1.918-0.796-2.826-1.251c-13.707-6.396-19.396-14.713-21.687-19.676  c-0.135-0.188-0.272-0.393-0.412-0.653c-1.637-3.012-4.191-1.105-4.191-1.105l-0.012-0.006c-12.8,9.817-26.781,15.559-38.404,18.9  c-4.525,1.337-8.86,2.305-12.781,3.006c-7.791,1.43-12.8,1.618-12.8,1.618c-4.267,0.307-7.572,3.86-7.572,8.138v33.283  c0,26.474,21.538,48.011,48.012,48.011h9.973c26.471,0,48.008-21.536,48.008-48.011v-34.609  C452.842,199.886,450.723,196.841,447.534,195.651z"/>
<path style="fill:#EDBA89;" d="M356.639,237.903V204.62c0-4.278,3.304-7.831,7.57-8.138c0,0,5.008-0.188,12.801-1.618  c3.921-0.702,8.256-1.67,12.782-3.006c10.285-2.958,22.42-7.801,33.952-15.68c-0.272-0.51-0.512-0.996-0.724-1.455  c-0.135-0.188-0.272-0.393-0.412-0.653c-1.637-3.012-4.191-1.105-4.191-1.105l-0.012-0.006c-12.8,9.817-26.781,15.559-38.404,18.9  c-4.525,1.337-8.86,2.305-12.781,3.006c-7.791,1.43-12.8,1.618-12.8,1.618c-4.267,0.307-7.572,3.86-7.572,8.138v33.283  c0,26.474,21.539,48.011,48.012,48.011h9.785C378.177,285.914,356.639,264.376,356.639,237.903z"/>
<g>
	<path style="fill:#324A5E;" d="M306.379,407.197h79.51L357.397,305.48l-29.386,12.245l-0.04,0.015   c-11.934,4.19-32.132,19.386-32.132,49.763v29.169C295.998,399.817,297.33,407.197,306.379,407.197z"/>
	<path style="fill:#324A5E;" d="M502.697,397.024v-29.521c0-30.749-21.005-45.986-32.176-49.779l-28.279-11.785l-28.364,101.257   h78.303C500.907,407.197,502.457,400.333,502.697,397.024z"/>
</g>
<g>
	<path style="fill:#283D4C;" d="M331.411,359.114c-4.466,0-8.084,3.618-8.084,8.084v40h16.168v-40   C339.495,362.733,335.877,359.114,331.411,359.114z"/>
	<path style="fill:#283D4C;" d="M467.59,359.114c-4.466,0-8.084,3.618-8.084,8.084v40h16.168v-40   C475.674,362.733,472.055,359.114,467.59,359.114z"/>
	<path style="fill:#283D4C;" d="M357.397,305.48l-29.386,12.245l-0.04,0.015c-11.934,4.19-32.132,19.386-32.132,49.763v29.169   c0.158,3.145,1.49,10.527,10.539,10.527h1.318v-39.695c0-30.377,20.197-45.573,32.132-49.763l0.04-0.015l18.767-7.821   L357.397,305.48z"/>
</g>
<g>
</g>
<g>
</g>
<g>
</g>
<g>
</g>
<g>
</g>
<g>
</g>
<g>
</g>
<g>
</g>
<g>
</g>
<g>
</g>
<g>
</g>
<g>
</g>
<g>
</g>
<g>
</g>
<g>
</g>
</svg>
