<?xml version="1.0" encoding="iso-8859-1"?>
<!-- Generator: Adobe Illustrator 19.0.0, SVG Export Plug-In . SVG Version: 6.00 Build 0)  -->
<svg xmlns="http://www.w3.org/2000/svg" xmlns:xlink="http://www.w3.org/1999/xlink" version="1.1" id="Layer_1" x="0px" y="0px" viewBox="0 0 512 512" style="enable-background:new 0 0 512 512;" xml:space="preserve">
<path style="fill:#E8EAE9;" d="M309.333,0H32C13.867,0,0,13.867,0,32v448c0,18.133,13.867,32,32,32h277.333  c18.133,0,32-13.867,32-32V32C341.333,13.867,326.4,0,309.333,0z"/>
<rect y="54.4" style="fill:#415A6B;" width="341.333" height="349.867"/>
<circle style="fill:#ADB3BA;" cx="170.667" cy="457.6" r="29.867"/>
<path style="fill:#55C0EB;" d="M512,62.933V233.6c0,18.133-13.867,32-32,32H364.8L256,331.733V265.6h-16c-18.133,0-32-13.867-32-32  V62.933c0-18.133,13.867-32,32-32h240C498.133,30.933,512,45.867,512,62.933z"/>
<path style="fill:#FFFFFF;" d="M356.267,228.267V214.4c-17.067-2.133-33.067-8.533-46.933-21.333L323.2,176  c10.667,9.6,21.333,14.933,33.067,17.067v-37.333c-14.933-3.2-24.533-7.467-32-13.867c-6.4-5.333-9.6-13.867-9.6-24.533  s4.267-20.267,11.733-26.667C333.867,83.2,344.533,80,356.267,78.933v-9.6H368v9.6C381.867,80,395.733,84.267,407.467,92.8  l-12.8,18.133c-8.533-6.4-17.067-9.6-27.733-10.667v36.267H368c14.933,3.2,25.6,8.533,32,13.867c6.4,6.4,10.667,14.933,10.667,25.6  s-4.267,20.267-11.733,27.733C391.467,211.2,380.8,214.4,368,215.467v13.867h-11.733V228.267z M342.4,104.533  c-3.2,3.2-5.333,6.4-5.333,10.667s1.067,7.467,4.267,10.667c2.133,2.133,7.467,5.333,14.933,7.467V99.2  C349.867,100.267,345.6,101.333,342.4,104.533z M382.933,188.8c3.2-3.2,5.333-6.4,5.333-10.667S387.2,169.6,384,167.467  c-3.2-2.133-8.533-5.333-16-7.467v34.133C374.4,193.067,379.733,190.933,382.933,188.8z"/>
<g>
</g>
<g>
</g>
<g>
</g>
<g>
</g>
<g>
</g>
<g>
</g>
<g>
</g>
<g>
</g>
<g>
</g>
<g>
</g>
<g>
</g>
<g>
</g>
<g>
</g>
<g>
</g>
<g>
</g>
</svg>
