<?xml version="1.0" encoding="iso-8859-1"?>
<!-- Generator: Adobe Illustrator 19.0.0, SVG Export Plug-In . SVG Version: 6.00 Build 0)  -->
<svg xmlns="http://www.w3.org/2000/svg" xmlns:xlink="http://www.w3.org/1999/xlink" version="1.1" id="Layer_1" x="0px" y="0px" viewBox="0 0 512.003 512.003" style="enable-background:new 0 0 512.003 512.003;" xml:space="preserve">
<path style="fill:#F8CE19;" d="M256.951,62.342c-25.295,0-45.801,20.505-45.801,45.802c0,17.463,9.774,32.638,24.149,40.365v20.705  h-0.041v11.443c0.11,2.302,1.17,8.423,9.351,8.423h24.711c7.789,0,9.119-5.536,9.323-8.055v-11.811h-0.04v-20.706  c14.374-7.727,24.149-22.903,24.149-40.364C302.752,82.849,282.247,62.342,256.951,62.342z"/>
<path style="fill:#939B9B;" d="M247.8,198.541c-4.703,0-8.514,3.811-8.514,8.514c0,4.703,3.811,8.514,8.514,8.514h18.301  c4.703,0,8.514-3.811,8.514-8.514c0-4.703-3.811-8.514-8.514-8.514H247.8z"/>
<g>
	<path style="fill:#FCD638;" d="M162.446,115.293h23.839c4.703,0,8.514-3.811,8.514-8.514c0-4.703-3.811-8.514-8.514-8.514h-23.839   c-4.703,0-8.514,3.811-8.514,8.514C153.932,111.481,157.743,115.293,162.446,115.293z"/>
	<path style="fill:#FCD638;" d="M319.103,106.779c0,4.703,3.811,8.514,8.514,8.514h23.839c4.703,0,8.514-3.811,8.514-8.514   c0-4.703-3.811-8.514-8.514-8.514h-23.839C322.914,98.265,319.103,102.075,319.103,106.779z"/>
	<path style="fill:#FCD638;" d="M200.961,150.726l-16.857,16.857c-3.325,3.326-3.325,8.716,0,12.041   c1.663,1.662,3.843,2.493,6.021,2.493s4.358-0.831,6.021-2.493l16.857-16.857c3.325-3.326,3.325-8.716,0-12.041   C209.677,147.403,204.287,147.403,200.961,150.726z"/>
	<path style="fill:#FCD638;" d="M306.919,65.323c2.178,0,4.358-0.831,6.021-2.493l16.858-16.858c3.325-3.326,3.325-8.716,0-12.042   c-3.326-3.324-8.716-3.324-12.041,0l-16.858,16.858c-3.325,3.326-3.325,8.716,0,12.041   C302.561,64.492,304.741,65.323,306.919,65.323z"/>
	<path style="fill:#FCD638;" d="M256.952,44.626c4.703,0,8.514-3.811,8.514-8.514V12.273c0-4.702-3.811-8.514-8.514-8.514   c-4.703,0-8.514,3.812-8.514,8.514v23.839C248.438,40.814,252.249,44.626,256.952,44.626z"/>
	<path style="fill:#FCD638;" d="M300.899,150.726c-3.325,3.326-3.325,8.716,0,12.041l16.858,16.858   c1.663,1.662,3.843,2.493,6.021,2.493s4.358-0.831,6.021-2.493c3.325-3.326,3.325-8.716,0-12.041l-16.858-16.858   C309.614,147.403,304.224,147.403,300.899,150.726z"/>
	<path style="fill:#FCD638;" d="M200.963,62.83c1.663,1.662,3.843,2.493,6.021,2.493s4.358-0.831,6.021-2.493   c3.325-3.326,3.325-8.716,0-12.041l-16.858-16.858c-3.326-3.324-8.716-3.324-12.041,0c-3.325,3.326-3.325,8.716,0,12.042   L200.963,62.83z"/>
</g>
<g>
	<path style="fill:#D9D8DA;" d="M76.251,316.712c-4.703,0-8.514-3.811-8.514-8.514V146.893c0-4.702,3.811-8.514,8.514-8.514h92.627   c4.703,0,8.514,3.812,8.514,8.514c0,4.703-3.811,8.514-8.514,8.514H84.765v152.791C84.765,312.901,80.954,316.712,76.251,316.712z"/>
	<path style="fill:#D9D8DA;" d="M435.691,316.712c-4.702,0-8.514-3.811-8.514-8.514V155.407h-78.37   c-4.703,0-8.514-3.811-8.514-8.514c0-4.702,3.811-8.514,8.514-8.514h86.884c4.703,0,8.514,3.812,8.514,8.514v161.305   C444.205,312.901,440.393,316.712,435.691,316.712z"/>
</g>
<path style="fill:#FBB616;" d="M262.336,176.418c0,3.117-2.527,5.644-5.644,5.644l0,0c-3.117,0-5.645-2.527-5.645-5.644v-50.012  c0-3.117,2.528-5.644,5.645-5.644l0,0c3.117,0,5.644,2.527,5.644,5.644V176.418z"/>
<path style="fill:#D9D8DA;" d="M256.691,316.712c-4.703,0-8.514-3.811-8.514-8.514v-67.585c0-4.703,3.811-8.514,8.514-8.514  c4.703,0,8.514,3.811,8.514,8.514v67.585C265.205,312.901,261.394,316.712,256.691,316.712z"/>
<path style="fill:#989191;" d="M249.503,207.055c0-4.703,3.811-8.514,8.514-8.514H247.8c-4.703,0-8.514,3.811-8.514,8.514  c0,4.703,3.811,8.514,8.514,8.514h10.217C253.314,215.569,249.503,211.757,249.503,207.055z"/>
<path style="fill:#6598CB;" d="M152.74,478.531c0-0.618-0.017-1.221-0.039-1.824c-0.005-0.084-0.002-0.171-0.007-0.257  c-0.012-0.306-0.037-0.602-0.056-0.904c-0.024-0.384-0.043-0.772-0.075-1.149c-0.014-0.159-0.035-0.311-0.05-0.468  c-0.05-0.515-0.102-1.028-0.167-1.53c-0.006-0.043-0.014-0.085-0.02-0.128c-1.377-10.292-6.063-17.808-11.329-22.93  c-0.024-0.024-0.049-0.048-0.073-0.072c-0.277-0.266-0.552-0.529-0.831-0.783c-0.137-0.126-0.276-0.247-0.414-0.369  c-0.161-0.144-0.322-0.288-0.485-0.427c-0.267-0.23-0.536-0.453-0.805-0.672c-0.028-0.023-0.059-0.048-0.087-0.072  c-3.379-2.731-6.76-4.51-9.413-5.426c-0.011-0.003-0.024-0.009-0.034-0.012l-0.07-0.025c-0.009-0.002-0.018-0.006-0.025-0.009  l-34.802-13.954l-8.693,9.024l-8.892,8.66l-8.892-8.66l-8.693-9.024l-34.802,13.954c-0.008,0.003-0.017,0.007-0.025,0.009  l-0.07,0.025c-0.011,0.003-0.024,0.009-0.034,0.012c-2.653,0.917-6.034,2.695-9.413,5.426c-0.028,0.024-0.059,0.049-0.087,0.072  c-0.269,0.218-0.538,0.442-0.805,0.672c-0.162,0.139-0.324,0.283-0.485,0.427c-0.138,0.121-0.277,0.243-0.414,0.369  c-0.279,0.254-0.554,0.517-0.832,0.783c-0.024,0.024-0.049,0.048-0.074,0.072c-5.266,5.123-9.952,12.638-11.329,22.93  c-0.007,0.043-0.015,0.085-0.02,0.128c-0.066,0.501-0.117,1.015-0.167,1.53c-0.015,0.157-0.036,0.309-0.05,0.468  c-0.032,0.377-0.051,0.765-0.075,1.149c-0.018,0.302-0.043,0.597-0.057,0.904c-0.003,0.084-0.001,0.171-0.006,0.257  C0.017,477.31,0,477.914,0,478.531v5.532h0.001v16.904c0.226,2.638,1.592,7.277,8.413,7.277h8.316h119.278h8.316  c6.821,0,8.187-4.638,8.413-7.277v-16.904h0.001v-5.532H152.74z"/>
<path style="fill:#4982AA;" d="M58.616,427.914l-34.621,13.559l-0.108,0.037c-8.87,3.164-23.886,14.521-23.886,37.02v22.436  c0.226,2.638,1.592,7.277,8.413,7.277h1.754V478.53c0-22.499,15.015-33.856,23.886-37.02l0.108-0.037l27.369-10.719L58.616,427.914z  "/>
<path style="fill:#694B4B;" d="M78.162,300.935H74.41c-25.627,0-46.474,20.85-46.474,46.475v6.198v5.802v9.802  c0,0,10.58-1.05,11.882-6.18l-0.007-0.006c0.447-0.486,0.821-1.04,1.084-1.659c6.002-0.18,34.038-0.4,50.049-19.735  c1.912,5.59,8.374,16.173,20.812,19.507c0.257,0.674,0.638,1.283,1.103,1.81l-0.103,0.083c1.301,5.131,11.882,6.18,11.882,6.18  v-9.842v-5.762v-6.198C124.637,321.785,103.788,300.935,78.162,300.935z M113.201,359.695l0.448-0.324h0.064l-0.73,0.54  L113.201,359.695z M112.974,359.835l0.051-0.158l0.156-0.306h0.064l-0.185,0.384L112.974,359.835z M111.741,360.787l-0.018-0.024  l1.147-0.83l-0.27,0.262l-0.838,0.62L111.741,360.787z M112.687,360.518l-0.359,0.742c-0.002-0.001-0.003-0.001-0.006-0.002  l-0.051-0.024c-0.008-0.003-0.018-0.009-0.024-0.014l0.586-1.162l0.016-0.015L112.687,360.518z"/>
<path style="fill:#563B3B;" d="M36.128,359.412v-5.802v-6.198c0-24.882,19.655-45.255,44.253-46.419  c-0.737-0.034-1.477-0.057-2.22-0.057h-3.752c-25.627,0-46.474,20.85-46.474,46.475v6.198v5.802v9.802c0,0,4.675-0.465,8.193-2.284  C36.128,366.929,36.128,359.412,36.128,359.412z"/>
<path style="fill:#FBCB99;" d="M119.055,362.475c-1.778-0.554-3.711-0.23-5.211,0.872c-1.497,1.103-2.384,2.854-2.384,4.714v16.675  c0,1.861,0.884,3.61,2.384,4.711c1.017,0.749,2.235,1.14,3.469,1.14c0.582,0,1.17-0.086,1.739-0.264  c1.122-0.35,2.224-0.854,3.275-1.498c0.619-0.379,1.161-0.872,1.601-1.449c0.645-0.333,1.224-0.782,1.705-1.326  c2.365-2.673,3.667-6.101,3.667-9.651C129.3,369.98,125.183,364.385,119.055,362.475z"/>
<path style="fill:#EDBA89;" d="M38.896,363.346c-1.5-1.102-3.433-1.426-5.209-0.873c-6.129,1.912-10.246,7.506-10.246,13.923  c0,6.418,4.119,12.014,10.246,13.925c0.57,0.178,1.157,0.265,1.741,0.265c1.232,0,2.449-0.391,3.468-1.139  c1.5-1.102,2.385-2.853,2.385-4.712v-16.676C41.28,366.2,40.396,364.45,38.896,363.346z"/>
<path style="fill:#FBCB99;" d="M92.347,413.805c-1.151-1.101-2.694-1.679-4.297-1.62l-0.2,0.009  c-0.358,0.014-0.713,0.059-1.063,0.135c-2.26,0.503-4.563,0.758-6.84,0.758h-7.154c-2.346,0-4.716-0.269-7.045-0.804  c-1.738-0.401-3.561,0.016-4.953,1.126c-1.394,1.11-2.206,2.796-2.206,4.576v17.021l-0.003,0.058  c-0.092,1.688,0.548,3.335,1.76,4.516l11.758,11.452c1.093,1.066,2.559,1.659,4.082,1.659c0.032,0,0.065,0,0.094,0  c1.558-0.025,3.041-0.67,4.121-1.793l12.113-12.572c1.051-1.091,1.637-2.545,1.637-4.058v-16.236  C94.151,416.435,93.5,414.908,92.347,413.805z"/>
<path style="fill:#EDBA89;" d="M77.371,449.275l-11.757-11.451c-1.211-1.179-1.853-2.826-1.761-4.516l0.006-0.058v-17.021  c0-1.497,0.579-2.922,1.589-3.998c-1.645-0.287-3.339,0.133-4.652,1.178c-1.394,1.11-2.206,2.796-2.206,4.576v17.021l-0.003,0.058  c-0.092,1.688,0.548,3.335,1.76,4.516l11.758,11.452c1.093,1.066,2.559,1.659,4.082,1.659c0.032,0,0.065,0,0.094,0  c1.557-0.025,3.041-0.67,4.121-1.792l0.052-0.055C79.298,450.644,78.221,450.104,77.371,449.275z"/>
<path style="fill:#FBCB99;" d="M110.58,357.7c-0.708-0.263-1.376-0.571-2.027-0.898c-9.832-4.588-13.914-10.555-15.558-14.115  c-0.096-0.134-0.194-0.283-0.295-0.469c-1.175-2.16-3.006-0.792-3.006-0.792l-0.008-0.005c-9.183,7.043-19.212,11.161-27.55,13.558  c-3.246,0.959-6.356,1.653-9.168,2.156c-5.589,1.026-9.183,1.16-9.183,1.16c-3.06,0.22-5.432,2.77-5.432,5.838v23.876  c0,18.991,15.451,34.441,34.442,34.441h7.154c18.99,0,34.44-15.449,34.44-34.441v-24.827  C114.388,360.737,112.868,358.553,110.58,357.7z"/>
<path style="fill:#EDBA89;" d="M45.376,388.009v-23.876c0-3.068,2.37-5.617,5.431-5.838c0,0,3.593-0.134,9.183-1.16  c2.813-0.503,5.922-1.198,9.169-2.156c7.379-2.122,16.084-5.597,24.356-11.249c-0.195-0.364-0.368-0.714-0.52-1.043  c-0.096-0.134-0.194-0.283-0.295-0.469c-1.175-2.16-3.006-0.792-3.006-0.792l-0.008-0.005c-9.183,7.043-19.212,11.161-27.55,13.558  c-3.246,0.959-6.356,1.653-9.168,2.156c-5.589,1.026-9.183,1.16-9.183,1.16c-3.06,0.22-5.432,2.77-5.432,5.838v23.876  c0,18.991,15.451,34.441,34.442,34.441h7.02C60.825,422.45,45.376,407,45.376,388.009z"/>
<path style="fill:#6598CB;" d="M332.369,478.531c0-0.618-0.017-1.221-0.039-1.824c-0.005-0.084-0.002-0.171-0.007-0.257  c-0.012-0.306-0.037-0.602-0.056-0.904c-0.024-0.384-0.043-0.772-0.075-1.149c-0.014-0.159-0.035-0.311-0.05-0.468  c-0.05-0.515-0.102-1.028-0.168-1.53c-0.006-0.043-0.014-0.085-0.019-0.128c-1.377-10.292-6.063-17.808-11.329-22.93  c-0.024-0.024-0.049-0.048-0.074-0.072c-0.277-0.266-0.552-0.529-0.831-0.783c-0.137-0.126-0.276-0.247-0.414-0.369  c-0.161-0.144-0.322-0.288-0.485-0.427c-0.267-0.23-0.536-0.453-0.805-0.672c-0.028-0.023-0.059-0.048-0.087-0.072  c-3.379-2.731-6.76-4.51-9.413-5.426c-0.011-0.003-0.024-0.009-0.034-0.012l-0.069-0.025c-0.009-0.002-0.018-0.006-0.026-0.009  l-34.802-13.954l-8.693,9.024l-8.892,8.66l-8.892-8.66l-8.693-9.024l-34.802,13.954c-0.008,0.003-0.017,0.007-0.026,0.009  l-0.069,0.025c-0.011,0.003-0.024,0.009-0.034,0.012c-2.653,0.917-6.034,2.695-9.413,5.426c-0.028,0.024-0.059,0.049-0.087,0.072  c-0.269,0.218-0.538,0.442-0.805,0.672c-0.162,0.139-0.324,0.283-0.485,0.427c-0.138,0.121-0.277,0.243-0.414,0.369  c-0.279,0.254-0.554,0.517-0.831,0.783c-0.024,0.024-0.049,0.048-0.074,0.072c-5.266,5.123-9.952,12.638-11.328,22.93  c-0.007,0.043-0.015,0.085-0.02,0.128c-0.067,0.501-0.117,1.015-0.167,1.53c-0.015,0.157-0.036,0.309-0.05,0.468  c-0.032,0.377-0.051,0.765-0.075,1.149c-0.018,0.302-0.043,0.597-0.057,0.904c-0.003,0.084-0.001,0.171-0.006,0.257  c-0.023,0.602-0.039,1.207-0.039,1.824v5.532h0.001v16.904c0.226,2.638,1.592,7.277,8.413,7.277h8.316h119.278h8.316  c6.821,0,8.187-4.638,8.413-7.277v-16.904h0.001v-5.532H332.369z"/>
<path style="fill:#4982AA;" d="M238.245,427.914l-34.621,13.559l-0.108,0.037c-8.87,3.164-23.886,14.521-23.886,37.02v22.436  c0.226,2.638,1.592,7.277,8.413,7.277h1.754V478.53c0-22.499,15.015-33.856,23.886-37.02l0.108-0.037l27.369-10.719L238.245,427.914  z"/>
<path style="fill:#694B4B;" d="M257.791,300.935h-3.752c-25.627,0-46.474,20.85-46.474,46.475v6.198v5.802v9.802  c0,0,10.58-1.05,11.882-6.18l-0.007-0.006c0.447-0.486,0.821-1.04,1.084-1.659c6.002-0.18,34.038-0.4,50.049-19.735  c1.912,5.59,8.374,16.173,20.812,19.507c0.257,0.674,0.637,1.283,1.103,1.81l-0.103,0.083c1.301,5.131,11.882,6.18,11.882,6.18  v-9.842v-5.762v-6.198C304.266,321.785,283.417,300.935,257.791,300.935z M292.83,359.695l0.448-0.324h0.064l-0.73,0.54  L292.83,359.695z M292.603,359.835l0.051-0.158l0.156-0.306h0.064l-0.185,0.384L292.603,359.835z M291.371,360.787l-0.018-0.024  l1.147-0.83l-0.27,0.262l-0.838,0.62L291.371,360.787z M292.316,360.518l-0.359,0.742c-0.002-0.001-0.003-0.001-0.006-0.002  l-0.051-0.024c-0.008-0.003-0.018-0.009-0.025-0.014l0.586-1.162l0.016-0.015L292.316,360.518z"/>
<path style="fill:#563B3B;" d="M215.757,359.412v-5.802v-6.198c0-24.882,19.655-45.255,44.253-46.419  c-0.737-0.034-1.477-0.057-2.22-0.057h-3.752c-25.627,0-46.474,20.85-46.474,46.475v6.198v5.802v9.802c0,0,4.675-0.465,8.193-2.284  L215.757,359.412L215.757,359.412z"/>
<path style="fill:#FBCB99;" d="M298.685,362.475c-1.778-0.554-3.711-0.23-5.211,0.872c-1.497,1.103-2.384,2.854-2.384,4.714v16.675  c0,1.861,0.884,3.61,2.384,4.711c1.018,0.749,2.235,1.14,3.469,1.14c0.582,0,1.17-0.086,1.739-0.264  c1.122-0.35,2.224-0.854,3.275-1.498c0.619-0.379,1.161-0.872,1.601-1.449c0.645-0.333,1.224-0.782,1.705-1.326  c2.365-2.673,3.667-6.101,3.667-9.651C308.931,369.98,304.814,364.385,298.685,362.475z"/>
<path style="fill:#EDBA89;" d="M218.526,363.346c-1.5-1.102-3.433-1.426-5.209-0.873c-6.128,1.912-10.246,7.506-10.246,13.923  c0,6.418,4.119,12.014,10.246,13.925c0.57,0.178,1.158,0.265,1.741,0.265c1.232,0,2.449-0.391,3.468-1.139  c1.5-1.102,2.385-2.853,2.385-4.712v-16.676C220.911,366.2,220.026,364.45,218.526,363.346z"/>
<path style="fill:#FBCB99;" d="M271.977,413.805c-1.151-1.101-2.694-1.679-4.297-1.62l-0.2,0.009  c-0.356,0.014-0.713,0.059-1.063,0.135c-2.26,0.503-4.564,0.758-6.84,0.758h-7.154c-2.346,0-4.716-0.269-7.045-0.804  c-1.738-0.401-3.561,0.016-4.953,1.126c-1.394,1.11-2.206,2.796-2.206,4.576v17.021l-0.003,0.058  c-0.092,1.688,0.548,3.335,1.76,4.516l11.757,11.452c1.093,1.066,2.559,1.659,4.082,1.659c0.032,0,0.065,0,0.094,0  c1.557-0.025,3.041-0.67,4.121-1.793l12.113-12.572c1.051-1.091,1.637-2.545,1.637-4.058v-16.236  C273.781,416.435,273.13,414.908,271.977,413.805z"/>
<path style="fill:#EDBA89;" d="M257.001,449.275l-11.757-11.451c-1.211-1.179-1.853-2.826-1.761-4.516l0.006-0.058v-17.021  c0-1.497,0.579-2.922,1.589-3.998c-1.645-0.287-3.339,0.133-4.652,1.178c-1.394,1.11-2.206,2.796-2.206,4.576v17.021l-0.003,0.058  c-0.092,1.688,0.548,3.335,1.76,4.516l11.757,11.452c1.093,1.066,2.559,1.659,4.082,1.659c0.032,0,0.065,0,0.094,0  c1.557-0.025,3.041-0.67,4.121-1.792l0.052-0.055C258.929,450.644,257.852,450.104,257.001,449.275z"/>
<path style="fill:#FBCB99;" d="M290.209,357.7c-0.708-0.263-1.376-0.571-2.027-0.898c-9.832-4.588-13.914-10.555-15.558-14.115  c-0.096-0.134-0.194-0.283-0.295-0.469c-1.175-2.16-3.006-0.792-3.006-0.792l-0.008-0.005c-9.183,7.043-19.212,11.161-27.55,13.558  c-3.246,0.959-6.356,1.653-9.168,2.156c-5.589,1.026-9.183,1.16-9.183,1.16c-3.06,0.22-5.432,2.77-5.432,5.838v23.876  c0,18.991,15.451,34.441,34.442,34.441h7.154c18.988,0,34.44-15.449,34.44-34.441v-24.827  C294.018,360.737,292.498,358.553,290.209,357.7z"/>
<path style="fill:#EDBA89;" d="M225.006,388.009v-23.876c0-3.068,2.37-5.617,5.431-5.838c0,0,3.593-0.134,9.183-1.16  c2.813-0.503,5.922-1.198,9.169-2.156c7.379-2.122,16.083-5.597,24.356-11.249c-0.195-0.364-0.368-0.714-0.52-1.043  c-0.096-0.134-0.194-0.283-0.295-0.469c-1.175-2.16-3.006-0.792-3.006-0.792l-0.008-0.005c-9.183,7.043-19.212,11.161-27.55,13.558  c-3.246,0.959-6.356,1.653-9.168,2.156c-5.589,1.026-9.183,1.16-9.183,1.16c-3.06,0.22-5.432,2.77-5.432,5.838v23.876  c0,18.991,15.451,34.441,34.442,34.441h7.02C240.455,422.45,225.006,407,225.006,388.009z"/>
<path style="fill:#6598CB;" d="M512,478.531c0-0.618-0.017-1.221-0.039-1.824c-0.005-0.084-0.002-0.171-0.007-0.257  c-0.012-0.306-0.037-0.602-0.056-0.904c-0.024-0.384-0.043-0.772-0.075-1.149c-0.014-0.159-0.035-0.311-0.05-0.468  c-0.05-0.515-0.102-1.028-0.167-1.53c-0.006-0.043-0.014-0.085-0.02-0.128c-1.377-10.292-6.063-17.808-11.329-22.93  c-0.024-0.024-0.049-0.048-0.073-0.072c-0.277-0.266-0.552-0.529-0.832-0.783c-0.137-0.126-0.276-0.247-0.414-0.369  c-0.161-0.144-0.322-0.288-0.485-0.427c-0.267-0.23-0.536-0.453-0.805-0.672c-0.028-0.023-0.059-0.048-0.087-0.072  c-3.379-2.731-6.76-4.51-9.413-5.426c-0.011-0.003-0.024-0.009-0.034-0.012l-0.07-0.025c-0.009-0.002-0.018-0.006-0.025-0.009  l-34.802-13.954l-8.693,9.024l-8.892,8.66l-8.892-8.66l-8.693-9.024l-34.802,13.954c-0.008,0.003-0.017,0.007-0.025,0.009  l-0.07,0.025c-0.011,0.003-0.023,0.009-0.034,0.012c-2.653,0.917-6.034,2.695-9.413,5.426c-0.028,0.024-0.059,0.049-0.087,0.072  c-0.269,0.218-0.538,0.442-0.805,0.672c-0.162,0.139-0.324,0.283-0.485,0.427c-0.139,0.121-0.277,0.243-0.414,0.369  c-0.279,0.254-0.554,0.517-0.831,0.783c-0.025,0.024-0.049,0.048-0.074,0.072c-5.266,5.123-9.952,12.638-11.328,22.93  c-0.007,0.043-0.015,0.085-0.02,0.128c-0.067,0.501-0.118,1.015-0.167,1.53c-0.015,0.157-0.036,0.309-0.05,0.468  c-0.032,0.377-0.051,0.765-0.075,1.149c-0.018,0.302-0.043,0.597-0.057,0.904c-0.003,0.084-0.001,0.171-0.006,0.257  c-0.023,0.602-0.039,1.207-0.039,1.824v5.532h0.001v16.904c0.226,2.638,1.592,7.277,8.413,7.277h8.316h119.278h8.316  c6.821,0,8.187-4.638,8.413-7.277v-16.904h0.001v-5.532H512z"/>
<path style="fill:#4982AA;" d="M417.875,427.914l-34.621,13.559l-0.108,0.037c-8.87,3.164-23.886,14.521-23.886,37.02v22.436  c0.226,2.638,1.592,7.277,8.413,7.277h1.754V478.53c0-22.499,15.015-33.856,23.886-37.02l0.108-0.037l27.369-10.719L417.875,427.914  z"/>
<path style="fill:#694B4B;" d="M437.421,300.935h-3.752c-25.627,0-46.475,20.85-46.475,46.475v6.198v5.802v9.802  c0,0,10.58-1.05,11.882-6.18l-0.007-0.006c0.446-0.486,0.821-1.04,1.084-1.659c6.002-0.18,34.038-0.4,50.049-19.735  c1.912,5.59,8.374,16.173,20.812,19.507c0.257,0.674,0.638,1.283,1.103,1.81l-0.103,0.083c1.301,5.131,11.882,6.18,11.882,6.18  v-9.842v-5.762v-6.198C483.897,321.785,463.047,300.935,437.421,300.935z M472.46,359.695l0.448-0.324h0.064l-0.73,0.54  L472.46,359.695z M472.233,359.835l0.051-0.158l0.155-0.306h0.064l-0.185,0.384L472.233,359.835z M471,360.787l-0.018-0.024  l1.147-0.83l-0.27,0.262l-0.838,0.62L471,360.787z M471.946,360.518l-0.359,0.742c-0.002-0.001-0.003-0.001-0.006-0.002  l-0.051-0.024c-0.008-0.003-0.018-0.009-0.024-0.014l0.586-1.162l0.016-0.015L471.946,360.518z"/>
<path style="fill:#563B3B;" d="M395.388,359.412v-5.802v-6.198c0-24.882,19.656-45.255,44.254-46.419  c-0.737-0.034-1.477-0.057-2.22-0.057h-3.752c-25.627,0-46.475,20.85-46.475,46.475v6.198v5.802v9.802c0,0,4.675-0.465,8.193-2.284  v-7.517H395.388z"/>
<path style="fill:#FBCB99;" d="M478.315,362.475c-1.778-0.554-3.711-0.23-5.211,0.872c-1.497,1.103-2.384,2.854-2.384,4.714v16.675  c0,1.861,0.884,3.61,2.384,4.711c1.017,0.749,2.235,1.14,3.469,1.14c0.582,0,1.17-0.086,1.739-0.264  c1.122-0.35,2.224-0.854,3.275-1.498c0.619-0.379,1.161-0.872,1.601-1.449c0.645-0.333,1.224-0.782,1.705-1.326  c2.365-2.673,3.667-6.101,3.667-9.651C488.56,369.98,484.443,364.385,478.315,362.475z"/>
<path style="fill:#EDBA89;" d="M398.155,363.346c-1.5-1.102-3.433-1.426-5.209-0.873c-6.128,1.912-10.246,7.506-10.246,13.923  c0,6.418,4.118,12.014,10.246,13.925c0.57,0.178,1.158,0.265,1.741,0.265c1.232,0,2.449-0.391,3.468-1.139  c1.5-1.102,2.385-2.853,2.385-4.712v-16.676C400.54,366.2,399.656,364.45,398.155,363.346z"/>
<path style="fill:#FBCB99;" d="M451.606,413.805c-1.151-1.101-2.694-1.679-4.297-1.62l-0.2,0.009  c-0.356,0.014-0.713,0.059-1.061,0.135c-2.26,0.503-4.564,0.758-6.84,0.758h-7.154c-2.346,0-4.716-0.269-7.045-0.804  c-1.738-0.401-3.561,0.016-4.953,1.126c-1.394,1.11-2.206,2.796-2.206,4.576v17.021l-0.003,0.058  c-0.092,1.688,0.548,3.335,1.76,4.516l11.757,11.452c1.093,1.066,2.559,1.659,4.082,1.659c0.032,0,0.065,0,0.094,0  c1.557-0.025,3.041-0.67,4.121-1.793l12.113-12.572c1.051-1.091,1.637-2.545,1.637-4.058v-16.236  C453.41,416.435,452.76,414.908,451.606,413.805z"/>
<path style="fill:#EDBA89;" d="M436.631,449.275l-11.757-11.451c-1.211-1.179-1.853-2.826-1.761-4.516l0.006-0.058v-17.021  c0-1.497,0.579-2.922,1.589-3.998c-1.645-0.287-3.339,0.133-4.652,1.178c-1.394,1.11-2.206,2.796-2.206,4.576v17.021l-0.003,0.058  c-0.092,1.688,0.548,3.335,1.76,4.516l11.757,11.452c1.093,1.066,2.559,1.659,4.082,1.659c0.032,0,0.065,0,0.094,0  c1.558-0.025,3.041-0.67,4.121-1.792l0.052-0.055C438.558,450.644,437.481,450.104,436.631,449.275z"/>
<path style="fill:#FBCB99;" d="M469.84,357.7c-0.708-0.263-1.376-0.571-2.027-0.898c-9.832-4.588-13.914-10.555-15.558-14.115  c-0.096-0.134-0.194-0.283-0.295-0.469c-1.175-2.16-3.006-0.792-3.006-0.792l-0.008-0.005c-9.183,7.043-19.212,11.161-27.549,13.558  c-3.246,0.959-6.356,1.653-9.168,2.156c-5.589,1.026-9.183,1.16-9.183,1.16c-3.061,0.22-5.432,2.77-5.432,5.838v23.876  c0,18.991,15.451,34.441,34.442,34.441h7.154c18.988,0,34.44-15.449,34.44-34.441v-24.827  C473.647,360.737,472.127,358.553,469.84,357.7z"/>
<path style="fill:#EDBA89;" d="M404.635,388.009v-23.876c0-3.068,2.37-5.617,5.431-5.838c0,0,3.593-0.134,9.183-1.16  c2.813-0.503,5.922-1.198,9.169-2.156c7.379-2.122,16.083-5.597,24.356-11.249c-0.195-0.364-0.368-0.714-0.52-1.043  c-0.096-0.134-0.194-0.283-0.295-0.469c-1.175-2.16-3.006-0.792-3.006-0.792l-0.008-0.005c-9.183,7.043-19.212,11.161-27.549,13.558  c-3.246,0.959-6.356,1.653-9.168,2.156c-5.589,1.026-9.183,1.16-9.183,1.16c-3.061,0.22-5.432,2.77-5.432,5.838v23.876  c0,18.991,15.451,34.441,34.442,34.441h7.02C420.085,422.45,404.635,407,404.635,388.009z"/>
<path style="fill:#FBB616;" d="M235.3,169.215h-0.041v11.443c0.11,2.302,1.17,8.423,9.351,8.423h0.866v-19.866h0.041v-20.706  c-14.375-7.727-24.149-22.903-24.149-40.365c0-23.569,17.803-42.97,40.692-45.511c-1.679-0.186-3.381-0.291-5.108-0.291  c-25.295,0-45.801,20.505-45.801,45.802c0,17.463,9.774,32.638,24.149,40.365L235.3,169.215L235.3,169.215z"/>
<path style="fill:#939B9B;" d="M278.644,181.025v-11.811h-0.04v-7.206h-43.303v7.206h-0.041v11.443  c0.11,2.302,1.17,8.423,9.351,8.423h24.711C277.109,189.08,278.439,183.544,278.644,181.025z"/>
<path style="fill:#989191;" d="M244.609,189.08h0.866v-19.866h0.041v-7.206H235.3v7.206h-0.041v11.443  C235.369,182.96,236.429,189.08,244.609,189.08z"/>
<g>
</g>
<g>
</g>
<g>
</g>
<g>
</g>
<g>
</g>
<g>
</g>
<g>
</g>
<g>
</g>
<g>
</g>
<g>
</g>
<g>
</g>
<g>
</g>
<g>
</g>
<g>
</g>
<g>
</g>
</svg>
