<?xml version="1.0" encoding="iso-8859-1"?>
<!-- Generator: Adobe Illustrator 19.0.0, SVG Export Plug-In . SVG Version: 6.00 Build 0)  -->
<svg xmlns="http://www.w3.org/2000/svg" xmlns:xlink="http://www.w3.org/1999/xlink" version="1.1" id="Layer_1" x="0px" y="0px" viewBox="0 0 491.524 491.524" style="enable-background:new 0 0 491.524 491.524;" xml:space="preserve">
<path style="fill:#FCD462;" d="M457.5,438.118c0-16.346,13.251-29.598,29.598-29.598c-16.347,0-29.598-13.251-29.598-29.598  c0-16.346,13.251-29.598,29.598-29.598c-16.347,0-29.598-13.251-29.598-29.598c0-16.346,13.251-29.598,29.598-29.598  c-16.347,0-29.598-13.251-29.598-29.598c0-16.346,13.251-29.598,29.598-29.598c-16.347,0-29.598-13.251-29.598-29.598  c0-16.346,13.251-29.598,29.598-29.598c-16.347,0-29.598-13.251-29.598-29.598c0-16.346,13.251-29.598,29.598-29.598  c-16.347,0-29.598-13.251-29.598-29.598c0-16.346,13.251-29.598,29.598-29.598v-19.38h-19.38c0,16.347-13.251,29.598-29.598,29.598  c-16.347,0-29.598-13.251-29.598-29.598c0,16.347-13.251,29.598-29.598,29.598c-16.347,0-29.598-13.251-29.598-29.598  c0,16.347-13.251,29.598-29.598,29.598c-16.347,0-29.598-13.251-29.598-29.598c0,16.347-13.251,29.598-29.598,29.598  c-16.347,0-29.598-13.251-29.598-29.598c0,16.347-13.251,29.598-29.598,29.598s-29.598-13.251-29.598-29.598  c0,16.347-13.251,29.598-29.598,29.598s-29.598-13.251-29.598-29.598c0,16.347-13.251,29.598-29.598,29.598  S53.35,50.315,53.35,33.968H33.97v19.38c16.347,0,29.598,13.252,29.598,29.598c0,16.347-13.251,29.598-29.598,29.598  c16.347,0,29.598,13.252,29.598,29.598c0,16.347-13.251,29.598-29.598,29.598c16.347,0,29.598,13.252,29.598,29.598  c0,16.347-13.251,29.598-29.598,29.598c16.347,0,29.598,13.252,29.598,29.598c0,16.347-13.251,29.598-29.598,29.598  c16.347,0,29.598,13.252,29.598,29.598c0,16.347-13.251,29.598-29.598,29.598c16.347,0,29.598,13.252,29.598,29.598  c0,16.347-13.251,29.598-29.598,29.598c16.347,0,29.598,13.252,29.598,29.598c0,16.347-13.251,29.598-29.598,29.598v19.38h19.38  c0-16.346,13.251-29.598,29.598-29.598s29.598,13.252,29.598,29.598c0-16.346,13.251-29.598,29.598-29.598  c16.347,0,29.598,13.252,29.598,29.598c0-16.346,13.251-29.598,29.598-29.598s29.598,13.252,29.598,29.598  c0-16.346,13.251-29.598,29.598-29.598c16.347,0,29.598,13.252,29.598,29.598c0-16.346,13.251-29.598,29.598-29.598  c16.347,0,29.598,13.252,29.598,29.598c0-16.346,13.251-29.598,29.598-29.598c16.347,0,29.598,13.252,29.598,29.598  c0-16.346,13.251-29.598,29.598-29.598c16.347,0,29.598,13.252,29.598,29.598h19.38v-19.38  C470.751,467.716,457.5,454.465,457.5,438.118z"/>
<path style="fill:#64798A;" d="M413.618,94.026H107.45c-7.413,0-13.422,6.009-13.422,13.422v306.168  c0,7.413,6.009,13.422,13.422,13.422h306.167c7.414,0,13.422-6.009,13.422-13.422V107.448  C427.04,100.035,421.032,94.026,413.618,94.026z"/>
<rect x="245.967" y="328.143" style="fill:#FCD462;" width="29.174" height="60.334"/>
<polygon style="fill:#44C4A1;" points="352.823,348.051 293.125,279.44 347.749,279.44 279.19,200.644 319.765,200.644   260.534,132.568 201.304,200.644 241.879,200.644 173.319,279.44 227.943,279.44 168.245,348.051 "/>
<g>
	<path style="fill:#E56353;" d="M216.104,42.324c-37.99,0-56.128-11.862-57.225-12.616C69.558-10.327,9.751,29.28,9.146,29.697   c-2.627,1.805-6.282,1.154-8.121-1.525c-1.816-2.656-1.154-6.288,1.508-8.115c2.627-1.805,65.529-43.872,162.023-0.52   c1.234,0.72,38.595,24.495,120.686-0.263c3.061-0.942,6.351,0.817,7.287,3.906c0.937,3.095-0.811,6.356-3.906,7.287   C259.211,39.337,235.168,42.324,216.104,42.324z"/>
	<path style="fill:#E56353;" d="M216.104,93.334c-37.99,0-56.128-11.862-57.225-12.616C69.558,40.684,9.751,80.29,9.146,80.707   c-2.627,1.805-6.282,1.154-8.121-1.525c-1.816-2.656-1.154-6.288,1.508-8.115c2.627-1.805,65.529-43.872,162.023-0.52   c1.234,0.72,38.595,24.495,120.686-0.263c3.061-0.942,6.351,0.817,7.287,3.906c0.937,3.095-0.811,6.356-3.906,7.287   C259.211,90.348,235.168,93.334,216.104,93.334z"/>
	<path style="fill:#E56353;" d="M216.104,144.345c-37.99,0-56.128-11.862-57.225-12.616C69.558,91.695,9.751,131.301,9.146,131.718   c-2.627,1.805-6.282,1.154-8.121-1.525c-1.816-2.656-1.154-6.288,1.508-8.115c2.627-1.805,65.529-43.872,162.023-0.52   c1.234,0.72,38.595,24.495,120.686-0.263c3.061-0.942,6.351,0.817,7.287,3.906c0.937,3.095-0.811,6.356-3.906,7.287   C259.211,141.358,235.168,144.345,216.104,144.345z"/>
	<path style="fill:#E56353;" d="M216.104,195.356c-37.99,0-56.128-11.862-57.225-12.616c-89.321-40.035-149.128-0.428-149.733-0.011   c-2.627,1.805-6.282,1.154-8.121-1.525c-1.816-2.656-1.154-6.288,1.508-8.115c2.627-1.805,65.529-43.872,162.023-0.52   c1.234,0.72,38.595,24.495,120.686-0.263c3.061-0.942,6.351,0.817,7.287,3.906c0.937,3.095-0.811,6.356-3.906,7.287   C259.211,192.369,235.168,195.356,216.104,195.356z"/>
</g>
<g>
	<path style="fill:#FFFFFF;" d="M365.32,491.524c-69.588,0-126.202-56.615-126.202-126.202S295.732,239.12,365.32,239.12   s126.202,56.615,126.202,126.202S434.907,491.524,365.32,491.524z M365.32,247.976c-64.701,0-117.346,52.64-117.346,117.346   s52.645,117.346,117.346,117.346s117.346-52.64,117.346-117.346S430.021,247.976,365.32,247.976z"/>
	<path style="fill:#FFFFFF;" d="M365.32,453.154c-48.424,0-87.828-39.399-87.828-87.832s39.404-87.832,87.828-87.832   c48.433,0,87.836,39.399,87.836,87.832S413.753,453.154,365.32,453.154z M365.32,286.346c-43.546,0-78.971,35.43-78.971,78.976   s35.425,78.976,78.971,78.976s78.98-35.429,78.98-78.976S408.866,286.346,365.32,286.346z"/>
</g>
<g>
</g>
<g>
</g>
<g>
</g>
<g>
</g>
<g>
</g>
<g>
</g>
<g>
</g>
<g>
</g>
<g>
</g>
<g>
</g>
<g>
</g>
<g>
</g>
<g>
</g>
<g>
</g>
<g>
</g>
</svg>
