<?xml version="1.0" encoding="iso-8859-1"?>
<!-- Generator: Adobe Illustrator 19.0.0, SVG Export Plug-In . SVG Version: 6.00 Build 0)  -->
<svg xmlns="http://www.w3.org/2000/svg" xmlns:xlink="http://www.w3.org/1999/xlink" version="1.1" id="Layer_1" x="0px" y="0px" viewBox="0 0 491.535 491.535" style="enable-background:new 0 0 491.535 491.535;" xml:space="preserve">
<polygon style="fill:#64798A;" points="370.447,382.432 245.76,133.063 121.073,382.432 105.085,374.438 245.76,93.101   386.435,374.438 "/>
<circle style="fill:#2D93BA;" cx="113.101" cy="378.435" r="113.101"/>
<circle style="fill:#27A2DB;" cx="113.101" cy="378.435" r="94.218"/>
<path style="fill:#1C75A1;" d="M46.593,372.653v-15.076h18.228c3.851-12.501,10.683-22.55,20.51-30.145  c9.813-7.595,20.967-11.389,33.475-11.389c18.57,0,33.29,6.718,44.158,20.154l-12.437,15.775  c-5.149-5.491-10.027-9.349-14.634-11.567c-4.621-2.218-10.312-3.33-17.087-3.33c-6.789,0-12.894,1.783-18.314,5.341  c-5.434,3.566-9.499,8.622-12.181,15.161h41.705v15.076H84.618c-0.114,1.398-0.171,3.53-0.171,6.397c0,2.86,0.171,5.577,0.528,8.144  h45.042v15.076H89.71c6.304,12.152,15.832,18.228,28.569,18.228c6.304,0,11.71-1.198,16.203-3.594  c4.507-2.396,9.271-6.162,14.291-11.303l12.437,15.069c-10.868,13.443-25.174,20.161-42.931,20.161  c-12.152,0-22.935-3.48-32.334-10.433c-9.414-6.946-16.16-16.324-20.253-28.126H46.593v-15.076h15.775  c-0.357-2.803-0.528-5.605-0.528-8.408c0-2.803,0.057-4.849,0.171-6.133H46.593z"/>
<circle style="fill:#3EA69B;" cx="378.435" cy="378.435" r="113.101"/>
<circle style="fill:#44C4A1;" cx="378.435" cy="378.435" r="94.218"/>
<path style="fill:#31978C;" d="M370.783,355.338v20.867h26.613v15.613h-26.613v28.984h47.48v16.729h-79.319v-16.729H352v-28.984  h-13.706v-15.613H352v-19.909c0-12.842,3.236-22.215,9.708-28.11c6.491-5.895,14.971-8.843,25.497-8.843  c13.911,0,24.363,5.951,31.374,17.844l-13.223,10.508c-4.352-7.216-9.987-10.833-16.887-10.833c-5.096,0-9.317,1.46-12.665,4.38  C372.457,344.17,370.783,348.866,370.783,355.338z"/>
<circle style="fill:#F6C358;" cx="245.76" cy="127.017" r="127.017"/>
<circle style="fill:#FCD462;" cx="245.76" cy="127.017" r="105.825"/>
<g>
	<path style="fill:#DC8744;" d="M245.76,232.838c38.148,0,71.481-20.253,90.1-50.525c-19.052-29.615-52.27-49.25-90.1-49.25   s-71.049,19.635-90.1,49.25C174.279,212.586,207.612,232.838,245.76,232.838z"/>
	<circle style="fill:#DC8744;" cx="245.76" cy="73.149" r="33.434"/>
</g>
<g>
</g>
<g>
</g>
<g>
</g>
<g>
</g>
<g>
</g>
<g>
</g>
<g>
</g>
<g>
</g>
<g>
</g>
<g>
</g>
<g>
</g>
<g>
</g>
<g>
</g>
<g>
</g>
<g>
</g>
</svg>
