<?xml version="1.0" encoding="iso-8859-1"?>
<!-- Generator: Adobe Illustrator 19.0.0, SVG Export Plug-In . SVG Version: 6.00 Build 0)  -->
<svg xmlns="http://www.w3.org/2000/svg" xmlns:xlink="http://www.w3.org/1999/xlink" version="1.1" id="Layer_1" x="0px" y="0px" viewBox="0 0 512 512" style="enable-background:new 0 0 512 512;" xml:space="preserve">
<g>
	<path style="fill:#C8D0E2;" d="M164.245,286.958c-1.403,0-2.825-0.358-4.127-1.111c-3.948-2.284-5.298-7.335-3.014-11.283   l26.141-45.191c2.283-3.95,7.335-5.296,11.283-3.014c3.948,2.284,5.298,7.335,3.014,11.283l-26.14,45.191   C169.871,285.479,167.097,286.958,164.245,286.958z"/>
	<path style="fill:#C8D0E2;" d="M347.41,286.958c-2.845,0-5.613-1.471-7.146-4.107l-26.282-45.191   c-2.292-3.943-0.956-8.998,2.987-11.29c3.942-2.294,8.997-0.956,11.292,2.987l26.28,45.191c2.291,3.943,0.956,8.998-2.987,11.29   C350.248,286.597,348.82,286.958,347.41,286.958z"/>
	<path style="fill:#C8D0E2;" d="M280.659,397.4h-52.489c-4.562,0-8.258-3.696-8.258-8.258s3.696-8.258,8.258-8.258h52.489   c4.562,0,8.258,3.696,8.258,8.258C288.918,393.704,285.22,397.4,280.659,397.4z"/>
	<path style="fill:#C8D0E2;" d="M352.957,99.087h-17.552c-1.742-6.127-4.191-12.028-7.297-17.602l12.415-12.414   c1.167-1.167,1.167-3.06,0-4.229l-27.942-27.947c-0.56-0.562-1.322-0.878-2.115-0.878c-0.793,0-1.554,0.316-2.115,0.878   l-12.419,12.417c-5.573-3.108-11.473-5.556-17.597-7.297V24.462c0-1.652-1.34-2.991-2.992-2.991h-39.522   c-1.65,0-2.992,1.339-2.992,2.991v17.553c-6.122,1.741-12.023,4.188-17.597,7.297l-12.42-12.417   c-0.56-0.562-1.321-0.878-2.113-0.878c-0.795,0-1.555,0.316-2.116,0.878L170.64,64.843c-1.169,1.169-1.169,3.062,0,4.228   l12.415,12.417c-3.109,5.576-5.558,11.478-7.297,17.598h-17.553c-1.652,0-2.992,1.339-2.992,2.991v39.521   c0,1.652,1.34,2.991,2.992,2.991h17.553c1.739,6.12,4.185,12.023,7.297,17.601l-12.415,12.417c-1.169,1.168-1.169,3.06,0,4.228   l27.942,27.945c0.585,0.584,1.351,0.876,2.116,0.876c0.765,0,1.531-0.293,2.113-0.875l12.42-12.417   c5.571,3.107,11.473,5.556,17.597,7.298v17.551c0,1.652,1.341,2.991,2.992,2.991h39.522c1.652,0,2.992-1.339,2.992-2.991v-17.551   c6.122-1.743,12.025-4.192,17.597-7.299l12.419,12.416c0.582,0.582,1.349,0.875,2.114,0.875s1.531-0.293,2.114-0.875l27.944-27.944   c1.167-1.167,1.167-3.06,0-4.228l-12.415-12.42c3.106-5.57,5.555-11.471,7.298-17.598h17.551c1.652,0,2.992-1.339,2.992-2.991   v-39.52C355.948,100.426,354.609,99.087,352.957,99.087z M297.338,121.838c0,0.764-0.026,1.583-0.08,2.501   c-0.014,0.204-0.026,0.4-0.044,0.599l-0.014,0.164c-0.048,0.627-0.107,1.221-0.177,1.778c-0.025,0.231-0.058,0.484-0.092,0.739   c-0.094,0.665-0.203,1.319-0.325,1.98c-0.039,0.211-0.062,0.34-0.086,0.467c-0.157,0.786-0.346,1.599-0.559,2.403   c-0.041,0.156-0.075,0.279-0.111,0.401c-0.008,0.023-0.014,0.045-0.02,0.068c-0.165,0.608-0.359,1.245-0.573,1.898   c-0.065,0.197-0.133,0.403-0.207,0.611c-0.221,0.64-0.446,1.244-0.686,1.842l-0.182,0.457c-0.622,1.5-1.351,3.006-2.152,4.435   l-0.167,0.295c-0.359,0.624-0.72,1.221-1.112,1.833c-0.09,0.145-0.171,0.266-0.251,0.39c-1.362,2.08-2.918,4.041-4.634,5.85   l-0.175,0.181c-1.718,1.798-3.625,3.457-5.667,4.936l-0.73,0.518c-0.478,0.33-0.982,0.663-1.472,0.973l-0.181,0.112   c-0.203,0.129-0.404,0.257-0.611,0.381c-0.26,0.156-0.505,0.296-0.752,0.435l-0.151,0.085c-0.218,0.127-0.34,0.198-0.464,0.264   c-0.268,0.149-0.523,0.281-0.775,0.412l-0.268,0.137c-0.641,0.331-1.301,0.649-1.954,0.944l-0.15,0.067   c-0.338,0.149-0.706,0.308-1.074,0.462c-0.344,0.141-0.688,0.276-1.035,0.409l-0.228,0.089c-0.545,0.204-1.115,0.403-1.711,0.595   l-0.266,0.088l-0.2,0.062c-0.056,0.019-0.116,0.037-0.178,0.062l-0.652,0.185c-0.019,0.006-0.034,0.011-0.052,0.015l-1.372,0.37   c-0.124,0.032-0.252,0.063-0.379,0.092l-0.932,0.217c-0.983,0.21-1.775,0.358-2.559,0.478c-0.09,0.013-0.175,0.024-0.258,0.034   l-0.235,0.03c-0.71,0.1-1.483,0.186-2.275,0.253c-0.271,0.022-0.529,0.042-0.787,0.059c-1.033,0.068-1.902,0.099-2.742,0.099   c-0.848,0-1.729-0.031-2.775-0.101c-0.217-0.013-0.451-0.032-0.688-0.051c-0.499-0.042-0.951-0.096-1.403-0.151l-0.214-0.025   c-0.314-0.032-0.525-0.056-0.729-0.084c-0.205-0.023-0.336-0.041-0.467-0.061c-0.789-0.118-1.598-0.269-2.559-0.477   c-0.346-0.075-0.654-0.148-0.961-0.222c-0.487-0.116-0.987-0.25-1.489-0.393l-0.271-0.072c-0.355-0.102-0.751-0.219-1.14-0.342   c-0.534-0.171-1.049-0.352-1.562-0.54c-0.019-0.006-0.035-0.012-0.055-0.018c-0.107-0.036-0.207-0.073-0.309-0.111   c-0.4-0.152-0.813-0.316-1.222-0.486c-0.373-0.152-0.752-0.318-1.133-0.487c-0.728-0.326-1.444-0.672-2.118-1.021l-0.324-0.167   c-0.276-0.143-0.471-0.243-0.661-0.349c-0.435-0.238-0.867-0.489-1.295-0.744c-0.153-0.09-0.286-0.173-0.415-0.253   c-0.086-0.055-0.172-0.105-0.264-0.15l-0.043-0.021l-0.244-0.174c-0.039-0.028-0.078-0.054-0.118-0.078   c-10.363-6.633-17.256-17.391-18.91-29.52l-0.059-0.472c-0.08-0.635-0.145-1.301-0.201-2.035l-0.047-0.653   c-0.053-0.883-0.079-1.712-0.079-2.499c0-0.951,0.039-1.927,0.124-3.074l0.014-0.221c0.023-0.317,0.044-0.651,0.08-0.983   l0.024-0.226c0.073-0.665,0.148-1.238,0.229-1.776c0.03-0.188,0.065-0.389,0.101-0.587l0.025-0.153   c0.079-0.458,0.146-0.85,0.224-1.238c0.048-0.24,0.097-0.451,0.146-0.664l0.065-0.295c0.08-0.359,0.16-0.704,0.246-1.045   c0.054-0.21,0.12-0.45,0.187-0.69l0.07-0.252c0.088-0.322,0.175-0.634,0.27-0.945c0.084-0.274,0.164-0.515,0.243-0.758l0.042-0.128   c0.111-0.333,0.221-0.665,0.338-0.996c0.118-0.322,0.222-0.599,0.331-0.876c0.129-0.338,0.255-0.666,0.391-0.99   c0.112-0.276,0.24-0.571,0.37-0.865c0.135-0.312,0.277-0.624,0.425-0.938c0.134-0.282,0.265-0.557,0.401-0.829   c0.165-0.33,0.325-0.642,0.488-0.95c0.131-0.251,0.28-0.525,0.433-0.796c0.168-0.304,0.342-0.601,0.519-0.9   c0.148-0.252,0.307-0.522,0.475-0.788c0.175-0.285,0.369-0.58,0.563-0.876c0.163-0.253,0.334-0.51,0.508-0.763   c0.197-0.286,0.409-0.579,0.621-0.872c0.17-0.238,0.342-0.478,0.523-0.712c0.205-0.27,0.433-0.554,0.658-0.839l0.092-0.116   c0.146-0.183,0.293-0.37,0.447-0.548c0.23-0.283,0.461-0.544,0.693-0.804l0.161-0.187c0.14-0.162,0.281-0.318,0.422-0.477   c0.241-0.26,0.48-0.511,0.718-0.758l0.235-0.241c0.137-0.143,0.257-0.271,0.381-0.393c0.418-0.417,0.846-0.824,1.303-1.241   l0.215-0.197c0.475-0.429,0.922-0.815,1.357-1.175c0.157-0.128,0.295-0.237,0.433-0.345l0.088-0.068   c0.368-0.296,0.688-0.552,1.02-0.8c0.146-0.112,0.322-0.237,0.494-0.361l0.126-0.09c0.318-0.229,0.631-0.456,0.951-0.674   c0.174-0.119,0.361-0.242,0.548-0.362l0.146-0.097c0.312-0.205,0.631-0.411,0.955-0.611c0.182-0.112,0.383-0.23,0.586-0.349   l0.134-0.078c0.32-0.189,0.633-0.371,0.948-0.546c0.226-0.126,0.449-0.244,0.673-0.36l0.097-0.052   c0.336-0.175,0.66-0.345,0.987-0.506c0.262-0.129,0.529-0.254,0.799-0.381c0.328-0.154,0.662-0.305,1-0.451   c0.251-0.11,0.522-0.224,0.795-0.338c0.362-0.146,0.701-0.28,1.041-0.409c0.26-0.1,0.538-0.204,0.824-0.303   c0.357-0.128,0.704-0.243,1.052-0.357c0.271-0.089,0.558-0.181,0.846-0.268c0.352-0.107,0.716-0.209,1.08-0.308   c0.272-0.073,0.549-0.15,0.829-0.221c0.4-0.098,0.772-0.182,1.144-0.264c0.315-0.069,0.577-0.127,0.84-0.182   c0.364-0.07,0.717-0.131,1.072-0.194l0.282-0.047c0.215-0.037,0.426-0.074,0.636-0.107c0.395-0.058,0.778-0.104,1.161-0.149   l0.272-0.034c0.208-0.025,0.413-0.051,0.618-0.069c0.447-0.044,0.914-0.076,1.377-0.107l0.139-0.011   c0.182-0.014,0.346-0.025,0.514-0.036c0.699-0.033,1.415-0.051,2.113-0.051c0.689,0,1.381,0.018,2.056,0.051   c0.193,0.011,0.378,0.024,0.563,0.039l0.261,0.02c0.427,0.028,0.836,0.056,1.238,0.096c0.203,0.021,0.394,0.044,0.591,0.069   l0.437,0.054c0.338,0.04,0.669,0.08,1.001,0.13c0.247,0.036,0.492,0.079,0.738,0.123l0.149,0.025   c0.361,0.062,0.729,0.123,1.092,0.196c0.295,0.059,0.565,0.118,0.837,0.181c0.419,0.092,0.776,0.172,1.131,0.262   c0.262,0.066,0.533,0.137,0.803,0.211l0.131,0.034c0.323,0.089,0.666,0.186,1.006,0.29c0.284,0.084,0.578,0.179,0.873,0.275   c0.336,0.11,0.675,0.224,1.013,0.344c0.291,0.105,0.589,0.215,0.889,0.329c0.314,0.119,0.635,0.247,0.957,0.378   c0.298,0.122,0.585,0.242,0.871,0.368c0.312,0.135,0.636,0.282,0.959,0.434c0.262,0.122,0.54,0.254,0.817,0.39   c0.303,0.151,0.612,0.309,0.916,0.47c0.284,0.149,0.553,0.29,0.817,0.436c0.314,0.173,0.609,0.346,0.902,0.52l0.137,0.079   c0.215,0.127,0.438,0.255,0.656,0.391c0.305,0.189,0.597,0.379,0.886,0.569l0.135,0.087c0.194,0.124,0.404,0.26,0.611,0.402   c0.276,0.189,0.527,0.369,0.776,0.551l0.228,0.163c0.205,0.145,0.395,0.283,0.58,0.424c0.28,0.209,0.547,0.423,0.815,0.636   l0.218,0.172c0.172,0.134,0.335,0.262,0.493,0.394c0.377,0.31,0.738,0.628,1.092,0.946c0.244,0.215,0.496,0.443,0.744,0.677   c0.342,0.314,0.683,0.636,1.017,0.971c0.153,0.152,0.288,0.294,0.423,0.436l0.313,0.326c0.203,0.207,0.401,0.415,0.596,0.627   c0.165,0.182,0.314,0.351,0.465,0.522l0.239,0.275c0.204,0.233,0.396,0.454,0.587,0.679c0.155,0.186,0.315,0.39,0.478,0.593   l0.208,0.263c0.176,0.222,0.355,0.445,0.529,0.672c0.164,0.219,0.335,0.454,0.502,0.688c0.239,0.328,0.437,0.602,0.63,0.883   c0.183,0.268,0.355,0.531,0.527,0.793c0.166,0.255,0.347,0.533,0.524,0.815c0.181,0.295,0.338,0.556,0.492,0.818   c0.185,0.314,0.357,0.608,0.522,0.906c0.15,0.266,0.302,0.551,0.453,0.838c0.148,0.275,0.303,0.579,0.455,0.884   c0.145,0.296,0.287,0.584,0.423,0.876c0.135,0.291,0.277,0.6,0.413,0.912c0.132,0.299,0.262,0.599,0.384,0.898   c0.112,0.264,0.231,0.574,0.351,0.882c0.133,0.352,0.246,0.642,0.348,0.932c0.122,0.346,0.239,0.693,0.351,1.037   c0.105,0.317,0.195,0.584,0.276,0.856c0.097,0.319,0.185,0.631,0.271,0.944l0.075,0.274c0.065,0.232,0.131,0.461,0.189,0.695   c0.079,0.318,0.149,0.62,0.215,0.923l0.09,0.396c0.052,0.23,0.097,0.432,0.139,0.633c0.075,0.368,0.134,0.71,0.193,1.055   l0.063,0.357c0.036,0.193,0.067,0.374,0.097,0.558c0.086,0.573,0.16,1.137,0.229,1.769c0.002,0.022,0.005,0.041,0.005,0.062   c0.012,0.077,0.022,0.156,0.028,0.235c0.033,0.32,0.056,0.647,0.078,0.976l0.014,0.201   C297.299,119.919,297.338,120.887,297.338,121.838z"/>
</g>
<path style="fill:#ACB7C9;" d="M214.137,95.518l-0.08,0.102c-0.229,0.287-0.458,0.574-0.656,0.837  c-0.185,0.243-0.366,0.491-0.531,0.721c-0.215,0.297-0.428,0.593-0.627,0.884c-0.177,0.255-0.349,0.518-0.511,0.764  c-0.196,0.298-0.39,0.599-0.566,0.882c-0.168,0.271-0.334,0.545-0.482,0.802c-0.177,0.298-0.35,0.6-0.516,0.895  c-0.156,0.28-0.308,0.562-0.435,0.803c-0.165,0.311-0.327,0.623-0.499,0.967c-0.133,0.273-0.266,0.547-0.397,0.826  c-0.151,0.32-0.295,0.64-0.428,0.944c-0.135,0.303-0.265,0.609-0.374,0.875c-0.138,0.327-0.264,0.658-0.394,0.993  c-0.106,0.277-0.211,0.555-0.34,0.903c-0.115,0.328-0.224,0.658-0.333,0.982l-0.031,0.1c-0.085,0.254-0.17,0.51-0.259,0.804  c-0.095,0.314-0.185,0.632-0.273,0.949l-0.067,0.236c-0.069,0.253-0.138,0.505-0.188,0.707c-0.091,0.352-0.172,0.707-0.251,1.065  l-0.061,0.266c-0.052,0.22-0.099,0.44-0.153,0.7c-0.077,0.389-0.146,0.781-0.224,1.234l-0.02,0.117  c-0.041,0.214-0.077,0.429-0.11,0.638c-0.09,0.584-0.163,1.173-0.228,1.764l-0.03,0.25c-0.034,0.344-0.058,0.689-0.084,1.037  l-0.011,0.175c-0.084,1.153-0.122,2.135-0.122,3.097c0,0.794,0.024,1.624,0.079,2.551l0.046,0.622  c0.053,0.688,0.119,1.372,0.204,2.051l0.059,0.473c1.669,12.227,8.603,23.051,19.042,29.732l0.408,0.291l0.24,0.117  c0.141,0.09,0.287,0.178,0.446,0.275c0.433,0.255,0.865,0.508,1.304,0.749c0.201,0.112,0.406,0.218,0.673,0.355l0.313,0.163  c0.68,0.351,1.395,0.697,2.143,1.031c0.385,0.171,0.77,0.34,1.135,0.489c0.416,0.171,0.829,0.337,1.224,0.486  c0.123,0.047,0.25,0.091,0.382,0.137c0.512,0.185,1.031,0.368,1.581,0.544c0.389,0.122,0.783,0.239,1.183,0.353l0.221,0.059  c0.505,0.144,1.015,0.28,1.503,0.396c0.305,0.075,0.613,0.145,0.974,0.226c0.957,0.207,1.772,0.358,2.566,0.477  c0.153,0.023,0.306,0.043,0.49,0.065c0.22,0.031,0.447,0.056,0.736,0.086l0.187,0.022c0.46,0.057,0.922,0.111,1.405,0.151  c0.25,0.02,0.5,0.041,0.719,0.054c1.044,0.07,1.931,0.101,2.793,0.101c0.843,0,1.722-0.031,2.755-0.099  c0.259-0.018,0.516-0.036,0.796-0.061c0.406-0.033,0.806-0.072,1.191-0.116c-0.096-0.011-0.196-0.019-0.291-0.03l-0.187-0.022  c-0.288-0.03-0.514-0.055-0.738-0.086c-0.181-0.022-0.336-0.041-0.488-0.065c-0.794-0.118-1.611-0.27-2.566-0.477  c-0.361-0.08-0.668-0.151-0.974-0.226c-0.49-0.118-0.995-0.253-1.503-0.396l-0.221-0.059c-0.397-0.115-0.794-0.231-1.183-0.353  c-0.552-0.176-1.068-0.359-1.581-0.544c-0.131-0.045-0.257-0.089-0.382-0.137c-0.393-0.149-0.808-0.314-1.222-0.486  c-0.368-0.15-0.753-0.318-1.136-0.489c-0.749-0.335-1.462-0.679-2.142-1.031l-0.313-0.163c-0.27-0.137-0.475-0.243-0.674-0.355  c-0.436-0.241-0.873-0.492-1.304-0.749c-0.16-0.097-0.307-0.185-0.447-0.275l-0.238-0.117l-0.407-0.291  c-10.443-6.681-17.376-17.504-19.043-29.732l-0.061-0.473c-0.085-0.679-0.153-1.363-0.205-2.051l-0.043-0.622  c-0.056-0.928-0.084-1.758-0.084-2.551c0-0.962,0.04-1.946,0.124-3.097l0.011-0.175c0.023-0.348,0.048-0.695,0.084-1.037l0.029-0.25  c0.066-0.59,0.141-1.179,0.229-1.764c0.032-0.208,0.07-0.424,0.109-0.638l0.02-0.117c0.078-0.454,0.145-0.847,0.224-1.234  c0.053-0.26,0.102-0.48,0.154-0.7l0.061-0.266c0.077-0.358,0.161-0.711,0.25-1.065c0.052-0.201,0.119-0.453,0.189-0.707l0.068-0.236  c0.087-0.317,0.175-0.635,0.27-0.949c0.092-0.295,0.176-0.549,0.26-0.804l0.032-0.1c0.107-0.324,0.217-0.654,0.334-0.982  c0.126-0.348,0.231-0.625,0.338-0.903c0.131-0.336,0.259-0.666,0.393-0.993c0.109-0.266,0.242-0.573,0.377-0.875  c0.131-0.304,0.276-0.623,0.428-0.944c0.13-0.279,0.264-0.553,0.4-0.826c0.17-0.344,0.33-0.656,0.494-0.967  c0.127-0.241,0.28-0.523,0.438-0.803c0.161-0.296,0.338-0.597,0.512-0.895c0.151-0.257,0.316-0.531,0.483-0.802  c0.174-0.283,0.369-0.582,0.566-0.882c0.16-0.248,0.334-0.509,0.51-0.764c0.2-0.291,0.413-0.587,0.627-0.884  c0.166-0.23,0.346-0.479,0.532-0.721c0.198-0.262,0.428-0.549,0.656-0.837l0.079-0.102c0.156-0.196,0.312-0.39,0.473-0.58  c0.221-0.268,0.456-0.535,0.69-0.803l0.146-0.166c0.144-0.164,0.286-0.328,0.435-0.489c0.253-0.276,0.493-0.527,0.733-0.776  l0.215-0.222c0.129-0.135,0.262-0.272,0.395-0.405c0.435-0.436,0.871-0.85,1.315-1.256l0.209-0.189  c0.455-0.413,0.91-0.808,1.373-1.191c0.167-0.139,0.315-0.257,0.462-0.371L230.043,89c0.334-0.269,0.661-0.529,0.995-0.781  c0.15-0.115,0.336-0.248,0.524-0.381l0.113-0.08c0.301-0.219,0.618-0.446,0.938-0.668c0.194-0.13,0.39-0.259,0.582-0.385  l0.127-0.081c0.311-0.205,0.634-0.413,0.961-0.614c0.185-0.115,0.393-0.239,0.602-0.362l0.12-0.069  c0.325-0.192,0.639-0.374,0.957-0.551c0.226-0.124,0.454-0.247,0.682-0.367l0.097-0.051c0.338-0.176,0.662-0.345,0.989-0.505  c0.266-0.134,0.54-0.261,0.814-0.39c0.318-0.15,0.658-0.303,1.003-0.453c0.243-0.108,0.518-0.222,0.794-0.337  c0.374-0.152,0.71-0.284,1.047-0.414c0.264-0.1,0.548-0.205,0.834-0.307c0.36-0.126,0.707-0.243,1.058-0.357  c0.281-0.091,0.567-0.184,0.853-0.27c0.351-0.107,0.723-0.21,1.096-0.313c0.258-0.072,0.536-0.146,0.816-0.218  c0.422-0.105,0.793-0.188,1.164-0.271c0.317-0.069,0.58-0.127,0.843-0.181c0.374-0.074,0.73-0.134,1.086-0.197l0.268-0.046  c0.215-0.037,0.435-0.073,0.652-0.108c0.409-0.061,0.794-0.108,1.178-0.153l0.249-0.03c0.036-0.004,0.074-0.009,0.112-0.013  c-0.17-0.021-0.338-0.04-0.522-0.061c-0.409-0.04-0.824-0.069-1.237-0.097l-0.231-0.018c-0.199-0.015-0.401-0.03-0.603-0.04  c-1.349-0.068-2.744-0.072-4.214,0.001c-0.182,0.01-0.363,0.023-0.544,0.036l-0.095,0.009c-0.47,0.03-0.94,0.064-1.391,0.108  c-0.215,0.021-0.431,0.047-0.645,0.073l-0.248,0.03c-0.385,0.045-0.771,0.092-1.18,0.153c-0.218,0.034-0.436,0.069-0.653,0.108  l-0.265,0.046c-0.357,0.063-0.711,0.122-1.086,0.197c-0.264,0.054-0.527,0.111-0.843,0.181c-0.372,0.083-0.744,0.166-1.164,0.271  c-0.28,0.072-0.557,0.148-0.817,0.218c-0.372,0.102-0.743,0.207-1.092,0.313c-0.29,0.086-0.576,0.178-0.856,0.27  c-0.35,0.115-0.697,0.231-1.058,0.357c-0.287,0.104-0.569,0.207-0.832,0.307c-0.339,0.13-0.674,0.262-1.049,0.414  c-0.274,0.115-0.548,0.229-0.794,0.337c-0.345,0.15-0.686,0.303-1.002,0.453c-0.275,0.128-0.548,0.254-0.815,0.39  c-0.329,0.161-0.653,0.329-0.989,0.505l-0.096,0.051c-0.229,0.12-0.458,0.242-0.683,0.367c-0.317,0.176-0.632,0.359-0.957,0.551  l-0.119,0.069c-0.211,0.123-0.418,0.248-0.606,0.362c-0.325,0.201-0.647,0.41-0.959,0.614l-0.126,0.081  c-0.197,0.126-0.391,0.254-0.584,0.385c-0.32,0.221-0.636,0.448-0.94,0.668l-0.112,0.08c-0.187,0.133-0.374,0.266-0.525,0.381  c-0.334,0.252-0.661,0.512-0.993,0.781l-0.089,0.069c-0.149,0.115-0.295,0.232-0.464,0.371c-0.465,0.383-0.918,0.778-1.375,1.191  l-0.208,0.189c-0.446,0.405-0.881,0.819-1.316,1.256c-0.133,0.133-0.264,0.27-0.395,0.405l-0.213,0.222  c-0.241,0.25-0.482,0.5-0.737,0.776c-0.145,0.161-0.291,0.325-0.433,0.489l-0.145,0.166c-0.236,0.266-0.469,0.534-0.691,0.803  C214.448,95.129,214.292,95.322,214.137,95.518z"/>
<path style="fill:#C8D0E2;" d="M509.008,367.412h-17.552c-1.742-6.126-4.191-12.028-7.297-17.602l12.415-12.414  c1.168-1.167,1.168-3.06,0-4.229l-27.942-27.947c-0.56-0.562-1.322-0.878-2.115-0.878c-0.793,0-1.554,0.316-2.115,0.878  l-12.419,12.417c-5.573-3.108-11.473-5.556-17.597-7.297v-17.553c0-1.652-1.34-2.991-2.992-2.991h-39.522  c-1.651,0-2.992,1.339-2.992,2.991v17.553c-6.122,1.741-12.023,4.188-17.596,7.297l-12.42-12.417  c-0.56-0.562-1.321-0.878-2.113-0.878c-0.795,0-1.555,0.316-2.116,0.878l-27.942,27.949c-1.168,1.169-1.168,3.062,0,4.228  l12.415,12.417c-3.109,5.577-5.558,11.478-7.297,17.598h-17.553c-1.652,0-2.992,1.339-2.992,2.991v39.521  c0,1.652,1.34,2.991,2.992,2.991h17.553c1.739,6.12,4.185,12.023,7.297,17.601l-12.415,12.417c-1.168,1.168-1.168,3.06,0,4.228  l27.942,27.945c0.585,0.584,1.351,0.876,2.116,0.876s1.531-0.293,2.113-0.875l12.42-12.417c5.571,3.107,11.473,5.556,17.596,7.298  v17.551c0,1.652,1.341,2.991,2.992,2.991h39.522c1.652,0,2.992-1.339,2.992-2.991v-17.55c6.123-1.743,12.025-4.192,17.597-7.299  l12.419,12.416c0.582,0.582,1.349,0.875,2.114,0.875c0.765,0,1.531-0.293,2.114-0.875l27.944-27.944c1.168-1.166,1.168-3.06,0-4.228  l-12.415-12.42c3.106-5.57,5.555-11.471,7.298-17.598h17.551c1.652,0,2.992-1.339,2.992-2.991v-39.521  C512,368.751,510.66,367.412,509.008,367.412z M453.39,390.165c0,0.764-0.026,1.583-0.08,2.501c-0.014,0.204-0.026,0.4-0.044,0.599  l-0.014,0.164c-0.048,0.626-0.107,1.221-0.177,1.778c-0.025,0.231-0.058,0.484-0.092,0.739c-0.094,0.664-0.203,1.319-0.325,1.98  c-0.039,0.211-0.062,0.34-0.086,0.467c-0.157,0.786-0.346,1.599-0.559,2.403c-0.041,0.156-0.075,0.279-0.111,0.401  c-0.008,0.023-0.014,0.045-0.021,0.068c-0.165,0.608-0.359,1.245-0.573,1.898c-0.065,0.197-0.133,0.403-0.207,0.611  c-0.221,0.64-0.446,1.244-0.686,1.842l-0.182,0.457c-0.622,1.5-1.351,3.006-2.152,4.435l-0.167,0.296  c-0.359,0.624-0.72,1.221-1.112,1.833c-0.09,0.145-0.171,0.266-0.252,0.389c-1.362,2.08-2.918,4.041-4.634,5.85l-0.175,0.181  c-1.718,1.798-3.625,3.457-5.667,4.936l-0.73,0.518c-0.478,0.33-0.982,0.663-1.472,0.973l-0.181,0.113  c-0.204,0.129-0.404,0.257-0.611,0.381c-0.26,0.156-0.505,0.296-0.752,0.435l-0.151,0.085c-0.218,0.127-0.34,0.198-0.464,0.264  c-0.268,0.149-0.523,0.281-0.775,0.412l-0.268,0.137c-0.641,0.331-1.301,0.649-1.953,0.943l-0.15,0.067  c-0.338,0.149-0.706,0.308-1.074,0.462c-0.342,0.141-0.688,0.276-1.035,0.408l-0.228,0.089c-0.545,0.204-1.115,0.403-1.711,0.595  l-0.266,0.088l-0.2,0.062c-0.056,0.019-0.116,0.037-0.178,0.062l-0.652,0.185c-0.019,0.006-0.034,0.011-0.052,0.015l-1.372,0.37  c-0.124,0.032-0.252,0.063-0.379,0.092l-0.932,0.217c-0.983,0.21-1.775,0.358-2.559,0.478c-0.09,0.013-0.175,0.024-0.258,0.034  l-0.235,0.03c-0.71,0.1-1.483,0.186-2.275,0.252c-0.271,0.023-0.529,0.042-0.787,0.059c-1.033,0.067-1.902,0.099-2.742,0.099  c-0.848,0-1.729-0.031-2.775-0.101c-0.217-0.013-0.451-0.032-0.688-0.051c-0.499-0.042-0.951-0.096-1.403-0.151l-0.214-0.025  c-0.314-0.032-0.525-0.056-0.729-0.084c-0.205-0.024-0.336-0.041-0.467-0.061c-0.789-0.118-1.598-0.269-2.559-0.477  c-0.345-0.075-0.654-0.148-0.961-0.222c-0.487-0.116-0.988-0.25-1.489-0.393l-0.271-0.072c-0.355-0.102-0.751-0.219-1.14-0.342  c-0.534-0.171-1.049-0.352-1.562-0.54c-0.019-0.006-0.035-0.012-0.055-0.018c-0.107-0.036-0.207-0.073-0.309-0.111  c-0.4-0.152-0.813-0.316-1.222-0.484c-0.373-0.152-0.752-0.318-1.133-0.487c-0.728-0.326-1.444-0.672-2.118-1.021l-0.324-0.167  c-0.276-0.143-0.471-0.243-0.661-0.349c-0.435-0.238-0.867-0.489-1.295-0.744c-0.153-0.09-0.286-0.173-0.415-0.252  c-0.086-0.055-0.172-0.105-0.264-0.15l-0.043-0.021l-0.244-0.174c-0.039-0.027-0.078-0.054-0.117-0.078  c-10.363-6.633-17.256-17.391-18.91-29.52l-0.059-0.472c-0.08-0.635-0.145-1.301-0.202-2.035l-0.047-0.653  c-0.053-0.883-0.079-1.712-0.079-2.499c0-0.951,0.039-1.927,0.124-3.074l0.014-0.221c0.023-0.317,0.044-0.651,0.08-0.983  l0.024-0.226c0.073-0.665,0.148-1.238,0.229-1.776c0.03-0.188,0.065-0.389,0.101-0.587l0.025-0.153  c0.079-0.458,0.146-0.85,0.224-1.238c0.048-0.24,0.097-0.451,0.146-0.664l0.065-0.296c0.08-0.359,0.16-0.704,0.246-1.045  c0.054-0.21,0.12-0.45,0.187-0.69l0.07-0.252c0.088-0.322,0.175-0.634,0.27-0.945c0.084-0.274,0.164-0.515,0.243-0.758l0.042-0.128  c0.111-0.333,0.221-0.666,0.338-0.996c0.118-0.322,0.222-0.599,0.331-0.876c0.129-0.338,0.255-0.666,0.391-0.99  c0.112-0.276,0.24-0.57,0.37-0.865c0.135-0.312,0.277-0.623,0.425-0.938c0.134-0.282,0.265-0.557,0.401-0.829  c0.165-0.33,0.325-0.642,0.488-0.95c0.131-0.25,0.28-0.525,0.433-0.796c0.168-0.304,0.342-0.601,0.519-0.9  c0.148-0.252,0.307-0.522,0.475-0.788c0.175-0.285,0.369-0.58,0.563-0.876c0.164-0.253,0.334-0.51,0.508-0.763  c0.197-0.286,0.409-0.579,0.621-0.872c0.17-0.238,0.344-0.478,0.523-0.714c0.205-0.27,0.433-0.554,0.658-0.839l0.092-0.116  c0.146-0.183,0.293-0.37,0.447-0.548c0.23-0.283,0.461-0.544,0.693-0.805l0.161-0.187c0.14-0.161,0.281-0.318,0.422-0.477  c0.241-0.26,0.48-0.511,0.718-0.759l0.235-0.241c0.137-0.143,0.257-0.271,0.381-0.393c0.418-0.417,0.846-0.824,1.303-1.241  l0.215-0.197c0.475-0.429,0.922-0.815,1.355-1.175c0.157-0.128,0.295-0.237,0.433-0.346l0.088-0.067  c0.368-0.296,0.688-0.552,1.02-0.8c0.146-0.112,0.322-0.237,0.494-0.361l0.126-0.09c0.318-0.229,0.631-0.456,0.951-0.674  c0.174-0.119,0.361-0.242,0.548-0.362l0.146-0.097c0.312-0.205,0.631-0.411,0.955-0.611c0.182-0.112,0.383-0.23,0.586-0.349  l0.134-0.078c0.32-0.189,0.633-0.371,0.948-0.546c0.226-0.126,0.449-0.244,0.673-0.36l0.097-0.052  c0.336-0.175,0.66-0.345,0.988-0.506c0.262-0.129,0.529-0.254,0.799-0.381c0.328-0.154,0.662-0.305,1-0.451  c0.251-0.11,0.522-0.224,0.795-0.338c0.362-0.146,0.701-0.28,1.041-0.409c0.26-0.1,0.538-0.204,0.824-0.303  c0.357-0.128,0.704-0.243,1.052-0.357c0.271-0.089,0.558-0.181,0.846-0.268c0.352-0.107,0.716-0.209,1.08-0.308  c0.272-0.073,0.549-0.15,0.829-0.221c0.4-0.098,0.772-0.182,1.144-0.264c0.315-0.07,0.577-0.127,0.84-0.182  c0.364-0.072,0.717-0.131,1.072-0.194l0.282-0.047c0.215-0.037,0.426-0.074,0.636-0.107c0.395-0.058,0.778-0.104,1.16-0.149  l0.272-0.034c0.209-0.025,0.413-0.051,0.618-0.07c0.447-0.044,0.914-0.076,1.377-0.107l0.139-0.011  c0.182-0.014,0.347-0.025,0.514-0.036c0.699-0.033,1.415-0.051,2.113-0.051c0.689,0,1.381,0.018,2.056,0.051  c0.193,0.011,0.378,0.024,0.563,0.039l0.261,0.02c0.427,0.028,0.836,0.056,1.238,0.096c0.203,0.021,0.394,0.044,0.591,0.069  l0.437,0.054c0.338,0.04,0.669,0.08,1.001,0.13c0.247,0.036,0.492,0.079,0.738,0.123l0.149,0.025  c0.361,0.062,0.729,0.123,1.092,0.196c0.295,0.059,0.565,0.118,0.837,0.181c0.419,0.092,0.776,0.172,1.131,0.262  c0.262,0.066,0.533,0.137,0.803,0.211l0.131,0.034c0.323,0.089,0.665,0.186,1.006,0.29c0.284,0.084,0.578,0.179,0.873,0.275  c0.336,0.11,0.675,0.224,1.013,0.342c0.291,0.105,0.589,0.215,0.889,0.329c0.314,0.119,0.635,0.247,0.957,0.378  c0.298,0.122,0.585,0.242,0.871,0.368c0.312,0.135,0.636,0.282,0.959,0.435c0.262,0.122,0.54,0.253,0.817,0.39  c0.303,0.151,0.612,0.309,0.916,0.47c0.284,0.149,0.553,0.29,0.817,0.437c0.314,0.173,0.609,0.346,0.902,0.52l0.137,0.079  c0.215,0.127,0.438,0.255,0.656,0.391c0.305,0.189,0.597,0.379,0.886,0.569l0.135,0.087c0.194,0.124,0.404,0.26,0.611,0.402  c0.276,0.189,0.527,0.369,0.776,0.551l0.228,0.163c0.205,0.145,0.395,0.283,0.58,0.424c0.28,0.209,0.547,0.423,0.815,0.636  l0.218,0.172c0.172,0.134,0.335,0.262,0.493,0.394c0.377,0.311,0.738,0.628,1.092,0.946c0.244,0.215,0.496,0.443,0.744,0.677  c0.341,0.314,0.683,0.636,1.017,0.971c0.153,0.152,0.288,0.294,0.423,0.436l0.313,0.326c0.203,0.207,0.401,0.415,0.596,0.626  c0.165,0.182,0.314,0.351,0.465,0.522l0.239,0.275c0.205,0.233,0.396,0.454,0.587,0.679c0.155,0.186,0.315,0.39,0.478,0.593  l0.208,0.263c0.176,0.222,0.355,0.445,0.529,0.672c0.164,0.219,0.335,0.454,0.502,0.688c0.239,0.328,0.436,0.602,0.63,0.883  c0.183,0.268,0.355,0.53,0.527,0.793c0.166,0.255,0.347,0.533,0.524,0.815c0.181,0.295,0.338,0.556,0.492,0.818  c0.185,0.314,0.357,0.608,0.522,0.906c0.15,0.266,0.302,0.551,0.453,0.838c0.148,0.275,0.303,0.579,0.455,0.884  c0.145,0.296,0.287,0.584,0.423,0.876c0.135,0.291,0.277,0.6,0.413,0.912c0.132,0.301,0.262,0.599,0.384,0.9  c0.112,0.264,0.231,0.574,0.351,0.882c0.133,0.352,0.246,0.642,0.348,0.932c0.122,0.346,0.239,0.693,0.351,1.037  c0.105,0.317,0.195,0.584,0.276,0.856c0.097,0.319,0.185,0.631,0.271,0.944l0.075,0.274c0.065,0.232,0.131,0.461,0.189,0.695  c0.079,0.318,0.149,0.62,0.215,0.923l0.09,0.396c0.052,0.23,0.097,0.432,0.139,0.633c0.075,0.368,0.134,0.71,0.193,1.055  l0.063,0.357c0.036,0.193,0.067,0.374,0.097,0.558c0.086,0.573,0.159,1.137,0.229,1.769c0.002,0.022,0.006,0.041,0.006,0.062  c0.012,0.077,0.022,0.156,0.027,0.235c0.033,0.32,0.056,0.647,0.078,0.976l0.014,0.202  C453.35,388.245,453.39,389.213,453.39,390.165z"/>
<path style="fill:#ACB7C9;" d="M370.188,363.844l-0.08,0.102c-0.229,0.287-0.458,0.574-0.656,0.837  c-0.185,0.243-0.366,0.491-0.531,0.721c-0.215,0.297-0.428,0.593-0.627,0.884c-0.177,0.255-0.349,0.517-0.511,0.764  c-0.196,0.299-0.39,0.599-0.566,0.882c-0.168,0.271-0.334,0.545-0.482,0.802c-0.177,0.298-0.35,0.6-0.516,0.895  c-0.156,0.28-0.308,0.562-0.435,0.803c-0.165,0.311-0.327,0.623-0.499,0.967c-0.133,0.273-0.266,0.547-0.397,0.826  c-0.151,0.32-0.296,0.64-0.428,0.945c-0.135,0.303-0.265,0.609-0.374,0.875c-0.138,0.327-0.264,0.658-0.394,0.993  c-0.106,0.277-0.211,0.555-0.34,0.903c-0.115,0.328-0.224,0.658-0.333,0.982l-0.031,0.1c-0.085,0.254-0.17,0.51-0.259,0.804  c-0.095,0.314-0.185,0.632-0.273,0.949l-0.067,0.236c-0.069,0.253-0.138,0.505-0.188,0.707c-0.091,0.352-0.172,0.707-0.25,1.065  l-0.061,0.266c-0.052,0.22-0.099,0.439-0.153,0.7c-0.077,0.389-0.146,0.781-0.224,1.234l-0.02,0.117  c-0.041,0.214-0.077,0.429-0.11,0.638c-0.09,0.584-0.163,1.173-0.228,1.764l-0.03,0.251c-0.034,0.342-0.058,0.689-0.084,1.037  l-0.011,0.175c-0.084,1.153-0.122,2.136-0.122,3.098c0,0.794,0.024,1.624,0.079,2.551l0.046,0.622  c0.053,0.688,0.119,1.372,0.204,2.051l0.059,0.473c1.669,12.227,8.604,23.051,19.042,29.732l0.409,0.291l0.24,0.117  c0.141,0.09,0.287,0.178,0.446,0.275c0.434,0.257,0.865,0.508,1.304,0.749c0.202,0.112,0.406,0.218,0.673,0.355l0.313,0.163  c0.68,0.351,1.395,0.697,2.143,1.032c0.385,0.171,0.77,0.34,1.135,0.489c0.416,0.171,0.829,0.337,1.224,0.484  c0.123,0.047,0.251,0.091,0.382,0.137c0.512,0.185,1.031,0.368,1.581,0.544c0.389,0.122,0.783,0.239,1.183,0.353l0.221,0.059  c0.505,0.144,1.015,0.28,1.503,0.396c0.305,0.075,0.613,0.145,0.974,0.226c0.957,0.207,1.772,0.358,2.565,0.477  c0.153,0.024,0.306,0.043,0.49,0.065c0.22,0.031,0.447,0.056,0.736,0.086l0.187,0.022c0.46,0.057,0.922,0.111,1.405,0.151  c0.251,0.02,0.5,0.041,0.719,0.054c1.044,0.07,1.931,0.101,2.793,0.101c0.843,0,1.722-0.031,2.755-0.099  c0.259-0.018,0.516-0.036,0.796-0.061c0.406-0.033,0.806-0.072,1.191-0.116c-0.096-0.011-0.196-0.019-0.291-0.03l-0.187-0.022  c-0.288-0.03-0.514-0.055-0.738-0.086c-0.181-0.022-0.336-0.041-0.488-0.065c-0.794-0.118-1.611-0.27-2.565-0.477  c-0.361-0.08-0.668-0.151-0.974-0.226c-0.49-0.117-0.995-0.252-1.503-0.396l-0.221-0.059c-0.397-0.115-0.794-0.231-1.183-0.353  c-0.552-0.176-1.068-0.359-1.582-0.544c-0.131-0.045-0.257-0.089-0.382-0.137c-0.393-0.149-0.808-0.314-1.222-0.484  c-0.368-0.15-0.754-0.318-1.136-0.489c-0.749-0.335-1.462-0.679-2.142-1.032l-0.313-0.163c-0.27-0.137-0.475-0.243-0.674-0.355  c-0.437-0.241-0.873-0.492-1.304-0.749c-0.16-0.097-0.307-0.185-0.447-0.275l-0.238-0.117l-0.407-0.291  c-10.443-6.681-17.376-17.504-19.043-29.732l-0.061-0.473c-0.085-0.679-0.153-1.363-0.205-2.051l-0.043-0.622  c-0.056-0.928-0.084-1.758-0.084-2.551c0-0.962,0.04-1.946,0.124-3.098l0.011-0.175c0.023-0.348,0.048-0.695,0.084-1.037  l0.029-0.251c0.066-0.59,0.141-1.179,0.229-1.764c0.032-0.208,0.07-0.424,0.109-0.638l0.02-0.117  c0.078-0.454,0.145-0.847,0.224-1.234c0.053-0.26,0.102-0.479,0.154-0.7l0.061-0.266c0.077-0.358,0.161-0.711,0.25-1.065  c0.052-0.202,0.119-0.453,0.189-0.707l0.067-0.236c0.087-0.317,0.175-0.635,0.27-0.949c0.092-0.295,0.176-0.549,0.26-0.804  l0.032-0.1c0.107-0.324,0.217-0.654,0.334-0.982c0.126-0.348,0.231-0.625,0.338-0.903c0.131-0.336,0.259-0.666,0.394-0.993  c0.109-0.266,0.242-0.573,0.377-0.875c0.131-0.304,0.276-0.624,0.428-0.945c0.13-0.279,0.264-0.553,0.4-0.826  c0.17-0.342,0.33-0.656,0.494-0.967c0.127-0.241,0.28-0.523,0.438-0.803c0.161-0.296,0.338-0.597,0.512-0.895  c0.151-0.255,0.316-0.53,0.484-0.802c0.174-0.283,0.369-0.582,0.566-0.882c0.161-0.248,0.334-0.509,0.51-0.764  c0.2-0.291,0.413-0.587,0.627-0.884c0.166-0.23,0.345-0.479,0.532-0.721c0.198-0.262,0.428-0.549,0.656-0.837l0.079-0.102  c0.156-0.196,0.312-0.39,0.473-0.58c0.221-0.268,0.456-0.535,0.69-0.803l0.146-0.166c0.144-0.164,0.286-0.328,0.435-0.489  c0.253-0.276,0.493-0.527,0.733-0.776l0.215-0.222c0.129-0.135,0.262-0.272,0.395-0.405c0.435-0.437,0.871-0.851,1.315-1.256  l0.209-0.189c0.455-0.413,0.909-0.808,1.373-1.191c0.167-0.139,0.315-0.257,0.462-0.371l0.091-0.07  c0.334-0.269,0.661-0.529,0.995-0.781c0.15-0.113,0.336-0.248,0.524-0.381l0.112-0.08c0.301-0.219,0.618-0.446,0.938-0.667  c0.194-0.13,0.389-0.259,0.582-0.385l0.127-0.081c0.311-0.204,0.634-0.413,0.961-0.614c0.185-0.116,0.393-0.239,0.602-0.362  l0.12-0.069c0.325-0.192,0.639-0.374,0.957-0.551c0.226-0.124,0.454-0.247,0.682-0.367l0.097-0.051  c0.338-0.176,0.662-0.346,0.989-0.505c0.266-0.134,0.539-0.261,0.814-0.389c0.318-0.15,0.658-0.303,1.003-0.453  c0.243-0.108,0.517-0.222,0.794-0.337c0.374-0.152,0.71-0.284,1.047-0.414c0.264-0.1,0.548-0.204,0.833-0.307  c0.36-0.126,0.707-0.243,1.058-0.357c0.281-0.091,0.567-0.184,0.853-0.27c0.351-0.107,0.723-0.21,1.096-0.313  c0.258-0.07,0.536-0.146,0.816-0.218c0.422-0.105,0.793-0.188,1.164-0.271c0.317-0.07,0.58-0.127,0.843-0.181  c0.374-0.074,0.73-0.134,1.086-0.197l0.268-0.046c0.215-0.037,0.435-0.073,0.652-0.108c0.409-0.061,0.794-0.108,1.178-0.153  l0.249-0.03c0.036-0.004,0.074-0.009,0.112-0.013c-0.17-0.02-0.338-0.04-0.522-0.061c-0.409-0.04-0.824-0.069-1.236-0.097  l-0.231-0.018c-0.199-0.015-0.401-0.03-0.603-0.04c-1.349-0.067-2.744-0.072-4.214,0.001c-0.182,0.01-0.363,0.023-0.544,0.036  l-0.095,0.009c-0.47,0.03-0.94,0.064-1.391,0.108c-0.215,0.021-0.431,0.047-0.645,0.073l-0.248,0.03  c-0.385,0.045-0.771,0.093-1.18,0.153c-0.218,0.034-0.436,0.069-0.653,0.108l-0.265,0.046c-0.357,0.063-0.712,0.122-1.086,0.197  c-0.264,0.054-0.526,0.111-0.843,0.181c-0.372,0.083-0.744,0.166-1.164,0.271c-0.28,0.072-0.557,0.148-0.817,0.218  c-0.372,0.102-0.743,0.207-1.092,0.313c-0.29,0.086-0.576,0.178-0.856,0.27c-0.35,0.113-0.697,0.231-1.058,0.357  c-0.287,0.103-0.569,0.208-0.832,0.307c-0.339,0.13-0.674,0.262-1.049,0.414c-0.274,0.113-0.548,0.229-0.794,0.337  c-0.345,0.15-0.686,0.303-1.002,0.453c-0.275,0.128-0.548,0.254-0.815,0.389c-0.329,0.161-0.653,0.329-0.989,0.505l-0.096,0.051  c-0.229,0.12-0.458,0.242-0.683,0.367c-0.317,0.176-0.632,0.359-0.957,0.551l-0.119,0.069c-0.211,0.123-0.418,0.248-0.606,0.362  c-0.325,0.202-0.647,0.41-0.959,0.614l-0.126,0.082c-0.197,0.126-0.391,0.255-0.584,0.385c-0.32,0.221-0.636,0.448-0.939,0.667  l-0.112,0.08c-0.187,0.133-0.374,0.266-0.525,0.381c-0.334,0.252-0.661,0.512-0.993,0.781l-0.089,0.07  c-0.149,0.113-0.296,0.232-0.464,0.371c-0.465,0.383-0.918,0.778-1.375,1.191l-0.207,0.189c-0.446,0.405-0.881,0.819-1.316,1.256  c-0.133,0.133-0.264,0.27-0.395,0.405l-0.212,0.222c-0.241,0.25-0.482,0.5-0.737,0.776c-0.145,0.161-0.291,0.325-0.434,0.489  l-0.145,0.166c-0.236,0.266-0.469,0.534-0.691,0.803C370.499,363.455,370.344,363.649,370.188,363.844z"/>
<path style="fill:#C8D0E2;" d="M197.743,367.412h-17.552c-1.742-6.126-4.191-12.028-7.297-17.602l12.415-12.414  c1.168-1.167,1.168-3.06,0-4.229l-27.942-27.947c-0.56-0.562-1.322-0.878-2.115-0.878s-1.554,0.316-2.115,0.878l-12.419,12.417  c-5.574-3.108-11.473-5.556-17.597-7.297v-17.553c0-1.652-1.34-2.991-2.992-2.991H80.606c-1.651,0-2.992,1.339-2.992,2.991v17.553  c-6.121,1.741-12.023,4.188-17.596,7.297l-12.42-12.417c-0.56-0.562-1.321-0.878-2.113-0.878c-0.795,0-1.555,0.316-2.116,0.878  l-27.942,27.949c-1.169,1.169-1.169,3.062,0,4.228l12.415,12.417c-3.109,5.577-5.558,11.478-7.297,17.598H2.992  c-1.652,0-2.992,1.339-2.992,2.991v39.521c0,1.652,1.34,2.991,2.992,2.991h17.553c1.739,6.12,4.185,12.023,7.297,17.601  l-12.415,12.417c-1.169,1.168-1.169,3.06,0,4.228l27.942,27.945c0.585,0.584,1.351,0.876,2.116,0.876  c0.765,0,1.53-0.293,2.113-0.875l12.42-12.417c5.571,3.107,11.473,5.556,17.596,7.298v17.551c0,1.652,1.341,2.991,2.992,2.991  h39.522c1.652,0,2.992-1.339,2.992-2.991v-17.55c6.123-1.743,12.025-4.192,17.597-7.299l12.419,12.416  c0.582,0.582,1.349,0.875,2.114,0.875c0.765,0,1.531-0.293,2.114-0.875l27.944-27.944c1.168-1.166,1.168-3.06,0-4.228l-12.415-12.42  c3.106-5.57,5.555-11.471,7.298-17.598h17.551c1.652,0,2.992-1.339,2.992-2.991v-39.521  C200.735,368.751,199.395,367.412,197.743,367.412z M142.123,390.165c0,0.764-0.026,1.583-0.08,2.501  c-0.014,0.204-0.026,0.4-0.044,0.599l-0.014,0.164c-0.048,0.626-0.107,1.221-0.177,1.778c-0.025,0.231-0.058,0.484-0.092,0.739  c-0.094,0.664-0.203,1.319-0.325,1.98c-0.039,0.211-0.062,0.34-0.086,0.467c-0.157,0.786-0.346,1.599-0.559,2.403  c-0.041,0.156-0.075,0.279-0.111,0.401c-0.008,0.023-0.014,0.045-0.021,0.068c-0.165,0.608-0.359,1.245-0.573,1.898  c-0.065,0.197-0.133,0.403-0.207,0.611c-0.221,0.64-0.446,1.244-0.686,1.842l-0.182,0.457c-0.622,1.5-1.351,3.006-2.152,4.435  l-0.167,0.296c-0.359,0.624-0.72,1.221-1.112,1.833c-0.09,0.145-0.171,0.266-0.252,0.389c-1.362,2.08-2.918,4.041-4.634,5.85  l-0.175,0.181c-1.718,1.798-3.625,3.457-5.667,4.936l-0.73,0.518c-0.478,0.33-0.982,0.663-1.472,0.973l-0.181,0.113  c-0.204,0.129-0.404,0.257-0.611,0.381c-0.26,0.156-0.505,0.296-0.752,0.435l-0.151,0.085c-0.218,0.127-0.34,0.198-0.464,0.264  c-0.268,0.149-0.523,0.281-0.775,0.412l-0.268,0.137c-0.641,0.331-1.301,0.649-1.953,0.943l-0.15,0.067  c-0.338,0.149-0.706,0.308-1.074,0.462c-0.344,0.141-0.688,0.276-1.035,0.408l-0.228,0.089c-0.545,0.204-1.115,0.403-1.711,0.595  l-0.266,0.088l-0.2,0.062c-0.056,0.019-0.116,0.037-0.178,0.062l-0.652,0.185c-0.019,0.006-0.034,0.011-0.052,0.015l-1.372,0.37  c-0.124,0.032-0.252,0.063-0.379,0.092l-0.932,0.217c-0.982,0.21-1.775,0.358-2.559,0.478c-0.09,0.013-0.175,0.024-0.258,0.034  l-0.235,0.03c-0.71,0.1-1.483,0.186-2.276,0.252c-0.271,0.023-0.529,0.042-0.787,0.059c-1.033,0.067-1.902,0.099-2.742,0.099  c-0.848,0-1.729-0.031-2.775-0.101c-0.217-0.013-0.451-0.032-0.688-0.051c-0.499-0.042-0.951-0.096-1.403-0.151l-0.214-0.025  c-0.314-0.032-0.525-0.056-0.729-0.084c-0.205-0.024-0.336-0.041-0.467-0.061c-0.789-0.118-1.598-0.269-2.559-0.477  c-0.345-0.075-0.654-0.148-0.961-0.222c-0.487-0.116-0.987-0.25-1.489-0.393l-0.271-0.072c-0.355-0.102-0.751-0.219-1.14-0.342  c-0.534-0.171-1.049-0.352-1.562-0.54c-0.019-0.006-0.035-0.012-0.055-0.018c-0.107-0.036-0.207-0.073-0.309-0.111  c-0.4-0.152-0.813-0.316-1.222-0.484c-0.373-0.152-0.752-0.318-1.133-0.487c-0.728-0.326-1.444-0.672-2.118-1.021l-0.324-0.167  c-0.276-0.143-0.471-0.243-0.661-0.349c-0.435-0.238-0.867-0.489-1.295-0.744c-0.153-0.09-0.286-0.173-0.415-0.252  c-0.086-0.055-0.172-0.105-0.264-0.15l-0.043-0.021l-0.244-0.174c-0.039-0.027-0.078-0.054-0.117-0.078  c-10.363-6.633-17.256-17.391-18.91-29.52l-0.059-0.472c-0.08-0.635-0.145-1.301-0.201-2.035l-0.047-0.653  c-0.053-0.883-0.079-1.712-0.079-2.499c0-0.951,0.039-1.927,0.124-3.074l0.014-0.221c0.023-0.317,0.044-0.651,0.08-0.983  l0.025-0.226c0.073-0.665,0.148-1.238,0.229-1.776c0.03-0.188,0.065-0.389,0.101-0.587l0.025-0.153  c0.079-0.458,0.146-0.85,0.224-1.238c0.048-0.24,0.097-0.451,0.146-0.664l0.064-0.296c0.08-0.359,0.16-0.704,0.246-1.045  c0.054-0.21,0.12-0.45,0.187-0.69l0.072-0.252c0.088-0.322,0.175-0.634,0.27-0.945c0.084-0.274,0.164-0.515,0.243-0.758l0.042-0.128  c0.111-0.333,0.221-0.666,0.338-0.996c0.118-0.322,0.222-0.599,0.331-0.876c0.129-0.338,0.255-0.666,0.391-0.99  c0.112-0.276,0.24-0.57,0.37-0.865c0.135-0.312,0.277-0.623,0.425-0.938c0.134-0.282,0.265-0.557,0.401-0.829  c0.165-0.33,0.325-0.642,0.488-0.95c0.131-0.25,0.28-0.525,0.433-0.796c0.168-0.304,0.342-0.601,0.519-0.9  c0.148-0.252,0.307-0.522,0.475-0.788c0.175-0.285,0.369-0.58,0.563-0.876c0.163-0.253,0.334-0.51,0.508-0.763  c0.197-0.286,0.409-0.579,0.621-0.872c0.17-0.238,0.344-0.478,0.523-0.714c0.205-0.27,0.433-0.554,0.658-0.839l0.092-0.116  c0.146-0.183,0.293-0.37,0.447-0.548c0.23-0.283,0.461-0.544,0.693-0.805l0.161-0.187c0.14-0.161,0.281-0.318,0.422-0.477  c0.241-0.26,0.48-0.511,0.718-0.759l0.235-0.241c0.137-0.143,0.257-0.271,0.381-0.393c0.418-0.417,0.846-0.824,1.303-1.241  l0.215-0.197c0.475-0.429,0.922-0.815,1.355-1.175c0.157-0.128,0.295-0.237,0.433-0.346l0.088-0.067  c0.368-0.296,0.688-0.552,1.02-0.8c0.146-0.112,0.322-0.237,0.494-0.361l0.126-0.09c0.318-0.229,0.631-0.456,0.951-0.674  c0.174-0.119,0.361-0.242,0.548-0.362l0.146-0.097c0.312-0.205,0.631-0.411,0.955-0.611c0.182-0.112,0.383-0.23,0.586-0.349  l0.134-0.078c0.32-0.189,0.633-0.371,0.948-0.546c0.226-0.126,0.449-0.244,0.673-0.36l0.097-0.052  c0.336-0.175,0.66-0.345,0.987-0.506c0.262-0.129,0.529-0.254,0.799-0.381c0.328-0.154,0.662-0.305,1-0.451  c0.251-0.11,0.522-0.224,0.795-0.338c0.362-0.146,0.701-0.28,1.041-0.409c0.26-0.1,0.538-0.204,0.824-0.303  c0.357-0.128,0.704-0.243,1.052-0.357c0.271-0.089,0.558-0.181,0.846-0.268c0.352-0.107,0.716-0.209,1.08-0.308  c0.272-0.073,0.549-0.15,0.829-0.221c0.4-0.098,0.772-0.182,1.144-0.264c0.315-0.07,0.577-0.127,0.84-0.182  c0.364-0.072,0.717-0.131,1.072-0.194l0.282-0.047c0.215-0.037,0.426-0.074,0.636-0.107c0.395-0.058,0.778-0.104,1.161-0.149  l0.272-0.034c0.208-0.025,0.413-0.051,0.618-0.07c0.447-0.044,0.914-0.076,1.377-0.107l0.139-0.011  c0.182-0.014,0.346-0.025,0.514-0.036c0.699-0.033,1.415-0.051,2.113-0.051c0.689,0,1.381,0.018,2.056,0.051  c0.193,0.011,0.378,0.024,0.563,0.039l0.261,0.02c0.427,0.028,0.836,0.056,1.238,0.096c0.203,0.021,0.394,0.044,0.591,0.069  l0.438,0.054c0.338,0.04,0.669,0.08,1.001,0.13c0.247,0.036,0.492,0.079,0.738,0.123l0.149,0.025  c0.361,0.062,0.729,0.123,1.092,0.196c0.294,0.059,0.565,0.118,0.837,0.181c0.42,0.092,0.776,0.172,1.131,0.262  c0.262,0.066,0.533,0.137,0.803,0.211l0.131,0.034c0.323,0.089,0.665,0.186,1.006,0.29c0.284,0.084,0.578,0.179,0.873,0.275  c0.336,0.11,0.675,0.224,1.013,0.342c0.291,0.105,0.589,0.215,0.889,0.329c0.314,0.119,0.635,0.247,0.957,0.378  c0.298,0.122,0.585,0.242,0.871,0.368c0.312,0.135,0.636,0.282,0.959,0.435c0.262,0.122,0.54,0.253,0.817,0.39  c0.303,0.151,0.612,0.309,0.916,0.47c0.284,0.149,0.553,0.29,0.817,0.437c0.314,0.173,0.609,0.346,0.902,0.52l0.137,0.079  c0.215,0.127,0.438,0.255,0.656,0.391c0.305,0.189,0.597,0.379,0.886,0.569l0.135,0.087c0.194,0.124,0.404,0.26,0.611,0.402  c0.276,0.189,0.526,0.369,0.776,0.551l0.228,0.163c0.205,0.145,0.395,0.283,0.58,0.424c0.28,0.209,0.547,0.423,0.815,0.636  l0.218,0.172c0.172,0.134,0.335,0.262,0.493,0.394c0.377,0.311,0.738,0.628,1.092,0.946c0.244,0.215,0.495,0.443,0.744,0.677  c0.342,0.314,0.683,0.636,1.017,0.971c0.153,0.152,0.288,0.294,0.423,0.436l0.313,0.326c0.203,0.207,0.401,0.415,0.596,0.626  c0.165,0.182,0.314,0.351,0.465,0.522l0.239,0.275c0.205,0.233,0.396,0.454,0.587,0.679c0.155,0.186,0.315,0.39,0.478,0.593  l0.208,0.263c0.176,0.222,0.355,0.445,0.527,0.672c0.164,0.219,0.335,0.454,0.502,0.688c0.239,0.328,0.436,0.602,0.63,0.883  c0.183,0.268,0.355,0.53,0.527,0.793c0.166,0.255,0.347,0.533,0.524,0.815c0.181,0.295,0.338,0.556,0.492,0.818  c0.185,0.314,0.357,0.608,0.522,0.906c0.15,0.266,0.302,0.551,0.453,0.838c0.148,0.275,0.303,0.579,0.455,0.884  c0.145,0.296,0.287,0.584,0.423,0.876c0.135,0.291,0.277,0.6,0.413,0.912c0.132,0.301,0.262,0.599,0.384,0.9  c0.112,0.264,0.231,0.574,0.351,0.882c0.133,0.352,0.246,0.642,0.348,0.932c0.122,0.346,0.239,0.693,0.351,1.037  c0.105,0.317,0.195,0.584,0.276,0.856c0.097,0.319,0.185,0.631,0.271,0.944l0.075,0.274c0.065,0.232,0.131,0.461,0.189,0.695  c0.079,0.318,0.149,0.62,0.215,0.923l0.09,0.396c0.052,0.23,0.097,0.432,0.139,0.633c0.075,0.368,0.134,0.71,0.193,1.055  l0.063,0.357c0.036,0.193,0.067,0.374,0.097,0.558c0.086,0.573,0.16,1.137,0.229,1.769c0.002,0.022,0.006,0.041,0.006,0.062  c0.012,0.077,0.021,0.156,0.028,0.235c0.033,0.32,0.056,0.647,0.078,0.976l0.014,0.202  C142.085,388.245,142.123,389.213,142.123,390.165z"/>
<path style="fill:#ACB7C9;" d="M58.923,363.844l-0.08,0.102c-0.229,0.287-0.458,0.574-0.656,0.837  c-0.185,0.243-0.366,0.491-0.531,0.721c-0.215,0.297-0.428,0.593-0.627,0.884c-0.177,0.255-0.349,0.517-0.511,0.764  c-0.196,0.299-0.39,0.599-0.566,0.882c-0.168,0.271-0.334,0.545-0.482,0.802c-0.177,0.298-0.35,0.6-0.516,0.895  c-0.156,0.28-0.308,0.562-0.435,0.803c-0.165,0.311-0.327,0.623-0.499,0.967c-0.133,0.273-0.266,0.547-0.397,0.826  c-0.151,0.32-0.296,0.64-0.428,0.945c-0.135,0.303-0.265,0.609-0.374,0.875c-0.138,0.327-0.264,0.658-0.394,0.993  c-0.106,0.277-0.211,0.555-0.34,0.903c-0.115,0.328-0.224,0.658-0.333,0.982l-0.031,0.1c-0.085,0.254-0.17,0.51-0.259,0.804  c-0.095,0.314-0.185,0.632-0.273,0.949l-0.067,0.236c-0.069,0.253-0.138,0.505-0.188,0.707c-0.091,0.352-0.172,0.707-0.251,1.065  l-0.061,0.266c-0.052,0.22-0.099,0.439-0.153,0.7c-0.077,0.389-0.146,0.781-0.224,1.234l-0.02,0.117  c-0.041,0.214-0.077,0.429-0.11,0.638c-0.09,0.584-0.164,1.173-0.228,1.764l-0.03,0.251c-0.034,0.342-0.058,0.689-0.084,1.037  l-0.011,0.175c-0.084,1.153-0.122,2.136-0.122,3.098c0,0.794,0.025,1.624,0.079,2.551l0.046,0.622  c0.053,0.688,0.119,1.372,0.204,2.051l0.059,0.473c1.669,12.227,8.603,23.051,19.042,29.732l0.409,0.291l0.24,0.117  c0.141,0.09,0.287,0.178,0.446,0.275c0.434,0.257,0.865,0.508,1.304,0.749c0.201,0.112,0.406,0.218,0.673,0.355l0.313,0.163  c0.68,0.351,1.395,0.697,2.143,1.032c0.385,0.171,0.77,0.34,1.135,0.489c0.416,0.171,0.829,0.337,1.224,0.484  c0.123,0.047,0.251,0.091,0.382,0.137c0.512,0.185,1.031,0.368,1.581,0.544c0.388,0.122,0.783,0.239,1.183,0.353l0.221,0.059  c0.505,0.144,1.015,0.28,1.503,0.396c0.305,0.075,0.613,0.145,0.974,0.226c0.957,0.207,1.772,0.358,2.566,0.477  c0.153,0.024,0.306,0.043,0.49,0.065c0.22,0.031,0.447,0.056,0.736,0.086l0.187,0.022c0.46,0.057,0.922,0.111,1.405,0.151  c0.251,0.02,0.5,0.041,0.719,0.054c1.044,0.07,1.931,0.101,2.793,0.101c0.843,0,1.722-0.031,2.755-0.099  c0.259-0.018,0.516-0.036,0.796-0.061c0.406-0.033,0.806-0.072,1.191-0.116c-0.096-0.011-0.196-0.019-0.291-0.03l-0.187-0.022  c-0.288-0.03-0.514-0.055-0.738-0.086c-0.181-0.022-0.336-0.041-0.488-0.065c-0.794-0.118-1.611-0.27-2.566-0.477  c-0.361-0.08-0.668-0.151-0.974-0.226c-0.49-0.117-0.995-0.252-1.503-0.396l-0.221-0.059c-0.397-0.115-0.794-0.231-1.183-0.353  c-0.552-0.176-1.068-0.359-1.582-0.544c-0.131-0.045-0.257-0.089-0.382-0.137c-0.393-0.149-0.808-0.314-1.222-0.484  c-0.368-0.15-0.754-0.318-1.136-0.489c-0.749-0.335-1.462-0.679-2.142-1.032l-0.313-0.163c-0.27-0.137-0.475-0.243-0.674-0.355  c-0.436-0.241-0.873-0.492-1.304-0.749c-0.161-0.097-0.307-0.185-0.447-0.275l-0.238-0.117l-0.407-0.291  c-10.443-6.681-17.376-17.504-19.043-29.732l-0.061-0.473c-0.085-0.679-0.153-1.363-0.205-2.051l-0.043-0.622  c-0.056-0.928-0.084-1.758-0.084-2.551c0-0.962,0.04-1.946,0.124-3.098l0.011-0.175c0.023-0.348,0.048-0.695,0.084-1.037  l0.029-0.251c0.066-0.59,0.141-1.179,0.229-1.764c0.032-0.208,0.069-0.424,0.109-0.638l0.02-0.117  c0.078-0.454,0.145-0.847,0.224-1.234c0.053-0.26,0.102-0.479,0.154-0.7l0.061-0.266c0.077-0.358,0.161-0.711,0.25-1.065  c0.052-0.202,0.119-0.453,0.189-0.707l0.068-0.236c0.087-0.317,0.175-0.635,0.27-0.949c0.092-0.295,0.176-0.549,0.26-0.804  l0.032-0.1c0.107-0.324,0.217-0.654,0.334-0.982c0.126-0.348,0.231-0.625,0.338-0.903c0.131-0.336,0.259-0.666,0.393-0.993  c0.109-0.266,0.242-0.573,0.377-0.875c0.131-0.304,0.276-0.624,0.428-0.945c0.13-0.279,0.264-0.553,0.4-0.826  c0.17-0.342,0.33-0.656,0.494-0.967c0.127-0.241,0.28-0.523,0.438-0.803c0.162-0.296,0.338-0.597,0.512-0.895  c0.151-0.255,0.316-0.53,0.483-0.802c0.174-0.283,0.369-0.582,0.566-0.882c0.161-0.248,0.334-0.509,0.51-0.764  c0.2-0.291,0.413-0.587,0.627-0.884c0.166-0.23,0.345-0.479,0.532-0.721c0.198-0.262,0.428-0.549,0.656-0.837l0.079-0.102  c0.156-0.196,0.312-0.39,0.473-0.58c0.221-0.268,0.456-0.535,0.69-0.803l0.146-0.166c0.144-0.164,0.286-0.328,0.435-0.489  c0.253-0.276,0.493-0.527,0.733-0.776l0.215-0.222c0.129-0.135,0.262-0.272,0.395-0.405c0.435-0.437,0.871-0.851,1.315-1.256  l0.209-0.189c0.455-0.413,0.909-0.808,1.373-1.191c0.167-0.139,0.315-0.257,0.462-0.371l0.091-0.07  c0.334-0.269,0.661-0.529,0.995-0.781c0.15-0.113,0.336-0.248,0.524-0.381l0.113-0.08c0.301-0.219,0.618-0.446,0.938-0.667  c0.194-0.13,0.39-0.259,0.582-0.385l0.127-0.081c0.311-0.204,0.634-0.413,0.961-0.614c0.185-0.116,0.393-0.239,0.602-0.362  l0.12-0.069c0.325-0.192,0.639-0.374,0.957-0.551c0.226-0.124,0.454-0.247,0.682-0.367l0.097-0.051  c0.338-0.176,0.662-0.346,0.989-0.505c0.266-0.134,0.54-0.261,0.814-0.389c0.318-0.15,0.658-0.303,1.003-0.453  c0.243-0.108,0.518-0.222,0.794-0.337c0.374-0.152,0.71-0.284,1.047-0.414c0.264-0.1,0.548-0.204,0.834-0.307  c0.36-0.126,0.707-0.243,1.058-0.357c0.281-0.091,0.567-0.184,0.853-0.27c0.351-0.107,0.723-0.21,1.096-0.313  c0.258-0.07,0.536-0.146,0.816-0.218c0.422-0.105,0.793-0.188,1.164-0.271c0.317-0.07,0.58-0.127,0.843-0.181  c0.374-0.074,0.73-0.134,1.086-0.197l0.268-0.046c0.215-0.037,0.435-0.073,0.652-0.108c0.409-0.061,0.794-0.108,1.178-0.153  l0.249-0.03c0.036-0.004,0.074-0.009,0.112-0.013c-0.17-0.02-0.338-0.04-0.522-0.061c-0.409-0.04-0.824-0.069-1.237-0.097  l-0.231-0.018c-0.199-0.015-0.401-0.03-0.603-0.04c-1.349-0.067-2.744-0.072-4.214,0.001c-0.182,0.01-0.363,0.023-0.544,0.036  l-0.095,0.009c-0.47,0.03-0.94,0.064-1.391,0.108c-0.215,0.021-0.431,0.047-0.645,0.073l-0.248,0.03  c-0.385,0.045-0.771,0.093-1.18,0.153c-0.218,0.034-0.436,0.069-0.653,0.108l-0.265,0.046c-0.357,0.063-0.711,0.122-1.086,0.197  c-0.264,0.054-0.527,0.111-0.843,0.181c-0.372,0.083-0.744,0.166-1.164,0.271c-0.28,0.072-0.557,0.148-0.817,0.218  c-0.372,0.102-0.743,0.207-1.092,0.313c-0.29,0.086-0.576,0.178-0.856,0.27c-0.35,0.113-0.697,0.231-1.058,0.357  c-0.287,0.103-0.569,0.208-0.832,0.307c-0.339,0.13-0.674,0.262-1.049,0.414c-0.274,0.113-0.548,0.229-0.794,0.337  c-0.345,0.15-0.686,0.303-1.002,0.453c-0.275,0.128-0.548,0.254-0.815,0.389c-0.329,0.161-0.653,0.329-0.989,0.505l-0.096,0.051  c-0.229,0.12-0.458,0.242-0.683,0.367c-0.317,0.176-0.632,0.359-0.957,0.551l-0.119,0.069c-0.211,0.123-0.418,0.248-0.606,0.362  c-0.325,0.202-0.647,0.41-0.959,0.614l-0.126,0.082c-0.197,0.126-0.391,0.255-0.584,0.385c-0.32,0.221-0.636,0.448-0.94,0.667  l-0.111,0.08c-0.187,0.133-0.374,0.266-0.525,0.381c-0.334,0.252-0.661,0.512-0.993,0.781l-0.089,0.07  c-0.149,0.113-0.296,0.232-0.464,0.371c-0.465,0.383-0.918,0.778-1.375,1.191l-0.207,0.189c-0.446,0.405-0.881,0.819-1.316,1.256  c-0.133,0.133-0.264,0.27-0.395,0.405l-0.213,0.222c-0.241,0.25-0.482,0.5-0.737,0.776c-0.145,0.161-0.291,0.325-0.434,0.489  l-0.145,0.166c-0.236,0.266-0.469,0.534-0.691,0.803C59.233,363.455,59.078,363.649,58.923,363.844z"/>
<g>
</g>
<g>
</g>
<g>
</g>
<g>
</g>
<g>
</g>
<g>
</g>
<g>
</g>
<g>
</g>
<g>
</g>
<g>
</g>
<g>
</g>
<g>
</g>
<g>
</g>
<g>
</g>
<g>
</g>
</svg>
