<?xml version="1.0" encoding="iso-8859-1"?>
<!-- Generator: Adobe Illustrator 19.0.0, SVG Export Plug-In . SVG Version: 6.00 Build 0)  -->
<svg xmlns="http://www.w3.org/2000/svg" xmlns:xlink="http://www.w3.org/1999/xlink" version="1.1" id="Layer_1" x="0px" y="0px" viewBox="0 0 512 512" style="enable-background:new 0 0 512 512;" xml:space="preserve">
<g>
	<ellipse style="fill:#415A6B;" cx="395.733" cy="333.867" rx="49.067" ry="70.4"/>
	<ellipse style="fill:#415A6B;" cx="434.133" cy="337.067" rx="38.4" ry="70.4"/>
	<path style="fill:#415A6B;" d="M440.533,269.867c-21.333-1.067-39.467,44.8-41.6,102.4c-1.067,21.333,1.067,41.6,4.267,58.667   h62.933c4.267-16,7.467-35.2,8.533-55.467C476.8,318.933,460.8,270.933,440.533,269.867z"/>
</g>
<path style="fill:#F7B64C;" d="M512,512v-55.467c0-14.933-9.6-26.667-24.533-30.933c-12.8-3.2-25.6-5.333-39.467-7.467  c-8.533-1.067-13.867-7.467-13.867-16v-26.667h-51.2v26.667c0,8.533-6.4,14.933-13.867,16c-12.8,2.133-26.667,4.267-39.467,7.467  c-13.867,3.2-23.467,16-23.467,30.933V512H512z"/>
<path style="fill:#F3705A;" d="M512,512v-55.467c0-14.933-9.6-26.667-24.533-30.933c-12.8-3.2-25.6-5.333-39.467-7.467  c-1.067,0-2.133,0-3.2-1.067c-1.067,19.2-17.067,34.133-37.333,34.133c-19.2,0-35.2-14.933-37.333-34.133  c-1.067,0-2.133,0-3.2,1.067c-12.8,2.133-26.667,4.267-39.467,7.467C313.6,428.8,304,441.6,304,456.533V512H512z"/>
<path style="fill:#FFD15C;" d="M452.267,315.733c-9.6,0-20.267-5.333-28.8-11.733c-11.733,7.467-26.667,10.667-38.4,11.733  C377.6,316.8,371.2,316.8,363.733,316.8c-2.133,6.4-3.2,13.867-3.2,21.333c0,36.267,21.333,65.067,48,65.067  c26.667,0,48-28.8,48-65.067c0-7.467-1.067-16-3.2-22.4C453.333,315.733,452.267,315.733,452.267,315.733z"/>
<path style="fill:#415A6B;" d="M349.867,309.333l6.4,25.6c-1.067,9.6,2.133,19.2,5.333,27.733c4.267,8.533,9.6,17.067,13.867,24.533  c2.133,4.267,5.333,8.533,6.4,12.8C384,405.333,384,410.667,384,416c0,8.533-1.067,17.067-3.2,24.533s-6.4,16-13.867,20.267  c2.133-4.267,3.2-8.533,2.133-13.867c-2.133,7.467-7.467,13.867-13.867,16c-6.4,2.133-21.333,2.133-27.733-1.067  c8.533-3.2,16-9.6,20.267-17.067c4.267-7.467,8.533-17.067,6.4-25.6C341.333,372.267,344.533,326.4,349.867,309.333z"/>
<polygon style="fill:#F7B64C;" points="117.333,286.933 117.333,331.733 151.467,357.333 186.667,331.733 186.667,286.933 "/>
<path style="fill:#415A6B;" d="M123.733,150.4c0,11.733-8.533,20.267-17.067,24.533c-14.933,6.4-24.533,23.467-24.533,41.6l0,0  c0,55.467,32,96,70.4,96c30.933,0,57.6-25.6,67.2-64c4.267-17.067,4.267-35.2-1.067-52.267  C210.133,170.667,190.933,145.067,123.733,150.4z"/>
<g>
	<path style="fill:#FFD15C;" d="M140.8,196.267c-12.8,10.667-28.8,17.067-44.8,19.2c-3.2,10.667-5.333,21.333-5.333,34.133   c0,48,27.733,87.467,60.8,87.467s60.8-39.467,60.8-87.467c0-4.267,0-7.467-1.067-11.733C185.6,232.533,160,218.667,140.8,196.267z"/>
	
		<ellipse transform="matrix(0.2747 -0.9615 0.9615 0.2747 -104.8535 396.2104)" style="fill:#FFD15C;" cx="210.204" cy="267.608" rx="20.266" ry="12.8"/>
	
		<ellipse transform="matrix(0.2747 0.9615 -0.9615 0.2747 325.7669 104.2817)" style="fill:#FFD15C;" cx="93.76" cy="268.077" rx="20.266" ry="12.8"/>
</g>
<path style="fill:#CED6E0;" d="M304,512H0l10.667-87.467c2.133-12.8,9.6-24.533,21.333-32L105.6,352l46.933,5.333L199.467,352  L272,392.533c11.733,6.4,19.2,18.133,21.333,32L304,512z"/>
<polygon style="fill:#F05540;" points="163.2,388.267 172.8,378.667 151.467,357.333 131.2,378.667 140.8,388.267 "/>
<polygon style="fill:#F3705A;" points="140.8,388.267 131.2,474.667 151.467,496 172.8,474.667 163.2,388.267 "/>
<path style="fill:#344A5E;" d="M260.267,386.133l-53.333-29.867c-7.467,35.2-54.4,98.133-54.4,98.133s-45.867-62.933-54.4-98.133  L44.8,386.133c7.467,19.2,11.733,40.533,11.733,60.8V512h192v-65.067C247.467,426.667,251.733,405.333,260.267,386.133z"/>
<g>
	<polygon style="fill:#F3F3F3;" points="186.667,331.733 151.467,357.333 171.733,385.067 198.4,352  "/>
	<polygon style="fill:#F3F3F3;" points="117.333,331.733 151.467,357.333 132.267,385.067 105.6,352  "/>
</g>
<path style="fill:#8AD7F8;" d="M512,32v139.733c0,18.133-13.867,32-32,32H374.4l-96,62.933v-62.933h-4.267  c-18.133,0-32-13.867-32-32V32c0-18.133,13.867-32,32-32H480C498.133,0,512,13.867,512,32z"/>
<g>
	<circle style="fill:#FFFFFF;" cx="306.133" cy="102.4" r="22.4"/>
	<circle style="fill:#FFFFFF;" cx="376.533" cy="102.4" r="22.4"/>
	<circle style="fill:#FFFFFF;" cx="446.933" cy="102.4" r="22.4"/>
</g>
<g>
</g>
<g>
</g>
<g>
</g>
<g>
</g>
<g>
</g>
<g>
</g>
<g>
</g>
<g>
</g>
<g>
</g>
<g>
</g>
<g>
</g>
<g>
</g>
<g>
</g>
<g>
</g>
<g>
</g>
</svg>
