<?xml version="1.0" encoding="iso-8859-1"?>
<!-- Generator: Adobe Illustrator 19.0.0, SVG Export Plug-In . SVG Version: 6.00 Build 0)  -->
<svg xmlns="http://www.w3.org/2000/svg" xmlns:xlink="http://www.w3.org/1999/xlink" version="1.1" id="Layer_1" x="0px" y="0px" viewBox="0 0 512 512" style="enable-background:new 0 0 512 512;" xml:space="preserve">
<path style="fill:#F3F3F3;" d="M132.458,512L0.191,379.733V32c0-18.133,13.867-32,32-32h362.667c18.133,0,32,13.867,32,32v448  c0,18.133-13.867,32-32,32H132.458z"/>
<polygon style="fill:#8AD7F8;" points="132.458,512 0.191,379.733 132.458,379.733 "/>
<g>
	<rect x="53.525" y="202.667" style="fill:#CED6E0;" width="126.933" height="26.667"/>
	<rect x="53.525" y="130.133" style="fill:#CED6E0;" width="320" height="26.667"/>
	<rect x="53.525" y="57.6" style="fill:#CED6E0;" width="320" height="26.667"/>
</g>
<path style="fill:#415A6B;" d="M291.391,339.2c16,20.267,36.267,43.733,59.733,66.133c72.533,72.533,142.933,118.4,157.867,103.467  c14.933-14.933-30.933-85.333-103.467-157.867c-22.4-22.4-44.8-42.667-66.133-59.733L291.391,339.2z"/>
<path style="fill:#F3705A;" d="M340.458,292.267c-14.933-11.733-29.867-22.4-41.6-29.867l-36.267,36.267  c7.467,12.8,18.133,26.667,29.867,41.6L340.458,292.267z"/>
<polygon style="fill:#FFD15C;" points="290.325,263.467 275.391,231.467 213.525,213.333 232.725,275.2 264.725,290.133 "/>
<circle style="fill:#F7B64C;" cx="252.991" cy="252.8" r="5.333"/>
<path style="fill:#F05540;" d="M259.391,293.333l34.133-34.133c2.133-2.133,6.4-2.133,8.533,0c2.133,2.133,2.133,6.4,0,8.533  l-34.133,34.133c-2.133,2.133-6.4,2.133-8.533,0S257.258,295.467,259.391,293.333z"/>
<g>
</g>
<g>
</g>
<g>
</g>
<g>
</g>
<g>
</g>
<g>
</g>
<g>
</g>
<g>
</g>
<g>
</g>
<g>
</g>
<g>
</g>
<g>
</g>
<g>
</g>
<g>
</g>
<g>
</g>
</svg>
