<?xml version="1.0" encoding="iso-8859-1"?>
<!-- Generator: Adobe Illustrator 19.0.0, SVG Export Plug-In . SVG Version: 6.00 Build 0)  -->
<svg xmlns="http://www.w3.org/2000/svg" xmlns:xlink="http://www.w3.org/1999/xlink" version="1.1" id="Layer_1" x="0px" y="0px" viewBox="0 0 491.52 491.52" style="enable-background:new 0 0 491.52 491.52;" xml:space="preserve">
<rect x="57.446" style="fill:#EBF0F3;" width="376.627" height="491.52"/>
<rect x="75.341" y="17.874" style="fill:#27A2DB;" width="340.838" height="104.238"/>
<g>
	<path style="fill:#FFFFFF;" d="M115.82,110.312v-67.34H96.64v-13.3h55.041v13.3h-19.18v67.34H115.82z"/>
	<path style="fill:#FFFFFF;" d="M147.38,110.312l20.168-80.64h22.377l20.343,80.64h-17.96l-4.417-20.265h-19.18l-4.301,20.265   H147.38z M171.326,77.951h14.182l-7.149-33.827L171.326,77.951z"/>
	<path style="fill:#FFFFFF;" d="M212.477,110.312l21.912-41.158l-20.808-39.482h18.773l11.915,25.396l12.147-25.396h18.599   l-21.563,39.482l22.144,41.158h-18.832l-12.961-26.915l-13.194,26.915H212.477z"/>
	<path style="fill:#FFFFFF;" d="M284.257,110.312v-80.64h45.974v13.405h-29.41v18.641h27.375v12.777h-27.375v22.202h30.107v13.615   H284.257z"/>
	<path style="fill:#FFFFFF;" d="M341.507,81.983h16.681v5.184c0,4.957,0.688,8.335,2.063,10.132c1.376,1.798,3.749,2.697,7.12,2.697   c3.526,0,6.209-0.803,8.05-2.409c1.841-1.606,2.761-3.98,2.761-7.121c0-2.409-0.639-4.477-1.918-6.205   c-1.279-1.728-4.049-3.953-8.311-6.676l-8.544-5.446c-7.362-4.608-12.041-8.413-14.036-11.415   c-1.996-3.002-2.993-6.772-2.993-11.311c0-6.772,2.228-12.079,6.684-15.919c4.456-3.84,10.598-5.76,18.425-5.76   c8.292,0,14.647,2.042,19.064,6.127s6.626,9.949,6.626,17.594c0,0.768-0.01,1.361-0.029,1.78c-0.019,0.419-0.048,0.785-0.087,1.1   h-15.809v-2.147c0-4.364-0.794-7.488-2.383-9.373c-1.589-1.885-4.204-2.828-7.846-2.828c-2.674,0-4.776,0.707-6.306,2.121   c-1.531,1.414-2.296,3.377-2.296,5.891c0,3.386,3.429,7.139,10.288,11.258l0.174,0.105l9.183,5.603   c6.548,3.91,10.985,7.601,13.31,11.075c2.325,3.473,3.487,7.898,3.487,13.274c0,7.331-2.325,12.986-6.975,16.966   c-4.65,3.98-11.295,5.969-19.936,5.969c-8.99,0-15.683-2.095-20.081-6.284c-4.398-4.189-6.597-10.577-6.597-19.165   c0-0.908,0.078-2.409,0.233-4.503V81.983z"/>
</g>
<path style="fill:#E56353;" d="M109.69,316.414v-19.194c-11.896-0.707-20.85-4.662-26.862-11.864  c-6.012-7.202-9.018-17.587-9.018-31.155v-3.762h23.438c0,0.514-0.032,1.286-0.096,2.315c-0.064,1.029-0.096,1.768-0.096,2.218  c0,6.816,1.093,12.057,3.279,15.722c2.186,3.665,5.594,5.916,10.224,6.752v-43.79c-12.668-6.945-21.702-13.97-27.103-21.075  c-5.401-7.105-8.102-15.449-8.102-25.03c0-11.124,3.038-19.998,9.115-26.621c6.077-6.623,14.484-10.192,25.223-10.706V137.01h10.899  v13.407c11.06,0.129,19.484,3.215,25.271,9.26c5.787,6.044,8.681,14.822,8.681,26.332v2.797h-22.86v-2.026  c0-5.466-1.045-9.742-3.135-12.828c-2.09-3.087-5-4.726-8.729-4.919v39.45c14.661,7.588,24.676,14.822,30.045,21.702  c5.369,6.88,8.054,15.465,8.054,25.753c0,12.668-3.199,22.538-9.597,29.611s-15.642,10.964-27.73,11.671v19.194H109.69z   M110.558,203.177l-0.096-34.338c-3.73,0.322-6.591,1.849-8.584,4.582c-1.993,2.733-2.99,6.478-2.99,11.237  c0,3.601,0.948,6.929,2.845,9.983C103.629,197.695,106.571,200.541,110.558,203.177z M119.818,277.446  c4.308-0.772,7.588-2.652,9.838-5.643c2.251-2.99,3.376-6.961,3.376-11.912c0-4.887-0.965-8.906-2.894-12.057  c-1.929-3.151-5.369-6.302-10.321-9.452V277.446z"/>
<g>
	<rect x="183.992" y="154.624" style="fill:#D5D6DB;" width="232.192" height="13.404"/>
	<rect x="183.992" y="203.72" style="fill:#D5D6DB;" width="232.192" height="13.404"/>
	<rect x="183.992" y="252.826" style="fill:#D5D6DB;" width="232.192" height="13.404"/>
	<rect x="183.992" y="301.891" style="fill:#D5D6DB;" width="232.192" height="13.404"/>
	<rect x="73.81" y="350.976" style="fill:#D5D6DB;" width="342.374" height="13.404"/>
	<rect x="73.81" y="400.077" style="fill:#D5D6DB;" width="342.374" height="13.404"/>
	<rect x="73.81" y="449.178" style="fill:#D5D6DB;" width="226.253" height="13.404"/>
</g>
<g>
</g>
<g>
</g>
<g>
</g>
<g>
</g>
<g>
</g>
<g>
</g>
<g>
</g>
<g>
</g>
<g>
</g>
<g>
</g>
<g>
</g>
<g>
</g>
<g>
</g>
<g>
</g>
<g>
</g>
</svg>
