<?xml version="1.0" encoding="iso-8859-1"?>
<!-- Generator: Adobe Illustrator 19.0.0, SVG Export Plug-In . SVG Version: 6.00 Build 0)  -->
<svg xmlns="http://www.w3.org/2000/svg" xmlns:xlink="http://www.w3.org/1999/xlink" version="1.1" id="Layer_1" x="0px" y="0px" viewBox="0 0 512.001 512.001" style="enable-background:new 0 0 512.001 512.001;" xml:space="preserve">
<path style="fill:#D9D8DA;" d="M251.803,265.362c-4.563,0-8.26,3.697-8.26,8.26v78.751l-68.199,39.374  c-3.95,2.281-5.304,7.332-3.023,11.283c1.53,2.65,4.306,4.131,7.161,4.131c1.401,0,2.823-0.357,4.122-1.108l68.199-39.374  l68.199,39.374c1.302,0.751,2.721,1.108,4.122,1.108c2.855,0,5.631-1.481,7.161-4.131c2.281-3.95,0.927-9.002-3.023-11.283  l-68.199-39.374v-78.751C260.063,269.06,256.365,265.362,251.803,265.362z"/>
<path style="fill:#6598CB;" d="M512,461.646c0-0.668-0.019-1.324-0.042-1.976c-0.004-0.091-0.002-0.186-0.007-0.278  c-0.014-0.332-0.042-0.652-0.062-0.979c-0.025-0.415-0.046-0.836-0.082-1.244c-0.014-0.171-0.037-0.337-0.054-0.507  c-0.054-0.558-0.11-1.115-0.181-1.657c-0.007-0.046-0.015-0.091-0.022-0.139c-1.491-11.148-6.568-19.289-12.272-24.839  c-0.026-0.026-0.054-0.052-0.08-0.078c-0.298-0.289-0.598-0.573-0.9-0.848c-0.149-0.137-0.298-0.268-0.448-0.4  c-0.174-0.156-0.349-0.312-0.525-0.463c-0.291-0.25-0.58-0.49-0.872-0.727c-0.031-0.024-0.064-0.052-0.095-0.077  c-3.661-2.959-7.323-4.885-10.197-5.878c-0.012-0.004-0.025-0.01-0.037-0.014l-0.075-0.026c-0.01-0.003-0.02-0.007-0.028-0.01  l-37.698-15.116l-9.417,9.775l-9.632,9.382l-9.632-9.382l-9.417-9.775l-37.698,15.116c-0.009,0.003-0.019,0.007-0.028,0.01  l-0.075,0.026c-0.012,0.004-0.025,0.01-0.037,0.014c-2.873,0.992-6.536,2.918-10.197,5.878c-0.031,0.025-0.064,0.053-0.095,0.077  c-0.292,0.237-0.581,0.478-0.872,0.727c-0.175,0.151-0.35,0.306-0.525,0.463c-0.15,0.132-0.3,0.263-0.448,0.4  c-0.302,0.275-0.601,0.559-0.9,0.848c-0.026,0.028-0.054,0.052-0.08,0.078c-5.705,5.549-10.781,13.69-12.273,24.839  c-0.007,0.047-0.015,0.093-0.022,0.139c-0.07,0.543-0.127,1.099-0.181,1.657c-0.017,0.17-0.04,0.336-0.054,0.507  c-0.035,0.409-0.056,0.829-0.082,1.244c-0.02,0.327-0.047,0.648-0.062,0.979c-0.004,0.091-0.002,0.186-0.007,0.278  c-0.023,0.652-0.042,1.306-0.042,1.976v5.991h0.001v18.311c0.246,2.859,1.725,7.882,9.113,7.882h9.009h129.205h9.009  c7.389,0,8.869-5.023,9.113-7.882v-18.311h0.001v-5.991H512z"/>
<path style="fill:#4982AA;" d="M410.043,406.816l-37.503,14.687l-0.116,0.041c-9.61,3.427-25.874,15.73-25.874,40.102v24.302  c0.246,2.859,1.725,7.882,9.113,7.882h1.9v-32.186c0-24.372,16.265-36.674,25.874-40.102l0.116-0.041l29.647-11.611L410.043,406.816  z"/>
<path style="fill:#694B4B;" d="M431.215,269.268h-4.064c-27.761,0-50.343,22.586-50.343,50.344v6.715v6.284v10.619  c0,0,11.461-1.137,12.872-6.695l-0.008-0.006c0.483-0.525,0.889-1.126,1.174-1.796c6.501-0.197,36.871-0.433,54.214-21.378  c2.07,6.055,9.07,17.52,22.544,21.132c0.276,0.729,0.691,1.389,1.195,1.959l-0.112,0.089c1.409,5.558,12.871,6.695,12.871,6.695  v-10.661v-6.242v-6.715C481.559,291.853,458.974,269.268,431.215,269.268z M469.171,332.919l0.486-0.35h0.067l-0.79,0.584  L469.171,332.919z M468.925,333.07l0.055-0.171l0.167-0.33h0.069l-0.2,0.415L468.925,333.07z M467.589,334.102l-0.019-0.025  l1.241-0.898l-0.294,0.283l-0.907,0.671L467.589,334.102z M468.614,333.81l-0.389,0.804c-0.002-0.001-0.003-0.001-0.007-0.002  l-0.055-0.024c-0.009-0.004-0.02-0.01-0.026-0.015l0.634-1.259l0.017-0.017L468.614,333.81z"/>
<path style="fill:#563B3B;" d="M385.684,332.61v-6.284v-6.715c0-26.953,21.29-49.022,47.936-50.282  c-0.798-0.037-1.599-0.062-2.406-0.062h-4.064c-27.761,0-50.343,22.586-50.343,50.344v6.715v6.284v10.619  c0,0,5.065-0.504,8.875-2.474v-8.145H385.684z"/>
<path style="fill:#FBCB99;" d="M475.512,335.93c-1.925-0.601-4.019-0.25-5.643,0.945c-1.623,1.194-2.583,3.09-2.583,5.107v18.061  c0,2.015,0.958,3.911,2.581,5.105c1.104,0.812,2.422,1.235,3.758,1.235c0.631,0,1.268-0.095,1.884-0.287  c1.215-0.379,2.41-0.925,3.547-1.624c0.671-0.411,1.259-0.945,1.735-1.569c0.698-0.36,1.325-0.848,1.847-1.437  c2.562-2.896,3.972-6.608,3.972-10.454C486.611,344.06,482.151,337.999,475.512,335.93z"/>
<path style="fill:#EDBA89;" d="M388.683,336.875c-1.626-1.195-3.719-1.545-5.643-0.945c-6.639,2.07-11.099,8.131-11.099,15.081  c0,6.952,4.46,13.013,11.099,15.083c0.618,0.193,1.254,0.287,1.887,0.287c1.335,0,2.653-0.423,3.757-1.233  c1.624-1.194,2.583-3.09,2.583-5.105v-18.065C391.264,339.964,390.306,338.069,388.683,336.875z"/>
<path style="fill:#FBCB99;" d="M446.582,391.531c-1.247-1.193-2.917-1.818-4.655-1.755l-0.216,0.011  c-0.388,0.014-0.772,0.064-1.15,0.146c-2.449,0.545-4.943,0.822-7.411,0.822h-7.749c-2.542,0-5.109-0.293-7.631-0.871  c-1.883-0.434-3.858,0.018-5.367,1.219c-1.509,1.203-2.389,3.029-2.389,4.958v18.437l-0.004,0.063  c-0.1,1.829,0.595,3.612,1.905,4.891l12.735,12.405c1.185,1.154,2.773,1.797,4.423,1.797c0.034,0,0.069,0,0.102,0  c1.686-0.028,3.293-0.726,4.464-1.943l13.121-13.619c1.138-1.181,1.773-2.758,1.773-4.396v-17.587  C448.535,394.381,447.83,392.727,446.582,391.531z"/>
<path style="fill:#EDBA89;" d="M430.358,429.953l-12.735-12.404c-1.312-1.277-2.007-3.062-1.907-4.891l0.005-0.063v-18.438  c0-1.622,0.627-3.165,1.721-4.333c-1.782-0.311-3.617,0.144-5.038,1.276c-1.509,1.203-2.389,3.029-2.389,4.958v18.437l-0.004,0.063  c-0.1,1.829,0.595,3.612,1.905,4.891l12.735,12.405c1.185,1.154,2.773,1.797,4.423,1.797c0.034,0,0.069,0,0.102,0  c1.686-0.028,3.293-0.726,4.464-1.943l0.056-0.058C432.447,431.437,431.28,430.852,430.358,429.953z"/>
<path style="fill:#FBCB99;" d="M466.331,330.757c-0.767-0.286-1.49-0.619-2.196-0.974c-10.651-4.97-15.072-11.434-16.853-15.289  c-0.105-0.145-0.209-0.306-0.319-0.508c-1.273-2.34-3.257-0.859-3.257-0.859l-0.009-0.004c-9.946,7.63-20.81,12.091-29.842,14.686  c-3.516,1.039-6.885,1.791-9.933,2.336c-6.053,1.112-9.946,1.258-9.946,1.258c-3.316,0.24-5.884,3-5.884,6.324v25.863  c0,20.571,16.736,37.307,37.308,37.307h7.749c20.57,0,37.306-16.735,37.306-37.307v-26.894  C470.457,334.048,468.811,331.681,466.331,330.757z"/>
<path style="fill:#EDBA89;" d="M395.701,363.59v-25.864c0-3.324,2.568-6.084,5.883-6.324c0,0,3.892-0.145,9.947-1.258  c3.046-0.545,6.415-1.297,9.933-2.336c7.993-2.298,17.421-6.062,26.383-12.185c-0.211-0.395-0.399-0.773-0.564-1.13  c-0.105-0.145-0.209-0.306-0.319-0.508c-1.273-2.34-3.257-0.859-3.257-0.859l-0.009-0.004c-9.946,7.63-20.81,12.091-29.842,14.686  c-3.516,1.039-6.885,1.791-9.933,2.336c-6.053,1.112-9.946,1.258-9.946,1.258c-3.316,0.24-5.884,3-5.884,6.324v25.863  c0,20.571,16.736,37.307,37.308,37.307h7.603C412.437,400.897,395.701,384.16,395.701,363.59z"/>
<path style="fill:#6598CB;" d="M339.13,210.549c0-0.668-0.019-1.324-0.042-1.976c-0.004-0.091-0.002-0.186-0.007-0.278  c-0.014-0.331-0.042-0.652-0.062-0.979c-0.025-0.415-0.046-0.836-0.081-1.244c-0.014-0.171-0.037-0.337-0.054-0.507  c-0.054-0.558-0.11-1.115-0.181-1.657c-0.007-0.046-0.015-0.091-0.022-0.139c-1.491-11.148-6.568-19.289-12.273-24.839  c-0.026-0.026-0.054-0.052-0.08-0.078c-0.298-0.289-0.598-0.572-0.9-0.847c-0.149-0.137-0.3-0.268-0.448-0.4  c-0.174-0.156-0.349-0.312-0.525-0.463c-0.291-0.25-0.58-0.49-0.872-0.727c-0.031-0.024-0.064-0.052-0.095-0.077  c-3.661-2.958-7.323-4.884-10.197-5.878c-0.012-0.004-0.025-0.01-0.037-0.014l-0.075-0.026c-0.01-0.003-0.02-0.007-0.028-0.01  l-37.698-15.116l-9.417,9.775l-9.632,9.382l-9.632-9.382l-9.417-9.775l-37.698,15.116c-0.009,0.003-0.019,0.007-0.028,0.01  l-0.075,0.026c-0.012,0.004-0.025,0.01-0.037,0.014c-2.873,0.992-6.536,2.918-10.197,5.878c-0.031,0.026-0.064,0.053-0.095,0.077  c-0.292,0.237-0.581,0.478-0.872,0.727c-0.175,0.151-0.35,0.306-0.525,0.463c-0.15,0.132-0.301,0.263-0.448,0.4  c-0.302,0.275-0.601,0.559-0.9,0.847c-0.026,0.028-0.054,0.052-0.08,0.078c-5.705,5.549-10.781,13.69-12.273,24.839  c-0.007,0.047-0.015,0.093-0.022,0.139c-0.07,0.543-0.127,1.099-0.181,1.657c-0.017,0.17-0.04,0.336-0.054,0.507  c-0.035,0.409-0.056,0.829-0.082,1.244c-0.02,0.327-0.047,0.648-0.062,0.979c-0.004,0.091-0.002,0.186-0.007,0.278  c-0.023,0.652-0.042,1.307-0.042,1.976v5.991h0.001v18.311c0.246,2.859,1.725,7.882,9.113,7.882h9.009h129.205h9.009  c7.389,0,8.869-5.024,9.113-7.882V216.54h0.001L339.13,210.549L339.13,210.549z"/>
<path style="fill:#4982AA;" d="M237.171,155.719l-37.503,14.687l-0.116,0.041c-9.61,3.427-25.874,15.73-25.874,40.102v24.302  c0.246,2.859,1.725,7.882,9.113,7.882h1.9v-32.186c0-24.372,16.265-36.674,25.874-40.102l0.116-0.041l29.647-11.611L237.171,155.719  z"/>
<path style="fill:#694B4B;" d="M258.344,18.171h-4.063c-27.761,0-50.343,22.586-50.343,50.344v6.715v6.284v10.619  c0,0,11.461-1.137,12.872-6.695l-0.008-0.006c0.483-0.526,0.889-1.126,1.174-1.796c6.501-0.197,36.872-0.433,54.215-21.378  c2.07,6.055,9.07,17.52,22.544,21.131c0.276,0.729,0.691,1.389,1.195,1.959l-0.112,0.089c1.409,5.558,12.87,6.695,12.87,6.695  V81.471v-6.242v-6.715C308.687,40.756,286.103,18.171,258.344,18.171z M296.3,81.822l0.485-0.35h0.068l-0.79,0.584L296.3,81.822z   M296.053,81.973l0.055-0.171l0.167-0.33h0.069l-0.2,0.415L296.053,81.973z M294.717,83.005l-0.019-0.025l1.241-0.898l-0.294,0.283  l-0.907,0.671L294.717,83.005z M295.743,82.713l-0.39,0.804c-0.002-0.001-0.003-0.001-0.007-0.002l-0.055-0.024  c-0.009-0.004-0.02-0.01-0.028-0.015l0.634-1.26l0.017-0.017L295.743,82.713z"/>
<path style="fill:#563B3B;" d="M212.812,81.513v-6.284v-6.715c0-26.953,21.29-49.022,47.936-50.282  c-0.798-0.037-1.599-0.062-2.406-0.062h-4.063c-27.761,0-50.343,22.586-50.343,50.344v6.715v6.284v10.619  c0,0,5.065-0.504,8.875-2.474L212.812,81.513L212.812,81.513z"/>
<path style="fill:#FBCB99;" d="M302.641,84.833c-1.925-0.601-4.019-0.249-5.643,0.945c-1.623,1.194-2.583,3.09-2.583,5.107v18.061  c0,2.015,0.958,3.911,2.581,5.105c1.104,0.812,2.422,1.235,3.758,1.235c0.631,0,1.268-0.095,1.884-0.287  c1.215-0.379,2.41-0.925,3.547-1.624c0.671-0.411,1.259-0.945,1.735-1.569c0.698-0.36,1.325-0.848,1.847-1.437  c2.562-2.896,3.972-6.608,3.972-10.454C313.739,92.963,309.28,86.902,302.641,84.833z"/>
<path style="fill:#EDBA89;" d="M215.811,85.778c-1.624-1.195-3.719-1.545-5.643-0.945c-6.639,2.07-11.099,8.131-11.099,15.081  c0,6.951,4.46,13.013,11.099,15.083c0.618,0.193,1.254,0.287,1.887,0.287c1.335,0,2.653-0.423,3.757-1.233  c1.624-1.194,2.583-3.09,2.583-5.105V90.881C218.394,88.867,217.435,86.972,215.811,85.778z"/>
<path style="fill:#FBCB99;" d="M273.71,140.434c-1.247-1.193-2.917-1.818-4.655-1.755l-0.216,0.011  c-0.388,0.014-0.772,0.064-1.15,0.146c-2.449,0.545-4.943,0.822-7.411,0.822h-7.749c-2.542,0-5.109-0.293-7.631-0.871  c-1.883-0.434-3.858,0.018-5.367,1.219c-1.509,1.203-2.389,3.029-2.389,4.958v18.437l-0.004,0.063  c-0.1,1.829,0.595,3.612,1.905,4.891l12.735,12.405c1.185,1.154,2.773,1.797,4.423,1.797c0.034,0,0.069,0,0.102,0  c1.686-0.028,3.293-0.726,4.464-1.943l13.121-13.619c1.138-1.181,1.773-2.758,1.773-4.396v-17.587  C275.665,143.284,274.959,141.63,273.71,140.434z"/>
<path style="fill:#EDBA89;" d="M257.488,178.856l-12.735-12.404c-1.312-1.278-2.007-3.062-1.906-4.891l0.006-0.063v-18.438  c0-1.622,0.627-3.165,1.721-4.333c-1.782-0.311-3.617,0.144-5.038,1.276c-1.509,1.203-2.389,3.029-2.389,4.958V163.4l-0.004,0.063  c-0.1,1.829,0.595,3.612,1.905,4.891l12.735,12.405c1.185,1.154,2.773,1.797,4.423,1.797c0.034,0,0.069,0,0.102,0  c1.686-0.028,3.293-0.726,4.464-1.943l0.056-0.058C259.576,180.34,258.41,179.755,257.488,178.856z"/>
<path style="fill:#FBCB99;" d="M293.461,79.66c-0.767-0.286-1.49-0.619-2.196-0.974c-10.651-4.97-15.072-11.434-16.853-15.289  c-0.105-0.145-0.209-0.306-0.319-0.508c-1.273-2.34-3.257-0.859-3.257-0.859l-0.009-0.004c-9.946,7.63-20.81,12.09-29.842,14.686  c-3.516,1.039-6.885,1.791-9.932,2.336c-6.053,1.112-9.946,1.258-9.946,1.258c-3.316,0.24-5.884,3-5.884,6.324v25.863  c0,20.571,16.737,37.307,37.308,37.307h7.749c20.57,0,37.306-16.735,37.306-37.307V85.598  C297.585,82.951,295.94,80.584,293.461,79.66z"/>
<path style="fill:#EDBA89;" d="M222.83,112.493V86.629c0-3.324,2.568-6.084,5.883-6.324c0,0,3.892-0.145,9.947-1.258  c3.046-0.545,6.415-1.297,9.933-2.336c7.993-2.298,17.422-6.062,26.383-12.185c-0.211-0.395-0.399-0.773-0.564-1.13  c-0.105-0.145-0.209-0.306-0.319-0.508c-1.273-2.34-3.257-0.859-3.257-0.859l-0.009-0.004c-9.946,7.63-20.81,12.09-29.842,14.686  c-3.516,1.039-6.885,1.791-9.932,2.336c-6.053,1.112-9.946,1.258-9.946,1.258c-3.316,0.24-5.884,3-5.884,6.324v25.863  c0,20.571,16.736,37.307,37.308,37.307h7.603C239.565,149.8,222.83,133.063,222.83,112.493z"/>
<path style="fill:#6598CB;" d="M165.451,461.646c0-0.668-0.019-1.324-0.042-1.976c-0.004-0.091-0.002-0.186-0.007-0.278  c-0.014-0.332-0.042-0.652-0.062-0.979c-0.025-0.415-0.046-0.836-0.082-1.244c-0.014-0.171-0.037-0.337-0.054-0.507  c-0.054-0.558-0.11-1.115-0.181-1.657c-0.007-0.046-0.015-0.091-0.022-0.139c-1.491-11.148-6.568-19.289-12.272-24.839  c-0.026-0.026-0.054-0.052-0.08-0.078c-0.298-0.289-0.598-0.573-0.9-0.848c-0.149-0.137-0.3-0.268-0.448-0.4  c-0.174-0.156-0.349-0.312-0.525-0.463c-0.291-0.25-0.58-0.49-0.872-0.727c-0.031-0.024-0.064-0.052-0.095-0.077  c-3.661-2.959-7.324-4.885-10.197-5.878c-0.012-0.004-0.025-0.01-0.037-0.014l-0.075-0.026c-0.01-0.003-0.02-0.007-0.028-0.01  l-37.698-15.116l-9.417,9.775l-9.632,9.382l-9.632-9.382l-9.417-9.775L25.98,421.506c-0.009,0.003-0.019,0.007-0.028,0.01  l-0.075,0.026c-0.012,0.004-0.025,0.01-0.037,0.014c-2.873,0.992-6.536,2.918-10.197,5.878c-0.031,0.025-0.064,0.053-0.095,0.077  c-0.292,0.237-0.581,0.478-0.872,0.727c-0.175,0.151-0.35,0.306-0.525,0.463c-0.15,0.132-0.3,0.263-0.448,0.4  c-0.302,0.275-0.601,0.559-0.9,0.848c-0.026,0.028-0.054,0.052-0.08,0.078c-5.705,5.549-10.781,13.69-12.273,24.839  c-0.007,0.047-0.015,0.093-0.021,0.139c-0.072,0.543-0.127,1.099-0.181,1.657c-0.017,0.17-0.04,0.336-0.054,0.507  c-0.035,0.409-0.056,0.829-0.081,1.244c-0.02,0.327-0.047,0.648-0.062,0.979c-0.004,0.091-0.002,0.186-0.007,0.278  C0.019,460.322,0,460.976,0,461.646v5.991h0.001v18.311c0.246,2.859,1.725,7.882,9.113,7.882h9.009h129.205h9.009  c7.389,0,8.869-5.023,9.113-7.882v-18.311h0.001V461.646z"/>
<path style="fill:#4982AA;" d="M63.493,406.816l-37.502,14.686l-0.116,0.041c-9.61,3.427-25.874,15.73-25.874,40.102v24.302  c0.246,2.859,1.725,7.882,9.113,7.882h1.9v-32.186c0-24.372,16.265-36.674,25.874-40.102l0.117-0.041l29.647-11.611L63.493,406.816z  "/>
<path style="fill:#694B4B;" d="M84.666,269.268h-4.063c-27.761,0-50.343,22.586-50.343,50.344v6.715v6.284v10.619  c0,0,11.461-1.137,12.872-6.695l-0.008-0.006c0.483-0.525,0.889-1.126,1.174-1.796c6.501-0.197,36.872-0.433,54.215-21.378  c2.07,6.055,9.07,17.52,22.544,21.132c0.276,0.729,0.691,1.389,1.195,1.959l-0.112,0.089c1.409,5.558,12.871,6.695,12.871,6.695  v-10.661v-6.242v-6.715C135.01,291.853,112.425,269.268,84.666,269.268z M122.622,332.919l0.485-0.35h0.068l-0.79,0.584  L122.622,332.919z M122.376,333.07l0.055-0.171l0.167-0.33h0.069l-0.2,0.415L122.376,333.07z M121.04,334.102l-0.019-0.025  l1.241-0.898l-0.294,0.283l-0.907,0.671L121.04,334.102z M122.065,333.81l-0.39,0.804c-0.002-0.001-0.003-0.001-0.007-0.002  l-0.055-0.024c-0.009-0.004-0.02-0.01-0.026-0.015l0.634-1.259l0.017-0.017L122.065,333.81z"/>
<path style="fill:#563B3B;" d="M39.135,332.61v-6.284v-6.715c0-26.953,21.29-49.022,47.936-50.282  c-0.798-0.037-1.599-0.062-2.406-0.062h-4.063c-27.761,0-50.343,22.586-50.343,50.344v6.715v6.284v10.619  c0,0,5.065-0.504,8.875-2.474C39.135,340.756,39.135,332.61,39.135,332.61z"/>
<path style="fill:#FBCB99;" d="M128.964,335.93c-1.925-0.601-4.019-0.25-5.643,0.945c-1.623,1.194-2.583,3.09-2.583,5.107v18.061  c0,2.015,0.958,3.911,2.581,5.105c1.104,0.812,2.422,1.235,3.758,1.235c0.631,0,1.268-0.095,1.884-0.287  c1.216-0.379,2.41-0.925,3.547-1.624c0.671-0.411,1.26-0.945,1.735-1.569c0.698-0.36,1.325-0.848,1.847-1.437  c2.562-2.896,3.971-6.608,3.971-10.454C140.061,344.06,135.602,337.999,128.964,335.93z"/>
<path style="fill:#EDBA89;" d="M42.134,336.875c-1.626-1.195-3.719-1.545-5.643-0.945c-6.639,2.07-11.099,8.131-11.099,15.081  c0,6.952,4.46,13.013,11.099,15.083c0.618,0.193,1.254,0.287,1.887,0.287c1.335,0,2.653-0.423,3.757-1.233  c1.624-1.194,2.583-3.09,2.583-5.105v-18.065C44.716,339.964,43.757,338.069,42.134,336.875z"/>
<path style="fill:#FBCB99;" d="M100.032,391.531c-1.247-1.193-2.917-1.818-4.655-1.755l-0.216,0.011  c-0.388,0.014-0.772,0.064-1.15,0.146c-2.449,0.545-4.943,0.822-7.411,0.822h-7.748c-2.542,0-5.109-0.293-7.631-0.871  c-1.883-0.434-3.858,0.018-5.367,1.219c-1.509,1.203-2.389,3.029-2.389,4.958v18.437l-0.004,0.063  c-0.1,1.829,0.595,3.612,1.905,4.891l12.735,12.405c1.185,1.154,2.773,1.797,4.423,1.797c0.034,0,0.069,0,0.102,0  c1.686-0.028,3.293-0.726,4.464-1.943l13.121-13.619c1.138-1.181,1.773-2.758,1.773-4.396v-17.587  C101.986,394.381,101.281,392.727,100.032,391.531z"/>
<path style="fill:#EDBA89;" d="M83.81,429.953l-12.735-12.404c-1.312-1.277-2.007-3.062-1.906-4.891l0.006-0.063v-18.438  c0-1.622,0.627-3.165,1.721-4.333c-1.782-0.311-3.617,0.144-5.038,1.276c-1.509,1.203-2.389,3.029-2.389,4.958v18.437l-0.004,0.063  c-0.1,1.829,0.595,3.612,1.905,4.891l12.735,12.405c1.185,1.154,2.773,1.797,4.423,1.797c0.034,0,0.069,0,0.102,0  c1.686-0.028,3.293-0.726,4.464-1.943l0.056-0.058C85.898,431.437,84.732,430.852,83.81,429.953z"/>
<path style="fill:#FBCB99;" d="M119.783,330.757c-0.767-0.286-1.491-0.619-2.196-0.974c-10.651-4.97-15.072-11.434-16.853-15.289  c-0.105-0.145-0.209-0.306-0.319-0.508c-1.273-2.34-3.257-0.859-3.257-0.859l-0.009-0.004c-9.946,7.63-20.81,12.091-29.842,14.686  c-3.516,1.039-6.885,1.791-9.933,2.336c-6.053,1.112-9.946,1.258-9.946,1.258c-3.316,0.24-5.884,3-5.884,6.324v25.863  c0,20.571,16.736,37.307,37.308,37.307h7.749c20.57,0,37.306-16.735,37.306-37.307v-26.894  C123.908,334.048,122.262,331.681,119.783,330.757z"/>
<path style="fill:#EDBA89;" d="M49.152,363.59v-25.864c0-3.324,2.568-6.084,5.883-6.324c0,0,3.892-0.145,9.947-1.258  c3.046-0.545,6.415-1.297,9.932-2.336c7.993-2.298,17.422-6.062,26.383-12.185c-0.211-0.395-0.399-0.773-0.564-1.13  c-0.105-0.145-0.209-0.306-0.319-0.508c-1.273-2.34-3.257-0.859-3.257-0.859l-0.009-0.004c-9.946,7.63-20.81,12.091-29.842,14.686  c-3.516,1.039-6.885,1.791-9.933,2.336c-6.053,1.112-9.946,1.258-9.946,1.258c-3.316,0.24-5.884,3-5.884,6.324v25.863  c0,20.571,16.736,37.307,37.308,37.307h7.603C65.888,400.897,49.152,384.16,49.152,363.59z"/>
<g>
</g>
<g>
</g>
<g>
</g>
<g>
</g>
<g>
</g>
<g>
</g>
<g>
</g>
<g>
</g>
<g>
</g>
<g>
</g>
<g>
</g>
<g>
</g>
<g>
</g>
<g>
</g>
<g>
</g>
</svg>
