<?xml version="1.0" encoding="iso-8859-1"?>
<!-- Generator: Adobe Illustrator 19.0.0, SVG Export Plug-In . SVG Version: 6.00 Build 0)  -->
<svg xmlns="http://www.w3.org/2000/svg" xmlns:xlink="http://www.w3.org/1999/xlink" version="1.1" id="Layer_1" x="0px" y="0px" viewBox="0 0 512.005 512.005" style="enable-background:new 0 0 512.005 512.005;" xml:space="preserve">
<circle style="fill:#F7971D;" cx="387.471" cy="125.249" r="124.534"/>
<path style="fill:#F37521;" d="M276.948,125.244c0-66.423,52.007-120.698,117.526-124.333c-2.319-0.128-4.655-0.2-7.006-0.2  c-68.778,0-124.532,55.756-124.532,124.532s55.754,124.532,124.532,124.532c2.351,0,4.686-0.071,7.006-0.2  C328.956,245.941,276.948,191.669,276.948,125.244z"/>
<path style="fill:#6598CB;" d="M469.845,207.757c-6.912-17.409-22.145-23.426-24.242-24.182l-39.355-15.78l-18.503,19.208  l-19.252-18.752l-39.079,15.303l-0.088,0.032c-1.724,0.613-17.054,6.498-24.116,23.927l-3.322,8.296l6.704,5.546  c22.149,18.329,50.166,28.421,78.89,28.421c28.717,0,56.729-10.089,78.879-28.412l6.688-5.535L469.845,207.757z"/>
<path style="fill:#4982AA;" d="M320.055,221.353l-6.704-5.546l3.322-8.296c7.062-17.428,22.392-23.313,24.116-23.926l0.088-0.032  l30.903-12.101l-3.288-3.202l-39.079,15.303l-0.088,0.032c-1.724,0.613-17.054,6.498-24.116,23.926l-3.322,8.296l6.704,5.546  c22.149,18.329,50.166,28.421,78.89,28.421c1.915,0,3.825-0.049,5.733-0.137C366.513,248.39,340.727,238.46,320.055,221.353z"/>
<path style="fill:#694B4B;" d="M390.152,23.085h-4.629c-31.603,0-57.313,24.148-57.313,53.827v7.178v6.721v11.353  c0,0,13.048-1.217,14.654-7.159l-0.009-0.006c0.551-0.56,1.011-1.206,1.339-1.921c7.401-0.209,41.975-0.461,61.72-22.858  c2.358,6.475,10.329,18.732,25.667,22.593c0.313,0.78,0.783,1.485,1.356,2.097l-0.127,0.095c1.605,5.943,14.655,7.159,14.655,7.159  V90.766v-6.675v-7.178C447.466,47.232,421.753,23.085,390.152,23.085z M433.364,91.141l0.55-0.376h0.08l-0.9,0.626L433.364,91.141z   M433.083,91.302l0.063-0.18l0.193-0.356h0.079l-0.229,0.444L433.083,91.302z M431.562,92.406l-0.021-0.029l1.411-0.96l-0.333,0.303  l-1.034,0.717L431.562,92.406z M432.729,92.096l-0.444,0.86c-0.004-0.002-0.004-0.002-0.006-0.002l-0.063-0.028  c-0.01-0.002-0.022-0.012-0.03-0.016l0.723-1.348l0.018-0.018L432.729,92.096z"/>
<path style="fill:#563B3B;" d="M338.313,90.812v-6.721v-7.178c0-28.817,24.239-52.415,54.577-53.764  c-0.908-0.038-1.821-0.064-2.738-0.064h-4.629c-31.603,0-57.313,24.148-57.313,53.827v7.178v6.721v11.353  c0,0,5.766-0.539,10.102-2.645v-8.708H338.313z"/>
<path style="fill:#FBCB99;" d="M440.582,94.362c-2.193-0.642-4.576-0.269-6.426,1.006c-1.846,1.279-2.939,3.306-2.939,5.464v19.312  c0,2.153,1.089,4.182,2.939,5.456c1.256,0.867,2.758,1.32,4.279,1.32c0.718,0,1.442-0.101,2.146-0.307  c1.383-0.404,2.743-0.99,4.039-1.736c0.762-0.439,1.432-1.01,1.972-1.679c0.796-0.385,1.511-0.908,2.103-1.535  c2.917-3.096,4.525-7.064,4.525-11.178C453.22,103.055,448.141,96.572,440.582,94.362z"/>
<path style="fill:#EDBA89;" d="M341.728,95.368c-1.849-1.275-4.233-1.648-6.424-1.008c-7.557,2.213-12.636,8.695-12.636,16.125  c0,7.434,5.078,13.915,12.636,16.128c0.703,0.205,1.426,0.307,2.148,0.307c1.521,0,3.02-0.452,4.277-1.319  c1.85-1.275,2.942-3.304,2.942-5.457v-19.314C344.669,98.675,343.578,96.647,341.728,95.368z"/>
<path style="fill:#FBCB99;" d="M407.646,153.809c-1.42-1.276-3.322-1.944-5.301-1.877l-0.245,0.012  c-0.441,0.015-0.879,0.066-1.308,0.158c-2.79,0.581-5.629,0.876-8.436,0.876h-8.823c-2.894,0-5.815-0.311-8.688-0.929  c-2.146-0.464-4.393,0.016-6.109,1.303c-1.718,1.287-2.721,3.239-2.721,5.301v19.714l-0.004,0.068  c-0.115,1.954,0.676,3.862,2.168,5.228l14.501,13.263c1.348,1.236,3.153,1.921,5.034,1.921c0.037,0,0.079,0,0.115,0  c1.92-0.03,3.749-0.776,5.08-2.075l14.938-14.563c1.297-1.263,2.018-2.947,2.018-4.699v-18.805  C409.868,156.855,409.066,155.087,407.646,153.809z"/>
<path style="fill:#EDBA89;" d="M389.177,194.892l-14.502-13.261c-1.494-1.368-2.285-3.273-2.169-5.231l0.007-0.066v-19.716  c0-1.734,0.712-3.382,1.96-4.631c-2.03-0.332-4.116,0.155-5.736,1.365c-1.718,1.287-2.721,3.239-2.721,5.301v19.714l-0.004,0.068  c-0.115,1.954,0.676,3.862,2.168,5.228l14.501,13.263c1.348,1.236,3.153,1.921,5.034,1.921c0.037,0,0.079,0,0.115,0  c1.92-0.03,3.749-0.776,5.08-2.075l0.064-0.065C391.553,196.478,390.225,195.852,389.177,194.892z"/>
<path style="fill:#FBCB99;" d="M430.13,88.828c-0.874-0.304-1.698-0.66-2.5-1.04c-12.128-5.312-17.159-12.224-19.186-16.346  c-0.12-0.156-0.241-0.327-0.365-0.544c-1.45-2.501-3.707-0.918-3.707-0.918l-0.01-0.005c-11.324,8.156-23.692,12.928-33.977,15.703  c-4.002,1.111-7.837,1.916-11.305,2.498c-6.892,1.189-11.324,1.343-11.324,1.343c-3.773,0.258-6.698,3.208-6.698,6.763v27.653  c0,21.995,19.053,39.889,42.474,39.889h8.823c23.417,0,42.471-17.894,42.471-39.889V95.179  C434.828,92.35,432.953,89.817,430.13,88.828z"/>
<path style="fill:#EDBA89;" d="M349.72,123.935V96.282c0-3.555,2.922-6.505,6.696-6.763c0,0,4.432-0.154,11.324-1.343  c3.47-0.582,7.303-1.387,11.309-2.498c9.1-2.458,19.835-6.48,30.036-13.03c-0.242-0.419-0.453-0.824-0.641-1.206  c-0.12-0.156-0.241-0.327-0.365-0.544c-1.45-2.501-3.707-0.918-3.707-0.918l-0.01-0.005c-11.324,8.156-23.692,12.928-33.977,15.703  c-4.002,1.111-7.837,1.916-11.305,2.498c-6.892,1.189-11.324,1.343-11.324,1.343c-3.773,0.258-6.698,3.208-6.698,6.763v27.653  c0,21.995,19.053,39.889,42.474,39.889h8.655C368.772,163.824,349.72,145.929,349.72,123.935z"/>
<g>
	<path style="fill:#D9D8DA;" d="M74.118,239.451c-4.41,0-7.983-3.573-7.983-7.983V74.295c0-4.41,3.573-7.983,7.983-7.983h156.106   c4.41,0,7.983,3.573,7.983,7.983s-3.573,7.983-7.983,7.983H82.101v149.191C82.101,235.878,78.527,239.451,74.118,239.451z"/>
	<path style="fill:#D9D8DA;" d="M190.488,131.356c-2.044,0-4.086-0.779-5.646-2.337c-3.118-3.119-3.118-8.172,0-11.29l42.201-42.199   l-42.201-42.202c-3.118-3.119-3.118-8.172,0-11.29c3.119-3.117,8.172-3.117,11.29,0l47.846,47.846   c1.497,1.498,2.337,3.527,2.337,5.646c0,2.117-0.841,4.147-2.337,5.646l-47.846,47.845   C194.574,130.576,192.531,131.356,190.488,131.356z"/>
	<path style="fill:#D9D8DA;" d="M436.968,444.639H280.862c-4.41,0-7.983-3.573-7.983-7.983s3.573-7.983,7.983-7.983h148.123V279.482   c0-4.409,3.573-7.983,7.983-7.983s7.983,3.574,7.983,7.983v157.174C444.951,441.065,441.377,444.639,436.968,444.639z"/>
	<path style="fill:#D9D8DA;" d="M320.598,491.252c-2.043,0-4.086-0.779-5.646-2.337l-47.846-47.846   c-1.497-1.498-2.337-3.528-2.337-5.646c0-2.117,0.841-4.147,2.337-5.646l47.846-47.845c3.12-3.117,8.173-3.117,11.29,0   c3.118,3.119,3.118,8.172,0,11.29l-42.201,42.199l42.201,42.2c3.118,3.119,3.118,8.172,0,11.291   C324.684,490.472,322.64,491.252,320.598,491.252z"/>
</g>
<circle style="fill:#F7971D;" cx="124.534" cy="386.76" r="124.534"/>
<path style="fill:#F37521;" d="M14.012,386.761c0-66.423,52.007-120.697,117.526-124.332c-2.319-0.128-4.655-0.2-7.006-0.2  C55.754,262.229,0,317.986,0,386.761s55.754,124.532,124.532,124.532c2.351,0,4.687-0.071,7.006-0.2  C66.019,507.458,14.012,453.186,14.012,386.761z"/>
<path style="fill:#6598CB;" d="M206.909,469.274c-6.912-17.41-22.145-23.426-24.242-24.182l-39.355-15.78l-18.503,19.208  l-19.252-18.753l-39.079,15.303l-0.088,0.032c-1.724,0.613-17.054,6.498-24.116,23.928l-3.322,8.296l6.704,5.545  c22.149,18.329,50.166,28.421,78.89,28.421c28.717,0,56.729-10.089,78.879-28.412l6.688-5.535L206.909,469.274z"/>
<path style="fill:#4982AA;" d="M57.119,482.872l-6.704-5.545l3.322-8.296c7.062-17.428,22.392-23.313,24.116-23.928l0.088-0.032  l30.903-12.101l-3.288-3.202l-39.079,15.303l-0.088,0.032c-1.724,0.613-17.054,6.498-24.116,23.928l-3.322,8.296l6.704,5.545  c22.149,18.329,50.166,28.421,78.89,28.421c1.915,0,3.825-0.049,5.733-0.137C103.577,509.907,77.791,499.978,57.119,482.872z"/>
<path style="fill:#694B4B;" d="M127.216,284.602h-4.629c-31.603,0-57.313,24.147-57.313,53.827v7.178v6.721v11.353  c0,0,13.048-1.217,14.654-7.159l-0.009-0.006c0.551-0.56,1.011-1.206,1.339-1.921c7.401-0.209,41.976-0.461,61.72-22.858  c2.358,6.475,10.329,18.732,25.667,22.594c0.313,0.78,0.783,1.485,1.356,2.097l-0.127,0.095c1.605,5.943,14.655,7.159,14.655,7.159  v-11.399v-6.675v-7.178C184.529,308.75,158.817,284.602,127.216,284.602z M170.426,352.659l0.55-0.376h0.08l-0.9,0.626  L170.426,352.659z M170.145,352.819l0.063-0.18l0.193-0.355h0.079l-0.229,0.444L170.145,352.819z M168.626,353.924l-0.021-0.029  l1.411-0.96l-0.333,0.303l-1.034,0.717L168.626,353.924z M169.792,353.613l-0.444,0.86c-0.004-0.002-0.004-0.002-0.006-0.002  l-0.063-0.028c-0.01-0.002-0.022-0.012-0.03-0.016l0.723-1.348l0.018-0.018L169.792,353.613z"/>
<path style="fill:#563B3B;" d="M75.376,352.329v-6.721v-7.178c0-28.817,24.239-52.415,54.577-53.764  c-0.909-0.038-1.821-0.064-2.738-0.064h-4.629c-31.603,0-57.313,24.147-57.313,53.827v7.178v6.721v11.353  c0,0,5.766-0.539,10.102-2.645v-8.708H75.376z"/>
<path style="fill:#FBCB99;" d="M177.645,355.879c-2.193-0.641-4.576-0.269-6.426,1.006c-1.846,1.279-2.939,3.307-2.939,5.464v19.311  c0,2.153,1.089,4.182,2.939,5.456c1.256,0.867,2.758,1.32,4.279,1.32c0.718,0,1.442-0.101,2.146-0.307  c1.383-0.404,2.743-0.99,4.039-1.736c0.762-0.439,1.432-1.01,1.973-1.679c0.796-0.385,1.511-0.908,2.103-1.535  c2.917-3.096,4.525-7.064,4.525-11.178C190.283,364.572,185.205,358.09,177.645,355.879z"/>
<path style="fill:#EDBA89;" d="M78.791,356.885c-1.849-1.275-4.233-1.648-6.424-1.008c-7.557,2.213-12.636,8.695-12.636,16.124  c0,7.434,5.078,13.915,12.636,16.128c0.703,0.205,1.426,0.307,2.148,0.307c1.521,0,3.02-0.452,4.277-1.319  c1.85-1.275,2.942-3.304,2.942-5.457v-19.314C81.733,360.192,80.642,358.165,78.791,356.885z"/>
<path style="fill:#FBCB99;" d="M144.71,415.328c-1.42-1.276-3.322-1.944-5.301-1.877l-0.245,0.012  c-0.441,0.015-0.879,0.066-1.308,0.156c-2.79,0.581-5.629,0.876-8.436,0.876h-8.823c-2.894,0-5.815-0.311-8.688-0.929  c-2.146-0.465-4.393,0.016-6.109,1.303c-1.718,1.287-2.721,3.239-2.721,5.301v19.715l-0.004,0.068  c-0.115,1.954,0.676,3.862,2.168,5.228l14.501,13.263c1.348,1.236,3.153,1.921,5.034,1.921c0.037,0,0.079,0,0.115,0  c1.92-0.03,3.749-0.776,5.08-2.075l14.938-14.563c1.297-1.262,2.018-2.946,2.018-4.699v-18.805  C146.932,418.373,146.13,416.605,144.71,415.328z"/>
<path style="fill:#EDBA89;" d="M126.241,456.409l-14.502-13.261c-1.494-1.368-2.284-3.273-2.169-5.232l0.007-0.065v-19.716  c0-1.734,0.712-3.382,1.96-4.631c-2.03-0.331-4.116,0.156-5.736,1.365c-1.718,1.287-2.721,3.239-2.721,5.301v19.715l-0.004,0.068  c-0.115,1.954,0.676,3.862,2.168,5.228l14.501,13.263c1.348,1.236,3.153,1.921,5.034,1.921c0.037,0,0.079,0,0.115,0  c1.92-0.03,3.749-0.776,5.08-2.075l0.064-0.065C128.617,457.996,127.289,457.37,126.241,456.409z"/>
<path style="fill:#FBCB99;" d="M167.194,350.345c-0.874-0.304-1.698-0.66-2.5-1.04c-12.128-5.312-17.159-12.224-19.186-16.346  c-0.12-0.156-0.241-0.327-0.365-0.544c-1.45-2.501-3.707-0.917-3.707-0.917l-0.01-0.005c-11.324,8.156-23.692,12.929-33.977,15.703  c-4.002,1.111-7.837,1.916-11.305,2.498c-6.892,1.189-11.324,1.343-11.324,1.343c-3.773,0.258-6.698,3.208-6.698,6.762v27.653  c0,21.995,19.053,39.889,42.474,39.889h8.823c23.417,0,42.471-17.895,42.471-39.889v-28.756  C171.891,353.868,170.016,351.335,167.194,350.345z"/>
<path style="fill:#EDBA89;" d="M86.783,385.452v-27.653c0-3.555,2.922-6.505,6.696-6.762c0,0,4.432-0.154,11.324-1.343  c3.47-0.582,7.303-1.387,11.309-2.498c9.099-2.458,19.835-6.48,30.036-13.03c-0.242-0.418-0.453-0.824-0.641-1.206  c-0.12-0.156-0.241-0.327-0.365-0.544c-1.45-2.501-3.707-0.917-3.707-0.917l-0.01-0.005c-11.324,8.156-23.692,12.929-33.977,15.703  c-4.002,1.111-7.837,1.916-11.305,2.498c-6.892,1.189-11.324,1.343-11.324,1.343c-3.773,0.258-6.698,3.208-6.698,6.762v27.653  c0,21.995,19.053,39.889,42.474,39.889h8.655C105.836,425.341,86.783,407.447,86.783,385.452z"/>
<g>
</g>
<g>
</g>
<g>
</g>
<g>
</g>
<g>
</g>
<g>
</g>
<g>
</g>
<g>
</g>
<g>
</g>
<g>
</g>
<g>
</g>
<g>
</g>
<g>
</g>
<g>
</g>
<g>
</g>
</svg>
