<?xml version="1.0" encoding="iso-8859-1"?>
<!-- Generator: Adobe Illustrator 19.0.0, SVG Export Plug-In . SVG Version: 6.00 Build 0)  -->
<svg xmlns="http://www.w3.org/2000/svg" xmlns:xlink="http://www.w3.org/1999/xlink" version="1.1" id="Layer_1" x="0px" y="0px" viewBox="0 0 491.52 491.52" style="enable-background:new 0 0 491.52 491.52;" xml:space="preserve">
<path style="fill:#FCD462;" d="M487.275,196.187l4.219-95.316c0.321-7.249-2.419-14.3-7.549-19.43L410.079,7.574  c-5.13-5.13-12.181-7.87-19.43-7.549l-95.316,4.219c-6.457,0.286-12.573,2.979-17.143,7.549L7.575,282.409  c-10.099,10.099-10.099,26.473,0,36.572l164.964,164.964c10.099,10.099,26.473,10.099,36.572,0L479.726,213.33  C484.297,208.76,486.99,202.644,487.275,196.187z"/>
<g>
	<path style="fill:#DC8744;" d="M212.318,268.102l14.784-14.784c-16.61-20.386-25.859-44.349-27.745-71.891l32.405-2.834   c1.484,21.197,7.286,38.745,17.413,52.652l39.288-39.288c-11.611-18.9-17.99-34.863-19.137-47.896   c-1.147-13.025,4.119-25.377,15.799-37.058c11.675-11.675,25.31-17.148,40.906-16.405c15.592,0.747,30.273,7.325,44.046,19.745   l10.125-10.125l12.961,12.961l-10.328,10.328c13.768,15.931,22.746,35.034,26.934,57.31l-31.792,5.471   c-2.565-15.256-8.307-28.824-17.215-40.708l-38.073,38.073l0.609,0.609c11.878,19.167,18.359,35.51,19.44,49.007   c1.078,13.501-4.286,26.161-16.098,37.974c-11.816,11.816-25.622,17.249-41.417,16.299c-15.799-0.946-30.916-7.961-45.363-21.061   l-14.581,14.581L212.318,268.102z M328.763,123.102c-6.479-0.404-11.98,1.659-16.501,6.18c-4.525,4.525-6.755,9.448-6.688,14.782   c0.07,5.332,2.669,12.993,7.797,22.985l35.036-35.036C341.792,126.479,335.246,123.51,328.763,123.102z M282.59,254.536   c6.885,0.675,12.691-1.347,17.418-6.074c4.724-4.724,6.981-9.96,6.783-15.698c-0.207-5.736-3.139-13.87-8.811-24.401   l-36.452,36.452C268.685,250.62,275.703,253.862,282.59,254.536z"/>
	<ellipse style="fill:#DC8744;" cx="422.15" cy="69.362" rx="14.602" ry="14.602"/>
</g>
<rect x="42.371" y="285.687" transform="matrix(-0.7071 -0.7071 0.7071 -0.7071 17.5935 687.8312)" style="fill:#FFFFFF;" width="217.76" height="109.169"/>
<g>
	
		<rect x="42.569" y="273.508" transform="matrix(-0.7071 0.7071 -0.7071 -0.7071 342.099 408.9903)" style="fill:#64798A;" width="87.552" height="3.676"/>
	
		<rect x="51.231" y="282.152" transform="matrix(-0.7071 0.7071 -0.7071 -0.7071 362.9984 417.6204)" style="fill:#64798A;" width="87.552" height="3.676"/>
	
		<rect x="59.864" y="288.984" transform="matrix(-0.7071 0.7071 -0.7071 -0.7071 383.8672 426.3168)" style="fill:#64798A;" width="87.552" height="7.352"/>
	
		<rect x="68.557" y="297.664" transform="matrix(-0.7071 0.7071 -0.7071 -0.7071 404.8446 434.9882)" style="fill:#64798A;" width="87.552" height="7.352"/>
	
		<rect x="77.19" y="308.11" transform="matrix(-0.7071 0.7071 -0.7071 -0.7071 425.6683 443.5785)" style="fill:#64798A;" width="87.552" height="3.676"/>
	
		<rect x="85.846" y="316.798" transform="matrix(-0.7071 0.7071 -0.7071 -0.7071 446.5897 452.2893)" style="fill:#64798A;" width="87.552" height="3.676"/>
	
		<rect x="94.511" y="322.703" transform="matrix(-0.7071 0.7071 -0.7071 -0.7071 467.5014 460.9408)" style="fill:#64798A;" width="87.552" height="9.18"/>
	
		<rect x="103.149" y="334.073" transform="matrix(-0.7071 0.7071 -0.7071 -0.7071 488.3419 469.5453)" style="fill:#64798A;" width="87.552" height="3.676"/>
	
		<rect x="111.811" y="342.753" transform="matrix(-0.7071 0.7071 -0.7071 -0.7071 509.2668 478.2371)" style="fill:#64798A;" width="87.552" height="3.676"/>
	
		<rect x="120.477" y="350.5" transform="matrix(-0.7071 0.7071 -0.7071 -0.7071 530.1837 486.8938)" style="fill:#64798A;" width="87.552" height="5.504"/>
	
		<rect x="129.133" y="359.154" transform="matrix(-0.7071 0.7071 -0.7071 -0.7071 551.081 495.5464)" style="fill:#64798A;" width="87.552" height="5.504"/>
	
		<rect x="137.788" y="368.73" transform="matrix(-0.7071 0.7071 -0.7071 -0.7071 571.9805 504.2133)" style="fill:#64798A;" width="87.552" height="3.676"/>
	
		<rect x="146.441" y="377.382" transform="matrix(-0.7071 0.7071 -0.7071 -0.7071 592.8705 512.866)" style="fill:#64798A;" width="87.552" height="3.676"/>
	
		<rect x="155.092" y="385.117" transform="matrix(-0.7071 0.7071 -0.7071 -0.7071 613.7546 521.5132)" style="fill:#64798A;" width="87.552" height="5.504"/>
	
		<rect x="163.751" y="394.684" transform="matrix(-0.7071 0.7071 -0.7071 -0.7071 634.654 530.1626)" style="fill:#64798A;" width="87.552" height="3.676"/>
	
		<rect x="172.407" y="403.334" transform="matrix(-0.7071 0.7071 -0.7071 -0.7071 655.5477 538.8065)" style="fill:#64798A;" width="87.552" height="3.676"/>
</g>
<g>
</g>
<g>
</g>
<g>
</g>
<g>
</g>
<g>
</g>
<g>
</g>
<g>
</g>
<g>
</g>
<g>
</g>
<g>
</g>
<g>
</g>
<g>
</g>
<g>
</g>
<g>
</g>
<g>
</g>
</svg>
