<?xml version="1.0" encoding="iso-8859-1"?>
<!-- Generator: Adobe Illustrator 19.0.0, SVG Export Plug-In . SVG Version: 6.00 Build 0)  -->
<svg xmlns="http://www.w3.org/2000/svg" xmlns:xlink="http://www.w3.org/1999/xlink" version="1.1" id="Layer_1" x="0px" y="0px" viewBox="0 0 512.376 512.376" style="enable-background:new 0 0 512.376 512.376;" xml:space="preserve">
<path style="fill:#FFD15C;" d="M202.296,95.309c-2.133,14.933-1.067,72.533,20.267,74.667c0,0,7.467,1.067,8.533-2.133h1.067  c0,0,7.467,11.733,20.267,4.267c0,0,10.667,13.867,23.467,2.133c0,0,8.533,9.6,21.333-2.133c0,0-3.2-19.2,4.267-29.867  c0,0,1.067-8.533,3.2-10.667c0,0,10.667,9.6,11.733,16c0,0,5.333-4.267,2.133-20.267c0,0-2.133-8.533-2.133-13.867  c0,0-1.067-9.6-11.733-19.2c-9.6-10.667-28.8-25.6-28.8-25.6l-21.333-5.333C255.629,62.242,202.296,73.976,202.296,95.309z"/>
<path style="fill:#F7B64C;stroke:#F7B64C;stroke-width:0.1;stroke-miterlimit:10;" d="M307.896,103.842c0,0,1.067,18.133,0,22.4  c-1.067,4.267-1.067,4.267-1.067,4.267l2.133,2.133c0-1.067,0-1.067-1.067-2.133c1.067,0,1.067-1.067,2.133-1.067  c-1.067,0-2.133,0-2.133,0c1.067-1.067,3.2-2.133,4.267-3.2c-1.067,0-2.133,1.067-3.2,0c1.067,0,1.067,0,2.133,0  c-1.067,0-2.133,0-2.133-1.067l0,0l0,0c1.067,0,1.067-1.067,2.133-2.133c-1.067,0-1.067,0-2.133,0c0-3.2,0-6.4,0-8.533  s0-3.2,0-5.333C307.896,107.042,307.896,105.976,307.896,103.842"/>
<path style="fill:#FFD15C;" d="M317.496,135.842v11.733l-3.2,5.333l-7.467-9.6l-3.2-6.4c0,0,1.067-5.333,2.133-5.333  L317.496,135.842z"/>
<path style="fill:#415A6B;" d="M324.963,222.242H192.696v-68.267c0-12.8,10.667-23.467,23.467-23.467h84.267  c12.8,0,23.467,10.667,23.467,23.467v68.267H324.963z M217.229,200.909h83.2v-43.733c0-3.2-2.133-5.333-5.333-5.333h-72.533  c-3.2,0-5.333,2.133-5.333,5.333V200.909z"/>
<g>
	<path style="fill:#344A5E;" d="M218.296,130.509h-2.133c-5.333,0-10.667,2.133-14.933,5.333c2.133,13.867,6.4,28.8,16,35.2v-12.8   c0-1.067,0-2.133,1.067-3.2V130.509z"/>
	<path style="fill:#344A5E;" d="M306.829,130.509c-2.133,0-4.267-1.067-5.333-1.067l0,0v28.8l0,0v12.8c2.133-3.2,6.4-16,4.267-28.8   C304.696,139.042,305.763,133.709,306.829,130.509L306.829,130.509z"/>
</g>
<path style="fill:#FFD15C;" d="M304.696,130.509c-25.6-18.133-61.867-10.667-101.333,0c2.133,19.2,7.467,38.4,20.267,40.533  c0,0,7.467,1.067,8.533-2.133h1.067c0,0,7.467,11.733,20.267,4.267c0,0,10.667,13.867,23.467,2.133c0,0,8.533,9.6,21.333-2.133  c0,0,7.467-13.867,4.267-29.867C302.563,141.176,303.629,133.709,304.696,130.509z"/>
<g>
	<path style="fill:#F7B64C;" d="M253.496,165.709c0-4.267,0-10.667,0-10.667l0,0l0,0c0,0-1.067,6.4-1.067,10.667   c0,2.133,0,5.333,0,6.4l0,0h1.067c0,0,0,1.067,1.067,1.067l0,0C254.563,171.042,253.496,168.909,253.496,165.709z"/>
	<path style="fill:#F7B64C;" d="M276.963,165.709c-1.067-4.267-1.067-10.667-1.067-10.667l0,0c0,0,0,6.4,0,10.667   c0,3.2,1.067,6.4,1.067,8.533l0,0c0,0,1.067,0,1.067-1.067l1.067,1.067l0,0C278.029,174.242,276.963,169.976,276.963,165.709z"/>
	<path style="fill:#F7B64C;" d="M233.229,165.709c0-1.067,0-2.133,0-3.2c0-1.067,0-2.133,0-3.2c-1.067-6.4-1.067-7.467-1.067-7.467   l0,0l0,0l0,0c0,0,0,6.4,0,9.6v7.467l1.067-1.067h1.067c0,0,0,0,1.067,1.067l0,0C233.229,167.842,233.229,166.776,233.229,165.709z"/>
</g>
<path style="fill:#415A6B;" d="M442.296,191.309h-371.2c-18.133,0-32,13.867-32,32v257.067c0,18.133,13.867,32,32,32h371.2  c18.133,0,32-13.867,32-32V223.309C474.296,206.242,459.363,191.309,442.296,191.309z"/>
<path style="fill:#344A5E;" d="M452.963,191.309H60.429c-19.2,0-34.133,14.933-34.133,34.133v147.2h459.733v-147.2  C487.096,207.309,471.096,191.309,452.963,191.309z"/>
<rect x="210.38" y="5.819" transform="matrix(0.2023 0.9793 -0.9793 0.2023 248.1012 -188.4221)" style="fill:#F3F3F3;" width="58.665" height="104.531"/>
<rect x="199.021" y="-25.632" transform="matrix(0.2023 0.9793 -0.9793 0.2023 224.8564 -189.7207)" style="fill:#F3705A;" width="59.732" height="137.597"/>
<path style="fill:#E8EAE9;" d="M272.696,340.642h-32c-3.2,0-5.333,2.133-5.333,5.333v54.4c0,3.2,2.133,5.333,5.333,5.333h32  c3.2,0,5.333-2.133,5.333-5.333v-54.4C278.029,342.776,275.896,340.642,272.696,340.642z"/>
<g>
</g>
<g>
</g>
<g>
</g>
<g>
</g>
<g>
</g>
<g>
</g>
<g>
</g>
<g>
</g>
<g>
</g>
<g>
</g>
<g>
</g>
<g>
</g>
<g>
</g>
<g>
</g>
<g>
</g>
</svg>
