<?xml version="1.0" encoding="iso-8859-1"?>
<!-- Generator: Adobe Illustrator 19.0.0, SVG Export Plug-In . SVG Version: 6.00 Build 0)  -->
<svg xmlns="http://www.w3.org/2000/svg" xmlns:xlink="http://www.w3.org/1999/xlink" version="1.1" id="Layer_1" x="0px" y="0px" viewBox="0 0 512.001 512.001" style="enable-background:new 0 0 512.001 512.001;" xml:space="preserve">
<path style="fill:#6598CB;" d="M355.648,286.591l-11.923,12.376l-12.364-12.042l-35.584,13.939l14.225,14.842  c4.91,5.12,7.297,11.616,7.297,19.858v56.544l21.469-14.505c22.676-15.321,40.613-36.594,51.87-61.521l5.912-13.093L355.648,286.591  z"/>
<g>
	<path style="fill:#4982AA;" d="M329.408,383.928v-48.361c0-8.241-2.387-14.738-7.297-19.858l-14.225-14.842l26.947-10.556   l-3.474-3.384l-35.584,13.94l14.225,14.842c4.91,5.12,7.297,11.616,7.297,19.858v56.544L329.408,383.928z"/>
	<path style="fill:#4982AA;" d="M338.765,377.606c0.187-0.126,0.367-0.26,0.553-0.389v-41.651c0-22.542-15.417-33.687-23.794-36.537   l-7.443-2.985l-12.306,4.82L310,315.707c4.91,5.12,7.297,11.616,7.297,19.858v56.544L338.765,377.606z"/>
</g>
<path style="fill:#6598CB;" d="M180.453,286.591l-11.923,12.376l-12.364-12.042l-40.772,15.969l5.993,13.214  c11.233,24.751,29.157,45.954,51.835,61.316l21.483,14.553v-56.41c0-8.269,2.403-14.781,7.344-19.908l14.186-14.718L180.453,286.591  z"/>
<path style="fill:#4982AA;" d="M185.332,377.424c-22.678-15.361-40.602-36.564-51.835-61.316l-5.993-13.214l32.136-12.586  l-3.474-3.382l-40.772,15.969l5.993,13.214c11.233,24.751,29.157,45.954,51.835,61.316l21.483,14.553v-8.204L185.332,377.424z"/>
<path style="fill:#6598CB;" d="M304.513,299.03l-33.41-13.398l-14.921,15.484l-15.491-15.089l-33.205,13.004l-0.133,0.047  c-10.914,3.946-23.66,15.87-23.66,36.488v48.632l7.726,3.774c20.061,9.792,42.391,14.969,64.576,14.969h0.007  c22.547,0,44.264-4.993,64.552-14.84l7.753-3.763v-48.771C328.307,313.025,312.89,301.88,304.513,299.03z"/>
<g>
	<path style="fill:#4982AA;" d="M203.531,387.972l-7.726-3.774v-48.632c0-20.619,12.746-32.542,23.66-36.488l0.133-0.047   l24.567-9.62l-3.473-3.382l-33.205,13.004l-0.133,0.047c-10.914,3.946-23.66,15.87-23.66,36.488v48.632l7.726,3.774   c20.061,9.792,42.391,14.969,64.576,14.969h0.007c2.056,0,4.101-0.056,6.143-0.139   C241.939,401.961,221.794,396.889,203.531,387.972z"/>
	<path style="fill:#4982AA;" d="M242.459,394.683c-24.461-4.398-43.699-13.525-58.766-24.527v14.043l7.726,3.774   c20.061,9.792,42.391,14.969,64.576,14.969h0.007c3.258,0,6.496-0.117,9.718-0.325   C262.279,399.624,254.918,396.923,242.459,394.683z"/>
	<path style="fill:#4982AA;" d="M194.704,391.977v-14.795c-50.139-29.614-61.822-81.13-61.824-81.135l-17.488,6.85l5.993,13.214   c11.233,24.751,29.157,45.954,51.835,61.316L194.704,391.977z"/>
</g>
<path style="fill:#C8D0E2;" d="M504.372,197.974H459.6c-4.445-15.627-10.688-30.679-18.61-44.896l31.666-31.664  c2.977-2.975,2.977-7.804,0-10.787l-71.271-71.282c-1.429-1.432-3.374-2.238-5.394-2.238c-2.022,0-3.964,0.806-5.395,2.238  l-31.678,31.672c-14.215-7.929-29.262-14.171-44.884-18.612V7.632c0-4.213-3.418-7.628-7.63-7.628H205.598  c-4.208,0-7.63,3.416-7.63,7.628v44.772c-15.613,4.442-30.667,10.684-44.884,18.612l-31.679-31.672  c-1.429-1.432-3.37-2.238-5.39-2.238c-2.026,0-3.966,0.806-5.397,2.238l-71.269,71.285c-2.983,2.981-2.983,7.812,0,10.784  l31.666,31.673c-7.932,14.222-14.175,29.274-18.611,44.888H7.63c-4.213,0-7.63,3.416-7.63,7.627v100.803  c0,4.213,3.417,7.628,7.63,7.628h44.774c4.436,15.608,10.673,30.665,18.611,44.892L39.35,390.596c-2.983,2.979-2.983,7.807,0,10.784  l71.269,71.277c1.492,1.49,3.444,2.235,5.397,2.235c1.952,0,3.903-0.745,5.39-2.232l31.679-31.672  c14.21,7.928,29.264,14.171,44.884,18.613v44.768c0,4.213,3.421,7.627,7.63,7.627h100.806c4.213,0,7.63-3.414,7.63-7.627v-44.765  c15.615-4.446,30.668-10.689,44.884-18.617l31.678,31.669c1.489,1.488,3.44,2.234,5.393,2.234c1.951,0,3.903-0.748,5.392-2.234  l71.275-71.274c2.977-2.975,2.977-7.805,0-10.784l-31.666-31.679c7.922-14.206,14.165-29.258,18.611-44.888h44.77  c4.21,0,7.628-3.415,7.628-7.628V205.601C512,201.389,508.582,197.974,504.372,197.974z M255.999,395.316  c-76.941,0-139.315-62.373-139.315-139.316c0-76.944,62.373-139.317,139.315-139.317c76.944,0,139.317,62.373,139.317,139.317  C395.316,332.943,332.942,395.316,255.999,395.316z"/>
<path style="fill:#ACB7C9;" d="M98.892,254.397c0,71.616,54.667,130.454,124.546,137.084  c-61.234-14.663-106.755-69.753-106.755-135.481c0-73.674,57.189-133.983,129.593-138.974c-3.195-0.221-6.419-0.344-9.671-0.344  C160.55,116.684,98.892,178.34,98.892,254.397z"/>
<path style="fill:#694B4B;" d="M346.333,189.996h-2.999c-20.481,0-37.141,16.662-37.141,37.143v4.953v4.638v7.832  c0,0,8.457-0.837,9.496-4.937l-0.007-0.004c0.359-0.389,0.66-0.832,0.87-1.326c4.797-0.145,27.203-0.319,39.998-15.773  c1.529,4.466,6.692,12.924,16.632,15.591c0.205,0.535,0.508,1.023,0.882,1.445l-0.084,0.067c1.038,4.101,9.497,4.937,9.497,4.937  v-7.864v-4.607v-4.953C383.476,206.657,366.811,189.996,346.333,189.996z M374.337,236.955l0.357-0.257h0.052l-0.584,0.431  L374.337,236.955z M374.155,237.069l0.04-0.127l0.126-0.243h0.052l-0.15,0.306L374.155,237.069z M373.171,237.831l-0.015-0.022  l0.914-0.663l-0.212,0.21l-0.671,0.494L373.171,237.831z M373.927,237.615l-0.291,0.595c-0.002,0-0.002,0-0.003-0.002l-0.041-0.02  c-0.007-0.002-0.014-0.007-0.02-0.012l0.469-0.929l0.012-0.012L373.927,237.615z"/>
<path style="fill:#563B3B;" d="M312.741,236.73v-4.638v-4.953c0-19.887,15.708-36.169,35.367-37.096  c-0.589-0.029-1.183-0.047-1.776-0.047h-2.999c-20.481,0-37.141,16.662-37.141,37.143v4.953v4.638v7.832c0,0,3.737-0.37,6.549-1.823  V236.73z"/>
<path style="fill:#FBCB99;" d="M379.014,239.177c-1.417-0.44-2.964-0.182-4.165,0.697c-1.195,0.883-1.899,2.28-1.899,3.77v13.326  c0,1.486,0.705,2.884,1.899,3.765c0.817,0.598,1.788,0.912,2.776,0.912c0.465,0,0.936-0.069,1.39-0.212  c0.895-0.277,1.779-0.682,2.617-1.197c0.494-0.303,0.929-0.698,1.281-1.158c0.514-0.266,0.978-0.625,1.36-1.059  c1.892-2.137,2.931-4.876,2.931-7.714C387.203,245.178,383.913,240.705,379.014,239.177z"/>
<path style="fill:#EDBA89;" d="M314.954,239.873c-1.202-0.879-2.746-1.137-4.164-0.697c-4.898,1.528-8.186,6.001-8.186,11.127  c0,5.13,3.289,9.602,8.186,11.127c0.456,0.143,0.924,0.212,1.393,0.212c0.985,0,1.954-0.314,2.772-0.912  c1.198-0.881,1.903-2.278,1.903-3.765v-13.328C316.857,242.155,316.152,240.756,314.954,239.873z"/>
<path style="fill:#FBCB99;" d="M357.672,280.201c-0.921-0.883-2.155-1.343-3.434-1.296l-0.162,0.009  c-0.284,0.009-0.569,0.045-0.846,0.106c-1.809,0.403-3.647,0.607-5.469,0.607h-5.716c-1.875,0-3.77-0.215-5.631-0.641  c-1.388-0.322-2.845,0.013-3.958,0.898c-1.114,0.889-1.762,2.234-1.762,3.658v13.603l-0.003,0.046  c-0.076,1.349,0.437,2.666,1.405,3.608l9.396,9.154c0.874,0.85,2.044,1.323,3.264,1.323c0.023,0,0.05,0,0.075,0  c1.242-0.022,2.428-0.535,3.292-1.43l9.679-10.049c0.84-0.871,1.306-2.035,1.306-3.244v-12.975  C359.109,282.304,358.591,281.084,357.672,280.201z"/>
<path style="fill:#EDBA89;" d="M345.703,308.548l-9.396-9.151c-0.97-0.944-1.483-2.259-1.407-3.608l0.007-0.047v-13.604  c0-1.196,0.46-2.333,1.268-3.194c-1.318-0.229-2.669,0.107-3.718,0.94c-1.114,0.889-1.762,2.234-1.762,3.658v13.603l-0.003,0.046  c-0.076,1.349,0.437,2.666,1.405,3.608l9.396,9.154c0.874,0.85,2.044,1.323,3.264,1.323c0.023,0,0.05,0,0.075,0  c1.242-0.022,2.428-0.535,3.292-1.43l0.039-0.044C347.242,309.643,346.38,309.211,345.703,308.548z"/>
<path style="fill:#FBCB99;" d="M372.242,235.361c-0.568-0.211-1.099-0.456-1.62-0.717c-7.858-3.667-11.122-8.435-12.434-11.28  c-0.077-0.107-0.155-0.224-0.235-0.374c-0.94-1.728-2.405-0.634-2.405-0.634l-0.008-0.003c-7.337,5.63-15.353,8.921-22.016,10.837  c-2.595,0.766-5.079,1.321-7.328,1.721c-4.467,0.82-7.338,0.93-7.338,0.93c-2.447,0.176-4.343,2.212-4.343,4.664v19.081  c0,15.178,12.351,27.526,27.527,27.526h5.716c15.177,0,27.523-12.347,27.523-27.526v-19.841  C375.284,237.79,374.069,236.044,372.242,235.361z"/>
<path style="fill:#EDBA89;" d="M320.133,259.586v-19.081c0-2.453,1.893-4.488,4.339-4.664c0,0,2.87-0.11,7.335-0.93  c2.249-0.4,4.736-0.955,7.333-1.721c5.895-1.696,12.852-4.473,19.462-8.991c-0.155-0.292-0.294-0.57-0.415-0.834  c-0.077-0.107-0.155-0.224-0.235-0.374c-0.94-1.728-2.405-0.634-2.405-0.634l-0.008-0.003c-7.337,5.63-15.353,8.921-22.016,10.837  c-2.595,0.766-5.079,1.321-7.328,1.721c-4.467,0.82-7.338,0.93-7.338,0.93c-2.447,0.176-4.343,2.212-4.343,4.664v19.081  c0,15.178,12.351,27.526,27.527,27.526h5.609C332.48,287.111,320.133,274.764,320.133,259.586z"/>
<path style="fill:#694B4B;" d="M170.142,189.996h-2.999c-20.481,0-37.141,16.662-37.141,37.143v4.953v4.638v7.832  c0,0,8.457-0.837,9.496-4.937l-0.007-0.004c0.359-0.389,0.66-0.832,0.87-1.326c4.796-0.145,27.203-0.319,39.998-15.773  c1.529,4.466,6.692,12.924,16.632,15.591c0.205,0.535,0.508,1.023,0.882,1.445l-0.084,0.067c1.038,4.101,9.497,4.937,9.497,4.937  v-7.864v-4.607v-4.953C207.287,206.657,190.621,189.996,170.142,189.996z M198.147,236.955l0.357-0.257h0.052l-0.584,0.431  L198.147,236.955z M197.965,237.069l0.04-0.127l0.126-0.243h0.052l-0.15,0.306L197.965,237.069z M196.981,237.831l-0.015-0.022  l0.914-0.663l-0.212,0.21l-0.671,0.494L196.981,237.831z M197.738,237.615l-0.291,0.595c-0.002,0-0.002,0-0.003-0.002l-0.041-0.02  c-0.007-0.002-0.014-0.007-0.02-0.012l0.469-0.929l0.012-0.012L197.738,237.615z"/>
<path style="fill:#563B3B;" d="M136.552,236.73v-4.638v-4.953c0-19.887,15.708-36.169,35.367-37.096  c-0.589-0.029-1.183-0.047-1.776-0.047h-2.999c-20.481,0-37.141,16.662-37.141,37.143v4.953v4.638v7.832c0,0,3.737-0.37,6.549-1.823  C136.552,242.738,136.552,236.73,136.552,236.73z"/>
<path style="fill:#FBCB99;" d="M202.824,239.177c-1.417-0.44-2.964-0.182-4.165,0.697c-1.195,0.883-1.9,2.28-1.9,3.77v13.326  c0,1.486,0.705,2.884,1.9,3.765c0.817,0.598,1.788,0.912,2.776,0.912c0.465,0,0.936-0.069,1.39-0.212  c0.895-0.277,1.779-0.682,2.617-1.197c0.494-0.303,0.929-0.698,1.281-1.158c0.514-0.266,0.978-0.625,1.36-1.059  c1.892-2.137,2.931-4.876,2.931-7.714C211.014,245.178,207.723,240.705,202.824,239.177z"/>
<path style="fill:#EDBA89;" d="M138.764,239.873c-1.202-0.879-2.746-1.137-4.164-0.697c-4.898,1.528-8.188,6.001-8.188,11.127  c0,5.13,3.289,9.602,8.188,11.127c0.456,0.143,0.924,0.212,1.393,0.212c0.984,0,1.954-0.314,2.772-0.912  c1.198-0.881,1.904-2.278,1.904-3.765v-13.328C140.668,242.155,139.962,240.756,138.764,239.873z"/>
<path style="fill:#FBCB99;" d="M181.482,280.201c-0.92-0.883-2.155-1.343-3.434-1.296l-0.162,0.009  c-0.284,0.009-0.569,0.045-0.847,0.106c-1.809,0.403-3.646,0.607-5.469,0.607h-5.716c-1.875,0-3.77-0.215-5.631-0.641  c-1.388-0.322-2.845,0.013-3.958,0.898c-1.114,0.889-1.762,2.234-1.762,3.658v13.603l-0.003,0.046  c-0.076,1.349,0.437,2.666,1.405,3.608l9.396,9.154c0.874,0.85,2.045,1.323,3.264,1.323c0.023,0,0.05,0,0.075,0  c1.242-0.022,2.428-0.535,3.292-1.43l9.679-10.049c0.84-0.871,1.306-2.035,1.306-3.244v-12.975  C182.92,282.304,182.4,281.084,181.482,280.201z"/>
<path style="fill:#EDBA89;" d="M169.512,308.548l-9.396-9.151c-0.97-0.944-1.483-2.259-1.407-3.608l0.007-0.047v-13.604  c0-1.196,0.46-2.333,1.268-3.194c-1.318-0.229-2.669,0.107-3.718,0.94c-1.114,0.889-1.762,2.234-1.762,3.658v13.603l-0.003,0.046  c-0.076,1.349,0.437,2.666,1.405,3.608l9.396,9.154c0.874,0.85,2.045,1.323,3.264,1.323c0.023,0,0.05,0,0.075,0  c1.242-0.022,2.428-0.535,3.292-1.43l0.039-0.044C171.053,309.643,170.19,309.211,169.512,308.548z"/>
<path style="fill:#FBCB99;" d="M196.052,235.361c-0.568-0.211-1.099-0.456-1.62-0.717c-7.858-3.667-11.123-8.435-12.434-11.28  c-0.077-0.107-0.155-0.224-0.235-0.374c-0.94-1.728-2.405-0.634-2.405-0.634l-0.008-0.003c-7.337,5.63-15.353,8.921-22.016,10.837  c-2.596,0.766-5.079,1.321-7.328,1.721c-4.467,0.82-7.338,0.93-7.338,0.93c-2.447,0.176-4.343,2.212-4.343,4.664v19.081  c0,15.178,12.351,27.526,27.527,27.526h5.716c15.177,0,27.523-12.347,27.523-27.526v-19.841  C199.094,237.79,197.88,236.044,196.052,235.361z"/>
<path style="fill:#EDBA89;" d="M143.942,259.586v-19.081c0-2.453,1.893-4.488,4.339-4.664c0,0,2.87-0.11,7.335-0.93  c2.249-0.4,4.736-0.955,7.333-1.721c5.895-1.696,12.852-4.473,19.462-8.991c-0.155-0.292-0.295-0.57-0.415-0.834  c-0.077-0.107-0.155-0.224-0.235-0.374c-0.94-1.728-2.405-0.634-2.405-0.634l-0.008-0.003c-7.338,5.63-15.353,8.921-22.016,10.837  c-2.596,0.766-5.079,1.321-7.328,1.721c-4.467,0.82-7.338,0.93-7.338,0.93c-2.447,0.176-4.343,2.212-4.343,4.664v19.081  c0,15.178,12.351,27.526,27.527,27.526h5.609C156.29,287.111,143.942,274.764,143.942,259.586z"/>
<path style="fill:#694B4B;" d="M257.724,170.562h-3.615c-24.681,0-44.763,20.081-44.763,44.764v5.971v5.588v9.441  c0,0,10.191-1.01,11.446-5.951l-0.008-0.006c0.432-0.467,0.792-1.002,1.046-1.597c5.781-0.176,32.784-0.385,48.206-19.011  c1.843,5.383,8.066,15.578,20.047,18.791c0.246,0.647,0.611,1.233,1.061,1.742l-0.101,0.08c1.253,4.942,11.446,5.951,11.446,5.951  v-9.478v-5.55v-5.971C302.489,190.645,282.405,170.562,257.724,170.562z M291.475,227.159l0.429-0.311h0.064l-0.704,0.52  L291.475,227.159z M291.256,227.295l0.047-0.152l0.153-0.295h0.061l-0.178,0.37L291.256,227.295z M290.068,228.213l-0.018-0.024  l1.103-0.799l-0.258,0.252l-0.808,0.597L290.068,228.213z M290.981,227.953l-0.348,0.715c-0.003,0-0.003,0-0.004-0.001l-0.05-0.023  c-0.007-0.002-0.018-0.009-0.022-0.014l0.564-1.12l0.013-0.014L290.981,227.953z"/>
<path style="fill:#563B3B;" d="M217.239,226.886v-5.588v-5.971c0-23.967,18.931-43.589,42.626-44.709  c-0.711-0.034-1.425-0.056-2.139-0.056h-3.615c-24.681,0-44.763,20.081-44.763,44.764v5.971v5.588v9.441  c0,0,4.503-0.446,7.892-2.199v-7.241H217.239z"/>
<path style="fill:#FBCB99;" d="M297.112,229.836c-1.71-0.533-3.572-0.22-5.02,0.84c-1.441,1.065-2.291,2.749-2.291,4.543v16.059  c0,1.793,0.849,3.477,2.291,4.539c0.983,0.721,2.155,1.098,3.344,1.098c0.562,0,1.126-0.085,1.676-0.254  c1.079-0.336,2.144-0.822,3.155-1.445c0.596-0.366,1.118-0.841,1.542-1.396c0.622-0.32,1.178-0.755,1.641-1.276  c2.279-2.576,3.532-5.875,3.532-9.296C306.982,237.068,303.014,231.678,297.112,229.836z"/>
<path style="fill:#EDBA89;" d="M219.906,230.676c-1.447-1.06-3.31-1.373-5.02-0.84c-5.901,1.842-9.867,7.231-9.867,13.411  c0,6.182,3.966,11.573,9.867,13.413c0.551,0.17,1.114,0.254,1.679,0.254c1.189,0,2.358-0.377,3.341-1.098  c1.446-1.061,2.295-2.746,2.295-4.539v-16.062C222.201,233.425,221.351,231.741,219.906,230.676z"/>
<path style="fill:#FBCB99;" d="M271.39,279.278c-1.11-1.061-2.595-1.617-4.139-1.561l-0.195,0.011  c-0.342,0.011-0.686,0.055-1.022,0.127c-2.179,0.486-4.393,0.731-6.59,0.731h-6.888c-2.259,0-4.542-0.259-6.787-0.772  c-1.675-0.388-3.429,0.014-4.771,1.082c-1.342,1.071-2.123,2.693-2.123,4.41V299.7l-0.004,0.056  c-0.09,1.625,0.529,3.213,1.693,4.349l11.326,11.03c1.054,1.026,2.464,1.595,3.933,1.595c0.029,0,0.061,0,0.089,0  c1.497-0.024,2.927-0.645,3.969-1.724l11.667-12.112c1.013-1.049,1.575-2.451,1.575-3.908v-15.638  C273.123,281.811,272.498,280.341,271.39,279.278z"/>
<path style="fill:#EDBA89;" d="M256.963,313.442l-11.324-11.029c-1.168-1.137-1.785-2.723-1.695-4.349l0.006-0.057v-16.394  c0-1.442,0.556-2.813,1.53-3.852c-1.587-0.275-3.216,0.13-4.481,1.134c-1.342,1.071-2.123,2.693-2.123,4.41v16.394l-0.004,0.056  c-0.09,1.625,0.529,3.213,1.693,4.349l11.326,11.03c1.054,1.026,2.464,1.595,3.933,1.595c0.029,0,0.061,0,0.089,0  c1.497-0.024,2.927-0.645,3.969-1.724l0.047-0.053C258.821,314.761,257.78,314.239,256.963,313.442z"/>
<path style="fill:#FBCB99;" d="M288.951,225.237c-0.684-0.253-1.325-0.549-1.953-0.863c-9.47-4.42-13.402-10.166-14.984-13.597  c-0.094-0.128-0.187-0.27-0.283-0.45c-1.133-2.081-2.897-0.764-2.897-0.764l-0.009-0.003c-8.843,6.784-18.506,10.751-26.536,13.059  c-3.127,0.925-6.123,1.592-8.831,2.077c-5.383,0.989-8.843,1.12-8.843,1.12c-2.948,0.212-5.234,2.666-5.234,5.622v22.997  c0,18.292,14.884,33.174,33.175,33.174h6.888c18.291,0,33.173-14.882,33.173-33.174V230.52  C292.617,228.165,291.155,226.059,288.951,225.237z"/>
<path style="fill:#EDBA89;" d="M226.147,254.432v-22.997c0-2.957,2.281-5.41,5.231-5.622c0,0,3.462-0.13,8.842-1.12  c2.712-0.483,5.706-1.152,8.836-2.077c7.105-2.042,15.489-5.389,23.457-10.836c-0.188-0.35-0.356-0.688-0.501-1.005  c-0.094-0.128-0.187-0.27-0.283-0.45c-1.133-2.081-2.897-0.764-2.897-0.764l-0.009-0.003c-8.843,6.784-18.506,10.751-26.536,13.059  c-3.127,0.925-6.123,1.592-8.831,2.077c-5.383,0.989-8.843,1.12-8.843,1.12c-2.948,0.212-5.234,2.666-5.234,5.622v22.997  c0,18.292,14.884,33.174,33.175,33.174h6.761C241.028,287.606,226.147,272.724,226.147,254.432z"/>
<g>
</g>
<g>
</g>
<g>
</g>
<g>
</g>
<g>
</g>
<g>
</g>
<g>
</g>
<g>
</g>
<g>
</g>
<g>
</g>
<g>
</g>
<g>
</g>
<g>
</g>
<g>
</g>
<g>
</g>
</svg>
