<?xml version="1.0" encoding="iso-8859-1"?>
<!-- Generator: Adobe Illustrator 19.0.0, SVG Export Plug-In . SVG Version: 6.00 Build 0)  -->
<svg xmlns="http://www.w3.org/2000/svg" xmlns:xlink="http://www.w3.org/1999/xlink" version="1.1" id="Layer_1" x="0px" y="0px" viewBox="0 0 491.52 491.52" style="enable-background:new 0 0 491.52 491.52;" xml:space="preserve">
<polygon style="fill:#2D93BA;" points="373.293,456.287 118.227,456.287 159.614,377.995 331.906,377.995 "/>
<path style="fill:#27A2DB;" d="M477.085,35.233H14.439C6.465,35.233,0,41.697,0,49.67v319.286c0,7.973,6.465,14.437,14.439,14.437  h462.646c7.972,0,14.435-6.464,14.435-14.437V49.67C491.52,41.697,485.057,35.233,477.085,35.233z"/>
<rect x="26.813" y="62.054" style="fill:#EBF0F3;" width="437.914" height="250.266"/>
<circle style="fill:#1C75A1;" cx="245.76" cy="352.773" r="16.778"/>
<polygon style="fill:#EBF0F3;" points="249.478,312.307 253.314,299.777 275.681,236.168 276.975,220.392 267.877,207.088   220.453,207.088 208.584,224.589 225.059,312.307 "/>
<rect x="220.365" y="189.542" style="fill:#F6C358;" width="47.555" height="41.216"/>
<polygon style="fill:#E56353;" points="235.757,230.731 229.576,240.113 235.757,249.496 252.572,249.496 258.753,240.113   252.572,230.731 "/>
<g>
	<polygon style="fill:#E1E6E9;" points="211.354,220.393 220.454,207.088 239.084,230.671 224.059,256.997  "/>
	<polygon style="fill:#E1E6E9;" points="279.504,219.41 267.875,207.088 249.245,230.671 262.459,253.822  "/>
</g>
<polygon style="fill:#D15241;" points="260.577,312.307 252.573,249.496 235.758,249.496 227.749,312.307 "/>
<path style="fill:#3A556A;" d="M342.851,267.34c0,0-3.476-22.794-26.654-28.589l-8.917-2.062c-7.296-1.689-14.06-5.17-19.677-10.129  l-8.098-7.149l-0.27,0.855l-31.141,92.042h103.425L342.851,267.34z"/>
<path style="fill:#2F4859;" d="M253.727,312.307c10.903-19.779,25.425-42.647,39.071-52.919c0,0-4.602-5.282-12.336-8.814  c0,0,11.628-2.902,15.697-6.387c0,0-7.619-17.104-16.655-24.776c0,0-27.583,50.12-38.662,92.896H253.727z"/>
<path style="fill:#3A556A;" d="M212.285,220.265l-0.27-0.855l-8.098,7.149c-5.617,4.959-12.381,8.44-19.681,10.129l-8.913,2.062  c-23.178,5.795-26.654,28.589-26.654,28.589l-8.668,44.967h103.425L212.285,220.265z"/>
<g>
	<path style="fill:#2F4859;" d="M237.791,312.307c-10.903-19.779-25.425-42.647-39.071-52.919c0,0,4.602-5.282,12.336-8.814   c0,0-11.628-2.902-15.697-6.387c0,0,7.619-17.104,16.655-24.776c0,0,27.583,50.12,38.662,92.896H237.791z"/>
	<path style="fill:#2F4859;" d="M301.58,155.265h-4.468v-20.579c0-29.193-23.756-52.944-52.948-52.944s-52.948,23.751-52.948,52.944   v20.579h-4.468v-20.579c0-31.658,25.754-57.412,57.417-57.412s57.417,25.754,57.417,57.412V155.265z"/>
</g>
<g>
	
		<ellipse transform="matrix(-0.9555 -0.2951 0.2951 -0.9555 505.0227 394.4043)" style="fill:#FCD462;" cx="282.27" cy="159.097" rx="8.607" ry="13.829"/>
	
		<ellipse transform="matrix(-0.2951 -0.9555 0.9555 -0.2951 114.8253 402.8787)" style="fill:#FCD462;" cx="206.027" cy="159.082" rx="13.829" ry="8.607"/>
	<path style="fill:#FCD462;" d="M283.966,134.15v-27.175h-77.148v27.565h0.27c-0.66,3.251-1.043,6.793-1.043,10.72   c0,27.972,17.697,63.01,39.526,63.01s39.526-35.038,39.526-63.01C285.099,141.172,284.679,137.506,283.966,134.15z"/>
</g>
<g>
	<path style="fill:#64798A;" d="M287.994,112.528c0,0-7.611-22.262-43.829-19.894c-36.218-2.368-43.829,19.894-43.829,19.894   c-1.895,10.894,5.92,40.971,5.92,40.971h1.564v-28.978c0-3.449,0.922-6.904,2.99-9.665c5.238-6.991,11.291-2.328,11.291-2.328   c10.163,10.421,22.063,9.236,22.063,9.236s11.901,1.184,22.063-9.236c0,0,6.053-4.663,11.291,2.328   c2.068,2.761,2.99,6.216,2.99,9.665v28.978h1.564C282.074,153.499,289.889,123.422,287.994,112.528z"/>
	<path style="fill:#64798A;" d="M193.514,168.961c-5,0-9.054-4.054-9.054-9.054c0-5,4.054-9.054,9.054-9.054"/>
</g>
<path style="fill:#E56353;" d="M200.056,142.216c-3.795,0-6.87,3.076-6.87,6.869v21.643c0,3.794,3.075,6.869,6.87,6.869  c3.795,0,6.87-3.075,6.87-6.869v-21.643C206.926,145.292,203.851,142.216,200.056,142.216z"/>
<path style="fill:#D15241;" d="M200.056,142.215v35.381c3.795,0,6.87-3.075,6.87-6.869v-21.643  C206.926,145.291,203.851,142.215,200.056,142.215z"/>
<path style="fill:#64798A;" d="M294.816,150.852c5,0,9.054,4.054,9.054,9.054c0,5-4.054,9.054-9.054,9.054"/>
<path style="fill:#E56353;" d="M288.274,177.597c3.795,0,6.87-3.076,6.87-6.869v-21.643c0-3.794-3.075-6.869-6.87-6.869  c-3.795,0-6.87,3.075-6.87,6.869v21.643C281.404,174.522,284.479,177.597,288.274,177.597z"/>
<path style="fill:#D15241;" d="M288.274,177.598v-35.381c-3.795,0-6.87,3.075-6.87,6.869v21.643  C281.403,174.522,284.478,177.598,288.274,177.598z"/>
<path style="fill:#2F4859;" d="M290.99,171.248c0-1.534-1.244-2.777-2.777-2.777c-1.534,0-2.777,1.243-2.777,2.777  c0,1.078,0.713,1.834,1.612,2.294c-0.085,1.71-0.583,4.123-2.651,6.6c-3.386,4.046-11.673,8.591-31.152,8.093  c-0.94-1.929-3.764-3.363-7.244-3.363c-4.241,0-7.678,2.087-7.678,4.663c0,2.575,3.436,4.662,7.678,4.662  c3.421,0,6.218-1.382,7.211-3.259c1.028,0.026,2.086,0.073,3.074,0.073c15.002,0,25.152-3.089,30.214-9.212  c2.568-3.103,3.188-6.256,3.26-8.416C290.462,172.88,290.99,172.177,290.99,171.248z"/>
<g>
</g>
<g>
</g>
<g>
</g>
<g>
</g>
<g>
</g>
<g>
</g>
<g>
</g>
<g>
</g>
<g>
</g>
<g>
</g>
<g>
</g>
<g>
</g>
<g>
</g>
<g>
</g>
<g>
</g>
</svg>
