<?xml version="1.0" encoding="iso-8859-1"?>
<!-- Generator: Adobe Illustrator 19.0.0, SVG Export Plug-In . SVG Version: 6.00 Build 0)  -->
<svg xmlns="http://www.w3.org/2000/svg" xmlns:xlink="http://www.w3.org/1999/xlink" version="1.1" id="Layer_1" x="0px" y="0px" viewBox="0 0 512 512" style="enable-background:new 0 0 512 512;" xml:space="preserve">
<path style="fill:#415A6B;" d="M450.667,310.4c-4.267,16-10.667,30.933-18.133,44.8L459.2,416l-42.667,41.6l-61.867-26.667  c-13.867,7.467-28.8,13.867-44.8,18.133L286.4,512h-59.733l-24.533-61.867c-16-4.267-30.933-10.667-44.8-18.133l-60.8,25.6  l-41.6-41.6L81.6,354.133c-7.467-13.867-13.867-28.8-18.133-44.8L0.533,285.867v-59.733L62.4,201.6  c4.267-16,10.667-30.933,18.133-44.8L54.933,96l41.6-41.6l60.8,26.667c13.867-7.467,28.8-13.867,44.8-18.133L226.667,0H286.4  l24.533,61.867c16,4.267,30.933,10.667,44.8,18.133l60.8-25.6l41.6,41.6l-26.667,60.8c7.467,13.867,13.867,28.8,18.133,44.8  l61.867,24.533v59.733L450.667,310.4z"/>
<path style="fill:#8AD7F8;" d="M256.533,397.867c-77.867,0-141.867-62.933-141.867-141.867c0-77.867,62.933-141.867,141.867-141.867  C334.4,114.133,398.4,177.067,398.4,256C398.4,333.867,334.4,397.867,256.533,397.867z"/>
<g>
	<path style="fill:#F3F3F3;" d="M256.533,114.133c-14.933,0-29.867,2.133-42.667,6.4c0,1.067,1.067,2.133,1.067,2.133   c-2.133,3.2,0,5.333,0,7.467c0,1.067,1.067,1.067,2.133,0c1.067-1.067,1.067-2.133,1.067-3.2c1.067,0,2.133-1.067,3.2-1.067   c1.067,0,1.067,1.067,2.133,1.067c0,1.067-1.067,1.067-1.067,2.133c-1.067,2.133,0,5.333,2.133,5.333   c2.133,1.067,3.2,2.133,5.333,2.133c1.067,0,2.133,0,4.267,1.067c0,1.067-1.067,1.067-1.067,1.067   c-2.133,4.267-7.467,7.467-10.667,4.267c-3.2-2.133-6.4-3.2-8.533-6.4c-1.067-1.067-2.133-1.067-3.2-1.067   c-1.067,0-1.067,1.067-1.067,2.133l-2.133,1.067c-1.067-2.133-4.267-2.133-4.267-4.267c0-1.067-1.067-1.067-1.067-1.067   c-2.133-1.067-3.2-2.133-3.2-4.267c2.133,0,2.133-1.067,2.133-3.2c-19.2,8.533-36.267,21.333-50.133,38.4   c0,1.067,1.067,2.133,1.067,3.2c1.067,1.067,2.133,2.133,3.2,2.133c2.133,0,3.2,0,4.267,1.067s2.133,1.067,3.2,0   c1.067,0,3.2-1.067,4.267-1.067c2.133,0,4.267,2.133,3.2,3.2c0,1.067,0,2.133,1.067,1.067c1.067,0,3.2,2.133,3.2,3.2   c-1.067,1.067-1.067,3.2-2.133,4.267c-2.133,2.133-2.133,4.267-2.133,5.333c0,2.133,1.067,4.267,0,7.467   c0,2.133-1.067,4.267-2.133,6.4c0,1.067-1.067,1.067-2.133,2.133c-2.133,2.133-3.2,4.267-5.333,6.4   c-1.067,1.067-1.067,2.133-1.067,3.2c0,3.2,0,6.4-1.067,9.6c-1.067,3.2-1.067,5.333-1.067,8.533c0,1.067,0,3.2,0,5.333   c-1.067,3.2-1.067,4.267,2.133,4.267c1.067,0,2.133,0,3.2,0c2.133,1.067,3.2,1.067,5.333,0c4.267-1.067,7.467-4.267,11.733-6.4   c0,0,1.067-1.067,1.067-2.133c0-2.133,1.067-3.2,3.2-2.133c1.067,0,2.133-1.067,3.2-2.133c0-1.067,0-2.133,1.067-4.267v-1.067   c2.133-1.067,3.2-3.2,5.333-3.2c2.133,0,5.333,0,6.4-3.2c1.067-2.133,2.133-5.333,2.133-7.467c1.067-3.2,1.067-7.467,4.267-9.6   c1.067-1.067,2.133-2.133,3.2-2.133c1.067-1.067,2.133-1.067,4.267-1.067c0-1.067-1.067-1.067-1.067-2.133   c4.267,1.067,7.467,0,10.667-2.133s5.333-4.267,8.533-5.333c1.067-1.067,1.067-2.133,2.133-3.2c-3.2-1.067-5.333-1.067-8.533-1.067   c-2.133,0-3.2-2.133-2.133-4.267c1.067,0,1.067,0,2.133,0c3.2,0,7.467,0,10.667,0h1.067C238.4,176,240.533,176,241.6,176   c1.067,0,3.2,0,4.267-2.133c1.067,1.067,1.067,1.067,2.133,0c0,0,1.067-1.067,2.133-1.067s2.133-1.067,2.133-1.067   c0-1.067,0-2.133-1.067-3.2c-1.067-1.067-1.067-2.133-1.067-3.2c0,0,0-1.067,0-2.133c-1.067,0-1.067,1.067-2.133,1.067   c-2.133,1.067-4.267,1.067-5.333,0c0-1.067-1.067-3.2-1.067-4.267c0-2.133,0-3.2,0-5.333c0-1.067,0-1.067,0-2.133   c1.067-1.067,0-2.133-1.067-2.133c-1.067-1.067-1.067-2.133-2.133-2.133l0,0c1.067,0,1.067,1.067,2.133,1.067   c2.133,0,2.133,1.067,2.133,2.133s0,1.067,0,2.133c2.133,0,2.133,1.067,2.133,2.133c0,2.133,0,3.2,1.067,5.333   c1.067,1.067,2.133,2.133,4.267,2.133l1.067,1.067c0,1.067,0,2.133,1.067,2.133c1.067,0,1.067,1.067,2.133,1.067   c3.2,1.067,5.333,2.133,7.467,3.2c1.067,1.067,2.133,3.2,3.2,4.267H264l0,0c1.067,0,2.133,1.067,3.2,1.067   c-1.067,0-2.133,0-3.2,1.067c0,0,0,0,0,1.067c1.067,1.067,1.067,2.133,2.133,2.133c0,0,1.067-1.067,2.133-1.067v1.067   c-2.133,2.133-3.2,5.333-3.2,8.533c0,3.2-1.067,7.467-1.067,10.667c0,1.067,0,2.133,0,3.2c1.067,0,1.067-1.067,2.133-1.067l0,0   c2.133-2.133,5.333-3.2,6.4-6.4c0-1.067,1.067-1.067,2.133-2.133c3.2-1.067,7.467-1.067,10.667-2.133   c1.067,0,2.133-1.067,3.2-1.067l0,0c1.067-1.067,2.133-2.133,3.2-2.133s2.133,1.067,2.133,1.067c0,1.067-1.067,2.133-2.133,3.2   c0,0,0,0,1.067,0c0-1.067,1.067-1.067,1.067-2.133c0,2.133,0,3.2,0,5.333c0,0,0,0,0,1.067c0,1.067,1.067,2.133,1.067,3.2   c-1.067,2.133,1.067,3.2,2.133,4.267c1.067,1.067,1.067,2.133,1.067,3.2c0,1.067-1.067,2.133-1.067,3.2   c0,2.133-1.067,3.2-2.133,4.267c-1.067,1.067-2.133,3.2-1.067,5.333c0,1.067,0,2.133,0,2.133c-1.067,3.2-1.067,6.4,2.133,9.6   c1.067-2.133,1.067-6.4,0-9.6c-1.067-2.133,0-4.267,0-6.4c0,0,1.067,0,1.067-1.067c1.067-1.067,2.133-1.067,2.133-3.2   c0,0,1.067-1.067,1.067,0l1.067,1.067c-1.067,0-1.067,1.067-1.067,1.067c1.067,2.133,2.133,4.267,3.2,6.4c0,0,0,0,1.067,0v-1.067   c0-1.067,0-1.067,1.067-2.133c0,1.067,0,1.067,1.067,2.133c1.067,1.067,1.067,3.2,3.2,2.133c2.133,0,3.2-1.067,3.2-2.133   c1.067-2.133,0-5.333-1.067-7.467c-1.067-2.133,0-3.2,2.133-4.267c1.067,0,1.067-1.067,2.133,0h2.133   c1.067,2.133,2.133,2.133,3.2,2.133c1.067,1.067,2.133,1.067,3.2,0c1.067,1.067,1.067,1.067,2.133,1.067   c2.133,0,5.333,1.067,7.467,0c2.133,0,3.2-1.067,5.333-2.133c2.133-1.067,3.2-3.2,1.067-5.333c0,0,0,0,0-1.067   c1.067,0,1.067,0,2.133,1.067c0-2.133,0-3.2,0-5.333c1.067,0,2.133,0,3.2,0s2.133,0,2.133,1.067l0,0   c-1.067-1.067-1.067-2.133-2.133-2.133c-3.2-1.067-5.333-3.2-5.333-5.333c1.067,0,2.133,0,3.2,0c1.067,3.2,4.267,2.133,6.4,3.2   c-1.067,1.067-1.067,1.067-2.133,2.133c2.133,0,4.267,1.067,5.333,3.2c0,1.067,0,1.067,0,2.133c0,1.067,1.067,2.133-1.067,2.133   c-1.067,0-1.067,3.2,0,3.2s2.133,1.067,3.2,1.067s1.067-1.067,1.067-2.133c0-1.067,0-3.2,0-4.267c1.067,0,1.067,0,2.133,0   c1.067,0,2.133,0,2.133,0c2.133-1.067,3.2-1.067,5.333,1.067c1.067,1.067,2.133,2.133,3.2,2.133c3.2,0,7.467-1.067,10.667-1.067   h1.067c0-2.133,2.133-2.133,3.2-3.2c1.067,0,1.067-1.067,1.067-2.133s-1.067-2.133-1.067-2.133c-2.133-1.067-3.2-2.133-3.2-4.267   c1.067,0,2.133,0,2.133,0C361.067,147.2,313.067,114.133,256.533,114.133z"/>
	<path style="fill:#F3F3F3;" d="M393.067,283.733c0-2.133,1.067-3.2,1.067-5.333c0,0,0,0-1.067,0c0,1.067-1.067,1.067-1.067,2.133   c-1.067,2.133-1.067,4.267-1.067,6.4c0,2.133,0,4.267,0,5.333s0,2.133,0,2.133l0,0c0-1.067,0-1.067,0-2.133   c-2.133,0-2.133,0-2.133,2.133c0,1.067,0,3.2-1.067,4.267c-1.067,1.067-2.133,1.067-3.2,2.133c-2.133,2.133-5.333,4.267-7.467,6.4   c-3.2-1.067-3.2,0-4.267,2.133c-1.067,0-1.067,0-2.133,0c0,0,0,0,0,1.067c-1.067,0-1.067,0-2.133,0c-1.067,0-2.133,1.067-3.2,0   c-2.133-1.067-4.267,0-6.4,0c-1.067,0-2.133,0-2.133,0l0,0c-1.067,0-2.133,0-3.2,1.067c-1.067,0-2.133,1.067-3.2,0   c-1.067-1.067-2.133-1.067-3.2-2.133c-2.133-3.2-4.267-4.267-7.467-5.333c-1.067,0-2.133,0-3.2,0c-2.133,0-4.267-1.067-6.4-1.067   h-1.067c-1.067,2.133-3.2,1.067-5.333,1.067c-3.2-1.067-6.4-2.133-9.6-1.067c-1.067,0-1.067,1.067-1.067,1.067   c1.067,0,1.067,1.067,2.133,1.067c3.2,0,5.333,1.067,8.533,1.067c0,0,0,0,0,1.067c-1.067,0-2.133,1.067-4.267,1.067   c-1.067,0-2.133,0-3.2,0c-2.133,0-4.267,0-6.4,0c-1.067,0-2.133,0-3.2,0c-2.133,0-3.2,1.067-5.333-1.067   c-1.067-1.067-2.133-1.067-3.2-1.067c-1.067,0-2.133,0-3.2,1.067c-2.133,1.067-3.2,2.133-5.333,2.133   c-1.067,1.067-3.2,2.133-4.267,3.2c-1.067,1.067-1.067,2.133-2.133,2.133c-3.2,0-6.4,2.133-9.6,4.267h-1.067   c-2.133,0-3.2,0-5.333,0c-2.133,0-3.2,1.067-5.333,1.067c-1.067,0-1.067,1.067-1.067,2.133c0,1.067-1.067,2.133-1.067,2.133   c-1.067,0-3.2,0-4.267,0c-2.133-2.133-3.2-4.267-3.2-7.467c0-2.133-1.067-3.2-2.133-5.333h-1.067c0-1.067,0-2.133-1.067-2.133   c0-1.067-1.067-1.067-2.133-1.067c-2.133-1.067-4.267-1.067-6.4-1.067c-2.133-1.067-5.333-1.067-7.467-2.133   c-2.133,0-4.267,1.067-5.333,1.067c-2.133,0-4.267,2.133-5.333,0c-2.133-2.133-4.267-4.267-6.4-6.4   c-2.133-2.133-4.267-6.4-7.467-8.533c-1.067-1.067-2.133-3.2-3.2-5.333c0-1.067-1.067-2.133-2.133-3.2l-1.067-1.067   c-1.067-1.067-2.133-2.133-3.2,0c-1.067-2.133-2.133-5.333-3.2-7.467c0,0-1.067,0-1.067,1.067l-1.067-1.067   c1.067-2.133,0-3.2-1.067-3.2c-1.067,0-2.133-1.067-3.2-1.067c-1.067,0-2.133-1.067-3.2-1.067C184,268.8,184,269.867,184,272   c-1.067,0-1.067,1.067-2.133,1.067c0-1.067,1.067-2.133,1.067-2.133c-4.267,1.067-6.4,3.2-5.333,5.333   c2.133,0,3.2-1.067,5.333-1.067c0,0,0,1.067-1.067,2.133c1.067,0,2.133,1.067,2.133,2.133c0,2.133,0,4.267,0,6.4   c1.067,0,2.133-1.067,3.2-1.067c0,2.133,1.067,5.333,1.067,7.467h1.067c1.067,0,1.067,1.067,2.133,1.067L190.4,294.4   c0,1.067,0,1.067,0,2.133h1.067c-1.067,2.133-2.133,4.267-3.2,5.333c-1.067,1.067,0,2.133,1.067,3.2h1.067c0,1.067,0,1.067,0,2.133   c1.067,0,2.133,0,2.133-1.067c1.067,0,1.067,0,2.133,0h1.067c0,0,0,1.067-1.067,1.067s-1.067,1.067-2.133,1.067   c-1.067-1.067-3.2-1.067-5.333,2.133c-1.067,1.067,0,2.133,0,3.2c1.067,2.133,1.067,4.267,1.067,6.4l0,0   c-1.067,2.133-1.067,4.267,1.067,5.333c1.067,1.067,2.133,2.133,1.067,4.267c0,1.067-1.067,2.133-1.067,4.267s-2.133,3.2-1.067,6.4   c1.067,4.267,3.2,7.467,5.333,9.6l1.067,1.067c0,2.133,1.067,4.267,1.067,6.4c0,2.133,2.133,5.333,4.267,5.333h1.067   c1.067-1.067,2.133-1.067,4.267-1.067c1.067,0,2.133-1.067,4.267-2.133c1.067-1.067,1.067-1.067,2.133-2.133   c0-1.067,1.067-2.133,1.067-2.133s1.067,0,1.067-1.067l0,0c0,0,0,1.067,0,2.133c1.067,0,2.133-1.067,3.2-1.067   c1.067,0,1.067-1.067,1.067-2.133c-1.067-2.133,1.067-3.2,2.133-5.333c0,0,1.067,0,2.133,0c0,1.067,0,2.133,0,3.2   c0,2.133,1.067,2.133,2.133,2.133c2.133,2.133,6.4,1.067,8.533-1.067c1.067-2.133,3.2-3.2,5.333-2.133   c1.067,0,2.133-1.067,3.2-1.067c1.067,0,1.067-1.067,2.133-1.067v1.067c1.067,0,2.133,0,3.2,0c0-1.067,0-3.2,2.133-3.2   c1.067,0,1.067-1.067,1.067-1.067l1.067-1.067c1.067,0,1.067-1.067,2.133-2.133c2.133-2.133,0-2.133-1.067-2.133v-1.067   c1.067,1.067,2.133,1.067,3.2,1.067h1.067c1.067-1.067,1.067-4.267,1.067-5.333c-1.067-1.067,0-2.133,1.067-3.2   c1.067,0,1.067-1.067,2.133-1.067c1.067-1.067,1.067-2.133,1.067-3.2c1.067-1.067,4.267-1.067,5.333,0   c1.067,1.067,2.133,2.133,3.2,3.2c0,0,1.067,1.067,1.067,0c1.067-1.067,2.133-1.067,3.2-2.133c1.067-1.067,2.133-2.133,2.133-2.133   c1.067,1.067,2.133,2.133,3.2,3.2c2.133,2.133,2.133,2.133,4.267,1.067c0-1.067,0-1.067-1.067-2.133c0-1.067-1.067-2.133,0-3.2   c0-1.067,1.067-2.133,2.133-3.2c2.133-1.067,5.333-1.067,7.467,0c1.067,1.067,2.133,1.067,2.133,2.133   c1.067,2.133,4.267,2.133,4.267,5.333c0,2.133,0,3.2-1.067,5.333c0,1.067-1.067,2.133-1.067,3.2c-1.067,0-2.133,1.067-2.133,1.067   c-1.067,1.067-1.067,2.133-2.133,3.2c-2.133,2.133-4.267,3.2-6.4,5.333c2.133,2.133,3.2,5.333,2.133,8.533   c0,1.067,0,2.133,1.067,4.267c0,1.067,1.067,2.133,2.133,3.2c0,1.067,0,3.2,0,5.333c0,1.067-1.067,2.133-1.067,2.133v1.067   c0,1.067,1.067,1.067,1.067,2.133c1.067,2.133-1.067,7.467-3.2,8.533l0,0c0,0-1.067-1.067-1.067-2.133   c-1.067,3.2-2.133,6.4-3.2,9.6c1.067,0,1.067,0,2.133,0c0-3.2,3.2-5.333,5.333-4.267c0,1.067,0,1.067-1.067,2.133   c4.267,0,3.2-4.267,5.333-5.333c0,2.133,0,3.2-1.067,4.267c-1.067,2.133-3.2,4.267-5.333,6.4c0,1.067-1.067,1.067-1.067,2.133   c-1.067,1.067-1.067,2.133-2.133,4.267V400c0,1.067,1.067,1.067,2.133,1.067c1.067,0,3.2-1.067,4.267-1.067   c2.133-1.067,3.2-2.133,4.267-2.133c1.067,1.067,1.067,1.067,1.067,1.067h1.067c2.133-1.067,4.267-1.067,5.333-2.133   c0,0,0,0,0-1.067v-1.067c1.067-1.067,2.133-2.133,3.2-3.2c2.133,2.133,2.133,2.133,5.333,1.067h1.067   c1.067-1.067,2.133-2.133,4.267-2.133c1.067-1.067,2.133-2.133,3.2-3.2c3.2-1.067,5.333-2.133,8.533-3.2l0,0c0,1.067,0,2.133,0,3.2   c2.133-1.067,3.2-2.133,5.333-3.2v-1.067c0-1.067,1.067-2.133,2.133-2.133c1.067,0,1.067,0,2.133,0c0,0,1.067,0,1.067-1.067   s0-1.067,0-1.067c1.067,0,2.133-1.067,3.2-1.067l0,0c2.133-1.067,3.2-2.133,5.333-3.2l0,0c-1.067,0-1.067,0-2.133,0   c-1.067,0-1.067,1.067-2.133,2.133l0,0c0-1.067,0-2.133,0-3.2s-1.067-1.067,0-2.133l1.067,1.067c1.067,2.133,1.067,1.067,2.133,0   c0,0,0-1.067,1.067-2.133l0,0c-1.067,0-1.067,1.067-2.133,1.067l0,0c2.133-2.133,3.2-4.267,5.333-6.4   c2.133-2.133,4.267-3.2,6.4-5.333c0,2.133-1.067,3.2-3.2,4.267c-1.067,0-1.067,1.067-1.067,2.133c0,1.067,0,1.067,0,2.133   c2.133-1.067,3.2-2.133,4.267-2.133c1.067-1.067,2.133-2.133,3.2-3.2l0,0l0,0c3.2-3.2,6.4-7.467,9.6-11.733   c0,0-1.067,0-1.067-1.067c0,1.067-1.067,1.067-1.067,1.067v-1.067c-1.067,0-1.067,0-2.133,0c1.067-1.067,1.067-2.133,2.133-2.133   c1.067-1.067,3.2-2.133,4.267-3.2c1.067-3.2,3.2-5.333,6.4-6.4l0,0c0-1.067,1.067-1.067,1.067-2.133   c1.067-2.133,2.133-3.2,3.2-5.333c6.4-12.8,11.733-25.6,14.933-40.533C395.2,284.8,394.133,284.8,393.067,283.733z"/>
</g>
<g>
</g>
<g>
</g>
<g>
</g>
<g>
</g>
<g>
</g>
<g>
</g>
<g>
</g>
<g>
</g>
<g>
</g>
<g>
</g>
<g>
</g>
<g>
</g>
<g>
</g>
<g>
</g>
<g>
</g>
</svg>
