<?xml version="1.0" encoding="iso-8859-1"?>
<!-- Generator: Adobe Illustrator 19.0.0, SVG Export Plug-In . SVG Version: 6.00 Build 0)  -->
<svg xmlns="http://www.w3.org/2000/svg" xmlns:xlink="http://www.w3.org/1999/xlink" version="1.1" id="Layer_1" x="0px" y="0px" viewBox="0 0 491.52 491.52" style="enable-background:new 0 0 491.52 491.52;" xml:space="preserve">
<polygon style="fill:#2F4859;" points="348.804,430.616 143.329,430.616 164.554,453.378 327.579,453.378 "/>
<polygon style="fill:#3A556A;" points="348.804,430.616 143.329,430.616 185.722,367.252 306.411,367.252 "/>
<g>
	<path style="fill:#64798A;" d="M328.347,450.61H163.17c-11.297,0-20.454,9.158-20.454,20.454c0,11.297,9.158,20.456,20.454,20.456   h165.178c11.297,0,20.457-9.158,20.457-20.456C348.804,459.768,339.644,450.61,328.347,450.61z"/>
	<path style="fill:#64798A;" d="M309.332,336.736l-63.179-0.057v0.057h-63.352c0,0,49.793-114.51,0-215.291h126.531   C259.483,222.225,309.332,336.736,309.332,336.736z"/>
</g>
<path style="fill:#2F4859;" d="M308.715,328.496H183.416c-11.297,0-20.454,9.158-20.454,20.454c0,11.297,9.158,20.456,20.454,20.456  h125.298c11.297,0,20.457-9.158,20.457-20.456C329.172,337.653,320.011,328.496,308.715,328.496z"/>
<polyline style="fill:#3A556A;" points="309.331,121.445 297.729,100.751 263.748,100.751 240.939,100.751 194.403,100.751   182.801,121.445 "/>
<g>
	<path style="fill:#2F4859;" d="M246.177,0c-5.36,0-9.706,4.346-9.706,9.707v48.536h19.414V9.707C255.886,4.346,251.538,0,246.177,0   z"/>
	<path style="fill:#2F4859;" d="M275.167,29.485c-0.776-4.772-5.258-8.074-10.092-8.074l-38.31,0c-5.36,0-9.708,4.346-9.708,9.707   c0,5.361,4.348,9.707,9.708,9.707h38.828C271.49,40.825,276.158,35.566,275.167,29.485z"/>
</g>
<polygon style="fill:#3A556A;" points="275.724,89.089 217.418,89.089 197.037,52.619 296.105,52.619 "/>
<path style="fill:#2F4859;" d="M297.395,81.952H195.747c-5.488,0-9.936,4.449-9.936,9.937c0,5.488,4.448,9.936,9.936,9.936h101.648  c5.486,0,9.936-4.449,9.936-9.936C307.331,86.401,302.88,81.952,297.395,81.952z"/>
<g>
</g>
<g>
</g>
<g>
</g>
<g>
</g>
<g>
</g>
<g>
</g>
<g>
</g>
<g>
</g>
<g>
</g>
<g>
</g>
<g>
</g>
<g>
</g>
<g>
</g>
<g>
</g>
<g>
</g>
</svg>
