<?xml version="1.0" encoding="iso-8859-1"?>
<!-- Generator: Adobe Illustrator 19.0.0, SVG Export Plug-In . SVG Version: 6.00 Build 0)  -->
<svg xmlns="http://www.w3.org/2000/svg" xmlns:xlink="http://www.w3.org/1999/xlink" version="1.1" id="Layer_1" x="0px" y="0px" viewBox="0 0 512 512" style="enable-background:new 0 0 512 512;" xml:space="preserve">
<path style="fill:#8AD7F8;" d="M210.133,512h-163.2c-18.133,0-32-13.867-32-32V32c0-18.133,13.867-32,32-32h163.2  c18.133,0,32,13.867,32,32v448C242.133,498.133,227.2,512,210.133,512z"/>
<rect x="57.6" y="42.667" style="fill:#FFFFFF;" width="141.867" height="182.4"/>
<g>
	<rect x="80" y="75.733" style="fill:#E8EAE9;" width="97.067" height="14.933"/>
	<rect x="80" y="117.333" style="fill:#E8EAE9;" width="97.067" height="14.933"/>
	<rect x="80" y="157.867" style="fill:#E8EAE9;" width="97.067" height="14.933"/>
</g>
<circle style="fill:#FFFFFF;" cx="128" cy="393.6" r="50.133"/>
<path style="fill:#F3705A;" d="M465.067,512h-163.2c-18.133,0-32-13.867-32-32V32c0-18.133,13.867-32,32-32h163.2  c18.133,0,32,13.867,32,32v448C497.067,498.133,483.2,512,465.067,512z"/>
<rect x="312.533" y="42.667" style="fill:#FFFFFF;" width="141.867" height="182.4"/>
<g>
	<rect x="334.933" y="75.733" style="fill:#E8EAE9;" width="97.067" height="14.933"/>
	<rect x="334.933" y="117.333" style="fill:#E8EAE9;" width="97.067" height="14.933"/>
	<rect x="334.933" y="157.867" style="fill:#E8EAE9;" width="97.067" height="14.933"/>
</g>
<circle style="fill:#FFFFFF;" cx="384" cy="393.6" r="50.133"/>
<g>
</g>
<g>
</g>
<g>
</g>
<g>
</g>
<g>
</g>
<g>
</g>
<g>
</g>
<g>
</g>
<g>
</g>
<g>
</g>
<g>
</g>
<g>
</g>
<g>
</g>
<g>
</g>
<g>
</g>
</svg>
