<?xml version="1.0" encoding="iso-8859-1"?>
<!-- Generator: Adobe Illustrator 19.0.0, SVG Export Plug-In . SVG Version: 6.00 Build 0)  -->
<svg xmlns="http://www.w3.org/2000/svg" xmlns:xlink="http://www.w3.org/1999/xlink" version="1.1" id="Layer_1" x="0px" y="0px" viewBox="0 0 491.54 491.54" style="enable-background:new 0 0 491.54 491.54;" xml:space="preserve">
<g>
	<path style="fill:#D5D6DB;" d="M0.01,89.671v362.302c0.001,7.581,52.657,12.807,125.247,15.68V66.512   C52.667,70.757,0.011,78.474,0.01,89.671z"/>
	<path style="fill:#D5D6DB;" d="M366.284,66.512v401.141c72.591-2.873,125.247-8.099,125.246-15.68V89.671   C491.531,78.474,438.876,70.756,366.284,66.512z"/>
</g>
<path style="fill:#EBF0F3;" d="M112.747,11.093v477.542c79.771,3.874,186.276,3.874,266.045,0V11.093  C378.792-3.698,112.746-3.698,112.747,11.093z"/>
<path style="fill:#27A2DB;" d="M245.767,72.295c-58.892,0-98.356,2.736-115.148,5.35v302.792h230.304V77.645  C344.132,75.031,304.676,72.295,245.767,72.295z"/>
<path style="fill:#EBF0F3;" d="M284.629,131.242h76.294v-4.468h-76.294V72.73c-1.465-0.034-2.968-0.064-4.468-0.094v54.139h-68.78  V72.635c-1.501,0.031-3.003,0.061-4.468,0.094v54.044h-76.294v4.468h76.294v60.436h-76.294v4.468h76.294v60.436h-76.294v4.468  h76.294v60.436h-76.294v4.468h76.294v54.481h4.468v-54.481h68.78v54.481h4.468v-54.481h76.294v-4.468h-76.294v-60.436h76.294v-4.468  h-76.294v-60.436h76.294v-4.468h-76.294V131.242z M280.161,321.488h-68.78v-60.436h68.78V321.488z M280.161,256.583h-68.78v-60.436  h68.78V256.583z M280.161,191.678h-68.78v-60.436h68.78V191.678z"/>
<g>
	<path style="fill:#64798A;" d="M124.964,54.079h4.634v1.671c0,1.597,0.183,2.684,0.567,3.264c0.384,0.58,1.039,0.868,1.972,0.868   c0.977,0,1.728-0.257,2.234-0.777c0.515-0.515,0.768-1.283,0.768-2.295c0-0.777-0.175-1.44-0.532-1.999s-1.126-1.274-2.304-2.151   l-2.374-1.754c-2.042-1.488-3.334-2.714-3.892-3.679c-0.55-0.969-0.829-2.182-0.829-3.648c0-2.182,0.62-3.892,1.859-5.127   c1.231-1.239,2.932-1.859,5.105-1.859c2.304,0,4.067,0.659,5.289,1.977c1.222,1.313,1.841,3.207,1.841,5.668   c0,0.249-0.009,0.441-0.009,0.576c-0.009,0.135-0.017,0.253-0.026,0.353h-4.39v-0.694c0-1.405-0.218-2.413-0.655-3.02   c-0.445-0.607-1.169-0.912-2.182-0.912c-0.742,0-1.318,0.227-1.745,0.685c-0.428,0.454-0.637,1.087-0.637,1.898   c0,1.091,0.951,2.3,2.854,3.626l0.044,0.035l2.548,1.807c1.815,1.261,3.046,2.448,3.692,3.569c0.646,1.117,0.969,2.544,0.969,4.276   c0,2.365-0.646,4.185-1.937,5.468c-1.283,1.283-3.124,1.924-5.524,1.924c-2.496,0-4.355-0.676-5.568-2.025   c-1.222-1.348-1.833-3.408-1.833-6.175c0-0.292,0.017-0.777,0.061-1.453V54.079z"/>
	<path style="fill:#64798A;" d="M147.061,63.208v-21.7h-5.324v-4.289h15.264v4.289h-5.315v21.7H147.061z"/>
	<path style="fill:#64798A;" d="M158.939,50.213c0-2.753,0.122-4.957,0.367-6.607c0.244-1.649,0.637-2.889,1.161-3.722   c0.716-1.178,1.58-2.025,2.575-2.531c1.004-0.506,2.313-0.759,3.945-0.759c1.632,0,2.95,0.253,3.953,0.759   c0.995,0.506,1.859,1.353,2.592,2.531c0.524,0.855,0.908,2.108,1.152,3.748c0.236,1.641,0.358,3.836,0.358,6.58   c0,2.736-0.122,4.927-0.367,6.572c-0.253,1.649-0.628,2.902-1.143,3.757c-0.733,1.183-1.597,2.025-2.592,2.531   c-1.004,0.506-2.321,0.759-3.953,0.759c-1.632,0-2.941-0.253-3.945-0.759c-0.995-0.506-1.859-1.348-2.575-2.531   c-0.524-0.833-0.916-2.073-1.161-3.722C159.061,55.174,158.939,52.971,158.939,50.213z M163.661,50.213   c0,4.276,0.236,6.969,0.716,8.077c0.48,1.108,1.361,1.663,2.644,1.663c1.265,0,2.129-0.545,2.601-1.632   c0.463-1.082,0.698-3.788,0.698-8.108s-0.236-7.03-0.707-8.134c-0.471-1.1-1.344-1.654-2.627-1.654   c-1.274,0-2.147,0.554-2.618,1.654C163.896,43.183,163.661,45.893,163.661,50.213z"/>
	<path style="fill:#64798A;" d="M188.673,53.944h4.503c0,0.113,0,0.279,0.017,0.497c0.009,0.218,0.017,0.393,0.017,0.515   c0,3.002-0.611,5.232-1.815,6.689c-1.213,1.457-3.063,2.186-5.559,2.186c-1.178,0-2.191-0.161-3.046-0.48   c-0.847-0.323-1.58-0.82-2.191-1.492c-0.838-0.903-1.431-2.138-1.772-3.713c-0.349-1.575-0.515-4.32-0.515-8.234   c0-2.679,0.096-4.809,0.305-6.388c0.201-1.58,0.524-2.758,0.951-3.535c0.663-1.196,1.492-2.06,2.479-2.592   c0.995-0.532,2.252-0.803,3.788-0.803c2.522,0,4.346,0.689,5.489,2.06c1.152,1.375,1.728,3.578,1.737,6.615h-4.486v-0.624   c0-1.405-0.218-2.457-0.646-3.146c-0.436-0.694-1.1-1.039-1.999-1.039c-1.1,0-1.859,0.48-2.26,1.436   c-0.401,0.956-0.602,3.6-0.602,7.929c0,4.682,0.192,7.527,0.585,8.54s1.143,1.519,2.252,1.519c1.03,0,1.745-0.397,2.156-1.187   c0.41-0.794,0.611-2.26,0.611-4.399V53.944z"/>
	<path style="fill:#64798A;" d="M196.903,63.208v-25.99h4.529V48.07l5.647-10.852h5.14l-6.275,10.787l6.676,15.203h-5.079   l-4.468-10.748l-1.641,2.867v7.881H196.903z"/>
	<path style="fill:#64798A;" d="M223.181,63.208v-25.99h12.751v4.32h-8.16v6.009h7.593v4.119h-7.593v7.156h8.352v4.385H223.181z"/>
	<path style="fill:#64798A;" d="M237.703,63.208l6.083-13.265l-5.777-12.724h5.21l3.308,8.186l3.369-8.186h5.158l-5.978,12.724   l6.135,13.265h-5.219l-3.596-8.675l-3.657,8.675H237.703z"/>
	<path style="fill:#64798A;" d="M266.896,53.944h4.503c0,0.113,0,0.279,0.017,0.497c0.009,0.218,0.017,0.393,0.017,0.515   c0,3.002-0.611,5.232-1.815,6.689c-1.213,1.457-3.063,2.186-5.559,2.186c-1.178,0-2.191-0.161-3.046-0.48   c-0.847-0.323-1.58-0.82-2.191-1.492c-0.838-0.903-1.431-2.138-1.772-3.713c-0.349-1.575-0.515-4.32-0.515-8.234   c0-2.679,0.096-4.809,0.305-6.388c0.201-1.58,0.524-2.758,0.951-3.535c0.663-1.196,1.492-2.06,2.479-2.592   c0.995-0.532,2.252-0.803,3.788-0.803c2.522,0,4.346,0.689,5.489,2.06c1.152,1.375,1.728,3.578,1.737,6.615H266.8v-0.624   c0-1.405-0.218-2.457-0.646-3.146c-0.436-0.694-1.1-1.039-1.999-1.039c-1.1,0-1.859,0.48-2.26,1.436   c-0.401,0.956-0.602,3.6-0.602,7.929c0,4.682,0.192,7.527,0.585,8.54c0.393,1.012,1.143,1.519,2.252,1.519   c1.03,0,1.745-0.397,2.156-1.187c0.41-0.794,0.611-2.26,0.611-4.399V53.944z"/>
	<path style="fill:#64798A;" d="M275.117,63.208v-25.99h4.591v10.193h6.336V37.218h4.599v25.99h-4.599V51.43h-6.336v11.777H275.117z   "/>
	<path style="fill:#64798A;" d="M293.042,63.208l5.594-25.99h6.205l5.647,25.99h-4.983l-1.222-6.532h-5.324l-1.196,6.532H293.042z    M299.684,52.779h3.936l-1.981-10.9L299.684,52.779z"/>
	<path style="fill:#64798A;" d="M312.923,63.208v-25.99h4.756l6.467,18.175l-0.131-18.175h4.364v25.99h-4.721l-6.511-18.209   l0.131,18.209H312.923z"/>
	<path style="fill:#64798A;" d="M344.865,63.208l-0.34-2.867c-0.471,1.248-1.117,2.143-1.946,2.679   c-0.82,0.541-1.946,0.812-3.386,0.812c-2.601,0-4.433-1.03-5.489-3.089c-1.065-2.055-1.588-5.83-1.588-11.324   c0-2.561,0.122-4.621,0.375-6.166c0.253-1.549,0.646-2.74,1.187-3.587c0.646-1.034,1.501-1.798,2.566-2.295   c1.065-0.493,2.383-0.742,3.962-0.742c2.662,0,4.625,0.659,5.891,1.972c1.265,1.318,1.894,3.364,1.894,6.144v0.659h-4.32v-0.271   c0-1.553-0.279-2.723-0.829-3.517c-0.55-0.794-1.379-1.191-2.479-1.191c-1.335,0-2.26,0.541-2.749,1.619   c-0.497,1.082-0.742,3.945-0.742,8.592c0,3.665,0.236,6.118,0.707,7.357c0.471,1.239,1.327,1.855,2.566,1.855   c1.222,0,2.095-0.436,2.618-1.313c0.524-0.877,0.777-2.365,0.777-4.455v-0.895h-3.203V49.03h7.654v14.177H344.865z"/>
	<path style="fill:#64798A;" d="M352.048,63.208v-25.99h12.751v4.32h-8.16v6.009h7.593v4.119h-7.593v7.156h8.352v4.385H352.048z"/>
</g>
<g>
	<polygon style="fill:#FCD462;" points="178.128,7.251 181.956,15.006 190.515,16.25 184.322,22.287 185.784,30.811 178.128,26.787    170.473,30.811 171.935,22.287 165.742,16.25 174.301,15.006  "/>
	<polygon style="fill:#FCD462;" points="211.949,7.251 215.777,15.006 224.336,16.25 218.143,22.287 219.605,30.811 211.949,26.787    204.294,30.811 205.756,22.287 199.563,16.25 208.122,15.006  "/>
	<polygon style="fill:#FCD462;" points="245.77,7.251 249.598,15.006 258.157,16.25 251.963,22.287 253.425,30.811 245.77,26.787    238.115,30.811 239.577,22.287 233.384,16.25 241.943,15.006  "/>
	<polygon style="fill:#FCD462;" points="279.591,7.251 283.419,15.006 291.978,16.25 285.784,22.287 287.246,30.811 279.591,26.787    271.936,30.811 273.398,22.287 267.205,16.25 275.763,15.006  "/>
	<polygon style="fill:#FCD462;" points="313.412,7.251 317.24,15.006 325.799,16.25 319.605,22.287 321.067,30.811 313.412,26.787    305.757,30.811 307.219,22.287 301.026,16.25 309.584,15.006  "/>
</g>
<g>
	<path style="fill:#27A2DB;" d="M17.88,97.804v343.065c9.453,1.942,30.82,4.973,77.435,7.498V86.486   C45.803,90.454,25.661,95.189,17.88,97.804z"/>
	<path style="fill:#27A2DB;" d="M473.653,97.799c-7.78-2.611-27.923-7.35-77.428-11.314v361.881   c46.607-2.524,67.968-5.555,77.428-7.498V97.799z"/>
</g>
<g>
	<rect x="396.247" y="134.359" style="fill:#EBF0F3;" width="77.414" height="4.49"/>
	<rect x="396.247" y="199.741" style="fill:#EBF0F3;" width="77.414" height="4.49"/>
	<rect x="396.247" y="265.18" style="fill:#EBF0F3;" width="77.414" height="4.49"/>
	<rect x="396.247" y="330.609" style="fill:#EBF0F3;" width="77.414" height="4.49"/>
	<rect x="396.247" y="396.042" style="fill:#EBF0F3;" width="77.414" height="4.49"/>
	<rect x="17.879" y="134.359" style="fill:#EBF0F3;" width="77.414" height="4.49"/>
	<rect x="17.879" y="199.741" style="fill:#EBF0F3;" width="77.414" height="4.49"/>
	<rect x="17.879" y="265.18" style="fill:#EBF0F3;" width="77.414" height="4.49"/>
	<rect x="17.879" y="330.609" style="fill:#EBF0F3;" width="77.414" height="4.49"/>
	<rect x="17.879" y="396.042" style="fill:#EBF0F3;" width="77.414" height="4.49"/>
</g>
<path style="fill:#DC8744;" d="M179.226,392.638v98.222c43.378,0.899,89.711,0.899,133.089,0v-98.222H179.226z"/>
<path style="fill:#FCD462;" d="M188.158,401.574v89.453c37.785,0.67,77.433,0.67,115.217,0v-89.453H188.158z"/>
<path style="fill:#DC8744;" d="M242.776,392.638v98.894c1.997,0.002,3.992,0.002,5.989,0v-98.894H242.776z"/>
<g>
</g>
<g>
</g>
<g>
</g>
<g>
</g>
<g>
</g>
<g>
</g>
<g>
</g>
<g>
</g>
<g>
</g>
<g>
</g>
<g>
</g>
<g>
</g>
<g>
</g>
<g>
</g>
<g>
</g>
</svg>
