<?xml version="1.0" encoding="iso-8859-1"?>
<!-- Generator: Adobe Illustrator 19.0.0, SVG Export Plug-In . SVG Version: 6.00 Build 0)  -->
<svg xmlns="http://www.w3.org/2000/svg" xmlns:xlink="http://www.w3.org/1999/xlink" version="1.1" id="Layer_1" x="0px" y="0px" viewBox="0 0 512.002 512.002" style="enable-background:new 0 0 512.002 512.002;" xml:space="preserve">
<polygon style="fill:#EB8423;" points="32.972,313.515 12.148,390.351 25.112,390.351 45.937,313.515 "/>
<path style="fill:#F7971D;" d="M160.019,179.983l1.386-17.484H70.344l1.386,17.489c1.231,15.503,0.822,48.803-15.729,97.651  l-7.248,21.404h134.24l-7.245-21.407C159.199,228.794,158.79,195.489,160.019,179.983z"/>
<path style="fill:#EB8423;" d="M83.615,179.982l-1.386-17.486H70.345l1.386,17.486c1.229,15.505,0.82,48.809-15.73,97.654  l-7.248,21.403h11.884l7.248-21.403C84.435,228.791,84.845,195.486,83.615,179.982z"/>
<g>
	<path style="fill:#F18C20;" d="M190.327,329.437l-8.35-46.885c-0.137-0.774-0.81-1.336-1.596-1.336H51.369   c-0.785,0-1.458,0.563-1.596,1.336l-8.35,46.885c-0.084,0.472,0.045,0.957,0.353,1.325c0.307,0.368,0.763,0.58,1.241,0.58h145.713   c0.479,0,0.935-0.212,1.242-0.58C190.282,330.393,190.412,329.908,190.327,329.437z"/>
	<path style="fill:#F18C20;" d="M193.403,389.344c-0.301-0.444-0.805-0.711-1.342-0.711H1.621c-0.895,0-1.621,0.726-1.621,1.621   v31.859c0,0.895,0.726,1.621,1.621,1.621h177.731c0.663,0,1.26-0.404,1.506-1.02l12.709-31.859   C193.764,390.354,193.703,389.789,193.403,389.344z"/>
</g>
<g>
	<polygon style="fill:#F7971D;" points="198.766,313.515 32.972,313.515 12.148,390.351 201.034,390.351 205.767,363.747    211.437,358.641 208.415,349.012  "/>
	<path style="fill:#F7971D;" d="M189.315,160.006v-10.177c0-10.309-8.389-18.697-18.699-18.697h-0.708   c3.452-7.636,5.282-15.981,5.282-24.454c0-29.957-22.329-54.782-51.213-58.747V27.731c0-4.476-3.627-8.103-8.103-8.103   c-4.476,0-8.103,3.627-8.103,8.103v20.202c-28.882,3.966-51.209,28.79-51.209,58.746c0,8.514,1.801,16.814,5.266,24.454h-0.696   c-10.311,0-18.699,8.388-18.699,18.697v10.177c0,10.31,8.389,18.698,18.699,18.698h109.484   C180.927,178.703,189.315,170.315,189.315,160.006z"/>
</g>
<g>
	<path style="fill:#EB8423;" d="M72.51,85.114c4.502-13.516,14.596-27.305,35.261-37.182c-28.883,3.966-51.21,28.791-51.21,58.746   c0,8.513,1.801,16.811,5.267,24.454h-0.695c-10.311,0-18.699,8.387-18.699,18.696v10.177c0,10.31,8.389,18.698,18.699,18.698   h11.884c-10.311,0-18.699-8.388-18.699-18.698v-10.177c0-10.309,8.389-18.696,18.699-18.696h0.695   c-3.466-7.642-5.267-15.941-5.267-24.454C68.445,99.073,69.889,91.801,72.51,85.114z"/>
	<path style="fill:#EB8423;" d="M133.715,131.08H62.383c-2.07,0-3.861,1.124-4.846,2.783c-1.729,0.402-3.553,0.842-4.785,1.15   c-2.88,0.721-5.042,6.482-5.042,7.354s5.402,15.693,6.537,7.41c0.836-6.105,5.88-7.218,8.479-7.382h70.989   c3.124,0,5.657-2.533,5.657-5.657C139.371,133.613,136.838,131.08,133.715,131.08z"/>
</g>
<path style="fill:#F7971D;" d="M455.999,277.631c-16.551-48.843-16.959-82.144-15.73-97.649l1.387-17.487h-91.061l1.386,17.486  c1.229,15.505,0.82,48.809-15.73,97.654l-7.248,21.403h134.24L455.999,277.631z"/>
<path style="fill:#EB8423;" d="M363.866,179.982l-1.386-17.486h-11.884l1.386,17.486c1.229,15.505,0.82,48.809-15.73,97.654  l-7.248,21.403h11.884l7.248-21.403C364.686,228.791,365.094,195.486,363.866,179.982z"/>
<g>
	<path style="fill:#F18C20;" d="M470.575,329.436l-8.345-46.885c-0.137-0.774-0.81-1.336-1.596-1.336H331.615   c-0.786,0-1.458,0.564-1.596,1.336l-8.344,46.885c-0.084,0.472,0.045,0.957,0.353,1.325c0.307,0.368,0.763,0.58,1.241,0.58h145.708   c0.479,0,0.935-0.212,1.241-0.58C470.529,330.392,470.659,329.907,470.575,329.436z"/>
	<path style="fill:#F18C20;" d="M510.379,389.101H319.935c-0.539,0-1.043,0.268-1.344,0.715c-0.3,0.446-0.36,1.014-0.158,1.514   l12.715,31.39c0.247,0.611,0.842,1.012,1.503,1.012h177.73c0.895,0,1.621-0.726,1.621-1.621v-31.39   C512,389.827,511.274,389.101,510.379,389.101z"/>
</g>
<polygon style="fill:#F7971D;" points="479.024,313.514 313.222,313.514 303.752,348.461 300.348,358.461 306.237,363.753   310.968,390.35 499.856,390.35 "/>
<polygon style="fill:#EB8423;" points="313.312,358.461 316.716,348.461 326.186,313.514 313.222,313.514 303.752,348.461   300.348,358.461 306.237,363.753 310.968,390.35 323.933,390.35 319.201,363.753 "/>
<g>
	<path style="fill:#F37521;" d="M223.741,248.628l-1.386-17.489h-11.884l1.386,17.489c1.231,15.502,0.822,48.802-15.73,97.651   l-7.244,21.402h11.884l7.244-21.402C224.562,297.43,224.97,264.129,223.741,248.628z"/>
	<polygon style="fill:#F37521;" points="175.166,384.857 155.8,456.293 168.765,456.293 188.13,384.857  "/>
</g>
<path style="fill:#F7971D;" d="M450.867,131.133h-0.708c3.451-7.634,5.281-15.98,5.281-24.454c0-29.957-22.328-54.782-51.212-58.746  V27.731c0-4.476-3.626-8.103-8.103-8.103c-4.476,0-8.103,3.627-8.103,8.103v20.202c-28.883,3.966-51.21,28.79-51.21,58.746  c0,8.513,1.801,16.811,5.267,24.454h-0.695c-10.311,0-18.7,8.387-18.7,18.696v10.177c0,10.31,8.389,18.698,18.7,18.698h109.483  c10.311,0,18.699-8.388,18.699-18.698v-10.177C469.566,139.519,461.178,131.133,450.867,131.133z"/>
<g>
	<path style="fill:#EB8423;" d="M352.761,85.114c4.502-13.516,14.596-27.305,35.261-37.182c-28.883,3.966-51.21,28.79-51.21,58.746   c0,8.513,1.801,16.811,5.267,24.454h-0.695c-10.311,0-18.7,8.387-18.7,18.696v10.177c0,10.31,8.389,18.698,18.7,18.698h11.884   c-10.311,0-18.7-8.388-18.7-18.698v-10.177c0-10.309,8.389-18.696,18.7-18.696h0.695c-3.466-7.642-5.267-15.941-5.267-24.454   C348.696,99.073,350.141,91.801,352.761,85.114z"/>
	<path style="fill:#EB8423;" d="M339.417,384.857l-5.941-33.382h-2.879l-1.761-5.201c-4.015-11.848-7.072-22.773-9.395-32.76h-6.22   l-9.47,34.947l-3.404,10l5.889,5.292l4.732,26.597h40.318l-1.49-5.493h-10.379V384.857z"/>
	<path style="fill:#EB8423;" d="M412.806,131.078h-70.25c-2.07,0-3.861,1.124-4.846,2.783c-1.729,0.402-3.553,0.842-4.785,1.15   c-2.88,0.721-5.042,6.482-5.042,7.354s5.402,15.693,6.537,7.41c0.836-6.105,5.88-7.218,8.479-7.382h69.909   c3.124,0,5.657-2.533,5.657-5.657C418.463,133.612,415.929,131.078,412.806,131.078z"/>
</g>
<path style="fill:#F7971D;" d="M315.872,346.275c-16.549-48.84-16.957-82.144-15.728-97.65l1.386-17.486h-91.061l1.386,17.489  c1.231,15.502,0.822,48.802-15.73,97.651l-7.244,21.402h134.235L315.872,346.275z"/>
<path style="fill:#EB8423;" d="M224.821,248.628l-1.386-17.489h-12.964l1.386,17.489c1.231,15.502,0.822,48.802-15.73,97.651  l-7.244,21.402h12.964l7.244-21.402C225.642,297.43,226.05,264.129,224.821,248.628z"/>
<path style="fill:#F18C20;" d="M330.451,398.079l-8.344-46.886c-0.137-0.774-0.809-1.336-1.596-1.336H191.49  c-0.786,0-1.458,0.563-1.596,1.336l-8.344,46.886c-0.084,0.472,0.045,0.957,0.353,1.325c0.307,0.368,0.763,0.58,1.241,0.58h145.709  c0.479,0,0.934-0.212,1.241-0.58C330.405,399.035,330.535,398.55,330.451,398.079z"/>
<path style="fill:#ED8722;" d="M370.255,455.752H141.746c-0.895,0-1.621,0.726-1.621,1.621v33.381c0,0.895,0.726,1.621,1.621,1.621  h228.509c0.895,0,1.621-0.726,1.621-1.621v-33.381C371.876,456.477,371.15,455.752,370.255,455.752z"/>
<polygon style="fill:#F7971D;" points="336.832,384.857 175.166,384.857 155.8,456.293 356.2,456.293 "/>
<g>
	<polygon style="fill:#EB8423;" points="32.972,313.515 12.148,390.351 25.112,390.351 45.937,313.515  "/>
	<polygon style="fill:#EB8423;" points="175.166,384.857 155.8,456.293 168.765,456.293 188.13,384.857  "/>
</g>
<path style="fill:#F7971D;" d="M310.744,199.773h-0.709c3.45-7.634,5.28-15.978,5.28-24.453c0-29.957-22.328-54.782-51.212-58.747  V96.372c0-4.476-3.627-8.103-8.103-8.103s-8.103,3.627-8.103,8.103v20.202c-28.883,3.966-51.21,28.789-51.21,58.746  c0,8.512,1.802,16.811,5.267,24.453h-0.697c-10.31,0-18.698,8.388-18.698,18.698v10.177c0,10.31,8.388,18.698,18.698,18.698h109.488  c10.31,0,18.698-8.388,18.698-18.698v-10.177C329.441,208.161,321.054,199.773,310.744,199.773z"/>
<g>
	<path style="fill:#EB8423;" d="M212.636,153.756c4.502-13.516,14.596-27.305,35.261-37.182c-28.883,3.966-51.21,28.79-51.21,58.746   c0,8.513,1.801,16.811,5.267,24.454h-0.695c-10.311,0-18.7,8.387-18.7,18.696v10.177c0,10.31,8.389,18.698,18.7,18.698h11.884   c-10.311,0-18.7-8.388-18.7-18.698v-10.177c0-10.309,8.389-18.696,18.7-18.696h0.695c-3.466-7.642-5.267-15.941-5.267-24.454   C208.57,167.716,210.016,160.444,212.636,153.756z"/>
	<path style="fill:#EB8423;" d="M273.91,199.773h-71.33c-2.07,0-3.861,1.124-4.846,2.783c-1.729,0.402-3.553,0.842-4.784,1.15   c-2.88,0.721-5.043,6.482-5.043,7.354c0,0.872,5.402,15.693,6.537,7.41c0.836-6.105,5.88-7.218,8.479-7.382h70.989   c3.124,0,5.657-2.533,5.657-5.657C279.567,202.306,277.035,199.773,273.91,199.773z"/>
	<path style="fill:#EB8423;" d="M438.213,131.078c-2.929,0-5.301,2.374-5.301,5.3c0,2.929,2.372,5.301,5.301,5.301h29.458   c-3.036-6.233-9.416-10.549-16.804-10.549h-0.708c0.008-0.018,0.015-0.036,0.023-0.054h-11.969V131.078z"/>
	<path style="fill:#EB8423;" d="M298.03,199.773c-2.929,0-5.301,2.374-5.301,5.3c0,2.929,2.372,5.301,5.301,5.301h29.458   c-3.036-6.233-9.416-10.549-16.804-10.549h-0.708c0.008-0.018,0.015-0.036,0.023-0.054H298.03V199.773z"/>
	<path style="fill:#EB8423;" d="M158.079,131.08c-2.929,0-5.301,2.374-5.301,5.3c0,2.929,2.372,5.301,5.301,5.301h29.458   c-3.036-6.233-9.416-10.549-16.804-10.549h-0.708c0.008-0.018,0.015-0.036,0.023-0.054h-11.969V131.08z"/>
</g>
<g>
</g>
<g>
</g>
<g>
</g>
<g>
</g>
<g>
</g>
<g>
</g>
<g>
</g>
<g>
</g>
<g>
</g>
<g>
</g>
<g>
</g>
<g>
</g>
<g>
</g>
<g>
</g>
<g>
</g>
</svg>
