<?xml version="1.0" encoding="iso-8859-1"?>
<!-- Generator: Adobe Illustrator 19.0.0, SVG Export Plug-In . SVG Version: 6.00 Build 0)  -->
<svg xmlns="http://www.w3.org/2000/svg" xmlns:xlink="http://www.w3.org/1999/xlink" version="1.1" id="Layer_1" x="0px" y="0px" viewBox="0 0 491.53 491.53" style="enable-background:new 0 0 491.53 491.53;" xml:space="preserve">
<polygon style="fill:#3A556A;" points="491.52,456.904 34.621,456.904 34.621,0.005 25.684,0.005 25.684,19.652 8.937,19.652   8.937,28.589 25.684,28.589 25.684,45.167 0,45.167 0,54.103 25.684,54.103 25.684,70.676 8.937,70.676 8.937,79.613 25.684,79.613   25.684,96.186 8.937,96.186 8.937,105.123 25.684,105.123 25.684,121.696 0,121.696 0,130.633 25.684,130.633 25.684,147.206   8.937,147.206 8.937,156.143 25.684,156.143 25.684,172.72 8.937,172.72 8.937,181.657 25.684,181.657 25.684,198.23 0,198.23   0,207.167 25.684,207.167 25.684,223.74 8.937,223.74 8.937,232.676 25.684,232.676 25.684,249.249 8.937,249.249 8.937,258.186   25.684,258.186 25.684,274.759 0,274.759 0,283.696 25.684,283.696 25.684,300.273 8.937,300.273 8.937,309.21 25.684,309.21   25.684,325.783 8.937,325.783 8.937,334.72 25.684,334.72 25.684,351.293 0,351.293 0,360.23 25.684,360.23 25.684,376.803   8.937,376.803 8.937,385.74 25.684,385.74 25.684,402.313 8.937,402.313 8.937,411.249 25.684,411.249 25.684,427.827 0,427.827   0,436.764 25.684,436.764 25.684,465.841 54.297,465.841 54.297,491.525 63.233,491.525 63.233,465.841 79.811,465.841   79.811,482.588 88.748,482.588 88.748,465.841 105.321,465.841 105.321,482.588 114.257,482.588 114.257,465.841 130.831,465.841   130.831,491.525 139.767,491.525 139.767,465.841 156.34,465.841 156.34,482.588 165.277,482.588 165.277,465.841 181.85,465.841   181.85,482.588 190.787,482.588 190.787,465.841 207.364,465.841 207.364,491.525 216.301,491.525 216.301,465.841 232.874,465.841   232.874,482.588 241.811,482.588 241.811,465.841 258.384,465.841 258.384,482.588 267.321,482.588 267.321,465.841   283.894,465.841 283.894,491.525 292.831,491.525 292.831,465.841 309.404,465.841 309.404,482.588 318.34,482.588 318.34,465.841   334.918,465.841 334.918,482.588 343.855,482.588 343.855,465.841 360.428,465.841 360.428,491.525 369.364,491.525   369.364,465.841 385.937,465.841 385.937,482.588 394.874,482.588 394.874,465.841 411.447,465.841 411.447,482.588   420.384,482.588 420.384,465.841 436.957,465.841 436.957,491.525 445.894,491.525 445.894,465.841 462.471,465.841   462.471,482.588 471.408,482.588 471.408,465.841 491.52,465.841 "/>
<polygon style="fill:#64798A;" points="103.649,385.225 91.081,372.527 217.391,247.469 343.256,357.285 450.575,232.271   464.137,243.913 345.089,382.594 218.159,271.862 "/>
<circle style="fill:#FCD462;" cx="97.382" cy="378.875" r="34.161"/>
<circle style="fill:#27A2DB;" cx="217.774" cy="259.666" r="34.161"/>
<circle style="fill:#44C4A1;" cx="344.166" cy="369.925" r="34.161"/>
<circle style="fill:#E56353;" cx="457.37" cy="238.085" r="34.161"/>
<polygon style="fill:#64798A;" points="103.649,208.11 91.081,195.411 217.391,70.354 343.256,180.169 450.575,55.155   464.137,66.798 345.089,205.478 218.159,94.747 "/>
<circle style="fill:#44C4A1;" cx="97.382" cy="201.784" r="34.161"/>
<circle style="fill:#DC8744;" cx="217.774" cy="82.54" r="34.161"/>
<circle style="fill:#E56353;" cx="344.166" cy="192.824" r="34.161"/>
<circle style="fill:#27A2DB;" cx="457.37" cy="60.974" r="34.161"/>
<g>
</g>
<g>
</g>
<g>
</g>
<g>
</g>
<g>
</g>
<g>
</g>
<g>
</g>
<g>
</g>
<g>
</g>
<g>
</g>
<g>
</g>
<g>
</g>
<g>
</g>
<g>
</g>
<g>
</g>
</svg>
