<?xml version="1.0" encoding="iso-8859-1"?>
<!-- Generator: Adobe Illustrator 19.0.0, SVG Export Plug-In . SVG Version: 6.00 Build 0)  -->
<svg xmlns="http://www.w3.org/2000/svg" xmlns:xlink="http://www.w3.org/1999/xlink" version="1.1" id="Layer_1" x="0px" y="0px" viewBox="0 0 512 512" style="enable-background:new 0 0 512 512;" xml:space="preserve">
<g>
	<path style="fill:#D9D8DA;" d="M38.917,377.469c-2.09,0-4.181-0.797-5.778-2.392c-3.191-3.192-3.191-8.364,0-11.556L385.322,11.337   c3.192-3.19,8.364-3.19,11.555,0c3.191,3.192,3.191,8.364,0,11.555L44.695,375.077C43.099,376.672,41.007,377.469,38.917,377.469z"/>
	<path style="fill:#D9D8DA;" d="M400.041,80.148c-4.513,0-8.17-3.657-8.17-8.17V16.342l-55.638-0.001c-4.512,0-8.17-3.658-8.17-8.17   S331.72,0,336.233,0l0,0l63.808,0.001c4.512,0,8.17,3.658,8.17,8.17v63.806C408.211,76.491,404.554,80.148,400.041,80.148z"/>
</g>
<path style="fill:#EF4C35;" d="M48.053,410.629c-10.532,0.249-12.092,5.599-12.29,7.723V512h152.128V410.629H48.053z"/>
<path style="fill:#F7971D;" d="M193.787,282.786c-9.166,0.496-11.003,5.056-11.344,7.304V512h152.128V282.786H193.787z"/>
<path style="fill:#FCD638;" d="M468.255,145.183H342.198c-11.637,0-12.956,5.97-13.072,7.958V512h152.129V152.479  C480.867,150.077,478.788,145.183,468.255,145.183z"/>
<path style="fill:#DF3126;" d="M35.763,418.352V512h13.072V410.629h-0.782C37.521,410.88,35.961,416.229,35.763,418.352z"/>
<path style="fill:#F37521;" d="M182.444,290.09V512h13.072V282.786h-1.729C184.621,283.281,182.786,287.842,182.444,290.09z"/>
<path style="fill:#F9B338;" d="M329.126,153.141V512h13.072V145.183C330.561,145.183,329.242,151.154,329.126,153.141z"/>
<g>
	<path style="fill:#FFFFFF;" d="M151.751,454.633H70.049c-4.513,0-8.17-3.657-8.17-8.17c0-4.512,3.657-8.17,8.17-8.17h81.702   c4.513,0,8.17,3.658,8.17,8.17S156.264,454.633,151.751,454.633z"/>
	<path style="fill:#FFFFFF;" d="M298.947,326.791h-81.702c-4.513,0-8.17-3.658-8.17-8.17c0-4.513,3.657-8.17,8.17-8.17h81.702   c4.513,0,8.17,3.657,8.17,8.17C307.117,323.133,303.459,326.791,298.947,326.791z"/>
	<path style="fill:#FFFFFF;" d="M446.041,189.187h-81.702c-4.512,0-8.17-3.657-8.17-8.17c0-4.513,3.658-8.17,8.17-8.17h81.702   c4.513,0,8.17,3.657,8.17,8.17S450.553,189.187,446.041,189.187z"/>
</g>
<g>
</g>
<g>
</g>
<g>
</g>
<g>
</g>
<g>
</g>
<g>
</g>
<g>
</g>
<g>
</g>
<g>
</g>
<g>
</g>
<g>
</g>
<g>
</g>
<g>
</g>
<g>
</g>
<g>
</g>
</svg>
