<?xml version="1.0" encoding="iso-8859-1"?>
<!-- Generator: Adobe Illustrator 19.0.0, SVG Export Plug-In . SVG Version: 6.00 Build 0)  -->
<svg xmlns="http://www.w3.org/2000/svg" xmlns:xlink="http://www.w3.org/1999/xlink" version="1.1" id="Layer_1" x="0px" y="0px" viewBox="0 0 512 512" style="enable-background:new 0 0 512 512;" xml:space="preserve">
<path style="fill:#F3F3F3;" d="M442.607,67.2C402.074,25.6,344.474,0,281.54,0c-124.8,0-227.2,101.333-227.2,227.2L3.14,349.867  c-3.2,6.4,2.133,13.867,9.6,13.867h42.667v46.933c0,24.533,19.2,43.733,43.733,43.733h41.6V512h273.067v-2.133  c0-53.333,19.2-103.467,51.2-146.133c28.8-38.4,44.8-85.333,44.8-136.533C509.807,164.267,484.207,107.733,442.607,67.2z"/>
<path style="fill:#344A5E;" d="M250.607,375.467c4.267,10.667,14.933,18.133,27.733,18.133c12.8,0,23.467-7.467,27.733-18.133  H250.607z"/>
<path style="fill:#FFD15C;" d="M231.407,320h91.733c4.267-10.667,10.667-20.267,19.2-28.8c19.2-19.2,28.8-46.933,25.6-76.8  c-5.333-40.533-39.467-73.6-80-77.867c-54.4-6.4-101.333,37.333-101.333,90.667c0,24.533,9.6,45.867,24.533,62.933  C220.74,298.667,227.14,309.333,231.407,320z"/>
<path style="fill:#F7B64C;" d="M330.607,217.6c-5.333,5.333-12.8,8.533-20.267,8.533c-1.067,0-2.133,0-4.267,0L292.207,320h-11.733  l14.933-99.2c-2.133-1.067-3.2-2.133-5.333-4.267c-6.4-6.4-17.067-6.4-23.467,0c-1.067,1.067-3.2,3.2-5.333,4.267l14.933,99.2  h-11.733l-13.867-94.933c-8.533,1.067-18.133-2.133-24.533-8.533c-2.133-2.133-2.133-6.4,0-8.533c2.133-2.133,6.4-2.133,8.533,0  c6.4,6.4,17.067,6.4,24.533,0c11.733-11.733,29.867-11.733,40.533,0c6.4,6.4,17.067,6.4,23.467,0c2.133-2.133,6.4-2.133,8.533,0  C332.74,211.2,332.74,215.467,330.607,217.6z"/>
<path style="fill:#344A5E;" d="M231.407,328.533V368c0,6.4,5.333,11.733,11.733,11.733h68.267c6.4,0,11.733-5.333,11.733-11.733  v-39.467H231.407z"/>
<g>
	<path style="fill:#415A6B;" d="M323.14,334.933h-91.733c-4.267,0-7.467-3.2-7.467-7.467c0-4.267,3.2-7.467,7.467-7.467h91.733   c4.267,0,7.467,3.2,7.467,7.467C330.607,331.733,327.407,334.933,323.14,334.933z"/>
	<path style="fill:#415A6B;" d="M323.14,366.933h-91.733c-4.267,0-7.467-3.2-7.467-7.467c0-4.267,3.2-7.467,7.467-7.467h91.733   c4.267,0,7.467,3.2,7.467,7.467C331.674,362.667,327.407,366.933,323.14,366.933z"/>
</g>
<g>
	<path style="fill:#FFD15C;" d="M278.34,128h-1.067c-3.2,0-5.333-2.133-5.333-5.333V108.8c0-3.2,2.133-5.333,5.333-5.333h1.067   c3.2,0,5.333,2.133,5.333,5.333v13.867C283.674,124.8,281.54,128,278.34,128z"/>
	<path style="fill:#FFD15C;" d="M228.207,140.8l-1.067,1.067c-2.133,1.067-5.333,1.067-7.467-2.133l-6.4-12.8   c-1.067-2.133-1.067-5.333,2.133-7.467l1.067-1.067c2.133-1.067,5.333-1.067,7.467,2.133l7.467,12.8   C232.474,135.467,231.407,138.667,228.207,140.8z"/>
	<path style="fill:#FFD15C;" d="M191.94,177.067l-1.067,1.067c-1.067,2.133-4.267,3.2-7.467,2.133l-12.8-7.467   c-2.133-1.067-3.2-4.267-2.133-7.467l1.067-1.067c1.067-2.133,4.267-3.2,7.467-2.133l12.8,7.467   C191.94,170.667,193.007,173.867,191.94,177.067z"/>
	<path style="fill:#FFD15C;" d="M178.074,226.133v1.067c0,3.2-2.133,5.333-5.333,5.333h-13.867c-3.2,0-5.333-2.133-5.333-5.333   v-1.067c0-3.2,2.133-5.333,5.333-5.333h13.867C175.94,221.867,178.074,224,178.074,226.133z"/>
	<path style="fill:#FFD15C;" d="M190.874,276.267l1.067,1.067c1.067,2.133,1.067,5.333-2.133,7.467l-12.8,7.467   c-2.133,1.067-5.333,1.067-7.467-2.133l-1.067-1.067c-1.067-2.133-1.067-5.333,2.133-7.467l12.8-7.467   C186.607,273.067,189.807,274.133,190.874,276.267z"/>
	<path style="fill:#FFD15C;" d="M363.674,277.333l1.067-1.067c1.067-2.133,4.267-3.2,7.467-2.133l12.8,7.467   c2.133,1.067,3.2,4.267,2.133,7.467l-1.067,1.067c-1.067,2.133-4.267,3.2-7.467,2.133l-12.8-7.467   C363.674,283.733,362.607,280.533,363.674,277.333z"/>
	<path style="fill:#FFD15C;" d="M377.54,228.267V227.2c0-3.2,2.133-5.333,5.333-5.333h13.867c3.2,0,5.333,2.133,5.333,5.333v1.067   c0,3.2-2.133,5.333-5.333,5.333h-13.867C379.674,233.6,377.54,230.4,377.54,228.267z"/>
	<path style="fill:#FFD15C;" d="M364.74,178.133l-1.067-1.067c-1.067-2.133-1.067-5.333,2.133-7.467l12.8-7.467   c2.133-1.067,5.333-1.067,7.467,2.133l1.067,1.067c1.067,2.133,1.067,5.333-2.133,7.467l-12.8,7.467   C369.007,181.333,365.807,180.267,364.74,178.133z"/>
	<path style="fill:#FFD15C;" d="M328.474,140.8l-1.067-1.067c-2.133-1.067-3.2-4.267-2.133-7.467l7.467-12.8   c1.067-2.133,4.267-3.2,7.467-2.133l1.067,1.067c2.133,1.067,3.2,4.267,2.133,7.467l-7.467,12.8   C333.807,141.867,330.607,142.933,328.474,140.8z"/>
</g>
<g>
</g>
<g>
</g>
<g>
</g>
<g>
</g>
<g>
</g>
<g>
</g>
<g>
</g>
<g>
</g>
<g>
</g>
<g>
</g>
<g>
</g>
<g>
</g>
<g>
</g>
<g>
</g>
<g>
</g>
</svg>
