<?xml version="1.0" encoding="iso-8859-1"?>
<!-- Generator: Adobe Illustrator 19.0.0, SVG Export Plug-In . SVG Version: 6.00 Build 0)  -->
<svg xmlns="http://www.w3.org/2000/svg" xmlns:xlink="http://www.w3.org/1999/xlink" version="1.1" id="Layer_1" x="0px" y="0px" viewBox="0 0 512 512" style="enable-background:new 0 0 512 512;" xml:space="preserve">
<path style="fill:#E8EAE9;" d="M478.841,285.867c8.533-58.667-27.733-93.867-73.6-91.733c1.067-7.467,3.2-16,4.267-24.533h-377.6  C53.241,288,68.174,419.2,117.241,466.133h208c17.067-16,29.867-42.667,40.533-75.733  C419.108,388.267,468.174,343.467,478.841,285.867z M447.908,280.533c-6.4,37.333-39.467,72.533-73.6,77.867  c10.667-39.467,18.133-85.333,25.6-132.267C439.374,219.733,453.241,252.8,447.908,280.533z"/>
<g>
	<path style="fill:#8AD7F8;" d="M160.974,131.2L160.974,131.2c-5.333,0-9.6-4.267-9.6-9.6V61.867c0-5.333,4.267-9.6,9.6-9.6l0,0   c5.333,0,9.6,4.267,9.6,9.6v58.667C170.574,125.867,166.308,131.2,160.974,131.2z"/>
	<path style="fill:#8AD7F8;" d="M220.708,77.867L220.708,77.867c-5.333,0-9.6-4.267-9.6-9.6V9.6c0-5.333,4.267-9.6,9.6-9.6l0,0   c5.333,0,9.6,4.267,9.6,9.6v58.667C230.308,73.6,226.041,77.867,220.708,77.867z"/>
	<path style="fill:#8AD7F8;" d="M280.441,131.2L280.441,131.2c-5.333,0-9.6-4.267-9.6-9.6V61.867c0-5.333,4.267-9.6,9.6-9.6l0,0   c5.333,0,9.6,4.267,9.6,9.6v58.667C290.041,125.867,285.774,131.2,280.441,131.2z"/>
</g>
<polygon style="fill:#415A6B;" points="407.374,466.133 34.041,466.133 61.774,512 378.574,512 "/>
<path style="fill:#FFD15C;" d="M187.641,226.133h-54.4l-19.2,20.267v81.067c0,5.333,4.267,9.6,9.6,9.6h73.6  c5.333,0,9.6-4.267,9.6-9.6V246.4L187.641,226.133z M160.974,276.267c-7.467,0-12.8-5.333-12.8-12.8c0-7.467,5.333-12.8,12.8-12.8  s12.8,5.333,12.8,12.8C173.774,270.933,167.374,276.267,160.974,276.267z"/>
<path style="fill:#415A6B;" d="M154.574,169.6v90.667c0,3.2,3.2,6.4,6.4,6.4s6.4-3.2,6.4-6.4V169.6H154.574z"/>
<g>
</g>
<g>
</g>
<g>
</g>
<g>
</g>
<g>
</g>
<g>
</g>
<g>
</g>
<g>
</g>
<g>
</g>
<g>
</g>
<g>
</g>
<g>
</g>
<g>
</g>
<g>
</g>
<g>
</g>
</svg>
