<?xml version="1.0" encoding="iso-8859-1"?>
<!-- Generator: Adobe Illustrator 19.0.0, SVG Export Plug-In . SVG Version: 6.00 Build 0)  -->
<svg xmlns="http://www.w3.org/2000/svg" xmlns:xlink="http://www.w3.org/1999/xlink" version="1.1" id="Layer_1" x="0px" y="0px" viewBox="0 0 491.52 491.52" style="enable-background:new 0 0 491.52 491.52;" xml:space="preserve">
<g>
	<path style="fill:#EBF0F3;" d="M488.179,16.371c0.153,1.619,0.29,3.389,0.404,5.288C488.468,19.76,488.334,17.99,488.179,16.371z"/>
	<path style="fill:#EBF0F3;" d="M487.158,8.204c0.332,2.068,0.701,4.784,1.016,8.103C487.856,12.987,487.491,10.266,487.158,8.204z"/>
	<path style="fill:#EBF0F3;" d="M486.392,4.091c0.065,0.296,0.153,0.725,0.252,1.225C486.542,4.8,486.458,4.39,486.392,4.091z"/>
	<path style="fill:#EBF0F3;" d="M486.725,5.738c0.124,0.649,0.261,1.419,0.41,2.333C486.985,7.154,486.85,6.385,486.725,5.738z"/>
	<path style="fill:#EBF0F3;" d="M486.239,3.419c0,0,0.047,0.201,0.104,0.448C486.279,3.59,486.239,3.419,486.239,3.419z"/>
</g>
<g>
	<path style="fill:#E56353;" d="M487.135,8.071c0.008,0.047,0.015,0.085,0.023,0.133C487.15,8.154,487.143,8.12,487.135,8.071z"/>
	<path style="fill:#E56353;" d="M486.644,5.317c0.026,0.131,0.054,0.276,0.081,0.421C486.695,5.578,486.671,5.46,486.644,5.317z"/>
	<path style="fill:#E56353;" d="M486.343,3.866c0.012,0.055,0.033,0.157,0.049,0.225C486.369,3.992,486.36,3.942,486.343,3.866z"/>
	<path style="fill:#E56353;" d="M488.583,21.659c0.006,0.08,0.01,0.157,0.015,0.237C488.594,21.816,488.589,21.739,488.583,21.659z"/>
	<path style="fill:#E56353;" d="M488.173,16.306c0.002,0.02,0.005,0.044,0.006,0.064C488.177,16.349,488.175,16.327,488.173,16.306z   "/>
	<path style="fill:#E56353;" d="M13.653,281.926c53.632-53.632,140.587-53.632,194.219,0s53.633,140.588,0.001,194.22   c-3.433,3.433-7.011,6.631-10.699,9.625c27.233-6.744,53.069-20.576,74.354-41.861c62.309-62.309,62.31-163.331,0-225.641   c-62.308-62.308-163.331-62.309-225.641,0c-21.285,21.285-35.118,47.122-41.861,74.356C7.021,288.937,10.22,285.359,13.653,281.926   z"/>
</g>
<g>
	<path style="fill:#EBF0F3;" d="M486.239,3.419c0,0-113.308-33.293-254.515,107.913c-59.636,59.636-109.74,131.207-127.614,182.576   l91.641,91.641c51.367-17.874,122.94-67.978,182.576-127.614C515.869,120.392,486.239,3.419,486.239,3.419z"/>
	<path style="fill:#EBF0F3;" d="M482.97,82.981c-0.804,3.543-1.709,7.18-2.723,10.906C481.262,90.159,482.167,86.525,482.97,82.981z   "/>
	<path style="fill:#EBF0F3;" d="M483.091,82.46c5.834-25.975,6.331-46.816,5.508-60.564   C489.409,35.653,488.926,56.507,483.091,82.46z"/>
	<path style="fill:#EBF0F3;" d="M480.121,94.359c-2.142,7.816-4.765,16.017-7.97,24.567   C475.358,110.373,477.98,102.179,480.121,94.359z"/>
</g>
<g>
	<path style="fill:#E56353;" d="M486.239,3.419c0,0-46.167-13.482-116.236,13.383l84.144,84.144   C487.639,39.663,486.239,3.419,486.239,3.419z"/>
	<path style="fill:#E56353;" d="M480.248,93.887c-0.043,0.159-0.083,0.314-0.126,0.473   C480.165,94.201,480.205,94.046,480.248,93.887z"/>
	<path style="fill:#E56353;" d="M483.091,82.46c-0.039,0.172-0.081,0.347-0.12,0.52C483.01,82.807,483.051,82.633,483.091,82.46z"/>
	<path style="fill:#E56353;" d="M472.145,118.943l0.004-0.012L472.145,118.943z"/>
</g>
<path style="fill:#D15241;" d="M472.151,118.926c3.205-8.549,5.828-16.751,7.97-24.567c0.044-0.158,0.084-0.313,0.126-0.473  c1.013-3.726,1.919-7.363,2.723-10.906c0.04-0.173,0.081-0.348,0.12-0.52c5.835-25.954,6.318-46.808,5.508-60.564  c-0.006-0.08-0.01-0.157-0.015-0.237c-0.114-1.899-0.251-3.669-0.404-5.288c-0.001-0.021-0.004-0.044-0.006-0.064  c-0.315-3.319-0.684-6.035-1.016-8.103c-0.008-0.048-0.014-0.086-0.023-0.133c-0.149-0.914-0.286-1.684-0.41-2.333  c-0.027-0.145-0.055-0.289-0.081-0.421c-0.099-0.501-0.188-0.929-0.252-1.225c-0.016-0.068-0.038-0.17-0.049-0.225  c-0.057-0.247-0.104-0.448-0.104-0.448s1.4,36.244-32.092,97.526l17.998,17.998C472.145,118.943,472.149,118.932,472.151,118.926z"/>
<g transform="matrix(0.70711 -0.70711 0.70711 0.70711 1.699 59.07)">
	
		<ellipse transform="matrix(-0.7071 -0.7071 0.7071 -0.7071 130.8527 660.7466)" style="fill:#E56353;" cx="202.271" cy="303.273" rx="43.044" ry="43.044"/>
	
		<ellipse transform="matrix(-0.7071 -0.7071 0.7071 -0.7071 130.8527 660.7466)" style="fill:#27A2DB;" cx="202.271" cy="303.273" rx="35.077" ry="35.077"/>
</g>
<path style="fill:#2D93BA;" d="M336.486,112.003c12.534-12.534,32.856-12.533,45.389,0c12.173,12.173,12.419,31.631,0.949,44.228  c0.373-0.342,0.799-0.588,1.16-0.949c13.699-13.699,13.7-35.91,0.001-49.609c-13.699-13.699-35.91-13.699-49.609,0.001  c-13.699,13.699-13.7,35.909,0,49.609c0.362,0.362,0.789,0.607,1.161,0.948C324.067,143.634,324.314,124.176,336.486,112.003z"/>
<g>
	<path style="fill:#E1E6E9;" d="M224.138,333.235l26.013,26.013c-3.119,1.848-6.194,3.597-9.256,5.311l-26.013-26.013   c-16.08,9.006-31.354,16.191-45.145,20.989l26.013,26.013c20.727-7.212,44.764-19.739,69.959-35.955l-26.013-26.013   C234.456,326.953,229.257,330.201,224.138,333.235z"/>
	<path style="fill:#E1E6E9;" d="M265.75,349.568c37.233-23.97,77.016-56.073,112.576-91.633   c50.755-50.755,78.703-98.683,93.819-138.992l-17.998-17.998c-19.586,35.838-51.079,80.222-101.834,130.977   c-32.781,32.781-69.159,62.642-103.816,85.892l26.013,26.013C271.572,345.798,268.658,347.696,265.75,349.568z"/>
</g>
<g>
	<polygon style="fill:#FCD462;" points="265.75,349.568 265.709,349.594 265.709,349.594  "/>
	<path style="fill:#FCD462;" d="M145.83,215.148c-1.979,2.951-3.886,5.879-5.766,8.801l99.632,99.632   c2.922-1.881,5.85-3.787,8.801-5.767L145.83,215.148z"/>
</g>
<path style="fill:#F6C358;" d="M274.51,343.827l-26.013-26.013c-2.951,1.98-5.879,3.886-8.801,5.767l26.013,26.013  c0.012-0.009,0.027-0.018,0.041-0.026C268.658,347.696,271.572,345.798,274.51,343.827z"/>
<path style="fill:#FCD462;" d="M130.409,239.506c-1.848,3.119-3.597,6.194-5.311,9.256l89.785,89.785  c3.062-1.714,6.137-3.463,9.256-5.311L130.409,239.506z"/>
<path style="fill:#F6C358;" d="M250.151,359.249l-26.013-26.013c-3.119,1.848-6.194,3.597-9.256,5.311l26.013,26.013  C243.958,362.846,247.033,361.097,250.151,359.249z"/>
<polyline style="fill:#64798A;" points="104.109,293.908 78.868,303.978 185.737,410.847 195.808,385.606 "/>
<path style="fill:#E56353;" d="M147.208,416.133c-10.9,30.999-46.238,40.056-46.238,40.056c8.208-13.205,2.855-34.261,2.855-34.261  c-38.9,43.896-68.69,32.664-68.69,32.664c-6.593-28.006,41.21-65.14,41.21-65.14c-12.848,3.569-26.766-3.926-26.766-3.926  c10.587-34.409,33.736-32.932,37.058-32.533c-5.365-0.696-61.483-6.789-71.675,41.455c0,0,18.558,8.565,36.759,5.353  c0,0-57.101,42.112-48.179,87.436c0,0,37.829,9.279,89.577-46.038c0,0-32.476,40.328-32.476,50.32  C60.642,491.52,133.056,478.632,147.208,416.133z"/>
<g>
	<path style="fill:#FCD462;" d="M147.208,416.133c3.127-8.891,4.247-19.584,1.941-32.391   C150.193,395.8,149.379,406.544,147.208,416.133z"/>
	<path style="fill:#FCD462;" d="M86.636,352.994c0.271,0.035,0.415,0.057,0.415,0.057S86.898,353.025,86.636,352.994z"/>
	<path style="fill:#FCD462;" d="M49.579,385.526c0,0,13.918,7.495,26.766,3.926c0,0-47.803,37.134-41.21,65.14   c0,0,29.79,11.232,68.69-32.664c0,0,5.353,21.056-2.855,34.261c0,0,35.339-9.057,46.238-40.056   c2.171-9.589,2.985-20.334,1.941-32.391c-10.349,28.194-29.978,41.398-29.978,41.398c11.063-29.621,3.212-36.759,3.212-36.759   c-21.77,33.904-44.37,27.72-44.37,27.72c-0.117-19.388,25.455-39.497,25.455-39.497c-4.996,3.569-29.978,0.714-29.978,0.714   c0.714-14.989,13.561-24.268,13.561-24.268s-0.144-0.021-0.415-0.057C83.314,352.595,60.166,351.117,49.579,385.526z"/>
</g>
<ellipse transform="matrix(-0.7071 -0.7071 0.7071 -0.7071 131.4223 638.2308)" style="fill:#E56353;" cx="197.893" cy="291.897" rx="11.541" ry="121.872"/>
<path style="fill:#D15241;" d="M195.496,289.501c36.872-36.872,70.442-66.048,85.832-75.269c2.681-4.476,3.761-7.492,2.745-8.508  c-4.507-4.507-46.744,30.421-94.338,78.015c-47.594,47.594-82.523,89.83-78.015,94.338c1.016,1.016,4.032-0.064,8.508-2.745  C129.449,359.943,158.625,326.372,195.496,289.501z"/>
<g>
</g>
<g>
</g>
<g>
</g>
<g>
</g>
<g>
</g>
<g>
</g>
<g>
</g>
<g>
</g>
<g>
</g>
<g>
</g>
<g>
</g>
<g>
</g>
<g>
</g>
<g>
</g>
<g>
</g>
</svg>
