<?xml version="1.0" encoding="iso-8859-1"?>
<!-- Generator: Adobe Illustrator 19.0.0, SVG Export Plug-In . SVG Version: 6.00 Build 0)  -->
<svg xmlns="http://www.w3.org/2000/svg" xmlns:xlink="http://www.w3.org/1999/xlink" version="1.1" id="Layer_1" x="0px" y="0px" viewBox="0 0 512.003 512.003" style="enable-background:new 0 0 512.003 512.003;" xml:space="preserve">
<path style="fill:#C8D0E2;" d="M450.482,377.149l44.009,44.011c0.004,0.003,0.007,0.007,0.011,0.01  c10.724,10.724,11.175-0.41,11.146-2.947l-0.368-12.974c-0.761-26.744-11.552-51.845-30.386-70.68  c-19.622-19.62-45.716-30.425-73.475-30.425c-10.657,0-21.195,1.617-31.323,4.806l-1.17,0.063l-1.4,0.47  c-26.598,8.905-48.691,28.638-60.614,54.14l-0.804,1.72l-0.139,1.478c-17.028,39.399-8.454,84.401,21.91,114.766  c19.617,19.614,45.703,30.416,73.451,30.416c7.776,0,15.529-0.863,23.044-2.566l4.844-1.098l1.215-0.276  c3.377-0.893,12.072-4.205,3.082-13.194l-50.39-50.39l8.99-57.515L450.482,377.149z"/>
<path style="fill:#A6B7D0;" d="M203.645,140.891l-7.102,12.426c-10.131,17.725-25.92,32.135-44.459,40.572l-14.351,6.533  l170.75,170.749l7.111-12.396c10.169-17.73,25.977-32.117,44.512-40.513l14.39-6.519L203.645,140.891z"/>
<path style="fill:#89A2C0;" d="M155.47,206.136L155.47,206.136c27.607-9.111,51.422-39.086,58.031-55.387l-2.204-2.204l-7.653-7.653  l-7.102,12.426c-10.131,17.725-25.92,32.135-44.459,40.573l-14.351,6.533l170.75,170.749l4.384-7.642l-92.833-92.832L155.47,206.136  z"/>
<g>
	<path style="fill:#C8D0E2;" d="M184.191,30.419C164.576,10.804,138.494,0,110.745,0c-7.772,0-15.528,0.864-23.051,2.568   l-8.619,1.953c-0.004,0-0.007,0.001-0.011,0.002c-8.934,1.981-5.507,7.339-3.195,9.93l1.437,1.437l0.007,0.007l51.63,51.63   l-8.99,57.514l-58.367,9.815L14.663,87.93v0.001c0,0-0.008-0.008-0.011-0.012l-0.508-0.508c-1.861-1.775-8.102-6.902-7.776,4.572   c0,0.019,0,0.032,0,0.05l0.419,14.721c0.76,26.746,11.552,51.849,30.388,70.683c19.619,19.619,45.712,30.424,73.469,30.424   c10.621,0,21.122-1.606,31.215-4.77l1.513,0.02l1.796-0.616c26.324-9.029,48.187-28.694,59.985-53.952l0.848-1.819l0.117-1.583   C223.122,105.748,214.542,60.771,184.191,30.419z"/>
	<path style="fill:#C8D0E2;" d="M429.38,39.937h-91.521l-45.763,79.26l45.763,79.261h91.521l45.762-79.261L429.38,39.937z    M378.264,154.364c-0.008-0.002-0.014-0.003-0.022-0.004l-0.124-0.02c-0.391-0.062-0.783-0.13-1.171-0.206l-0.643-0.129   c-1.644-0.342-3.277-0.806-4.869-1.386l-0.137-0.052c-0.484-0.178-0.966-0.366-1.36-0.531l-0.178-0.073   c-0.976-0.413-1.957-0.884-2.959-1.421l-0.297-0.163c-0.357-0.199-0.712-0.401-1.025-0.587l-0.4-0.238   c-0.409-0.25-0.816-0.506-1.214-0.773l-0.575-0.432c-5.432-3.804-9.689-9.005-12.311-15.046l-0.223-0.481   c-0.183-0.438-0.354-0.884-0.524-1.347l-0.176-0.509c-0.118-0.339-0.237-0.677-0.348-1.029c-0.069-0.218-0.132-0.436-0.208-0.698   c-0.084-0.286-0.167-0.572-0.246-0.869c-0.07-0.265-0.138-0.528-0.195-0.759c-0.067-0.278-0.128-0.558-0.184-0.81   c-0.062-0.285-0.122-0.57-0.172-0.817c-0.046-0.241-0.085-0.482-0.126-0.725l-0.026-0.155c-0.044-0.25-0.089-0.501-0.131-0.799   l-0.07-0.582c-0.1-0.781-0.172-1.547-0.216-2.275l-0.025-0.345c-0.004-0.06-0.009-0.12-0.013-0.183   c-0.027-0.571-0.042-1.146-0.042-1.721c0-0.655,0.021-1.304,0.057-1.949c0.066-1.198,0.189-2.393,0.368-3.544   c0.082-0.532,0.177-1.059,0.278-1.552l0.149-0.66c0.074-0.338,0.148-0.675,0.236-1.024l0.168-0.616   c0.091-0.33,0.18-0.66,0.28-0.985c0.055-0.179,0.114-0.359,0.173-0.537l0.046-0.14c0.099-0.307,0.201-0.614,0.308-0.915l0.242-0.65   c0.115-0.302,0.234-0.603,0.36-0.91c0.091-0.215,0.18-0.431,0.267-0.632c0.133-0.305,0.272-0.609,0.415-0.917   c0.093-0.199,0.186-0.397,0.289-0.603c0.144-0.295,0.295-0.584,0.461-0.898l0.304-0.575c0.168-0.307,0.347-0.609,0.53-0.918   l0.285-0.487c0.22-0.36,0.449-0.71,0.708-1.101l0.175-0.276c0.298-0.437,0.602-0.868,0.892-1.257   c0.073-0.094,0.142-0.183,0.19-0.247c0.292-0.386,0.586-0.764,0.882-1.123l0.362-0.422c0.238-0.283,0.479-0.564,0.719-0.833   l0.415-0.444c0.236-0.254,0.472-0.506,0.726-0.763c0.12-0.121,0.244-0.242,0.441-0.433c0.235-0.228,0.471-0.457,0.75-0.713   c0.153-0.142,0.309-0.283,0.467-0.423c0.25-0.222,0.503-0.442,0.738-0.641c0.169-0.142,0.339-0.284,0.514-0.426   c0.255-0.206,0.513-0.408,0.835-0.655c0.155-0.119,0.31-0.241,0.482-0.367c0.278-0.206,0.563-0.403,0.844-0.6l0.478-0.332   c0.316-0.21,0.636-0.413,0.978-0.626l0.417-0.265c0.421-0.253,0.846-0.496,1.228-0.706c0.096-0.052,0.195-0.108,0.295-0.165   c0.456-0.247,0.918-0.482,1.375-0.703l0.366-0.167c0.377-0.177,0.754-0.353,1.173-0.531l0.531-0.213   c0.327-0.133,0.652-0.266,0.98-0.388l0.614-0.216c0.326-0.114,0.652-0.227,0.936-0.32c0.225-0.07,0.452-0.138,0.668-0.203   c0.323-0.096,0.645-0.19,0.942-0.27c0.241-0.063,0.481-0.125,0.68-0.175c0.333-0.081,0.666-0.16,0.992-0.23   c0.225-0.049,0.45-0.097,0.685-0.143c0.337-0.067,0.676-0.124,0.978-0.175l0.712-0.116c0.349-0.051,0.702-0.092,1.041-0.131   l0.644-0.077c0.386-0.036,0.773-0.062,1.199-0.089l0.534-0.04c0.584-0.027,1.17-0.045,1.761-0.045h0.002   c0.589,0,1.175,0.017,1.72,0.043l0.6,0.044c0.394,0.025,0.785,0.05,1.118,0.082l0.723,0.085c0.344,0.039,0.69,0.079,0.993,0.124   l0.728,0.118c0.328,0.056,0.658,0.112,0.978,0.175c0.235,0.046,0.47,0.096,0.699,0.146c0.323,0.07,0.643,0.144,0.949,0.219   c0.231,0.058,0.46,0.116,0.722,0.187c0.303,0.08,0.605,0.167,0.921,0.261c0.225,0.068,0.45,0.133,0.658,0.2   c0.315,0.102,0.626,0.209,0.946,0.321l0.653,0.232c0.31,0.115,0.618,0.242,0.941,0.373l0.597,0.243   c0.354,0.151,0.704,0.314,1.078,0.49l0.421,0.191c0.495,0.239,0.984,0.49,1.383,0.706l0.386,0.22   c0.37,0.206,0.738,0.412,1.134,0.653l0.48,0.304c0.3,0.189,0.6,0.377,0.878,0.562l0.552,0.385c0.268,0.187,0.535,0.373,0.792,0.562   c0.178,0.131,0.353,0.266,0.574,0.437c0.242,0.185,0.48,0.371,0.74,0.582c0.183,0.148,0.363,0.297,0.525,0.434   c0.244,0.206,0.483,0.414,0.718,0.622c0.177,0.159,0.352,0.316,0.523,0.473c0.233,0.214,0.459,0.433,0.75,0.717   c0.143,0.139,0.286,0.278,0.431,0.423c0.225,0.23,0.445,0.466,0.669,0.705l0.446,0.479c0.232,0.258,0.456,0.524,0.69,0.797   l0.398,0.465c0.266,0.325,0.523,0.657,0.74,0.942c0.091,0.119,0.183,0.238,0.297,0.383c0.308,0.415,0.609,0.837,0.896,1.263   l0.266,0.41c0.219,0.336,0.438,0.668,0.633,0.983l0.327,0.56c0.166,0.284,0.336,0.568,0.506,0.878l0.315,0.596   c0.149,0.281,0.296,0.563,0.447,0.872c0.089,0.179,0.173,0.36,0.258,0.541l0.044,0.093c0.132,0.284,0.263,0.57,0.385,0.849   c0.098,0.224,0.194,0.45,0.278,0.657c0.12,0.294,0.237,0.589,0.357,0.905c0.081,0.212,0.161,0.424,0.242,0.649   c0.109,0.306,0.212,0.616,0.304,0.898l0.223,0.692c0.097,0.319,0.186,0.644,0.266,0.934l0.188,0.691   c0.09,0.352,0.166,0.71,0.245,1.059l0.129,0.565c0.106,0.524,0.202,1.051,0.284,1.586c0.283,1.82,0.426,3.67,0.426,5.501   c0,0.586-0.015,1.171-0.039,1.701c-0.009,0.104-0.014,0.209-0.022,0.321c-0.027,0.515-0.069,1.027-0.115,1.508l-0.078,0.643   c-0.043,0.361-0.084,0.722-0.137,1.074l-0.101,0.602c-0.059,0.366-0.122,0.732-0.197,1.102l-0.103,0.493   c-0.085,0.41-0.181,0.819-0.272,1.181l-0.107,0.423c-0.121,0.462-0.253,0.924-0.406,1.421l-0.043,0.148   c-0.332,1.059-0.681,2.028-1.058,2.943l-0.515,0.963l-0.09,0.367c-0.203,0.433-0.423,0.879-0.667,1.352l-0.086,0.171   c-0.724,1.384-1.557,2.746-2.517,4.105l-0.063,0.089c-0.917,1.284-1.925,2.515-2.996,3.659l-0.156,0.164   c-0.916,0.968-1.888,1.884-2.905,2.744h-0.825l-2.588,2.588c-3.237,2.124-6.778,3.693-10.531,4.665   c-0.509,0.131-1.023,0.249-1.542,0.359c-0.049,0.011-0.098,0.022-0.149,0.032l-0.46,0.095c-0.392,0.077-0.787,0.149-1.183,0.211   l-1.035,0.133l-0.052,0.019c-0.19,0.023-0.379,0.044-0.567,0.066c-0.558,0.062-1.119,0.109-1.61,0.14   c-0.106,0.007-0.211,0.014-0.323,0.023c-0.35,0.02-0.703,0.027-1.103,0.038l-0.355,0.012c-0.747,0.024-1.639,0.001-2.426-0.04   l-0.56-0.032C380.193,154.611,379.204,154.505,378.264,154.364z"/>
	<path style="fill:#C8D0E2;" d="M82.752,313.257L36.99,392.519l45.762,79.26h91.521l45.762-79.26l-45.762-79.262H82.752z    M125.395,427.945l-0.598-0.055c-0.524-0.055-1.044-0.117-1.531-0.189l-0.25-0.039c-0.315-0.049-0.629-0.104-0.942-0.161   l-0.802-0.159c-1.668-0.344-3.33-0.816-4.946-1.404l-0.124-0.046c-0.485-0.179-0.969-0.367-1.484-0.585l-0.06-0.024   c-0.982-0.415-1.968-0.888-2.888-1.381l-0.374-0.206c-0.355-0.198-0.71-0.399-1.076-0.618l-0.364-0.216   c-0.397-0.244-0.793-0.492-1.176-0.748l-0.551-0.411c-5.459-3.809-9.736-9.03-12.368-15.099l-0.214-0.464   c-0.236-0.574-0.479-1.222-0.737-1.967l-0.178-0.529c-0.114-0.347-0.219-0.675-0.313-0.985l-0.001-3.024l-0.925-0.925l-0.001-0.007   c-0.159-0.899-0.272-1.697-0.35-2.438l-0.021-0.176c-0.051-0.508-0.085-1.019-0.114-1.531l-0.022-0.314   c-0.013-0.3-0.016-0.603-0.02-0.904l-0.023-0.824c0-19.611,15.956-35.567,35.569-35.567h0.002   c19.612,0,35.569,15.956,35.569,35.567c0,0.565-0.018,1.127-0.047,1.769l-0.004,0.132c-0.009,0.151-0.023,0.298-0.035,0.448   l-0.061,0.8c-0.011,0.151-0.02,0.301-0.033,0.449l-0.004,0.044c-0.071,0.702-0.183,1.481-0.359,2.495l-0.089,0.495   c-0.16,0.843-0.315,1.558-0.477,2.183l-0.084,0.308c-0.168,0.635-0.359,1.261-0.566,1.896c-0.084,0.26-0.172,0.52-0.259,0.767   c-0.185,0.525-0.384,1.041-0.608,1.593c-0.047,0.115-0.091,0.23-0.138,0.353l-0.152,0.345c-0.295,0.679-0.628,1.378-1.03,2.159   l-0.085,0.167c-0.731,1.396-1.566,2.76-2.441,4l-0.155,0.216c-0.916,1.28-1.923,2.509-3.019,3.679l-0.092,0.096   c-1.523,1.611-3.195,3.081-4.978,4.377l-0.827,0.424l-0.59,0.589c-2.744,1.796-5.719,3.198-8.87,4.174   c-0.18,0.057-0.364,0.106-0.547,0.156l-1.079,0.306c-0.552,0.145-1.137,0.281-1.739,0.405l-0.63,0.107l-0.126,0.04   c-0.296,0.055-0.596,0.106-0.894,0.153l-0.288,0.047c-0.328,0.046-0.657,0.082-0.987,0.12l-0.23,0.027   c-0.183,0.022-0.364,0.044-0.547,0.063l-0.343,0.032c-0.253,0.022-0.505,0.04-0.758,0.058l-0.985,0.001l-0.221,0.055   c-0.16,0.003-0.323,0.008-0.489,0.011l-0.715,0.021c-0.6-0.001-1.197-0.022-1.81-0.054l-0.109-0.007l-0.49-0.028   C125.859,427.982,125.626,427.964,125.395,427.945z"/>
</g>
<g>
	<polygon style="fill:#ACB7C9;" points="350.978,39.937 337.859,39.937 292.096,119.198 337.859,198.459 350.978,198.459    305.215,119.198  "/>
	<polygon style="fill:#ACB7C9;" points="95.871,313.258 82.752,313.258 36.989,392.518 82.752,471.78 95.871,471.78 50.108,392.518     "/>
	<path style="fill:#ACB7C9;" d="M49.201,177.435c-18.836-18.836-29.628-43.938-30.388-70.683l-0.43-15.102l-3.719-3.719l0,0   l-0.004-0.005l-0.525-0.524c-1.873-1.784-8.09-6.871-7.766,4.581c0,0.019,0,0.032,0,0.05l0.419,14.721   c0.76,26.746,11.552,51.849,30.388,70.683c19.619,19.619,45.712,30.424,73.469,30.424c1.97,0,3.934-0.073,5.893-0.184   C91.087,206.204,67.368,195.602,49.201,177.435z"/>
	<path style="fill:#ACB7C9;" d="M84.753,11.309c-4.168-4.169-0.567-5.215-0.059-5.337l15.027-3.403   c5.576-1.263,11.278-2.062,17.021-2.392C114.753,0.063,112.754,0,110.745,0c-7.772,0-15.528,0.864-23.051,2.568l-8.619,1.953   c-0.004,0-0.007,0.001-0.011,0.002c-8.934,1.981-5.507,7.339-3.195,9.93l1.437,1.437l0.007,0.007l51.63,51.63l-8.963,57.341   l12.356-2.113l8.632-55.229L84.753,11.309z"/>
	<path style="fill:#ACB7C9;" d="M339.902,481.584c-30.365-30.365-38.938-75.367-21.91-114.766l0.139-1.478l0.804-1.72   c11.923-25.502,34.016-45.235,60.614-54.14l1.401-0.47l1.17-0.063c8.258-2.599,16.789-4.135,25.434-4.621   c-2.036-0.118-4.08-0.185-6.135-0.185c-10.657,0-21.195,1.617-31.323,4.806l-1.17,0.063l-1.4,0.47   c-26.598,8.905-48.691,28.638-60.614,54.14l-0.804,1.72l-0.139,1.478c-17.028,39.399-8.454,84.401,21.91,114.766   C347.494,501.198,373.581,512,401.328,512c2.014,0,4.024-0.061,6.032-0.176C381.863,510.384,358.099,499.779,339.902,481.584z"/>
	<path style="fill:#ACB7C9;" d="M494.501,421.169c8.825,8.825,10.691,2.845,11.061-0.965l-43.054-43.055l-10.295,1.731l42.278,42.28   C494.495,421.162,494.498,421.165,494.501,421.169z"/>
</g>
<g>
	<path style="fill:#89A2C0;" d="M296.826,320.684c-2.114,0-4.228-0.812-5.832-2.436L189.577,215.654   c-3.184-3.22-3.154-8.412,0.067-11.595c3.22-3.181,8.412-3.155,11.596,0.068L302.658,306.72c3.185,3.22,3.154,8.412-0.067,11.596   C300.993,319.895,298.909,320.684,296.826,320.684z"/>
	<path style="fill:#89A2C0;" d="M316.969,301.678c-2.11,0-4.218-0.809-5.822-2.426L208.994,196.258   c-3.189-3.214-3.167-8.406,0.048-11.595c3.213-3.188,8.406-3.168,11.596,0.048l102.153,102.994   c3.189,3.215,3.168,8.407-0.047,11.596C321.144,300.887,319.056,301.678,316.969,301.678z"/>
</g>
<g>
</g>
<g>
</g>
<g>
</g>
<g>
</g>
<g>
</g>
<g>
</g>
<g>
</g>
<g>
</g>
<g>
</g>
<g>
</g>
<g>
</g>
<g>
</g>
<g>
</g>
<g>
</g>
<g>
</g>
</svg>
