<?xml version="1.0" encoding="iso-8859-1"?>
<!-- Generator: Adobe Illustrator 19.0.0, SVG Export Plug-In . SVG Version: 6.00 Build 0)  -->
<svg xmlns="http://www.w3.org/2000/svg" xmlns:xlink="http://www.w3.org/1999/xlink" version="1.1" id="Layer_1" x="0px" y="0px" viewBox="0 0 512 512" style="enable-background:new 0 0 512 512;" xml:space="preserve">
<path style="fill:#F3705A;" d="M396.8,258.133v72.533h-21.333V268.8H136.533v61.867H115.2v-72.533c0-6.4,4.267-10.667,10.667-10.667  h119.467V179.2h21.333v68.267h119.467C392.533,247.467,396.8,251.733,396.8,258.133z"/>
<path style="fill:#415A6B;" d="M345.6,0H166.4c-11.733,0-21.333,9.6-21.333,21.333v136.533c0,11.733,9.6,21.333,21.333,21.333h179.2  c11.733,0,21.333-9.6,21.333-21.333V21.333C366.933,9.6,357.333,0,345.6,0z"/>
<rect x="166.4" y="21.333" style="fill:#8AD7F8;" width="179.2" height="118.4"/>
<path style="fill:#CED6E0;" d="M130.133,157.867c0,17.067,13.867,30.933,30.933,30.933h189.867  c17.067,0,30.933-13.867,30.933-30.933L130.133,157.867L130.133,157.867z"/>
<path style="fill:#415A6B;" d="M215.467,323.2h-179.2c-11.733,0-21.333,9.6-21.333,21.333v136.533  c0,11.733,9.6,21.333,21.333,21.333h179.2c11.733,0,21.333-9.6,21.333-21.333V344.533C236.8,332.8,227.2,323.2,215.467,323.2z"/>
<rect x="36.267" y="344.533" style="fill:#8AD7F8;" width="179.2" height="118.4"/>
<path style="fill:#CED6E0;" d="M0,481.067C0,498.133,13.867,512,30.933,512H220.8c17.067,0,30.933-13.867,30.933-30.933H0z"/>
<path style="fill:#415A6B;" d="M475.733,323.2h-179.2c-11.733,0-21.333,9.6-21.333,21.333v136.533  c0,11.733,9.6,21.333,21.333,21.333h179.2c11.733,0,21.333-9.6,21.333-21.333V344.533C497.067,332.8,487.467,323.2,475.733,323.2z"/>
<rect x="296.533" y="344.533" style="fill:#8AD7F8;" width="179.2" height="118.4"/>
<path style="fill:#CED6E0;" d="M260.267,481.067c0,17.067,13.867,30.933,30.933,30.933h189.867C498.133,512,512,498.133,512,481.067  H260.267z"/>
<g>
	<polygon style="fill:#ADB3BA;" points="152.533,493.867 99.2,493.867 92.8,481.067 158.933,481.067  "/>
	<polygon style="fill:#ADB3BA;" points="282.667,170.667 229.333,170.667 222.933,157.867 289.067,157.867  "/>
	<polygon style="fill:#ADB3BA;" points="412.8,493.867 359.467,493.867 353.067,481.067 419.2,481.067  "/>
</g>
<g>
</g>
<g>
</g>
<g>
</g>
<g>
</g>
<g>
</g>
<g>
</g>
<g>
</g>
<g>
</g>
<g>
</g>
<g>
</g>
<g>
</g>
<g>
</g>
<g>
</g>
<g>
</g>
<g>
</g>
</svg>
