<?xml version="1.0" encoding="iso-8859-1"?>
<!-- Generator: Adobe Illustrator 19.0.0, SVG Export Plug-In . SVG Version: 6.00 Build 0)  -->
<svg xmlns="http://www.w3.org/2000/svg" xmlns:xlink="http://www.w3.org/1999/xlink" version="1.1" id="Layer_1" x="0px" y="0px" viewBox="0 0 512 512" style="enable-background:new 0 0 512 512;" xml:space="preserve">
<path style="fill:#6598CB;" d="M508.756,101.326H256.619c-1.791,0-3.244,1.452-3.244,3.244v30.149c0,1.428,0.935,2.689,2.302,3.104  l9.587,2.909c4.656,1.414,9.202,3.298,13.511,5.601l8.839,4.732c0.482,0.258,1.009,0.384,1.53,0.384c0.84,0,1.672-0.327,2.295-0.95  l11.389-11.387l14.257,14.258l-11.388,11.387c-1.011,1.011-1.24,2.564-0.567,3.824l4.731,8.839c2.3,4.304,4.186,8.851,5.603,13.511  l2.91,9.589c0.414,1.368,1.675,2.302,3.103,2.302h16.092v20.164h-16.092c-1.428,0-2.689,0.934-3.103,2.302l-2.91,9.587  c-1.417,4.662-3.301,9.207-5.601,13.51l-4.733,8.84c-0.674,1.261-0.443,2.815,0.566,3.825l12.957,12.958l-7.654,14.246  c-0.54,1.006-0.513,2.221,0.072,3.201c0.586,0.979,1.644,1.579,2.784,1.579h50.19l61.295,61.384  c0.065,0.064,0.131,0.125,0.201,0.184c3.064,2.595,5.699,3.856,8.05,3.856c1.797,0,6.032-0.796,6.552-8.174  c0.007-0.076,0.009-0.152,0.009-0.228v-57.021h68.604c1.791,0,3.244-1.452,3.244-3.244V104.57  C512,102.778,510.547,101.326,508.756,101.326z"/>
<g>
	<path style="fill:#4982AA;" d="M361.899,185.52h-19.041c-1.89-6.645-4.545-13.046-7.915-19.093l13.468-13.467   c1.267-1.266,1.267-3.32,0-4.587L318.1,118.057c-0.609-0.609-1.434-0.95-2.295-0.95s-1.685,0.342-2.293,0.95l-13.471,13.47   c-6.047-3.372-12.448-6.026-19.092-7.915V104.57c0-1.792-1.453-3.244-3.244-3.244H256.62c-1.791,0-3.244,1.452-3.244,3.244v30.149   c0,1.428,0.934,2.689,2.302,3.104l9.587,2.909c4.656,1.414,9.203,3.298,13.511,5.601l8.839,4.732   c0.482,0.258,1.009,0.384,1.53,0.384c0.84,0,1.672-0.327,2.295-0.95l11.389-11.387l14.257,14.258l-11.388,11.387   c-1.011,1.011-1.24,2.564-0.567,3.824l4.731,8.839c2.3,4.304,4.186,8.851,5.603,13.511l2.91,9.589   c0.414,1.368,1.675,2.302,3.103,2.302h16.092v20.164h-16.092c-1.428,0-2.689,0.934-3.103,2.302l-2.91,9.587   c-1.417,4.662-3.301,9.207-5.601,13.51l-4.733,8.84c-0.674,1.261-0.443,2.815,0.566,3.825l12.957,12.958L311,288.253   c-0.54,1.006-0.513,2.221,0.072,3.201c0.586,0.979,1.644,1.579,2.784,1.579h12.206c0.861,0,1.685-0.342,2.293-0.95l20.053-20.053   c1.267-1.266,1.267-3.32,0-4.587l-13.468-13.472c3.37-6.042,6.025-12.445,7.916-19.091h19.04c1.791,0,3.244-1.452,3.244-3.244   v-42.872C365.143,186.972,363.69,185.52,361.899,185.52z"/>
	<path style="fill:#4982AA;" d="M379.455,293.033h-15.409l61.297,61.384c0.065,0.064,0.131,0.125,0.201,0.184   c3.064,2.595,5.698,3.856,8.05,3.856c1.513,0,4.744-0.581,6.041-5.158L379.455,293.033z"/>
</g>
<path style="fill:#75BF4D;" d="M293.383,277.711c-0.534-0.346-1.149-0.522-1.766-0.522c-0.45,0-0.9,0.093-1.322,0.282l-15.221,6.793  c-3.058,1.366-6.095,2.509-9.026,3.399l-7.671,2.33c-1.368,0.415-2.301,1.675-2.301,3.103v16.785h-25.571v-16.785  c0-1.427-0.933-2.688-2.3-3.103l-7.671-2.331c-4.829-1.466-9.539-3.42-14.002-5.807l-7.073-3.782  c-0.481-0.257-1.008-0.383-1.528-0.383c-0.84,0-1.672,0.327-2.295,0.95l-11.88,11.878l-18.079-18.081l11.877-11.88  c1.012-1.01,1.241-2.563,0.567-3.824l-3.782-7.073c-2.388-4.464-4.341-9.174-5.807-14.001l-2.329-7.671  c-0.414-1.367-1.675-2.301-3.103-2.301h-16.788v-25.57h16.787c1.427,0,2.688-0.934,3.104-2.301l2.329-7.67  c0.764-2.518,1.711-5.108,2.809-7.698l6.374-15.035c0.425-1.002,0.319-2.15-0.281-3.057c-0.602-0.907-1.618-1.453-2.705-1.453H3.244  c-1.791,0-3.244,1.452-3.244,3.244V345.96c0,1.792,1.453,3.244,3.244,3.244h68.602v51.554c0,8.628,4.139,9.917,6.607,9.917  c2.508,0,5.346-1.438,8.676-4.397c0.049-0.043,0.095-0.088,0.142-0.133l56.856-56.94h147.492c1.791,0,3.244-1.452,3.244-3.244  v-65.528C294.862,279.333,294.305,278.309,293.383,277.711z"/>
<path style="fill:#C8D0E2;" d="M348.923,185.52h-19.041c-1.89-6.645-4.545-13.046-7.915-19.093l13.468-13.467  c1.267-1.266,1.267-3.32,0-4.587l-30.311-30.317c-0.609-0.609-1.434-0.95-2.295-0.95s-1.685,0.342-2.293,0.95l-13.472,13.47  c-6.046-3.372-12.447-6.026-19.091-7.915V104.57c0-1.792-1.453-3.244-3.244-3.244h-42.872c-1.791,0-3.244,1.452-3.244,3.244v19.042  c-6.642,1.888-13.044,4.543-19.089,7.914l-13.472-13.47c-0.609-0.609-1.434-0.95-2.293-0.95c-0.861,0-1.686,0.342-2.293,0.95  l-30.312,30.318c-1.267,1.267-1.267,3.321,0,4.587l13.468,13.468c-3.373,6.05-6.027,12.451-7.915,19.091h-19.041  c-1.791,0-3.244,1.452-3.244,3.244v42.872c0,1.792,1.453,3.244,3.244,3.244h19.041c1.888,6.638,4.541,13.04,7.915,19.092  l-13.468,13.47c-1.267,1.267-1.267,3.32,0,4.587l30.312,30.313c0.634,0.634,1.464,0.95,2.293,0.95c0.83,0,1.66-0.317,2.293-0.949  l13.472-13.47c6.045,3.372,12.447,6.026,19.089,7.916v19.039c0,1.792,1.453,3.244,3.244,3.244h42.872  c1.791,0,3.244-1.452,3.244-3.244v-19.039c6.642-1.891,13.045-4.546,19.091-7.917l13.471,13.468c0.634,0.634,1.463,0.95,2.293,0.95  c0.829,0,1.66-0.317,2.293-0.95l30.312-30.311c1.267-1.266,1.267-3.32,0-4.587l-13.468-13.472c3.37-6.042,6.025-12.445,7.916-19.091  h19.04c1.791,0,3.244-1.452,3.244-3.244v-42.87C352.167,186.972,350.714,185.52,348.923,185.52z M288.587,210.201  c0,0.83-0.028,1.718-0.086,2.714c-0.015,0.221-0.029,0.434-0.049,0.65l-0.015,0.178c-0.053,0.68-0.116,1.326-0.192,1.93  c-0.027,0.25-0.064,0.526-0.099,0.8c-0.103,0.721-0.22,1.431-0.354,2.146c-0.041,0.23-0.065,0.369-0.092,0.507  c-0.171,0.853-0.376,1.734-0.607,2.605c-0.044,0.17-0.082,0.303-0.122,0.436c-0.008,0.025-0.015,0.049-0.022,0.074  c-0.179,0.657-0.388,1.351-0.62,2.058c-0.07,0.213-0.147,0.437-0.225,0.662c-0.241,0.695-0.483,1.349-0.744,1.998l-0.198,0.496  c-0.675,1.627-1.465,3.261-2.333,4.812l-0.184,0.32c-0.387,0.677-0.781,1.326-1.205,1.989c-0.099,0.157-0.185,0.291-0.272,0.423  c-1.478,2.256-3.166,4.385-5.028,6.345l-0.189,0.197c-1.864,1.95-3.932,3.75-6.148,5.355l-0.792,0.561  c-0.518,0.359-1.065,0.72-1.597,1.056l-0.195,0.122c-0.222,0.141-0.441,0.279-0.663,0.413c-0.282,0.169-0.548,0.321-0.815,0.473  l-0.163,0.093c-0.237,0.137-0.369,0.214-0.504,0.288c-0.29,0.16-0.566,0.304-0.84,0.445l-0.29,0.148  c-0.697,0.359-1.412,0.703-2.12,1.023l-0.162,0.074c-0.365,0.16-0.764,0.334-1.163,0.502c-0.372,0.152-0.745,0.3-1.122,0.443  l-0.249,0.096c-0.591,0.221-1.21,0.437-1.854,0.647l-0.291,0.094l-0.217,0.068c-0.061,0.019-0.125,0.041-0.194,0.066l-0.707,0.202  c-0.019,0.005-0.036,0.011-0.054,0.016l-1.49,0.402c-0.135,0.034-0.272,0.068-0.41,0.101l-1.011,0.235  c-1.067,0.229-1.925,0.388-2.776,0.518c-0.097,0.015-0.19,0.027-0.281,0.038l-0.253,0.032c-0.771,0.109-1.609,0.202-2.469,0.275  c-0.294,0.024-0.573,0.045-0.853,0.064c-1.119,0.074-2.061,0.108-2.974,0.108c-0.921,0-1.877-0.035-3.009-0.109  c-0.237-0.015-0.49-0.036-0.747-0.056c-0.541-0.045-1.032-0.104-1.52-0.163l-0.234-0.027c-0.338-0.035-0.568-0.061-0.79-0.091  c-0.219-0.026-0.363-0.044-0.505-0.066c-0.857-0.129-1.734-0.292-2.777-0.517c-0.375-0.082-0.709-0.16-1.042-0.242  c-0.529-0.127-1.072-0.272-1.614-0.427l-0.294-0.079c-0.386-0.111-0.814-0.237-1.237-0.37c-0.579-0.186-1.139-0.384-1.693-0.585  c-0.021-0.006-0.04-0.014-0.059-0.021c-0.116-0.04-0.226-0.079-0.335-0.12c-0.436-0.163-0.882-0.342-1.328-0.524  c-0.403-0.164-0.816-0.346-1.228-0.529c-0.792-0.355-1.567-0.728-2.298-1.106l-0.35-0.183c-0.301-0.155-0.511-0.264-0.718-0.378  c-0.471-0.258-0.94-0.531-1.405-0.808c-0.164-0.097-0.31-0.187-0.45-0.275c-0.093-0.059-0.188-0.112-0.288-0.161l-0.046-0.023  l-0.265-0.188c-0.041-0.029-0.084-0.058-0.128-0.085c-11.24-7.195-18.717-18.866-20.511-32.021l-0.064-0.513  c-0.087-0.69-0.158-1.412-0.218-2.207l-0.051-0.707c-0.057-0.958-0.087-1.858-0.087-2.712c0-1.03,0.042-2.09,0.135-3.334l0.015-0.24  c0.023-0.344,0.049-0.706,0.087-1.066l0.028-0.245c0.079-0.72,0.159-1.342,0.248-1.927c0.031-0.204,0.069-0.422,0.11-0.637  l0.028-0.165c0.085-0.497,0.158-0.923,0.242-1.343c0.053-0.26,0.106-0.49,0.158-0.719l0.071-0.321  c0.087-0.389,0.171-0.762,0.266-1.133c0.057-0.229,0.129-0.489,0.201-0.749l0.076-0.272c0.096-0.348,0.191-0.689,0.293-1.026  c0.091-0.297,0.177-0.559,0.263-0.821l0.046-0.138c0.119-0.36,0.24-0.722,0.365-1.081c0.128-0.348,0.243-0.651,0.359-0.952  c0.141-0.367,0.279-0.722,0.425-1.074c0.122-0.298,0.261-0.619,0.402-0.939c0.147-0.338,0.301-0.677,0.461-1.015  c0.145-0.307,0.289-0.606,0.435-0.901c0.178-0.358,0.351-0.696,0.529-1.031c0.144-0.271,0.304-0.569,0.469-0.864  c0.184-0.33,0.372-0.653,0.562-0.975c0.16-0.274,0.336-0.566,0.516-0.855c0.19-0.308,0.399-0.629,0.61-0.949  c0.178-0.276,0.362-0.555,0.553-0.829c0.213-0.31,0.441-0.628,0.673-0.946c0.185-0.257,0.373-0.519,0.568-0.773  c0.222-0.293,0.468-0.602,0.713-0.909l0.102-0.127c0.157-0.199,0.317-0.4,0.483-0.597c0.251-0.304,0.502-0.588,0.752-0.873  l0.175-0.202c0.152-0.174,0.304-0.346,0.457-0.517c0.261-0.283,0.52-0.554,0.781-0.823l0.252-0.261  c0.149-0.157,0.28-0.293,0.413-0.427c0.454-0.453,0.918-0.895,1.413-1.347l0.234-0.212c0.517-0.466,1-0.885,1.472-1.276  c0.168-0.138,0.318-0.256,0.468-0.374l0.096-0.075c0.398-0.32,0.747-0.598,1.106-0.867c0.158-0.12,0.348-0.256,0.537-0.391  l0.136-0.097c0.344-0.25,0.686-0.496,1.03-0.732c0.19-0.13,0.393-0.263,0.596-0.394l0.159-0.105  c0.338-0.221,0.684-0.445,1.036-0.662c0.197-0.121,0.415-0.251,0.635-0.38l0.145-0.085c0.349-0.204,0.689-0.403,1.031-0.593  c0.245-0.137,0.488-0.265,0.731-0.391l0.104-0.055c0.365-0.191,0.715-0.374,1.071-0.549c0.285-0.141,0.575-0.278,0.868-0.414  c0.355-0.165,0.717-0.331,1.083-0.49c0.271-0.118,0.566-0.243,0.863-0.365c0.394-0.159,0.759-0.304,1.13-0.444  c0.28-0.107,0.584-0.22,0.892-0.33c0.386-0.137,0.762-0.263,1.141-0.386c0.295-0.096,0.607-0.196,0.917-0.29  c0.383-0.117,0.777-0.227,1.172-0.335c0.295-0.08,0.598-0.162,0.9-0.24c0.435-0.108,0.838-0.199,1.241-0.289  c0.342-0.076,0.626-0.138,0.91-0.197c0.395-0.077,0.779-0.144,1.163-0.21l0.304-0.052c0.235-0.04,0.463-0.08,0.691-0.115  c0.429-0.063,0.846-0.112,1.26-0.161l0.294-0.037c0.226-0.027,0.448-0.055,0.669-0.076c0.486-0.048,0.99-0.083,1.495-0.116  l0.15-0.012c0.197-0.016,0.377-0.028,0.559-0.039c0.757-0.037,1.534-0.056,2.29-0.056c0.746,0,1.498,0.019,2.231,0.056  c0.208,0.011,0.41,0.025,0.611,0.041l0.284,0.019c0.462,0.03,0.905,0.062,1.342,0.105c0.218,0.022,0.428,0.049,0.642,0.075  l0.474,0.058c0.367,0.043,0.727,0.089,1.085,0.142c0.268,0.039,0.535,0.087,0.802,0.133l0.16,0.027  c0.39,0.068,0.79,0.135,1.185,0.214c0.319,0.063,0.612,0.128,0.906,0.196c0.455,0.101,0.842,0.187,1.229,0.284  c0.285,0.07,0.577,0.149,0.87,0.23l0.142,0.037c0.35,0.097,0.722,0.202,1.092,0.314c0.306,0.091,0.627,0.196,0.948,0.298  c0.362,0.119,0.732,0.243,1.098,0.373c0.316,0.112,0.639,0.232,0.965,0.356c0.34,0.13,0.689,0.267,1.036,0.41  c0.327,0.133,0.637,0.263,0.947,0.399c0.336,0.147,0.69,0.306,1.039,0.471c0.285,0.133,0.587,0.276,0.887,0.423  c0.33,0.163,0.663,0.337,0.995,0.511c0.306,0.161,0.598,0.313,0.885,0.473c0.341,0.189,0.66,0.376,0.98,0.563l0.148,0.085  c0.235,0.138,0.475,0.279,0.709,0.425c0.334,0.204,0.649,0.411,0.963,0.617l0.148,0.094c0.209,0.135,0.437,0.283,0.661,0.437  c0.299,0.204,0.572,0.399,0.842,0.597l0.248,0.177c0.222,0.158,0.428,0.306,0.632,0.46c0.302,0.228,0.593,0.458,0.881,0.69  l0.238,0.188c0.186,0.146,0.363,0.284,0.534,0.427c0.41,0.338,0.8,0.682,1.187,1.027c0.264,0.232,0.536,0.48,0.807,0.734  c0.37,0.341,0.741,0.691,1.103,1.053c0.167,0.164,0.313,0.319,0.46,0.474l0.34,0.353c0.218,0.225,0.434,0.451,0.646,0.681  c0.179,0.197,0.341,0.381,0.503,0.566l0.26,0.297c0.223,0.253,0.43,0.492,0.636,0.737c0.169,0.203,0.344,0.423,0.518,0.643  l0.227,0.287c0.192,0.241,0.386,0.483,0.572,0.731c0.18,0.237,0.363,0.491,0.547,0.745c0.257,0.356,0.471,0.653,0.682,0.958  c0.199,0.291,0.386,0.574,0.572,0.861c0.182,0.277,0.377,0.579,0.568,0.883c0.197,0.319,0.366,0.602,0.534,0.886  c0.201,0.342,0.386,0.661,0.566,0.984c0.162,0.29,0.328,0.598,0.491,0.908c0.159,0.3,0.329,0.629,0.492,0.959  c0.159,0.32,0.311,0.634,0.46,0.952c0.148,0.315,0.3,0.65,0.449,0.988c0.143,0.327,0.283,0.65,0.416,0.974  c0.12,0.288,0.25,0.623,0.382,0.957c0.146,0.384,0.265,0.697,0.378,1.011c0.134,0.376,0.258,0.75,0.382,1.126  c0.114,0.343,0.21,0.634,0.298,0.928c0.106,0.346,0.202,0.686,0.293,1.024l0.083,0.296c0.07,0.252,0.141,0.502,0.204,0.754  c0.086,0.346,0.16,0.673,0.235,1l0.098,0.43c0.056,0.25,0.106,0.468,0.151,0.688c0.08,0.398,0.144,0.771,0.208,1.145l0.069,0.387  c0.038,0.209,0.071,0.406,0.104,0.604c0.094,0.621,0.173,1.235,0.248,1.92c0.003,0.023,0.005,0.044,0.008,0.067  c0.012,0.084,0.022,0.169,0.029,0.253c0.036,0.348,0.062,0.703,0.085,1.059l0.014,0.22  C288.545,208.12,288.587,209.17,288.587,210.201z"/>
<path style="fill:#ACB7C9;" d="M198.335,181.65l-0.088,0.111c-0.249,0.31-0.496,0.622-0.712,0.907  c-0.201,0.264-0.396,0.533-0.575,0.784c-0.234,0.32-0.465,0.642-0.681,0.957c-0.191,0.279-0.378,0.561-0.554,0.83  c-0.213,0.324-0.423,0.65-0.613,0.957c-0.183,0.294-0.36,0.591-0.522,0.868c-0.192,0.325-0.381,0.651-0.56,0.972  c-0.169,0.303-0.336,0.609-0.471,0.869c-0.18,0.338-0.354,0.678-0.54,1.05c-0.146,0.296-0.291,0.595-0.433,0.896  c-0.162,0.346-0.32,0.694-0.464,1.023c-0.147,0.33-0.289,0.66-0.407,0.949c-0.148,0.355-0.288,0.714-0.428,1.078  c-0.115,0.301-0.23,0.602-0.369,0.981c-0.124,0.355-0.243,0.714-0.359,1.063l-0.036,0.108c-0.092,0.277-0.184,0.554-0.281,0.875  c-0.104,0.34-0.201,0.686-0.295,1.029l-0.071,0.255c-0.076,0.275-0.15,0.547-0.204,0.766c-0.098,0.383-0.186,0.768-0.272,1.154  l-0.066,0.29c-0.054,0.239-0.108,0.477-0.164,0.759c-0.084,0.422-0.158,0.847-0.243,1.34l-0.022,0.125  c-0.043,0.232-0.084,0.466-0.118,0.692c-0.097,0.635-0.177,1.273-0.248,1.914l-0.031,0.271c-0.039,0.373-0.066,0.748-0.092,1.127  l-0.012,0.19c-0.093,1.249-0.135,2.316-0.135,3.359c0,0.862,0.028,1.763,0.089,2.768l0.049,0.677  c0.057,0.745,0.129,1.489,0.222,2.225l0.064,0.513c1.81,13.266,9.333,25.005,20.657,32.253l0.443,0.315l0.258,0.128  c0.154,0.097,0.311,0.195,0.484,0.297c0.469,0.279,0.94,0.551,1.414,0.812c0.218,0.12,0.44,0.237,0.731,0.385l0.338,0.177  c0.737,0.383,1.513,0.756,2.323,1.118c0.418,0.185,0.835,0.369,1.235,0.531c0.449,0.185,0.899,0.364,1.327,0.524  c0.136,0.052,0.271,0.101,0.415,0.149c0.557,0.201,1.117,0.399,1.714,0.59c0.422,0.133,0.85,0.258,1.286,0.384l0.239,0.065  c0.549,0.156,1.1,0.303,1.631,0.43c0.332,0.08,0.664,0.158,1.059,0.245c1.037,0.223,1.921,0.387,2.782,0.516  c0.165,0.025,0.333,0.046,0.531,0.069c0.24,0.034,0.487,0.062,0.798,0.093l0.203,0.023c0.5,0.063,0.999,0.12,1.525,0.164  c0.272,0.022,0.542,0.043,0.78,0.058c1.133,0.075,2.097,0.109,3.031,0.109c0.916,0,1.87-0.034,2.989-0.107  c0.281-0.018,0.56-0.04,0.864-0.064c0.441-0.037,0.876-0.079,1.292-0.127c-0.104-0.012-0.212-0.021-0.316-0.034l-0.201-0.023  c-0.313-0.031-0.56-0.059-0.8-0.093c-0.197-0.023-0.365-0.044-0.53-0.069c-0.861-0.129-1.746-0.293-2.782-0.516  c-0.394-0.088-0.727-0.164-1.059-0.245c-0.531-0.128-1.08-0.276-1.631-0.43l-0.24-0.065c-0.433-0.124-0.862-0.25-1.285-0.384  c-0.597-0.191-1.157-0.389-1.715-0.59c-0.142-0.049-0.279-0.097-0.414-0.149c-0.427-0.16-0.877-0.34-1.327-0.524  c-0.399-0.162-0.817-0.346-1.234-0.531c-0.811-0.362-1.586-0.736-2.323-1.118l-0.34-0.177c-0.292-0.149-0.513-0.265-0.731-0.385  c-0.475-0.261-0.946-0.533-1.413-0.812c-0.174-0.104-0.334-0.2-0.486-0.297l-0.257-0.128l-0.443-0.315  c-11.327-7.248-18.848-18.989-20.657-32.253l-0.066-0.513c-0.092-0.736-0.163-1.479-0.219-2.225l-0.049-0.677  c-0.062-1.006-0.09-1.906-0.09-2.768c0-1.043,0.043-2.11,0.135-3.359l0.012-0.19c0.025-0.378,0.053-0.754,0.091-1.127l0.031-0.271  c0.071-0.641,0.152-1.279,0.248-1.914c0.036-0.226,0.076-0.46,0.118-0.692l0.022-0.125c0.084-0.493,0.158-0.919,0.242-1.34  c0.058-0.282,0.112-0.521,0.167-0.759l0.066-0.29c0.084-0.386,0.173-0.772,0.271-1.154c0.055-0.218,0.13-0.491,0.205-0.766  l0.071-0.255c0.095-0.344,0.19-0.69,0.293-1.029c0.099-0.321,0.19-0.598,0.281-0.875l0.036-0.108  c0.116-0.349,0.236-0.708,0.361-1.063c0.137-0.38,0.251-0.68,0.368-0.981c0.141-0.364,0.281-0.723,0.427-1.078  c0.118-0.29,0.262-0.62,0.408-0.949c0.144-0.33,0.3-0.677,0.465-1.023c0.142-0.302,0.285-0.6,0.433-0.896  c0.186-0.372,0.359-0.712,0.538-1.05c0.137-0.261,0.302-0.566,0.474-0.869c0.177-0.321,0.367-0.648,0.558-0.972  c0.162-0.277,0.341-0.573,0.523-0.868c0.19-0.307,0.401-0.633,0.614-0.957c0.174-0.268,0.361-0.551,0.553-0.83  c0.216-0.315,0.448-0.637,0.681-0.957c0.179-0.25,0.374-0.519,0.575-0.784c0.215-0.285,0.464-0.597,0.712-0.907l0.088-0.111  c0.169-0.212,0.338-0.424,0.513-0.63c0.24-0.291,0.495-0.581,0.75-0.872l0.157-0.18c0.157-0.178,0.311-0.356,0.471-0.531  c0.276-0.298,0.536-0.571,0.797-0.841l0.232-0.241c0.141-0.149,0.284-0.296,0.429-0.441c0.471-0.473,0.945-0.922,1.427-1.362  l0.226-0.204c0.495-0.448,0.987-0.877,1.491-1.292c0.182-0.15,0.342-0.278,0.502-0.402l0.099-0.076  c0.361-0.292,0.716-0.573,1.079-0.846c0.162-0.123,0.364-0.269,0.568-0.414l0.122-0.088c0.328-0.238,0.67-0.484,1.018-0.723  c0.209-0.142,0.421-0.281,0.631-0.418l0.137-0.089c0.337-0.221,0.688-0.448,1.043-0.666c0.201-0.124,0.427-0.258,0.653-0.391  l0.131-0.076c0.353-0.207,0.694-0.405,1.038-0.597c0.244-0.136,0.492-0.267,0.741-0.398l0.105-0.054  c0.365-0.192,0.717-0.375,1.073-0.55c0.291-0.144,0.586-0.283,0.883-0.422c0.344-0.161,0.714-0.33,1.087-0.491  c0.265-0.116,0.562-0.242,0.863-0.365c0.405-0.164,0.77-0.308,1.136-0.449c0.285-0.108,0.594-0.222,0.903-0.333  c0.391-0.138,0.768-0.264,1.148-0.388c0.304-0.098,0.614-0.199,0.927-0.292c0.381-0.116,0.784-0.229,1.187-0.34  c0.281-0.077,0.583-0.158,0.886-0.237c0.457-0.112,0.86-0.203,1.262-0.293c0.344-0.076,0.629-0.138,0.915-0.197  c0.407-0.08,0.792-0.147,1.178-0.213l0.291-0.05c0.235-0.041,0.471-0.081,0.707-0.117c0.443-0.066,0.862-0.116,1.28-0.165  l0.268-0.032c0.04-0.004,0.08-0.009,0.12-0.014c-0.183-0.023-0.365-0.044-0.564-0.066c-0.443-0.043-0.892-0.075-1.342-0.106  l-0.249-0.018c-0.217-0.017-0.435-0.032-0.654-0.043c-1.462-0.074-2.978-0.077-4.573,0.001c-0.197,0.011-0.393,0.025-0.589,0.04  l-0.104,0.009c-0.509,0.032-1.019,0.068-1.506,0.116c-0.235,0.023-0.469,0.052-0.703,0.08l-0.269,0.032  c-0.416,0.05-0.835,0.101-1.279,0.165c-0.237,0.036-0.473,0.076-0.708,0.117l-0.29,0.05c-0.386,0.066-0.771,0.133-1.176,0.213  c-0.287,0.058-0.571,0.12-0.916,0.197c-0.402,0.09-0.806,0.181-1.262,0.293c-0.302,0.078-0.604,0.159-0.885,0.237  c-0.404,0.11-0.807,0.223-1.187,0.34c-0.313,0.094-0.625,0.195-0.927,0.292c-0.381,0.124-0.756,0.251-1.149,0.388  c-0.309,0.11-0.616,0.225-0.902,0.333c-0.368,0.141-0.732,0.284-1.139,0.449c-0.297,0.123-0.596,0.249-0.862,0.365  c-0.374,0.161-0.744,0.33-1.088,0.491c-0.297,0.138-0.594,0.278-0.882,0.422c-0.357,0.175-0.707,0.358-1.073,0.55l-0.105,0.054  c-0.249,0.131-0.496,0.262-0.741,0.398c-0.344,0.191-0.684,0.389-1.038,0.597l-0.13,0.076c-0.228,0.133-0.453,0.267-0.654,0.391  c-0.355,0.218-0.705,0.446-1.041,0.666l-0.137,0.089c-0.213,0.137-0.425,0.277-0.633,0.418c-0.347,0.239-0.692,0.486-1.019,0.723  l-0.121,0.088c-0.203,0.145-0.407,0.291-0.569,0.414c-0.363,0.272-0.718,0.555-1.079,0.846l-0.097,0.076  c-0.16,0.124-0.321,0.252-0.503,0.402c-0.503,0.416-0.996,0.844-1.491,1.292l-0.226,0.204c-0.482,0.44-0.955,0.89-1.427,1.362  c-0.145,0.145-0.288,0.292-0.428,0.441l-0.232,0.241c-0.261,0.27-0.521,0.543-0.798,0.841c-0.158,0.175-0.315,0.353-0.47,0.531  l-0.157,0.18c-0.254,0.291-0.509,0.581-0.749,0.872C198.671,181.227,198.502,181.438,198.335,181.65z"/>
<g>
	<path style="fill:#56A846;" d="M11.956,162.905H2.391c-1.32,0-2.391,1.452-2.391,3.244V345.96c0,1.792,1.07,3.244,2.391,3.244   h9.565c1.32,0,2.391-1.452,2.391-3.244V166.149C14.347,164.357,13.275,162.905,11.956,162.905z"/>
	<path style="fill:#56A846;" d="M83.74,400.757v-51.554H71.845v51.554c0,8.628,4.139,9.917,6.607,9.917   c2.023,0,4.266-0.954,6.805-2.868C84.361,406.314,83.74,404.085,83.74,400.757z"/>
</g>
<g>
	<path style="fill:#FFFFFF;" d="M371.766,207.595h92.993c2.981,0,5.407,2.425,5.407,5.407s-2.425,5.407-5.407,5.407h-92.993   c-2.981,0-5.407-2.425-5.407-5.407C366.36,210.022,368.785,207.595,371.766,207.595z"/>
	<path style="fill:#FFFFFF;" d="M464.759,154.251h-92.993c-2.981,0-5.407-2.425-5.407-5.407c0-2.981,2.425-5.407,5.407-5.407h92.993   c2.981,0,5.407,2.425,5.407,5.407C470.165,151.826,467.739,154.251,464.759,154.251z"/>
	<path style="fill:#FFFFFF;" d="M371.766,175.517h92.993c2.981,0,5.407,2.425,5.407,5.407s-2.425,5.407-5.407,5.407h-92.993   c-2.981,0-5.407-2.425-5.407-5.407C366.36,177.944,368.785,175.517,371.766,175.517z"/>
	<path style="fill:#FFFFFF;" d="M372.847,239.674h92.993c2.981,0,5.407,2.425,5.407,5.407c0,2.981-2.425,5.407-5.407,5.407h-92.993   c-2.981,0-5.407-2.425-5.407-5.407C367.441,242.1,369.866,239.674,372.847,239.674z"/>
</g>
<g>
</g>
<g>
</g>
<g>
</g>
<g>
</g>
<g>
</g>
<g>
</g>
<g>
</g>
<g>
</g>
<g>
</g>
<g>
</g>
<g>
</g>
<g>
</g>
<g>
</g>
<g>
</g>
<g>
</g>
</svg>
