<?xml version="1.0" encoding="iso-8859-1"?>
<!-- Generator: Adobe Illustrator 19.0.0, SVG Export Plug-In . SVG Version: 6.00 Build 0)  -->
<svg xmlns="http://www.w3.org/2000/svg" xmlns:xlink="http://www.w3.org/1999/xlink" version="1.1" id="Layer_1" x="0px" y="0px" viewBox="0 0 491.52 491.52" style="enable-background:new 0 0 491.52 491.52;" xml:space="preserve">
<rect x="42.194" y="434.074" style="fill:#DC8744;" width="407.142" height="18.898"/>
<path style="fill:#64798A;" d="M302.821,275.086c-7.577-5.83-11.334-15.371-10.659-24.907L307.32,68.948  c2.527-35.806-24.609-68.341-60.498-68.939c-36.403-0.607-65.364,30.084-62.809,66.251l15.345,183.921  c0.673,9.536-3.081,19.076-10.656,24.906c-22.242,17.116-36.582,43.985-36.582,74.22h187.283  C339.401,319.072,325.061,292.202,302.821,275.086z"/>
<path style="fill:#FCD462;" d="M437.658,337.472H53.859c-13.312,0-24.103,10.792-24.103,24.104v78.12h432.007v-78.12  C461.763,348.263,450.972,337.472,437.658,337.472z"/>
<circle style="fill:#F6C358;" cx="245.76" cy="388.582" r="30.643"/>
<circle style="fill:#FFFFFF;" cx="245.76" cy="388.582" r="28.032"/>
<path style="fill:#EBF0F3;" d="M263.142,374.458c1.096,2.65,1.717,5.548,1.717,8.594c0,12.426-10.073,22.499-22.5,22.499  c-7.044,0-13.256-3.305-17.381-8.374c3.377,8.158,11.402,13.905,20.783,13.905c12.424,0,22.498-10.073,22.498-22.499  C268.259,383.203,266.292,378.33,263.142,374.458z"/>
<g>
	<path style="fill:#E56353;" d="M112.165,481.348c-3.78,2.188-9.615,3.665-17.441,4.349l3.709,5.63H83.143l-2.259-5.055h-8.118   l-10.555,5.055H49.792l31.51-14.163h17.801c7.299,0,11.932,0.315,13.916,0.952C115.037,478.765,114.786,479.83,112.165,481.348z    M95.799,482.958c2.034-0.342,3.732-0.878,5.082-1.601c1.325-0.71,1.522-1.19,0.618-1.447c-0.904-0.256-3.084-0.383-6.55-0.383   H86.85l-8.246,3.949h8.291C90.772,483.476,93.742,483.303,95.799,482.958z"/>
	<path style="fill:#E56353;" d="M163.997,477.165l-2.808,2.453h-24.126l-3.933,2.712h22.445l-3.146,2.676h-23.18l-4.532,3.125h27.57   l-3.628,3.196h-40.996l22.475-14.163H163.997z"/>
	<path style="fill:#E56353;" d="M187.62,488.131c5.888,0,11.11-0.673,15.564-1.988l6.427,2.256   c-7.24,2.056-15.283,3.121-23.872,3.121c-8.589,0-14.93-0.813-18.922-2.395c-3.854-1.527-4.565-3.382-2.323-5.519   c2.134-2.033,6.306-3.654,12.446-4.907c5.954-1.214,12.297-1.807,19.166-1.807c7.676,0,13.697,0.748,18.19,2.291l-7.827,2.032   c-2.797-1.146-6.706-1.707-11.783-1.707c-4.062,0-7.819,0.35-11.322,1.058c-3.566,0.721-5.943,1.715-7.11,2.999   c-1.205,1.326-0.725,2.421,1.496,3.266C180.017,487.693,183.32,488.131,187.62,488.131z"/>
	<path style="fill:#E56353;" d="M257.106,477.165l0.175,2.453h-24.126l-0.634,2.712h22.445l0.109,2.676h-23.18l-0.731,3.125h27.57   l0.259,3.196h-40.996l5.251-14.163H257.106z"/>
	<path style="fill:#E56353;" d="M267.182,477.165h10.48l4.816,14.163h-12.419L267.182,477.165z"/>
	<path style="fill:#E56353;" d="M312.611,485.613l5.896-8.449h11.355l-7.898,14.163h-10.508l-28.217-14.163h11.355L312.611,485.613z   "/>
	<path style="fill:#E56353;" d="M369.296,477.165l3.77,2.453h-24.126l3.341,2.712h22.445l4.031,2.676h-23.18l3.849,3.125h27.57   l4.943,3.196h-40.995l-15.504-14.163H369.296z"/>
	<path style="fill:#E56353;" d="M418.66,478.762c6.991,1.102,12.834,2.688,17.565,4.815c4.985,2.241,6.646,4.102,4.723,5.526   c-1.979,1.471-8.307,2.225-18.918,2.225h-19.027l-23.632-14.163h16.592C404.34,477.165,411.855,477.69,418.66,478.762z    M427.464,486.94c1.299-0.775,0.433-1.878-2.5-3.283c-2.836-1.359-6.31-2.375-10.442-3.071c-4.068-0.685-8.815-1.022-14.312-1.022   h-6.027l15.469,8.568h7.6C422.733,488.131,426.137,487.73,427.464,486.94z"/>
</g>
<g>
</g>
<g>
</g>
<g>
</g>
<g>
</g>
<g>
</g>
<g>
</g>
<g>
</g>
<g>
</g>
<g>
</g>
<g>
</g>
<g>
</g>
<g>
</g>
<g>
</g>
<g>
</g>
<g>
</g>
</svg>
