<?xml version="1.0" encoding="iso-8859-1"?>
<!-- Generator: Adobe Illustrator 19.0.0, SVG Export Plug-In . SVG Version: 6.00 Build 0)  -->
<svg xmlns="http://www.w3.org/2000/svg" xmlns:xlink="http://www.w3.org/1999/xlink" version="1.1" id="Layer_1" x="0px" y="0px" viewBox="0 0 512 512" style="enable-background:new 0 0 512 512;" xml:space="preserve">
<polygon style="fill:#E8EAE9;" points="281.6,50.133 230.4,50.133 118.4,195.2 142.933,195.2 256,50.133 369.067,195.2 393.6,195.2   "/>
<path style="fill:#F3705A;" d="M256,512c-105.6,0-192-86.4-192-192s86.4-192,192-192s192,86.4,192,192S361.6,512,256,512z"/>
<path style="fill:#FFD15C;" d="M256,460.8c-77.867,0-140.8-62.933-140.8-140.8S178.133,180.267,256,180.267S396.8,243.2,396.8,320  S333.867,460.8,256,460.8z"/>
<path style="fill:#F3705A;" d="M256,409.6c-49.067,0-89.6-39.467-89.6-89.6s39.467-89.6,89.6-89.6s89.6,39.467,89.6,89.6  S305.067,409.6,256,409.6z"/>
<circle style="fill:#FFD15C;" cx="256" cy="320" r="38.4"/>
<circle style="fill:#415A6B;" cx="256" cy="33.067" r="33.067"/>
<circle style="fill:#344A5E;" cx="256" cy="33.067" r="16"/>
<g>
</g>
<g>
</g>
<g>
</g>
<g>
</g>
<g>
</g>
<g>
</g>
<g>
</g>
<g>
</g>
<g>
</g>
<g>
</g>
<g>
</g>
<g>
</g>
<g>
</g>
<g>
</g>
<g>
</g>
</svg>
