<?xml version="1.0" encoding="iso-8859-1"?>
<!-- Generator: Adobe Illustrator 19.0.0, SVG Export Plug-In . SVG Version: 6.00 Build 0)  -->
<svg xmlns="http://www.w3.org/2000/svg" xmlns:xlink="http://www.w3.org/1999/xlink" version="1.1" id="Layer_1" x="0px" y="0px" viewBox="0 0 512.002 512.002" style="enable-background:new 0 0 512.002 512.002;" xml:space="preserve">
<path style="fill:#E4F1FB;" d="M503.285,447.832c0-0.19,0.004-0.361,0.008-0.54V98.515l-54.738-43.799L404.777,0H206.625  c-2.487,0.047-12.84,0.808-12.84,10.197v46.546h133.299l96.898,96.898v304.376h11.622h55.228  C493.856,457.892,503.285,456.791,503.285,447.832z"/>
<path style="fill:#B1D9EE;" d="M206.625,0c-2.487,0.047-12.84,0.808-12.84,10.197v46.546h13.376V0H206.625z"/>
<path style="fill:#6598CB;" d="M426.718,99.164h75.921l-98.999-99v81.113C404.437,87.538,408.48,98.236,426.718,99.164z"/>
<g>
	<polygon style="fill:#B1D9EE;" points="193.785,56.742 327.084,56.742 344.231,73.889 344.231,51.223 193.785,51.223  "/>
	<polygon style="fill:#B1D9EE;" points="442.747,149.739 442.016,149.739 344.231,51.223 339.65,69.8 423.983,153.64    423.983,458.016 435.604,458.016 442.747,458.016 442.747,150.553 442.825,150.553 442.747,150.475  "/>
</g>
<g>
	<path style="fill:#FBD7B1;" d="M120.096,59.952V237.15l13.241-1.873V51.223h-0.501C130.485,51.268,121.122,51.957,120.096,59.952z"/>
	<path style="fill:#FBD7B1;" d="M309.725,368.116c0-79.464-64.418-143.884-143.884-143.884c-15.878,0-31.153,2.578-45.435,7.329   l0.013,5.592l14.485-2.051c0.655-0.086,1.311-0.162,1.943-0.237l0.379-0.043c0.391-0.046,0.78-0.092,1.173-0.132   c0.563-0.06,1.129-0.111,1.708-0.163l0.801-0.072c0.34-0.031,0.679-0.063,1.015-0.089l2.661-0.177   c0.289-0.02,0.576-0.04,0.884-0.055c0.373-0.02,0.749-0.032,1.126-0.046l1.76-0.07c0.225-0.01,0.45-0.02,0.684-0.024   c1.106-0.029,2.23-0.042,3.334-0.044l0.284-0.004c1.183,0,2.369,0.018,3.589,0.051c0.198,0.004,0.407,0.013,0.672,0.024   l0.471,0.019c0.796,0.026,1.591,0.054,2.382,0.095c0.289,0.015,0.579,0.035,0.929,0.06l0.764,0.049   c0.613,0.039,1.224,0.075,1.857,0.126c0.338,0.025,0.678,0.059,1.026,0.089l0.778,0.071c0.571,0.051,1.141,0.104,1.695,0.16   c0.392,0.042,0.786,0.087,1.21,0.138l0.323,0.036c0.658,0.076,1.311,0.153,1.962,0.24c0.374,0.049,0.746,0.102,1.117,0.155   l0.461,0.066c0.627,0.091,1.256,0.18,1.88,0.279c0.518,0.082,1.035,0.169,1.586,0.263c0.61,0.104,1.234,0.212,1.885,0.332   c0.497,0.091,1.003,0.189,1.539,0.296c0.607,0.119,1.23,0.245,1.84,0.373c0.514,0.108,1.031,0.222,1.53,0.333   c0.623,0.139,1.231,0.279,1.879,0.435c0.488,0.115,0.988,0.237,1.524,0.372c0.589,0.147,1.192,0.305,1.785,0.462   c0.506,0.135,1.009,0.269,1.514,0.411c0.611,0.17,1.216,0.345,1.81,0.519l0.265,0.078c0.397,0.117,0.805,0.236,1.204,0.359   c0.616,0.189,1.217,0.382,1.826,0.576l0.429,0.138c0.342,0.11,0.683,0.22,1.002,0.327c0.552,0.184,1.096,0.375,1.673,0.576   l1.563,0.55c0.497,0.18,0.992,0.369,1.486,0.555l0.841,0.318c0.287,0.108,0.573,0.215,0.836,0.318   c0.629,0.247,1.248,0.501,1.914,0.775l0.535,0.217c0.225,0.092,0.451,0.182,0.733,0.301c0.666,0.279,1.34,0.576,2.066,0.897   l1.004,0.439c1.014,0.458,2.019,0.927,3.018,1.407l0.298,0.147c0.932,0.451,1.852,0.908,2.746,1.366l1.028,0.543   c0.704,0.368,1.342,0.703,1.944,1.031l1.325,0.742c0.547,0.304,1.092,0.608,1.606,0.904c0.29,0.168,0.571,0.334,0.874,0.515   l0.678,0.402c0.456,0.27,0.911,0.541,1.354,0.811c0.274,0.168,0.545,0.339,0.837,0.521l0.401,0.253   c0.54,0.339,1.073,0.673,1.599,1.013c0.393,0.256,0.783,0.514,1.206,0.796c0.56,0.369,1.077,0.713,1.575,1.053   c0.368,0.251,0.727,0.502,1.089,0.755l0.128,0.089c0.526,0.369,1.034,0.725,1.547,1.096c0.394,0.284,0.796,0.577,1.221,0.891   c0.485,0.357,0.98,0.726,1.48,1.105c0.385,0.29,0.778,0.593,1.158,0.886c0.507,0.393,0.994,0.778,1.487,1.171   c0.374,0.298,0.759,0.607,1.152,0.927c0.48,0.391,0.955,0.786,1.451,1.203c0.369,0.309,0.746,0.627,1.099,0.929   c0.488,0.419,0.964,0.836,1.417,1.235l1.113,0.988c0.436,0.391,0.868,0.791,1.307,1.198l1.125,1.044   c0.486,0.46,0.958,0.918,1.499,1.448l0.93,0.91c0.477,0.472,0.956,0.965,1.475,1.497l0.836,0.857   c0.493,0.514,0.979,1.036,1.508,1.607l0.883,1.225l0.639,0.436c8.539,9.524,15.661,20.171,21.186,31.671l0.236,0.691l0.318,0.481   c0.349,0.741,0.691,1.488,1.026,2.24l0.063,0.141c7.535,16.904,11.432,34.961,11.581,53.667l0.018,1.12   c0,1.307-0.025,2.698-0.079,4.378l-0.042,1.106c-0.047,1.198-0.112,2.393-0.189,3.564l-0.054,0.847   c-0.108,1.471-0.236,2.919-0.383,4.308l-0.088,0.764c-0.132,1.194-0.28,2.383-0.448,3.602c-0.045,0.33-0.09,0.659-0.143,1.018   c-0.408,2.801-0.913,5.627-1.5,8.401l-0.208,0.951c-0.254,1.16-0.524,2.312-0.816,3.492l-0.173,0.715   c-0.359,1.413-0.734,2.798-1.109,4.102l-0.163,0.546c-0.347,1.191-0.713,2.375-1.11,3.606l-0.265,0.818   c-0.887,2.681-1.868,5.361-2.903,7.933l-0.3,0.738c-0.472,1.151-0.957,2.295-1.435,3.379l-0.26,0.592   c-0.602,1.344-1.216,2.664-1.806,3.878l-0.11,0.221c-0.591,1.213-1.206,2.413-1.829,3.599l-0.329,0.624   c-1.341,2.517-2.778,5.021-4.278,7.452l-0.251,0.401c-0.705,1.132-1.426,2.255-2.167,3.37l-0.192,0.293   c-1.595,2.389-3.304,4.775-5.105,7.13l-0.237,0.307c-1.783,2.316-3.659,4.596-5.576,6.78l-0.113,0.126   c-0.944,1.072-1.915,2.14-2.887,3.178c-0.052,0.054-0.103,0.108-0.153,0.162c-1.992,2.116-4.099,4.212-6.208,6.18l-0.209,0.193   c-5.486,5.102-11.426,9.774-17.659,13.889l-0.166,0.11c-3.741,2.461-7.647,4.764-11.614,6.84l-39.754,20.816h18.793   C259.975,496.154,309.725,437.947,309.725,368.116z"/>
</g>
<path style="fill:#F3E2C2;" d="M287.379,374.32c-0.047,1.198-0.111,2.393-0.189,3.564l-0.054,0.847  c-0.108,1.471-0.236,2.919-0.383,4.308l-0.088,0.764c-0.132,1.194-0.28,2.383-0.448,3.602c-0.045,0.33-0.091,0.659-0.143,1.018  c-0.408,2.801-0.913,5.627-1.5,8.401l-0.207,0.951c-0.254,1.16-0.524,2.312-0.816,3.492l-0.173,0.715  c-0.359,1.413-0.734,2.798-1.109,4.102l-0.163,0.546c-0.347,1.191-0.713,2.375-1.11,3.606l-0.265,0.818  c-0.887,2.681-1.868,5.361-2.903,7.933l-0.3,0.738c-0.472,1.151-0.957,2.295-1.435,3.379l-0.26,0.592  c-0.602,1.344-1.216,2.664-1.806,3.878l-0.11,0.221c-0.591,1.213-1.206,2.413-1.829,3.599l-0.329,0.624  c-1.341,2.517-2.778,5.021-4.278,7.452l-0.251,0.401c-0.705,1.132-1.426,2.255-2.167,3.37l-0.192,0.293  c-1.595,2.389-3.304,4.775-5.105,7.13l-0.237,0.307c-1.783,2.316-3.659,4.596-5.576,6.78l-0.113,0.126  c-0.944,1.072-1.915,2.14-2.887,3.178c-0.052,0.054-0.103,0.108-0.153,0.162c-1.992,2.116-4.099,4.212-6.208,6.18l-0.209,0.193  c-5.486,5.102-11.426,9.774-17.659,13.889l-0.166,0.11c-3.741,2.461-7.647,4.764-11.614,6.84l-39.754,20.816H417.01  c2.954-0.114,12.333-1.173,12.489-9.969V149.739l-51.956-46.826l-46.559-51.689H132.836c-2.437,0.046-12.414,0.786-12.817,9.644  l0.4,176.283l14.485-2.049c0.655-0.086,1.311-0.162,1.943-0.237l0.379-0.043c0.391-0.046,0.78-0.092,1.173-0.132  c0.563-0.06,1.129-0.111,1.708-0.163l0.801-0.072c0.34-0.031,0.679-0.063,1.015-0.089l2.661-0.177  c0.289-0.02,0.576-0.04,0.884-0.055c0.373-0.02,0.749-0.032,1.126-0.046l1.76-0.07c0.225-0.01,0.45-0.02,0.684-0.024  c1.106-0.029,2.23-0.042,3.334-0.044l0.284-0.004c1.183,0,2.369,0.018,3.589,0.051c0.198,0.004,0.407,0.013,0.672,0.024l0.471,0.019  c0.796,0.026,1.591,0.054,2.382,0.095c0.289,0.015,0.579,0.035,0.929,0.06l0.764,0.049c0.613,0.039,1.224,0.075,1.857,0.126  c0.338,0.025,0.678,0.059,1.026,0.089l0.778,0.071c0.571,0.051,1.141,0.104,1.695,0.16c0.392,0.042,0.786,0.087,1.21,0.138  l0.323,0.036c0.658,0.076,1.311,0.153,1.962,0.24c0.374,0.049,0.746,0.102,1.117,0.155l0.461,0.066  c0.627,0.091,1.256,0.18,1.88,0.279c0.518,0.082,1.035,0.169,1.586,0.263c0.61,0.104,1.234,0.212,1.885,0.332  c0.497,0.091,1.003,0.189,1.539,0.296c0.607,0.119,1.23,0.245,1.84,0.373c0.514,0.108,1.031,0.222,1.53,0.333  c0.623,0.139,1.231,0.279,1.879,0.435c0.488,0.115,0.988,0.237,1.524,0.372c0.589,0.147,1.192,0.305,1.785,0.462  c0.506,0.135,1.009,0.269,1.514,0.411c0.611,0.17,1.216,0.345,1.81,0.519l0.265,0.078c0.397,0.117,0.805,0.236,1.204,0.359  c0.616,0.189,1.217,0.382,1.826,0.576l0.429,0.138c0.342,0.11,0.683,0.22,1.002,0.327c0.552,0.184,1.096,0.375,1.673,0.576  l1.563,0.55c0.497,0.18,0.992,0.369,1.486,0.555l0.841,0.318c0.287,0.108,0.573,0.215,0.836,0.318  c0.629,0.247,1.248,0.501,1.914,0.775l0.535,0.217c0.225,0.092,0.451,0.182,0.733,0.301c0.666,0.279,1.34,0.576,2.066,0.897  l1.004,0.439c1.014,0.458,2.019,0.927,3.018,1.407l0.298,0.147c0.932,0.451,1.852,0.908,2.746,1.366l1.028,0.543  c0.704,0.368,1.342,0.703,1.944,1.031l1.325,0.742c0.547,0.304,1.092,0.608,1.606,0.904c0.29,0.168,0.571,0.334,0.874,0.515  l0.678,0.402c0.456,0.27,0.911,0.541,1.354,0.811c0.274,0.168,0.545,0.339,0.837,0.521l0.401,0.253  c0.54,0.339,1.073,0.673,1.599,1.013c0.393,0.256,0.783,0.514,1.206,0.796c0.56,0.369,1.077,0.713,1.575,1.053  c0.368,0.251,0.727,0.502,1.089,0.755l0.128,0.089c0.526,0.369,1.034,0.725,1.547,1.096c0.394,0.284,0.796,0.577,1.221,0.891  c0.485,0.357,0.98,0.726,1.48,1.105c0.385,0.29,0.778,0.593,1.158,0.886c0.507,0.393,0.994,0.778,1.487,1.171  c0.374,0.298,0.759,0.607,1.152,0.927c0.48,0.391,0.955,0.786,1.451,1.203c0.369,0.309,0.746,0.627,1.099,0.929  c0.488,0.419,0.964,0.836,1.417,1.235l1.113,0.988c0.436,0.391,0.868,0.791,1.307,1.198l1.125,1.044  c0.486,0.46,0.958,0.918,1.499,1.448l0.93,0.91c0.477,0.472,0.956,0.965,1.475,1.497l0.836,0.857  c0.493,0.514,0.979,1.036,1.508,1.607l0.883,1.225l0.639,0.436c8.539,9.524,15.661,20.171,21.186,31.671l0.236,0.691l0.318,0.481  c0.349,0.741,0.691,1.488,1.026,2.24l0.063,0.141c7.535,16.904,11.432,34.961,11.581,53.667l0.018,1.12  c0,1.307-0.025,2.698-0.079,4.378L287.379,374.32z"/>
<circle style="fill:#F7971D;" cx="152.596" cy="368.116" r="143.886"/>
<path style="fill:#F37521;" d="M24.9,368.116c0-76.747,60.09-139.455,135.79-143.654c-2.68-0.149-5.379-0.231-8.095-0.231  c-79.466,0-143.884,64.42-143.884,143.884S73.129,512,152.595,512c2.716,0,5.415-0.083,8.095-0.231  C84.99,507.569,24.9,444.863,24.9,368.116z"/>
<path style="fill:#6598CB;" d="M247.774,463.452c-7.986-20.116-25.586-27.066-28.01-27.94l-45.469-18.232l-21.378,22.192  l-22.244-21.667l-45.152,17.681l-0.102,0.036c-1.993,0.71-19.705,7.509-27.864,27.646l-3.838,9.585l7.745,6.408  c25.591,21.177,57.962,32.838,91.15,32.838c33.18,0,65.545-11.657,91.137-32.827l7.727-6.395L247.774,463.452z"/>
<path style="fill:#4982AA;" d="M74.706,479.162l-7.745-6.408l3.838-9.585c8.16-20.137,25.872-26.936,27.864-27.646l0.102-0.036  l35.706-13.981l-3.798-3.7l-45.152,17.681l-0.102,0.036c-1.993,0.71-19.705,7.509-27.864,27.646l-3.838,9.585l7.745,6.408  C87.053,500.339,119.424,512,152.612,512c2.212,0,4.419-0.056,6.623-0.159C128.383,510.4,98.59,498.926,74.706,479.162z"/>
<path style="fill:#694B4B;" d="M155.696,250.081h-5.348c-36.515,0-66.219,27.9-66.219,62.193v8.295v7.765v13.118  c0,0,15.075-1.405,16.931-8.272l-0.011-0.008c0.637-0.647,1.169-1.393,1.546-2.22c8.552-0.242,48.499-0.533,71.313-26.41  c2.723,7.48,11.934,21.643,29.655,26.104c0.362,0.902,0.905,1.715,1.568,2.422l-0.147,0.11c1.853,6.867,16.931,8.272,16.931,8.272  v-13.171v-7.712v-8.295C221.916,277.981,192.208,250.081,155.696,250.081z M205.622,328.713l0.636-0.433h0.092l-1.04,0.723  L205.622,328.713z M205.298,328.898l0.072-0.209l0.222-0.411h0.091l-0.264,0.513L205.298,328.898z M203.54,330.175l-0.023-0.033  l1.631-1.109l-0.384,0.35l-1.194,0.829L203.54,330.175z M204.889,329.816l-0.513,0.992c-0.004-0.001-0.004-0.001-0.007-0.002  l-0.073-0.032c-0.011-0.002-0.025-0.013-0.034-0.018l0.834-1.556l0.022-0.02L204.889,329.816z"/>
<path style="fill:#563B3B;" d="M95.801,328.333v-7.765v-8.295c0-33.296,28.007-60.56,63.058-62.118  c-1.05-0.045-2.104-0.074-3.163-0.074h-5.348c-36.515,0-66.219,27.9-66.219,62.193v8.295v7.765v13.118c0,0,6.661-0.623,11.672-3.057  C95.801,338.395,95.801,328.333,95.801,328.333z"/>
<path style="fill:#FBCB99;" d="M213.963,332.434c-2.533-0.742-5.286-0.31-7.425,1.163c-2.134,1.478-3.395,3.82-3.395,6.312v22.313  c0,2.489,1.259,4.832,3.395,6.305c1.45,1.002,3.187,1.525,4.943,1.525c0.83,0,1.667-0.116,2.478-0.354  c1.598-0.467,3.17-1.142,4.668-2.006c0.88-0.507,1.653-1.167,2.28-1.939c0.918-0.445,1.745-1.047,2.428-1.774  c3.371-3.577,5.227-8.162,5.227-12.914C228.564,342.478,222.696,334.989,213.963,332.434z"/>
<path style="fill:#EDBA89;" d="M99.746,333.597c-2.138-1.474-4.891-1.904-7.423-1.166c-8.732,2.556-14.601,10.046-14.601,18.632  c0,8.588,5.868,16.076,14.601,18.634c0.811,0.238,1.648,0.354,2.481,0.354c1.757,0,3.489-0.523,4.942-1.524  c2.138-1.474,3.398-3.817,3.398-6.306v-22.316C103.144,337.417,101.884,335.075,99.746,333.597z"/>
<path style="fill:#FBCB99;" d="M175.908,401.12c-1.639-1.475-3.838-2.245-6.124-2.168l-0.285,0.013  c-0.509,0.018-1.017,0.076-1.511,0.181c-3.223,0.671-6.503,1.013-9.747,1.013h-10.193c-3.342,0-6.717-0.359-10.038-1.074  c-2.479-0.538-5.076,0.019-7.059,1.504c-1.986,1.487-3.144,3.743-3.144,6.125v22.778l-0.006,0.077  c-0.132,2.258,0.781,4.463,2.506,6.042l16.755,15.325c1.556,1.427,3.644,2.22,5.817,2.22c0.044,0,0.09,0,0.134,0  c2.219-0.034,4.331-0.896,5.87-2.397l17.26-16.826c1.498-1.458,2.332-3.404,2.332-5.429v-21.728  C178.476,404.64,177.549,402.597,175.908,401.12z"/>
<path style="fill:#EDBA89;" d="M154.569,448.587l-16.755-15.322c-1.726-1.581-2.64-3.781-2.507-6.044l0.009-0.076v-22.779  c0-2.003,0.822-3.907,2.264-5.351c-2.346-0.383-4.756,0.18-6.627,1.577c-1.986,1.487-3.144,3.743-3.144,6.125v22.778l-0.006,0.077  c-0.132,2.258,0.781,4.463,2.506,6.042l16.755,15.325c1.556,1.427,3.644,2.22,5.817,2.22c0.044,0,0.091,0,0.134,0  c2.219-0.034,4.331-0.896,5.87-2.397l0.073-0.074C157.315,450.419,155.779,449.697,154.569,448.587z"/>
<path style="fill:#FBCB99;" d="M201.887,326.04c-1.01-0.351-1.96-0.763-2.889-1.201c-14.011-6.138-19.826-14.124-22.167-18.886  c-0.14-0.181-0.278-0.378-0.423-0.627c-1.676-2.891-4.284-1.061-4.284-1.061l-0.011-0.007  c-13.083,9.424-27.374,14.937-39.255,18.144c-4.625,1.284-9.055,2.213-13.063,2.886c-7.963,1.373-13.083,1.551-13.083,1.551  c-4.361,0.298-7.741,3.706-7.741,7.814v31.951c0,25.413,22.015,46.088,49.074,46.088h10.193c27.057,0,49.072-20.673,49.072-46.088  v-33.224C207.313,330.11,205.147,327.184,201.887,326.04z"/>
<path style="fill:#EDBA89;" d="M108.979,366.604v-31.951c0-4.107,3.378-7.517,7.738-7.814c0,0,5.12-0.178,13.084-1.551  c4.009-0.673,8.438-1.603,13.066-2.886c10.512-2.839,22.917-7.487,34.702-15.055c-0.277-0.485-0.523-0.953-0.738-1.394  c-0.14-0.181-0.278-0.378-0.423-0.627c-1.676-2.891-4.284-1.061-4.284-1.061l-0.011-0.007  c-13.083,9.424-27.374,14.937-39.255,18.144c-4.625,1.284-9.055,2.213-13.063,2.886c-7.963,1.373-13.083,1.551-13.083,1.551  c-4.361,0.298-7.741,3.706-7.741,7.814v31.951c0,25.413,22.015,46.088,49.074,46.088h10.001  C130.993,412.691,108.979,392.017,108.979,366.604z"/>
<path style="fill:#F7971D;" d="M356.941,150.553h72.64l-98.418-98.96v80.104C331.709,138.033,335.502,150.553,356.941,150.553z"/>
<g>
</g>
<g>
</g>
<g>
</g>
<g>
</g>
<g>
</g>
<g>
</g>
<g>
</g>
<g>
</g>
<g>
</g>
<g>
</g>
<g>
</g>
<g>
</g>
<g>
</g>
<g>
</g>
<g>
</g>
</svg>
