<?xml version="1.0" encoding="iso-8859-1"?>
<!-- Generator: Adobe Illustrator 19.0.0, SVG Export Plug-In . SVG Version: 6.00 Build 0)  -->
<svg xmlns="http://www.w3.org/2000/svg" xmlns:xlink="http://www.w3.org/1999/xlink" version="1.1" id="Layer_1" x="0px" y="0px" viewBox="0 0 491.52 491.52" style="enable-background:new 0 0 491.52 491.52;" xml:space="preserve">
<path style="fill:#F6C358;" d="M68.791,0v445.224c0,15.012,10.588-19.316,23.651-19.316h306.637  c13.062,0,23.651,34.329,23.651,19.316V0H68.791z"/>
<path style="fill:#FCD462;" d="M42.363,65.612v398.726c0,15.012,12.169,27.182,27.183,27.182h352.429  c15.013,0,27.183-12.169,27.183-27.182V65.612H42.363z"/>
<polygon style="fill:#CE783E;" points="68.791,0 93.906,25.115 68.791,50.229 "/>
<polygon style="fill:#DC8744;" points="42.363,65.612 93.906,65.612 93.906,25.115 "/>
<polygon style="fill:#CE783E;" points="422.729,0 397.614,25.115 422.729,50.229 "/>
<g>
	<polygon style="fill:#DC8744;" points="449.157,65.612 397.614,65.612 397.614,25.115  "/>
	<circle style="fill:#DC8744;" cx="123.392" cy="130.176" r="17.649"/>
	<circle style="fill:#DC8744;" cx="368.123" cy="130.176" r="17.649"/>
</g>
<g>
	<circle style="fill:#F6C358;" cx="123.392" cy="130.176" r="13.076"/>
	<circle style="fill:#F6C358;" cx="368.123" cy="130.176" r="13.076"/>
</g>
<path style="fill:#DC8744;" d="M368.124,138.788c-6.168,0-11.171,5.001-11.171,11.171v107.935  c0,57.864-42.855,108.519-100.464,113.947c-66.109,6.23-121.924-45.833-121.924-110.687V149.959c0-6.17-5.001-11.171-11.171-11.171  c-6.168,0-11.171,5.001-11.171,11.171v107.32c0,71.818,55.078,133.705,126.809,137.243c76.676,3.783,140.263-57.507,140.263-133.37  V149.959C379.295,143.79,374.294,138.788,368.124,138.788z"/>
<path style="fill:#FFFFFF;" d="M368.124,120.915c-6.168,0-11.171,5.001-11.171,11.171V240.02  c0,57.864-42.855,108.519-100.464,113.947c-66.109,6.23-121.924-45.833-121.924-110.687V132.086c0-6.17-5.001-11.171-11.171-11.171  c-6.168,0-11.171,5.001-11.171,11.171v107.32c0,71.818,55.078,133.705,126.809,137.243c76.676,3.783,140.263-57.507,140.263-133.37  V132.086C379.295,125.916,374.294,120.915,368.124,120.915z"/>
<path style="fill:#DC8744;" d="M241.872,285.25v-12.893c-16.136-1.65-30.634-8.068-43.46-19.262l12.893-15.368  c9.897,8.596,20.075,13.718,30.567,15.368v-34.276c-13.32-3.176-23.06-7.356-29.243-12.54c-6.183-5.184-9.28-12.871-9.28-23.06  c0-10.183,3.568-18.521,10.694-24.996c7.126-6.48,16.394-10.009,27.829-10.604v-8.831h11.3v9.011  c12.961,0.943,25.203,5.358,36.75,13.247L278.442,177.3c-7.776-5.532-16.204-8.949-25.271-10.245v33.215h0.539  c13.533,3.181,23.498,7.479,29.849,12.899c6.363,5.42,9.549,13.281,9.549,23.582c0,10.312-3.658,18.7-10.963,25.181  c-7.305,6.475-16.956,10.009-28.974,10.599v12.719H241.872z M229.416,171.207c-3.007,2.648-4.511,5.947-4.511,9.892  c0,3.95,1.178,7.07,3.535,9.364c2.357,2.3,6.834,4.505,13.432,6.626v-30.561C236.564,166.999,232.412,168.559,229.416,171.207z   M266.604,248.68c3.299-2.71,4.949-6.121,4.949-10.245c0-4.124-1.302-7.389-3.894-9.807c-2.592-2.413-7.417-4.679-14.487-6.8v31.801  C258.827,253.039,263.305,251.39,266.604,248.68z"/>
<g>
</g>
<g>
</g>
<g>
</g>
<g>
</g>
<g>
</g>
<g>
</g>
<g>
</g>
<g>
</g>
<g>
</g>
<g>
</g>
<g>
</g>
<g>
</g>
<g>
</g>
<g>
</g>
<g>
</g>
</svg>
