<?xml version="1.0" encoding="iso-8859-1"?>
<!-- Generator: Adobe Illustrator 19.0.0, SVG Export Plug-In . SVG Version: 6.00 Build 0)  -->
<svg xmlns="http://www.w3.org/2000/svg" xmlns:xlink="http://www.w3.org/1999/xlink" version="1.1" id="Layer_1" x="0px" y="0px" viewBox="0 0 491.52 491.52" style="enable-background:new 0 0 491.52 491.52;" xml:space="preserve">
<path style="fill:#27A2DB;" d="M330.956,247.926V10.355c0-5.719-4.629-10.355-10.34-10.355H170.904  c-5.711,0-10.34,4.636-10.34,10.355v237.571c0,5.72,4.629,10.355,10.34,10.355h149.713  C326.327,258.281,330.956,253.645,330.956,247.926z"/>
<g>
	<path style="fill:#2D93BA;" d="M225.553,241.027c0.021,0.263,0.256,0.616,0.043,0.837c-0.38-0.16-0.748-0.447-0.925-0.837   c-0.081-0.183-0.051-0.423-0.132-0.615c-0.15-0.366-0.531-0.559-0.792-0.879c-0.246-0.303-0.456-0.702-0.66-1.014   c-0.194-0.299-0.593-0.733-0.306-1.1c0.515,0.029,0.509,0.577,0.924,0.706c0.308-0.002,0.342-0.275,0.66-0.264   c0.534,0.61,0.919,1.569,2.023,1.714c0.489,0.067,1.539-0.331,1.585,0.264c0.053,0.701-0.705,0.306-1.1,0.353   c-0.16,0.018-0.269,0.182-0.485,0.262C226.003,240.6,225.652,240.588,225.553,241.027z"/>
	<path style="fill:#2D93BA;" d="M222.913,236.759c-0.735-0.245-1.119-1.314-1.585-2.024c-0.144-0.217-0.469-0.395-0.571-0.66   c-0.137-0.343-0.092-0.733-0.264-1.099c-0.273-0.581-0.808-1.018-1.145-1.54c-0.329-0.511-0.791-1.259-0.836-1.849   c-0.05-0.651,0.369-1.853,0.968-1.055c0.258,0.345,0.561,1.079,0.747,1.452c0.629,1.251,1.051,3.011,1.805,4.048   c0.426,0.586,0.878,1.116,1.231,1.673C223.442,235.981,222.965,236.45,222.913,236.759z"/>
	<path style="fill:#2D93BA;" d="M252.35,229.146c0.038,0.141-0.069,0.137-0.087,0.221c-0.629-0.053-1.04-0.43-0.969-1.233   c0.033-0.359,0.302-0.986,0.483-1.011C252.409,227.033,252.02,228.744,252.35,229.146z"/>
	<path style="fill:#2D93BA;" d="M249.358,226.99c-0.09,0.318-1.09,1.731-1.539,1.276c-0.248-0.246,0.131-0.564,0.219-0.966   c0.118-0.539-0.025-0.952,0.264-1.32c0.328-0.419,1.042-0.52,1.452-0.969c0.207-0.227,0.485-0.827,0.44-1.231   c-0.076-0.699-0.877-0.692-1.232-1.32c0.065-0.601-0.11-0.957,0.045-1.409c0.162-0.476,0.779-0.714,0.834-1.145   c0.061-0.447-0.72-1.505-0.044-1.671c0.548-0.134,0.728,0.738,1.1,0.791c0.382,0.057,0.977-0.342,1.145-0.528   c0.167-0.184,0.18-0.443,0.308-0.66c0.135-0.224,0.392-0.399,0.528-0.66c0.481-0.921,0.285-2.329,1.057-2.683   c0.137-0.063,0.287,0.035,0.483-0.044c0.241-0.096,0.319-0.45,0.528-0.572c0.537-0.312,1.329-0.093,1.409,0.44   c0.071,0.481-0.522,1.43-0.881,1.54c-0.188,0.059-0.399-0.04-0.615,0c-0.26,0.05-0.896,0.439-0.924,0.792   c-0.038,0.456,0.666,0.725,0.924,1.143c0.178,0.29,0.382,0.764,0.352,1.145c-0.029,0.374-0.323,0.625-0.483,1.055   c-0.116,0.308-0.161,0.691-0.264,1.057c-0.09,0.319-0.278,0.596-0.396,0.923c-0.38,1.048-0.602,2.295-1.277,2.86   c-0.185,0.155-0.457,0.151-0.66,0.353c-0.188,0.186-0.371,1.203-0.792,1.231c-0.32,0.022-0.339-0.419-0.66-0.439   C250.037,225.938,250.075,226.837,249.358,226.99z"/>
	<path style="fill:#2D93BA;" d="M223.001,217.705c-0.549-0.131-1.159-0.55-1.54-1.1c-0.276-0.397-0.835-1.659-0.045-1.804   c0.22-0.04,1.241,0.246,1.453,0.351c0.617,0.311,0.213,0.643,0.132,1.145C222.917,216.812,223.312,217.295,223.001,217.705z"/>
	<path style="fill:#2D93BA;" d="M286.98,214.273c-0.528,0.179-1.048,0.301-1.54,0.441c-0.603-0.486-0.38-1.445-0.703-2.156   c-0.152-0.335-0.708-0.427-0.792-0.749c-0.068-0.259,0.224-0.459,0.22-0.704c-0.012-0.632-1.058-0.941-0.792-1.717   c-0.264-0.443-1.278,0.018-1.363-0.528c-0.061-0.388,0.44-0.601,0.748-0.837c0.373-0.285,0.578-0.691,0.88-0.702   c0.313-0.012,0.838,0.631,1.056,0.834c0.268,0.25,0.767,0.741,0.837,1.056c0.129,0.587-0.057,1.182,0.131,1.629   c0.164,0.385,0.771,0.408,0.924,0.615c0.13,0.177,0.095,0.378,0.176,0.529c0.221,0.408,0.982,0.849,1.76,0.616   c0.491-0.147,1.029-0.961,1.629-0.439c-0.083,0.779-0.851,1.807-1.629,1.936c-0.303,0.05-0.607-0.118-0.924-0.089   C287.415,214.025,287.219,214.194,286.98,214.273z"/>
	<path style="fill:#2D93BA;" d="M291.777,214.45c-0.224-0.099-0.178-0.298-0.308-0.483c-0.127-0.18-0.53-0.393-0.572-0.615   c-0.067-0.354,0.347-0.75,0.263-1.101c-0.098-0.412-0.414-0.171-0.791-0.308c0.077-0.361,0.479-0.954,0.88-0.968   c0.252-0.01,0.408,0.318,0.703,0.397c0.503,0.13,0.757-0.208,1.232-0.397c0.071-0.013,0.076,0.042,0.132,0.044   c0.09,0.43-0.72,1.274-0.88,2.245C292.334,213.889,292.389,214.413,291.777,214.45z"/>
	<path style="fill:#2D93BA;" d="M247.113,212.823c-0.366,0.045-0.323-0.593-0.087-0.66   C247.31,212.175,247.399,212.744,247.113,212.823z"/>
	<path style="fill:#2D93BA;" d="M295.473,209.741c-0.23,0.436-0.752,1.491-1.232,0.748   C294.407,210.039,294.976,209.57,295.473,209.741z"/>
	<path style="fill:#2D93BA;" d="M249.049,207.718c0.274,0.503,0.877,1.053,0.573,1.936c-0.548-0.193-0.537-0.857-0.792-1.276   c-0.259-0.424-0.698-0.783-0.748-1.32c0.078-0.041,0.137-0.099,0.177-0.177C248.75,206.879,248.862,207.369,249.049,207.718z"/>
	<path style="fill:#2D93BA;" d="M257.323,206.53c-0.001,0.516,0.159,1.003-0.044,1.362c-1.1-0.067-0.264-1.773-0.44-2.902   c-0.037-0.241-0.223-0.312-0.131-0.573c0.372,0.015,0.749,0.417,0.791,0.836C257.532,205.575,257.324,206.058,257.323,206.53z"/>
	<path style="fill:#2D93BA;" d="M255.959,206.969c-0.609,0.05-0.677-0.781-1.146-1.012c-0.559,0.366-1.34,0.508-1.847,0.924   c-0.336-0.018-0.774,0.068-0.925-0.132c-0.17-0.885,1.422-1.362,1.979-1.717c-0.127-0.677-2.293-0.059-2.024-0.967   c0.132-0.446,0.751,0.006,1.231-0.089c0.422-0.082,0.509-0.495,0.838-0.528c0.271-0.025,0.559,0.299,0.836,0.396   c0.399,0.14,1.167,0.051,1.187,0.528c0.011,0.236-0.495,0.551-0.527,0.704C255.449,205.602,256.098,206.227,255.959,206.969z"/>
	<path style="fill:#2D93BA;" d="M249.402,205.341c-0.333-0.162-0.173-1.067,0.132-1.143   C249.881,204.352,249.777,205.266,249.402,205.341z"/>
	<path style="fill:#2D93BA;" d="M248.347,204.504c-0.066-0.051-0.125-0.11-0.177-0.174c0.107-0.335,0.188-0.691,0.528-0.792   C249.06,203.785,248.76,204.493,248.347,204.504z"/>
	<path style="fill:#2D93BA;" d="M249.447,203.317c-0.317-0.223,0.025-0.998-0.308-1.276c0.011-0.458,0.017-0.919,0.396-1.012   c0.322,0.132,0.101,0.549,0.132,0.88C249.715,202.44,250.088,203.176,249.447,203.317z"/>
	<path style="fill:#2D93BA;" d="M232.593,197.113c0.389-0.003,0.731-0.247,1.143-0.309c0.149-0.022,0.341,0.022,0.529,0   c0.272-0.029,0.499-0.164,0.66-0.132c0.291,0.061,0.322,0.401,0.572,0.485c0.41,0.138,0.476-0.169,0.968-0.177   c0.348-0.006,0.517,0.264,0.968,0.441c0.209,0.081,0.599,0.085,0.748,0.175c0.188,0.114,0.347,0.601,0.439,0.792   c0.331,0.675,0.947,1.215,1.057,1.894c0.028,0.171-0.021,0.404,0,0.528c0.07,0.399,0.404,0.9,0.528,1.452   c0.121,0.534,0.076,1.006,0.309,1.408c0.254,0.441,0.921,1.066,1.32,1.231c0.483,0.201,0.891,0.142,1.056,0.528   c0.08,0.19-0.007,0.375,0.044,0.572c0.053,0.204,0.261,0.641,0.396,0.792c0.275,0.307,0.725,0.357,1.012,0.704   c0.198,0.241,0.504,0.693,0.659,1.013c0.095,0.188,0.192,0.537,0.177,0.702c-0.053,0.621-0.919,0.91-0.748,1.585   c0.061,0.241,0.573,0.487,0.88,0.705c0.449,0.317,1.053,0.548,1.188,1.099c0.109,0.445-0.171,0.943,0.22,1.188   c0.278,0.055,0.443-0.208,0.617,0c-0.032,0.513-0.724,1.38-0.747,2.156c-0.014,0.418,0.455,1.193-0.177,1.277   c-0.28,0.037-0.506-0.313-0.792-0.396c-0.202-0.059-0.311,0.087-0.528-0.044c-0.141-0.358-0.215-0.737-0.615-0.748   c-0.502-0.013-0.738,0.71-1.013,1.143c-0.188,0.298-0.476,0.546-0.571,0.705c-0.08,0.135-0.118,0.35-0.176,0.44   c-0.186,0.286-0.606,0.488-0.617,0.881c-0.011,0.447,0.559,0.893,1.102,1.143c0.633,0.293,1.402,0.309,2.068,0.439   c0.222,0.044,0.439,0.202,0.66,0.264c0.602,0.17,1.415,0.4,1.628,0.923c-0.557,0.525-1.639,0.705-2.554,0.618   c-0.267,0.351-0.178,0.969-0.792,1.055c-0.212,0.03-0.483-0.105-0.702-0.088c-0.371,0.03-0.695,0.306-1.012,0.353   c-0.587,0.088-1.07-0.098-1.496,0.174c-0.538,0.344-0.52,1.017-1.102,1.452c-0.361-0.008-0.507,0.135-0.79,0.22   c-0.135,0.041-0.354,0.002-0.441,0.045c-0.294,0.141-0.323,0.522-0.571,0.66c-0.122,0.068-0.353,0.049-0.572,0.132   c-0.323,0.12-0.564,0.41-0.88,0.616c-0.306,0.199-0.638,0.524-0.881,0.572c-0.438,0.088-0.739-0.23-1.099-0.309   c-0.438-0.095-1.002,0-1.452-0.174c-0.529-0.204-1.05-0.708-1.716-1.101c-0.548-0.323-1.164-0.761-1.54-1.232   c-0.222-0.278-0.351-0.608-0.573-0.88c-0.343-0.421-0.789-0.767-1.188-1.143c-0.419-0.396-0.739-0.877-1.099-1.189   c-0.524-0.452-1.368-0.677-1.453-1.451c-0.05-0.453-0.011-0.86-0.177-1.277c-0.259-0.651-0.735-1.083-0.748-1.407   c-0.011-0.34,0.399-0.654,0.44-0.969c0.045-0.352-0.267-0.629-0.264-1.143c0.001-0.21,0.125-0.315,0.22-0.615   c0.199-0.629,0.191-1.32,0.879-1.408c0.375-0.05,0.544,0.239,0.881,0.219c0.336-0.019,0.42-0.348,0.704-0.485   c0.303,0.087,0.686,0.101,0.881-0.22c0.273-0.011,0.469,0.059,0.615,0.177c-0.109-0.255-0.177-0.592-0.353-0.881   c-0.193-0.32-0.638-0.551-0.571-0.922c0.122-0.348,0.468-0.081,0.748-0.132c0.213-0.039,1.124-0.525,1.276-0.749   c0.174-0.254,0.524-1.185,0.573-1.496c0.212-1.36-0.515-2.227-0.618-3.301c-0.025-0.276,0.047-0.576,0-0.835   c-0.155-0.884-0.857-1.87-1.319-2.421c-0.09-0.91,0.187-1.832-0.089-2.773c-0.272-0.932-1.049-1.466-0.834-2.902   c0.245-0.285,0.366-0.79,0.791-0.792c0.336-0.003,0.552,0.497,0.792,0.66c0.257,0.173,0.861,0.47,1.232,0.483   c0.292,0.009,0.642-0.197,1.011-0.177C232,196.953,232.308,197.115,232.593,197.113z"/>
	<path style="fill:#2D93BA;" d="M250.942,196.365c0.033,0.24,0.211,0.419,0.219,0.66c0.02,0.512-0.379,1.02-0.306,1.627   c-0.143,0.132-0.26,0.042-0.486,0.046c-0.275,0.515-0.224,1.359-0.747,1.627c-0.409-0.386-0.116-0.958-0.044-1.452   c0.063-0.447,0.032-0.922,0.088-1.408c0.071-0.615,0.411-1.172,0.483-1.759c0.045-0.357-0.051-0.721,0-1.057   c0.061-0.396,0.618-1.871,1.011-1.892c0.406-0.021,0.52,0.664,0.441,1.276C251.499,194.823,250.801,195.351,250.942,196.365z"/>
	<path style="fill:#2D93BA;" d="M253.978,197.552c0.093-0.332,0.042-0.644,0.132-0.79c0.185-0.302,0.712-0.257,1.012-0.354   c0.303-0.097,0.465-0.462,0.88-0.659c0.6-0.287,1.943-0.41,2.068,0.351c0.051,0.306-0.185,0.622-0.132,0.836   c0.105,0.425,0.654,0.35,0.881,0.704c0.127,0.197,0.073,0.557,0.176,0.837c0.106,0.288,0.38,0.504,0.616,0.704   c0.22,0.185,0.589,0.329,0.747,0.572c0.18,0.273,0.185,0.527,0.353,0.748c0.44,0.577,1.053,0.596,1.585,1.056   c0.449,0.391-0.432,1.009-0.792,1.057c-0.28,0.219-0.349,0.649-0.66,0.836c-0.774-0.259-0.841-0.99-1.936-0.836   c-0.179,0.025-0.51,0.147-0.749,0.264c-0.258,0.126-0.536,0.498-0.703,0.483c-0.329-0.029-0.315-0.691-0.66-0.837   c-0.32-0.133-0.341,0.01-0.836-0.043c-0.359-0.185-0.446-0.682-0.881-0.837c-0.523-0.186-1.2,0.028-1.585-0.395   c0.016-0.293-0.253-0.612-0.219-0.967c0.035-0.386,0.564-0.753,0.572-1.366c0.002-0.233-0.149-0.509-0.132-0.748   C253.728,197.981,253.901,197.829,253.978,197.552z"/>
	<path style="fill:#2D93BA;" d="M254.957,194.705c0,1.119-1.737,1.119-1.737,0C253.22,193.585,254.957,193.585,254.957,194.705z"/>
	<path style="fill:#2D93BA;" d="M255.167,193.064c-0.019,0.138-0.696,0.624-0.881,0.617c-0.31-0.015-0.293-0.481-0.704-0.617   c-0.632-0.207-1.349,0.093-1.673-0.263c-0.121-0.2-0.085-0.561-0.087-0.88c0.561-0.798,1.23-1.43,1.98-2.113   c0.272-0.248,0.509-0.55,0.792-0.704c0.42-0.229,0.882-0.31,1.276-0.571c0.345-0.231,0.592-0.654,0.968-0.881   c0.309-0.184,0.715-0.201,1.013-0.395c0.276-0.182,0.395-0.489,0.617-0.705c0.144-0.14,0.37-0.22,0.528-0.351   c0.662-0.553,1.008-1.617,1.98-1.671c0.258,0.225-0.097,0.458-0.177,0.879c-0.051,0.273,0.022,0.596-0.044,0.792   c-0.134,0.4-0.759,0.675-1.1,1.1c-0.191,0.238-0.323,0.548-0.528,0.791c-0.219,0.261-0.532,0.452-0.66,0.66   c-0.176,0.286-0.291,0.683-0.529,1.056c-0.323,0.509-0.66,1.417-1.321,1.54c-0.164,0.03-0.441-0.077-0.57-0.045   c-0.231,0.061-0.331,0.353-0.528,0.528c-0.245,0.216-0.612,0.261-0.661,0.572C254.772,192.714,255.21,192.728,255.167,193.064z"/>
	<path style="fill:#2D93BA;" d="M264.408,172.295c-0.124,0.379-1.661,1.643-2.509,1.276c-0.241-0.105-0.551-0.54-0.483-0.968   c0.138-0.871,2.077-0.705,2.86-0.44C264.339,172.187,264.383,172.232,264.408,172.295z"/>
	<path style="fill:#2D93BA;" d="M242.141,143.033c0.354,0.039,0.936,0.291,1.146,0.572c0.301,0.406,0.27,0.954,0.483,1.364   c0.177,0.338,0.469,0.806,0.792,1.056c0.275,0.212,0.588,0.224,0.792,0.397c0.141,0.118,0.179,0.384,0.351,0.527   c0.156,0.128,0.444,0.1,0.615,0.309c0.261,0.611-0.858,0.786-1.627,0.881c-0.24,0.028-0.497,0.152-0.616,0.13   c-0.351-0.063-0.423-0.45-0.662-0.571c-0.964-0.03-1.802-0.409-2.594-0.749c-0.685-0.292-1.435-0.462-2.025-0.703   c-0.214-0.088-0.382-0.272-0.571-0.351c-0.749-0.318-1.925-0.434-2.245-1.013c-0.114-0.208-0.311-1.011-0.308-1.232   c0.008-0.539,0.413-1.006,0.879-1.144c0.25-0.075,0.511-0.001,0.792-0.044c0.353-0.054,0.654-0.264,1.057-0.22   c0.896,0.098,1.33,0.97,2.068,1.012C241.025,143.285,241.577,142.972,242.141,143.033z"/>
	<path style="fill:#2D93BA;" d="M304.758,121.824c-0.738,0.051-0.646-1.128-1.277-1.277c-0.286-0.067-0.667,0.138-0.924,0.089   c-0.462-0.09-0.328-0.537-0.572-1.1c-0.124-0.288-0.582-0.567-0.616-0.88c-0.031-0.29,0.169-0.467,0.131-0.66   c-0.054-0.289-0.409-0.192-0.483-0.617c-0.059-0.338,0.302-0.929-0.132-0.968c-0.279-0.026-0.43,0.531-0.395,0.88   c0.027,0.277,0.217,0.479,0.22,0.748c0.005,0.521-0.387,0.86-0.397,1.188c-0.021,0.756,0.698,1.497,0.617,2.289   c-0.037,0.358-0.29,0.57-0.264,0.836c0.04,0.424,0.53,0.786,0.704,1.1c0.741-0.133,1.719,0.012,1.76,0.705   c0.028,0.476-0.813,1.189,0,1.276c0.353,0.038,0.666-0.375,0.66-0.66c-0.005-0.253-0.501-0.586-0.089-0.792   c0.403,0.001,0.297,0.453,0.397,0.705c0.074,0.187,0.278,0.319,0.352,0.528c0.368,1.047-0.361,2.498,0.528,2.904   c0.792-0.929-0.289-2.51-0.22-3.564c0.029-0.45,0.363-1.043,0.792-1.188c0.136-0.046,0.318-0.008,0.571-0.044   c0.281-0.04,0.575-0.186,0.749-0.176c0.794,0.044,0.944,2.023,1.936,2.023c0.362-0.378,0.301-1.486-0.088-1.848   c-0.14-0.13-0.423-0.123-0.705-0.308c-0.601-0.395-0.672-1.669-1.408-2.068c-0.164-0.089-0.61-0.243-0.88-0.177   C305.309,120.872,305.196,121.794,304.758,121.824z M261.723,111.351c0.186-1.268-0.326-2.565-0.703-3.433   c-0.219-0.501-0.552-1.011-0.572-1.452c-0.02-0.418,0.222-0.829,0.263-1.231c0.054-0.525,0.004-1.197-0.088-1.717   c-0.09-0.506-0.451-0.962-0.483-1.408c-0.065-0.853,0.769-1.664,1.188-2.2c0.255-0.328,0.465-0.661,0.704-0.968   c0.258-0.329,0.413-0.756,0.66-1.012c0.335-0.347,0.919-0.347,1.364-0.528c0.524-0.214,0.91-0.867,1.408-1.364   c0.372-0.372,0.929-1.227,1.408-1.32c0.245-0.047,0.527,0.104,0.792,0.088c0.386-0.023,0.605-0.313,0.88-0.308   c0.387,0.009,0.686,0.464,1.012,0.572c0.167,0.056,0.402,0.029,0.616,0.088c0.447,0.123,0.711,0.419,1.364,0.352   c0.26-0.027,0.498-0.25,0.836-0.264c0.231-0.009,0.36,0.152,0.572,0.132c0.376-0.033,0.449-0.521,0.88-0.572   c0.446-0.051,0.813,0.426,1.32,0.705c0.227,0.126,0.575,0.194,0.748,0.308c0.375,0.247,0.556,0.649,0.924,0.837   c0.272,0.138,0.676,0.182,0.88,0.308c0.262,0.162,0.403,0.484,0.748,0.792c0.281,0.25,0.621,0.352,0.748,0.528   c0.16,0.221,0.199,0.551,0.308,0.792c0.371,0.815,0.849,1.41,1.629,1.804c0.708-0.12,1.007,0.061,1.496,0.352   c0.452,0.269,0.884,0.466,1.145,0.924c0.311,0.55,0.34,1.067,0.923,1.451c0.292,0.192,0.797,0.481,1.1,0.485   c0.436,0.004,0.993-0.447,1.057-0.836c0.063-0.398-0.302-1.009,0.131-1.232c0.139-0.071,0.463,0.027,0.617,0   c0.288-0.051,0.491-0.298,0.704-0.308c0.413-0.021,0.843,0.407,1.32,0.528c0.649,0.165,1.146,0.006,1.892-0.044   c0.97,0.616,0.489,1.982,0.397,3.345c-0.014,0.204,0.049,0.439,0.043,0.66c-0.019,0.808-0.262,1.444,0.44,1.716   c0.264,0.102,1.248,0.194,1.497,0.132c0.295-0.072,1.058-0.65,1.231-0.925c0.278-0.437,0.157-1.07,0.66-1.32   c0.869,0.203,0.146,1.177,0.352,1.76c0.106,0.298,0.621,0.264,0.705,0.529c0.057,0.18-0.181,0.41-0.177,0.66   c0.004,0.213,0.392,0.986,0.529,1.188c0.19,0.281,0.585,0.368,0.748,0.616c0.11,0.168,0.097,0.389,0.176,0.572   c0.161,0.374,0.489,0.848,0.792,1.1c0.436,0.363,0.976,0.527,1.056,0.968c0.108,0.59-0.117,1.925,0.529,2.025   c0.615,0.094,1.098-0.541,1.76-0.308c0.523,0.184,0.431,0.654,0.748,1.32c-0.228,0.321-0.879,0.228-1.277,0.263   c-0.003,0.409,0.121,1.241,0.484,1.32c0.453,0.099,0.915-0.596,1.188-0.748c0.297-0.164,0.818-0.2,0.88-0.528   c0.129-0.67-0.924-1.321-0.924-2.157c0-0.549,0.423-1.131,0.836-1.276c0.236-0.082,0.458-0.008,0.704-0.044   c0.36-0.053,0.733-0.269,1.231-0.176c0.578,0.337,0.671,1.113,0.969,1.672c0.112,0.211,0.352,0.381,0.44,0.616   c0.146,0.395-0.001,0.978,0.22,1.364c0.139,0.245,0.379,0.176,0.66,0.352c0.177,0.11,0.28,0.379,0.483,0.528   c0.141,0.104,0.355,0.116,0.485,0.22c0.476,0.382,0.651,1.08,1.144,1.363c0.218,0.125,0.299-0.217,0.617-0.131   c0.307,0.142,0.081,0.691,0.132,1.011c0.068,0.438,0.6,0.842,0.703,1.32c0.108,0.499,0.042,1.033,0.22,1.497   c0.107,0.277,0.358,0.531,0.397,0.792c0.013,0.092-0.05,0.352-0.044,0.483c0.007,0.168,0.11,0.349,0.132,0.572   c0.032,0.323-0.079,0.725-0.088,1.145c-0.016,0.695,0.209,1.357-0.044,1.936c-0.132,0.303-0.476,0.269-0.616,0.66   c-0.071,0.197,0.028,0.457,0,0.748c-0.041,0.431-0.339,0.881-0.397,1.452c-0.02,0.203,0.025,0.413,0,0.615   c-0.077,0.629-0.408,1.32-0.616,1.937c-0.174,0.515-0.391,1.608-0.88,1.628c-0.579,0.024-0.748-0.95-0.748-1.364   c0-0.692,0.404-1.609,0.176-2.331c-0.996,0.011-1.749,1.085-1.628,2.068c0.468,0.086,0.208-0.556,0.66-0.485   c0.331,0.439-0.222,0.964-0.132,1.585c0.065,0.242,0.416,0.201,0.66,0.263c0.318,0.523,0.784,1.179,0.44,1.98   c0.078,0.04,0.137,0.099,0.176,0.177c0.483,0.052,0.735-0.528,1.189-0.22c0.312,0.153,0.204,0.974-0.044,1.1   c-0.298,0.063-0.266-0.203-0.528-0.177c-0.351,0.156-0.407,0.515-0.397,0.705c0.023,0.432,0.41,0.518,0.617,0.924   c0.083,0.164,0.092,0.405,0.176,0.615c0.099,0.249,0.299,0.46,0.352,0.66c0.039,0.147,0,0.368,0.044,0.572   c0.056,0.26,0.264,0.534,0.263,0.748c0,0.266-0.307,0.455-0.352,0.792c-0.024,0.183,0.104,0.392,0.132,0.66   c0.023,0.216-0.025,0.439,0,0.616c0.061,0.42,0.282,0.709,0.264,1.056c-0.013,0.246-0.344,0.667-0.177,0.836   c0.282,0.285,0.492-0.38,0.749-0.174c-0.051,0.674-0.035,1.391-0.132,2.068c-0.143,1.005-0.641,1.952-0.66,2.859   c0.611-0.085,0.436-0.786,0.703-1.1c0.082-0.096,0.727-0.489,0.924-0.483c0.099,0.002,0.946,0.498,1.056,0.616   c0.364,0.388,0.362,1.66-0.131,2.023c-0.338,0.249-0.847,0.167-0.837,0.528c0.009,0.311,0.773,0.477,0.792,0.837   c0.016,0.298-0.49,0.449-0.485,0.748c0.008,0.365,0.687,0.618,0.705,1.1c0.01,0.26-0.133,0.347-0.176,0.747   c0.177,0.276,0.41-0.092,0.66,0.045c0.358,0.492,0.086,1.616,0.308,2.243c0.209,0.176,0.357-0.224,0.572-0.044   c0.379,0.542,0.413,1.454,0.571,2.377c0.097,0.564,0.489,1.097,0.529,1.539c0.041,0.462-0.271,0.903-0.264,1.32   c0.004,0.254,0.081,0.548,0.176,0.792c0.097,0.247,0.337,0.417,0.397,0.661c0.095,0.386-0.046,0.873,0,1.32   c0.048,0.472,0.231,0.889,0.176,1.231c-0.051,0.32-0.392,0.577-0.44,0.88c-0.145,0.927,0.139,1.883-0.088,2.728   c-0.041,0.151-0.198,0.303-0.265,0.485c-0.207,0.566-0.142,0.951-0.836,1.057c-0.158,0.444-0.566,0.705-0.704,1.231   c-0.092,0.351,0.044,0.704,0.044,1.1c0,0.52-0.02,1.186-0.088,1.628c-0.039,0.252-0.225,0.46-0.265,0.705   c-0.029,0.178,0.019,0.413,0,0.615c-0.025,0.276-0.139,0.523-0.132,0.748c0.014,0.461,0.426,0.811,0.485,1.188   c0.031,0.203-0.072,0.471-0.088,0.66c-0.062,0.741,0.097,1.596-0.045,2.2c-0.075,0.323-0.431,0.876-0.703,1.232   c-0.198,0.259-0.512,0.416-0.66,0.66c-0.14,0.231-0.391,0.818-0.352,1.057c0.044,0.281,0.358,0.293,0.483,0.571   c0.194,0.873-0.278,2.422,0.044,3.125c0.125,0.272,0.413,0.219,0.572,0.44c0.064,1.32-0.054,2.636-0.088,3.872   c-0.012,0.435,0.111,0.884,0.044,1.277c-0.076,0.435-0.512,0.753-0.66,1.187c-0.098,0.289-0.047,0.798-0.132,1.232   c-0.057,0.292-0.232,0.531-0.263,0.747c-0.067,0.47,0.052,0.919,0.088,1.366c0.081,1.009,0.134,2.306-0.264,3.3   c-0.212,0.529-0.641,0.751-0.703,1.319c-0.09,0.813,0.067,2.072,0,2.905c-0.017,0.199-0.099,0.384-0.088,0.528   c0.02,0.279,0.257,0.449,0.263,0.792c0.01,0.435-0.679,1.129-0.572,1.761c0.184,0.272,0.441-0.219,0.617,0.042   c0.206,0.248,0.002,0.587,0,0.969c-0.002,0.208,0.106,0.464,0.088,0.66c-0.042,0.483-0.477,0.942-0.615,1.54   c-0.111,0.474-0.152,1.127-0.089,1.717c0.047,0.422,0.189,0.785,0.132,1.188c-0.027,0.195-0.168,0.368-0.22,0.571   c-0.048,0.188-0.002,0.371-0.043,0.528c-0.04,0.147-0.178,0.292-0.22,0.441c-0.234,0.818-0.35,1.907-0.617,2.772   c-0.157,0.509-0.472,1.029-0.483,1.452c-0.007,0.208,0.09,0.393,0.088,0.66c-0.009,1.329-0.562,2.893-1.805,2.77   c-0.341-1.556,1.071-2.857,0.66-4.488c-0.065-0.26-0.351-0.549-0.615-0.527c-0.767,0.06-0.702,1.993-1.452,2.155   c-0.237-0.317-0.013-0.662-0.044-0.923c-0.047-0.397-0.466-1.065-0.703-1.32c-0.279-0.298-0.993-0.559-1.057-0.88   c-0.077-0.393,0.388-0.994,0.264-1.585c-0.046-0.217-0.316-0.425-0.352-0.615c-0.092-0.486,0.264-1.104-0.308-1.407   c-0.402,0.16-0.962,0.062-1.188,0.395c-0.147,0.215-0.033,0.483-0.132,0.748c-0.116,0.309-0.492,0.48-0.704,0.747   c-0.172,0.219-0.177,0.452-0.396,0.573c-0.324,0.028-0.36-0.129-0.572-0.089c-0.369,0.069-0.452,0.646-0.704,0.66   c-0.318,0.02-0.25-0.363-0.572-0.439c-0.205-0.028-0.259,0.237-0.528,0.263c-0.18,0.018-0.368-0.146-0.572-0.131   c-0.293,0.019-0.489,0.25-0.748,0.219c-0.222-0.026-0.395-0.219-0.484-0.397c0.541-0.842,1.287-1.601,1.98-2.508   c0.711-0.928,1.585-2.399,3.08-2.551c0.229-0.005,0.409,0.486,0.748,0.572c0.139,0.035,0.337-0.055,0.528-0.044   c0.517,0.031,1.013,0.458,1.32,0.441c0.337-0.021,0.962-0.649,1.057-0.969c-0.134-0.255-0.401-0.003-0.617-0.044   c-0.266-0.051-0.59-0.373-0.616-0.66c-0.072-0.832,1.072-0.926,0.748-2.245c-0.084-0.341-0.599-0.821-1.232-0.703   c-0.192,0.036-0.399,0.566-0.66,0.528c-0.253-0.037-0.328-1.199-0.308-1.453c0.057-0.71,0.588-1.075,0.572-1.715   c-0.008-0.314-0.263-0.59-0.308-0.837c-0.253-1.386,0.682-3.443-0.528-3.915c-0.171-0.068-0.395-0.03-0.572-0.089   c-0.254-0.086-0.454-0.288-0.617-0.352c-0.136-0.054-0.403-0.045-0.616-0.132c-0.192-0.08-0.943-0.912-1.145-0.176   c-0.047,0.176,0.076,0.258,0.044,0.485c-0.051,0.378-0.658,1.007-0.66,1.451c-0.001,0.266,0.299,0.633,0.308,0.836   c0.02,0.408-0.243,0.702-0.396,1.012c-0.146,0.296-0.451,0.748-0.44,0.969c0.021,0.416,0.309,0.217,0.44,0.616   c-0.226,0.761-1.032,1.118-1.672,1.847c-0.231,0.265-0.43,0.656-0.748,1.013c-0.178,0.199-0.654,0.811-0.88,0.837   c-0.21,0.023-0.3-0.171-0.484-0.221c-0.268-0.071-0.465,0.096-0.66-0.088c0.26-0.702,0.952-0.86,1.54-1.364   c0.219-0.187,0.479-0.375,0.792-0.659c0.141-0.129,0.637-0.596,0.528-0.881c-0.21-0.553-1.049,0.303-1.232,0.44   c-0.388,0.292-0.91,0.68-1.32,0.705c-0.262,0.016-0.739-0.171-1.188-0.177c-0.303-0.003-0.579,0.076-0.836,0.044   c-0.258-0.033-0.552-0.216-0.837-0.309c-0.322-0.104-0.708-0.127-0.923-0.219c-0.397-0.171-0.863-0.747-0.88-1.146   c-0.016-0.365,0.281-0.522,0.263-0.88c-0.026-0.541-0.525-0.641-0.923-0.967c-0.433,0.028-0.582,0.163-0.88,0.088   c-0.467-0.119-0.548-0.768-1.012-0.748c-0.43,0.018-0.513,0.593-0.705,0.879c-0.261,0.393-0.842,1.08-1.32,1.453   c-0.313,0.245-0.899,0.598-1.231,0.572c-0.436-0.033-1.041-1.287-0.88-1.806c0.152-0.492,0.622-0.323,1.056-0.439   c0.333-0.09,0.477-0.351,0.748-0.483c0.142-0.071,0.368-0.038,0.528-0.133c0.448-0.266,0.203-0.729,0.485-1.277   c0.184-0.359,0.572-0.254,0.924-0.395c0.473-0.189,0.697-0.987,0.571-1.627c-0.091-0.471-0.487-0.618-0.571-1.057   c0.382-0.645,1.326,0.132,1.408-0.66c0.063-0.607-0.871-1.009-1.144-1.365c-0.183-0.24-0.221-0.675-0.483-0.703   c-0.486-0.052-0.387,0.512-0.572,0.966c-0.169,0.413-0.636,0.46-0.66,0.837c-0.021,0.315,0.324,0.523,0.352,0.836   c0.048,0.541-0.196,0.98-0.397,1.32c-0.533-0.22-0.924-1.405-1.628-1.408c-0.408-0.002-0.478,0.473-0.748,0.837   c-0.228,0.307-0.871,0.711-1.32,1.144c-0.193,0.187-0.321,0.489-0.44,0.573c-0.291,0.203-0.645,0.171-0.837,0.395   c-0.241,0.038-0.3-0.11-0.528-0.088c-0.317,0.109-0.257,0.596-0.572,0.704c-0.759-0.09-1.473,0.226-1.76-0.396   c-1.361-0.287-2.426-0.61-3.168-1.54c-0.666-0.837-0.862-1.941-1.188-2.949c-0.084-0.261-0.36-0.47-0.44-0.704   c-0.199-0.585-0.078-1.628-0.792-1.671c-0.352-0.024-0.565,0.447-0.924,0.483c-0.551,0.055-1.105-0.438-1.144-0.792   c-0.028-0.255,0.15-0.806,0.617-0.837c0.524-0.034,0.739,0.651,1.056,0.705c0.56,0.093,1.106-0.483,1.056-1.144   c-0.043-0.581-1.21-1.903-1.848-1.936c-0.477-0.026-1.469,0.944-1.76,1.276c-1.089,1.236-1.742,2.548-4.4,2.331   c-0.673-0.309-0.817-1.098-1.188-1.715c-0.282-0.47-1.158-0.705-1.232-1.497c0.109-0.318,0.606-0.132,0.836-0.22   c0.315-0.12,0.47-0.75,0.792-1.143c0.265-0.322,0.681-0.458,0.925-0.704c0.303-0.308,0.367-0.768,0.572-1.145   c0.129-0.237,0.582-0.421,0.571-0.66c-0.016-0.388-0.389-0.253-1.011-0.351c-0.612-0.098-1.082-0.545-1.804-0.397   c-0.296,0.062-0.535,0.431-0.836,0.615c-0.499,0.306-1.08,0.348-1.365,0.66c-0.188,0.206-0.229,0.558-0.396,0.792   c-0.333,0.467-1.056,1.288-1.453,1.453c-0.463,0.191-1.009,0.006-1.496,0.132c-0.563,0.147-0.967,0.884-1.54,0.441   c0.078-0.421,0.354-0.789,0.572-1.145c0.374-0.605,0.697-0.882,1.32-1.276c0.182-0.116,0.36-0.287,0.528-0.352   c0.395-0.153,0.841-0.12,1.32-0.263c0.412-0.123,1.064-0.601,1.409-0.969c0.291-0.309,0.461-0.857,0.88-0.88   c0.59-0.032,1.285,0.2,1.98,0.177c0.15-0.006,0.301-0.108,0.483-0.131c0.338-0.047,0.751,0.033,1.057-0.045   c0.281-0.072,0.534-0.277,0.791-0.396c0.253-0.118,0.508-0.238,0.837-0.351c0.509-0.179,1.49-0.379,1.54-0.792   c0.053-0.441-0.827-0.877-0.837-1.452c-0.005-0.295,0.232-0.689,0.529-0.748c0.27-0.056,0.542,0.139,0.836,0.132   c0.59-0.017,0.818-0.435,1.232-0.749c0.168-0.127,0.403-0.16,0.528-0.265c0.239-0.2,0.372-0.582,0.615-0.836   c0.233-0.241,0.569-0.506,0.792-0.617c0.344-0.17,0.791-0.225,0.837-0.483c0.043-0.248-0.312-0.534-0.397-0.792   c-0.088-0.268-0.201-0.927-0.22-1.188c-0.061-0.883,0.174-1.6-0.88-1.496c-0.473-0.138-0.479-0.638-0.703-0.969   c-0.287-0.421-0.861-0.728-1.32-1.188c-0.224-0.224-0.365-0.547-0.572-0.748c-0.173-0.168-0.451-0.22-0.617-0.397   c-0.443-0.469-0.481-1.173-1.1-1.495c-0.731-0.019-1.284,0.345-1.979,0.263c-0.317-0.038-0.598-0.275-0.925-0.309   c-0.28-0.028-0.581,0.115-0.88,0.045c-0.16-0.039-0.244-0.217-0.44-0.353c-0.176-0.122-0.409-0.171-0.528-0.262   c-0.19-0.149-0.322-0.392-0.485-0.53c-0.265-0.223-0.453-0.27-0.484-0.483c-0.139-0.964,1.696-1.202,2.465-1.628   c0.353-0.197,0.672-0.597,1.1-0.792c0.493-0.225,1.112-0.294,1.672-0.617c0.478-0.273,0.957-0.651,1.452-0.836   c0.419-0.157,0.943-0.292,1.408-0.44c0.491-0.157,1.109-0.327,1.496-0.352c0.571-0.037,0.923,0.11,1.144-0.353   c-0.1-0.424-0.528-0.613-0.528-1.1c0-0.469,0.813-1.73,1.54-1.363c0.436-0.308,0.674-1.082,1.188-1.673   c0.294-0.338,0.996-0.644,1.056-1.231c0.017-0.162-0.074-0.373-0.088-0.529c-0.032-0.372,0.033-1.033,0-1.453   c-0.042-0.528-0.161-1.18-0.088-1.848c0.047-0.43,0.13-0.965,0.176-1.408c0.058-0.563,0.191-1.312,0.485-1.627   c0.18-0.195,0.757-0.274,0.836-0.618c0.095-0.408-0.221-0.632-0.308-1.011c-0.185-0.807,0.165-1.48,0.528-2.025   c0.257-0.386,0.39-0.739,0.572-1.012c0.448-0.669,1.795-0.789,1.805-1.805c0.003-0.353-0.218-0.915-0.617-0.968   c-0.28-0.034-0.8,0.335-1.012,0.485c-0.695,0.494-0.957,1.4-1.891,1.672c-0.071,0.182,0.16,0.554-0.044,0.748   c-0.401,0.17-1.146-0.002-1.32,0.396c-0.302,1.829,0.7,2.351,1.408,3.169c-0.31,0.474-0.581,0.318-0.923,0.483   c-0.351,0.169-0.627,0.433-0.749,0.748c-0.084,0.221-0.006,0.504-0.131,0.837c-0.079,0.208-0.9,1.075-1.189,1.101   c-0.259,0.022-1.14-0.57-1.363-0.75c-0.218-0.174-0.331-0.444-0.528-0.528c-0.152-0.062-0.476-0.042-0.572-0.088   c-0.176-0.081-0.405-0.476-0.616-0.704c-0.224-0.24-0.399-0.52-0.572-0.748c-0.213-0.278-0.507-0.45-0.617-0.748   c-0.216-0.585-0.123-1.142-0.44-1.628c-0.207-0.318-0.673-0.319-0.923-0.704c-0.261-0.402-0.263-1.09-0.529-1.673   c-0.17-0.374-0.5-0.599-0.616-0.922c-0.047-0.132-0.007-0.298-0.044-0.441c-0.074-0.293-0.282-0.563-0.351-0.837   c-0.056-0.217-0.028-0.447-0.089-0.66c-0.196-0.678-0.885-1.299-0.483-1.98c0.741-0.321,1.675-0.373,2.332-0.748   c0.336-0.191,0.439-0.567,0.791-0.703c0.283-0.019,0.205,0.322,0.44,0.351c0.476-0.112,0.698-0.561,1.101-0.836   c0.197-0.135,0.477-0.197,0.703-0.352c0.763-0.525,1.16-1.559,2.112-1.76c0.259-0.054,0.462,0.009,0.66-0.043   c0.326-0.087,0.668-0.307,0.923-0.529c0.196-0.168,0.329-0.511,0.617-0.704c0.19-0.128,0.458-0.156,0.66-0.264   c0.817-0.438,1.538-1.071,2.112-1.76c-0.052-0.359-0.077-0.744-0.309-0.923c-0.576,0.179-1.058,0.453-1.54,0.748   c-0.439,0.269-0.912,0.651-1.408,0.836c-0.183,0.069-0.423,0.057-0.616,0.132c-0.698,0.276-0.912,1.146-1.717,1.32   c-0.539,0.117-0.912-0.025-1.451,0.132c-0.518,0.151-0.823,0.915-1.32,1.232c-0.406,0.258-0.979,0.26-1.365,0.44   c-0.564,0.263-0.809,1-1.188,1.54c-0.341,0.485-0.867,0.831-1.232,1.231c-0.213,0.236-0.252,0.559-0.485,0.617   c-0.298,0.075-0.398-0.125-0.659-0.177c-0.352,0.338-1.002,0.667-1.057,1.232c-0.022,0.233,0.212,0.526,0.265,0.88   c0.026,0.179-0.028,0.379,0,0.528c0.042,0.234,0.251,0.439,0.308,0.705c0.097,0.449,0.058,0.97,0.132,1.539   c0.07,0.538,0.525,0.908,0.396,1.32c-0.497,0.452-1.06,0.128-1.54,0c-0.169-0.045-0.343-0.045-0.485-0.087   c-0.783-0.238-1.363-0.86-2.068-1.146c-0.216-0.088-0.48-0.072-0.704-0.174c-0.705-0.328-1.401-1.011-1.98-1.541   c-0.326-0.299-0.62-0.562-0.88-0.88c-0.26-0.315-0.401-0.701-0.66-1.057c-0.516-0.704-1.255-1.438-1.937-1.936   c-0.264-0.192-0.569-0.284-0.792-0.485c-0.32-0.287-0.478-0.73-0.792-0.968c-0.248-0.188-0.697-0.312-1.143-0.528   c-0.503-0.242-0.843-0.748-1.54-0.66c-0.267,0.033-0.432,0.272-0.705,0.352c-0.469,0.137-0.863,0.032-1.363-0.045   c-0.603,0.249-1.275,0.428-1.672,0.88c-0.89,0.054-1.754-0.073-2.508,0c-0.48,0.047-0.834,0.233-1.276,0.044   c-0.39-0.167-1.076-0.806-1.32-1.188c-0.268-0.416-0.338-1.051-0.662-1.497c-0.224-0.31-0.618-0.567-0.881-0.88   c-0.432-0.519-0.837-1.23-1.276-1.276c-0.252-0.027-0.635,0.199-0.879,0.263c-0.65,0.172-1.585,0.339-2.288,0.045   c-0.761-0.319-0.603-1.932-1.408-2.112c-0.245-0.055-0.44,0.108-0.705,0.088c-0.224-0.016-1.033-0.31-1.276-0.44   c-0.365-0.194-0.528-0.636-0.837-0.923c-0.39-0.36-0.954-0.542-1.363-0.924c-0.558-0.519-1.146-1.22-1.628-1.892   c-0.422-0.585-0.86-1.634-0.924-2.551c-0.038-0.534,0.126-1.108,0.043-1.672c-0.029-0.207-0.219-0.431-0.264-0.705   c-0.026-0.159,0.028-0.321,0-0.483c-0.047-0.277-0.267-0.536-0.264-0.792c0.007-0.57,0.687-1.302,1.364-1.32   c0.261-0.007,0.509,0.223,0.749,0.22c0.281-0.005,0.633-0.349,1.144-0.617c0.491-0.257,1.048-0.358,1.45-0.616   c0.429-0.273,0.632-0.634,0.969-0.836c0.677-0.406,1.478-0.435,2.289-0.572c0.264-0.044,0.551-0.226,0.88-0.265   c0.404-0.048,0.853,0.049,1.188-0.043c0.258-0.071,0.52-0.357,0.836-0.529c0.57-0.31,1.316-0.528,1.759-0.791   c0.416-0.248,0.849-0.748,1.32-0.792c0.32-0.03,0.917,0.04,1.232,0.088c0.309,0.048,0.554,0.277,0.879,0.352   c0.217,0.05,0.465-0.01,0.704,0.043c1.007,0.224,1.373,1.333,2.597,1.189c0.519-0.062,0.775-0.429,1.365-0.484   c0.276-0.025,0.518,0.138,0.792,0.132c0.371-0.008,0.923-0.322,1.276-0.484c0.971-0.446,1.859-0.719,2.596-1.363   c0.402-0.351,0.686-0.811,1.057-1.1c0.302-0.237,0.868-0.524,1.1-0.529c0.251-0.004,0.408,0.193,0.66,0.264   c0.324,0.092,0.939,0.099,1.452,0.22c0.236,0.056,0.806,0.31,1.188,0.265c0.368-0.044,1.073-0.592,1.188-1.057   c0.152-0.615-0.197-1.247-0.132-2.023C260.474,112.267,261.582,112.317,261.723,111.351z M245.97,135.685   c0.323,0.204,1.232,0.459,1.453,0c0-0.03,0-0.059,0-0.088C247.057,135.4,246.174,135.191,245.97,135.685z M255.167,135.068   c0.304,0.149,0.627,0.498,1.011,0.44c0.848-0.127,0.43-1.712-0.176-1.891c-0.408-0.122-0.731,0.072-1.144-0.089   c-0.326,0.173-0.39,0.608-0.351,1.145C254.637,134.969,254.887,134.932,255.167,135.068z M250.633,132.385   c0.323,0.174,0.534-0.278,0.881-0.352c0.406-0.087,0.883,0.099,1.1-0.265c0-0.043,0-0.088,0-0.131   C251.893,131.318,250.704,131.769,250.633,132.385z M294.329,162.394c0.332-0.165-0.098-0.641-0.397-0.439   C293.914,162.253,294.086,162.36,294.329,162.394z M292.525,152.142c0.138,0.713,1.278,0.008,1.144-0.529   C293.494,150.912,292.432,151.656,292.525,152.142z M286.849,148.886c1.526,0.22,1.64-0.969,2.728-1.188   c-0.013,0.101,0.127,0.049,0.132,0.132c0.139,0.289-0.222,0.726,0.131,0.879c0.521,0.003,0.91-0.658,0.66-1.32   c0.131-0.191,0.428-0.216,0.704-0.263c0.297-0.499,0.946-1.733,1.54-1.717c0.489,0.014,0.763,0.645,0.748,1.364   c0.23,0.303,0.937,0.108,1.1-0.176c0.249-1.138,0.081-1.744-0.44-2.465c-0.25-0.345-0.422-0.731-0.572-0.924   c-0.138-0.178-0.515-0.416-0.703-0.395c-0.272,0.028-0.432,0.418-0.792,0.572c-0.185,0.079-0.418,0.062-0.572,0.132   c-0.424,0.192-0.699,0.684-1.056,1.056c-0.252,0.262-0.799,0.998-1.1,1.012c-0.251,0.014-0.307-0.226-0.572-0.307   c-0.26-0.083-0.874-0.179-1.1-0.132c-0.483,0.096-0.5,0.597-0.704,1.054c-0.202,0.455-0.56,0.893-0.571,1.364   C286.396,148.069,286.557,148.604,286.849,148.886z M290.017,138.545c0.215,1.193,1.223,0.648,1.583,0.044   c0.273-0.458,0.511-1.005,0.837-1.54c0.189-0.31,0.546-1.488,0.923-1.496c0.413-0.009,0.549,0.876,1.277,0.528   c0.147-0.602-0.084-2.035-0.748-1.936c-0.383,0.057-0.171,0.511-0.572,0.615c-0.153-0.431-0.556-0.956-0.485-1.408   c0.084-0.539,0.747-0.678,1.145-0.968c-0.013-0.419,0.406-0.695,0.352-1.188c-0.057-0.518-0.808-0.792-1.189-1.056   c-0.2-0.14-0.303-0.363-0.483-0.44c-0.109-0.045-0.282,0.005-0.44-0.043c-0.489-0.151-0.668-0.575-1.1-0.529   c-0.381,0.041-0.552,0.456-0.88,0.485c-0.338-0.029-0.162-0.572-0.572-0.528c-0.65,0.788,0.307,0.831,0.44,1.232   c0.108,0.322-0.089,0.955,0,1.363c0.072,0.33,0.387,0.59,0.528,0.968c0.087,0.231,0.164,0.517,0.177,0.837   c0.058,1.4-0.853,2.303-0.88,3.52C289.92,137.407,289.941,138.127,290.017,138.545z M284.824,135.728   c0.472,0.024,0.828-0.18,1.496-0.22c0.49-0.812-0.455-1.419-0.351-2.243c0.063-0.507,0.654-0.87,0.571-1.408   c-0.044-0.297-0.428-0.443-0.483-0.749c-0.116-0.629,0.503-0.915,0.263-1.583c0.718-0.942,1.887-1.363,3.212-1.585   c0.673-0.513,0.126-1.296-0.308-1.672c0.002-0.231,0.128-0.52-0.132-0.571c-0.813-0.173-0.9,1.15-1.452,1.143   c-0.359-0.004-0.326-0.517-0.571-0.748c-0.261-0.246-0.493-0.082-0.66-0.396c-0.104-0.868,0.37-1.156,1.143-1.145   c0.569-0.374,0.983-0.848,1.452-1.188c0.173-0.126,0.444-0.313,0.704-0.352c0.206-0.031,0.467,0.098,0.703,0.044   c0.42-0.096,0.737-0.878,0.968-1.365c0.248-0.52,0.482-1.171,0.792-1.54c0.22-0.261,0.602-0.384,0.748-0.616   c0.123-0.197,0.098-0.441,0.22-0.617c0.169-0.241,0.45-0.201,0.529-0.528c0.061-0.166-0.164-0.421-0.309-0.528   c-0.96-0.215-1.026,0.567-1.451,0.923c-0.292,0.246-0.732,0.368-0.924,0.617c-0.206,0.266-0.168,0.627-0.308,0.968   c-0.097,0.236-0.39,0.389-0.528,0.616c-0.256,0.42-0.3,1.095-0.792,1.145c-0.178-0.261,0.259-0.853-0.177-1.056   c-0.286-0.052-0.432,0.227-0.703,0.22c-0.433-0.011-0.908-0.492-0.837-0.925c0.258-0.043,0.469,0.23,0.749,0.22   c0.56-0.019,1.415-1.145,1.671-1.716c0.121-0.268,0.128-0.593,0.264-0.837c0.243-0.432,0.841-1.189,1.188-1.452   c0.417-0.315,1.188-0.583,1.145-1.276c-0.018-0.282-0.277-0.516-0.397-0.748c-0.108-0.211-0.208-0.444-0.351-0.66   c-0.17-0.257-0.342-0.466-0.352-0.704c-0.023-0.552,0.41-1.021,0.308-1.496c-0.034-0.16-0.178-0.293-0.352-0.484   c-0.257-0.007-0.421,0.077-0.703,0.044c-0.248-0.143-0.232-0.569-0.397-0.88c-0.24-0.456-0.733-0.861-1.1-1.232   c-0.236-0.239-0.43-0.454-0.616-0.484c-0.146-0.023-0.421,0.123-0.617,0.089c-0.212-0.039-0.652-0.438-0.836-0.705   c-0.107-0.156-0.121-0.362-0.22-0.528c-0.206-0.347-0.473-0.502-0.528-0.792c-0.143-0.769,0.154-2.167-0.66-2.156   c-0.544,0.007-0.547,0.741-0.528,1.188c0.024,0.622-0.132,1.151-0.044,1.496c0.06,0.238,0.327,0.498,0.44,0.748   c0.071,0.158,0.072,0.321,0.132,0.44c0.132,0.263,0.347,0.412,0.44,0.617c0.183,0.402,0.327,1.151,0.352,1.583   c0.035,0.593-0.061,1.213,0,1.98c0.021,0.273,0.197,0.543,0.22,0.837c0.038,0.479-0.189,1.109-0.177,1.495   c0.009,0.268,0.269,0.567,0.264,0.88c-0.006,0.355-0.258,0.728-0.485,0.792c-0.129,0.037-0.334-0.074-0.528-0.044   c-0.32,0.051-0.452,0.326-0.66,0.309c-0.276-0.023-0.643-0.71-0.968-0.617c-0.209,0.061-0.427,0.553-0.572,0.792   c-0.152,0.25-0.363,0.672-0.396,0.968c-0.028,0.249,0.069,0.469,0.043,0.705c-0.041,0.379-0.271,0.992-0.44,1.232   c-0.291,0.413-0.758,0.356-0.923,0.836c-0.071,0.204-0.031,0.573-0.089,0.836c-0.139,0.641-0.67,1.117-0.615,1.585   c0.086,0.737,0.78,0.401,1.276,0.485c1.123,0.188,1.072,2.382,0.309,2.816c-0.086,0.321-0.013,0.602-0.132,0.968   c-0.069,0.211-0.3,0.369-0.352,0.572c-0.039,0.153,0.022,0.377,0,0.572c-0.095,0.843-0.723,1.608-0.616,2.332   c0.068,0.46,0.5,0.793,0.528,1.231c0.052,0.842-0.627,1.381-0.308,2.289c0.234,0.668,0.927,0.519,1.628,0.748   C284.124,135.404,284.457,135.71,284.824,135.728z M299.83,183.163c0.56,0.174,1.126-0.097,1.496-0.44   c-0.088-0.508-0.616-0.141-0.924-0.176c-0.437-0.05-0.74-0.513-1.188-0.485c-0.198-0.169-0.275-0.458-0.615-0.483   c-0.194,0.28,0.152,0.402,0.352,0.615C299.265,182.532,299.452,183.047,299.83,183.163z M315.099,171.635   c0-0.484-0.191-0.667-0.352-0.968c-0.088-0.166-0.137-0.503-0.396-0.396C314.402,170.694,314.593,171.534,315.099,171.635z    M309.686,153.066c-0.241,1.034,0.927,1.52,1.585,0.836c0.153-0.16,0.213-0.7,0.571-0.923c0.43-0.27,1.005-0.232,0.88-0.881   c-0.051-0.007-0.124,0.008-0.131-0.045c-0.962-0.061-1.204,1.34-1.98,1.32C310.204,153.364,310.16,152.933,309.686,153.066z"/>
	<path style="fill:#2D93BA;" d="M311.358,138.588c0.476-0.128,0.399,0.774-0.044,0.617   C311.182,139.064,311.193,138.678,311.358,138.588z"/>
	<path style="fill:#2D93BA;" d="M285.044,133.177c0.363,0.02,0.497,0.849,0.176,1.011   C284.867,134.133,284.623,133.347,285.044,133.177z"/>
	<path style="fill:#2D93BA;" d="M287.42,118.084c0.371,0.459,0.12,1.48,0.132,2.112c-0.337-0.119-0.774-0.137-0.968-0.397   C286.715,119.078,286.892,118.406,287.42,118.084z"/>
	<path style="fill:#2D93BA;" d="M289.752,114.871c0.631,0.605,0.298,1.239-0.923,1.012c-0.364-0.145-0.851-0.774-0.309-1.057   C288.947,114.924,289.261,114.883,289.752,114.871z"/>
	<path style="fill:#2D93BA;" d="M291.16,115.751c-0.372,0.05-0.539-0.105-0.66-0.308   C290.603,114.864,291.644,115.305,291.16,115.751z"/>
	<path style="fill:#2D93BA;" d="M300.093,107.215c0.251,0.051,0.564-0.146,0.705-0.397c0.081-0.144,0.043-0.366,0.132-0.528   c0.236-0.429,0.727-0.584,0.836-0.835c0.482,0.032,0.831-0.132,1.145,0c0.19,0.08,0.727,0.658,0.836,0.968   c0.136,0.384,0.014,0.787,0.308,1.012c0.014,0.101-0.007,0.169-0.043,0.22c-0.278-0.002-0.323-0.236-0.572-0.264   c-0.4,0.054-0.15,0.759-0.528,0.836c-0.411-0.067-0.492-0.437-0.792-0.44c-0.261-0.001-0.757,0.533-1.1,0.792   c-0.254,0.193-0.443,0.531-0.704,0.704c-0.228,0.151-0.499,0.184-0.616,0.308c-0.219,0.231-0.256,0.753-0.572,0.792   c-0.42,0.051-0.586-0.522-1.056-0.44c-0.474-0.604-0.229-1.612-0.352-2.597c-0.057-0.446-0.5-0.937-0.132-1.408   c0.296-0.109,0.336,0.391,0.616,0.44c0.26-0.035,0.223-0.363,0.44-0.44c0.342,0.128,0.412,0.527,0.925,0.485   C299.833,106.669,299.732,107.141,300.093,107.215z"/>
	<path style="fill:#2D93BA;" d="M301.15,103.915c0.359,0.588,0.084,1.614-0.352,1.671c-0.33,0.043-0.378-0.312-0.748-0.44   c-0.337-0.114-0.737,0.022-0.969-0.131c-0.201-0.134-0.189-0.5-0.263-0.749c-0.166-0.553-0.816-1.622-0.088-2.068   c0.39,0.065,0.468,0.442,0.791,0.572c0.254,0.008,0.389-0.263,0.66-0.22c0.332,0.053,0.218,0.303,0.352,0.66   C300.632,103.469,300.945,103.581,301.15,103.915z"/>
	<path style="fill:#2D93BA;" d="M310.698,73.861c-0.391,0.092-0.902-1.158-0.397-1.277C310.706,72.49,311.212,73.542,310.698,73.861   z"/>
	<path style="fill:#2D93BA;" d="M211.517,72.409c0-0.22,0-0.44,0-0.66C211.589,71.868,211.589,72.29,211.517,72.409z"/>
	<path style="fill:#2D93BA;" d="M313.822,70.429c0.061,0.057,0.061,0.208,0,0.265c-0.103-0.044-0.216-0.078-0.176-0.265   C313.705,70.429,313.764,70.429,313.822,70.429z"/>
	<path style="fill:#2D93BA;" d="M306.826,66.513c-0.242,0.009-0.643-0.874-0.176-0.969c0.082-0.016,0.247,0.005,0.351,0.177   C307.146,65.955,307.064,66.504,306.826,66.513z"/>
	<path style="fill:#2D93BA;" d="M265.948,48.207c-0.065-0.023-0.111-0.065-0.177-0.088   C265.788,47.652,266.385,48.074,265.948,48.207z"/>
	<path style="fill:#2D93BA;" d="M296.705,30.342c0.18,0.309-0.271,0.605-0.484,0.397C296.155,30.398,296.544,30.312,296.705,30.342z   "/>
	<path style="fill:#2D93BA;" d="M295.077,78.305c0.051-0.206,0.041-0.485,0.088-0.748c0.04-0.224,0.107-0.491,0.132-0.703   c0.065-0.543-0.093-1.131,0.22-1.453c0.696,0.523,1.381,1.219,1.98,1.892c0.179,0.2,0.301,0.63,0.66,0.528   c0.329-0.374-0.02-0.834-0.22-1.188c-0.209-0.371-0.51-0.813-0.572-1.232c-0.108-0.728,0.213-1.693-0.176-2.288   c-0.332-0.082-0.203,0.677-0.704,0.571c-0.048-0.291-0.071-0.567,0.132-0.791c0.184-0.204,0.461-0.088,0.572-0.22   c0.187-0.226,0.238-1.073,0.176-1.452c-0.076-0.462-0.352-0.871-0.748-0.924c-0.26,0.556,0.268,1.471-0.397,1.672   c-0.548-0.304-0.849-1.021-1.584-0.925c-0.283,0.038-0.662,0.374-0.704,0.617c-0.042,0.243,0.199,0.38,0.177,0.616   c-0.023,0.249-0.308,0.192-0.265,0.484c0.181,0.423,0.776,0.658,0.748,1.143c-0.707,0.582-1.051-0.526-1.276-1.143   c-0.256-0.705-0.391-1.62-0.617-2.157c-0.118-0.281-1.147-1.345-0.351-1.496c0.573-0.108,0.408,0.527,0.88,0.66   c0.132-0.681-0.293-1.316-0.529-1.936c-0.335-0.885-0.547-2.383-1.54-2.597c-0.199-0.042-0.571,0.087-0.703-0.043   c-0.107-0.106-0.125-0.737-0.22-1.012c-0.146-0.424-0.457-0.795-0.528-1.057c-0.054-0.198-0.039-0.49-0.089-0.616   c-0.136-0.35-0.609-0.479-0.923-0.88c-0.129-0.164-0.222-0.529-0.352-0.66c-0.227-0.228-0.795-0.258-0.88-0.66   c-0.022-0.256,0.192-0.463,0.044-0.705c-0.561-0.029-1.324,0.198-1.892-0.043c-0.424-0.521-0.726-1.093-1.1-1.76   c-0.208-0.369-0.261-0.699-0.485-1.145c-0.158-0.316-0.533-0.604-0.748-0.968c-0.494-0.84-1.08-1.855-2.332-1.848   c-0.271,0.001-0.563,0.141-0.88,0.176c-0.187,0.021-0.369-0.022-0.572,0c-0.46,0.052-1.046,0.386-1.363,0   c0.243-0.592,0.326-1.346,0.748-1.76c0.435-0.113,0.792,0.229,1.188,0.177c0.318-0.042,0.883-0.489,0.924-0.749   c0.042-0.268-0.242-0.515-0.22-0.791c0.025-0.329,0.479-0.635,0.528-1.057c0.072-0.619-0.141-1.075-0.044-1.76   c-0.355-0.663-0.986-0.858-0.923-1.671c0.021-0.287,0.24-0.549,0.308-0.88c0.074-0.359,0.201-0.903,0.176-1.277   c-0.05-0.749-0.589-1.292-0.923-1.936c-0.296-0.568-0.663-1.371-1.277-1.54c-0.33-0.092-0.795-0.014-1.1-0.132   c-0.201-0.078-0.38-0.248-0.571-0.352c-0.901-0.493-2.092-0.902-3.389-0.528c-0.192,0.055-1.277,0.545-1.496,0.748   c-0.243,0.227-0.609,0.895-0.616,1.276c-0.007,0.322,0.163,0.7,0.22,1.012c0.065,0.362,0.07,0.816,0.176,1.144   c0.304,0.951,1.591,0.763,2.025,1.716c0.188,0.416,0.226,0.897,0.263,1.628c-0.196,0.232-0.538,0.341-0.836,0.309   c-0.225-0.024-0.428-0.238-0.748-0.352c-0.281-0.1-0.61-0.121-0.837-0.22c-0.297-0.131-0.513-0.423-0.792-0.528   c-0.181-0.069-0.407-0.031-0.571-0.088c-0.29-0.101-0.495-0.489-0.792-0.309c-0.374,0.942,0.107,2.082-0.044,2.905   c-0.063,0.347-0.478,1.062-1.012,1.056c-0.4-0.005-0.662-0.309-1.1-0.352c-0.551-0.053-1.226-0.283-1.671-0.308   c-0.73-0.039-1.99,1.071-1.98,1.848c0.011,0.837,0.832,1.325,0.395,2.332c-0.144,0.335-0.687,0.688-0.66,1.057   c0.022,0.305,0.556,0.765,0.924,0.968c0.45,0.248,0.829,0.266,1.056,0.703c0.244,0.472,0.127,0.848,0.352,1.452   c0.1,0.27,0.272,0.505,0.44,0.748c0.147,0.213,0.531,0.438,0.264,0.704c-0.351,0.351-0.549-0.43-0.924-0.132   c-0.323,0.61,0.601,0.922,0.616,1.365c0.004,0.141-0.275,0.629-0.44,0.88c-0.226,0.343-0.542,0.46-0.616,0.836   c-0.048,0.241,0.092,0.629,0.044,0.968c-0.064,0.449-0.45,0.717-0.44,1.057c0.011,0.415,0.462,0.613,0.528,0.968   c0.142,0.777-0.087,1.065-0.572,1.408c-0.067,0.383,0.443,0.397,0.263,0.748c-0.383-0.192-0.56,0.066-0.88,0.22   c-0.206,0.1-0.351,0.083-0.44,0.177c-0.2,0.21-0.2,0.616-0.396,0.923c-0.204,0.325-0.584,0.508-1.012,0.88   c-0.438,0.383-0.891,1.028-0.923,1.54c-0.031,0.483,0.137,0.877,0.088,1.277c-0.112,0.91-0.567,1.476-1.057,2.112   c-0.273,0.356-0.463,0.677-0.791,0.791c-0.229,0.08-0.536,0.041-0.792,0.132c-0.548,0.194-0.812,0.993-1.76,0.705   c-0.278,0.132-0.378,0.429-0.572,0.748c-0.157,0.256-0.483,0.471-0.528,0.748c-0.029,0.179,0.054,0.373,0.045,0.528   c-0.036,0.5-0.229,0.843-0.397,1.277c-0.103,0.269-0.144,0.613-0.266,0.792c-0.15,0.223-0.657,0.252-0.79,0.528   c-0.087,0.18,0.033,0.58,0,0.88c-0.055,0.472-0.344,1.114-0.353,1.54c-0.005,0.259,0.107,0.474,0.089,0.703   c-0.083,1.078-1.372,1.689-1.76,2.729c-0.121,0.322-0.037,0.833-0.132,1.056c-0.169,0.39-1.362,0.719-1.891,0.748   c-1.599,0.089-2.112-1.139-3.169-1.848c-0.221-0.148-0.571-0.23-0.88-0.44c-0.621-0.422-0.75-0.892-1.892-0.836   c-0.314,0.016-0.619,0.176-0.968,0.176c-0.426,0-0.982-0.037-1.364-0.132c-0.291-0.072-0.528-0.313-0.792-0.352   c-0.268-0.039-0.476,0.079-0.704,0.044c-0.254-0.038-0.611-0.291-0.967-0.485c-0.751-0.407-1.634-0.496-1.936-1.32   c-0.178-0.484-0.079-1.141-0.264-1.671c-0.076-0.214-0.273-0.485-0.396-0.749c-0.357-0.765-0.838-1.857-1.628-2.068   c-0.704-0.188-1.265,0.262-2.069,0.132c-0.239-0.137-0.478-0.321-0.748-0.528c-0.25-0.19-0.543-0.284-0.792-0.484   c-0.331-0.265-0.478-0.676-0.924-0.836c-0.151-0.055-0.331-0.02-0.571-0.088c-0.089-0.026-0.227-0.188-0.396-0.265   c-0.156-0.071-0.357-0.068-0.485-0.132c-0.406-0.201-1.329-0.799-1.452-1.232c-0.256-0.913,0.388-1.877,0.266-2.508   c-0.441,0.091-0.396,0.411-0.705,0.617c-0.182,0.12-0.423,0.185-0.616,0.351c-0.229,0.198-0.313,0.372-0.572,0.397   c-0.542,0.05-1.088-0.372-1.277-0.66c-0.173-0.263-0.273-0.81-0.351-1.277c-0.054-0.326-0.058-1.166-0.266-1.32   c-0.306-0.227-1.06,0.12-1.363-0.043c-0.644-0.329,0.018-1.213-0.176-1.672c-0.332-0.039-0.68,0.083-0.836,0.352   c-0.162,0.277,0.049,0.697-0.265,0.88c-0.438-0.09-0.494-0.561-0.924-0.66c-0.42,0.012-0.53,0.141-0.791,0.088   c-0.566-0.115-0.542-0.994-1.145-0.968c-0.901,0.038-0.532,1.729-1.409,1.76c-0.531,0.018-0.537-0.484-1.055-0.66   c-0.278-0.095-0.342,0.054-0.572,0c-0.312-0.073-0.402-0.44-0.748-0.44c-0.421-0.001-0.885,0.616-1.232,0.923   c-0.341,0.301-0.828,0.688-1.057,1.1c-0.341,0.618-0.264,1.538-0.88,1.805c-0.37-0.084-0.469-0.441-0.571-0.792   c0-0.029,0-0.059,0-0.088c0.072-0.119,0.072-0.541,0-0.66c0-0.205,0-0.411,0-0.616c0.271-0.589,0.447-1.303,0.703-2.024   c0.092-0.26,0.312-0.553,0.439-0.836c0.097-0.212,0.135-0.451,0.221-0.617c0.199-0.379,0.843-0.806,1.099-1.188   c0.156-0.232,0.239-0.597,0.398-0.748c0.15-0.144,0.476-0.223,0.659-0.352c0.202-0.142,0.35-0.403,0.572-0.572   c0.486-0.365,1.139-0.832,1.497-0.836c0.352-0.003,0.591,0.336,0.922,0.22c0.312-0.108,0.245-0.783,0.618-0.88   c0.225-0.059,0.603,0.194,0.923,0.175c0.185-0.01,0.438-0.357,0.705-0.22c0.308,0.158-0.026,0.455,0.131,0.704   c0.635-0.187,1.658,0.014,1.849-0.617c-0.273-0.325-0.888,0.331-1.057-0.22c0.237-0.532,0.938-0.409,1.452-0.528   c0.34-0.078,0.646-0.247,1.012-0.263c0.192-0.009,0.416,0.076,0.615,0.043c0.593-0.093,1.079-0.753,1.673-0.792   c0.287-0.018,0.529,0.176,0.836,0.22c0.208,0.031,0.441-0.029,0.66,0c0.28,0.039,0.537,0.194,0.792,0.22   c0.483,0.052,1.313-0.001,1.717-0.088c0.508-0.109,0.94-0.512,1.495-0.572c0.201-0.021,0.536,0.067,0.792,0.044   c0.239-0.021,0.476-0.152,0.749-0.176c0.251-0.022,0.49,0.062,0.792,0.088c0.552,0.047,1.168-0.108,1.717-0.088   c0.161,0.005,0.281,0.09,0.439,0.088c0.454-0.006,0.912-0.157,1.364-0.177c0.836-0.035,1.428,0.092,2.2-0.043   c0.585-0.102,1.48-0.229,1.847-0.44c0.41-0.236,1.106-1.161,1.366-1.628c0.171-0.308,0.23-0.677,0.396-1.012   c0.351-0.717,1.094-2.106,1.803-2.42c0.206-0.091,0.477-0.079,0.705-0.177c0.451-0.191,0.841-0.595,1.277-0.88   c0.83-0.543,1.871-0.982,2.728-1.54c0.435-0.282,0.929-0.527,1.276-0.836c0.204-0.181,0.396-0.761,0.705-0.836   c0.407-0.099,0.965-0.4,1.276-0.352c0.421,0.063,0.761,0.881,1.143,0.88c0.327-0.001,0.516-0.437,0.792-0.528   c0.673-0.222,1.068,0.13,1.629,0.396c0.183,0.088,0.48,0.173,0.615,0.264c0.242,0.161,0.31,0.489,0.572,0.703   c0.147,0.12,0.452,0.196,0.66,0.352c0.444,0.335,0.611,0.875,1.012,1.012c0.327,0.112,1.961,0.178,2.508,0.043   c0.316-0.077,0.58-0.371,0.88-0.483c0.531-0.199,1.111-0.245,1.1-0.792c-0.007-0.338-0.38-0.576-0.616-0.792   c-0.313-0.052-0.652-0.024-0.748-0.352c-0.148-0.5,0.527-0.692,0.704-1.276c0.071-0.232,0.067-0.602,0.132-0.748   c0.191-0.425,0.815-0.563,1.057-1.012c0.201-0.376,0.131-0.697,0.44-0.924c0.212-0.095,0.596-0.02,0.88-0.043   c0.282-0.482,1.334-0.891,1.583-1.452c0.166-0.372,0.15-0.942,0.308-1.408c0.074-0.219,0.17-0.388,0.22-0.617   c0.063-0.282,0.067-0.572,0.177-0.791c0.432-0.871,1.833-1.341,1.803-2.42c-0.012-0.46-0.442-0.903-0.44-1.32   c0.002-0.414,0.331-1.109,0.572-1.629c0.251-0.54,0.388-1.138,0.616-1.584c0.185-0.36,0.521-0.61,0.661-0.924   c0.107-0.241,0.125-0.593,0.219-0.791c0.133-0.281,0.418-0.574,0.661-0.924c0.23-0.332,0.581-0.691,0.879-0.705   c0.344-0.014,0.638,0.317,0.969,0.352c1.048,0.113,1.801-0.659,2.42-1.145c0.46-0.36,0.85-0.782,1.276-1.143   c0.282,0.02,0.333,0.02,0.616,0c0.266-0.273,0.659-0.503,1.057-0.792c0.359-0.261,0.741-0.77,1.143-0.836   c0.494-0.081,0.929,0.188,1.409,0c0.797-0.313,0.437-1.419-0.617-1.277c-0.29,0.04-0.68,0.449-0.968,0.572   c-0.293,0.127-0.659,0.102-1.012,0.22c-0.339,0.113-0.631,0.455-1.012,0.572c-0.602,0.187-1.251,0.181-1.628,0.352   c-0.335,0.151-0.651,0.708-1.056,0.396c-0.087-0.417,0.33-0.577,0.572-0.836c0.134-0.145,0.39-0.668,0.703-0.748   c0.259-0.067,0.608,0.164,0.924,0.088c0.621-0.151,0.637-1.405,1.276-1.409c0.401-0.002,0.449,0.525,0.837,0.529   c0.424,0.003,0.783-0.579,1.143-0.705c0.33-0.114,0.856-0.133,1.32-0.176c0.436-0.041,0.94,0.012,1.277-0.089   c0.302-0.09,0.718-0.545,0.88-0.836c0.214-0.386,0.125-0.691,0.44-0.88c0.275-0.165,0.848-0.272,1.143-0.308   c0.529-0.063,1.108-0.014,1.672-0.044c0.566-0.029,1.108-0.087,1.716,0c0.426,0.218,0.636,0.615,1.057,0.837   c0.293,0.155,0.656,0.177,0.968,0.351c0.575,0.322,1.106,1.024,1.672,1.497c0.61,0.509,1.194,0.978,1.892,1.276   c0.248,0.107,0.797,0.393,1.1,0.352c0.423-0.058,0.772-0.855,1.276-0.792c0.312,0.04,0.308,0.485,0.616,0.617   c0.159,0.068,0.602,0.129,0.792,0.132c0.424,0.007,0.867-0.218,1.32-0.132c0.387,0.072,0.543,0.648,0.968,0.352   c0.42-0.294-0.227-0.82,0.045-1.145c0.25-0.298,0.552,0.06,1.012,0.088c0.183,0.011,0.392-0.107,0.528-0.088   c0.197,0.027,0.528,0.41,0.66,0.308c0.301-0.238,1.065-0.505,1.32-1.012c0.324-0.645,0.106-1.345,0.264-2.243   c0.097-0.551,0.612-0.812,0.571-1.32c-0.024-0.313-0.383-0.493-0.571-0.925c-0.187-0.427-0.123-0.984-0.22-1.408   c-0.097-0.42-0.387-0.622-0.352-1.057c0.028-0.362,0.354-0.364,0.395-0.791c0.017-0.167-0.103-0.482-0.132-0.748   c-0.071-0.68-0.106-1.908,0.044-2.597c0.137-0.63,0.337-1.019,0.66-1.716c0.242-0.523,0.541-1.495,0.924-1.452   c0.247,0.027,0.508,0.92,0.616,1.276c0.174,0.573,0.457,0.927,0.485,1.365c0.01,0.169-0.105,0.391-0.089,0.616   c0.017,0.226,0.224,0.503,0.265,0.792c0.085,0.614-0.031,1.481,0.572,1.408c0.369-0.467-0.273-2.37,0.528-2.42   c0.485-0.03,0.631,0.722,0.748,1.277c0.107,0.504,0.287,1.27,0.264,1.716c-0.026,0.502-0.588,1.163,0.043,1.452   c0.449,0.14,0.825-0.171,1.189-0.265c0.516,0.374,0.451,1.061,0.528,1.585c0.088,0.598,0.194,1.086,0.44,1.672   c0.216,0.515,0.36,1.061,0.44,1.671c0.078,0.598,0.303,1.178,0.352,1.717c0.04,0.443,0.004,0.85,0.088,1.276   c0.073,0.377,0.282,0.775,0.263,1.189c-0.012,0.277-0.215,0.513-0.263,0.791c-0.046,0.261,0.013,0.56-0.044,0.837   c-0.044,0.212-0.188,0.403-0.22,0.616c-0.05,0.333,0.047,0.691,0,1.012c-0.042,0.296-0.227,0.547-0.263,0.836   c-0.088,0.678,0.036,1.453-0.089,2.112c-0.047,0.25-0.17,0.476-0.22,0.748c-0.047,0.258,0.007,0.541-0.043,0.792   c-0.07,0.35-0.401,0.642-0.44,1.012c-0.071,0.681,0.296,1.446,0.352,2.156c0.04,0.514-0.021,1.045,0.088,1.585   c0.099,0.491,0.289,0.967,0.308,1.408c0.01,0.24-0.073,0.441-0.044,0.66c0.031,0.228,0.304,0.501,0.264,0.748   c-0.052,0.328-0.467,0.27-0.572,0.617c0.199,0.383-0.013,0.766,0,1.188c0.014,0.411,0.203,0.779,0.132,1.232   c-0.126,0.801-0.91,1.92-0.484,2.551c0.108,0.159,0.293,0.121,0.572,0.265c0.379,0.194,0.825,0.578,1.365,0.484   c-0.014-0.882-0.446-1.724-0.484-2.729c0.636-1.014,1.03,0.271,1.32,1.012c0.24,0.611,0.772,1.095,0.88,1.849   c0.089,0.615-0.136,1.292-0.22,2.023c-0.049,0.427,0.03,0.853-0.043,1.1c-0.13,0.432-0.558,0.654-0.66,1.012   c-0.044,0.154-0.04,0.408-0.089,0.616c-0.091,0.395-0.3,0.75,0,1.144c-0.056,0.31-0.386,0.347-0.44,0.66   c0.158,0.292,0.559,0.518,0.66,0.968c0.044,0.196-0.033,0.401,0,0.616c0.058,0.359,0.543,0.837,0.089,1.057   c-0.318-0.09-0.365-0.57-0.617-0.837c-0.223-0.237-0.736-0.601-0.968-0.571c-0.42,0.052-0.258,0.681-0.792,0.703   c-0.308-0.093-0.17-0.451-0.308-0.748c-0.126-0.271-0.386-0.372-0.44-0.66c-0.151-0.8,0.201-1.463,0.176-2.156   c-0.3-0.032-0.475,0.342-0.571,0.528c-0.33,0.628-0.284,1.139-0.265,2.024c0.01,0.453-0.135,0.975,0.132,1.365   c0.169,0.247,0.541,0.233,0.748,0.44c0.248,0.249,0.5,0.822,0.44,1.188c-0.033,0.2-0.271,0.481-0.44,0.484   c-0.4,0.007-0.272-0.566-0.704-0.572c-0.223,0.372,0.244,1.356,0.617,1.408c0.271,0.038,0.428-0.32,0.704-0.308   c0.461,0.021,0.453,0.648,0.924,0.572c0.238-0.302-0.051-0.618,0-0.925c0.072-0.432,0.59-0.821,0.925-1.012   c0.237,0.191,0.079,0.591,0.043,0.88c0.448,0.323,0.622,0.926,0.704,1.76c0.029,0.297,0.147,0.692-0.132,0.837   c-0.417,0.071-0.667-0.617-1.145-0.484c-0.148,0.592,0.651,0.787,0.969,1.277c0.14,0.216,0.233,0.525,0.351,0.836   c0.103,0.271,0.359,0.57,0.352,0.792c-0.007,0.243-0.207,0.287-0.308,0.528c-0.091,0.217,0.062,0.5-0.22,0.572   c-0.884-0.51-0.376-2.411-1.276-2.905c-0.603,0.11-1.179-0.298-1.585,0.044c-0.289,0.245-0.092,0.796-0.396,0.924   c-0.405,0.172-0.405-0.533-0.88-0.351c-0.279,0.466,0.266,1.02,0.483,1.451c0.234,0.462,0.511,1.047,1.057,1.1   c0.447-0.232,0.101-1.099,0.571-1.231c0.256-0.072,0.828,0.266,0.924,0.351c0.515,0.459,1.247,2.061,1.144,3.212   c-0.02,0.219-0.153,0.44-0.177,0.66c-0.078,0.757,0.327,1.65,0,2.245c0.279,0.478-0.038,1.051,0.045,1.716   c-0.302,0.512-0.946,0.371-1.232,1.145c-0.078,0.21-0.022,0.472-0.088,0.748c-0.049,0.204-0.289,0.425-0.397,0.66   c-0.151,0.333-0.117,0.589-0.351,0.66c-0.23,0.07-0.379-0.242-0.617-0.22c-0.157,0.19-0.392,0.031-0.616,0.132   c-0.408,0.19-0.378,0.669-0.572,1.143c-0.137,0.333-0.555,1.045-0.88,1.012c-0.218-0.021-0.6-0.668-0.704-0.88   c-0.073-0.15-0.432-0.892-0.396-1.144c0.061-0.416,0.902-0.578,0.88-1.144c-0.01-0.247-0.159-0.479-0.485-0.485   c-0.578-0.009-0.6,0.647-1.1,0.66c-0.598,0.018-0.639-0.327-1.011-0.836c0.148-0.365,0.355-0.671,0.395-1.144   c-0.334-0.281-0.454,0.462-0.88,0.22c-0.15-0.707,0.2-1.246,0.396-1.891c0.061-0.202,0.037-0.493,0.132-0.66   c0.144-0.25,0.572-0.323,0.792-0.529c0.256-0.238,0.618-0.712,0.616-1.1c-0.001-0.543-0.677-1.33-0.043-1.76   c1.008,0.298,0.26,1.709,0.615,2.64c0.132,0.347,0.499,0.466,0.66,0.749c0.324,0.569,0.37,1.494,1.012,1.408   c0.323-0.043,0.319-0.496,0.485-0.748c0.224-0.344,1.017-0.608,1.056-1.1c0.02-0.253-0.194-0.436-0.22-0.705   c-0.053-0.569,0.229-1.202,0-1.716c-0.137-0.239-0.356-0.078-0.616-0.264c-0.213-0.153-0.273-0.516-0.484-0.66   c-0.248-0.169-0.556-0.134-0.748-0.352c-0.32-0.361-0.371-1.125-0.528-1.583c-0.07-0.204-0.31-0.462-0.309-0.66   c0.002-0.363,0.489-0.519,0.309-0.924c-0.471-0.035-0.662,0.498-0.88,0.836c-0.236,0.366-0.47,0.75-0.88,0.88   c-0.76-0.358,0.04-0.929,0.043-1.496c0.004-0.624-1.189-1.536-0.22-2.068c0.513,0.132,0.593,0.698,1.1,0.836   c-0.106-0.621-0.629-1.162-0.792-1.892c-0.068-0.307-0.051-0.606-0.131-0.88c-0.155-0.527-0.543-0.894-0.749-1.451   c-0.08-0.218-0.056-0.478-0.131-0.705c-0.178-0.531-0.496-1.168-0.792-1.716c-0.303-0.56-0.622-1.192-0.925-1.54   c-0.162-0.188-0.74-0.677-0.923-0.66c-0.262,0.022-0.349,0.516-0.617,0.528c-0.162-0.011-0.512-0.285-0.748-0.088   c-0.215,0.18-0.041,0.541-0.088,0.924c-0.083,0.672-0.639,1.112-0.925,1.628c-0.215,0.39-0.472,0.969-0.528,1.409   c-0.076,0.604,0.177,1.281-0.308,1.363c-0.465,0.08-0.632-0.569-0.924-0.616c-0.43,0.326-0.636-0.221-1.012-0.22   c-0.305,0.001-0.763,0.376-0.791,0.703c-0.038,0.443,0.437,1.092,0.88,1.277c0.528,0.219,1.243,0.125,1.628,0.528   c-0.057,2.05,0.931,3.785,3.036,3.653c0.208-0.013,0.476-0.131,0.704-0.088c0.34,0.064,0.626,0.649,1.056,0.571   c0.177,0.574,1.098,0.55,1.232,1.144c0.112,0.498-0.352,1.061-0.308,1.716c0.014,0.213,0.206,0.49,0.176,0.705   c-0.06,0.43-0.59,0.689-0.836,1.012c-0.219,0.286-0.149,0.587-0.44,0.66c-0.493-0.085-0.506-0.432-0.968-0.397   c-0.403,0.032-0.709,0.451-0.749,0.66c-0.06,0.321,0.112,0.78,0.264,1.1c0.279,0.589,1.119,1.093,1.012,1.585   c-0.085,0.388-1.317,0.691-1.76,0.748c-0.476,0.061-0.839-0.064-1.277-0.043c-0.742,0.057-0.667,0.991-1.056,1.451   c-0.118,0.139-0.419,0.193-0.572,0.309c-0.298,0.223-0.298,0.493-0.616,0.528c-0.76,0.082-0.825-0.689-1.672-0.617   c-0.329-0.159-0.309-0.56-0.748-0.528c-0.695,0.051-0.162,1.049-0.704,1.32c-0.291,0.147-0.508-0.024-0.923-0.132   c-0.407,0.341-1.056,0.339-1.057-0.263C294.593,78.776,294.986,78.675,295.077,78.305z M296.221,30.738   c0.213,0.208,0.664-0.088,0.484-0.397C296.544,30.312,296.155,30.398,296.221,30.738z M292.217,61.452   c0.179-0.183,0.128-0.781,0.088-1.189c-0.029-0.288-0.09-0.63-0.308-0.66C291.787,60.061,291.636,61.309,292.217,61.452z    M292.965,59.163c0.272,0.346,0.828,0.192,0.924-0.176c0.038-0.144-0.107-0.337-0.089-0.572c0.019-0.249,0.247-0.498,0.264-0.703   c0.03-0.351-0.143-0.708-0.308-0.837c-0.263-0.013-0.305,0.194-0.572,0.177c-0.306-0.428-1.328-0.201-1.365,0.22   c-0.039,0.447,1.13,0.678,1.232,1.276C293.09,58.765,292.929,58.876,292.965,59.163z M291.205,58.548   c0.222-0.626-0.151-1.203-0.22-1.716c-0.041-0.305,0.062-0.862-0.396-0.792c-0.373,0.057-0.238,0.633-0.132,0.968   C290.677,57.703,290.866,58.142,291.205,58.548z M294.549,56.612c0.373,0.877,1.523-0.173,1.628-0.572   c0.187-0.713-0.523-1.728-0.748-2.552c-0.127-0.465-0.138-0.907-0.529-1.012c-0.689,0.417,0.151,1.24,0.044,1.848   c-0.054,0.308-0.476,0.488-0.528,0.792C294.382,55.323,294.514,56.529,294.549,56.612z M293.845,55.995   c0.215-0.182-0.025-1.169-0.22-1.452c-0.134-0.194-0.462-0.327-0.705-0.528c-0.25-0.208-0.443-0.44-0.66-0.616   c-0.195-0.159-1.481-1.05-1.628-0.352c-0.062,0.298,0.556,0.91,0.792,0.968c0.807,0.199,1.382,0.562,1.76,1.188   C293.404,55.565,293.376,55.937,293.845,55.995z M298.773,50.495c0.018,0.491,1.469,0.823,1.277,0   C299.921,49.944,298.749,49.811,298.773,50.495z M265.771,48.119c0.066,0.022,0.111,0.065,0.177,0.088   C266.385,48.074,265.788,47.652,265.771,48.119z M302.601,29.506c0.083,0.01,0.098-0.05,0.177-0.043   c0.001-0.134,0.025-0.29-0.132-0.265C302.519,29.262,302.497,29.432,302.601,29.506z M309.51,75.753   c-0.027,0.217,0.042,0.339,0.263,0.308C309.911,75.865,309.731,75.58,309.51,75.753z M313.822,70.693   c0.061-0.057,0.061-0.208,0-0.265c-0.058,0-0.117,0-0.176,0C313.606,70.615,313.719,70.65,313.822,70.693z M310.434,53.972   c0.095,0.147,0.222,0.371,0.44,0.263c0.228-0.486,0.054-1.307,0.132-2.024c0.575-0.407,0.663-1.087-0.264-1.144   C310.077,51.886,311.052,53.126,310.434,53.972z M305.901,46.095c0.087,0.25,0.042,0.597,0.309,0.66   c0.164-0.206,0.387-0.416,0.396-0.66c0.011-0.319-0.271-0.472-0.44-0.792c-0.197-0.372-0.245-0.888-0.572-0.924   C305.46,45.06,305.757,45.674,305.901,46.095z M309.07,45.875c0.048,0.281-0.079,0.57,0.176,0.749   c0.969-0.21,0.377-1.55,0.308-2.332c-0.276-0.164-0.496-0.384-0.88-0.44C308.52,44.458,308.954,45.19,309.07,45.875z    M264.099,59.076c0.057,0.348,0.856,0.247,0.661-0.176C264.612,58.581,264.046,58.747,264.099,59.076z"/>
	<path style="fill:#2D93BA;" d="M302.778,29.463c-0.079-0.007-0.093,0.053-0.177,0.043c-0.105-0.074-0.082-0.245,0.044-0.308   C302.803,29.173,302.779,29.328,302.778,29.463z"/>
	<path style="fill:#2D93BA;" d="M300.181,28.143c-0.288-0.093-0.414-0.348-0.528-0.617c0.063-0.084,0.137-0.158,0.22-0.22   C300.291,27.325,300.599,27.919,300.181,28.143z"/>
</g>
<ellipse style="fill:#E56353;" cx="295.68" cy="217.81" rx="20.634" ry="20.685"/>
<ellipse style="fill:#FCD462;" cx="295.68" cy="190.822" rx="20.634" ry="20.685"/>
<g>
	<rect x="237.706" y="20.116" style="fill:#FFFFFF;" width="8.218" height="67.277"/>
	<rect x="183.624" y="20.096" style="fill:#FFFFFF;" width="8.218" height="34.222"/>
	<rect x="183.588" y="81.859" style="fill:#FFFFFF;" width="8.218" height="34.222"/>
	<rect x="183.526" y="140.831" style="fill:#FFFFFF;" width="8.218" height="34.222"/>
	<rect x="183.526" y="202.557" style="fill:#FFFFFF;" width="8.218" height="34.222"/>
	<rect x="208.225" y="20.116" style="fill:#FFFFFF;" width="8.218" height="101.064"/>
</g>
<path style="fill:#FCD462;" d="M310.147,54.873V20.845c0-1.872-1.516-3.389-3.384-3.389h-33.979c-1.87,0-3.385,1.517-3.385,3.389  v34.028c0,1.871,1.515,3.389,3.385,3.389h33.979C308.631,58.262,310.147,56.744,310.147,54.873z"/>
<path style="fill:#DC8744;" d="M296.81,58.261h3.541v-9.823h9.823v-3.541h-9.823V30.821h9.823V27.28h-9.823v-9.823h-3.541v9.823  h-14.076v-9.823h-3.541v9.823h-9.823v3.541h9.823v14.076h-9.823v3.541h9.823v9.823h3.541v-9.823h14.076V58.261z M282.735,44.897  V30.821h14.076v14.076H282.735z"/>
<path style="fill:#FCD462;" d="M61.994,107.895v368.203c0,8.517,6.903,15.422,15.421,15.422h336.694  c8.513,0,15.417-6.903,15.417-15.418V107.895H61.994z"/>
<path style="fill:#F6C358;" d="M61.994,403.713v72.385c0,8.517,6.903,15.422,15.421,15.422h336.694  c8.513,0,15.417-6.903,15.417-15.418v-72.388H61.994z"/>
<g>
	<circle style="fill:#DC8744;" cx="137.902" cy="147.804" r="15.923"/>
	<circle style="fill:#DC8744;" cx="353.638" cy="147.804" r="15.923"/>
</g>
<path style="fill:#F6C358;" d="M245.756,337.175c-64.399,0-116.788-56.963-116.788-126.973v-62.4c0-4.94,3.997-8.937,8.937-8.937  c4.94,0,8.937,3.997,8.937,8.937v62.4c0,60.157,44.369,109.1,98.915,109.1s98.924-48.943,98.924-109.1v-62.4  c0-4.94,3.997-8.937,8.937-8.937c4.94,0,8.937,3.997,8.937,8.937v62.4C362.553,280.212,310.154,337.175,245.756,337.175z"/>
<path style="fill:#FFFFFF;" d="M245.756,321.623c-64.399,0-116.788-52.399-116.788-116.797v-57.024c0-4.94,3.997-8.937,8.937-8.937  c4.94,0,8.937,3.997,8.937,8.937v57.024c0,54.545,44.369,98.924,98.915,98.924s98.924-44.378,98.924-98.924v-57.024  c0-4.94,3.997-8.937,8.937-8.937c4.94,0,8.937,3.997,8.937,8.937v57.024C362.553,269.225,310.154,321.623,245.756,321.623z"/>
<g>
</g>
<g>
</g>
<g>
</g>
<g>
</g>
<g>
</g>
<g>
</g>
<g>
</g>
<g>
</g>
<g>
</g>
<g>
</g>
<g>
</g>
<g>
</g>
<g>
</g>
<g>
</g>
<g>
</g>
</svg>
