<?xml version="1.0" encoding="iso-8859-1"?>
<!-- Generator: Adobe Illustrator 19.0.0, SVG Export Plug-In . SVG Version: 6.00 Build 0)  -->
<svg xmlns="http://www.w3.org/2000/svg" xmlns:xlink="http://www.w3.org/1999/xlink" version="1.1" id="Layer_1" x="0px" y="0px" viewBox="0 0 512 512" style="enable-background:new 0 0 512 512;" xml:space="preserve">
<path style="fill:#415A6B;" d="M480,137.6H32c-18.133,0-32,13.867-32,32V480c0,18.133,13.867,32,32,32h448c18.133,0,32-13.867,32-32  V169.6C512,152.533,498.133,137.6,480,137.6z M306.133,196.267H204.8c-8.533,0-14.933-6.4-14.933-14.933s6.4-14.933,14.933-14.933  h101.333c8.533,0,14.933,6.4,14.933,14.933C322.133,189.867,314.667,196.267,306.133,196.267z"/>
<rect x="32" y="224" style="fill:#FFFFFF;" width="448" height="256"/>
<g>
	<rect x="290.133" y="300.8" style="fill:#E8EAE9;" width="147.2" height="27.733"/>
	<rect x="290.133" y="358.4" style="fill:#E8EAE9;" width="147.2" height="27.733"/>
	<rect x="290.133" y="417.067" style="fill:#E8EAE9;" width="94.933" height="27.733"/>
</g>
<rect x="64" y="260.267" style="fill:#8AD7F8;" width="177.067" height="184.533"/>
<g>
	<path style="fill:#FFFFFF;" d="M221.867,427.733V400c0-9.6-6.4-18.133-14.933-21.333C171.733,368,134.4,368,99.2,378.667   c-9.6,3.2-14.933,11.733-14.933,21.333v27.733H221.867z"/>
	<circle style="fill:#FFFFFF;" cx="152.533" cy="323.2" r="33.067"/>
</g>
<rect x="206.933" style="fill:#F3705A;" width="98.133" height="181.333"/>
<g>
</g>
<g>
</g>
<g>
</g>
<g>
</g>
<g>
</g>
<g>
</g>
<g>
</g>
<g>
</g>
<g>
</g>
<g>
</g>
<g>
</g>
<g>
</g>
<g>
</g>
<g>
</g>
<g>
</g>
</svg>
