<?xml version="1.0" encoding="iso-8859-1"?>
<!-- Generator: Adobe Illustrator 19.0.0, SVG Export Plug-In . SVG Version: 6.00 Build 0)  -->
<svg xmlns="http://www.w3.org/2000/svg" xmlns:xlink="http://www.w3.org/1999/xlink" version="1.1" id="Layer_1" x="0px" y="0px" viewBox="0 0 491.52 491.52" style="enable-background:new 0 0 491.52 491.52;" xml:space="preserve">
<rect x="13.911" y="92.145" style="fill:#FCD462;" width="463.718" height="399.36"/>
<path style="fill:#EBF0F3;" d="M491.52,94.72l-0.001-0.001l0,0l0,0L421.304,32.48h-50.156h-50.156h-50.155h-50.155h-50.156h-50.156  H70.216L0.001,94.72l0,0l0,0L0,94.72h0.001v35.108c0,19.39,15.718,35.109,35.108,35.109c19.389,0,35.109-15.718,35.109-35.109  c0,19.39,15.718,35.109,35.107,35.109c19.392,0,35.11-15.718,35.11-35.109c0,19.39,15.718,35.109,35.11,35.109  c19.39,0,35.108-15.718,35.108-35.109c0,19.39,15.72,35.109,35.109,35.109s35.108-15.718,35.108-35.109  c0,19.39,15.72,35.109,35.109,35.109c19.392,0,35.11-15.718,35.11-35.109c0,19.39,15.718,35.109,35.108,35.109h0.002  c19.389,0,35.108-15.718,35.108-35.109c0,19.39,15.718,35.109,35.107,35.109c19.391,0,35.109-15.718,35.109-35.109V94.72H491.52z"/>
<rect x="70.216" y="0.01" style="fill:#E1E6E9;" width="351.078" height="32.471"/>
<path style="fill:#D15241;" d="M0.001,94.72v35.109c0,19.39,15.718,35.108,35.107,35.108s35.109-15.718,35.109-35.108V94.72H0.001z"/>
<path style="fill:#E1E6E9;" d="M70.217,94.72v35.109c0,19.39,15.718,35.108,35.107,35.108c19.391,0,35.109-15.718,35.109-35.108  V94.72H70.217z"/>
<path style="fill:#D15241;" d="M140.434,94.72v35.109c0,19.39,15.718,35.108,35.109,35.108c19.389,0,35.107-15.718,35.107-35.108  V94.72H140.434z"/>
<path style="fill:#E1E6E9;" d="M210.651,94.72v35.109c0,19.39,15.72,35.108,35.109,35.108s35.107-15.718,35.107-35.108V94.72  H210.651z"/>
<path style="fill:#D15241;" d="M280.867,94.72v35.109c0,19.39,15.72,35.108,35.109,35.108c19.391,0,35.109-15.718,35.109-35.108  V94.72H280.867z"/>
<path style="fill:#E1E6E9;" d="M351.086,94.72v35.109c0,19.39,15.718,35.108,35.107,35.108h0.002  c19.389,0,35.107-15.718,35.107-35.108V94.72H351.086z"/>
<path style="fill:#D15241;" d="M421.303,94.72v35.109c0,19.39,15.718,35.108,35.107,35.108c19.391,0,35.109-15.718,35.109-35.108  V94.72H421.303z"/>
<polygon style="fill:#E56353;" points="70.217,94.72 0,94.72 70.217,32.481 120.372,32.481 "/>
<polygon style="fill:#EBF0F3;" points="140.434,94.72 70.217,94.72 120.372,32.481 170.527,32.481 "/>
<polygon style="fill:#E56353;" points="210.651,94.72 140.434,94.72 170.527,32.481 220.682,32.481 "/>
<polygon style="fill:#EBF0F3;" points="280.869,94.72 210.651,94.72 220.682,32.481 270.838,32.481 "/>
<polygon style="fill:#E56353;" points="351.086,94.72 280.869,94.72 270.838,32.481 320.993,32.481 "/>
<polygon style="fill:#EBF0F3;" points="421.303,94.72 351.086,94.72 320.993,32.481 371.148,32.481 "/>
<polygon style="fill:#E56353;" points="491.52,94.72 421.303,94.72 371.148,32.481 421.303,32.481 "/>
<rect x="51.661" y="196.209" style="fill:#DC8744;" width="169.011" height="295.301"/>
<circle style="fill:#64798A;" cx="188.575" cy="343.869" r="13.112"/>
<rect x="261.734" y="242.084" style="fill:#F6C358;" width="174.131" height="122.783"/>
<rect x="270.684" y="250.998" style="fill:#27A2DB;" width="156.273" height="104.909"/>
<g>
	<polygon style="fill:#37B6E2;" points="301.135,355.905 372.078,250.995 384.091,250.995 313.149,355.905  "/>
	<polygon style="fill:#37B6E2;" points="321.461,355.905 392.404,250.995 396.473,250.995 325.53,355.905  "/>
</g>
<g>
</g>
<g>
</g>
<g>
</g>
<g>
</g>
<g>
</g>
<g>
</g>
<g>
</g>
<g>
</g>
<g>
</g>
<g>
</g>
<g>
</g>
<g>
</g>
<g>
</g>
<g>
</g>
<g>
</g>
</svg>
