<?xml version="1.0" encoding="iso-8859-1"?>
<!-- Generator: Adobe Illustrator 19.0.0, SVG Export Plug-In . SVG Version: 6.00 Build 0)  -->
<svg xmlns="http://www.w3.org/2000/svg" xmlns:xlink="http://www.w3.org/1999/xlink" version="1.1" id="Layer_1" x="0px" y="0px" viewBox="0 0 512 512" style="enable-background:new 0 0 512 512;" xml:space="preserve">
<g>
	<path style="fill:#D9D8DA;" d="M411.444,419.703c-2.113,0-4.227-0.806-5.84-2.418l-42.345-42.345   c-3.225-3.226-3.225-8.454,0-11.679c3.226-3.224,8.454-3.224,11.68,0l42.345,42.345c3.225,3.226,3.225,8.454,0,11.679   C415.671,418.896,413.557,419.703,411.444,419.703z"/>
	<path style="fill:#D9D8DA;" d="M165.402,173.662c-2.113,0-4.227-0.806-5.84-2.418l-64.85-64.851c-3.225-3.226-3.225-8.454,0-11.679   c3.226-3.224,8.454-3.224,11.679,0l64.85,64.851c3.225,3.226,3.225,8.454,0,11.679   C169.629,172.855,167.515,173.662,165.402,173.662z"/>
	<path style="fill:#D9D8DA;" d="M342.807,177.45c-2.113,0-4.227-0.806-5.84-2.418c-3.225-3.226-3.225-8.454,0-11.679l68.64-68.64   c3.226-3.224,8.454-3.224,11.679,0c3.225,3.226,3.225,8.454,0,11.679l-68.64,68.64C347.034,176.644,344.92,177.45,342.807,177.45z"/>
	<path style="fill:#D9D8DA;" d="M102.856,417.402c-2.113,0-4.227-0.806-5.839-2.418c-3.226-3.226-3.226-8.454,0-11.679   l40.043-40.044c3.226-3.224,8.454-3.224,11.679,0c3.225,3.226,3.225,8.454,0,11.679l-40.044,40.044   C107.082,416.596,104.969,417.402,102.856,417.402z"/>
</g>
<path style="fill:#6598CB;" d="M339.786,319.748c0-0.683-0.019-1.349-0.042-2.016c-0.006-0.094-0.003-0.189-0.01-0.283  c-0.012-0.337-0.041-0.666-0.063-0.999c-0.025-0.424-0.045-0.851-0.079-1.268c-0.017-0.174-0.041-0.345-0.056-0.516  c-0.056-0.569-0.113-1.137-0.187-1.691c-0.004-0.047-0.014-0.094-0.022-0.141c-1.521-11.374-6.699-19.682-12.52-25.341  c-0.026-0.029-0.054-0.054-0.08-0.08c-0.306-0.295-0.61-0.584-0.918-0.864c-0.152-0.141-0.305-0.273-0.459-0.407  c-0.177-0.161-0.357-0.32-0.535-0.472c-0.295-0.255-0.591-0.501-0.889-0.742c-0.032-0.026-0.065-0.054-0.099-0.079  c-3.734-3.019-7.471-4.983-10.402-5.998c-0.011-0.003-0.023-0.011-0.037-0.013l-0.076-0.029c-0.009-0.001-0.019-0.006-0.029-0.01  l-38.462-15.421l-9.609,9.972l-9.826,9.571l-9.827-9.571l-9.608-9.972l-38.463,15.421c-0.008,0.004-0.02,0.009-0.028,0.01  l-0.077,0.029c-0.011,0.002-0.025,0.01-0.036,0.013c-2.932,1.014-6.669,2.978-10.404,5.998c-0.031,0.025-0.067,0.053-0.095,0.079  c-0.297,0.241-0.596,0.486-0.891,0.742c-0.179,0.152-0.359,0.312-0.535,0.472c-0.155,0.134-0.307,0.266-0.459,0.407  c-0.308,0.281-0.612,0.57-0.919,0.864c-0.028,0.026-0.052,0.052-0.081,0.08c-5.819,5.66-10.998,13.967-12.519,25.341  c-0.008,0.047-0.015,0.094-0.023,0.141c-0.073,0.554-0.129,1.122-0.185,1.691c-0.015,0.172-0.041,0.342-0.054,0.516  c-0.036,0.417-0.058,0.846-0.083,1.268c-0.02,0.334-0.05,0.663-0.064,0.999c-0.004,0.094-0.002,0.189-0.007,0.283  c-0.025,0.666-0.043,1.333-0.043,2.016v6.113h0.002v18.682c0.25,2.916,1.758,8.042,9.297,8.042h9.191h131.82h9.192  c7.538,0,9.045-5.127,9.299-8.042v-18.682l0,0v-6.113H339.786z"/>
<path style="fill:#4982AA;" d="M235.767,263.808l-38.262,14.985l-0.119,0.042c-9.802,3.497-26.396,16.049-26.396,40.913v24.795  c0.25,2.916,1.758,8.042,9.297,8.042h1.937v-32.836c0-24.863,16.595-37.416,26.398-40.913l0.118-0.042l30.245-11.844  L235.767,263.808z"/>
<path style="fill:#694B4B;" d="M257.366,123.478h-4.148c-28.321,0-51.36,23.042-51.36,51.361v6.851v6.412v10.833  c0,0,11.692-1.161,13.13-6.83l-0.008-0.006c0.494-0.536,0.907-1.151,1.2-1.832c6.633-0.201,37.616-0.442,55.311-21.812  c2.111,6.176,9.253,17.873,23,21.557c0.28,0.745,0.704,1.417,1.216,2l-0.113,0.092c1.438,5.669,13.133,6.83,13.133,6.83v-10.876  v-6.369v-6.851C308.728,146.519,285.685,123.478,257.366,123.478z M296.09,188.416l0.494-0.358h0.069l-0.805,0.596L296.09,188.416z   M295.838,188.569l0.056-0.172l0.174-0.339h0.069l-0.204,0.424L295.838,188.569z M294.477,189.624l-0.019-0.026l1.265-0.916  l-0.299,0.288l-0.926,0.685L294.477,189.624z M295.522,189.326l-0.397,0.82c-0.004-0.001-0.004-0.001-0.004-0.001l-0.058-0.026  c-0.008-0.003-0.019-0.011-0.026-0.017l0.648-1.284l0.018-0.017L295.522,189.326z"/>
<path style="fill:#563B3B;" d="M210.912,188.101v-6.412v-6.851c0-27.498,21.723-50.013,48.909-51.299  c-0.815-0.039-1.632-0.063-2.454-0.063h-4.148c-28.321,0-51.36,23.042-51.36,51.361v6.851v6.412v10.833c0,0,5.166-0.514,9.053-2.524  V188.101z"/>
<path style="fill:#FBCB99;" d="M302.56,191.488c-1.965-0.613-4.1-0.255-5.758,0.961c-1.655,1.22-2.635,3.155-2.635,5.211v18.429  c0,2.055,0.977,3.988,2.635,5.207c1.124,0.828,2.471,1.259,3.832,1.259c0.645,0,1.295-0.096,1.922-0.293  c1.24-0.386,2.46-0.941,3.621-1.656c0.682-0.42,1.283-0.963,1.767-1.602c0.712-0.368,1.353-0.864,1.884-1.466  c2.613-2.954,4.054-6.741,4.054-10.666C313.884,199.782,309.334,193.599,302.56,191.488z"/>
<path style="fill:#EDBA89;" d="M213.972,192.449c-1.656-1.217-3.793-1.575-5.756-0.962c-6.771,2.112-11.323,8.295-11.323,15.386  c0,7.094,4.553,13.278,11.323,15.39c0.629,0.197,1.278,0.293,1.926,0.293c1.361,0,2.705-0.431,3.831-1.259  c1.659-1.218,2.637-3.151,2.637-5.207v-18.43C216.608,195.604,215.63,193.67,213.972,192.449z"/>
<path style="fill:#FBCB99;" d="M273.044,248.213c-1.271-1.216-2.976-1.854-4.75-1.789l-0.221,0.012  c-0.393,0.013-0.787,0.063-1.17,0.148c-2.501,0.556-5.045,0.838-7.561,0.838h-7.906c-2.593,0-5.21-0.296-7.786-0.886  c-1.922-0.444-3.936,0.014-5.475,1.242c-1.54,1.227-2.439,3.091-2.439,5.058v18.812l-0.003,0.064  c-0.103,1.866,0.608,3.686,1.943,4.99l12.996,12.656c1.209,1.178,2.826,1.832,4.512,1.832c0.033,0,0.069,0,0.104,0  c1.721-0.029,3.359-0.739,4.553-1.98l13.386-13.897c1.163-1.205,1.809-2.811,1.809-4.482v-17.943  C275.036,251.12,274.318,249.433,273.044,248.213z"/>
<path style="fill:#EDBA89;" d="M256.492,287.414l-12.994-12.655c-1.34-1.303-2.047-3.124-1.946-4.99l0.008-0.064v-18.812  c0-1.654,0.638-3.228,1.756-4.419c-1.82-0.316-3.69,0.149-5.141,1.301c-1.54,1.227-2.439,3.091-2.439,5.058v18.812l-0.003,0.064  c-0.104,1.866,0.608,3.686,1.943,4.99l12.996,12.656c1.209,1.178,2.826,1.832,4.512,1.832c0.033,0,0.069,0,0.103,0  c1.721-0.029,3.359-0.739,4.553-1.98l0.057-0.061C258.624,288.927,257.431,288.33,256.492,287.414z"/>
<path style="fill:#FBCB99;" d="M293.193,186.209c-0.783-0.292-1.521-0.63-2.241-0.992c-10.867-5.07-15.376-11.664-17.191-15.599  c-0.11-0.149-0.216-0.311-0.328-0.518c-1.3-2.388-3.324-0.876-3.324-0.876l-0.007-0.006c-10.149,7.783-21.232,12.335-30.448,14.983  c-3.586,1.06-7.023,1.827-10.13,2.384c-6.176,1.133-10.149,1.282-10.149,1.282c-3.381,0.246-6.002,3.06-6.002,6.451v26.388  c0,20.988,17.074,38.06,38.062,38.06h7.906c20.985,0,38.06-17.073,38.06-38.06v-27.44  C297.402,189.568,295.725,187.153,293.193,186.209z"/>
<path style="fill:#EDBA89;" d="M221.133,219.709V193.32c0-3.391,2.619-6.207,6.001-6.451c0,0,3.972-0.149,10.149-1.282  c3.109-0.557,6.544-1.323,10.135-2.384c8.152-2.345,17.774-6.183,26.914-12.433c-0.214-0.402-0.404-0.786-0.573-1.152  c-0.11-0.149-0.216-0.311-0.328-0.518c-1.3-2.388-3.324-0.876-3.324-0.876l-0.007-0.006c-10.149,7.783-21.232,12.335-30.448,14.983  c-3.586,1.06-7.023,1.827-10.13,2.384c-6.176,1.133-10.149,1.282-10.149,1.282c-3.381,0.246-6.002,3.06-6.002,6.451v26.388  c0,20.988,17.074,38.06,38.062,38.06h7.755C238.208,257.769,221.133,240.696,221.133,219.709z"/>
<path style="fill:#75BF4D;" d="M60.042,391.915C26.935,391.915,0,418.849,0,451.956C0,485.064,26.935,512,60.042,512  c33.108,0,60.044-26.936,60.044-60.044C120.085,418.849,93.15,391.915,60.042,391.915z"/>
<path style="fill:#56A846;" d="M13.213,451.956c0-30.874,23.426-56.37,53.434-59.671c-2.171-0.239-4.373-0.371-6.606-0.371  C26.935,391.915,0,418.849,0,451.956C0,485.064,26.935,512,60.042,512c2.233,0,4.435-0.132,6.606-0.371  C36.64,508.328,13.213,482.831,13.213,451.956z"/>
<path style="fill:#FFFFFF;" d="M56.515,476.036c-2.061,0-4.121-0.766-5.719-2.301l-16.809-16.14  c-3.29-3.159-3.396-8.387-0.237-11.676c3.157-3.291,8.386-3.397,11.675-0.238l11.08,10.639l22.547-21.725  c3.286-3.166,8.514-3.065,11.676,0.216c3.164,3.283,3.068,8.511-0.216,11.676l-28.267,27.237  C60.646,475.265,58.581,476.036,56.515,476.036z"/>
<path style="fill:#75BF4D;" d="M451.955,391.915c-33.106,0-60.041,26.935-60.041,60.042c0,33.108,26.935,60.044,60.041,60.044  C485.064,512,512,485.064,512,451.956C512,418.849,485.064,391.915,451.955,391.915z"/>
<path style="fill:#56A846;" d="M405.127,451.956c0-30.874,23.426-56.37,53.434-59.671c-2.171-0.239-4.373-0.371-6.606-0.371  c-33.106,0-60.041,26.935-60.041,60.042c0,33.108,26.935,60.044,60.041,60.044c2.233,0,4.435-0.132,6.606-0.371  C428.554,508.328,405.127,482.831,405.127,451.956z"/>
<path style="fill:#FFFFFF;" d="M448.428,476.036c-2.061,0-4.121-0.766-5.719-2.301l-16.809-16.14  c-3.29-3.159-3.396-8.387-0.238-11.676c3.158-3.291,8.387-3.397,11.676-0.238l11.08,10.639l22.547-21.725  c3.286-3.166,8.514-3.065,11.676,0.216c3.164,3.283,3.068,8.511-0.216,11.676l-28.267,27.237  C452.56,475.265,450.494,476.036,448.428,476.036z"/>
<path style="fill:#75BF4D;" d="M60.042,0C26.935,0,0,26.935,0,60.042c0,33.109,26.935,60.045,60.042,60.045  c33.108,0,60.044-26.936,60.044-60.044S93.15,0,60.042,0z"/>
<path style="fill:#56A846;" d="M13.213,60.042c0-30.874,23.428-56.37,53.435-59.671C64.477,0.132,62.275,0,60.042,0  C26.935,0,0,26.935,0,60.042c0,33.109,26.935,60.045,60.042,60.045c2.233,0,4.435-0.132,6.606-0.371  C36.64,116.414,13.213,90.917,13.213,60.042z"/>
<path style="fill:#FFFFFF;" d="M56.515,84.121c-2.061,0-4.121-0.766-5.719-2.301L33.987,65.68c-3.29-3.159-3.396-8.387-0.237-11.676  c3.157-3.291,8.386-3.397,11.675-0.238l11.08,10.639L79.052,42.68c3.286-3.166,8.514-3.065,11.676,0.216  c3.164,3.283,3.068,8.511-0.216,11.676L62.245,81.81C60.646,83.35,58.581,84.121,56.515,84.121z"/>
<path style="fill:#75BF4D;" d="M451.955,0c-33.106,0-60.041,26.935-60.041,60.042c0,33.108,26.935,60.044,60.041,60.044  C485.064,120.087,512,93.151,512,60.042C512,26.935,485.064,0,451.955,0z"/>
<path style="fill:#56A846;" d="M405.127,60.042c0-30.874,23.426-56.37,53.434-59.671C456.39,0.132,454.188,0,451.955,0  c-33.106,0-60.041,26.935-60.041,60.042c0,33.108,26.935,60.044,60.041,60.044c2.233,0,4.435-0.132,6.606-0.371  C428.554,116.414,405.127,90.917,405.127,60.042z"/>
<path style="fill:#FFFFFF;" d="M448.428,84.121c-2.061,0-4.121-0.766-5.719-2.301L425.9,65.68c-3.29-3.159-3.396-8.387-0.238-11.676  c3.158-3.291,8.387-3.397,11.676-0.238l11.08,10.639l22.547-21.725c3.286-3.166,8.514-3.065,11.676,0.216  c3.164,3.283,3.068,8.511-0.216,11.676L454.158,81.81C452.56,83.35,450.494,84.121,448.428,84.121z"/>
<g>
</g>
<g>
</g>
<g>
</g>
<g>
</g>
<g>
</g>
<g>
</g>
<g>
</g>
<g>
</g>
<g>
</g>
<g>
</g>
<g>
</g>
<g>
</g>
<g>
</g>
<g>
</g>
<g>
</g>
</svg>
