<?xml version="1.0" encoding="iso-8859-1"?>
<!-- Generator: Adobe Illustrator 19.0.0, SVG Export Plug-In . SVG Version: 6.00 Build 0)  -->
<svg xmlns="http://www.w3.org/2000/svg" xmlns:xlink="http://www.w3.org/1999/xlink" version="1.1" id="Layer_1" x="0px" y="0px" viewBox="0 0 512 512" style="enable-background:new 0 0 512 512;" xml:space="preserve">
<path style="fill:#F3705A;" d="M256,0C114.133,0,0,114.133,0,256s114.133,256,256,256s256-114.133,256-256S397.867,0,256,0z   M256,388.267c-72.533,0-132.267-58.667-132.267-132.267c0-72.533,58.667-132.267,132.267-132.267S388.267,183.467,388.267,256  S328.533,388.267,256,388.267z"/>
<g>
	<path style="fill:#E8EAE9;" d="M256,123.733c18.133,0,35.2,3.2,50.133,9.6l35.2-118.4C314.667,5.333,285.867,0,256,0   s-58.667,5.333-85.333,14.933l35.2,119.467C220.8,128,237.867,123.733,256,123.733z"/>
	<path style="fill:#E8EAE9;" d="M256,388.267c-18.133,0-35.2-3.2-50.133-9.6l-35.2,118.4C197.333,506.667,226.133,512,256,512   s58.667-5.333,85.333-14.933l-35.2-119.467C291.2,384,274.133,388.267,256,388.267z"/>
	<path style="fill:#E8EAE9;" d="M497.067,170.667l-119.467,35.2c6.4,16,9.6,33.067,9.6,50.133c0,18.133-3.2,35.2-9.6,50.133   l119.467,35.2C506.667,314.667,512,285.867,512,256S506.667,197.333,497.067,170.667z"/>
	<path style="fill:#E8EAE9;" d="M123.733,256c0-18.133,3.2-35.2,9.6-50.133l-118.4-35.2C5.333,197.333,0,226.133,0,256   s5.333,58.667,14.933,85.333l119.467-35.2C128,291.2,123.733,274.133,123.733,256z"/>
</g>
<g>
</g>
<g>
</g>
<g>
</g>
<g>
</g>
<g>
</g>
<g>
</g>
<g>
</g>
<g>
</g>
<g>
</g>
<g>
</g>
<g>
</g>
<g>
</g>
<g>
</g>
<g>
</g>
<g>
</g>
</svg>
