<?xml version="1.0" encoding="iso-8859-1"?>
<!-- Generator: Adobe Illustrator 19.0.0, SVG Export Plug-In . SVG Version: 6.00 Build 0)  -->
<svg xmlns="http://www.w3.org/2000/svg" xmlns:xlink="http://www.w3.org/1999/xlink" version="1.1" id="Layer_1" x="0px" y="0px" viewBox="0 0 512 512" style="enable-background:new 0 0 512 512;" xml:space="preserve">
<path style="fill:#415A6B;" d="M81.067,79.9h108.8l-2.133,43.733c8.533-11.733,13.867-28.8,14.933-48  c2.133-38.4-14.933-71.467-38.4-71.467c-4.267,0-7.467,1.067-10.667,3.2c-2.133-1.067-4.267-2.133-6.4-3.2  c-71.467-24.533-93.867,68.267-69.333,108.8h1.067c0-4.267,0-13.867,2.133-23.467V79.9z"/>
<path style="fill:#55C0EB;" d="M274.133,290.034v-41.6c0-24.533-17.067-45.867-40.533-52.267l-52.267-11.733L137.6,198.3  l-44.8-13.867l-51.2,12.8C17.067,202.567,0,223.9,0,249.5v41.6h274.133V290.034z"/>
<rect x="105.6" y="157.767" style="fill:#F7B64C;" width="62.933" height="44.8"/>
<path style="fill:#FFD15C;" d="M192,61.767c-13.867-2.133-25.6-6.4-37.333-12.8c-10.667,7.467-23.467,12.8-36.267,16  c-11.733,3.2-24.533,4.267-37.333,1.067c-2.133,8.533-3.2,17.067-3.2,26.667c0,44.8,26.667,81.067,59.733,81.067  S197.333,137.5,197.333,92.7C196.267,80.967,195.2,71.367,192,61.767z"/>
<polygon style="fill:#CED6E0;" points="167.467,191.9 137.6,201.5 107.733,191.9 108.8,276.167 166.4,276.167 "/>
<path style="fill:#F05540;" d="M154.667,217.5c0,0-10.667-17.067-17.067-17.067c-6.4,0-17.067,17.067-17.067,17.067l8.533,13.867  h17.067L154.667,217.5z"/>
<polygon style="fill:#F3705A;" points="151.467,290.034 156.8,269.767 146.133,232.434 129.067,232.434 118.4,269.767   122.667,290.034 "/>
<g>
	<polygon style="fill:#F3F3F3;" points="137.6,201.5 105.6,165.234 94.933,184.434 117.333,231.367  "/>
	<polygon style="fill:#F3F3F3;" points="137.6,201.5 169.6,165.234 180.267,184.434 156.8,231.367  "/>
</g>
<g>
	<polygon style="fill:#8AD7F8;" points="157.867,290.034 205.867,237.767 182.4,214.3 208,206.834 174.933,174.834 145.067,290.034     "/>
	<polygon style="fill:#8AD7F8;" points="116.267,290.034 67.2,237.767 91.733,214.3 66.133,206.834 99.2,174.834 129.067,290.034     "/>
</g>
<g>
	
		<ellipse transform="matrix(0.1833 0.9831 -0.9831 0.1833 163.9192 4.5195)" style="fill:#FFD15C;" cx="79.24" cy="100.913" rx="18.134" ry="11.734"/>
	
		<ellipse transform="matrix(0.1833 -0.9831 0.9831 0.1833 59.0934 273.4372)" style="fill:#FFD15C;" cx="194.113" cy="101.154" rx="18.134" ry="11.734"/>
</g>
<path style="fill:#415A6B;" d="M320,79.9h108.8l-2.133,44.8c8.533-11.733,13.867-28.8,14.933-48  c2.133-38.4-14.933-71.467-38.4-71.467c-4.267,0-7.467,1.067-10.667,3.2c-2.133-1.067-4.267-2.133-6.4-3.2  c-71.467-24.533-93.867,68.267-68.267,108.8h1.067c0-4.267,0-13.867,2.133-23.467L320,79.9z"/>
<path style="fill:#55C0EB;" d="M512,290.034v-41.6c0-24.533-17.067-45.867-40.533-52.267l-51.2-12.8l-43.733,13.867l-45.867-12.8  l-51.2,12.8c-24.533,6.4-40.533,27.733-40.533,52.267v41.6H512V290.034z"/>
<rect x="344.533" y="157.767" style="fill:#F7B64C;" width="62.933" height="44.8"/>
<path style="fill:#FFD15C;" d="M429.867,61.767c-13.867-2.133-25.6-6.4-37.333-12.8c-10.667,7.467-23.467,12.8-36.267,16  c-12.8,3.2-25.6,4.267-38.4,1.067c-2.133,8.533-3.2,17.067-3.2,25.6c0,44.8,26.667,81.067,59.733,81.067  s59.733-36.267,59.733-81.067C434.133,80.967,433.067,71.367,429.867,61.767z"/>
<polygon style="fill:#CED6E0;" points="405.333,191.9 375.467,201.5 345.6,191.9 347.733,276.167 404.267,276.167 "/>
<path style="fill:#F05540;" d="M392.533,217.5c0,0-10.667-17.067-17.067-17.067c-6.4,0-17.067,17.067-17.067,17.067l8.533,13.867  H384L392.533,217.5z"/>
<polygon style="fill:#F3705A;" points="389.333,290.034 394.667,269.767 384,232.434 366.933,232.434 356.267,269.767   361.6,290.034 "/>
<g>
	<polygon style="fill:#F3F3F3;" points="375.467,201.5 343.467,165.234 332.8,184.434 356.267,231.367  "/>
	<polygon style="fill:#F3F3F3;" points="375.467,201.5 407.467,165.234 418.133,184.434 395.733,231.367  "/>
</g>
<g>
	<polygon style="fill:#8AD7F8;" points="395.733,290.034 444.8,237.767 420.267,214.3 445.867,206.834 412.8,174.834    382.933,290.034  "/>
	<polygon style="fill:#8AD7F8;" points="354.133,290.034 306.133,237.767 329.6,214.3 304,206.834 337.067,174.834 366.933,290.034     "/>
</g>
<g>
	
		<ellipse transform="matrix(0.1833 0.9831 -0.9831 0.1833 358.1162 -228.9782)" style="fill:#FFD15C;" cx="316.867" cy="101.04" rx="18.134" ry="11.734"/>
	
		<ellipse transform="matrix(0.1833 -0.9831 0.9831 0.1833 254.111 508.431)" style="fill:#FFD15C;" cx="433.051" cy="101.281" rx="18.134" ry="11.734"/>
</g>
<g>
	<polygon style="fill:#F3F3F3;" points="301.867,371.1 256,407.367 294.4,453.234 315.733,399.9  "/>
	<polygon style="fill:#F3F3F3;" points="210.133,371.1 196.267,399.9 217.6,453.234 256,407.367  "/>
</g>
<polygon style="fill:#55C0EB;" points="273.067,457.5 290.133,440.434 256,407.367 221.867,440.434 238.933,457.5 "/>
<polygon style="fill:#8AD7F8;" points="285.867,511.9 273.067,457.5 238.933,457.5 226.133,511.9 "/>
<path style="fill:#344A5E;" d="M436.267,511.9L432,475.634c-3.2-25.6-21.333-48-46.933-55.467L332.8,405.234L293.333,511.9H436.267z  "/>
<polygon style="fill:#415A6B;" points="317.867,511.9 357.333,446.834 333.867,429.767 354.133,425.5 305.067,378.567   277.333,511.9 "/>
<path style="fill:#344A5E;" d="M218.667,511.9L179.2,405.234L128,420.167c-25.6,7.467-43.733,28.8-46.933,55.467L75.733,511.9  H218.667z"/>
<polygon style="fill:#415A6B;" points="194.133,511.9 234.667,511.9 206.933,378.567 157.867,425.5 178.133,429.767   154.667,446.834 "/>
<polygon style="fill:#F7B64C;" points="301.867,339.1 256,302.834 210.133,339.1 210.133,371.1 256,407.367 301.867,371.1 "/>
<g>
	<ellipse style="fill:#FFD15C;" cx="254.933" cy="287.9" rx="74.667" ry="90.667"/>
	<path style="fill:#FFD15C;" d="M318.933,211.1c-6.4-5.333-16-3.2-23.467-3.2c-17.067,1.067-35.2,1.067-52.267,3.2   c-25.6,3.2-56.533,19.2-62.933,42.667c-2.133,2.133-4.267,4.267-3.2,7.467c0,6.4,1.067,11.733,2.133,18.133   c1.067,5.333,7.467,7.467,11.733,6.4c0,0,1.067,0,1.067-1.067c5.333-1.067,10.667-7.467,7.467-13.867c-16-35.2,44.8-41.6,64-43.733   c9.6-1.067,22.4-3.2,32-2.133c8.533-4.267,13.867-1.067,16,8.533c4.267,9.6,5.333,20.267,3.2,30.933   c-2.133,11.733,16,17.067,18.133,5.333C334.933,253.767,333.867,222.834,318.933,211.1z"/>
</g>
<path style="fill:#415A6B;" d="M180.267,287.9c0,0-4.267-33.067,16-50.133c18.133-16,22.4-14.933,22.4-14.933  s-17.067,11.733-20.267,19.2c0,0,90.667,5.333,120.533-26.667c11.733,17.067,11.733,43.733,9.6,72.533  c0,0,50.133-90.667-25.6-119.467c0,0,16,1.067,25.6,9.6c0,0-11.733-21.333-46.933-12.8c0,0-49.067-24.533-88.533,13.867  c-14.933,14.933-23.467,35.2-24.533,56.533C168.533,250.567,170.667,270.834,180.267,287.9z"/>
<g>
	
		<ellipse transform="matrix(0.1776 -0.9841 0.9841 0.1776 -19.1458 561.4853)" style="fill:#FFD15C;" cx="326.37" cy="292.198" rx="24.533" ry="16"/>
	
		<ellipse transform="matrix(0.1776 0.9841 -0.9841 0.1776 437.4124 60.0706)" style="fill:#FFD15C;" cx="182.765" cy="291.744" rx="24.533" ry="16"/>
</g>
<g>
</g>
<g>
</g>
<g>
</g>
<g>
</g>
<g>
</g>
<g>
</g>
<g>
</g>
<g>
</g>
<g>
</g>
<g>
</g>
<g>
</g>
<g>
</g>
<g>
</g>
<g>
</g>
<g>
</g>
</svg>
