<?xml version="1.0" encoding="iso-8859-1"?>
<!-- Generator: Adobe Illustrator 19.0.0, SVG Export Plug-In . SVG Version: 6.00 Build 0)  -->
<svg xmlns="http://www.w3.org/2000/svg" xmlns:xlink="http://www.w3.org/1999/xlink" version="1.1" id="Layer_1" x="0px" y="0px" viewBox="0 0 511.999 511.999" style="enable-background:new 0 0 511.999 511.999;" xml:space="preserve">
<g>
	<path style="fill:#D9D8DA;" d="M332.179,23.095c53.26,17.456,99.325,53.16,129.712,100.536c1.574,2.453,4.23,3.792,6.943,3.792   c1.524,0,3.064-0.422,4.44-1.305c3.831-2.456,4.944-7.553,2.488-11.383C443.334,64.176,394.164,26.07,337.311,7.437   c-4.331-1.417-8.978,0.94-10.395,5.263C325.499,17.025,327.856,21.678,332.179,23.095z"/>
	<path style="fill:#D9D8DA;" d="M38.722,126.12c1.376,0.883,2.917,1.305,4.44,1.305c2.712,0,5.37-1.339,6.943-3.792   c30.738-47.924,77.403-83.823,131.397-101.083c4.335-1.385,6.725-6.021,5.339-10.356s-6.027-6.728-10.356-5.339   C118.847,25.278,69.038,63.591,36.234,114.736C33.779,118.566,34.89,123.662,38.722,126.12z"/>
	<path style="fill:#D9D8DA;" d="M50.105,387.183c-2.457-3.831-7.557-4.944-11.383-2.488c-3.831,2.456-4.943,7.553-2.488,11.383   c27.085,42.228,65.44,75.598,110.917,96.504c1.116,0.513,2.285,0.756,3.436,0.756c3.119,0,6.103-1.781,7.491-4.799   c1.9-4.135,0.09-9.027-4.045-10.927C111.424,458.024,75.485,426.754,50.105,387.183z"/>
	<path style="fill:#D9D8DA;" d="M363.153,492.522c1.171,0,2.362-0.25,3.493-0.782c44.688-20.958,82.419-54.035,109.117-95.661   c2.456-3.829,1.343-8.927-2.488-11.383c-3.827-2.456-8.927-1.345-11.383,2.488c-25.017,39.005-60.372,70.001-102.242,89.639   c-4.119,1.932-5.893,6.838-3.96,10.958C357.089,490.768,360.056,492.522,363.153,492.522z"/>
</g>
<path style="fill:#6598CB;" d="M165.624,335.947c0-0.667-0.019-1.32-0.042-1.971c-0.004-0.091-0.002-0.186-0.007-0.277  c-0.014-0.331-0.042-0.65-0.062-0.977c-0.025-0.414-0.046-0.834-0.081-1.241c-0.014-0.17-0.037-0.336-0.054-0.505  c-0.054-0.557-0.11-1.112-0.18-1.653c-0.007-0.046-0.015-0.091-0.022-0.138c-1.487-11.12-6.552-19.241-12.241-24.776  c-0.027-0.026-0.054-0.052-0.08-0.078c-0.298-0.288-0.596-0.571-0.897-0.846c-0.148-0.136-0.298-0.267-0.447-0.399  c-0.174-0.156-0.348-0.311-0.524-0.461c-0.29-0.249-0.579-0.489-0.87-0.725c-0.031-0.025-0.064-0.052-0.094-0.077  c-3.652-2.952-7.304-4.873-10.171-5.863c-0.012-0.004-0.025-0.01-0.037-0.014l-0.075-0.026c-0.01-0.003-0.02-0.007-0.027-0.01  l-37.603-15.078l-9.394,9.75l-9.608,9.358l-9.608-9.358l-9.393-9.751l-37.603,15.078c-0.009,0.003-0.019,0.007-0.027,0.01  l-0.075,0.026c-0.012,0.004-0.026,0.01-0.037,0.014c-2.866,0.99-6.52,2.911-10.171,5.863c-0.031,0.025-0.064,0.053-0.094,0.077  c-0.291,0.236-0.58,0.477-0.87,0.725c-0.175,0.15-0.349,0.305-0.524,0.461c-0.149,0.132-0.3,0.263-0.447,0.399  c-0.301,0.275-0.6,0.558-0.897,0.846c-0.026,0.027-0.054,0.052-0.08,0.078c-5.69,5.535-10.753,13.656-12.242,24.776  c-0.007,0.047-0.015,0.092-0.022,0.138c-0.07,0.542-0.126,1.096-0.18,1.653c-0.016,0.169-0.04,0.335-0.054,0.505  c-0.035,0.408-0.056,0.827-0.081,1.241c-0.019,0.326-0.047,0.646-0.062,0.977c-0.004,0.091-0.002,0.186-0.007,0.277  c-0.024,0.65-0.042,1.303-0.042,1.971v5.977h0v18.265c0.245,2.852,1.72,7.862,9.09,7.862h8.986h128.879h8.986  c7.37,0,8.846-5.01,9.09-7.862v-18.265h0.001V335.947z"/>
<path style="fill:#4982AA;" d="M63.923,281.256l-37.408,14.65l-0.115,0.041c-9.586,3.419-25.809,15.69-25.809,40.001v24.241  c0.245,2.852,1.72,7.862,9.09,7.862h1.895v-32.104c0-24.31,16.224-36.582,25.809-40.001l0.115-0.041l29.572-11.582L63.923,281.256z"/>
<path style="fill:#694B4B;" d="M85.042,144.055H80.99c-27.691,0-50.216,22.529-50.216,50.217v6.698v6.268v10.592  c0,0,11.432-1.134,12.84-6.678l-0.008-0.006c0.482-0.524,0.887-1.123,1.171-1.792c6.485-0.197,36.778-0.432,54.077-21.325  c2.065,6.04,9.047,17.475,22.487,21.079c0.276,0.727,0.689,1.385,1.192,1.954l-0.112,0.089c1.405,5.544,12.838,6.678,12.838,6.678  v-10.634v-6.226v-6.698C135.258,166.584,112.732,144.055,85.042,144.055z M122.902,207.546l0.483-0.349h0.068l-0.788,0.582  L122.902,207.546z M122.657,207.695l0.055-0.17l0.167-0.33h0.069l-0.2,0.414L122.657,207.695z M121.325,208.725l-0.019-0.025  l1.238-0.895l-0.293,0.282l-0.905,0.669L121.325,208.725z M122.347,208.434l-0.389,0.802c-0.002-0.001-0.003-0.001-0.007-0.002  l-0.055-0.025c-0.009-0.004-0.02-0.01-0.026-0.015l0.633-1.257l0.016-0.016L122.347,208.434z"/>
<path style="fill:#563B3B;" d="M39.626,207.237v-6.268v-6.698c0-26.885,21.237-48.899,47.816-50.155  c-0.796-0.037-1.595-0.062-2.4-0.062h-4.052c-27.691,0-50.216,22.529-50.216,50.217v6.698v6.268v10.592c0,0,5.052-0.503,8.853-2.467  C39.626,215.362,39.626,207.237,39.626,207.237z"/>
<path style="fill:#FBCB99;" d="M129.227,210.549c-1.92-0.6-4.009-0.249-5.629,0.941c-1.619,1.191-2.576,3.082-2.576,5.094V234.6  c0,2.01,0.956,3.901,2.575,5.092c1.101,0.81,2.416,1.231,3.748,1.231c0.629,0,1.264-0.094,1.88-0.287  c1.212-0.378,2.404-0.923,3.538-1.62c0.669-0.41,1.257-0.943,1.73-1.565c0.696-0.359,1.322-0.846,1.842-1.434  c2.555-2.889,3.961-6.591,3.961-10.427C140.297,218.658,135.849,212.613,129.227,210.549z"/>
<path style="fill:#EDBA89;" d="M42.616,211.49c-1.621-1.192-3.71-1.541-5.629-0.943c-6.622,2.065-11.071,8.11-11.071,15.043  c0,6.935,4.449,12.98,11.071,15.045c0.616,0.192,1.251,0.287,1.882,0.287c1.331,0,2.646-0.422,3.747-1.23  c1.62-1.191,2.576-3.082,2.576-5.092v-18.019C45.192,214.573,44.237,212.681,42.616,211.49z"/>
<path style="fill:#FBCB99;" d="M100.37,266.009c-1.244-1.19-2.91-1.814-4.643-1.751l-0.215,0.011  c-0.386,0.014-0.77,0.064-1.147,0.146c-2.443,0.544-4.93,0.82-7.392,0.82h-7.729c-2.535,0-5.096-0.292-7.612-0.869  c-1.878-0.433-3.848,0.018-5.353,1.216c-1.505,1.2-2.383,3.021-2.383,4.946v18.39l-0.004,0.063c-0.1,1.825,0.593,3.603,1.9,4.879  l12.703,12.374c1.182,1.151,2.766,1.793,4.412,1.793c0.034,0,0.069,0,0.102,0c1.682-0.027,3.285-0.724,4.452-1.938l13.088-13.584  c1.135-1.178,1.769-2.751,1.769-4.385v-17.542C102.319,268.852,101.615,267.202,100.37,266.009z"/>
<path style="fill:#EDBA89;" d="M84.188,304.336l-12.703-12.373c-1.308-1.274-2.002-3.054-1.903-4.879l0.006-0.063V268.63  c0-1.618,0.625-3.157,1.718-4.322c-1.777-0.31-3.608,0.144-5.026,1.273c-1.505,1.2-2.383,3.021-2.383,4.946v18.39l-0.004,0.063  c-0.1,1.825,0.593,3.603,1.9,4.879l12.703,12.374c1.182,1.151,2.766,1.793,4.412,1.793c0.034,0,0.069,0,0.102,0  c1.682-0.027,3.285-0.724,4.452-1.938l0.056-0.058C86.272,305.815,85.107,305.231,84.188,304.336z"/>
<path style="fill:#FBCB99;" d="M120.07,205.389c-0.765-0.286-1.486-0.616-2.19-0.971c-10.624-4.958-15.034-11.405-16.811-15.251  c-0.104-0.145-0.209-0.305-0.319-0.506c-1.27-2.334-3.248-0.857-3.248-0.857l-0.009-0.004c-9.921,7.611-20.758,12.061-29.767,14.649  c-3.508,1.036-6.868,1.786-9.908,2.33c-6.037,1.11-9.921,1.255-9.921,1.255c-3.308,0.239-5.869,2.992-5.869,6.308v25.798  c0,20.519,16.694,37.213,37.214,37.213h7.729c20.518,0,37.211-16.693,37.211-37.213v-26.826  C124.184,208.672,122.543,206.311,120.07,205.389z"/>
<path style="fill:#EDBA89;" d="M49.617,238.139v-25.798c0-3.316,2.562-6.068,5.868-6.308c0,0,3.882-0.145,9.922-1.255  c3.039-0.544,6.399-1.294,9.908-2.33c7.973-2.293,17.378-6.046,26.316-12.153c-0.211-0.394-0.398-0.771-0.562-1.127  c-0.104-0.145-0.209-0.305-0.319-0.506c-1.27-2.334-3.248-0.857-3.248-0.857l-0.009-0.004c-9.921,7.611-20.758,12.061-29.767,14.649  c-3.508,1.036-6.868,1.786-9.908,2.33c-6.037,1.109-9.921,1.255-9.921,1.255c-3.308,0.239-5.869,2.992-5.869,6.308v25.798  c0,20.519,16.694,37.213,37.214,37.213h7.584C66.311,275.351,49.617,258.658,49.617,238.139z"/>
<path style="fill:#6598CB;" d="M511.407,335.947c0-0.667-0.019-1.32-0.042-1.971c-0.004-0.091-0.002-0.186-0.007-0.277  c-0.014-0.331-0.042-0.65-0.062-0.977c-0.025-0.414-0.046-0.834-0.081-1.241c-0.014-0.17-0.037-0.336-0.054-0.505  c-0.054-0.557-0.11-1.112-0.18-1.653c-0.007-0.046-0.015-0.091-0.022-0.138c-1.487-11.12-6.552-19.241-12.241-24.776  c-0.026-0.026-0.054-0.052-0.08-0.078c-0.298-0.288-0.596-0.571-0.897-0.846c-0.148-0.136-0.299-0.267-0.447-0.399  c-0.174-0.156-0.348-0.311-0.524-0.461c-0.29-0.249-0.579-0.489-0.87-0.725c-0.031-0.025-0.064-0.052-0.094-0.077  c-3.651-2.952-7.304-4.873-10.171-5.863c-0.012-0.004-0.026-0.01-0.037-0.014l-0.075-0.026c-0.01-0.003-0.02-0.007-0.027-0.01  l-37.603-15.078l-9.393,9.75l-9.608,9.358l-9.608-9.358l-9.393-9.751l-37.603,15.078c-0.009,0.003-0.019,0.007-0.027,0.01  l-0.075,0.026c-0.012,0.004-0.025,0.01-0.037,0.014c-2.866,0.99-6.52,2.911-10.171,5.863c-0.031,0.025-0.064,0.053-0.094,0.077  c-0.291,0.236-0.58,0.477-0.87,0.725c-0.175,0.15-0.349,0.305-0.524,0.461c-0.149,0.132-0.299,0.263-0.447,0.399  c-0.301,0.275-0.6,0.558-0.897,0.846c-0.026,0.027-0.054,0.052-0.08,0.078c-5.69,5.535-10.753,13.656-12.242,24.776  c-0.007,0.047-0.015,0.092-0.022,0.138c-0.07,0.542-0.126,1.096-0.18,1.653c-0.016,0.169-0.04,0.335-0.054,0.505  c-0.035,0.408-0.056,0.827-0.081,1.241c-0.02,0.326-0.047,0.646-0.062,0.977c-0.004,0.091-0.002,0.186-0.007,0.277  c-0.023,0.65-0.042,1.303-0.042,1.971v5.977h0.001v18.265c0.245,2.852,1.72,7.862,9.09,7.862h8.986h128.879h8.986  c7.37,0,8.846-5.01,9.09-7.862v-18.265h0.001v-5.977H511.407z"/>
<path style="fill:#4982AA;" d="M409.705,281.256l-37.408,14.65l-0.115,0.041c-9.586,3.419-25.809,15.69-25.809,40.001v24.241  c0.245,2.852,1.72,7.862,9.09,7.862h1.895v-32.104c0-24.31,16.224-36.582,25.809-40.001l0.115-0.041l29.572-11.582L409.705,281.256z  "/>
<path style="fill:#694B4B;" d="M430.824,144.055h-4.054c-27.691,0-50.216,22.529-50.216,50.217v6.698v6.268v10.592  c0,0,11.432-1.134,12.84-6.678l-0.008-0.006c0.482-0.524,0.887-1.123,1.171-1.792c6.485-0.197,36.778-0.432,54.077-21.325  c2.065,6.04,9.047,17.475,22.487,21.079c0.276,0.727,0.689,1.385,1.192,1.954l-0.112,0.089c1.405,5.544,12.837,6.678,12.837,6.678  v-10.634v-6.226v-6.698C481.041,166.584,458.514,144.055,430.824,144.055z M468.685,207.546l0.484-0.349h0.067l-0.788,0.582  L468.685,207.546z M468.439,207.695l0.055-0.17l0.167-0.33h0.069l-0.2,0.414L468.439,207.695z M467.107,208.725l-0.019-0.025  l1.238-0.895l-0.293,0.282l-0.905,0.669L467.107,208.725z M468.129,208.434l-0.388,0.802c-0.002-0.001-0.003-0.001-0.007-0.002  l-0.055-0.025c-0.009-0.004-0.02-0.01-0.026-0.015l0.633-1.257l0.016-0.016L468.129,208.434z"/>
<path style="fill:#563B3B;" d="M385.408,207.237v-6.268v-6.698c0-26.885,21.237-48.899,47.816-50.155  c-0.796-0.037-1.595-0.062-2.4-0.062h-4.054c-27.691,0-50.216,22.529-50.216,50.217v6.698v6.268v10.592c0,0,5.052-0.503,8.853-2.467  v-8.125H385.408z"/>
<path style="fill:#FBCB99;" d="M475.01,210.549c-1.92-0.6-4.01-0.249-5.629,0.941c-1.619,1.191-2.576,3.082-2.576,5.094V234.6  c0,2.01,0.956,3.901,2.575,5.092c1.101,0.81,2.416,1.231,3.748,1.231c0.629,0,1.264-0.094,1.88-0.287  c1.212-0.378,2.404-0.923,3.538-1.62c0.669-0.41,1.257-0.943,1.73-1.565c0.696-0.359,1.322-0.846,1.842-1.434  c2.555-2.889,3.961-6.591,3.961-10.427C486.08,218.658,481.632,212.613,475.01,210.549z"/>
<path style="fill:#EDBA89;" d="M388.399,211.49c-1.621-1.192-3.71-1.541-5.629-0.943c-6.622,2.065-11.071,8.11-11.071,15.043  c0,6.935,4.449,12.98,11.071,15.045c0.616,0.192,1.251,0.287,1.882,0.287c1.331,0,2.646-0.422,3.747-1.23  c1.62-1.191,2.576-3.082,2.576-5.092v-18.019C390.975,214.573,390.02,212.681,388.399,211.49z"/>
<path style="fill:#FBCB99;" d="M446.152,266.009c-1.244-1.19-2.91-1.814-4.642-1.751l-0.215,0.011  c-0.387,0.014-0.77,0.064-1.147,0.146c-2.443,0.544-4.93,0.82-7.392,0.82h-7.729c-2.535,0-5.096-0.292-7.612-0.869  c-1.878-0.433-3.848,0.018-5.353,1.216c-1.505,1.198-2.383,3.021-2.383,4.946v18.39l-0.004,0.063c-0.1,1.825,0.593,3.603,1.9,4.879  l12.704,12.374c1.182,1.151,2.766,1.793,4.412,1.793c0.034,0,0.068,0,0.102,0c1.682-0.027,3.285-0.724,4.452-1.938l13.088-13.584  c1.135-1.178,1.769-2.751,1.769-4.385v-17.542C448.102,268.852,447.398,267.202,446.152,266.009z"/>
<path style="fill:#EDBA89;" d="M429.971,304.336l-12.703-12.373c-1.308-1.274-2.001-3.054-1.902-4.879l0.005-0.063V268.63  c0-1.618,0.625-3.157,1.717-4.322c-1.777-0.31-3.608,0.144-5.026,1.273c-1.505,1.2-2.383,3.021-2.383,4.946v18.39l-0.004,0.063  c-0.1,1.825,0.593,3.603,1.9,4.879l12.704,12.374c1.182,1.151,2.766,1.793,4.412,1.793c0.034,0,0.068,0,0.102,0  c1.682-0.027,3.285-0.724,4.452-1.938l0.056-0.058C432.054,305.815,430.89,305.231,429.971,304.336z"/>
<path style="fill:#FBCB99;" d="M465.853,205.389c-0.765-0.286-1.486-0.616-2.19-0.971c-10.624-4.958-15.034-11.405-16.811-15.251  c-0.104-0.145-0.209-0.305-0.319-0.506c-1.27-2.334-3.248-0.857-3.248-0.857l-0.009-0.004c-9.921,7.611-20.758,12.061-29.767,14.649  c-3.508,1.036-6.868,1.786-9.908,2.33c-6.038,1.11-9.921,1.255-9.921,1.255c-3.308,0.239-5.869,2.992-5.869,6.308v25.798  c0,20.519,16.694,37.213,37.214,37.213h7.729c20.518,0,37.211-16.693,37.211-37.213v-26.826  C469.967,208.672,468.326,206.311,465.853,205.389z"/>
<path style="fill:#EDBA89;" d="M395.4,238.139v-25.798c0-3.316,2.562-6.068,5.868-6.308c0,0,3.882-0.145,9.922-1.255  c3.039-0.544,6.399-1.294,9.907-2.33c7.973-2.293,17.378-6.046,26.316-12.153c-0.211-0.394-0.398-0.771-0.562-1.127  c-0.104-0.145-0.209-0.305-0.319-0.506c-1.27-2.334-3.248-0.857-3.248-0.857l-0.009-0.004c-9.921,7.611-20.758,12.061-29.767,14.649  c-3.508,1.036-6.868,1.786-9.908,2.33c-6.037,1.109-9.921,1.255-9.921,1.255c-3.308,0.239-5.869,2.992-5.869,6.308v25.798  c0,20.519,16.694,37.213,37.214,37.213h7.584C412.094,275.351,395.4,258.658,395.4,238.139z"/>
<path style="fill:#6598CB;" d="M338.515,191.893c0-0.668-0.019-1.32-0.042-1.971c-0.004-0.091-0.002-0.186-0.007-0.277  c-0.014-0.331-0.042-0.65-0.062-0.977c-0.025-0.414-0.046-0.834-0.081-1.241c-0.014-0.17-0.037-0.336-0.054-0.505  c-0.054-0.557-0.11-1.112-0.18-1.653c-0.007-0.046-0.015-0.091-0.022-0.138c-1.489-11.12-6.552-19.241-12.242-24.776  c-0.026-0.026-0.054-0.052-0.08-0.078c-0.298-0.288-0.596-0.57-0.897-0.845c-0.148-0.136-0.299-0.267-0.447-0.399  c-0.174-0.156-0.348-0.311-0.524-0.461c-0.29-0.249-0.579-0.489-0.87-0.725c-0.031-0.024-0.064-0.052-0.094-0.077  c-3.651-2.951-7.304-4.873-10.171-5.863c-0.012-0.004-0.025-0.01-0.037-0.014l-0.075-0.026c-0.01-0.003-0.019-0.007-0.027-0.01  L275,136.777l-9.393,9.751l-9.608,9.357l-9.608-9.357l-9.393-9.751l-37.603,15.078c-0.009,0.003-0.019,0.007-0.027,0.01  l-0.075,0.026c-0.012,0.004-0.025,0.01-0.037,0.014c-2.866,0.99-6.519,2.911-10.171,5.863c-0.031,0.025-0.064,0.053-0.094,0.077  c-0.291,0.236-0.58,0.477-0.87,0.725c-0.175,0.15-0.349,0.305-0.524,0.461c-0.149,0.132-0.299,0.263-0.447,0.399  c-0.301,0.275-0.6,0.558-0.897,0.845c-0.027,0.026-0.054,0.052-0.08,0.078c-5.69,5.535-10.753,13.656-12.241,24.776  c-0.007,0.047-0.015,0.092-0.022,0.138c-0.07,0.542-0.126,1.096-0.18,1.653c-0.016,0.169-0.04,0.335-0.054,0.505  c-0.035,0.408-0.056,0.827-0.081,1.241c-0.02,0.326-0.047,0.646-0.062,0.977c-0.004,0.091-0.002,0.186-0.007,0.277  c-0.023,0.65-0.042,1.303-0.042,1.971v5.976h0.001v18.265c0.245,2.852,1.72,7.862,9.09,7.862h8.986h128.878h8.986  c7.37,0,8.846-5.011,9.09-7.862v-18.265h0.001V191.893z"/>
<path style="fill:#4982AA;" d="M236.815,137.202l-37.408,14.65l-0.115,0.041c-9.586,3.419-25.809,15.69-25.809,40.001v24.241  c0.245,2.852,1.72,7.862,9.09,7.862h1.895v-32.104c0-24.31,16.223-36.582,25.809-40.001l0.115-0.041l29.572-11.582L236.815,137.202z  "/>
<path style="fill:#694B4B;" d="M257.933,0h-4.052c-27.691,0-50.216,22.529-50.216,50.217v6.698v6.268v10.592  c0,0,11.432-1.134,12.84-6.678l-0.008-0.005c0.482-0.525,0.887-1.123,1.171-1.792c6.485-0.197,36.779-0.432,54.078-21.325  c2.065,6.04,9.047,17.475,22.487,21.079c0.276,0.727,0.689,1.385,1.192,1.954l-0.112,0.089c1.405,5.544,12.837,6.678,12.837,6.678  V63.141v-6.226v-6.698C308.15,22.529,285.622,0,257.933,0z M295.794,63.49l0.483-0.349h0.067l-0.788,0.582L295.794,63.49z   M295.548,63.641l0.055-0.17l0.167-0.33h0.068l-0.2,0.414L295.548,63.641z M294.216,64.67l-0.019-0.025l1.238-0.895l-0.293,0.282  l-0.905,0.669L294.216,64.67z M295.238,64.379l-0.388,0.802c-0.002-0.001-0.003-0.001-0.007-0.002l-0.055-0.025  c-0.009-0.004-0.02-0.01-0.026-0.015l0.633-1.257l0.017-0.016L295.238,64.379z"/>
<path style="fill:#563B3B;" d="M212.518,63.183v-6.268v-6.698c0-26.885,21.237-48.899,47.816-50.155  C259.537,0.023,258.738,0,257.933,0h-4.052c-27.691,0-50.216,22.529-50.216,50.217v6.698v6.268v10.592c0,0,5.052-0.503,8.853-2.467  V63.183z"/>
<path style="fill:#FBCB99;" d="M302.119,66.494c-1.92-0.6-4.009-0.249-5.629,0.941c-1.619,1.191-2.576,3.082-2.576,5.094v18.016  c0,2.01,0.956,3.901,2.575,5.092c1.101,0.81,2.416,1.231,3.748,1.231c0.629,0,1.264-0.094,1.88-0.287  c1.213-0.378,2.404-0.923,3.538-1.62c0.669-0.41,1.257-0.943,1.73-1.565c0.696-0.359,1.322-0.846,1.842-1.434  c2.555-2.889,3.961-6.591,3.961-10.427C313.189,74.603,308.741,68.558,302.119,66.494z"/>
<path style="fill:#EDBA89;" d="M215.508,67.436c-1.621-1.192-3.71-1.541-5.629-0.943c-6.622,2.065-11.071,8.11-11.071,15.043  c0,6.935,4.449,12.981,11.071,15.045c0.616,0.192,1.251,0.287,1.882,0.287c1.331,0,2.646-0.422,3.747-1.23  c1.62-1.191,2.576-3.082,2.576-5.092v-18.02C218.084,70.518,217.128,68.627,215.508,67.436z"/>
<path style="fill:#FBCB99;" d="M273.261,121.955c-1.244-1.19-2.91-1.814-4.643-1.751l-0.215,0.011  c-0.387,0.014-0.77,0.064-1.147,0.146c-2.443,0.544-4.93,0.82-7.392,0.82h-7.729c-2.535,0-5.096-0.292-7.612-0.869  c-1.878-0.433-3.848,0.018-5.353,1.216c-1.505,1.2-2.383,3.021-2.383,4.946v18.39l-0.004,0.063c-0.1,1.825,0.593,3.603,1.9,4.879  l12.703,12.374c1.182,1.151,2.766,1.793,4.412,1.793c0.034,0,0.069,0,0.102,0c1.682-0.027,3.285-0.724,4.452-1.938l13.088-13.584  c1.135-1.178,1.769-2.751,1.769-4.385v-17.542C275.211,124.797,274.506,123.148,273.261,121.955z"/>
<path style="fill:#EDBA89;" d="M257.079,160.28l-12.703-12.373c-1.308-1.274-2.002-3.054-1.902-4.879l0.005-0.063v-18.392  c0-1.618,0.625-3.157,1.718-4.322c-1.777-0.31-3.608,0.144-5.026,1.273c-1.505,1.2-2.383,3.021-2.383,4.946v18.39l-0.004,0.063  c-0.1,1.825,0.593,3.603,1.9,4.879l12.703,12.374c1.182,1.151,2.766,1.793,4.412,1.793c0.034,0,0.069,0,0.102,0  c1.682-0.027,3.285-0.724,4.452-1.938l0.056-0.058C259.162,161.76,257.999,161.177,257.079,160.28z"/>
<path style="fill:#FBCB99;" d="M292.962,61.334c-0.765-0.286-1.487-0.617-2.19-0.971c-10.624-4.958-15.033-11.405-16.811-15.251  c-0.104-0.145-0.209-0.305-0.319-0.506c-1.27-2.334-3.248-0.857-3.248-0.857l-0.009-0.004c-9.921,7.611-20.758,12.06-29.767,14.649  c-3.508,1.036-6.868,1.786-9.908,2.33c-6.038,1.11-9.921,1.255-9.921,1.255c-3.308,0.239-5.869,2.992-5.869,6.308v25.798  c0,20.519,16.694,37.213,37.214,37.213h7.729c20.518,0,37.211-16.693,37.211-37.213V67.257  C297.076,64.616,295.434,62.256,292.962,61.334z"/>
<path style="fill:#EDBA89;" d="M222.509,94.084V68.285c0-3.316,2.562-6.068,5.868-6.308c0,0,3.882-0.145,9.922-1.255  c3.039-0.544,6.399-1.294,9.907-2.33c7.973-2.293,17.378-6.046,26.316-12.153c-0.211-0.394-0.398-0.771-0.562-1.127  c-0.104-0.145-0.209-0.305-0.319-0.506c-1.27-2.334-3.248-0.857-3.248-0.857l-0.009-0.004c-9.921,7.611-20.758,12.06-29.767,14.649  c-3.508,1.036-6.868,1.786-9.908,2.33c-6.037,1.11-9.921,1.255-9.921,1.255c-3.308,0.239-5.869,2.992-5.869,6.308v25.798  c0,20.519,16.694,37.213,37.214,37.213h7.584C239.203,131.297,222.509,114.603,222.509,94.084z"/>
<path style="fill:#6598CB;" d="M338.515,479.896c0-0.667-0.019-1.32-0.042-1.971c-0.004-0.091-0.002-0.186-0.007-0.277  c-0.014-0.331-0.042-0.65-0.062-0.977c-0.025-0.414-0.046-0.834-0.081-1.241c-0.014-0.17-0.037-0.336-0.054-0.505  c-0.054-0.557-0.11-1.112-0.18-1.653c-0.007-0.046-0.015-0.091-0.022-0.138c-1.489-11.12-6.552-19.241-12.242-24.776  c-0.026-0.026-0.054-0.052-0.08-0.078c-0.298-0.288-0.596-0.571-0.897-0.846c-0.148-0.136-0.299-0.267-0.447-0.399  c-0.174-0.156-0.348-0.311-0.524-0.461c-0.29-0.249-0.579-0.489-0.87-0.725c-0.031-0.024-0.064-0.052-0.094-0.077  c-3.651-2.951-7.304-4.872-10.171-5.863c-0.012-0.004-0.025-0.01-0.037-0.014l-0.075-0.026c-0.01-0.003-0.019-0.007-0.027-0.01  L275,424.779l-9.393,9.751l-9.608,9.358l-9.608-9.358l-9.393-9.751l-37.603,15.078c-0.009,0.003-0.019,0.007-0.027,0.01  l-0.075,0.026c-0.012,0.004-0.025,0.01-0.037,0.014c-2.866,0.99-6.519,2.911-10.171,5.863c-0.031,0.025-0.064,0.053-0.094,0.077  c-0.291,0.236-0.58,0.477-0.87,0.725c-0.175,0.15-0.349,0.305-0.524,0.461c-0.149,0.132-0.299,0.263-0.447,0.399  c-0.301,0.275-0.6,0.558-0.897,0.846c-0.027,0.026-0.054,0.052-0.08,0.078c-5.69,5.535-10.753,13.656-12.241,24.776  c-0.007,0.047-0.015,0.092-0.022,0.138c-0.07,0.542-0.126,1.096-0.18,1.653c-0.016,0.169-0.04,0.335-0.054,0.505  c-0.035,0.408-0.056,0.827-0.081,1.241c-0.02,0.326-0.047,0.646-0.062,0.977c-0.004,0.091-0.002,0.186-0.007,0.277  c-0.023,0.65-0.042,1.304-0.042,1.971v5.976h0.001v18.265c0.245,2.852,1.72,7.862,9.09,7.862h8.986h128.878h8.986  c7.37,0,8.846-5.012,9.09-7.862v-18.265h0.001V479.896z"/>
<path style="fill:#4982AA;" d="M236.815,425.204l-37.408,14.65l-0.115,0.041c-9.586,3.419-25.809,15.69-25.809,40.001v24.241  c0.245,2.852,1.72,7.862,9.09,7.862h1.895v-32.104c0-24.31,16.223-36.582,25.809-40.001l0.115-0.041l29.572-11.582L236.815,425.204z  "/>
<path style="fill:#694B4B;" d="M257.933,288.004h-4.052c-27.691,0-50.216,22.529-50.216,50.217v6.698v6.268v10.592  c0,0,11.432-1.134,12.84-6.678l-0.008-0.006c0.482-0.525,0.887-1.123,1.171-1.792c6.485-0.197,36.779-0.432,54.078-21.325  c2.065,6.04,9.047,17.475,22.487,21.079c0.276,0.727,0.689,1.385,1.192,1.954l-0.112,0.089c1.405,5.544,12.837,6.678,12.837,6.678  v-10.634v-6.226v-6.698C308.15,310.533,285.622,288.004,257.933,288.004z M295.794,351.494l0.483-0.349h0.067l-0.788,0.582  L295.794,351.494z M295.548,351.644l0.055-0.17l0.167-0.33h0.068l-0.2,0.414L295.548,351.644z M294.216,352.674l-0.019-0.025  l1.238-0.895l-0.293,0.282l-0.905,0.669L294.216,352.674z M295.238,352.383l-0.388,0.802c-0.002-0.001-0.003-0.001-0.007-0.002  l-0.055-0.025c-0.009-0.004-0.02-0.01-0.026-0.015l0.633-1.257l0.017-0.017L295.238,352.383z"/>
<path style="fill:#563B3B;" d="M212.518,351.187v-6.268v-6.698c0-26.885,21.237-48.899,47.816-50.155  c-0.796-0.037-1.595-0.062-2.4-0.062h-4.052c-27.691,0-50.216,22.529-50.216,50.217v6.698v6.268v10.592c0,0,5.052-0.503,8.853-2.467  V351.187z"/>
<path style="fill:#FBCB99;" d="M302.119,354.498c-1.92-0.6-4.009-0.249-5.629,0.941c-1.619,1.191-2.576,3.082-2.576,5.094v18.016  c0,2.01,0.956,3.901,2.575,5.092c1.101,0.81,2.416,1.231,3.748,1.231c0.629,0,1.264-0.094,1.88-0.287  c1.213-0.378,2.404-0.923,3.538-1.62c0.669-0.41,1.257-0.943,1.73-1.565c0.696-0.359,1.322-0.846,1.842-1.434  c2.555-2.889,3.961-6.591,3.961-10.427C313.189,362.607,308.741,356.562,302.119,354.498z"/>
<path style="fill:#EDBA89;" d="M215.508,355.44c-1.621-1.192-3.71-1.541-5.629-0.943c-6.622,2.065-11.071,8.11-11.071,15.043  c0,6.935,4.449,12.98,11.071,15.045c0.616,0.192,1.251,0.287,1.882,0.287c1.331,0,2.646-0.422,3.747-1.23  c1.62-1.191,2.576-3.082,2.576-5.092v-18.019C218.084,358.522,217.128,356.631,215.508,355.44z"/>
<path style="fill:#FBCB99;" d="M273.261,409.958c-1.244-1.19-2.91-1.814-4.643-1.751l-0.215,0.011  c-0.387,0.014-0.77,0.064-1.147,0.146c-2.443,0.544-4.93,0.82-7.392,0.82h-7.729c-2.535,0-5.096-0.292-7.612-0.869  c-1.878-0.433-3.848,0.018-5.353,1.216c-1.505,1.2-2.383,3.021-2.383,4.946v18.39l-0.004,0.063c-0.1,1.825,0.593,3.603,1.9,4.879  l12.703,12.374c1.182,1.151,2.766,1.793,4.412,1.793c0.034,0,0.069,0,0.102,0c1.682-0.027,3.285-0.724,4.452-1.938l13.088-13.584  c1.135-1.178,1.769-2.751,1.769-4.385v-17.542C275.211,412.801,274.506,411.151,273.261,409.958z"/>
<path style="fill:#EDBA89;" d="M257.079,448.284l-12.703-12.373c-1.308-1.274-2.002-3.054-1.902-4.879l0.005-0.063v-18.392  c0-1.618,0.625-3.157,1.718-4.322c-1.777-0.31-3.608,0.144-5.026,1.273c-1.505,1.2-2.383,3.021-2.383,4.946v18.39l-0.004,0.063  c-0.1,1.825,0.593,3.603,1.9,4.879l12.703,12.374c1.182,1.151,2.766,1.793,4.412,1.793c0.034,0,0.069,0,0.102,0  c1.682-0.027,3.285-0.724,4.452-1.938l0.056-0.058C259.162,449.764,257.999,449.181,257.079,448.284z"/>
<path style="fill:#FBCB99;" d="M292.962,349.338c-0.765-0.286-1.487-0.616-2.19-0.971c-10.624-4.958-15.033-11.405-16.811-15.251  c-0.104-0.145-0.209-0.305-0.319-0.506c-1.27-2.334-3.248-0.857-3.248-0.857l-0.009-0.004c-9.921,7.611-20.758,12.06-29.767,14.649  c-3.508,1.036-6.868,1.786-9.908,2.33c-6.038,1.11-9.921,1.255-9.921,1.255c-3.308,0.239-5.869,2.992-5.869,6.308v25.798  c0,20.519,16.694,37.213,37.214,37.213h7.729c20.518,0,37.211-16.693,37.211-37.213v-26.826  C297.076,352.62,295.434,350.26,292.962,349.338z"/>
<path style="fill:#EDBA89;" d="M222.509,382.087v-25.798c0-3.316,2.562-6.068,5.868-6.308c0,0,3.882-0.145,9.922-1.255  c3.039-0.544,6.399-1.294,9.907-2.33c7.973-2.293,17.378-6.046,26.316-12.154c-0.211-0.394-0.398-0.771-0.562-1.127  c-0.104-0.145-0.209-0.305-0.319-0.506c-1.27-2.334-3.248-0.857-3.248-0.857l-0.009-0.004c-9.921,7.611-20.758,12.06-29.767,14.649  c-3.508,1.036-6.868,1.786-9.908,2.33c-6.037,1.11-9.921,1.255-9.921,1.255c-3.308,0.239-5.869,2.992-5.869,6.308v25.798  c0,20.519,16.694,37.213,37.214,37.213h7.584C239.203,419.3,222.509,402.607,222.509,382.087z"/>
<g>
</g>
<g>
</g>
<g>
</g>
<g>
</g>
<g>
</g>
<g>
</g>
<g>
</g>
<g>
</g>
<g>
</g>
<g>
</g>
<g>
</g>
<g>
</g>
<g>
</g>
<g>
</g>
<g>
</g>
</svg>
