<?xml version="1.0" encoding="iso-8859-1"?>
<!-- Generator: Adobe Illustrator 19.0.0, SVG Export Plug-In . SVG Version: 6.00 Build 0)  -->
<svg xmlns="http://www.w3.org/2000/svg" xmlns:xlink="http://www.w3.org/1999/xlink" version="1.1" id="Layer_1" x="0px" y="0px" viewBox="0 0 513.067 513.067" style="enable-background:new 0 0 513.067 513.067;" xml:space="preserve">
<path style="fill:#F3F3F3;" d="M455.467,347.2H56.533c-18.133,0-32-13.867-32-32V46.4h462.933v268.8  C487.467,333.333,473.6,347.2,455.467,347.2z"/>
<rect x="90.667" y="370.667" style="fill:#F7B64C;" width="66.133" height="68.267"/>
<path style="fill:#66C6B9;" d="M246.4,512.533l-4.267-19.2c-3.2-14.933-12.8-26.667-26.667-33.067l-54.4-26.667l-38.4-4.267  l-38.4,4.267l-54.4,26.667C16,466.667,6.4,479.467,3.2,493.333l-3.2,19.2H246.4z"/>
<g>
	<path style="fill:#FFD15C;" d="M186.667,349.333c-2.133,9.6-8.533,17.067-14.933,16c-5.333-1.067-8.533-9.6-6.4-19.2   c2.133-10.667,8.533-18.133,14.933-17.067C185.6,330.133,188.8,339.733,186.667,349.333z"/>
	<path style="fill:#FFD15C;" d="M60.8,349.333c2.133,9.6,8.533,17.067,14.933,16c5.333-1.067,8.533-9.6,6.4-19.2   C80,335.467,73.6,328,67.2,329.067C60.8,330.133,57.6,339.733,60.8,349.333z"/>
</g>
<path style="fill:#415A6B;" d="M166.4,377.067C149.333,408,123.733,404.8,123.733,404.8s-25.6,3.2-42.667-27.733  S48,264,123.733,260.8C199.467,264,183.467,347.2,166.4,377.067z"/>
<path style="fill:#E8EAE9;" d="M158.933,427.2v-10.667c0-7.467-16-13.867-35.2-13.867s-35.2,6.4-35.2,13.867V427.2H158.933z"/>
<path style="fill:#4EC0AA;" d="M176,441.067c0,0-40.533-9.6-52.267-8.533c-12.8-1.067-53.333,8.533-53.333,8.533  c7.467-11.733,19.2-21.333,32-24.533c7.467-2.133,13.867-3.2,20.267-3.2c6.4,0,12.8,1.067,20.267,3.2  C156.8,419.733,168.533,429.333,176,441.067z"/>
<rect x="356.267" y="370.667" style="fill:#F7B64C;" width="66.133" height="68.267"/>
<path style="fill:#66C6B9;" d="M512,512.533l-4.267-19.2c-3.2-14.933-12.8-26.667-26.667-33.067l-54.4-26.667l-38.4-4.267  l-38.4,4.267l-54.4,26.667c-13.867,6.4-23.467,19.2-26.667,33.067l-3.2,19.2H512z"/>
<g>
	<path style="fill:#FFD15C;" d="M451.2,349.333c-2.133,9.6-8.533,17.067-14.933,16c-5.333-1.067-8.533-9.6-6.4-19.2   C432,335.467,438.4,328,444.8,329.067C451.2,330.133,454.4,339.733,451.2,349.333z"/>
	<path style="fill:#FFD15C;" d="M325.333,349.333c2.133,9.6,8.533,17.067,14.933,16c5.333-1.067,8.533-9.6,6.4-19.2   c-2.133-10.667-8.533-18.133-14.933-17.067C326.4,330.133,323.2,339.733,325.333,349.333z"/>
</g>
<path style="fill:#415A6B;" d="M432,377.067C414.933,408,389.333,404.8,389.333,404.8s-25.6,3.2-42.667-27.733  C329.6,346.133,313.6,264,389.333,260.8C465.067,264,449.067,347.2,432,377.067z"/>
<path style="fill:#E8EAE9;" d="M424.533,427.2v-10.667c0-7.467-16-13.867-35.2-13.867s-35.2,6.4-35.2,13.867V427.2H424.533z"/>
<path style="fill:#4EC0AA;" d="M441.6,441.067c0,0-40.533-9.6-52.267-8.533c-12.8-1.067-53.333,8.533-53.333,8.533  c7.467-11.733,19.2-21.333,32-24.533c7.467-2.133,13.867-3.2,20.267-3.2c6.4,0,12.8,1.067,20.267,3.2  C422.4,419.733,434.133,429.333,441.6,441.067z"/>
<path style="fill:#415A6B;" d="M488.533,0.533H23.467C10.667,0.533,0,11.2,0,24l0,0c0,12.8,10.667,23.467,23.467,23.467H489.6  c12.8,0,23.467-10.667,23.467-23.467l0,0C512,11.2,501.333,0.533,488.533,0.533z"/>
<path style="fill:#F3705A;" d="M139.733,88c-40.533,0-73.6,33.067-73.6,73.6s33.067,73.6,73.6,73.6s73.6-33.067,73.6-73.6h-73.6V88z  "/>
<path style="fill:#FFD15C;" d="M154.667,73.067v73.6h73.6C228.267,106.133,195.2,73.067,154.667,73.067z"/>
<g>
	<rect x="265.6" y="98.667" style="fill:#CED6E0;" width="176" height="23.467"/>
	<rect x="265.6" y="149.867" style="fill:#CED6E0;" width="176" height="23.467"/>
	<rect x="265.6" y="201.067" style="fill:#CED6E0;" width="86.4" height="23.467"/>
</g>
<g>
</g>
<g>
</g>
<g>
</g>
<g>
</g>
<g>
</g>
<g>
</g>
<g>
</g>
<g>
</g>
<g>
</g>
<g>
</g>
<g>
</g>
<g>
</g>
<g>
</g>
<g>
</g>
<g>
</g>
</svg>
