<?xml version="1.0" encoding="iso-8859-1"?>
<!-- Generator: Adobe Illustrator 19.0.0, SVG Export Plug-In . SVG Version: 6.00 Build 0)  -->
<svg xmlns="http://www.w3.org/2000/svg" xmlns:xlink="http://www.w3.org/1999/xlink" version="1.1" id="Layer_1" x="0px" y="0px" viewBox="0 0 512.002 512.002" style="enable-background:new 0 0 512.002 512.002;" xml:space="preserve">
<g>
	<polygon style="fill:#F3E2C2;" points="398.771,1.61 398.771,110.169 411.972,110.169 411.972,14.811  "/>
	<path style="fill:#F3E2C2;" d="M442.68,59.987L398.771,0h-276.98c-3.911,0.394-9.902,2.427-9.902,11.2v197.676h3.554   c0.891,0,1.773,0.026,2.652,0.067c35.9,1.4,64.675,31.027,64.675,67.26v27.237c2.661,3.937,4.117,8.564,4.117,13.383   c0,7.586-3.662,14.805-9.796,19.316l-9.756,7.173c-3.1,15.745-13.561,28.877-27.645,35.645v15.688l49.204,19.732   c12.13,4.1,35.069,20.685,35.069,54.181v43.444h269.891c6.156-0.889,15.085-5.16,15.085-22.461V110.169L442.68,59.987z"/>
</g>
<path style="fill:#FBD7B1;" d="M202.096,414.375l-49.204-19.732v-15.688c14.084-6.768,24.545-19.901,27.645-35.645l9.756-7.173  c6.134-4.511,9.796-11.73,9.796-19.316c0-4.819-1.456-9.446-4.117-13.383v-27.237c0-36.233-28.775-65.859-64.675-67.26  c-0.879-0.04-1.762-0.067-2.652-0.067h-3.554V0h-3.299c-3.911,0.394-9.902,2.427-9.902,11.2v197.676h3.554  c0.891,0,1.773,0.026,2.652,0.067c35.9,1.4,64.675,31.027,64.675,67.26v27.237c2.661,3.937,4.117,8.564,4.117,13.383  c0,7.586-9.856,10.898-15.99,15.41l-3.562,11.079c-3.1,15.745-13.561,28.877-27.645,35.645v15.688l49.204,19.732  c12.13,4.1,35.069,20.685,35.069,54.181l-7.53,43.444h20.73v-43.445C237.165,435.059,214.228,418.475,202.096,414.375z"/>
<g>
	<path style="fill:#FFFFFF;" d="M341.17,151.901H210.974c-4.558,0-8.25-3.693-8.25-8.25s3.693-8.25,8.25-8.25H341.17   c4.558,0,8.25,3.693,8.25,8.25C349.421,148.208,345.728,151.901,341.17,151.901z"/>
	<path style="fill:#FFFFFF;" d="M407.657,208.446H210.974c-4.558,0-8.25-3.693-8.25-8.25s3.693-8.25,8.25-8.25h196.684   c4.558,0,8.25,3.693,8.25,8.25C415.908,204.754,412.214,208.446,407.657,208.446z"/>
	<path style="fill:#FFFFFF;" d="M407.657,264.993H210.974c-4.558,0-8.25-3.693-8.25-8.25c0-4.558,3.693-8.25,8.25-8.25h196.684   c4.558,0,8.25,3.693,8.25,8.25C415.908,261.299,412.214,264.993,407.657,264.993z"/>
	<path style="fill:#FFFFFF;" d="M407.657,321.54H210.974c-4.558,0-8.25-3.693-8.25-8.25c0-4.556,3.693-8.25,8.25-8.25h196.684   c4.558,0,8.25,3.694,8.25,8.25C415.908,317.848,412.214,321.54,407.657,321.54z"/>
	<path style="fill:#FFFFFF;" d="M407.657,378.086H210.974c-4.558,0-8.25-3.694-8.25-8.25c0-4.558,3.693-8.25,8.25-8.25h196.684   c4.558,0,8.25,3.693,8.25,8.25C415.908,374.394,412.214,378.086,407.657,378.086z"/>
</g>
<path style="fill:#6598CB;" d="M227.172,468.404c0-0.906-0.023-1.792-0.056-2.678c-0.007-0.123-0.004-0.251-0.013-0.375  c-0.015-0.447-0.054-0.884-0.081-1.327c-0.034-0.562-0.06-1.13-0.107-1.684c-0.022-0.231-0.055-0.457-0.074-0.685  c-0.074-0.757-0.151-1.51-0.25-2.245c-0.004-0.063-0.018-0.124-0.027-0.187c-2.019-15.1-8.894-26.131-16.623-33.644  c-0.035-0.039-0.07-0.072-0.108-0.108c-0.406-0.391-0.809-0.776-1.218-1.147c-0.202-0.188-0.406-0.363-0.611-0.541  c-0.235-0.212-0.474-0.426-0.711-0.627c-0.391-0.34-0.784-0.664-1.178-0.985c-0.043-0.036-0.086-0.072-0.132-0.107  c-4.957-4.009-9.918-6.617-13.81-7.963c-0.014-0.004-0.031-0.014-0.051-0.018l-0.101-0.037c-0.011-0.002-0.023-0.008-0.039-0.013  l-51.064-20.473l-12.756,13.239l-13.046,12.708l-13.047-12.708L89.316,393.56l-51.067,20.473c-0.01,0.005-0.025,0.011-0.036,0.013  l-0.103,0.037c-0.014,0.003-0.034,0.013-0.048,0.018c-3.893,1.348-8.853,3.956-13.814,7.963c-0.041,0.034-0.088,0.069-0.124,0.107  c-0.394,0.319-0.791,0.645-1.181,0.985c-0.239,0.202-0.477,0.415-0.711,0.627c-0.207,0.178-0.408,0.353-0.611,0.541  c-0.41,0.372-0.812,0.757-1.22,1.147c-0.036,0.035-0.069,0.069-0.109,0.108c-7.726,7.513-14.601,18.544-16.622,33.644  c-0.01,0.063-0.02,0.124-0.03,0.187c-0.097,0.735-0.171,1.488-0.245,2.245c-0.02,0.229-0.054,0.454-0.072,0.685  c-0.05,0.554-0.077,1.123-0.11,1.684c-0.028,0.442-0.067,0.88-0.085,1.327c-0.006,0.123-0.003,0.251-0.009,0.375  c-0.033,0.886-0.057,1.77-0.057,2.677v8.116h0.002v24.803C3.395,505.194,5.398,512,15.41,512h12.202h175.011h12.204  c10.008,0,12.008-6.807,12.346-10.677V476.52l0,0v-8.116H227.172z"/>
<path style="fill:#4982AA;" d="M89.068,394.134l-50.8,19.896l-0.16,0.055c-13.014,4.643-35.045,21.309-35.045,54.319v32.919  C3.394,505.194,5.397,512,15.409,512h2.571v-43.596c0-33.01,22.033-49.676,35.048-54.319l0.156-0.055l40.155-15.725L89.068,394.134z  "/>
<path style="fill:#694B4B;" d="M117.746,207.823h-5.506c-37.601,0-68.188,30.592-68.188,68.19v9.096v8.512v14.383  c0,0,15.524-1.54,17.433-9.069l-0.01-0.007c0.657-0.712,1.205-1.528,1.593-2.432c8.807-0.267,49.941-0.587,73.436-28.959  c2.803,8.2,12.286,23.729,30.536,28.62c0.372,0.99,0.935,1.882,1.614,2.656l-0.151,0.122c1.909,7.529,17.436,9.069,17.436,9.069  v-14.44v-8.455v-9.096C185.938,238.414,155.344,207.823,117.746,207.823z M169.158,294.039l0.658-0.475h0.09l-1.068,0.791  L169.158,294.039z M168.824,294.242l0.073-0.229l0.232-0.449h0.09l-0.271,0.563L168.824,294.242z M167.017,295.643l-0.025-0.035  l1.68-1.217l-0.397,0.384l-1.229,0.909L167.017,295.643z M168.403,295.248l-0.527,1.089c-0.006-0.002-0.006-0.002-0.009-0.002  l-0.074-0.035c-0.011-0.004-0.025-0.014-0.036-0.022l0.861-1.704l0.023-0.022L168.403,295.248z"/>
<path style="fill:#563B3B;" d="M56.07,293.621v-8.512v-9.096c0-36.508,28.842-66.4,64.934-68.107  c-1.081-0.052-2.167-0.083-3.259-0.083h-5.506c-37.601,0-68.188,30.592-68.188,68.19v9.096v8.512v14.383  c0,0,6.859-0.683,12.019-3.351C56.07,304.654,56.07,293.621,56.07,293.621z"/>
<path style="fill:#FBCB99;" d="M177.748,298.118c-2.609-0.813-5.443-0.339-7.644,1.276c-2.197,1.621-3.498,4.189-3.498,6.919v24.467  c0,2.728,1.297,5.296,3.498,6.913c1.493,1.099,3.28,1.671,5.088,1.671c0.857,0,1.719-0.126,2.552-0.389  c1.646-0.513,3.267-1.251,4.808-2.198c0.904-0.557,1.704-1.279,2.346-2.127c0.947-0.488,1.799-1.148,2.502-1.947  c3.468-3.921,5.383-8.949,5.383-14.16C192.782,309.131,186.741,300.921,177.748,298.118z"/>
<path style="fill:#EDBA89;" d="M60.133,299.394c-2.198-1.615-5.036-2.089-7.642-1.277c-8.99,2.804-15.033,11.014-15.033,20.427  c0,9.42,6.044,17.627,15.033,20.431c0.836,0.262,1.697,0.389,2.557,0.389c1.808,0,3.593-0.572,5.086-1.671  c2.202-1.618,3.5-4.185,3.5-6.913v-24.468C63.632,303.583,62.335,301.016,60.133,299.394z"/>
<path style="fill:#FBCB99;" d="M138.561,373.43c-1.687-1.615-3.951-2.461-6.305-2.375l-0.295,0.015  c-0.523,0.018-1.044,0.083-1.553,0.197c-3.32,0.737-6.697,1.112-10.038,1.112h-10.496c-3.444,0-6.918-0.394-10.337-1.176  c-2.552-0.59-5.226,0.019-7.267,1.648c-2.045,1.63-3.237,4.103-3.237,6.716v24.976l-0.004,0.084  c-0.138,2.478,0.805,4.894,2.58,6.626l17.254,16.802c1.605,1.564,3.753,2.432,5.99,2.432c0.045,0,0.091,0,0.138,0  c2.284-0.039,4.46-0.981,6.044-2.628l17.772-18.45c1.542-1.598,2.403-3.732,2.403-5.951v-23.822  C141.205,377.291,140.252,375.05,138.561,373.43z"/>
<path style="fill:#EDBA89;" d="M116.585,425.476l-17.251-16.801c-1.779-1.73-2.718-4.147-2.583-6.626l0.01-0.084V376.99  c0-2.196,0.847-4.286,2.331-5.867c-2.417-0.419-4.897,0.198-6.825,1.727c-2.045,1.63-3.237,4.103-3.237,6.716v24.976l-0.004,0.084  c-0.138,2.478,0.805,4.894,2.58,6.626l17.254,16.802c1.605,1.564,3.753,2.432,5.99,2.432c0.045,0,0.091,0,0.138,0  c2.284-0.039,4.46-0.981,6.044-2.628l0.075-0.08C119.417,427.484,117.834,426.692,116.585,425.476z"/>
<path style="fill:#FBCB99;" d="M165.312,291.111c-1.038-0.387-2.019-0.837-2.975-1.318c-14.427-6.731-20.415-15.485-22.825-20.711  c-0.146-0.197-0.287-0.413-0.436-0.686c-1.726-3.17-4.412-1.164-4.412-1.164l-0.009-0.007  c-13.475,10.335-28.19,16.378-40.426,19.893c-4.761,1.407-9.324,2.426-13.45,3.165c-8.2,1.505-13.473,1.702-13.473,1.702  c-4.489,0.326-7.969,4.062-7.969,8.566v35.034c0,27.864,22.668,50.532,50.534,50.532h10.496c27.86,0,50.532-22.668,50.532-50.532  v-36.43C170.9,295.569,168.672,292.363,165.312,291.111z"/>
<path style="fill:#EDBA89;" d="M69.641,335.586v-35.034c0-4.504,3.477-8.24,7.967-8.566c0,0,5.275-0.197,13.473-1.702  c4.13-0.739,8.688-1.758,13.457-3.165c10.823-3.113,23.596-8.209,35.733-16.507c-0.284-0.534-0.536-1.044-0.76-1.53  c-0.146-0.197-0.287-0.413-0.436-0.686c-1.726-3.17-4.412-1.164-4.412-1.164l-0.009-0.007  c-13.475,10.335-28.19,16.378-40.426,19.893c-4.761,1.407-9.324,2.426-13.45,3.165c-8.2,1.505-13.473,1.702-13.473,1.702  c-4.489,0.326-7.969,4.062-7.969,8.566v35.034c0,27.864,22.668,50.532,50.534,50.532h10.295  C92.311,386.117,69.641,363.45,69.641,335.586z"/>
<path style="fill:#F7971D;" d="M422.879,110.169h84.451L398.771,1.61v87.309C398.84,92.256,400.265,110.169,422.879,110.169z"/>
<g>
</g>
<g>
</g>
<g>
</g>
<g>
</g>
<g>
</g>
<g>
</g>
<g>
</g>
<g>
</g>
<g>
</g>
<g>
</g>
<g>
</g>
<g>
</g>
<g>
</g>
<g>
</g>
<g>
</g>
</svg>
