<?xml version="1.0" encoding="iso-8859-1"?>
<!-- Generator: Adobe Illustrator 19.0.0, SVG Export Plug-In . SVG Version: 6.00 Build 0)  -->
<svg xmlns="http://www.w3.org/2000/svg" xmlns:xlink="http://www.w3.org/1999/xlink" version="1.1" id="Layer_1" x="0px" y="0px" viewBox="0 0 512 512" style="enable-background:new 0 0 512 512;" xml:space="preserve">
<path style="fill:#CED6E0;" d="M509.867,291.2h-88.533v177.067c0,24.533,19.2,43.733,43.733,43.733l0,0  c24.533,0,43.733-19.2,43.733-43.733V291.2H509.867z"/>
<path style="fill:#F3F3F3;" d="M421.333,468.267V291.2V43.733C421.333,19.2,402.133,0,377.6,0H45.867  C22.4,0,2.133,19.2,2.133,43.733V467.2c0,24.533,19.2,43.733,43.733,43.733h419.2C441.6,512,421.333,492.8,421.333,468.267z"/>
<g>
	<rect x="44.8" y="445.867" style="fill:#CED6E0;" width="333.867" height="23.467"/>
	<rect x="44.8" y="382.933" style="fill:#CED6E0;" width="333.867" height="23.467"/>
	<rect x="44.8" y="318.933" style="fill:#CED6E0;" width="333.867" height="23.467"/>
</g>
<path style="fill:#F3705A;" d="M296.533,228.267h-169.6l0,0c16-24.533,24.533-53.333,24.533-82.133V102.4  c0-33.067,26.667-59.733,59.733-59.733l0,0c33.067,0,59.733,26.667,59.733,59.733v43.733  C272,174.933,280.533,203.733,296.533,228.267L296.533,228.267z"/>
<polygon style="fill:#CED6E0;" points="228.267,264.533 249.6,198.4 212.267,198.4 152.533,234.667 173.867,264.533 "/>
<g>
	<polygon style="fill:#F3F3F3;" points="241.067,174.933 212.267,198.4 236.8,227.2 249.6,193.067  "/>
	<polygon style="fill:#F3F3F3;" points="182.4,174.933 173.867,193.067 187.733,227.2 212.267,198.4  "/>
</g>
<path style="fill:#344A5E;" d="M320,264.533L320,264.533c-2.133-29.867-22.4-56.533-51.2-65.067l-7.467-2.133L233.6,265.6H320  V264.533z"/>
<polygon style="fill:#415A6B;" points="247.467,264.533 276.267,222.933 261.333,212.267 274.133,210.133 243.2,179.2 224,264.533   "/>
<path style="fill:#344A5E;" d="M189.867,264.533l-27.733-68.267l-7.467,2.133c-28.8,8.533-49.067,35.2-51.2,65.067l0,0h86.4V264.533  z"/>
<polygon style="fill:#415A6B;" points="176,264.533 199.467,264.533 180.267,179.2 149.333,210.133 162.133,212.267 147.2,222.933   "/>
<polygon style="fill:#F7B64C;" points="241.067,150.4 212.267,126.933 182.4,150.4 182.4,174.933 212.267,198.4 241.067,174.933 "/>
<g>
	<path style="fill:#FFD15C;" d="M262.4,130.133c-2.133,9.6-7.467,16-12.8,14.933s-7.467-9.6-5.333-18.133   c2.133-9.6,7.467-16,12.8-14.933C262.4,112,264.533,120.533,262.4,130.133z"/>
	<path style="fill:#FFD15C;" d="M161.067,130.133c2.133,9.6,7.467,16,12.8,14.933s7.467-9.6,5.333-18.133   c-2.133-9.6-7.467-16-12.8-14.933C161.067,112,158.933,120.533,161.067,130.133z"/>
	<path style="fill:#FFD15C;" d="M256,112c0,38.4-20.267,70.4-44.8,70.4s-44.8-30.933-44.8-70.4c0-1.067,0-9.6,0-10.667l0,0   c2.133,0,41.6-4.267,53.333-23.467c10.667,8.533,18.133,13.867,34.133,16c0,2.133,0,11.733,1.067,13.867   C256,108.8,256,110.933,256,112z"/>
</g>
<g>
</g>
<g>
</g>
<g>
</g>
<g>
</g>
<g>
</g>
<g>
</g>
<g>
</g>
<g>
</g>
<g>
</g>
<g>
</g>
<g>
</g>
<g>
</g>
<g>
</g>
<g>
</g>
<g>
</g>
</svg>
