<?xml version="1.0" encoding="iso-8859-1"?>
<!-- Generator: Adobe Illustrator 19.0.0, SVG Export Plug-In . SVG Version: 6.00 Build 0)  -->
<svg xmlns="http://www.w3.org/2000/svg" xmlns:xlink="http://www.w3.org/1999/xlink" version="1.1" id="Layer_1" x="0px" y="0px" viewBox="0 0 491.52 491.52" style="enable-background:new 0 0 491.52 491.52;" xml:space="preserve">
<path style="fill:#E1E6E9;" d="M30.201,146.868v94.37c0,119.05,96.508,215.561,215.559,215.561s215.559-96.511,215.559-215.561  v-94.37H30.201z"/>
<g>
	<path style="fill:#3A556A;" d="M476.833,180.946H14.687C6.576,180.946,0,174.37,0,166.259V49.408   c0-8.111,6.576-14.687,14.687-14.687h462.146c8.111,0,14.687,6.576,14.687,14.687v116.851   C491.52,174.37,484.944,180.946,476.833,180.946z"/>
	<circle style="fill:#3A556A;" cx="245.76" cy="315.648" r="69.914"/>
</g>
<circle style="fill:#64798A;" cx="245.76" cy="315.648" r="57.82"/>
<circle style="fill:#27A2DB;" cx="245.76" cy="315.648" r="32.799"/>
<g>
	
		<ellipse transform="matrix(-0.7071 -0.7071 0.7071 -0.7071 248.3062 696.6923)" style="fill:#FFFFFF;" cx="268.443" cy="296.92" rx="15.985" ry="8.489"/>
	
		<ellipse transform="matrix(-0.7071 -0.7071 0.7071 -0.7071 141.6172 723.0966)" style="fill:#FFFFFF;" cx="220.567" cy="332.218" rx="8.786" ry="8.489"/>
</g>
<g>
</g>
<g>
</g>
<g>
</g>
<g>
</g>
<g>
</g>
<g>
</g>
<g>
</g>
<g>
</g>
<g>
</g>
<g>
</g>
<g>
</g>
<g>
</g>
<g>
</g>
<g>
</g>
<g>
</g>
</svg>
