<?xml version="1.0" encoding="iso-8859-1"?>
<!-- Generator: Adobe Illustrator 19.0.0, SVG Export Plug-In . SVG Version: 6.00 Build 0)  -->
<svg xmlns="http://www.w3.org/2000/svg" xmlns:xlink="http://www.w3.org/1999/xlink" version="1.1" id="Layer_1" x="0px" y="0px" viewBox="0 0 514.133 514.133" style="enable-background:new 0 0 514.133 514.133;" xml:space="preserve">
<path style="fill:#8AD7F8;" d="M273.067,398.4v-41.6l-32-10.667c-2.133-7.467-5.333-13.867-8.533-21.333l14.933-29.867l-28.8-28.8  L188.8,281.067c-6.4-3.2-13.867-6.4-21.333-8.533l-9.6-32h-41.6l-10.667,32c-7.467,2.133-13.867,5.333-21.333,8.533L54.4,266.133  l-28.8,28.8L40.533,324.8c-3.2,6.4-6.4,13.867-8.533,20.267l-32,9.6v41.6l32,10.667c2.133,7.467,5.333,13.867,8.533,21.333  L25.6,458.133l28.8,28.8L84.267,472c6.4,3.2,13.867,6.4,20.267,8.533l9.6,32h41.6l10.667-32c7.467-2.133,13.867-5.333,20.267-8.533  l29.867,14.933l28.8-28.8L230.4,428.267c3.2-6.4,6.4-13.867,8.533-21.333L273.067,398.4z M137.6,425.067  c-25.6,0-46.933-21.333-46.933-46.933c0-25.6,21.333-46.933,46.933-46.933s46.933,21.333,46.933,46.933  C184.533,403.733,164.267,425.067,137.6,425.067z"/>
<path style="fill:#55C0EB;" d="M137.6,304.533c-40.533,0-73.6,33.067-73.6,73.6s33.067,73.6,73.6,73.6s73.6-33.067,73.6-73.6  S178.133,304.533,137.6,304.533z M137.6,425.067c-25.6,0-46.933-21.333-46.933-46.933c0-25.6,21.333-46.933,46.933-46.933  s46.933,21.333,46.933,46.933C184.533,403.733,164.267,425.067,137.6,425.067z"/>
<path style="fill:#F3705A;" d="M494.933,246.933l19.2-45.867L483.2,174.4c1.067-9.6,1.067-18.133,0-26.667l30.933-25.6l-19.2-45.867  l-40.533,3.2c-5.333-7.467-11.733-13.867-19.2-19.2l4.267-39.467L393.6,1.6l-26.667,30.933c-9.6-1.067-18.133-1.067-26.667,0  L314.667,1.6L268.8,20.8l3.2,40.533c-7.467,5.333-13.867,11.733-19.2,19.2l-40.533-4.267l-19.2,45.867L224,148.8  c-1.067,9.6-1.067,18.133,0,26.667l-30.933,25.6l19.2,45.867l40.533-3.2c5.333,7.467,11.733,13.867,19.2,19.2l-3.2,40.533  l45.867,19.2l26.667-30.933c9.6,1.067,18.133,1.067,26.667,0l25.6,30.933l45.867-19.2l-3.2-40.533  c7.467-5.333,13.867-11.733,19.2-19.2L494.933,246.933z M338.133,200c-21.333-8.533-30.933-33.067-22.4-53.333  c8.533-21.333,33.067-30.933,53.333-22.4C390.4,132.8,400,157.333,391.467,177.6C382.933,198.933,359.467,208.533,338.133,200z"/>
<path style="fill:#FFD15C;" d="M380.8,97.6c-36.267-14.933-76.8,2.133-91.733,38.4c-14.933,36.267,2.133,76.8,38.4,91.733  s76.8-2.133,91.733-38.4C433.067,153.067,416,111.467,380.8,97.6z M338.133,200c-21.333-8.533-30.933-33.067-22.4-53.333  c8.533-21.333,33.067-30.933,53.333-22.4C390.4,132.8,400,157.333,391.467,177.6C382.933,198.933,359.467,208.533,338.133,200z"/>
<g>
</g>
<g>
</g>
<g>
</g>
<g>
</g>
<g>
</g>
<g>
</g>
<g>
</g>
<g>
</g>
<g>
</g>
<g>
</g>
<g>
</g>
<g>
</g>
<g>
</g>
<g>
</g>
<g>
</g>
</svg>
