<?xml version="1.0" encoding="iso-8859-1"?>
<!-- Generator: Adobe Illustrator 19.0.0, SVG Export Plug-In . SVG Version: 6.00 Build 0)  -->
<svg xmlns="http://www.w3.org/2000/svg" xmlns:xlink="http://www.w3.org/1999/xlink" version="1.1" id="Layer_1" x="0px" y="0px" viewBox="0 0 491.525 491.525" style="enable-background:new 0 0 491.525 491.525;" xml:space="preserve">
<g>
	<path style="fill:#DC8744;" d="M349.997,404.197v5.169c0,1.004-0.31,1.983-0.887,2.805l-6.601,9.386   c-1.203,1.711-1.181,3.999,0.055,5.686l2.047,2.794c0.87,1.188,2.232,1.919,3.703,1.989l10.422,0.493   c1.271,0.06,2.516-0.379,3.468-1.224l5.465-4.851c1.016-0.902,1.609-2.186,1.638-3.544l0.479-22.887L349.997,404.197z"/>
	<path style="fill:#DC8744;" d="M421.642,404.197v5.169c0,1.004,0.31,1.983,0.887,2.805l6.601,9.386   c1.203,1.711,1.181,3.999-0.055,5.686l-2.047,2.794c-0.87,1.188-2.232,1.919-3.703,1.989l-10.422,0.493   c-1.271,0.06-2.516-0.379-3.468-1.224l-5.465-4.851c-1.016-0.902-1.609-2.186-1.638-3.544l-0.479-22.887L421.642,404.197z"/>
</g>
<path style="fill:#2F4859;" d="M346.26,267.588l-2.439,134.408c0,0,14.046,4.816,29.697,0l9.094-119.374  c0.077-1.224,1.092-2.178,2.319-2.178c1.247,0,2.271,0.984,2.321,2.23l5.93,121.463c0,0,14.151,4.147,32.559,0l0.674-136.548H346.26  z"/>
<polygon style="fill:#EBF0F3;" points="376.787,107.686 370.621,116.776 383.998,187.991 393.854,155.828 405.471,122.79   406.143,114.597 401.416,107.686 "/>
<rect x="376.732" y="98.57" style="fill:#F6C358;" width="24.699" height="21.396"/>
<g>
	
		<ellipse transform="matrix(-0.9555 -0.2951 0.2951 -0.9555 775.116 282.4887)" style="fill:#FCD462;" cx="408.872" cy="82.76" rx="4.47" ry="7.183"/>
	
		<ellipse transform="matrix(-0.2951 -0.9555 0.9555 -0.2951 399.2231 460.0137)" style="fill:#FCD462;" cx="369.302" cy="82.741" rx="7.183" ry="4.47"/>
	<path style="fill:#FCD462;" d="M409.043,69.804V55.69h-40.069v14.317h0.14c-0.343,1.688-0.542,3.528-0.542,5.568   c0,14.528,9.191,32.726,20.529,32.726c11.338,0,20.529-18.198,20.529-32.726C409.631,73.451,409.413,71.547,409.043,69.804z"/>
</g>
<path style="fill:#64798A;" d="M411.866,58.574c0,0-3.953-11.562-22.764-10.332c-18.811-1.23-22.764,10.332-22.764,10.332  c-0.984,5.658,3.075,21.28,3.075,21.28h0.812v-15.05c0-1.792,0.479-3.586,1.553-5.02c2.721-3.631,5.865-1.209,5.865-1.209  c5.278,5.412,11.459,4.797,11.459,4.797s6.181,0.615,11.459-4.797c0,0,3.144-2.422,5.865,1.209c1.074,1.434,1.553,3.228,1.553,5.02  v15.05h0.812C408.791,79.854,412.85,64.232,411.866,58.574z"/>
<polygon style="fill:#E56353;" points="384.735,119.966 381.524,124.839 384.735,129.712 393.468,129.712 396.679,124.839   393.468,119.966 "/>
<g>
	<polygon style="fill:#E1E6E9;" points="372.06,114.597 376.787,107.686 386.463,119.935 378.659,133.608  "/>
	<polygon style="fill:#E1E6E9;" points="407.456,114.087 401.416,107.686 391.74,119.935 398.603,131.959  "/>
</g>
<polygon style="fill:#D15241;" points="393.468,129.712 389.102,129.712 384.735,129.712 380.488,163.03 387.696,177.348   397.715,163.03 "/>
<path style="fill:#FCD462;" d="M450.344,260.76l14.139-1.033c0,0,8.78,9.106,5.531,18.907c0,0-0.827,4.359-6.16,8.056  c-1.467,1.017-3.631-0.061-3.374-1.688c0.735-4.67,1.105-12.13-3.284-14.857c0,0-2.195-1.698-2.546,1.466l-0.164,6.237  c0.135,1.362-1.087,2.534-2.642,2.534c-1.526,0-2.737-1.129-2.648-2.468L450.344,260.76z"/>
<path style="fill:#3A556A;" d="M386.273,180.24v93.581c0,0,40.298-0.401,47.832-4.214l-10.045-91.564h5.936l15.067,82.735  l23.057,0.201c0,0-12.099-102.698-18.948-114.154c0,0-6.392-17.275-21.975-22.292l-19.74-10.446l-17.868,50.089L386.273,180.24z"/>
<g>
	<path style="fill:#2F4859;" d="M407.456,114.087c0,0-25.417,46.415-20.569,67.368c0,0,11.919-34.803,25.253-46.167   c0,0-2.928-2.299-7.475-3.551c0,0,8.655-2.95,10.676-4.903C415.341,126.832,413.015,117.283,407.456,114.087z"/>
	<polygon style="fill:#2F4859;" points="430.828,235.108 414.115,239.742 416.627,246.364 431.39,240.089  "/>
</g>
<path style="fill:#FCD462;" d="M323.236,260.82l-14.139-1.033c0,0-8.78,9.106-5.531,18.907c0,0,0.827,4.359,6.16,8.056  c1.467,1.017,3.631-0.061,3.374-1.688c-0.735-4.67-1.105-12.13,3.284-14.857c0,0,2.195-1.698,2.546,1.466l0.164,6.237  c-0.135,1.362,1.087,2.534,2.642,2.534c1.526,0,2.737-1.129,2.648-2.468L323.236,260.82z"/>
<path style="fill:#64798A;" d="M386.79,180.24v93.581c0,0-40.298-0.401-47.832-4.214l10.045-91.564h-5.936L328,260.778  l-23.057,0.201c0,0,12.099-102.698,18.948-114.154c0,0,6.392-17.275,21.975-22.292l25.637-9.936l11.971,49.579L386.79,180.24z"/>
<g>
	<path style="fill:#3A556A;" d="M371.504,114.597c0,0,20.135,45.653,15.286,66.606c0,0-12.222-36.952-25.555-48.316   c0,0,2.928-2.299,7.475-3.551c0,0-6.263-2.131-8.283-4.084C360.427,125.251,365.945,117.793,371.504,114.597z"/>
	<polygon style="fill:#3A556A;" points="342.752,235.167 359.465,239.802 356.953,246.423 342.19,240.149  "/>
</g>
<g>
	<path style="fill:#DC8744;" d="M67.942,404.197v5.169c0,1.004-0.31,1.983-0.887,2.805l-6.601,9.386   c-1.203,1.711-1.181,3.999,0.055,5.686l2.047,2.794c0.87,1.188,2.232,1.919,3.703,1.989l10.422,0.493   c1.271,0.06,2.516-0.379,3.468-1.224l5.465-4.851c1.016-0.902,1.609-2.186,1.638-3.544l0.479-22.887L67.942,404.197z"/>
	<path style="fill:#DC8744;" d="M139.587,404.197v5.169c0,1.004,0.31,1.983,0.887,2.805l6.601,9.386   c1.203,1.711,1.181,3.999-0.055,5.686l-2.047,2.794c-0.87,1.188-2.232,1.919-3.703,1.989l-10.422,0.493   c-1.271,0.06-2.516-0.379-3.468-1.224l-5.465-4.851c-1.016-0.902-1.609-2.186-1.638-3.544l-0.479-22.887L139.587,404.197z"/>
</g>
<path style="fill:#2F4859;" d="M64.205,267.588l-2.439,134.408c0,0,14.046,4.816,29.697,0l9.094-119.374  c0.077-1.224,1.092-2.178,2.319-2.178c1.247,0,2.271,0.984,2.321,2.23l5.93,121.463c0,0,14.151,4.147,32.559,0l0.674-136.548H64.205  z"/>
<polygon style="fill:#EBF0F3;" points="94.732,107.686 88.566,116.776 101.944,187.991 111.799,155.828 123.416,122.79   124.088,114.597 119.361,107.686 "/>
<rect x="94.697" y="98.57" style="fill:#F6C358;" width="24.699" height="21.396"/>
<g>
	
		<ellipse transform="matrix(-0.9555 -0.2951 0.2951 -0.9555 223.602 199.1911)" style="fill:#FCD462;" cx="126.83" cy="82.724" rx="4.47" ry="7.183"/>
	
		<ellipse transform="matrix(-0.2951 -0.9555 0.9555 -0.2951 33.9325 190.5107)" style="fill:#FCD462;" cx="87.242" cy="82.738" rx="7.183" ry="4.47"/>
	<path style="fill:#FCD462;" d="M126.988,69.804V55.69H86.919v14.317h0.14c-0.343,1.688-0.542,3.528-0.542,5.568   c0,14.528,9.191,32.726,20.529,32.726s20.529-18.198,20.529-32.726C127.576,73.451,127.358,71.547,126.988,69.804z"/>
</g>
<path style="fill:#64798A;" d="M129.811,58.574c0,0-3.953-11.562-22.764-10.332c-18.811-1.23-22.764,10.332-22.764,10.332  c-0.984,5.658,3.075,21.28,3.075,21.28h0.812v-15.05c0-1.792,0.479-3.586,1.553-5.02c2.721-3.631,5.865-1.209,5.865-1.209  c5.278,5.412,11.459,4.797,11.459,4.797s6.181,0.615,11.459-4.797c0,0,3.144-2.422,5.865,1.209c1.074,1.434,1.553,3.228,1.553,5.02  v15.05h0.812C126.736,79.854,130.795,64.232,129.811,58.574z"/>
<polygon style="fill:#E56353;" points="102.68,119.966 99.47,124.839 102.68,129.712 111.413,129.712 114.624,124.839   111.413,119.966 "/>
<g>
	<polygon style="fill:#E1E6E9;" points="90.005,114.597 94.732,107.686 104.408,119.935 96.604,133.608  "/>
	<polygon style="fill:#E1E6E9;" points="125.401,114.087 119.361,107.686 109.685,119.935 116.548,131.959  "/>
</g>
<polygon style="fill:#D15241;" points="111.413,129.712 107.047,129.712 102.68,129.712 98.433,163.03 105.641,177.348   115.66,163.03 "/>
<path style="fill:#FCD462;" d="M168.289,260.76l14.139-1.033c0,0,8.78,9.106,5.531,18.907c0,0-0.827,4.359-6.16,8.056  c-1.467,1.017-3.631-0.061-3.374-1.688c0.735-4.67,1.105-12.13-3.284-14.857c0,0-2.195-1.698-2.546,1.466l-0.164,6.237  c0.135,1.362-1.087,2.534-2.642,2.534c-1.526,0-2.737-1.129-2.648-2.468L168.289,260.76z"/>
<path style="fill:#3A556A;" d="M104.218,180.24v93.581c0,0,40.298-0.401,47.832-4.214l-10.045-91.564h5.936l15.067,82.735  l23.057,0.201c0,0-12.099-102.698-18.948-114.154c0,0-6.392-17.275-21.975-22.292l-19.74-10.446l-17.868,50.089L104.218,180.24z"/>
<g>
	<path style="fill:#2F4859;" d="M125.401,114.087c0,0-25.417,46.415-20.569,67.368c0,0,11.919-34.803,25.252-46.167   c0,0-2.928-2.299-7.475-3.551c0,0,8.655-2.95,10.676-4.903C133.286,126.832,130.96,117.283,125.401,114.087z"/>
	<polygon style="fill:#2F4859;" points="148.773,235.108 132.061,239.742 134.572,246.364 149.335,240.089  "/>
</g>
<path style="fill:#FCD462;" d="M41.181,260.82l-14.139-1.033c0,0-8.78,9.106-5.531,18.907c0,0,0.827,4.359,6.16,8.056  c1.467,1.017,3.631-0.061,3.374-1.688c-0.735-4.67-1.105-12.13,3.284-14.857c0,0,2.195-1.698,2.546,1.466l0.164,6.237  c-0.135,1.362,1.087,2.534,2.642,2.534c1.526,0,2.737-1.129,2.648-2.468L41.181,260.82z"/>
<path style="fill:#64798A;" d="M104.735,180.24v93.581c0,0-40.298-0.401-47.832-4.214l10.045-91.564h-5.936l-15.067,82.735  l-23.057,0.201c0,0,12.099-102.698,18.948-114.154c0,0,6.392-17.275,21.975-22.292l25.637-9.936l11.971,49.579L104.735,180.24z"/>
<g>
	<path style="fill:#3A556A;" d="M89.449,114.597c0,0,20.135,45.653,15.286,66.606c0,0-12.222-36.952-25.555-48.316   c0,0,2.928-2.299,7.475-3.551c0,0-6.263-2.131-8.283-4.084C78.372,125.251,83.89,117.793,89.449,114.597z"/>
	<polygon style="fill:#3A556A;" points="60.697,235.167 77.41,239.802 74.899,246.423 60.135,240.149  "/>
</g>
<g>
	<path style="fill:#DC8744;" d="M205.57,388.946v5.647c0,1.097-0.338,2.167-0.969,3.064l-7.211,10.254   c-1.314,1.869-1.29,4.368,0.06,6.211l2.236,3.053c0.951,1.298,2.438,2.097,4.045,2.173l11.385,0.539   c1.389,0.066,2.748-0.414,3.788-1.337l5.97-5.3c1.11-0.985,1.758-2.388,1.789-3.872l0.523-25.002L205.57,388.946z"/>
	<path style="fill:#DC8744;" d="M283.835,388.946v5.647c0,1.097,0.338,2.167,0.969,3.064l7.211,10.254   c1.314,1.869,1.29,4.368-0.06,6.211l-2.236,3.053c-0.951,1.298-2.438,2.097-4.045,2.173l-11.385,0.539   c-1.389,0.066-2.748-0.414-3.788-1.337l-5.97-5.3c-1.11-0.985-1.758-2.388-1.789-3.872l-0.523-25.002L283.835,388.946z"/>
</g>
<path style="fill:#2F4859;" d="M201.488,239.714l-2.665,146.827c0,0,15.344,5.261,32.441,0l9.934-130.405  c0.084-1.338,1.193-2.38,2.533-2.38c1.362,0,2.481,1.075,2.536,2.436l6.478,132.686c0,0,15.459,4.53,35.567,0l0.736-149.165H201.488  z"/>
<polygon style="fill:#EBF0F3;" points="234.835,65.038 228.099,74.967 242.713,152.763 253.479,117.627 266.169,81.537   266.904,72.587 261.74,65.038 "/>
<rect x="234.796" y="55.081" style="fill:#F6C358;" width="26.982" height="23.373"/>
<g>
	
		<ellipse transform="matrix(-0.9555 -0.2951 0.2951 -0.9555 516.6487 153.5706)" style="fill:#FCD462;" cx="269.912" cy="37.803" rx="4.879" ry="7.844"/>
	
		<ellipse transform="matrix(-0.2951 -0.9555 0.9555 -0.2951 257.4447 265.5183)" style="fill:#FCD462;" cx="226.667" cy="37.793" rx="7.844" ry="4.879"/>
	<path style="fill:#FCD462;" d="M270.071,23.655V8.236H226.3v15.639h0.153c-0.374,1.844-0.592,3.854-0.592,6.082   c0,15.87,10.041,35.75,22.426,35.75s22.426-19.88,22.426-35.75C270.714,27.639,270.476,25.559,270.071,23.655z"/>
</g>
<path style="fill:#64798A;" d="M273.155,11.387c0,0-4.318-12.631-24.868-11.287c-20.549-1.344-24.868,11.287-24.868,11.287  c-1.075,6.181,3.359,23.246,3.359,23.246h0.887V18.192c0-1.957,0.523-3.917,1.697-5.484c2.972-3.967,6.406-1.321,6.406-1.321  c5.766,5.912,12.518,5.24,12.518,5.24s6.752,0.672,12.518-5.24c0,0,3.434-2.645,6.406,1.321c1.173,1.566,1.697,3.527,1.697,5.484  v16.441h0.887C269.796,34.633,274.23,17.568,273.155,11.387z"/>
<polygon style="fill:#E56353;" points="243.518,78.452 240.01,83.775 243.518,89.099 253.058,89.099 256.565,83.775 253.058,78.452   "/>
<g>
	<polygon style="fill:#E1E6E9;" points="229.672,72.587 234.835,65.038 245.405,78.418 236.88,93.355  "/>
	<polygon style="fill:#E1E6E9;" points="268.338,72.029 261.74,65.038 251.17,78.418 258.667,91.554  "/>
</g>
<polygon style="fill:#D15241;" points="253.058,89.099 248.288,89.099 243.518,89.099 238.878,125.495 246.752,141.137   257.697,125.495 "/>
<path style="fill:#FCD462;" d="M315.189,232.256l15.445-1.128c0,0,9.591,9.948,6.042,20.654c0,0-0.903,4.762-6.729,8.801  c-1.603,1.111-3.966-0.067-3.686-1.844c0.803-5.102,1.207-13.251-3.588-16.23c0,0-2.398-1.855-2.782,1.602l-0.179,6.814  c0.148,1.488-1.187,2.768-2.886,2.768c-1.667,0-2.99-1.234-2.893-2.696L315.189,232.256z"/>
<path style="fill:#3A556A;" d="M245.197,144.296v102.228c0,0,44.022-0.438,52.251-4.603l-10.973-100.024h6.484l16.459,90.38  l25.188,0.219c0,0-13.217-112.187-20.699-124.702c0,0-6.983-18.872-24.006-24.352l-21.564-11.412l-19.519,54.718L245.197,144.296z"/>
<g>
	<path style="fill:#2F4859;" d="M268.338,72.029c0,0-27.766,50.704-22.469,73.593c0,0,13.02-38.019,27.586-50.433   c0,0-3.198-2.512-8.165-3.879c0,0,9.455-3.223,11.662-5.357C276.952,85.953,274.411,75.521,268.338,72.029z"/>
	<polygon style="fill:#2F4859;" points="293.87,204.233 275.613,209.296 278.356,216.529 294.484,209.675  "/>
</g>
<path style="fill:#FCD462;" d="M176.336,232.321l-15.445-1.128c0,0-9.591,9.948-6.042,20.654c0,0,0.903,4.762,6.729,8.801  c1.603,1.111,3.966-0.067,3.686-1.844c-0.803-5.102-1.207-13.251,3.588-16.23c0,0,2.398-1.855,2.782,1.602l0.179,6.814  c-0.148,1.488,1.187,2.768,2.886,2.768c1.667,0,2.99-1.234,2.893-2.696L176.336,232.321z"/>
<path style="fill:#64798A;" d="M245.763,144.296v102.228c0,0-44.022-0.438-52.251-4.603l10.973-100.024H198l-16.459,90.38  l-25.188,0.219c0,0,13.217-112.187,20.699-124.702c0,0,6.983-18.872,24.006-24.352l28.006-10.854l13.077,54.16L245.763,144.296z"/>
<g>
	<path style="fill:#3A556A;" d="M229.064,72.587c0,0,21.995,49.871,16.699,72.76c0,0-13.351-40.366-27.916-52.781   c0,0,3.198-2.512,8.165-3.879c0,0-6.841-2.328-9.048-4.461C216.963,84.225,222.991,76.078,229.064,72.587z"/>
	<polygon style="fill:#3A556A;" points="197.656,204.297 215.912,209.36 213.169,216.594 197.041,209.74  "/>
</g>
<rect x="55.944" y="454.554" style="fill:#3EA69B;" width="379.648" height="36.972"/>
<rect x="55.944" y="268.902" style="fill:#44C4A1;" width="379.648" height="196.844"/>
<path style="fill:#FFFFFF;" d="M407.97,282.581H83.556c0,7.544-6.181,13.659-13.805,13.659v142.209  c7.624,0,13.805,6.115,13.805,13.659H407.97c0-7.544,6.181-13.659,13.805-13.659V296.24  C414.151,296.24,407.97,290.124,407.97,282.581z"/>
<ellipse style="fill:#44C4A1;" cx="245.763" cy="367.36" rx="54.63" ry="69.135"/>
<path style="fill:#FFFFFF;" d="M242.97,419.48v-9.182c-11.618-1.172-22.046-5.743-31.274-13.706l9.28-10.942  c7.118,6.121,14.442,9.765,21.994,10.942v-24.403c-9.58-2.262-16.594-5.241-21.042-8.931c-4.448-3.69-6.673-9.161-6.673-16.414  c0-7.252,2.555-13.184,7.687-17.801c5.131-4.611,11.804-7.124,20.028-7.544v-6.29h8.131v6.413  c9.321,0.676,18.135,3.818,26.442,9.438l-8.266,11.572c-5.597-3.941-11.649-6.372-18.177-7.298v23.646h0.383  c9.745,2.267,16.904,5.328,21.477,9.182c4.583,3.859,6.869,9.458,6.869,16.792c0,7.339-2.628,13.317-7.883,17.923  c-5.255,4.616-12.197,7.13-20.846,7.549v9.054H242.97z M234.001,338.292c-2.162,1.883-3.238,4.233-3.238,7.043  c0,2.81,0.848,5.031,2.545,6.664c1.686,1.638,4.914,3.209,9.662,4.719v-21.762C239.153,335.292,236.163,336.403,234.001,338.292z   M260.764,393.444c2.369-1.924,3.559-4.355,3.559-7.293c0-2.933-0.931-5.261-2.793-6.981c-1.872-1.72-5.348-3.332-10.428-4.842  v22.637C255.167,396.551,258.384,395.374,260.764,393.444z"/>
<g>
	<ellipse style="fill:#44C4A1;" cx="374.582" cy="367.36" rx="16.077" ry="15.903"/>
	<ellipse style="fill:#44C4A1;" cx="116.928" cy="367.36" rx="16.077" ry="15.903"/>
</g>
<rect x="55.944" y="415.283" style="fill:#3EA69B;" width="379.648" height="36.972"/>
<rect x="55.944" y="229.663" style="fill:#44C4A1;" width="379.648" height="196.844"/>
<path style="fill:#FFFFFF;" d="M407.97,243.322H83.556c0,7.544-6.181,13.659-13.805,13.659V399.19  c7.624,0,13.805,6.115,13.805,13.659H407.97c0-7.544,6.181-13.659,13.805-13.659V256.981  C414.151,256.981,407.97,250.866,407.97,243.322z"/>
<ellipse style="fill:#44C4A1;" cx="245.763" cy="328.09" rx="54.63" ry="69.135"/>
<path style="fill:#FFFFFF;" d="M242.97,380.221v-9.182c-11.618-1.172-22.046-5.743-31.274-13.706l9.28-10.942  c7.118,6.121,14.442,9.765,21.994,10.942V332.93c-9.58-2.262-16.594-5.241-21.042-8.931c-4.448-3.69-6.673-9.161-6.673-16.414  s2.555-13.184,7.687-17.801c5.131-4.611,11.804-7.124,20.028-7.544v-6.29h8.131v6.413c9.321,0.676,18.135,3.818,26.442,9.438  l-8.266,11.572c-5.597-3.941-11.649-6.372-18.177-7.298v23.646h0.383c9.745,2.267,16.904,5.328,21.477,9.182  c4.583,3.859,6.869,9.458,6.869,16.792c0,7.339-2.628,13.317-7.883,17.923c-5.255,4.616-12.197,7.129-20.846,7.549v9.054H242.97z   M234.001,299.033c-2.162,1.883-3.238,4.233-3.238,7.042s0.848,5.031,2.545,6.664c1.686,1.638,4.914,3.209,9.662,4.719v-21.762  C239.153,296.034,236.163,297.144,234.001,299.033z M260.764,354.185c2.369-1.924,3.559-4.355,3.559-7.293  c0-2.933-0.931-5.261-2.793-6.981c-1.872-1.72-5.348-3.332-10.428-4.842v22.637C255.167,357.292,258.384,356.115,260.764,354.185z"/>
<g>
	<ellipse style="fill:#44C4A1;" cx="374.582" cy="328.09" rx="16.077" ry="15.903"/>
	<ellipse style="fill:#44C4A1;" cx="116.928" cy="328.09" rx="16.077" ry="15.903"/>
</g>
<rect x="55.944" y="376.013" style="fill:#3EA69B;" width="379.648" height="36.972"/>
<rect x="55.944" y="190.413" style="fill:#44C4A1;" width="379.648" height="196.844"/>
<path style="fill:#FFFFFF;" d="M407.97,204.063H83.556c0,7.544-6.181,13.659-13.805,13.659v142.209  c7.624,0,13.805,6.115,13.805,13.659H407.97c0-7.544,6.181-13.659,13.805-13.659V217.722  C414.151,217.722,407.97,211.607,407.97,204.063z"/>
<ellipse style="fill:#44C4A1;" cx="245.763" cy="288.819" rx="54.63" ry="69.135"/>
<path style="fill:#FFFFFF;" d="M242.97,340.962v-9.182c-11.618-1.172-22.046-5.742-31.274-13.706l9.28-10.942  c7.118,6.121,14.442,9.765,21.994,10.942v-24.403c-9.58-2.262-16.594-5.241-21.042-8.931c-4.448-3.69-6.673-9.161-6.673-16.414  c0-7.252,2.555-13.184,7.687-17.801c5.131-4.611,11.804-7.124,20.028-7.544v-6.29h8.131v6.413  c9.321,0.676,18.135,3.818,26.442,9.438l-8.266,11.572c-5.597-3.941-11.649-6.372-18.177-7.298v23.646h0.383  c9.745,2.267,16.904,5.328,21.477,9.182c4.583,3.859,6.869,9.458,6.869,16.792c0,7.339-2.628,13.317-7.883,17.923  c-5.255,4.617-12.197,7.129-20.846,7.549v9.054H242.97z M234.001,259.774c-2.162,1.883-3.238,4.233-3.238,7.042  c0,2.81,0.848,5.031,2.545,6.664c1.686,1.638,4.914,3.209,9.662,4.719v-21.762C239.153,256.775,236.163,257.885,234.001,259.774z   M260.764,314.926c2.369-1.924,3.559-4.355,3.559-7.293c0-2.933-0.931-5.261-2.793-6.981c-1.872-1.72-5.348-3.332-10.428-4.842  v22.637C255.167,318.033,258.384,316.856,260.764,314.926z"/>
<g>
	<ellipse style="fill:#44C4A1;" cx="374.582" cy="288.819" rx="16.077" ry="15.903"/>
	<ellipse style="fill:#44C4A1;" cx="116.928" cy="288.819" rx="16.077" ry="15.903"/>
</g>
<rect x="211.049" y="387.226" style="fill:#FCD462;" width="69.468" height="104.269"/>
<g>
	<rect x="216.732" y="387.226" style="fill:#DC8744;" width="5.617" height="104.269"/>
	<rect x="269.161" y="387.226" style="fill:#DC8744;" width="5.617" height="104.269"/>
</g>
<g>
</g>
<g>
</g>
<g>
</g>
<g>
</g>
<g>
</g>
<g>
</g>
<g>
</g>
<g>
</g>
<g>
</g>
<g>
</g>
<g>
</g>
<g>
</g>
<g>
</g>
<g>
</g>
<g>
</g>
</svg>
