<?xml version="1.0" encoding="iso-8859-1"?>
<!-- Generator: Adobe Illustrator 19.0.0, SVG Export Plug-In . SVG Version: 6.00 Build 0)  -->
<svg xmlns="http://www.w3.org/2000/svg" xmlns:xlink="http://www.w3.org/1999/xlink" version="1.1" id="Layer_1" x="0px" y="0px" viewBox="0 0 512.66 512.66" style="enable-background:new 0 0 512.66 512.66;" xml:space="preserve">
<path style="fill:#415A6B;" d="M72.33,87.263v246.4h368v-246.4c0-9.6-7.467-18.133-18.133-18.133H90.463  C80.863,70.197,72.33,77.663,72.33,87.263z"/>
<rect x="98.997" y="96.863" style="fill:#FFFFFF;" width="314.667" height="210.133"/>
<path style="fill:#E8EAE9;" d="M72.33,333.663L4.063,414.73c-9.6,11.733-1.067,28.8,13.867,28.8h476.8  c14.933,0,23.467-17.067,13.867-28.8l-68.267-81.067L72.33,333.663L72.33,333.663z"/>
<polygon style="fill:#CED6E0;" points="186.463,408.33 218.463,368.863 295.263,368.863 327.263,408.33 "/>
<rect x="173.663" y="229.13" style="fill:#66C6B9;" width="28.8" height="50.133"/>
<rect x="220.597" y="210.997" style="fill:#FFD15C;" width="28.8" height="69.333"/>
<rect x="267.53" y="186.463" style="fill:#8AD7F8;" width="28.8" height="92.8"/>
<rect x="315.53" y="156.597" style="fill:#F3705A;" width="28.8" height="122.667"/>
<polygon style="fill:#415A6B;" points="315.53,126.73 296.33,153.397 293.13,143.797 174.73,197.13 169.397,185.397   287.797,132.063 283.53,123.53 "/>
<g>
</g>
<g>
</g>
<g>
</g>
<g>
</g>
<g>
</g>
<g>
</g>
<g>
</g>
<g>
</g>
<g>
</g>
<g>
</g>
<g>
</g>
<g>
</g>
<g>
</g>
<g>
</g>
<g>
</g>
</svg>
