<?xml version="1.0" encoding="iso-8859-1"?>
<!-- Generator: Adobe Illustrator 19.0.0, SVG Export Plug-In . SVG Version: 6.00 Build 0)  -->
<svg xmlns="http://www.w3.org/2000/svg" xmlns:xlink="http://www.w3.org/1999/xlink" version="1.1" id="Layer_1" x="0px" y="0px" viewBox="0 0 491.52 491.52" style="enable-background:new 0 0 491.52 491.52;" xml:space="preserve">
<path style="fill:#3A556A;" d="M472.754,0H18.766C8.402,0,0,8.402,0,18.766v453.988c0,10.364,8.402,18.766,18.766,18.766h22.961  c6.268,0,12.122-3.13,15.604-8.343l23.428-35.074c3.482-5.212,9.336-8.342,15.604-8.342h298.791c6.268,0,12.122,3.13,15.604,8.342  l23.428,35.074c3.482,5.213,9.336,8.343,15.604,8.343h22.961c10.364,0,18.766-8.402,18.766-18.766V18.766  C491.52,8.402,483.118,0,472.754,0z"/>
<rect x="37.908" y="37.687" style="fill:#64798A;" width="415.693" height="353.587"/>
<rect x="46.869" y="46.626" style="fill:#3A556A;" width="397.824" height="335.718"/>
<g>
	<path style="fill:#2F4859;" d="M41.932,70.816c-4.565,0-8.264,3.208-8.264,7.166v52.44c0,3.958,3.699,7.166,8.264,7.166   s8.264-3.208,8.264-7.166v-52.44C50.197,74.024,46.497,70.816,41.932,70.816z"/>
	<path style="fill:#2F4859;" d="M41.932,291.391c-4.565,0-8.264,3.208-8.264,7.166v52.44c0,3.958,3.699,7.166,8.264,7.166   s8.264-3.208,8.264-7.166v-52.44C50.197,294.599,46.497,291.391,41.932,291.391z"/>
	<path style="fill:#2F4859;" d="M317.05,256.403l-9.672-5.584c5.278-11.012,8.324-23.3,8.324-36.328   c0-13.028-3.044-25.316-8.324-36.328l9.672-5.584c3.109-1.795,4.176-5.771,2.378-8.882c-1.793-3.11-5.771-4.175-8.88-2.38   l-9.622,5.554c-14.029-20.428-36.831-34.299-62.972-36.301v-11.165c0-3.591-2.911-6.501-6.502-6.501   c-3.591,0-6.502,2.911-6.502,6.501v11.165c-26.143,2.001-48.947,15.873-62.976,36.302l-9.617-5.554   c-3.111-1.795-7.087-0.73-8.882,2.38c-1.796,3.11-0.731,7.087,2.38,8.882l9.67,5.584c-5.28,11.012-8.321,23.3-8.321,36.328   s3.041,25.317,8.321,36.329l-9.672,5.584c-3.109,1.796-4.174,5.771-2.378,8.882s5.771,4.175,8.88,2.38l9.62-5.554   c14.029,20.429,36.833,34.301,62.976,36.302v11.164c0,3.591,2.911,6.502,6.502,6.502c3.591,0,6.502-2.911,6.502-6.502v-11.164   c26.14-2.002,48.943-15.873,62.972-36.302l9.622,5.554c3.109,1.796,7.087,0.73,8.88-2.38   C321.226,262.174,320.159,258.198,317.05,256.403z M301.269,214.49c0,10.399-2.335,20.233-6.412,29.099l-39.7-22.921   c0.517-1.985,0.879-4.03,0.879-6.178c0-2.147-0.362-4.193-0.879-6.178l39.7-22.921C298.934,194.258,301.269,204.091,301.269,214.49   z M288.355,174.13l-39.635,22.882c-2.945-2.911-6.657-4.993-10.765-6.125v-45.886C258.761,146.926,276.883,157.989,288.355,174.13z    M224.951,145.001v45.886c-4.111,1.132-7.822,3.214-10.767,6.125l-39.637-22.883C186.019,157.987,204.141,146.925,224.951,145.001z    M161.633,214.49c0-10.399,2.337-20.232,6.412-29.099l39.703,22.922c-0.517,1.985-0.879,4.031-0.879,6.178   c0,2.147,0.362,4.193,0.879,6.178l-39.703,22.922C163.969,234.723,161.633,224.89,161.633,214.49z M174.547,254.851l39.637-22.883   c2.945,2.911,6.657,4.994,10.767,6.126v45.886C204.141,282.056,186.019,270.993,174.547,254.851z M237.955,283.98v-45.886   c4.108-1.132,7.82-3.215,10.765-6.126l39.635,22.883C276.883,270.992,258.761,282.055,237.955,283.98z"/>
	<path style="fill:#2F4859;" d="M389.25,208.627c0-4.483-3.634-8.117-8.117-8.117c-4.483,0-8.117,3.634-8.117,8.117   c0,2.818,1.439,5.297,3.619,6.752l-1.588,13.091h12.171l-1.588-13.091C387.811,213.924,389.25,211.445,389.25,208.627z"/>
</g>
<g>
</g>
<g>
</g>
<g>
</g>
<g>
</g>
<g>
</g>
<g>
</g>
<g>
</g>
<g>
</g>
<g>
</g>
<g>
</g>
<g>
</g>
<g>
</g>
<g>
</g>
<g>
</g>
<g>
</g>
</svg>
