<?xml version="1.0" encoding="iso-8859-1"?>
<!-- Generator: Adobe Illustrator 19.0.0, SVG Export Plug-In . SVG Version: 6.00 Build 0)  -->
<svg xmlns="http://www.w3.org/2000/svg" xmlns:xlink="http://www.w3.org/1999/xlink" version="1.1" id="Layer_1" x="0px" y="0px" viewBox="0 0 512 512" style="enable-background:new 0 0 512 512;" xml:space="preserve">
<path style="fill:#FBCB99;" d="M258.019,282.596c-7.492,0-13.589,6.096-13.589,13.589v0.388c-2.351-1.948-5.371-3.119-8.656-3.119  h-0.448c-7.497,0.002-13.592,6.097-13.592,13.589v49.794c-4.294-6.257-11.166-14.197-19.27-15.935  c-4.494-0.964-8.686,0.058-12.593,2.953l-1.348,0.998l-0.941,1.383c-2.133,3.136-5.849,12.132,5.642,27.88  c6.29,8.622,7.479,15.154,8.632,21.472c2.153,11.807,4.939,20.653,22.973,34.542l0.002,22.635h77.398v-30.092  c15.877-11.524,15.16-55.094,15.12-56.939l0.002-32.012c-0.002-7.492-6.099-13.59-13.592-13.59h-0.451  c-3.285,0-6.304,1.172-8.655,3.12v-16.21c0-7.492-6.097-13.59-13.589-13.59l-0.45,0.001c-3.227,0.002-6.208,1.11-8.558,3.009v-0.277  c0-7.495-6.097-13.588-13.592-13.588L258.019,282.596z"/>
<g>
	<path style="fill:#E9B585;" d="M208.213,396.38c-1.163-6.363-2.364-12.936-8.715-21.617c-11.61-15.852-7.855-24.908-5.7-28.066   l0.949-1.396l1.362-1.003c1.944-1.436,3.96-2.408,6.046-2.916c-0.07-0.016-0.137-0.04-0.208-0.054   c-4.54-0.974-8.774,0.056-12.723,2.97l-1.361,1.003l-0.949,1.396c-2.155,3.157-5.912,12.213,5.698,28.066   c6.353,8.681,7.553,15.254,8.719,21.617c2.173,11.883,4.99,20.788,23.203,34.771v22.786h6.883v-25.088   C213.204,414.867,210.386,408.263,208.213,396.38z"/>
	<path style="fill:#E9B585;" d="M279.81,298.916c0.009,0.124,0.036,0.247,0.036,0.374v43.918c0,2.394-1.944,4.332-4.346,4.332   c-2.4,0-4.347-1.938-4.347-4.332V299.29c0-0.044,0.012-0.086,0.013-0.129c0.07-1.542,0.579-2.46,0.579-2.46   c0.418-0.38,0.862-0.702,1.316-0.995l0.021-0.014c3.781-2.43,8.474-2.133,8.474-2.133l0.054,0.028   c1.248,0.062,2.455,0.286,3.596,0.658c-1.527,0.498-2.935,1.256-4.175,2.222C280.249,297.288,279.926,298.17,279.81,298.916z"/>
	<path style="fill:#E9B585;" d="M302.752,325.478c0.012,0.125,0.038,0.245,0.038,0.374v26.764c0,2.394-1.944,4.334-4.346,4.334   c-2.4,0-4.347-1.94-4.347-4.334v-26.764c0-0.046,0.012-0.089,0.014-0.131c0.069-1.539,0.578-2.459,0.578-2.459   c0.418-0.377,0.862-0.701,1.317-0.995c0,0,0.014-0.009,0.021-0.014c3.778-2.429,8.474-2.132,8.474-2.132l0.053,0.03   c1.247,0.061,2.455,0.282,3.597,0.655c-1.528,0.499-2.936,1.256-4.177,2.224C303.194,323.846,302.869,324.732,302.752,325.478z"/>
	<path style="fill:#E9B585;" d="M252.812,296.31v0.28v42.29c0,2.392-1.944,4.331-4.347,4.331c-2.401,0-4.348-1.939-4.348-4.331   v-43.918c0-0.49,0.101-0.955,0.253-1.393c-0.068,0-0.132-0.009-0.199-0.009h-0.054c1.283-6.23,6.824-10.928,13.449-10.928   l0.453-0.001c1.489,0,2.918,0.244,4.261,0.682C256.789,285.105,252.809,290.249,252.812,296.31z"/>
	<path style="fill:#E9B585;" d="M221.016,356.492c2.771,3.49,5.92,7.881,8.694,12.809v-45.953c0.092,0.072,0.19,0.136,0.281,0.212   l-0.002-16.317c0-6.063,3.982-11.212,9.474-13.002c-1.348-0.433-2.779-0.678-4.265-0.68h-0.456   c-7.567,0-13.726,6.137-13.726,13.682l0.001,9.241l-0.001,0.007v40.002H221.016z"/>
</g>
<path style="fill:#FBCB99;" d="M229.392,262.618c0-7.492-6.096-13.589-13.589-13.589h-0.388c1.948-2.351,3.119-5.371,3.119-8.656  v-0.448c-0.002-7.497-6.097-13.592-13.589-13.592h-49.794c6.257-4.294,14.197-11.166,15.935-19.27  c0.964-4.494-0.058-8.686-2.954-12.593l-0.998-1.348l-1.383-0.941c-3.136-2.133-12.132-5.849-27.88,5.642  c-8.622,6.29-15.154,7.479-21.472,8.632c-11.807,2.153-20.653,4.939-34.541,22.973l-22.635,0.002v77.397h30.092  c11.524,15.877,55.094,15.16,56.939,15.12l32.012,0.002c7.492-0.002,13.59-6.099,13.59-13.592v-0.452  c0-3.285-1.172-6.303-3.12-8.653h16.21c7.492,0,13.589-6.097,13.589-13.589l-0.001-0.45c-0.002-3.227-1.11-6.208-3.009-8.558h0.277  c7.495,0,13.588-6.097,13.588-13.592L229.392,262.618z"/>
<g>
	<path style="fill:#E9B585;" d="M116.652,213.16c6.305-1.151,12.824-2.336,21.427-8.612c15.713-11.47,24.691-7.759,27.822-5.63   l1.381,0.938l0.994,1.345c1.424,1.92,2.39,3.912,2.894,5.974c0.014-0.071,0.038-0.138,0.053-0.207   c0.965-4.485-0.056-8.668-2.947-12.57l-0.994-1.343l-1.381-0.938c-3.131-2.13-12.107-5.84-27.822,5.63   c-8.604,6.276-15.122,7.463-21.427,8.613c-11.781,2.146-20.608,4.928-34.466,22.924H59.599v6.801h26.038   C99.496,218.089,104.87,215.307,116.652,213.16z"/>
	<path style="fill:#E9B585;" d="M213.261,283.892c-0.123,0.012-0.243,0.038-0.369,0.038h-43.534c-2.372,0-4.293-1.924-4.293-4.295   c0-2.372,1.921-4.293,4.293-4.293h43.534c0.044,0,0.085,0.01,0.129,0.012c1.526,0.07,2.437,0.571,2.437,0.571   c0.375,0.413,0.695,0.851,0.986,1.301c0,0,0.009,0.014,0.014,0.021c2.409,3.734,2.112,8.371,2.112,8.371l-0.026,0.053   c-0.062,1.232-0.282,2.424-0.652,3.553c-0.492-1.511-1.245-2.899-2.203-4.126C214.877,284.327,213.999,284.008,213.261,283.892z"/>
	<path style="fill:#E9B585;" d="M186.623,307.129c-0.123,0.012-0.242,0.038-0.369,0.038h-26.532c-2.371,0-4.294-1.924-4.294-4.295   c0-2.371,1.923-4.294,4.294-4.294h26.532c0.045,0,0.086,0.01,0.129,0.012c1.526,0.069,2.438,0.571,2.438,0.571   c0.373,0.413,0.696,0.851,0.986,1.301l0.009,0.014c2.414,3.74,2.118,8.377,2.118,8.377l-0.029,0.054   c-0.061,1.232-0.281,2.424-0.65,3.553c-0.494-1.511-1.245-2.901-2.203-4.126C188.239,307.562,187.363,307.243,186.623,307.129z"/>
	<path style="fill:#E9B585;" d="M215.844,257.221h-0.277h-41.918c-2.374,0-4.293-1.921-4.293-4.295c0-2.372,1.92-4.294,4.293-4.294   h43.533c0.487,0,0.946,0.098,1.38,0.249c0.001-0.067,0.009-0.13,0.009-0.197v-0.052c6.175,1.267,10.835,6.74,10.835,13.286v0.45   c0,1.47-0.243,2.881-0.677,4.208C226.953,261.151,221.852,257.22,215.844,257.221z"/>
	<path style="fill:#E9B585;" d="M156.19,225.808c-3.459,2.736-7.813,5.846-12.696,8.589h45.552c-0.072,0.09-0.136,0.186-0.211,0.277   l16.176-0.002c6.011,0,11.112,3.933,12.887,9.36c0.43-1.33,0.672-2.745,0.672-4.214l0.002-0.449   c0-7.476-6.085-13.561-13.562-13.561l-9.161,0.001l-0.003-0.001H156.19z"/>
</g>
<path style="fill:#FBCB99;" d="M256.208,229.404c7.492,0,13.589-6.096,13.589-13.589v-0.388c2.351,1.948,5.37,3.119,8.655,3.119  h0.449c7.496-0.002,13.592-6.097,13.592-13.589v-49.794c4.294,6.257,11.166,14.197,19.268,15.935  c4.495,0.964,8.687-0.058,12.594-2.953l1.347-0.998l0.942-1.383c2.132-3.136,5.849-12.132-5.644-27.882  c-6.29-8.622-7.479-15.154-8.63-21.472c-2.154-11.807-4.941-20.653-22.973-34.541l-0.002-22.635h-77.398l-0.001,30.092  c-15.877,11.524-15.159,55.093-15.118,56.939l-0.002,32.012c0.002,7.492,6.098,13.59,13.592,13.59h0.451  c3.286,0,6.305-1.172,8.656-3.12l-0.001,16.21c0,7.492,6.098,13.589,13.589,13.589l0.45-0.001c3.226-0.002,6.208-1.11,8.558-3.009  v0.277c0,7.495,6.097,13.588,13.592,13.588L256.208,229.404z"/>
<g>
	<path style="fill:#E9B585;" d="M220.88,89.326l0.002-30.092h-8.886l-0.001,30.092c-15.877,11.524-15.159,55.093-15.118,56.939   l-0.002,32.012c0.002,7.492,6.098,13.59,13.592,13.59h0.451c1.469,0,2.882-0.246,4.209-0.68c-5.431-1.781-9.367-6.892-9.368-12.91   l0.001-32.012C205.722,144.42,205.003,100.849,220.88,89.326z"/>
	<path style="fill:#E9B585;" d="M228.456,204.958v-16.21c-0.089,0.072-0.185,0.138-0.276,0.211v-36.815   c0-2.377-1.927-4.302-4.303-4.302c-2.377,0-4.304,1.926-4.304,4.302v43.627l0.001,0.005l-0.001,9.184   c0,7.492,6.098,13.589,13.589,13.589l0.45-0.001c1.473,0,2.89-0.243,4.225-0.674C232.396,216.094,228.456,210.98,228.456,204.958z"/>
	<path style="fill:#E9B585;" d="M277.781,213.224c0.01-0.123,0.038-0.243,0.038-0.369v-43.627c0-2.376-1.927-4.302-4.303-4.302   c-2.378,0-4.304,1.926-4.304,4.302v43.627c0,0.044,0.012,0.085,0.013,0.129c0.068,1.529,0.573,2.443,0.573,2.443   c0.412,0.375,0.853,0.697,1.302,0.988c0.007,0.005,0.015,0.009,0.015,0.009c3.75,2.418,8.397,2.122,8.397,2.122l0.051-0.026   c1.238-0.062,2.43-0.283,3.562-0.655c-1.512-0.494-2.907-1.247-4.134-2.207C278.217,214.846,277.897,213.965,277.781,213.224z"/>
	<path style="fill:#E9B585;" d="M251.051,215.814v-0.277v-42.009c0-2.377-1.927-4.303-4.303-4.303c-2.378,0-4.304,1.926-4.304,4.303   v43.626c0,0.488,0.099,0.949,0.249,1.384c-0.067,0-0.13,0.008-0.197,0.008h-0.052c1.269,6.19,6.755,10.857,13.314,10.857   l0.45,0.001c1.472,0,2.887-0.243,4.218-0.679C254.99,226.947,251.05,221.836,251.051,215.814z"/>
	<path style="fill:#E9B585;" d="M306.029,161.176c-0.912-1.075-2.383-2.96-4.028-5.119c-0.213-0.3-0.425-0.602-0.627-0.894v0.07   c-4.08-5.381-8.883-11.947-8.883-11.947v11.877c2.823,4.349,8.883,10.254,8.883,10.254c3.105,2.706,6.609,4.87,10.385,5.681   c2.63,0.564,5.153,0.429,7.581-0.343C314.256,169.229,309.702,165.355,306.029,161.176z"/>
</g>
<path style="fill:#FBCB99;" d="M282.608,252.812c0,7.492,6.096,13.589,13.589,13.589h0.388c-1.948,2.351-3.119,5.371-3.119,8.656  v0.448c0.002,7.497,6.097,13.592,13.588,13.592h49.794c-6.257,4.294-14.197,11.166-15.935,19.27  c-0.964,4.494,0.058,8.686,2.953,12.593l0.998,1.348l1.383,0.941c3.136,2.133,12.132,5.849,27.88-5.642  c8.622-6.29,15.154-7.479,21.472-8.632c11.807-2.153,20.653-4.939,34.542-22.973l22.635-0.002V208.6h-30.092  c-11.524-15.877-55.094-15.16-56.939-15.12l-32.012-0.002c-7.492,0.002-13.589,6.099-13.589,13.592v0.452  c0,3.285,1.172,6.304,3.12,8.653h-16.21c-7.492,0-13.589,6.097-13.589,13.589l0.001,0.45c0.002,3.227,1.11,6.208,3.009,8.558h-0.277  c-7.495,0-13.587,6.097-13.587,13.592L282.608,252.812z"/>
<g>
	<path style="fill:#E9B585;" d="M418.258,214.376l33.359,0.002v-6.727l-29.908-0.002c-11.454-16.137-54.755-15.406-56.59-15.366   l-31.816-0.001c-7.446,0.002-13.508,6.198-13.508,13.813v0.458c0,1.493,0.244,2.929,0.678,4.277   c0.2-7.505,6.849-11.817,12.83-11.82h34.118C369.256,198.971,406.804,198.24,418.258,214.376z"/>
	<path style="fill:#E9B585;" d="M306.788,224.377l16.111-0.139c-0.074-0.091-0.138,0.095-0.211,0l36.589-0.142   c2.363,0,4.277-1.957,4.277-4.373c0-2.415-1.913-4.372-4.277-4.372h-43.359h-0.008h-9.124c-7.448,0-13.508,6.195-13.508,13.811   l0.002,0.456c0,1.497,0.242,2.937,0.67,4.293C295.717,228.385,300.801,224.377,306.788,224.377z"/>
	<path style="fill:#E9B585;" d="M298.762,274.318c0.121,0.011,0.239,0.037,0.367,0.037h43.361c2.363,0,4.277-1.958,4.277-4.374   c0-2.416-1.913-4.373-4.277-4.373h-43.361c-0.045,0-0.086,0.012-0.129,0.014c-1.52,0.068-2.427,0.581-2.427,0.581   c-0.373,0.419-0.695,0.866-0.984,1.324l-0.014,0.02c-2.399,3.806-2.103,8.528-2.103,8.528l0.026,0.053   c0.062,1.259,0.28,2.469,0.649,3.619c0.492-1.537,1.24-2.954,2.194-4.201C297.153,274.761,298.023,274.435,298.762,274.318z"/>
	<path style="fill:#E9B585;" d="M350.628,302.54c1.049-0.897,2.888-2.343,4.996-3.958c0.292-0.209,0.586-0.417,0.872-0.616h-0.069   c5.248-4.006,11.655-8.722,11.655-8.722h-11.586c-4.243,2.773-10.004,8.722-10.004,8.722c-2.639,3.049-4.751,6.491-5.54,10.199   c-0.552,2.581-0.42,5.059,0.334,7.443C342.772,310.615,346.552,306.147,350.628,302.54z"/>
	<path style="fill:#E9B585;" d="M338.141,238.786h-43.139h-0.22H293.4c-0.232,0.049-0.458,0.116-0.688,0.176   c-0.128,0.029-0.253,0.062-0.38,0.098c-0.033,0.01-0.069,0.02-0.104,0.029c-1.559,0.45-2.878,1.268-3.082,1.401   c-3.915,2.422-6.539,6.817-6.539,11.828v0.457c0,1.497,0.24,2.934,0.674,4.286c1.767-5.523,6.846-9.525,12.831-9.525h0.275h41.752   c2.362,0,4.278-1.957,4.278-4.377C342.418,240.744,340.502,238.786,338.141,238.786z"/>
</g>
<path style="fill:#6598CB;" d="M293.29,0.012h-0.938c-0.179,0.01-0.285,0.024-0.285,0.024l-0.005-0.024h-71.886h-12.241  l-0.006,0.023c0,0-0.104-0.014-0.285-0.024h-0.938c-2.032,0.104-5.915,0.963-6.24,5.983v15.878v20.437v15.877  c0.324,5.021,4.208,5.881,6.24,5.984h0.938c0.182-0.01,0.285-0.023,0.285-0.023l0.007,0.023h12.241h71.886l0.005-0.023  c0,0,0.106,0.013,0.285,0.023h0.938c2.032-0.104,5.913-0.963,6.237-5.984V42.308V21.872V5.994  C299.202,0.975,295.322,0.115,293.29,0.012z"/>
<g>
	<path style="fill:#4982AA;" d="M218.314,58.185V42.308V21.872V5.994c0.324-5.02,4.205-5.879,6.237-5.983h-2.402h-14.214   l-0.006,0.023c0,0-0.104-0.014-0.285-0.024h-0.938c-2.032,0.104-5.915,0.963-6.24,5.983v15.878v20.437v15.877   c0.324,5.021,4.208,5.881,6.24,5.984h0.938c0.182-0.01,0.285-0.023,0.285-0.023l0.007,0.023h14.214h2.402   C222.52,64.067,218.639,63.207,218.314,58.185z"/>
	<path style="fill:#4982AA;" d="M229.729,0.012h-0.292c0.182,0.01,0.285,0.024,0.285,0.024L229.729,0.012z"/>
	<path style="fill:#4982AA;" d="M229.437,64.169h0.292l-0.007-0.023C229.722,64.147,229.619,64.16,229.437,64.169z"/>
</g>
<path style="fill:#6598CB;" d="M306.191,447.831h-0.938c-0.18,0.01-0.285,0.024-0.285,0.024l-0.005-0.024h-71.886h-12.241  l-0.007,0.024c0,0-0.104-0.014-0.285-0.024h-0.939c-2.032,0.104-5.915,0.963-6.24,5.983v15.878v20.437v15.877  c0.324,5.021,4.208,5.881,6.24,5.984h0.939c0.182-0.01,0.285-0.023,0.285-0.023l0.007,0.023h12.241h71.886l0.005-0.023  c0,0,0.106,0.013,0.285,0.023h0.938c2.032-0.104,5.913-0.963,6.237-5.984v-15.878V469.69v-15.878  C312.104,448.793,308.223,447.933,306.191,447.831z"/>
<g>
	<path style="fill:#4982AA;" d="M231.216,506.004v-15.877V469.69v-15.878c0.324-5.02,4.205-5.879,6.237-5.983h-2.402h-14.214   l-0.007,0.024c0,0-0.104-0.014-0.285-0.024h-0.939c-2.032,0.104-5.915,0.963-6.24,5.983v15.878v20.437v15.877   c0.324,5.021,4.208,5.881,6.24,5.984h0.939c0.182-0.01,0.285-0.023,0.285-0.023l0.007,0.023h14.214h2.402   C235.421,511.885,231.54,511.026,231.216,506.004z"/>
	<path style="fill:#4982AA;" d="M242.63,447.831h-0.292c0.182,0.01,0.285,0.024,0.285,0.024L242.63,447.831z"/>
	<path style="fill:#4982AA;" d="M242.338,511.988h0.292l-0.007-0.023C242.624,511.967,242.52,511.978,242.338,511.988z"/>
	<path style="fill:#4982AA;" d="M0,225.534v0.939c0.01,0.179,0.024,0.285,0.024,0.285L0,226.763v71.886v12.241l0.024,0.007   c0,0-0.014,0.104-0.024,0.285v0.939c0.104,2.032,0.963,5.915,5.983,6.24h15.878h20.437h15.877c5.021-0.324,5.881-4.208,5.984-6.24   v-0.939c-0.01-0.182-0.023-0.285-0.023-0.285l0.023-0.007v-12.241v-71.886l-0.023-0.005c0,0,0.013-0.106,0.023-0.285v-0.939   c-0.104-2.032-0.963-5.913-5.984-6.237H42.298H21.861H5.983C0.963,219.623,0.104,223.504,0,225.534z"/>
	<path style="fill:#4982AA;" d="M447.841,204.639v0.938c0.01,0.18,0.024,0.285,0.024,0.285l-0.024,0.005v71.886v12.241l0.024,0.007   c0,0-0.014,0.104-0.024,0.285v0.938c0.104,2.032,0.963,5.915,5.983,6.24h15.878h20.437h15.877c5.021-0.324,5.88-4.208,5.984-6.24   v-0.938c-0.01-0.182-0.023-0.285-0.023-0.285l0.023-0.007v-12.241v-71.886l-0.023-0.005c0,0,0.013-0.106,0.023-0.285v-0.938   c-0.104-2.032-0.963-5.913-5.984-6.237h-15.877h-20.437h-15.878C448.804,198.727,447.945,202.608,447.841,204.639z"/>
</g>
<g>
	<path style="fill:#6598CB;" d="M506.822,223.146h-20.437h-15.878c-5.02,0.324-5.879,4.205-5.983,6.237v0.938   c0.01,0.179,0.024,0.285,0.024,0.285l-0.024,0.005v66.852h5.178h20.437h15.877c5.021-0.324,5.88-4.208,5.984-6.24v-0.938   c-0.01-0.182-0.023-0.285-0.023-0.285l0.023-0.007v-12.241v-54.607H506.822z"/>
	<path style="fill:#6598CB;" d="M58.981,244.041H38.544H22.666c-5.02,0.324-5.879,4.205-5.983,6.237v0.938   c0.01,0.18,0.024,0.285,0.024,0.285l-0.024,0.005v66.852h5.178h20.437h15.877c5.021-0.324,5.881-4.208,5.984-6.24v-0.939   c-0.01-0.182-0.023-0.285-0.023-0.285l0.023-0.007v-12.241V244.04h-5.178V244.041z"/>
</g>
<g>
</g>
<g>
</g>
<g>
</g>
<g>
</g>
<g>
</g>
<g>
</g>
<g>
</g>
<g>
</g>
<g>
</g>
<g>
</g>
<g>
</g>
<g>
</g>
<g>
</g>
<g>
</g>
<g>
</g>
</svg>
