<?xml version="1.0" encoding="iso-8859-1"?>
<!-- Generator: Adobe Illustrator 19.0.0, SVG Export Plug-In . SVG Version: 6.00 Build 0)  -->
<svg xmlns="http://www.w3.org/2000/svg" xmlns:xlink="http://www.w3.org/1999/xlink" version="1.1" id="Layer_1" x="0px" y="0px" viewBox="0 0 512 512" style="enable-background:new 0 0 512 512;" xml:space="preserve">
<path style="fill:#75BF4D;" d="M301.148,1.374H119.057c-0.899,0-1.629,0.73-1.629,1.629v114.312c0,0.899,0.73,1.629,1.629,1.629  h43.226v39.025c0,4.959,2.363,5.699,3.772,5.699c0.797,0,3.226,0,8.84-5.967l26.616-30.709c0.256-0.295,0.397-0.674,0.397-1.066  V39.051h99.24c0.899,0,1.629-0.73,1.629-1.629V3.003C302.777,2.104,302.047,1.374,301.148,1.374z"/>
<path style="fill:#6598CB;" d="M381.283,26.021H190.506c-0.899,0-1.629,0.73-1.629,1.629v122.999c0,0.899,0.73,1.629,1.629,1.629  h98.314l33.516,37.414c6.65,7.009,9.547,7.009,10.637,7.009c2.458,0,5.084-1.69,5.084-6.43v-37.993h43.227  c0.899,0,1.629-0.73,1.629-1.629V27.65C382.912,26.751,382.182,26.021,381.283,26.021z"/>
<g>
	<path style="fill:#56A846;" d="M132.087,1.374h-13.03c-0.899,0-1.629,0.73-1.629,1.629v114.312c0,0.899,0.73,1.629,1.629,1.629   h13.03c0.899,0,1.629-0.73,1.629-1.629V3.003C133.716,2.104,132.987,1.374,132.087,1.374z"/>
	<path style="fill:#56A846;" d="M162.283,118.944v39.025c0,4.958,2.363,5.699,3.771,5.699h0.011c0.807,0,3.237-0.024,8.83-5.967   l3.279-3.783c0.256-0.296,0.397-0.674,0.397-1.066v-33.907h-16.288V118.944z"/>
</g>
<path style="fill:#694B4B;" d="M183.425,378.354c0.317-0.537,0.635-0.966,0.951-1.31C196.426,358.25,203,335.255,203,311.512  c0-59.904-41.299-108.641-92.064-108.641c-50.762,0-92.062,48.737-92.062,108.641c0,24.01,6.728,47.251,19.038,66.156  c0.129,0.182,0.263,0.382,0.395,0.597c0.396,0.604,0.8,1.203,1.211,1.797c4.606,5.973,10.508,4.593,12.212,4.028  c0.159-0.061,0.321-0.117,0.48-0.179h0.003c6.082-2.252,12.833-4.147,20.13-5.638l12.75-2.606l-9.617-8.769  c-7.823-7.132-12.916-16.806-14.334-27.236l-0.719-5.27l-5.305-0.434c-8.728-0.709-15.57-8.132-15.57-16.899  c0-8.737,6.543-15.993,15.225-16.877l5.843-0.599l0.081-4.648c5.892-1.737,31.865-10.132,50.111-27.999  c4.3,5.019,20.42,21.609,50.37,28.09l0.075,4.558l5.846,0.598c8.68,0.884,15.224,8.142,15.224,16.877  c0,8.766-6.842,16.19-15.574,16.899l-5.301,0.434l-0.72,5.271c-1.42,10.426-6.507,20.098-14.333,27.23l-9.615,8.771l12.749,2.604  c7.619,1.558,14.649,3.558,20.944,5.949C172.788,384.869,179.022,385.767,183.425,378.354z"/>
<path style="fill:#FBCB99;" d="M135.706,399.114v-24.052l-8.289,2.165c-3.714,0.969-7.549,1.463-11.402,1.463H105.86  c-3.874,0-7.737-0.502-11.474-1.484l-8.304-2.186v24.076l-24.692,5.911l5.372,19.166l2.227,1.354  c3.329,2.028,12.421,7.042,24.815,9.762c5.83,1.277,11.705,1.925,17.465,1.925h0.003c14.28,0,28.255-3.942,41.536-11.715l2.31-1.35  l5.271-18.816L135.706,399.114z"/>
<path style="fill:#EDBA89;" d="M101.747,435.288c-12.396-2.72-21.483-7.733-24.817-9.762l0,0l-5.283-19.409l20.237-4.878v-23.163  l-5.8-3.058v24.076l-24.692,5.911l5.372,19.166l2.227,1.354c3.329,2.028,12.421,7.042,24.815,9.762  c5.83,1.277,11.705,1.925,17.465,1.925h0.003c1.301,0,2.595-0.044,3.893-0.109C110.714,436.873,106.218,436.268,101.747,435.288z"/>
<path style="fill:#F5F5F7;" d="M143.763,428.324c-10.518,4.767-21.524,7.181-32.716,7.181c-5.786,0-11.611-0.647-17.303-1.924  c-5.354-1.203-10.613-2.944-15.637-5.175l-9.673-4.294l24.47,86.514h36.067l24.523-86.712L143.763,428.324z"/>
<polygon style="fill:#D2D2D7;" points="68.434,424.111 92.905,510.625 100.846,510.625 77.518,428.144 "/>
<g>
	<path style="fill:#324A5E;" d="M195.148,418.688c-2.944-1.685-6.279-3.274-9.759-4.753l-1.574-0.656   c-10.717-4.388-22.495-7.684-28.68-9.288l-29.873,106.632h84.303c9.396,0,11.063-7.391,11.324-10.954v-31.783   C220.888,441.904,206.956,426.213,195.148,418.688z"/>
	<path style="fill:#324A5E;" d="M65.756,403.992c-6.186,1.604-17.961,4.9-28.678,9.288l-1.577,0.656   c-3.482,1.479-6.814,3.067-9.759,4.753C13.932,426.213,0,441.904,0,467.889v31.783c0.263,3.563,1.927,10.954,11.327,10.954h84.301   L65.756,403.992z"/>
</g>
<g>
	<path style="fill:#283D4C;" d="M10.922,499.671v-16.805v-14.977c0-25.985,13.93-41.676,25.739-49.2   c2.948-1.685,6.277-3.274,9.759-4.753l1.578-0.656c6.266-2.566,12.89-4.757,18.55-6.454l-0.793-2.833   c-6.186,1.604-17.961,4.9-28.678,9.288l-1.577,0.656c-3.482,1.479-6.814,3.067-9.759,4.753C13.932,426.213,0,441.904,0,467.889   v31.783c0.256,3.512,1.884,10.732,10.922,10.944V499.671z"/>
	<path style="fill:#283D4C;" d="M185.236,510.625v-43.661c0-2.74-2.222-4.962-4.963-4.962s-4.963,2.223-4.963,4.962v43.661H185.236z   "/>
	<path style="fill:#283D4C;" d="M45,510.625v-43.661c0-2.74-2.222-4.962-4.964-4.962c-2.741,0-4.962,2.223-4.962,4.962v43.661H45z"/>
</g>
<path style="fill:#FBCB99;" d="M170.515,296.199c-2.668-0.832-5.569-0.346-7.821,1.308c-2.248,1.654-3.579,4.281-3.579,7.076v25.027  c0,2.789,1.331,5.416,3.579,7.069c1.529,1.127,3.36,1.711,5.208,1.711c0.873,0,1.757-0.13,2.611-0.399  c1.682-0.523,3.335-1.28,4.913-2.25c0.929-0.567,1.744-1.307,2.404-2.173c0.967-0.497,1.834-1.175,2.556-1.989  c3.551-4.012,5.505-9.158,5.505-14.489C185.892,307.464,179.714,299.066,170.515,296.199z"/>
<path style="fill:#EDBA89;" d="M59.088,297.508c-2.249-1.655-5.151-2.14-7.819-1.311c-9.197,2.87-15.379,11.267-15.379,20.893  c0,9.638,6.182,18.034,15.379,20.901c0.856,0.268,1.739,0.398,2.617,0.398c1.847,0,3.673-0.584,5.202-1.709  c2.254-1.654,3.578-4.28,3.578-7.071v-25.03C62.666,301.789,61.343,299.162,59.088,297.508z"/>
<path style="fill:#FBCB99;" d="M164.422,296.539c0,0,0.037-0.182,0.05-0.471v-0.439c-0.054-1.05-0.518-2.767-2.697-3.832  l-2.376-0.569c-22.979-5.52-36.735-16.648-43.251-23.302c0,0,0,0-0.002-0.001c-5.542-5.074-11.287,0-11.287,0v-0.001  c-15.651,13.616-35.062,20.706-42.828,23.16l-1.04,0.328c-0.003,0.001-0.003,0.001-0.003,0.001c-2.647,0.87-3.4,2.56-3.582,3.763  v38.363c0,26.719,21.738,48.457,48.457,48.457h10.155c26.718,0,48.456-21.739,48.456-48.457v-37.042L164.422,296.539z"/>
<path style="fill:#EDBA89;" d="M114.298,266.595c-4.899-2.672-9.439,1.33-9.439,1.33v-0.001  c-15.651,13.616-35.062,20.706-42.828,23.16l-1.04,0.328c-0.003,0.001-0.003,0.001-0.003,0.001c-2.647,0.87-3.4,2.56-3.582,3.763  v38.363c0,26.719,21.738,48.457,48.457,48.457h7.944c-26.72,0-48.459-21.739-48.459-48.457v-35.568c0-4.368,3.205-6.28,5.044-7.023  c0.396-0.126,0.811-0.261,1.257-0.41h0.004H71.65c8.88-2.955,27.594-10.309,42.438-23.752L114.298,266.595z"/>
<path style="fill:#563B3B;" d="M38.308,378.265c0.396,0.604,0.8,1.203,1.211,1.797c4.787,6.213,10.98,4.47,12.394,3.964  c0.102-0.038,0.2-0.077,0.302-0.115l-0.795-1.078c-14.585-19.747-22.616-45.076-22.616-71.321  c0-57.939,38.634-105.428,87.097-108.481c-1.644-0.103-3.298-0.159-4.964-0.159c-50.762,0-92.062,48.737-92.062,108.641  c0,24.01,6.728,47.251,19.038,66.156C38.042,377.85,38.175,378.049,38.308,378.265z"/>
<polygon style="fill:#EF4C35;" points="414.496,453.692 421.074,436.17 400.892,421.317 380.641,436.222 387.962,453.692 "/>
<polygon style="fill:#DD3E2B;" points="387.962,453.692 388.345,454.613 379.311,510.625 423.218,510.625 414.176,454.558   414.496,453.692 "/>
<polygon style="fill:#D2D2D7;" points="384.942,510.625 394.086,453.935 385.252,432.832 356.899,405.874 362.447,446.295   380.466,510.625 "/>
<polygon style="fill:#E4E4EA;" points="422.148,510.625 440.372,445.554 445.926,405.123 416.427,432.752 408.453,453.987   417.589,510.625 "/>
<path style="fill:#F5F5F7;" d="M422.566,444.102c5.835,4.294,9.365,0.473,10.682-1.517l18.59-38.208l-23.992-15.836l-5.664,10.198  l-21.101,21.904l-20.535-20.002l-3.98-13.833l-26.619,17.57l18.151,37.308c0.502,0.991,4.184,7.582,11.204,2.424l21.588-15.888  l20.573,15.142C421.793,443.561,422.155,443.8,422.566,444.102z"/>
<path style="fill:#694B4B;" d="M403.954,197.67h-5.631c-38.463,0-69.751,31.293-69.751,69.753v9.301v8.708v14.711  c0,0,15.881-1.573,17.835-9.275l-0.01-0.008c0.671-0.729,1.231-1.561,1.625-2.488c9.009-0.274,51.088-0.602,75.115-29.622  c2.869,8.39,12.571,24.275,31.237,29.278c0.384,1.011,0.954,1.924,1.654,2.716l-0.154,0.124c1.952,7.702,17.832,9.275,17.832,9.275  v-14.77v-8.649v-9.301C473.706,228.964,442.414,197.67,403.954,197.67z M456.543,285.86l0.67-0.486h0.096l-1.092,0.81  L456.543,285.86z M456.202,286.07l0.074-0.239l0.236-0.458h0.092l-0.277,0.576L456.202,286.07z M454.351,287.499l-0.028-0.036  l1.722-1.243l-0.406,0.392l-1.256,0.929L454.351,287.499z M455.771,287.096l-0.539,1.114c-0.004-0.002-0.007-0.002-0.012-0.004  l-0.074-0.035c-0.012-0.004-0.025-0.014-0.035-0.02l0.877-1.744l0.023-0.024L455.771,287.096z"/>
<path style="fill:#563B3B;" d="M340.869,285.433v-8.708v-9.301c0-37.346,29.499-67.923,66.418-69.668  c-1.108-0.054-2.216-0.086-3.332-0.086h-5.631c-38.463,0-69.751,31.293-69.751,69.753v9.301v8.708v14.711  c0,0,7.018-0.699,12.297-3.425V285.433z"/>
<path style="fill:#FBCB99;" d="M465.329,290.033c-2.67-0.834-5.569-0.349-7.821,1.307c-2.249,1.655-3.577,4.281-3.577,7.077v25.024  c0,2.793,1.328,5.418,3.577,7.071c1.526,1.125,3.356,1.71,5.209,1.71c0.873,0,1.754-0.128,2.61-0.397  c1.684-0.522,3.335-1.28,4.913-2.251c0.928-0.566,1.743-1.306,2.401-2.172c0.97-0.498,1.836-1.175,2.56-1.991  c3.547-4.011,5.502-9.155,5.502-14.485C480.704,301.295,474.525,292.898,465.329,290.033z"/>
<path style="fill:#EDBA89;" d="M345.023,291.34c-2.252-1.656-5.153-2.142-7.821-1.311c-9.196,2.869-15.377,11.265-15.377,20.896  c0,9.635,6.182,18.032,15.377,20.899c0.857,0.269,1.74,0.397,2.615,0.397c1.85,0,3.678-0.585,5.207-1.709  c2.252-1.654,3.579-4.278,3.579-7.072v-25.028C348.602,295.622,347.275,292.995,345.023,291.34z"/>
<path style="fill:#FBCB99;" d="M425.245,367.067c-1.726-1.65-4.046-2.516-6.45-2.429l-0.297,0.014  c-0.537,0.018-1.072,0.087-1.598,0.203c-3.391,0.755-6.848,1.138-10.266,1.138h-10.733c-3.522,0-7.08-0.404-10.574-1.205  c-2.61-0.603-5.342,0.022-7.435,1.69c-2.092,1.667-3.31,4.197-3.31,6.87v25.544l-0.005,0.087c-0.141,2.533,0.82,5.005,2.64,6.777  l17.647,17.188c1.64,1.597,3.841,2.488,6.125,2.488c0.047,0,0.098,0,0.143,0c2.337-0.037,4.563-1.005,6.183-2.69l18.18-18.869  c1.579-1.636,2.457-3.822,2.457-6.09v-24.368C427.951,371.016,426.976,368.726,425.245,367.067z"/>
<path style="fill:#EDBA89;" d="M402.769,420.304l-17.648-17.185c-1.818-1.771-2.781-4.24-2.642-6.776l0.007-0.087V370.71  c0-2.247,0.87-4.386,2.387-6.001c-2.468-0.429-5.012,0.202-6.982,1.769c-2.092,1.667-3.31,4.197-3.31,6.87v25.544l-0.005,0.087  c-0.141,2.533,0.82,5.005,2.64,6.777l17.647,17.188c1.64,1.597,3.841,2.488,6.125,2.488c0.047,0,0.098,0,0.143,0  c2.337-0.037,4.563-1.005,6.183-2.69l0.078-0.083C405.661,422.357,404.043,421.548,402.769,420.304z"/>
<path style="fill:#FBCB99;" d="M452.609,282.864c-1.064-0.397-2.065-0.858-3.044-1.346c-14.756-6.89-20.883-15.842-23.35-21.186  c-0.147-0.202-0.293-0.426-0.443-0.704c-1.762-3.241-4.51-1.189-4.51-1.189l-0.014-0.008c-13.78,10.569-28.833,16.751-41.345,20.347  c-4.873,1.439-9.543,2.481-13.76,3.238c-8.39,1.541-13.782,1.742-13.782,1.742c-4.593,0.332-8.152,4.155-8.152,8.763v35.831  c0,28.503,23.188,51.691,51.691,51.691h10.733c28.501,0,51.691-23.188,51.691-51.691v-37.26  C458.324,287.426,456.042,284.146,452.609,282.864z"/>
<path style="fill:#EDBA89;" d="M354.747,328.354v-35.831c0-4.607,3.556-8.431,8.152-8.763c0,0,5.391-0.202,13.779-1.742  c4.224-0.756,8.891-1.798,13.766-3.238c11.07-3.185,24.136-8.398,36.551-16.882c-0.292-0.547-0.553-1.071-0.78-1.565  c-0.147-0.202-0.293-0.426-0.443-0.704c-1.762-3.241-4.51-1.189-4.51-1.189l-0.014-0.008c-13.78,10.569-28.833,16.751-41.345,20.347  c-4.873,1.439-9.543,2.481-13.76,3.238c-8.39,1.541-13.782,1.742-13.782,1.742c-4.593,0.332-8.152,4.155-8.152,8.763v35.831  c0,28.503,23.188,51.691,51.691,51.691h10.536C377.936,380.045,354.747,356.857,354.747,328.354z"/>
<g>
	<path style="fill:#324A5E;" d="M300.636,510.625h85.602l-30.675-109.514l-31.635,13.186l-0.044,0.014   c-12.85,4.511-34.594,20.874-34.594,53.578v31.405C289.459,502.679,290.892,510.625,300.636,510.625z"/>
	<path style="fill:#324A5E;" d="M512,499.671v-31.783c0-33.106-22.618-49.51-34.642-53.593l-30.448-12.688l-30.538,109.018h84.305   C510.073,510.625,511.737,503.234,512,499.671z"/>
</g>
<g>
	<path style="fill:#283D4C;" d="M355.563,401.111l-31.636,13.186l-0.044,0.014c-12.85,4.511-34.594,20.874-34.594,53.578v31.405   c0.17,3.386,1.604,11.332,11.347,11.332h1.419v-42.737c0-32.704,21.744-49.067,34.595-53.578l0.041-0.014l20.206-8.422   L355.563,401.111z"/>
	<path style="fill:#283D4C;" d="M476.346,510.625v-43.661c0-2.741-2.223-4.965-4.962-4.965c-2.742,0-4.964,2.225-4.964,4.965v43.661   H476.346z"/>
	<path style="fill:#283D4C;" d="M336.109,510.625v-43.661c0-2.741-2.221-4.965-4.961-4.965s-4.965,2.225-4.965,4.965v43.661H336.109   z"/>
</g>
<g>
	<path style="fill:#4982AA;" d="M203.536,26.021h-13.03c-0.899,0-1.629,0.73-1.629,1.629v122.999c0,0.899,0.73,1.629,1.629,1.629   h13.03c0.899,0,1.629-0.73,1.629-1.629V27.65C205.164,26.751,204.435,26.021,203.536,26.021z"/>
	<path style="fill:#4982AA;" d="M310.596,152.279H288.82l30.904,34.498l0.058,0.069l0.042,0.042l2.45,2.736l0.03,0.035l0.033,0.034   c5.894,6.213,8.781,7.009,10.638,7.009c0.848,0,5.083-0.309,5.083-6.43v-6.093v-1.245l-0.832-0.928L310.596,152.279z"/>
</g>
<g>
</g>
<g>
</g>
<g>
</g>
<g>
</g>
<g>
</g>
<g>
</g>
<g>
</g>
<g>
</g>
<g>
</g>
<g>
</g>
<g>
</g>
<g>
</g>
<g>
</g>
<g>
</g>
<g>
</g>
</svg>
