<?xml version="1.0" encoding="iso-8859-1"?>
<!-- Generator: Adobe Illustrator 19.0.0, SVG Export Plug-In . SVG Version: 6.00 Build 0)  -->
<svg xmlns="http://www.w3.org/2000/svg" xmlns:xlink="http://www.w3.org/1999/xlink" version="1.1" id="Layer_1" x="0px" y="0px" viewBox="0 0 491.52 491.52" style="enable-background:new 0 0 491.52 491.52;" xml:space="preserve">
<polygon style="fill:#E1E6E9;" points="291.734,0 39.024,35.124 102.458,491.52 452.496,442.869 402.59,83.802 "/>
<polygon style="fill:#D5D6DB;" points="305.261,97.33 402.59,83.802 291.734,0 "/>
<polyline style="fill:#E1E6E9;" points="305.261,97.33 416.07,181.095 402.59,83.802 "/>
<path style="fill:#64798A;" d="M91.159,214.733l25.031,180.095l298.918-41.546l-25.031-180.095L91.159,214.733z M385.894,203.943  l-46.215,6.423l-2.961-21.304l46.215-6.423L385.894,203.943z M296.885,331.081l-2.759-19.85l50.145-6.97l2.759,19.85  L296.885,331.081z M348.183,332.41l2.961,21.304l-50.145,6.97l-2.961-21.304L348.183,332.41z M332.535,219.818l2.759,19.85  l-50.145,6.97l-2.759-19.85L332.535,219.818z M281.236,218.489l-2.961-21.304l50.145-6.97l2.961,21.304L281.236,218.489z   M289.06,274.785l-2.759-19.85l50.145-6.97l2.759,19.85L289.06,274.785z M340.359,276.114l2.759,19.85l-50.145,6.97l-2.759-19.85  L340.359,276.114z M276.85,247.791l-169.366,23.54l-2.759-19.85l169.366-23.54L276.85,247.791z M278.003,256.089l2.759,19.85  l-169.366,23.54l-2.759-19.85L278.003,256.089z M281.916,284.237l2.759,19.85l-169.366,23.54l-2.759-19.85L281.916,284.237z   M285.828,312.385l2.759,19.85l-169.366,23.54l-2.759-19.85L285.828,312.385z M352.569,303.108l46.215-6.423l2.759,19.85  l-46.215,6.423L352.569,303.108z M351.416,294.81l-2.759-19.85l46.215-6.423l2.759,19.85L351.416,294.81z M347.504,266.662  l-2.759-19.85l46.215-6.423l2.759,19.85L347.504,266.662z M343.592,238.514l-2.759-19.85l46.215-6.423l2.759,19.85L343.592,238.514z   M269.977,198.338l2.961,21.304l-169.366,23.54l-2.961-21.304L269.977,198.338z M120.374,364.072l169.366-23.54l2.961,21.304  l-169.366,23.54L120.374,364.072z M359.443,352.561l-2.961-21.304l46.215-6.423l2.961,21.304L359.443,352.561z"/>
<rect x="339.918" y="394.545" transform="matrix(-0.9905 0.1377 -0.1377 -0.9905 812.2438 741.2872)" style="fill:#27A2DB;" width="81.137" height="8.376"/>
<rect x="143.567" y="56.424" transform="matrix(-0.9905 0.1377 -0.1377 -0.9905 370.7505 95.5823)" style="fill:#44C4A1;" width="77.005" height="8.376"/>
<g>
	
		<rect x="147.745" y="84.623" transform="matrix(-0.9905 0.1377 -0.1377 -0.9905 434.8226 147.5475)" style="fill:#D5D6DB;" width="129.127" height="8.376"/>
	
		<rect x="152.161" y="116.408" transform="matrix(-0.9905 0.1377 -0.1377 -0.9905 447.9879 210.2078)" style="fill:#D5D6DB;" width="129.127" height="8.376"/>
</g>
<rect x="129.585" y="164.762" transform="matrix(-0.9905 0.1377 -0.1377 -0.9905 468.0374 305.5289)" style="fill:#E56353;" width="187.735" height="8.376"/>
<path style="fill:#DC8744;" d="M107.437,152.187l-1.01-7.269c-9.229,0.337-17.901-2.146-26.005-7.446l6.065-9.673  c6.249,4.071,12.387,6.159,18.432,6.268l-2.685-19.319c-7.753-0.748-13.575-2.342-17.465-4.78  c-3.891-2.437-6.235-6.526-7.033-12.268c-0.798-5.741,0.551-10.716,4.062-14.929c3.512-4.209,8.462-6.925,14.859-8.153l-0.692-4.98  l6.369-0.885l0.706,5.077c7.376-0.48,14.626,1.048,21.751,4.593l-5.202,10.061c-4.818-2.511-9.826-3.776-15.041-3.799l2.602,18.719  l0.3-0.042c7.883,0.734,13.828,2.378,17.833,4.931c4.015,2.556,6.422,6.74,7.229,12.546c0.808,5.81-0.593,10.829-4.203,15.048  c-3.609,4.227-8.77,6.972-15.498,8.246l0.996,7.168L107.437,152.187z M91.478,88.889c-1.486,1.726-2.071,3.703-1.762,5.928  c0.309,2.224,1.218,3.891,2.727,4.998c1.501,1.113,4.202,2.005,8.088,2.684l-2.395-17.228  C95.183,85.954,92.963,87.159,91.478,88.889z M118.51,129.638c1.644-1.781,2.308-3.836,1.985-6.161  c-0.323-2.322-1.308-4.064-2.956-5.223c-1.656-1.158-4.556-2.055-8.701-2.698l2.491,17.921  C114.468,132.707,116.859,131.424,118.51,129.638z"/>
<polygon style="fill:#EBF0F3;" points="324.197,8.604 69.058,8.604 69.058,469.388 422.462,469.388 422.462,106.87 "/>
<polygon style="fill:#D5D6DB;" points="324.197,106.87 422.462,106.87 324.197,8.604 "/>
<polyline style="fill:#E1E6E9;" points="324.197,106.87 422.42,205.092 422.462,106.87 "/>
<path style="fill:#64798A;" d="M95.972,193.681v181.826h301.792V193.681H95.972z M389.386,223.568h-46.659v-21.509h46.659V223.568z   M283.721,337.243v-20.041h50.627v20.041H283.721z M334.349,345.62v21.509h-50.627V345.62H334.349z M334.349,231.946v20.041h-50.627  v-20.041H334.349z M283.721,223.568v-21.509h50.627v21.509H283.721z M283.721,280.405v-20.041h50.627v20.041H283.721z   M334.349,288.783v20.041h-50.627v-20.041H334.349z M275.343,251.987H104.349v-20.041h170.994V251.987L275.343,251.987z   M275.343,260.365v20.041H104.349v-20.041H275.343z M275.343,288.783v20.041H104.349v-20.041H275.343z M275.343,317.202v20.041  H104.349v-20.041H275.343z M342.726,317.202h46.659v20.041h-46.659V317.202z M342.726,308.824v-20.041h46.659v20.041H342.726z   M342.726,280.405v-20.041h46.659v20.041H342.726z M342.726,251.987v-20.041h46.659v20.041H342.726z M275.343,202.059v21.509  H104.349v-21.509H275.343z M104.349,345.62h170.994v21.509H104.349V345.62z M342.726,367.13V345.62h46.659v21.509H342.726z"/>
<rect x="316.626" y="411.597" style="fill:#27A2DB;" width="81.137" height="8.376"/>
<rect x="168.74" y="49.357" style="fill:#44C4A1;" width="77.005" height="8.376"/>
<g>
	<rect x="168.74" y="81.449" style="fill:#D5D6DB;" width="129.126" height="8.376"/>
	<rect x="168.74" y="113.562" style="fill:#D5D6DB;" width="129.126" height="8.376"/>
</g>
<rect x="139.418" y="162.381" style="fill:#E56353;" width="187.735" height="8.376"/>
<path style="fill:#DC8744;" d="M120.704,133.971v-7.339c-9.188-0.937-17.435-4.59-24.733-10.955l7.339-8.746  c5.629,4.893,11.421,7.805,17.394,8.746V96.172c-7.576-1.808-13.123-4.189-16.641-7.138c-3.518-2.949-5.277-7.322-5.277-13.119  c0-5.797,2.021-10.538,6.079-14.228c4.058-3.686,9.335-5.694,15.839-6.03V50.63h6.431v5.126c7.372,0.54,14.342,3.052,20.912,7.543  l-6.537,9.249c-4.426-3.15-9.212-5.093-14.375-5.833v18.899h0.303c7.707,1.812,13.369,4.258,16.985,7.339  c3.624,3.084,5.433,7.56,5.433,13.422c0,5.866-2.078,10.644-6.234,14.326c-4.156,3.69-9.646,5.698-16.486,6.034v7.237H120.704z   M113.611,69.079c-1.71,1.505-2.561,3.383-2.561,5.629c0,2.246,0.671,4.021,2.013,5.326c1.334,1.309,3.886,2.565,7.642,3.772V66.412  C117.685,66.682,115.321,67.57,113.611,69.079z M134.777,113.161c1.874-1.538,2.814-3.481,2.814-5.829  c0-2.344-0.736-4.205-2.209-5.58c-1.481-1.374-4.23-2.663-8.247-3.87v18.093C130.35,115.644,132.895,114.703,134.777,113.161z"/>
<g>
</g>
<g>
</g>
<g>
</g>
<g>
</g>
<g>
</g>
<g>
</g>
<g>
</g>
<g>
</g>
<g>
</g>
<g>
</g>
<g>
</g>
<g>
</g>
<g>
</g>
<g>
</g>
<g>
</g>
</svg>
