<?xml version="1.0" encoding="iso-8859-1"?>
<!-- Generator: Adobe Illustrator 19.0.0, SVG Export Plug-In . SVG Version: 6.00 Build 0)  -->
<svg xmlns="http://www.w3.org/2000/svg" xmlns:xlink="http://www.w3.org/1999/xlink" version="1.1" id="Layer_1" x="0px" y="0px" viewBox="0 0 513.067 513.067" style="enable-background:new 0 0 513.067 513.067;" xml:space="preserve">
<path style="fill:#415A6B;" d="M188.267,388.267v-12.8c-14.933-2.133-28.8-8.533-40.533-20.267l16-20.267  c9.6,7.467,17.067,12.8,24.533,14.933v-25.6c-11.733-3.2-21.333-7.467-26.667-12.8c-5.333-5.333-8.533-12.8-8.533-22.4  c0-9.6,3.2-18.133,9.6-24.533c6.4-6.4,14.933-10.667,25.6-11.733v-8.533H206.4v8.533c11.733,2.133,23.467,6.4,35.2,14.933  L227.733,288c-7.467-5.333-13.867-8.533-20.267-10.667v25.6c12.8,3.2,22.4,7.467,27.733,12.8c6.4,5.333,8.533,12.8,8.533,23.467  c0,9.6-3.2,18.133-9.6,24.533c-6.4,6.4-16,10.667-26.667,11.733V387.2h-19.2V388.267z M188.267,277.333  c-5.333,2.133-7.467,5.333-7.467,9.6s2.133,8.533,7.467,10.667V277.333z M216,341.333c0-2.133-1.067-4.267-2.133-6.4  c-1.067-2.133-3.2-3.2-7.467-4.267V352C212.8,349.867,216,346.667,216,341.333z"/>
<path style="fill:#8AD7F8;" d="M390.933,268.8l-19.2-49.067l-42.667,2.133c-9.6-13.867-21.333-25.6-33.067-35.2L300.267,144  l-48-21.333l-28.8,32c-16-3.2-32-3.2-48-1.067l-27.733-33.067l-49.067,19.2l2.133,43.733c-13.867,9.6-24.533,20.267-35.2,33.067  l-42.667-4.267l-21.333,48l32,28.8c-3.2,16-3.2,32-1.067,48l-32,27.733l19.2,49.067l42.667-2.133  c9.6,13.867,21.333,25.6,33.067,35.2L91.2,489.6l48,21.333l28.8-32c16,3.2,32,3.2,48,1.067l27.733,33.067l49.067-19.2l-2.133-42.667  c13.867-9.6,25.6-21.333,35.2-33.067l42.667,4.267l21.333-48l-32-28.8c3.2-16,3.2-32,1.067-48L390.933,268.8z M233.067,412.8  C179.733,433.067,120,407.467,99.733,354.133s5.333-112,58.667-133.333c53.333-20.267,112,5.333,133.333,58.667  S286.4,391.467,233.067,412.8z"/>
<path style="fill:#F3705A;" d="M512.533,125.867v-28.8L489.067,89.6c-2.133-8.533-5.333-17.067-10.667-24.533l10.667-21.333  l-19.2-21.333l-21.333,10.667c-7.467-4.267-16-8.533-24.533-10.667L415.467,0h-28.8L379.2,23.467  c-8.533,2.133-17.067,5.333-24.533,10.667l-21.333-10.667L312,42.667L322.667,64C318.4,71.467,314.133,80,312,88.533L288.533,96  v28.8L312,132.267c2.133,8.533,5.333,17.067,10.667,24.533L312,178.133l20.267,20.267l21.333-10.667  c7.467,4.267,16,8.533,24.533,10.667l7.467,23.467h28.8l7.467-23.467c8.533-2.133,17.067-5.333,24.533-10.667l21.333,10.667  L488,178.133L477.333,156.8c4.267-7.467,8.533-16,10.667-24.533L512.533,125.867z M401.6,148.267  c-20.267,0-37.333-17.067-37.333-37.333s16-36.267,37.333-36.267c20.267,0,37.333,17.067,37.333,37.333  S421.867,148.267,401.6,148.267z"/>
<g>
</g>
<g>
</g>
<g>
</g>
<g>
</g>
<g>
</g>
<g>
</g>
<g>
</g>
<g>
</g>
<g>
</g>
<g>
</g>
<g>
</g>
<g>
</g>
<g>
</g>
<g>
</g>
<g>
</g>
</svg>
