<?xml version="1.0" encoding="iso-8859-1"?>
<!-- Generator: Adobe Illustrator 19.0.0, SVG Export Plug-In . SVG Version: 6.00 Build 0)  -->
<svg xmlns="http://www.w3.org/2000/svg" xmlns:xlink="http://www.w3.org/1999/xlink" version="1.1" id="Layer_1" x="0px" y="0px" viewBox="0 0 512 512" style="enable-background:new 0 0 512 512;" xml:space="preserve">
<g>
	<path style="fill:#75BF4D;" d="M451.956,387.423c-33.106,0-60.041,26.935-60.041,60.042c0,33.108,26.935,60.044,60.041,60.044   c33.108,0,60.044-26.936,60.044-60.044C512,414.357,485.064,387.423,451.956,387.423z"/>
	<path style="fill:#75BF4D;" d="M60.041,387.423C26.935,387.423,0,414.357,0,447.464c0,33.108,26.935,60.044,60.041,60.044   c33.108,0,60.045-26.936,60.045-60.044C120.087,414.357,93.15,387.423,60.041,387.423z"/>
	<path style="fill:#75BF4D;" d="M255.998,387.423c-33.106,0-60.041,26.935-60.041,60.042c0,33.108,26.935,60.044,60.041,60.044   c33.108,0,60.045-26.936,60.045-60.044C316.043,414.357,289.106,387.423,255.998,387.423z"/>
</g>
<g>
	<path style="fill:#56A846;" d="M405.127,447.464c0-30.874,23.426-56.37,53.434-59.671c-2.171-0.239-4.373-0.371-6.606-0.371   c-33.106,0-60.041,26.935-60.041,60.042c0,33.108,26.935,60.044,60.041,60.044c2.233,0,4.435-0.132,6.606-0.371   C428.555,503.836,405.127,478.34,405.127,447.464z"/>
	<path style="fill:#56A846;" d="M13.213,447.464c0-30.874,23.425-56.37,53.434-59.671c-2.171-0.239-4.373-0.371-6.606-0.371   C26.935,387.423,0,414.357,0,447.464c0,33.108,26.935,60.044,60.041,60.044c2.233,0,4.435-0.132,6.606-0.371   C36.638,503.836,13.213,478.34,13.213,447.464z"/>
	<path style="fill:#56A846;" d="M209.17,447.464c0-30.874,23.425-56.37,53.434-59.671c-2.171-0.239-4.373-0.371-6.606-0.371   c-33.106,0-60.041,26.935-60.041,60.042c0,33.108,26.935,60.044,60.041,60.044c2.233,0,4.435-0.132,6.606-0.371   C232.596,503.836,209.17,478.34,209.17,447.464z"/>
</g>
<g>
	<path style="fill:#D9D8DA;" d="M451.958,370.98c-4.562,0-8.258-3.696-8.258-8.258v-56.867H68.299v56.867   c0,4.562-3.696,8.258-8.258,8.258s-8.258-3.696-8.258-8.258v-65.125c0-4.562,3.696-8.258,8.258-8.258h391.917   c4.562,0,8.258,3.696,8.258,8.258v65.125C460.216,367.284,456.519,370.98,451.958,370.98z"/>
	<path style="fill:#D9D8DA;" d="M256,370.98c-4.562,0-8.258-3.696-8.258-8.258V246.008c0-4.562,3.696-8.258,8.258-8.258   c4.562,0,8.258,3.696,8.258,8.258v116.714C264.258,367.284,260.562,370.98,256,370.98z"/>
</g>
<g>
	<path style="fill:#FFFFFF;" d="M252.471,471.544c-2.061,0-4.121-0.766-5.719-2.301l-16.809-16.14   c-3.29-3.159-3.396-8.387-0.238-11.676c3.158-3.291,8.387-3.397,11.677-0.238l11.08,10.639l22.547-21.725   c3.286-3.166,8.514-3.065,11.676,0.216c3.164,3.283,3.068,8.511-0.216,11.677l-28.267,27.237   C256.602,470.773,254.537,471.544,252.471,471.544z"/>
	<path style="fill:#FFFFFF;" d="M56.516,471.544c-2.061,0-4.121-0.766-5.719-2.301l-16.809-16.14   c-3.29-3.159-3.396-8.387-0.238-11.676c3.158-3.291,8.387-3.397,11.677-0.238l11.08,10.639l22.546-21.725   c3.286-3.166,8.514-3.065,11.676,0.216c3.164,3.283,3.068,8.511-0.216,11.677l-28.267,27.237   C60.647,470.773,58.582,471.544,56.516,471.544z"/>
	<path style="fill:#FFFFFF;" d="M448.429,471.544c-2.061,0-4.121-0.766-5.719-2.301l-16.809-16.14   c-3.29-3.159-3.396-8.387-0.238-11.676c3.158-3.291,8.387-3.397,11.676-0.238l11.08,10.639l22.547-21.725   c3.286-3.166,8.513-3.065,11.677,0.216c3.164,3.283,3.068,8.511-0.216,11.677l-28.267,27.237   C452.561,470.773,450.495,471.544,448.429,471.544z"/>
</g>
<path style="fill:#6598CB;" d="M334.578,185.68c0-0.63-0.018-1.246-0.039-1.861c-0.004-0.086-0.002-0.175-0.008-0.261  c-0.012-0.312-0.037-0.614-0.057-0.922c-0.023-0.391-0.043-0.787-0.076-1.172c-0.014-0.161-0.035-0.317-0.051-0.477  c-0.052-0.526-0.105-1.05-0.171-1.561c-0.006-0.044-0.014-0.087-0.02-0.131c-1.404-10.5-6.185-18.168-11.559-23.393  c-0.024-0.025-0.05-0.048-0.074-0.074c-0.283-0.271-0.564-0.538-0.849-0.798c-0.14-0.129-0.282-0.252-0.424-0.377  c-0.163-0.148-0.329-0.295-0.493-0.435c-0.272-0.236-0.546-0.464-0.82-0.686c-0.03-0.023-0.061-0.048-0.09-0.073  c-3.447-2.787-6.897-4.601-9.604-5.536c-0.012-0.003-0.023-0.009-0.035-0.012l-0.07-0.026c-0.009-0.002-0.018-0.006-0.025-0.009  l-35.505-14.237l-8.87,9.206l-9.072,8.835l-9.071-8.835l-8.87-9.206l-35.506,14.237c-0.008,0.003-0.018,0.007-0.025,0.009  l-0.07,0.026c-0.011,0.003-0.023,0.009-0.034,0.012c-2.708,0.936-6.157,2.749-9.605,5.536c-0.029,0.023-0.061,0.05-0.089,0.073  c-0.274,0.222-0.548,0.45-0.82,0.686c-0.165,0.141-0.331,0.288-0.494,0.435c-0.142,0.123-0.283,0.248-0.424,0.377  c-0.284,0.259-0.566,0.527-0.848,0.798c-0.025,0.025-0.05,0.05-0.076,0.074c-5.372,5.226-10.153,12.894-11.558,23.393  c-0.007,0.044-0.014,0.087-0.02,0.131c-0.069,0.511-0.12,1.035-0.172,1.561c-0.014,0.16-0.036,0.315-0.05,0.477  c-0.033,0.385-0.053,0.781-0.077,1.172c-0.019,0.307-0.044,0.61-0.058,0.922c-0.003,0.086-0.001,0.175-0.006,0.261  c-0.022,0.616-0.04,1.231-0.04,1.861v5.643h0.001v17.246c0.231,2.691,1.625,7.423,8.584,7.423h8.484h121.69h8.485  c6.959,0,8.352-4.732,8.584-7.423v-17.246l0,0v-5.643H334.578z"/>
<path style="fill:#4982AA;" d="M238.551,134.04l-35.321,13.833l-0.11,0.039c-9.05,3.228-24.369,14.815-24.369,37.769v22.889  c0.231,2.691,1.625,7.423,8.584,7.423h1.789V185.68c0-22.954,15.318-34.541,24.368-37.769l0.11-0.039l27.922-10.936L238.551,134.04z  "/>
<path style="fill:#694B4B;" d="M258.493,4.493h-3.828c-26.145,0-47.413,21.272-47.413,47.416v6.323v5.919v10.001  c0,0,10.794-1.071,12.122-6.306l-0.008-0.006c0.456-0.495,0.838-1.061,1.108-1.692c6.123-0.185,34.726-0.407,51.06-20.134  c1.949,5.702,8.544,16.5,21.232,19.901c0.261,0.688,0.65,1.308,1.125,1.847l-0.106,0.085c1.327,5.235,12.123,6.306,12.123,6.306  V64.112v-5.88v-6.323C305.907,25.765,284.637,4.493,258.493,4.493z M294.24,64.441l0.456-0.33h0.065l-0.744,0.551L294.24,64.441z   M294.009,64.583l0.052-0.161l0.16-0.312h0.065l-0.189,0.39L294.009,64.583z M292.751,65.556l-0.018-0.025l1.168-0.846l-0.276,0.266  l-0.854,0.632L292.751,65.556z M293.716,65.281l-0.368,0.758l-0.004-0.002l-0.053-0.023c-0.008-0.003-0.019-0.01-0.024-0.014  l0.597-1.186l0.017-0.015L293.716,65.281z"/>
<path style="fill:#563B3B;" d="M215.608,64.15v-5.919v-6.323c0-25.385,20.054-46.17,45.15-47.357  c-0.752-0.035-1.506-0.058-2.266-0.058h-3.828c-26.145,0-47.413,21.272-47.413,47.416v6.323v5.919v10.001  c0,0,4.769-0.476,8.357-2.33V64.15H215.608z"/>
<path style="fill:#FBCB99;" d="M300.213,67.277c-1.813-0.566-3.785-0.236-5.316,0.889c-1.527,1.125-2.431,2.912-2.431,4.811v17.012  c0,1.898,0.902,3.683,2.431,4.806c1.038,0.764,2.28,1.163,3.54,1.163c0.593,0,1.194-0.088,1.774-0.27  c1.144-0.356,2.268-0.871,3.342-1.529c0.63-0.388,1.185-0.891,1.632-1.479c0.658-0.34,1.25-0.799,1.74-1.353  c2.412-2.728,3.741-6.223,3.741-9.846C310.666,74.934,306.466,69.226,300.213,67.277z"/>
<path style="fill:#EDBA89;" d="M218.434,68.166c-1.53-1.124-3.503-1.453-5.315-0.89c-6.252,1.95-10.454,7.658-10.454,14.204  c0,6.548,4.202,12.257,10.454,14.206c0.581,0.182,1.18,0.27,1.777,0.27c1.257,0,2.498-0.397,3.538-1.162  c1.531-1.124,2.433-2.91,2.433-4.807V72.974C220.867,71.077,219.963,69.291,218.434,68.166z"/>
<path style="fill:#FBCB99;" d="M272.965,119.644c-1.174-1.124-2.748-1.713-4.384-1.653l-0.204,0.01  c-0.364,0.013-0.728,0.059-1.082,0.138c-2.308,0.513-4.656,0.773-6.979,0.773h-7.299c-2.394,0-4.811-0.274-7.187-0.819  c-1.774-0.409-3.634,0.015-5.054,1.148c-1.421,1.132-2.251,2.853-2.251,4.669v17.366l-0.003,0.059  c-0.095,1.722,0.559,3.402,1.795,4.607l11.996,11.684c1.115,1.087,2.61,1.691,4.164,1.691c0.032,0,0.065,0,0.096,0  c1.589-0.025,3.102-0.683,4.203-1.828l12.358-12.828c1.072-1.112,1.67-2.595,1.67-4.14v-16.563  C274.804,122.328,274.14,120.77,272.965,119.644z"/>
<path style="fill:#EDBA89;" d="M257.686,155.832L245.69,144.15c-1.237-1.203-1.891-2.883-1.796-4.607l0.006-0.059v-17.365  c0-1.528,0.59-2.981,1.623-4.079c-1.679-0.293-3.407,0.137-4.747,1.202c-1.421,1.132-2.251,2.853-2.251,4.669v17.366l-0.003,0.059  c-0.095,1.722,0.559,3.402,1.795,4.607l11.996,11.684c1.115,1.087,2.61,1.691,4.164,1.691c0.032,0,0.065,0,0.096,0  c1.589-0.025,3.102-0.683,4.203-1.828l0.054-0.056C259.652,157.229,258.553,156.677,257.686,155.832z"/>
<path style="fill:#FBCB99;" d="M291.567,62.404c-0.722-0.269-1.403-0.581-2.069-0.916c-10.031-4.681-14.195-10.767-15.872-14.4  c-0.099-0.137-0.198-0.288-0.301-0.478c-1.199-2.204-3.068-0.809-3.068-0.809l-0.008-0.004c-9.368,7.186-19.6,11.387-28.107,13.833  c-3.311,0.979-6.484,1.687-9.353,2.2c-5.701,1.047-9.368,1.184-9.368,1.184c-3.123,0.226-5.542,2.825-5.542,5.956v24.359  c0,19.376,15.763,35.136,35.138,35.136h7.299c19.372,0,35.135-15.761,35.135-35.136V67.999  C295.452,65.506,293.901,63.275,291.567,62.404z"/>
<path style="fill:#EDBA89;" d="M225.044,93.328V68.969c0-3.13,2.418-5.73,5.541-5.956c0,0,3.665-0.137,9.368-1.184  c2.869-0.513,6.042-1.221,9.355-2.2c7.528-2.165,16.408-5.709,24.848-11.477c-0.199-0.372-0.375-0.728-0.53-1.065  c-0.099-0.137-0.198-0.288-0.301-0.478c-1.199-2.204-3.068-0.809-3.068-0.809l-0.008-0.004c-9.368,7.186-19.6,11.387-28.107,13.833  c-3.311,0.979-6.484,1.687-9.353,2.2c-5.701,1.047-9.368,1.184-9.368,1.184c-3.123,0.226-5.542,2.825-5.542,5.956v24.359  c0,19.376,15.763,35.136,35.138,35.136h7.161C240.806,128.464,225.044,112.703,225.044,93.328z"/>
<g>
</g>
<g>
</g>
<g>
</g>
<g>
</g>
<g>
</g>
<g>
</g>
<g>
</g>
<g>
</g>
<g>
</g>
<g>
</g>
<g>
</g>
<g>
</g>
<g>
</g>
<g>
</g>
<g>
</g>
</svg>
