<?xml version="1.0" encoding="iso-8859-1"?>
<!-- Generator: Adobe Illustrator 19.0.0, SVG Export Plug-In . SVG Version: 6.00 Build 0)  -->
<svg xmlns="http://www.w3.org/2000/svg" xmlns:xlink="http://www.w3.org/1999/xlink" version="1.1" id="Layer_1" x="0px" y="0px" viewBox="0 0 477.175 477.175" style="enable-background:new 0 0 477.175 477.175;" xml:space="preserve">
<path style="fill:#F6C358;" d="M205.615,107.606L205.615,107.606c0-12.14-9.841-21.982-21.982-21.982H56.628  c-12.14,0-21.982,9.842-21.982,21.982v347.587c0,12.14,9.842,21.982,21.982,21.982h363.919c12.14,0,21.982-9.842,21.982-21.982  V151.569c0-12.14-9.842-21.982-21.982-21.982h-192.95C215.456,129.588,205.615,119.746,205.615,107.606z"/>
<rect x="74.102" y="0" style="fill:#EBF0F3;" width="328.96" height="397.107"/>
<rect x="206.643" y="120.494" style="fill:#E56353;" width="33.142" height="44.902"/>
<rect x="251.29" y="69.781" style="fill:#27A2DB;" width="33.142" height="95.59"/>
<rect x="295.951" y="18.581" style="fill:#44C4A1;" width="33.142" height="146.836"/>
<rect x="340.582" y="87.312" style="fill:#FCD462;" width="33.142" height="78.09"/>
<rect x="206.643" y="151.301" style="fill:#D15241;" width="33.142" height="14.095"/>
<rect x="251.29" y="151.301" style="fill:#2D93BA;" width="33.147" height="14.095"/>
<rect x="295.951" y="151.301" style="fill:#3EA69B;" width="33.142" height="14.095"/>
<rect x="340.582" y="151.301" style="fill:#F6C358;" width="33.142" height="14.095"/>
<path style="fill:#DC8744;" d="M132.503,165.397v-10.273c-12.861-1.313-24.401-6.426-34.627-15.344l10.269-12.247  c7.888,6.85,16.005,10.934,24.359,12.247v-27.307c-10.608-2.533-18.369-5.863-23.3-9.993c-4.923-4.13-7.388-10.252-7.388-18.369  s2.838-14.755,8.515-19.919c5.677-5.16,13.065-7.973,22.173-8.447v-7.036h9.006v7.181c10.32,0.75,20.08,4.27,29.281,10.557  l-9.15,12.95c-6.193-4.41-12.904-7.134-20.131-8.168v26.464h0.424c10.786,2.533,18.716,5.96,23.782,10.277  c5.075,4.317,7.608,10.578,7.608,18.792c0,8.21-2.915,14.895-8.727,20.055c-5.821,5.164-13.514,7.977-23.088,8.447v10.133H132.503z   M122.573,74.537c-2.389,2.114-3.584,4.74-3.584,7.884s0.932,5.63,2.813,7.46c1.872,1.83,5.439,3.588,10.701,5.278v-24.35  C128.275,71.186,124.97,72.428,122.573,74.537z M152.21,136.26c2.618-2.156,3.94-4.876,3.94-8.163c0-3.283-1.034-5.888-3.101-7.812  c-2.067-1.923-5.914-3.728-11.54-5.418v25.337C146.016,139.734,149.575,138.42,152.21,136.26z"/>
<g>
	<rect x="95.293" y="186.865" style="fill:#D5D6DB;" width="286.592" height="8.678"/>
	<rect x="95.293" y="217.011" style="fill:#D5D6DB;" width="286.592" height="8.678"/>
	<rect x="95.293" y="247.158" style="fill:#D5D6DB;" width="286.592" height="8.678"/>
	<rect x="95.293" y="277.294" style="fill:#D5D6DB;" width="286.592" height="8.678"/>
	<rect x="95.293" y="307.451" style="fill:#D5D6DB;" width="286.592" height="8.678"/>
</g>
<path style="fill:#FCD462;" d="M424.24,477.175H52.935c-10.598,0-19.687-7.562-21.615-17.983L0.373,239.831  c-2.499-13.512,7.873-25.98,21.615-25.98h433.199c13.742,0,24.114,12.467,21.615,25.98l-30.947,219.361  C443.928,469.613,434.838,477.175,424.24,477.175z"/>
<g>
</g>
<g>
</g>
<g>
</g>
<g>
</g>
<g>
</g>
<g>
</g>
<g>
</g>
<g>
</g>
<g>
</g>
<g>
</g>
<g>
</g>
<g>
</g>
<g>
</g>
<g>
</g>
<g>
</g>
</svg>
