<?xml version="1.0" encoding="iso-8859-1"?>
<!-- Generator: Adobe Illustrator 19.0.0, SVG Export Plug-In . SVG Version: 6.00 Build 0)  -->
<svg xmlns="http://www.w3.org/2000/svg" xmlns:xlink="http://www.w3.org/1999/xlink" version="1.1" id="Layer_1" x="0px" y="0px" viewBox="0 0 491.52 491.52" style="enable-background:new 0 0 491.52 491.52;" xml:space="preserve">
<path style="fill:#64798A;" d="M398.905,39.239H92.615c-10.079,0-18.25,8.17-18.25,18.249v415.783  c0,10.079,8.171,18.249,18.25,18.249h306.289c10.079,0,18.25-8.17,18.25-18.249V57.488  C417.154,47.409,408.983,39.239,398.905,39.239z"/>
<rect x="94.444" y="63.222" style="fill:#EBF0F3;" width="302.643" height="409.047"/>
<rect x="94.444" y="54.067" style="fill:#FFFFFF;" width="302.643" height="409.047"/>
<rect x="151.219" y="39.24" style="fill:#3A556A;" width="189.076" height="14.828"/>
<rect x="151.219" y="54.067" style="fill:#E1E6E9;" width="189.076" height="32.584"/>
<path style="fill:#DC8744;" d="M319.317,27.124h-45.694C273.178,12.079,260.912,0,245.761,0c-15.155,0-27.419,12.079-27.864,27.124  h-45.694c-4.185,0-7.575,3.391-7.575,7.574v38.547h162.264V34.699C326.892,30.515,323.501,27.124,319.317,27.124z"/>
<rect x="109.286" y="359.475" style="fill:#EBF0F3;" width="272.947" height="91.551"/>
<path style="fill:#64798A;" d="M364.217,374.359l-23.831-3.892l-1.507,9.212l13.515,2.206l-43.228,34.485l-51.102-24.931  c-1.452-0.693-3.141-0.614-4.509,0.228l-43.032,26.681l-46.599-20.432c-1.732-0.757-3.767-0.392-5.128,0.933l-35.407,34.526  l6.514,6.684l33.158-32.332l45.961,20.155c1.398,0.614,3.02,0.501,4.332-0.307l42.929-26.617l51.442,25.095  c1.616,0.784,3.549,0.58,4.958-0.547l44.211-35.27l-1.926,11.812l9.212,1.501l3.889-23.834  C368.483,377.172,366.757,374.775,364.217,374.359z"/>
<circle style="fill:#FCD462;" cx="210.483" cy="422.605" r="9.882"/>
<circle style="fill:#27A2DB;" cx="161.69" cy="402.842" r="9.882"/>
<circle style="fill:#44C4A1;" cx="257.485" cy="397.363" r="9.882"/>
<g>
	<circle style="fill:#E56353;" cx="309.197" cy="420.608" r="9.882"/>
	<path style="fill:#E56353;" d="M135.671,188.071v-7.828c-9.801-0.999-18.598-4.896-26.383-11.686l7.828-9.329   c6.004,5.219,12.183,8.326,18.554,9.329v-20.806c-8.081-1.929-13.999-4.468-17.751-7.615c-3.753-3.146-5.629-7.811-5.629-13.994   c0-6.183,2.156-11.241,6.484-15.177c4.329-3.932,9.958-6.074,16.896-6.432v-5.363h6.86v5.468   c7.863,0.576,15.299,3.255,22.307,8.047l-6.973,9.866c-4.721-3.36-9.827-5.433-15.334-6.223v20.16h0.323   c8.221,1.933,14.26,4.543,18.118,7.828c3.866,3.29,5.795,8.064,5.795,14.317c0,6.257-2.217,11.354-6.65,15.281   c-4.433,3.936-10.289,6.079-17.585,6.436v7.719H135.671z M128.105,118.851c-1.824,1.606-2.732,3.609-2.732,6.004   c0,2.396,0.716,4.289,2.147,5.681c1.423,1.396,4.145,2.736,8.151,4.023v-18.554C132.451,116.294,129.929,117.24,128.105,118.851z    M150.682,165.873c1.999-1.641,3.002-3.713,3.002-6.218c0-2.5-0.785-4.486-2.356-5.952c-1.58-1.466-4.512-2.841-8.797-4.128v19.3   C145.961,168.522,148.675,167.518,150.682,165.873z"/>
</g>
<g>
	<rect x="186.419" y="113.408" style="fill:#D5D6DB;" width="195.789" height="8.934"/>
	<rect x="186.419" y="148.204" style="fill:#D5D6DB;" width="195.789" height="8.934"/>
	<rect x="186.419" y="183.02" style="fill:#D5D6DB;" width="195.789" height="8.934"/>
	<rect x="109.286" y="217.825" style="fill:#D5D6DB;" width="272.947" height="8.934"/>
	<rect x="109.286" y="252.621" style="fill:#D5D6DB;" width="272.947" height="8.934"/>
	<rect x="109.286" y="287.437" style="fill:#D5D6DB;" width="272.947" height="8.934"/>
	<rect x="109.286" y="322.263" style="fill:#D5D6DB;" width="195.789" height="8.934"/>
</g>
<g>
</g>
<g>
</g>
<g>
</g>
<g>
</g>
<g>
</g>
<g>
</g>
<g>
</g>
<g>
</g>
<g>
</g>
<g>
</g>
<g>
</g>
<g>
</g>
<g>
</g>
<g>
</g>
<g>
</g>
</svg>
