<?xml version="1.0" encoding="iso-8859-1"?>
<!-- Generator: Adobe Illustrator 19.0.0, SVG Export Plug-In . SVG Version: 6.00 Build 0)  -->
<svg xmlns="http://www.w3.org/2000/svg" xmlns:xlink="http://www.w3.org/1999/xlink" version="1.1" id="Layer_1" x="0px" y="0px" viewBox="0 0 512.002 512.002" style="enable-background:new 0 0 512.002 512.002;" xml:space="preserve">
<path style="fill:#6598CB;" d="M329.584,206.183c0-0.596-0.017-1.178-0.035-1.758c-0.004-0.081-0.002-0.166-0.006-0.247  c-0.013-0.295-0.036-0.58-0.056-0.871c-0.024-0.37-0.041-0.742-0.072-1.107c-0.015-0.153-0.033-0.298-0.049-0.449  c-0.049-0.497-0.097-0.992-0.16-1.475c-0.004-0.042-0.013-0.081-0.019-0.124c-1.328-9.916-5.842-17.159-10.917-22.094  c-0.022-0.022-0.047-0.046-0.069-0.069c-0.267-0.255-0.533-0.508-0.802-0.753c-0.131-0.121-0.265-0.239-0.401-0.357  c-0.155-0.138-0.311-0.277-0.465-0.41c-0.256-0.223-0.515-0.438-0.776-0.648c-0.028-0.021-0.058-0.045-0.084-0.067  c-3.257-2.633-6.516-4.346-9.069-5.23c-0.013-0.002-0.022-0.007-0.033-0.011l-0.068-0.025c-0.009-0.002-0.017-0.005-0.022-0.007  l-33.535-13.446l-8.376,8.694L256,174.075l-8.565-8.345l-8.378-8.694l-33.534,13.446c0,0-0.016,0.005-0.026,0.007l-0.065,0.025  c-0.011,0.003-0.022,0.009-0.022,0.009c-2.566,0.887-5.823,2.6-9.079,5.232c-0.028,0.022-0.058,0.046-0.084,0.067  c-0.259,0.21-0.519,0.425-0.776,0.648c-0.158,0.134-0.314,0.272-0.469,0.41c-0.134,0.118-0.267,0.236-0.401,0.357  c-0.266,0.246-0.533,0.498-0.8,0.753c-0.022,0.024-0.046,0.047-0.072,0.069c-5.073,4.935-9.587,12.177-10.914,22.094  c-0.006,0.043-0.014,0.082-0.02,0.124c-0.063,0.483-0.111,0.979-0.16,1.475c-0.015,0.151-0.036,0.296-0.049,0.449  c-0.029,0.364-0.048,0.737-0.072,1.107c-0.017,0.292-0.042,0.576-0.056,0.871c-0.002,0.081,0,0.166-0.004,0.247  c-0.021,0.58-0.037,1.162-0.037,1.758v5.328h0.002V227.8c0.218,2.541,1.534,7.011,8.106,7.011h8.014h114.924h8.015  c6.574,0,7.887-4.469,8.107-7.011v-16.288l0,0L329.584,206.183L329.584,206.183z"/>
<path style="fill:#4982AA;" d="M238.893,157.412l-33.358,13.063l-0.105,0.035c-8.546,3.05-23.013,13.993-23.013,35.672v21.617  c0.218,2.541,1.534,7.011,8.106,7.011h1.689v-28.628c0-21.679,14.468-32.622,23.013-35.672l0.107-0.035l26.369-10.329  L238.893,157.412z"/>
<path style="fill:#694B4B;" d="M257.727,35.063h-3.616c-24.692,0-44.779,20.09-44.779,44.78v5.971v5.591v9.445  c0,0,10.195-1.012,11.45-5.954l-0.009-0.006c0.432-0.468,0.792-1.002,1.046-1.598c5.781-0.173,32.797-0.383,48.224-19.016  c1.839,5.385,8.069,15.583,20.051,18.796c0.248,0.649,0.613,1.235,1.062,1.743l-0.099,0.081c1.253,4.943,11.448,5.954,11.448,5.954  v-9.484v-5.553v-5.971C302.507,55.153,282.417,35.063,257.727,35.063z M291.488,91.681l0.432-0.313h0.06l-0.701,0.52L291.488,91.681  z M291.27,91.813l0.048-0.151l0.152-0.295h0.06l-0.178,0.37L291.27,91.813z M290.08,92.733l-0.015-0.022l1.102-0.798l-0.26,0.251  l-0.807,0.597L290.08,92.733z M290.992,92.473l-0.345,0.716c0,0-0.002-0.001-0.004-0.002l-0.051-0.022  c-0.006-0.003-0.019-0.009-0.023-0.013l0.563-1.122l0.015-0.014L290.992,92.473z"/>
<path style="fill:#563B3B;" d="M217.225,91.406v-5.591v-5.971c0-23.974,18.94-43.604,42.641-44.725  c-0.709-0.034-1.421-0.056-2.139-0.056h-3.616c-24.692,0-44.779,20.09-44.779,44.78v5.971v5.591v9.445c0,0,4.506-0.449,7.893-2.202  V91.406z"/>
<path style="fill:#FBCB99;" d="M297.128,94.36c-1.713-0.534-3.574-0.222-5.02,0.839c-1.442,1.062-2.297,2.749-2.297,4.542v16.067  c0,1.794,0.854,3.478,2.297,4.54c0.98,0.721,2.154,1.096,3.34,1.096c0.563,0,1.129-0.082,1.677-0.254  c1.082-0.335,2.143-0.824,3.157-1.444c0.595-0.366,1.118-0.841,1.541-1.396c0.622-0.322,1.179-0.755,1.643-1.278  c2.277-2.577,3.534-5.878,3.534-9.299C307.002,101.591,303.033,96.199,297.128,94.36z"/>
<path style="fill:#EDBA89;" d="M219.896,95.198c-1.446-1.061-3.31-1.373-5.023-0.841c-5.902,1.842-9.87,7.233-9.87,13.416  c0,6.185,3.968,11.575,9.87,13.417c0.551,0.172,1.116,0.254,1.679,0.254c1.187,0,2.361-0.376,3.344-1.096  c1.444-1.062,2.297-2.746,2.297-4.54v-16.07C222.193,97.947,221.339,96.26,219.896,95.198z"/>
<path style="fill:#FBCB99;" d="M271.396,143.817c-1.11-1.061-2.597-1.618-4.142-1.562l-0.193,0.01  c-0.345,0.012-0.687,0.057-1.022,0.13c-2.179,0.483-4.398,0.731-6.592,0.731h-6.891c-2.261,0-4.544-0.261-6.789-0.776  c-1.674-0.386-3.432,0.015-4.775,1.085c-1.341,1.069-2.124,2.695-2.124,4.41v16.4l-0.004,0.057c-0.089,1.626,0.528,3.213,1.694,4.35  l11.329,11.035c1.054,1.026,2.468,1.597,3.935,1.597c0.029,0,0.061,0,0.091,0c1.499-0.024,2.93-0.645,3.967-1.726l11.674-12.116  c1.012-1.049,1.577-2.451,1.577-3.908v-15.644C273.132,146.351,272.506,144.878,271.396,143.817z"/>
<path style="fill:#EDBA89;" d="M256.966,177.993l-11.329-11.034c-1.169-1.137-1.787-2.722-1.699-4.35l0.006-0.056v-16.402  c0-1.443,0.557-2.816,1.534-3.853c-1.588-0.277-3.219,0.129-4.484,1.136c-1.341,1.069-2.124,2.695-2.124,4.41v16.4l-0.004,0.057  c-0.089,1.626,0.528,3.213,1.694,4.35l11.329,11.035c1.054,1.026,2.468,1.597,3.935,1.597c0.029,0,0.061,0,0.091,0  c1.499-0.023,2.93-0.645,3.967-1.726l0.051-0.053C258.822,179.311,257.784,178.791,256.966,177.993z"/>
<path style="fill:#FBCB99;" d="M288.962,89.757c-0.683-0.253-1.324-0.55-1.953-0.865c-9.474-4.421-13.405-10.171-14.991-13.601  c-0.093-0.128-0.186-0.272-0.284-0.45c-1.133-2.082-2.898-0.765-2.898-0.765l-0.006-0.004c-8.848,6.786-18.512,10.754-26.548,13.063  c-3.126,0.924-6.121,1.593-8.832,2.078c-5.384,0.989-8.848,1.118-8.848,1.118c-2.947,0.213-5.233,2.668-5.233,5.625v23.004  c0,18.3,14.889,33.184,33.187,33.184h6.891c18.296,0,33.184-14.884,33.184-33.184v-23.92  C292.632,92.687,291.167,90.579,288.962,89.757z"/>
<path style="fill:#EDBA89;" d="M226.136,118.961V95.957c0-2.957,2.285-5.412,5.231-5.625c0,0,3.464-0.129,8.848-1.118  c2.71-0.485,5.706-1.154,8.835-2.078c7.109-2.044,15.497-5.391,23.469-10.838c-0.189-0.351-0.357-0.688-0.503-1.005  c-0.093-0.128-0.186-0.272-0.284-0.45c-1.133-2.082-2.898-0.765-2.898-0.765l-0.006-0.004c-8.848,6.786-18.512,10.754-26.548,13.063  c-3.126,0.924-6.121,1.593-8.832,2.078c-5.384,0.989-8.848,1.118-8.848,1.118c-2.947,0.213-5.233,2.668-5.233,5.625v23.004  c0,18.3,14.889,33.184,33.187,33.184h6.762C241.023,152.146,226.136,137.261,226.136,118.961z"/>
<path style="fill:#6598CB;" d="M420.792,327.245c0-0.595-0.017-1.177-0.036-1.757c-0.004-0.082-0.002-0.167-0.006-0.249  c-0.013-0.294-0.035-0.579-0.054-0.87c-0.022-0.37-0.04-0.742-0.072-1.107c-0.014-0.153-0.034-0.299-0.048-0.45  c-0.049-0.497-0.098-0.992-0.161-1.474c-0.004-0.042-0.013-0.081-0.019-0.124c-1.327-9.916-5.841-17.159-10.917-22.094  c-0.023-0.022-0.047-0.046-0.069-0.071c-0.267-0.254-0.532-0.507-0.801-0.752c-0.134-0.122-0.266-0.239-0.401-0.357  c-0.155-0.138-0.311-0.278-0.466-0.411c-0.257-0.222-0.516-0.437-0.777-0.648c-0.028-0.021-0.057-0.045-0.085-0.067  c-3.255-2.633-6.514-4.346-9.067-5.23c-0.013-0.002-0.023-0.007-0.034-0.011l-0.067-0.025c0,0-0.018-0.006-0.024-0.009  l-33.534-13.446l-8.377,8.695l-8.568,8.345l-8.566-8.345l-8.378-8.695l-33.534,13.446c0,0-0.016,0.006-0.025,0.009l-0.065,0.025  c-0.012,0.003-0.023,0.009-0.033,0.011c-2.556,0.883-5.813,2.597-9.069,5.23c-0.028,0.022-0.058,0.047-0.085,0.067  c-0.257,0.21-0.518,0.425-0.774,0.648c-0.157,0.134-0.313,0.273-0.468,0.411c-0.134,0.117-0.268,0.235-0.401,0.357  c-0.267,0.246-0.533,0.498-0.8,0.752c-0.023,0.025-0.047,0.048-0.072,0.071c-5.074,4.935-9.588,12.177-10.916,22.094  c-0.006,0.043-0.013,0.082-0.018,0.124c-0.065,0.482-0.114,0.977-0.161,1.474c-0.014,0.151-0.035,0.296-0.048,0.45  c-0.03,0.364-0.05,0.737-0.073,1.107c-0.017,0.291-0.042,0.576-0.054,0.87c-0.002,0.081,0,0.166-0.005,0.249  c-0.021,0.58-0.037,1.162-0.037,1.757v5.329h0.002v16.288c0.218,2.541,1.534,7.011,8.106,7.011h8.013H404.67h8.014  c6.574,0,7.888-4.469,8.107-7.011v-16.288l0,0v-5.329H420.792z"/>
<path style="fill:#4982AA;" d="M330.102,278.475l-33.36,13.063l-0.103,0.036c-8.546,3.049-23.014,13.993-23.014,35.67v21.618  c0.218,2.541,1.534,7.011,8.106,7.011h1.69v-28.629c0-21.678,14.466-32.621,23.013-35.67l0.106-0.036l26.37-10.328L330.102,278.475z  "/>
<path style="fill:#694B4B;" d="M348.935,156.126h-3.615c-24.692,0-44.779,20.09-44.779,44.78v5.971v5.59v9.446  c0,0,10.193-1.012,11.449-5.955l-0.007-0.005c0.431-0.468,0.79-1.003,1.047-1.598c5.781-0.174,32.796-0.385,48.223-19.016  c1.839,5.385,8.068,15.583,20.051,18.796c0.248,0.649,0.614,1.235,1.063,1.743l-0.098,0.08c1.252,4.944,11.448,5.955,11.448,5.955  v-9.484v-5.553v-5.971C393.715,176.216,373.626,156.126,348.935,156.126z M382.697,212.742l0.431-0.312h0.06l-0.701,0.52  L382.697,212.742z M382.478,212.876l0.049-0.151l0.151-0.295h0.061l-0.179,0.37L382.478,212.876z M381.289,213.796l-0.016-0.022  l1.102-0.798l-0.26,0.251l-0.808,0.596L381.289,213.796z M382.201,213.536l-0.346,0.716c0,0-0.002-0.001-0.004-0.002l-0.051-0.022  c-0.006-0.003-0.018-0.009-0.024-0.013l0.563-1.122l0.016-0.014L382.201,213.536z"/>
<path style="fill:#563B3B;" d="M308.433,212.469v-5.59v-5.971c0-23.974,18.939-43.604,42.64-44.726  c-0.709-0.033-1.421-0.054-2.139-0.054h-3.615c-24.692,0-44.779,20.09-44.779,44.78v5.971v5.59v9.446c0,0,4.505-0.45,7.893-2.201  V212.469z"/>
<path style="fill:#FBCB99;" d="M388.336,215.423c-1.713-0.535-3.574-0.222-5.021,0.837c-1.442,1.062-2.297,2.75-2.297,4.543v16.067  c0,1.792,0.854,3.478,2.297,4.54c0.981,0.721,2.155,1.096,3.342,1.096c0.562,0,1.128-0.082,1.676-0.255  c1.082-0.334,2.144-0.823,3.157-1.443c0.595-0.365,1.12-0.841,1.54-1.395c0.623-0.322,1.18-0.755,1.644-1.278  c2.279-2.577,3.534-5.88,3.534-9.3C398.209,222.654,394.242,217.262,388.336,215.423z"/>
<path style="fill:#EDBA89;" d="M311.103,216.26c-1.446-1.06-3.31-1.373-5.022-0.84c-5.904,1.842-9.872,7.233-9.872,13.415  c0,6.185,3.967,11.576,9.872,13.416c0.551,0.173,1.116,0.255,1.679,0.255c1.187,0,2.36-0.376,3.342-1.096  c1.444-1.062,2.297-2.747,2.297-4.54v-16.069C313.4,219.011,312.547,217.322,311.103,216.26z"/>
<path style="fill:#FBCB99;" d="M362.603,264.879c-1.109-1.061-2.596-1.618-4.142-1.562l-0.192,0.01  c-0.345,0.013-0.687,0.057-1.022,0.13c-2.179,0.484-4.397,0.731-6.591,0.731h-6.892c-2.261,0-4.544-0.26-6.788-0.774  c-1.675-0.386-3.432,0.015-4.774,1.085c-1.342,1.069-2.125,2.693-2.125,4.409v16.401l-0.004,0.057  c-0.089,1.627,0.529,3.213,1.695,4.35l11.329,11.034c1.053,1.027,2.467,1.598,3.933,1.598c0.03,0,0.063,0,0.092,0  c1.5-0.025,2.93-0.645,3.968-1.726l11.673-12.116c1.012-1.05,1.578-2.451,1.578-3.909v-15.644  C364.34,267.414,363.713,265.94,362.603,264.879z"/>
<path style="fill:#EDBA89;" d="M348.173,299.056l-11.326-11.034c-1.169-1.137-1.787-2.722-1.699-4.351l0.006-0.056v-16.401  c0-1.443,0.558-2.817,1.534-3.853c-1.587-0.277-3.219,0.129-4.483,1.137c-1.342,1.069-2.125,2.693-2.125,4.409v16.401l-0.004,0.057  c-0.089,1.627,0.529,3.213,1.695,4.35l11.329,11.034c1.053,1.027,2.467,1.598,3.933,1.598c0.03,0,0.063,0,0.092,0  c1.5-0.025,2.93-0.645,3.968-1.726l0.05-0.053C350.029,300.375,348.993,299.854,348.173,299.056z"/>
<path style="fill:#FBCB99;" d="M380.171,210.82c-0.683-0.252-1.325-0.549-1.954-0.865c-9.473-4.421-13.404-10.17-14.991-13.6  c-0.093-0.128-0.186-0.272-0.284-0.451c-1.132-2.082-2.897-0.764-2.897-0.764l-0.006-0.004  c-8.848,6.786-18.512,10.753-26.548,13.063c-3.127,0.924-6.122,1.593-8.832,2.078c-5.384,0.989-8.847,1.117-8.847,1.117  c-2.948,0.213-5.234,2.67-5.234,5.626v23.004c0,18.299,14.889,33.184,33.187,33.184h6.892c18.296,0,33.184-14.885,33.184-33.184  v-23.922C383.84,213.749,382.375,211.642,380.171,210.82z"/>
<path style="fill:#EDBA89;" d="M317.345,240.024V217.02c0-2.957,2.284-5.413,5.231-5.626c0,0,3.463-0.128,8.847-1.117  c2.71-0.485,5.707-1.154,8.835-2.078c7.109-2.044,15.497-5.392,23.468-10.838c-0.188-0.351-0.355-0.689-0.502-1.005  c-0.093-0.128-0.186-0.272-0.284-0.451c-1.132-2.082-2.897-0.764-2.897-0.764l-0.006-0.004  c-8.848,6.786-18.512,10.753-26.548,13.063c-3.127,0.924-6.122,1.593-8.832,2.078c-5.384,0.989-8.847,1.117-8.847,1.117  c-2.948,0.213-5.234,2.67-5.234,5.626v23.004c0,18.299,14.889,33.184,33.187,33.184h6.763  C332.231,273.209,317.345,258.323,317.345,240.024z"/>
<path style="fill:#6598CB;" d="M238.375,327.246c0-0.595-0.017-1.177-0.035-1.757c-0.004-0.083-0.002-0.167-0.006-0.248  c-0.013-0.294-0.036-0.58-0.056-0.87c-0.021-0.37-0.041-0.742-0.072-1.108c-0.014-0.153-0.033-0.298-0.048-0.449  c-0.049-0.497-0.098-0.993-0.161-1.475c-0.004-0.042-0.013-0.081-0.019-0.123c-1.327-9.916-5.841-17.159-10.917-22.095  c-0.022-0.022-0.047-0.046-0.069-0.07c-0.267-0.254-0.533-0.507-0.801-0.751c-0.132-0.123-0.266-0.24-0.401-0.357  c-0.155-0.138-0.311-0.278-0.466-0.411c-0.257-0.223-0.516-0.438-0.774-0.649c-0.029-0.021-0.058-0.044-0.085-0.067  c-3.256-2.633-6.514-4.346-9.068-5.23c-0.012-0.002-0.023-0.006-0.034-0.011l-0.067-0.025c-0.009-0.002-0.018-0.006-0.018-0.006  l-33.54-13.447l-8.377,8.694l-8.568,8.346l-8.565-8.346l-8.378-8.694l-33.534,13.445c-0.006,0.002-0.016,0.006-0.016,0.006  l-0.075,0.027c-0.012,0.004-0.022,0.009-0.032,0.011c-2.558,0.884-5.814,2.598-9.07,5.23c-0.028,0.023-0.058,0.046-0.084,0.067  c-0.259,0.21-0.519,0.425-0.776,0.649c-0.156,0.134-0.312,0.273-0.468,0.411c-0.134,0.116-0.268,0.234-0.4,0.357  c-0.268,0.245-0.534,0.497-0.801,0.751c-0.024,0.025-0.046,0.048-0.071,0.07c-5.075,4.936-9.59,12.178-10.916,22.095  c-0.006,0.042-0.013,0.081-0.019,0.123c-0.064,0.482-0.112,0.978-0.161,1.475c-0.014,0.151-0.034,0.296-0.047,0.449  c-0.031,0.365-0.05,0.738-0.073,1.108c-0.018,0.289-0.042,0.576-0.054,0.87c-0.004,0.081-0.002,0.165-0.006,0.248  c-0.021,0.58-0.037,1.162-0.037,1.757v5.328h0.002v16.288c0.218,2.541,1.534,7.011,8.106,7.011h8.014h114.926h8.014  c6.574,0,7.888-4.469,8.107-7.011v-16.288l0,0v-5.328H238.375z"/>
<path style="fill:#4982AA;" d="M147.686,278.475l-33.36,13.065l-0.104,0.035c-8.547,3.05-23.014,13.994-23.014,35.672v21.617  c0.218,2.541,1.534,7.011,8.106,7.011h1.69v-28.628c0-21.678,14.467-32.621,23.013-35.672l0.106-0.035l26.37-10.328L147.686,278.475  z"/>
<path style="fill:#694B4B;" d="M166.518,156.126h-3.615c-24.692,0-44.779,20.09-44.779,44.78v5.971v5.591v9.445  c0,0,10.194-1.012,11.449-5.954l-0.007-0.006c0.43-0.468,0.79-1.002,1.046-1.598c5.782-0.173,32.796-0.383,48.223-19.016  c1.839,5.385,8.069,15.583,20.052,18.797c0.247,0.648,0.613,1.235,1.062,1.742l-0.098,0.081c1.252,4.943,11.448,5.954,11.448,5.954  v-9.483v-5.554v-5.971C211.299,176.216,191.21,156.126,166.518,156.126z M200.28,212.742l0.43-0.311h0.06l-0.701,0.519  L200.28,212.742z M200.061,212.876l0.049-0.151l0.151-0.294h0.06l-0.178,0.37L200.061,212.876z M198.872,213.797l-0.016-0.022  l1.102-0.799l-0.26,0.252l-0.807,0.595L198.872,213.797z M199.784,213.536l-0.346,0.716c-0.002,0-0.002,0-0.004-0.002l-0.051-0.021  c-0.006-0.004-0.018-0.009-0.022-0.013l0.563-1.123l0.016-0.013L199.784,213.536z"/>
<path style="fill:#563B3B;" d="M126.017,212.469v-5.591v-5.971c0-23.974,18.939-43.603,42.64-44.726  c-0.709-0.033-1.421-0.054-2.139-0.054h-3.615c-24.692,0-44.779,20.09-44.779,44.78v5.971v5.591v9.445c0,0,4.505-0.449,7.893-2.201  V212.469z"/>
<path style="fill:#FBCB99;" d="M205.92,215.424c-1.713-0.536-3.574-0.223-5.02,0.836c-1.442,1.062-2.297,2.75-2.297,4.544v16.067  c0,1.792,0.854,3.478,2.297,4.54c0.981,0.72,2.154,1.095,3.342,1.095c0.561,0,1.127-0.081,1.675-0.254  c1.082-0.335,2.144-0.823,3.157-1.444c0.595-0.365,1.12-0.841,1.541-1.396c0.622-0.322,1.179-0.755,1.644-1.277  c2.276-2.577,3.533-5.88,3.533-9.301C215.793,222.654,211.826,217.262,205.92,215.424z"/>
<path style="fill:#EDBA89;" d="M128.687,216.26c-1.444-1.06-3.31-1.373-5.021-0.839c-5.904,1.841-9.873,7.232-9.873,13.414  c0,6.186,3.968,11.577,9.873,13.418c0.55,0.173,1.115,0.254,1.678,0.254c1.188,0,2.36-0.376,3.343-1.095  c1.444-1.062,2.297-2.747,2.297-4.54v-16.069C130.984,219.011,130.13,217.322,128.687,216.26z"/>
<path style="fill:#FBCB99;" d="M180.189,264.88c-1.11-1.062-2.596-1.619-4.142-1.563l-0.193,0.011  c-0.345,0.013-0.686,0.057-1.022,0.129c-2.179,0.484-4.397,0.731-6.59,0.731h-6.893c-2.261,0-4.544-0.259-6.789-0.774  c-1.674-0.386-3.432,0.015-4.774,1.085c-1.342,1.07-2.125,2.693-2.125,4.409v16.401l-0.004,0.057  c-0.089,1.627,0.529,3.213,1.695,4.35l11.33,11.035c1.053,1.027,2.465,1.598,3.933,1.598c0.029,0,0.061,0,0.091,0  c1.5-0.025,2.93-0.644,3.97-1.727l11.672-12.116c1.012-1.049,1.578-2.449,1.578-3.908v-15.644  C181.924,267.415,181.297,265.942,180.189,264.88z"/>
<path style="fill:#EDBA89;" d="M165.757,299.057l-11.328-11.035c-1.169-1.137-1.787-2.721-1.699-4.35l0.007-0.057v-16.4  c0-1.444,0.557-2.817,1.533-3.853c-1.586-0.278-3.219,0.129-4.483,1.136c-1.342,1.07-2.125,2.693-2.125,4.409v16.401l-0.004,0.057  c-0.089,1.627,0.529,3.213,1.695,4.35l11.33,11.035c1.053,1.027,2.465,1.598,3.933,1.598c0.029,0,0.061,0,0.091,0  c1.5-0.025,2.93-0.644,3.97-1.727l0.049-0.052C167.613,300.376,166.576,299.854,165.757,299.057z"/>
<path style="fill:#FBCB99;" d="M197.755,210.82c-0.683-0.252-1.325-0.549-1.954-0.864c-9.473-4.421-13.404-10.17-14.991-13.601  c-0.093-0.127-0.186-0.271-0.284-0.451c-1.133-2.082-2.897-0.764-2.897-0.764l-0.006-0.004  c-8.848,6.788-18.511,10.753-26.548,13.063c-3.127,0.924-6.122,1.594-8.833,2.078c-5.384,0.989-8.846,1.118-8.846,1.118  c-2.948,0.213-5.235,2.668-5.235,5.625v23.004c0,18.3,14.889,33.184,33.187,33.184h6.893c18.293,0,33.183-14.885,33.183-33.184  v-23.921C201.424,213.749,199.958,211.643,197.755,210.82z"/>
<path style="fill:#EDBA89;" d="M134.93,240.024V217.02c0-2.957,2.284-5.412,5.231-5.625c0,0,3.463-0.129,8.847-1.118  c2.71-0.484,5.706-1.154,8.835-2.078c7.109-2.042,15.497-5.391,23.469-10.838c-0.189-0.35-0.355-0.689-0.503-1.005  c-0.093-0.127-0.186-0.271-0.284-0.451c-1.133-2.082-2.897-0.764-2.897-0.764l-0.006-0.004  c-8.848,6.788-18.511,10.753-26.548,13.063c-3.127,0.924-6.122,1.594-8.833,2.078c-5.384,0.989-8.846,1.118-8.846,1.118  c-2.948,0.213-5.235,2.668-5.235,5.625v23.004c0,18.3,14.889,33.184,33.187,33.184h6.763  C149.814,273.209,134.93,258.324,134.93,240.024z"/>
<path style="fill:#6598CB;" d="M512,448.309c0-0.595-0.017-1.177-0.035-1.757c-0.004-0.081-0.002-0.167-0.006-0.248  c-0.013-0.294-0.036-0.579-0.057-0.871c-0.021-0.37-0.04-0.742-0.07-1.108c-0.015-0.153-0.034-0.298-0.048-0.449  c-0.05-0.497-0.098-0.991-0.161-1.474c-0.005-0.042-0.014-0.082-0.019-0.124c-1.326-9.916-5.84-17.159-10.916-22.094  c-0.024-0.023-0.047-0.046-0.071-0.069c-0.266-0.255-0.532-0.51-0.801-0.753c-0.131-0.122-0.265-0.239-0.4-0.357  c-0.156-0.138-0.312-0.278-0.466-0.411c-0.256-0.222-0.516-0.437-0.774-0.647c-0.029-0.021-0.059-0.045-0.085-0.068  c-3.257-2.633-6.515-4.346-9.069-5.23c-0.012-0.002-0.022-0.007-0.033-0.011l-0.067-0.025c-0.009-0.002-0.019-0.005-0.025-0.007  l-33.533-13.447l-8.377,8.695l-8.567,8.344l-8.566-8.344l-8.379-8.695l-33.533,13.447c-0.007,0.002-0.016,0.005-0.025,0.007  l-0.066,0.025c-0.012,0.003-0.022,0.009-0.032,0.011c-2.558,0.883-5.814,2.597-9.071,5.23c-0.027,0.022-0.057,0.047-0.084,0.068  c-0.257,0.21-0.518,0.425-0.776,0.647c-0.156,0.134-0.312,0.273-0.466,0.411c-0.134,0.117-0.268,0.235-0.401,0.357  c-0.268,0.244-0.533,0.498-0.8,0.753c-0.023,0.023-0.046,0.047-0.072,0.069c-5.074,4.935-9.588,12.177-10.916,22.094  c-0.006,0.042-0.013,0.082-0.018,0.124c-0.065,0.483-0.112,0.977-0.161,1.474c-0.014,0.151-0.035,0.296-0.048,0.449  c-0.03,0.365-0.049,0.738-0.073,1.108c-0.017,0.291-0.041,0.576-0.054,0.871c-0.003,0.081-0.001,0.167-0.005,0.248  c-0.021,0.58-0.037,1.162-0.037,1.757v5.329h0.002v16.288c0.218,2.54,1.533,7.011,8.106,7.011h8.014H495.88h8.014  c6.574,0,7.889-4.471,8.108-7.011v-16.288l0,0v-5.329H512z"/>
<path style="fill:#4982AA;" d="M421.31,399.54l-33.36,13.063l-0.104,0.036c-8.547,3.049-23.014,13.993-23.014,35.67v21.618  c0.218,2.54,1.533,7.011,8.106,7.011h1.69V448.31c0-21.678,14.467-32.621,23.013-35.67l0.105-0.036l26.37-10.328L421.31,399.54z"/>
<path style="fill:#694B4B;" d="M440.142,277.19h-3.616c-24.691,0-44.778,20.09-44.778,44.78v5.971v5.59v9.446  c0,0,10.194-1.012,11.449-5.955l-0.007-0.005c0.431-0.468,0.79-1.003,1.046-1.598c5.783-0.174,32.796-0.385,48.223-19.016  c1.841,5.385,8.07,15.583,20.052,18.796c0.248,0.65,0.614,1.235,1.063,1.743l-0.098,0.08c1.252,4.944,11.448,5.955,11.448,5.955  v-9.484v-5.553v-5.971C484.922,297.28,464.834,277.19,440.142,277.19z M473.905,333.806l0.431-0.312h0.06l-0.701,0.52  L473.905,333.806z M473.686,333.94l0.048-0.151l0.151-0.295h0.061l-0.178,0.37L473.686,333.94z M472.496,334.86l-0.016-0.023  l1.102-0.798l-0.261,0.251l-0.805,0.597L472.496,334.86z M473.409,334.6l-0.346,0.717l-0.004-0.003l-0.051-0.022  c-0.006-0.003-0.018-0.009-0.022-0.013l0.563-1.122l0.016-0.014L473.409,334.6z"/>
<path style="fill:#563B3B;" d="M399.641,333.533v-5.59v-5.971c0-23.974,18.939-43.604,42.64-44.725  c-0.709-0.034-1.421-0.056-2.139-0.056h-3.616c-24.691,0-44.778,20.09-44.778,44.78v5.971v5.59v9.446c0,0,4.505-0.45,7.893-2.201  V333.533z"/>
<path style="fill:#FBCB99;" d="M479.544,336.487c-1.712-0.535-3.574-0.222-5.02,0.839c-1.443,1.062-2.297,2.749-2.297,4.542v16.067  c0,1.792,0.852,3.478,2.297,4.54c0.98,0.721,2.154,1.096,3.341,1.096c0.562,0,1.128-0.082,1.676-0.255  c1.082-0.335,2.143-0.823,3.157-1.444c0.595-0.365,1.118-0.841,1.541-1.395c0.622-0.322,1.179-0.755,1.644-1.278  c2.276-2.577,3.533-5.88,3.533-9.299C489.417,343.717,485.45,338.326,479.544,336.487z"/>
<path style="fill:#EDBA89;" d="M402.31,337.325c-1.445-1.061-3.309-1.374-5.021-0.841c-5.903,1.842-9.872,7.233-9.872,13.416  c0,6.184,3.968,11.575,9.872,13.416c0.551,0.173,1.116,0.255,1.679,0.255c1.188,0,2.359-0.376,3.341-1.096  c1.444-1.062,2.297-2.747,2.297-4.54v-16.069C404.607,340.075,403.754,338.387,402.31,337.325z"/>
<path style="fill:#FBCB99;" d="M453.812,385.943c-1.11-1.061-2.597-1.617-4.142-1.562l-0.193,0.01  c-0.345,0.013-0.687,0.057-1.023,0.13c-2.178,0.484-4.396,0.732-6.59,0.732h-6.892c-2.261,0-4.544-0.261-6.789-0.774  c-1.674-0.386-3.432,0.015-4.773,1.085c-1.342,1.069-2.125,2.694-2.125,4.41v16.401l-0.004,0.057  c-0.089,1.626,0.528,3.213,1.695,4.35l11.33,11.034c1.052,1.027,2.466,1.598,3.933,1.598c0.029,0,0.061,0,0.09,0  c1.5-0.025,2.931-0.645,3.971-1.726l11.672-12.116c1.012-1.05,1.578-2.451,1.578-3.909v-15.644  C455.548,388.478,454.921,387.004,453.812,385.943z"/>
<path style="fill:#EDBA89;" d="M439.38,420.12l-11.328-11.034c-1.17-1.137-1.787-2.722-1.698-4.351l0.006-0.054v-16.402  c0-1.443,0.557-2.817,1.532-3.853c-1.585-0.277-3.217,0.129-4.482,1.137c-1.342,1.069-2.125,2.694-2.125,4.41v16.401l-0.004,0.057  c-0.089,1.626,0.528,3.213,1.695,4.35l11.33,11.034c1.052,1.027,2.466,1.598,3.933,1.598c0.029,0,0.061,0,0.09,0  c1.5-0.025,2.931-0.645,3.971-1.726l0.049-0.053C441.238,421.439,440.201,420.918,439.38,420.12z"/>
<path style="fill:#FBCB99;" d="M471.378,331.884c-0.682-0.252-1.324-0.549-1.953-0.865c-9.474-4.421-13.405-10.17-14.991-13.6  c-0.093-0.128-0.186-0.272-0.284-0.45c-1.133-2.083-2.898-0.765-2.898-0.765l-0.006-0.004c-8.848,6.786-18.51,10.753-26.547,13.063  c-3.127,0.924-6.123,1.593-8.833,2.078c-5.384,0.989-8.846,1.117-8.846,1.117c-2.949,0.213-5.235,2.67-5.235,5.626v23.004  c0,18.299,14.89,33.185,33.187,33.185h6.892c18.295,0,33.184-14.886,33.184-33.185v-23.922  C475.048,334.813,473.583,332.706,471.378,331.884z"/>
<path style="fill:#EDBA89;" d="M408.553,361.088v-23.004c0-2.957,2.284-5.413,5.231-5.626c0,0,3.463-0.128,8.847-1.117  c2.71-0.485,5.707-1.154,8.835-2.078c7.11-2.044,15.498-5.392,23.469-10.839c-0.189-0.351-0.355-0.689-0.502-1.005  c-0.093-0.128-0.186-0.272-0.284-0.45c-1.133-2.083-2.898-0.765-2.898-0.765l-0.006-0.004c-8.848,6.786-18.51,10.753-26.547,13.063  c-3.127,0.924-6.123,1.593-8.833,2.078c-5.384,0.989-8.846,1.117-8.846,1.117c-2.949,0.213-5.235,2.669-5.235,5.626v23.004  c0,18.299,14.89,33.185,33.187,33.185h6.762C423.439,394.273,408.553,379.387,408.553,361.088z"/>
<path style="fill:#6598CB;" d="M329.584,448.309c0-0.595-0.017-1.177-0.035-1.757c-0.004-0.081-0.002-0.167-0.006-0.248  c-0.013-0.294-0.036-0.579-0.056-0.871c-0.024-0.37-0.041-0.742-0.072-1.108c-0.015-0.153-0.033-0.298-0.049-0.449  c-0.049-0.497-0.097-0.991-0.16-1.474c-0.004-0.042-0.013-0.082-0.019-0.124c-1.328-9.916-5.842-17.159-10.917-22.094  c-0.022-0.023-0.047-0.046-0.069-0.069c-0.267-0.255-0.533-0.51-0.802-0.753c-0.131-0.122-0.265-0.239-0.401-0.357  c-0.155-0.138-0.311-0.278-0.465-0.411c-0.256-0.222-0.515-0.437-0.776-0.647c-0.028-0.021-0.058-0.045-0.084-0.068  c-3.257-2.633-6.516-4.346-9.069-5.23c-0.013-0.002-0.022-0.007-0.033-0.011l-0.068-0.025c-0.009-0.002-0.017-0.005-0.022-0.007  l-33.535-13.447l-8.376,8.695L256,416.198l-8.565-8.344l-8.378-8.695l-33.534,13.447c0,0-0.016,0.005-0.026,0.007l-0.065,0.025  c-0.011,0.003-0.022,0.009-0.022,0.009c-2.566,0.886-5.823,2.599-9.079,5.231c-0.028,0.022-0.058,0.047-0.084,0.068  c-0.259,0.21-0.519,0.425-0.776,0.647c-0.158,0.134-0.314,0.273-0.469,0.411c-0.134,0.117-0.267,0.235-0.401,0.357  c-0.266,0.244-0.533,0.498-0.8,0.753c-0.022,0.023-0.046,0.047-0.072,0.069c-5.073,4.935-9.587,12.177-10.914,22.094  c-0.006,0.042-0.014,0.082-0.02,0.124c-0.063,0.483-0.111,0.977-0.16,1.474c-0.015,0.151-0.036,0.296-0.049,0.449  c-0.029,0.365-0.048,0.738-0.072,1.108c-0.017,0.291-0.042,0.576-0.056,0.871c-0.002,0.081,0,0.167-0.004,0.248  c-0.021,0.58-0.037,1.162-0.037,1.757v5.329h0.002v16.288c0.218,2.54,1.534,7.011,8.106,7.011h8.014h114.924h8.015  c6.574,0,7.887-4.471,8.107-7.011v-16.288l0,0L329.584,448.309L329.584,448.309z"/>
<path style="fill:#4982AA;" d="M238.893,399.54l-33.358,13.063l-0.105,0.036c-8.546,3.049-23.013,13.993-23.013,35.67v21.618  c0.218,2.54,1.534,7.011,8.106,7.011h1.689V448.31c0-21.678,14.468-32.621,23.013-35.67l0.107-0.036l26.369-10.328L238.893,399.54z"/>
<path style="fill:#694B4B;" d="M257.727,277.19h-3.616c-24.692,0-44.779,20.09-44.779,44.78v5.971v5.59v9.446  c0,0,10.195-1.012,11.45-5.955l-0.009-0.005c0.432-0.468,0.792-1.003,1.046-1.598c5.781-0.174,32.797-0.385,48.224-19.016  c1.839,5.385,8.069,15.583,20.051,18.796c0.248,0.65,0.613,1.235,1.062,1.743l-0.099,0.08c1.253,4.944,11.448,5.955,11.448,5.955  v-9.484v-5.553v-5.971C302.507,297.28,282.417,277.19,257.727,277.19z M291.488,333.806l0.432-0.312h0.06l-0.701,0.52  L291.488,333.806z M291.27,333.94l0.048-0.151l0.152-0.295h0.06l-0.178,0.37L291.27,333.94z M290.08,334.86l-0.015-0.023  l1.102-0.798l-0.26,0.251l-0.807,0.597L290.08,334.86z M290.992,334.6l-0.345,0.717c0,0-0.002-0.002-0.004-0.003l-0.051-0.022  c-0.006-0.003-0.019-0.009-0.023-0.013l0.563-1.122l0.015-0.014L290.992,334.6z"/>
<path style="fill:#563B3B;" d="M217.225,333.533v-5.59v-5.971c0-23.974,18.94-43.604,42.641-44.725  c-0.709-0.034-1.421-0.056-2.139-0.056h-3.616c-24.692,0-44.779,20.09-44.779,44.78v5.971v5.59v9.446c0,0,4.506-0.45,7.893-2.201  V333.533z"/>
<path style="fill:#FBCB99;" d="M297.128,336.487c-1.713-0.535-3.574-0.222-5.02,0.839c-1.442,1.062-2.297,2.749-2.297,4.542v16.067  c0,1.792,0.854,3.478,2.297,4.54c0.98,0.721,2.154,1.096,3.34,1.096c0.563,0,1.129-0.082,1.677-0.255  c1.082-0.335,2.143-0.823,3.157-1.444c0.595-0.365,1.118-0.841,1.541-1.395c0.622-0.322,1.179-0.755,1.643-1.278  c2.277-2.577,3.534-5.88,3.534-9.299C307.002,343.717,303.033,338.326,297.128,336.487z"/>
<path style="fill:#EDBA89;" d="M219.896,337.325c-1.446-1.061-3.31-1.374-5.023-0.841c-5.902,1.842-9.87,7.233-9.87,13.416  c0,6.184,3.968,11.575,9.87,13.416c0.551,0.173,1.116,0.255,1.679,0.255c1.187,0,2.361-0.376,3.344-1.096  c1.444-1.062,2.297-2.747,2.297-4.54v-16.069C222.193,340.075,221.339,338.387,219.896,337.325z"/>
<path style="fill:#FBCB99;" d="M271.396,385.943c-1.11-1.061-2.597-1.617-4.142-1.562l-0.193,0.01  c-0.345,0.013-0.687,0.057-1.022,0.13c-2.179,0.484-4.398,0.732-6.592,0.732h-6.891c-2.261,0-4.544-0.261-6.789-0.774  c-1.674-0.386-3.432,0.015-4.775,1.085c-1.341,1.069-2.124,2.694-2.124,4.41v16.401l-0.004,0.057  c-0.089,1.626,0.528,3.213,1.694,4.35l11.329,11.034c1.054,1.027,2.468,1.598,3.935,1.598c0.029,0,0.061,0,0.091,0  c1.499-0.025,2.93-0.645,3.967-1.726l11.674-12.116c1.012-1.05,1.577-2.451,1.577-3.909v-15.644  C273.132,388.478,272.506,387.004,271.396,385.943z"/>
<path style="fill:#EDBA89;" d="M256.966,420.12l-11.329-11.034c-1.169-1.137-1.787-2.722-1.699-4.351l0.006-0.054v-16.402  c0-1.443,0.557-2.817,1.534-3.853c-1.588-0.277-3.219,0.129-4.484,1.137c-1.341,1.069-2.124,2.694-2.124,4.41v16.401l-0.004,0.057  c-0.089,1.626,0.528,3.213,1.694,4.35l11.329,11.034c1.054,1.027,2.468,1.598,3.935,1.598c0.029,0,0.061,0,0.091,0  c1.499-0.025,2.93-0.645,3.967-1.726l0.051-0.053C258.822,421.439,257.784,420.918,256.966,420.12z"/>
<path style="fill:#FBCB99;" d="M288.962,331.884c-0.683-0.252-1.324-0.549-1.953-0.865c-9.474-4.421-13.405-10.17-14.991-13.6  c-0.093-0.128-0.186-0.272-0.284-0.45c-1.133-2.083-2.898-0.765-2.898-0.765l-0.006-0.004c-8.848,6.786-18.512,10.753-26.548,13.063  c-3.126,0.924-6.121,1.593-8.832,2.078c-5.384,0.989-8.848,1.117-8.848,1.117c-2.947,0.213-5.233,2.67-5.233,5.626v23.004  c0,18.299,14.889,33.185,33.187,33.185h6.891c18.296,0,33.184-14.886,33.184-33.185v-23.922  C292.632,334.813,291.167,332.706,288.962,331.884z"/>
<path style="fill:#EDBA89;" d="M226.136,361.088v-23.004c0-2.957,2.285-5.413,5.231-5.626c0,0,3.464-0.128,8.848-1.117  c2.71-0.485,5.706-1.154,8.835-2.078c7.109-2.044,15.497-5.392,23.469-10.839c-0.189-0.351-0.357-0.689-0.503-1.005  c-0.093-0.128-0.186-0.272-0.284-0.45c-1.133-2.083-2.898-0.765-2.898-0.765l-0.006-0.004c-8.848,6.786-18.512,10.753-26.548,13.063  c-3.126,0.924-6.121,1.593-8.832,2.078c-5.384,0.989-8.848,1.117-8.848,1.117c-2.947,0.213-5.233,2.669-5.233,5.626v23.004  c0,18.299,14.889,33.185,33.187,33.185h6.762C241.023,394.273,226.136,379.387,226.136,361.088z"/>
<path style="fill:#6598CB;" d="M147.169,448.309c0-0.595-0.018-1.177-0.036-1.757c-0.004-0.081-0.002-0.167-0.006-0.248  c-0.013-0.294-0.036-0.579-0.056-0.871c-0.022-0.37-0.04-0.742-0.072-1.108c-0.014-0.153-0.034-0.298-0.047-0.449  c-0.05-0.497-0.099-0.991-0.162-1.474c-0.004-0.042-0.013-0.082-0.019-0.124c-1.327-9.916-5.841-17.159-10.917-22.094  c-0.022-0.023-0.047-0.046-0.069-0.069c-0.267-0.255-0.532-0.51-0.801-0.753c-0.132-0.122-0.266-0.239-0.401-0.357  c-0.155-0.138-0.311-0.278-0.466-0.411c-0.257-0.222-0.515-0.437-0.776-0.647c-0.028-0.021-0.058-0.045-0.085-0.068  c-3.256-2.633-6.515-4.346-9.068-5.23c-0.013-0.002-0.022-0.007-0.034-0.011l-0.067-0.025c-0.009-0.002-0.018-0.005-0.024-0.007  L90.53,399.159l-8.378,8.695l-8.568,8.344l-8.566-8.344l-8.378-8.695l-33.533,13.447c-0.009,0.002-0.017,0.005-0.026,0.007  l-0.066,0.025c-0.012,0.003-0.022,0.009-0.032,0.011c-2.558,0.883-5.813,2.597-9.07,5.23c-0.027,0.022-0.058,0.047-0.084,0.068  c-0.259,0.21-0.518,0.425-0.776,0.647c-0.156,0.134-0.313,0.273-0.468,0.411c-0.134,0.117-0.267,0.235-0.4,0.357  c-0.268,0.244-0.534,0.498-0.8,0.753c-0.025,0.023-0.047,0.047-0.073,0.069c-5.074,4.935-9.588,12.177-10.915,22.094  c-0.007,0.042-0.014,0.082-0.018,0.124c-0.065,0.483-0.113,0.977-0.162,1.474c-0.014,0.151-0.034,0.296-0.048,0.449  c-0.03,0.365-0.049,0.738-0.073,1.108c-0.017,0.291-0.041,0.576-0.053,0.871c-0.003,0.081-0.001,0.167-0.005,0.248  C0.017,447.132,0,447.714,0,448.309v5.329h0.002v16.288c0.218,2.54,1.535,7.011,8.107,7.011h8.013h114.926h8.014  c6.574,0,7.889-4.471,8.108-7.011v-16.288l0,0V448.309z"/>
<path style="fill:#4982AA;" d="M56.479,399.54l-33.36,13.063l-0.104,0.036c-8.546,3.049-23.014,13.993-23.014,35.67v21.618  c0.218,2.54,1.535,7.011,8.107,7.011h1.689V448.31c0-21.678,14.467-32.621,23.014-35.67l0.105-0.036l26.37-10.328L56.479,399.54z"/>
<path style="fill:#694B4B;" d="M75.312,277.19h-3.616c-24.692,0-44.779,20.09-44.779,44.78v5.971v5.59v9.446  c0,0,10.194-1.012,11.449-5.955l-0.007-0.005c0.431-0.468,0.79-1.003,1.046-1.598c5.782-0.174,32.796-0.385,48.223-19.016  c1.841,5.385,8.069,15.583,20.051,18.796c0.248,0.65,0.614,1.235,1.064,1.743l-0.099,0.08c1.253,4.944,11.449,5.955,11.449,5.955  v-9.484v-5.553v-5.971C120.092,297.28,100.002,277.19,75.312,277.19z M109.072,333.806l0.43-0.312h0.06l-0.701,0.52L109.072,333.806  z M108.853,333.94l0.049-0.151l0.151-0.295h0.061l-0.179,0.37L108.853,333.94z M107.665,334.86l-0.017-0.023l1.103-0.798  l-0.261,0.251l-0.807,0.597L107.665,334.86z M108.577,334.6l-0.346,0.717l-0.004-0.003l-0.05-0.022  c-0.006-0.003-0.019-0.009-0.023-0.013l0.563-1.122l0.016-0.014L108.577,334.6z"/>
<path style="fill:#563B3B;" d="M34.811,333.533v-5.59v-5.971c0-23.974,18.939-43.604,42.64-44.725  c-0.709-0.034-1.421-0.056-2.139-0.056h-3.616c-24.692,0-44.779,20.09-44.779,44.78v5.971v5.59v9.446c0,0,4.505-0.45,7.894-2.201  C34.811,340.779,34.811,333.533,34.811,333.533z"/>
<path style="fill:#FBCB99;" d="M114.712,336.487c-1.713-0.535-3.574-0.222-5.02,0.839c-1.443,1.062-2.297,2.749-2.297,4.542v16.067  c0,1.792,0.852,3.478,2.297,4.54c0.98,0.721,2.154,1.096,3.341,1.096c0.563,0,1.128-0.082,1.676-0.255  c1.082-0.335,2.144-0.823,3.157-1.444c0.596-0.365,1.12-0.841,1.541-1.395c0.623-0.322,1.179-0.755,1.644-1.278  c2.277-2.577,3.533-5.88,3.533-9.299C124.585,343.717,120.619,338.326,114.712,336.487z"/>
<path style="fill:#EDBA89;" d="M37.479,337.325c-1.446-1.061-3.309-1.374-5.022-0.841c-5.903,1.842-9.872,7.233-9.872,13.416  c0,6.184,3.968,11.575,9.872,13.416c0.551,0.173,1.116,0.255,1.679,0.255c1.188,0,2.36-0.376,3.343-1.096  c1.444-1.062,2.297-2.747,2.297-4.54v-16.069C39.776,340.075,38.923,338.387,37.479,337.325z"/>
<path style="fill:#FBCB99;" d="M88.981,385.943c-1.11-1.061-2.597-1.617-4.142-1.562l-0.193,0.01  c-0.345,0.013-0.687,0.057-1.022,0.13c-2.179,0.484-4.397,0.732-6.591,0.732H70.14c-2.26,0-4.543-0.261-6.789-0.774  c-1.675-0.386-3.432,0.015-4.774,1.085c-1.342,1.069-2.124,2.694-2.124,4.41v16.401l-0.004,0.057  c-0.09,1.626,0.528,3.213,1.694,4.35l11.33,11.034c1.052,1.027,2.465,1.598,3.933,1.598c0.029,0,0.062,0,0.091,0  c1.5-0.025,2.93-0.645,3.97-1.726l11.672-12.116c1.012-1.05,1.578-2.451,1.578-3.909v-15.644  C90.717,388.478,90.089,387.004,88.981,385.943z"/>
<path style="fill:#EDBA89;" d="M74.549,420.12L63.22,409.086c-1.169-1.137-1.787-2.722-1.698-4.351l0.006-0.054v-16.402  c0-1.443,0.557-2.817,1.534-3.853c-1.586-0.277-3.219,0.129-4.483,1.137c-1.342,1.069-2.124,2.694-2.124,4.41v16.401l-0.004,0.057  c-0.09,1.626,0.528,3.213,1.694,4.35l11.33,11.034c1.052,1.027,2.465,1.598,3.933,1.598c0.029,0,0.062,0,0.091,0  c1.5-0.025,2.93-0.645,3.97-1.726l0.049-0.053C76.405,421.439,75.369,420.918,74.549,420.12z"/>
<path style="fill:#FBCB99;" d="M106.547,331.884c-0.683-0.252-1.325-0.549-1.953-0.865c-9.474-4.421-13.405-10.17-14.991-13.6  c-0.094-0.128-0.187-0.272-0.284-0.45c-1.133-2.083-2.898-0.765-2.898-0.765l-0.006-0.004c-8.848,6.786-18.511,10.753-26.548,13.063  c-3.126,0.924-6.121,1.593-8.831,2.078c-5.385,0.989-8.847,1.117-8.847,1.117c-2.949,0.213-5.235,2.67-5.235,5.626v23.004  c0,18.299,14.889,33.185,33.187,33.185h6.892c18.296,0,33.183-14.886,33.183-33.185v-23.922  C110.216,334.813,108.753,332.706,106.547,331.884z"/>
<path style="fill:#EDBA89;" d="M43.722,361.088v-23.004c0-2.957,2.284-5.413,5.233-5.626c0,0,3.462-0.128,8.846-1.117  c2.71-0.485,5.707-1.154,8.836-2.078c7.11-2.044,15.497-5.392,23.468-10.839c-0.188-0.351-0.355-0.689-0.501-1.005  c-0.094-0.128-0.187-0.272-0.284-0.45c-1.133-2.083-2.898-0.765-2.898-0.765l-0.006-0.004c-8.848,6.786-18.511,10.753-26.548,13.063  c-3.126,0.924-6.121,1.593-8.831,2.078c-5.385,0.989-8.847,1.117-8.847,1.117c-2.949,0.213-5.235,2.669-5.235,5.626v23.004  c0,18.299,14.889,33.185,33.187,33.185h6.763C58.608,394.273,43.722,379.387,43.722,361.088z"/>
<g>
</g>
<g>
</g>
<g>
</g>
<g>
</g>
<g>
</g>
<g>
</g>
<g>
</g>
<g>
</g>
<g>
</g>
<g>
</g>
<g>
</g>
<g>
</g>
<g>
</g>
<g>
</g>
<g>
</g>
</svg>
