<?xml version="1.0" encoding="iso-8859-1"?>
<!-- Generator: Adobe Illustrator 19.0.0, SVG Export Plug-In . SVG Version: 6.00 Build 0)  -->
<svg xmlns="http://www.w3.org/2000/svg" xmlns:xlink="http://www.w3.org/1999/xlink" version="1.1" id="Layer_1" x="0px" y="0px" viewBox="0 0 491.52 491.52" style="enable-background:new 0 0 491.52 491.52;" xml:space="preserve">
<rect x="61.338" style="fill:#EBF0F3;" width="368.845" height="491.52"/>
<g>
	<path style="fill:#64798A;" d="M395.86,377.951H94.298V159.014H395.86V377.951z M103.235,369.014h283.689V167.951H103.235V369.014z   "/>
	<rect x="317.737" y="163.482" style="fill:#64798A;" width="8.934" height="210.022"/>
	<rect x="98.765" y="334.131" style="fill:#64798A;" width="292.608" height="8.934"/>
	<rect x="98.765" y="191.283" style="fill:#64798A;" width="292.608" height="8.934"/>
</g>
<g>
	<rect x="121.999" y="220.928" style="fill:#27A2DB;" width="88.806" height="8.934"/>
	<rect x="121.999" y="249.334" style="fill:#27A2DB;" width="65.551" height="8.934"/>
	<rect x="334.172" y="249.334" style="fill:#27A2DB;" width="45.112" height="8.934"/>
</g>
<rect x="317.256" y="404.413" style="fill:#E56353;" width="78.945" height="8.934"/>
<g>
	<rect x="334.172" y="350.822" style="fill:#27A2DB;" width="45.112" height="8.934"/>
	<rect x="334.172" y="220.928" style="fill:#27A2DB;" width="45.112" height="8.934"/>
</g>
<rect x="98.765" y="26.931" style="fill:#44C4A1;" width="84.69" height="8.934"/>
<g>
	<rect x="98.765" y="55.997" style="fill:#D5D6DB;" width="109.292" height="8.934"/>
	<rect x="98.765" y="85.514" style="fill:#D5D6DB;" width="109.292" height="8.934"/>
	<rect x="98.765" y="465.306" style="fill:#D5D6DB;" width="297.421" height="8.934"/>
</g>
<rect x="164.803" y="126.653" style="fill:#DC8744;" width="160.558" height="8.934"/>
<g>
</g>
<g>
</g>
<g>
</g>
<g>
</g>
<g>
</g>
<g>
</g>
<g>
</g>
<g>
</g>
<g>
</g>
<g>
</g>
<g>
</g>
<g>
</g>
<g>
</g>
<g>
</g>
<g>
</g>
</svg>
