<?xml version="1.0" encoding="iso-8859-1"?>
<!-- Generator: Adobe Illustrator 19.0.0, SVG Export Plug-In . SVG Version: 6.00 Build 0)  -->
<svg xmlns="http://www.w3.org/2000/svg" xmlns:xlink="http://www.w3.org/1999/xlink" version="1.1" id="Layer_1" x="0px" y="0px" viewBox="0 0 491.52 491.52" style="enable-background:new 0 0 491.52 491.52;" xml:space="preserve">
<g>
	<polygon style="fill:#E1E6E9;" points="159.892,199.53 73.8,112.585 0,200.095 160.059,200.095  "/>
	<polygon style="fill:#E1E6E9;" points="160.059,200.095 332.765,200.095 332.871,199.74 246.569,112.585 245.985,112.585    159.892,199.53  "/>
</g>
<g>
	<polygon style="fill:#EBF0F3;" points="245.985,112.585 73.8,112.585 159.892,199.53  "/>
	<polygon style="fill:#EBF0F3;" points="0,200.095 245.76,491.52 160.059,200.095  "/>
	<polygon style="fill:#EBF0F3;" points="246.569,112.585 332.871,199.74 417.702,112.585  "/>
</g>
<polygon style="fill:#E1E6E9;" points="491.52,200.095 417.72,112.585 417.702,112.585 332.871,199.74 332.765,200.095 "/>
<polygon style="fill:#EBF0F3;" points="245.76,491.52 491.52,200.095 332.765,200.095 "/>
<polygon style="fill:#D5D6DB;" points="160.059,200.095 245.76,491.52 332.765,200.095 "/>
<path style="fill:#44C4A1;" d="M68.565,94.73c-3.281,0-6.449-1.815-8.012-4.953L32.609,33.652c-2.199-4.42-0.401-9.783,4.023-11.983  c4.416-2.195,9.792-0.393,11.983,4.015l27.945,56.125c2.199,4.42,0.401,9.783-4.023,11.983C71.262,94.429,69.9,94.73,68.565,94.73z"/>
<path style="fill:#E56353;" d="M422.964,94.73c-1.335,0-2.697-0.301-3.971-0.938c-4.425-2.199-6.223-7.562-4.023-11.983  l27.936-56.125c2.199-4.407,7.584-6.209,11.983-4.015c4.425,2.199,6.223,7.562,4.023,11.983l-27.936,56.125  C429.413,92.915,426.245,94.73,422.964,94.73z"/>
<path style="fill:#27A2DB;" d="M245.76,91.135c-4.94,0-8.937-4.001-8.937-8.937V8.937c0-4.935,3.997-8.937,8.937-8.937  s8.937,4.001,8.937,8.937v73.261C254.697,87.133,250.7,91.135,245.76,91.135z"/>
<g>
</g>
<g>
</g>
<g>
</g>
<g>
</g>
<g>
</g>
<g>
</g>
<g>
</g>
<g>
</g>
<g>
</g>
<g>
</g>
<g>
</g>
<g>
</g>
<g>
</g>
<g>
</g>
<g>
</g>
</svg>
