<?xml version="1.0" encoding="iso-8859-1"?>
<!-- Generator: Adobe Illustrator 19.0.0, SVG Export Plug-In . SVG Version: 6.00 Build 0)  -->
<svg xmlns="http://www.w3.org/2000/svg" xmlns:xlink="http://www.w3.org/1999/xlink" version="1.1" id="Layer_1" x="0px" y="0px" viewBox="0 0 512 512" style="enable-background:new 0 0 512 512;" xml:space="preserve">
<path style="fill:#4EC0AA;" d="M450.133,151.467l-54.4-110.933c-7.467-16-26.667-22.4-42.667-14.933L107.733,146.133  c-2.133,1.067-4.267,3.2-6.4,4.267h348.8V151.467z"/>
<path style="fill:#F3F3F3;" d="M401.067,151.467c3.2-2.133,6.4-5.333,9.6-6.4l-24.533-51.2c-21.333,10.667-46.933,2.133-57.6-19.2  l-157.867,76.8H401.067z"/>
<g>
	<path style="fill:#4EC0AA;" d="M246.4,151.467h39.467l2.133-12.8c-8.533-1.067-17.067-1.067-23.467,1.067L262.4,134.4   l-10.667,5.333l2.133,5.333C250.667,147.2,248.533,149.333,246.4,151.467z"/>
	<path style="fill:#4EC0AA;" d="M345.6,151.467H368c5.333-5.333,6.4-12.8,3.2-19.2c-4.267-8.533-13.867-11.733-22.4-7.467   c-8.533,4.267-10.667,13.867-7.467,21.333C342.4,148.267,343.467,149.333,345.6,151.467z"/>
</g>
<path style="fill:#66C6B9;" d="M353.067,151.467c9.6-12.8,8.533-29.867-3.2-41.6L249.6,9.6c-12.8-12.8-33.067-12.8-44.8,0  L61.867,151.467H353.067z"/>
<path style="fill:#F3F3F3;" d="M289.067,151.467c-7.467-16-5.333-35.2,7.467-49.067L256,61.867c-17.067,17.067-43.733,17.067-60.8,0  L106.667,150.4h182.4V151.467z"/>
<g>
	<path style="fill:#66C6B9;" d="M181.333,151.467l-2.133-14.933c-8.533,1.067-16,4.267-22.4,9.6l-4.267-4.267L144,150.4l1.067,1.067   L181.333,151.467L181.333,151.467z"/>
	<circle style="fill:#66C6B9;" cx="243.2" cy="115.2" r="16"/>
</g>
<path style="fill:#F3705A;" d="M472.533,512H32c-18.133,0-32-13.867-32-32V176c0-18.133,13.867-32,32-32h440.533  c18.133,0,32,13.867,32,32v304C504.533,498.133,489.6,512,472.533,512z"/>
<path style="fill:#415A6B;" d="M376.533,294.4v68.267c0,10.667,8.533,18.133,18.133,18.133h109.867c4.267,0,7.467-3.2,7.467-7.467  v-89.6c0-4.267-3.2-7.467-7.467-7.467H394.667C385.067,275.2,376.533,283.733,376.533,294.4z"/>
<circle style="fill:#F3F3F3;" cx="424.533" cy="328.533" r="21.333"/>
<g>
</g>
<g>
</g>
<g>
</g>
<g>
</g>
<g>
</g>
<g>
</g>
<g>
</g>
<g>
</g>
<g>
</g>
<g>
</g>
<g>
</g>
<g>
</g>
<g>
</g>
<g>
</g>
<g>
</g>
</svg>
