<?xml version="1.0" encoding="iso-8859-1"?>
<!-- Generator: Adobe Illustrator 19.0.0, SVG Export Plug-In . SVG Version: 6.00 Build 0)  -->
<svg xmlns="http://www.w3.org/2000/svg" xmlns:xlink="http://www.w3.org/1999/xlink" version="1.1" id="Layer_1" x="0px" y="0px" viewBox="0 0 512 512" style="enable-background:new 0 0 512 512;" xml:space="preserve">
<path style="fill:#6598CB;" d="M349.328,82.624c4.259,0.92,9.03,3.966,13.795,8.809l19.008,19.315V31.878  c0-0.497,0.054-1.09,0.165-1.813l1.982-12.795H254.704v126.658h102.741l-7.636-15.901c-1.757-3.657-3.912-7.22-6.592-10.893  c-15.201-20.833-7.635-29.882-6.347-31.179C340.828,82.803,344.987,81.684,349.328,82.624z"/>
<path style="fill:#5491BC;" d="M349.81,128.025c-1.757-3.657-3.912-7.22-6.592-10.893c-1.268-1.738-2.366-3.388-3.334-4.965h-85.179  v31.759h102.741L349.81,128.025z"/>
<path style="fill:#6598CB;" d="M162.48,385.586c1.758,3.66,3.913,7.223,6.592,10.893c15.201,20.833,7.635,29.883,6.348,31.179  c-3.955,3.151-8.097,4.277-12.456,3.33c-4.259-0.92-9.03-3.966-13.795-8.809l-19.008-19.315v78.869c0,0.496-0.054,1.092-0.166,1.821  l-1.968,12.785h129.559V369.685H154.844L162.48,385.586z"/>
<path style="fill:#5491BC;" d="M162.48,385.586c1.758,3.66,3.913,7.223,6.592,10.893c1.268,1.738,2.365,3.387,3.334,4.964h85.18  v-31.759H154.844L162.48,385.586z"/>
<path style="fill:#FBCB99;" d="M87.087,512c9.761,0,17.701-7.94,17.701-17.701v-0.505c3.064,2.537,6.996,4.064,11.273,4.064  l0.586-0.002c9.762-0.001,17.704-7.939,17.704-17.7V415.29c5.592,8.151,14.545,18.494,25.099,20.757  c5.855,1.26,11.316-0.073,16.406-3.845l1.756-1.299l1.225-1.802c2.779-4.087,7.623-15.806-7.35-36.318  c-8.193-11.232-9.741-19.739-11.243-27.971c-2.803-15.378-6.435-26.901-29.926-44.994v-29.484H29.498l-0.003,39.199  c-20.681,15.01-19.745,71.765-19.693,74.17l-0.001,41.7c0.002,9.76,7.941,17.703,17.703,17.703h0.587  c4.28,0,8.21-1.528,11.275-4.065l-0.001,21.115c0,9.761,7.941,17.704,17.703,17.704l0.585-0.001c4.2-0.003,8.089-1.448,11.146-3.921  v0.362c0,9.762,7.941,17.7,17.703,17.7L87.087,512z"/>
<g>
	<path style="fill:#E9B585;" d="M41.068,332.86l0.002-42.529H29.499l-0.003,39.199C8.814,344.542,9.75,401.297,9.801,403.702   l-0.001,41.7c0.002,9.76,7.941,17.703,17.703,17.703h0.587c1.915,0,3.754-0.32,5.483-0.887   c-7.073-2.319-12.198-8.978-12.202-16.816l0.001-41.7C21.323,401.297,20.385,347.872,41.068,332.86z"/>
	<path style="fill:#E9B585;" d="M50.935,480.155l0.002-21.115c-0.117,0.097-0.243,0.18-0.362,0.274v-47.955   c0-3.097-2.509-5.605-5.606-5.605c-3.095,0-5.605,2.508-5.605,5.605v56.829c0,0.004,0.001,0.007,0.001,0.007l-0.001,11.961   c0,9.761,7.941,17.704,17.703,17.704l0.585-0.001c1.919-0.002,3.764-0.317,5.502-0.879   C56.071,494.663,50.935,488.001,50.935,480.155z"/>
	<path style="fill:#E9B585;" d="M115.19,490.926c0.014-0.162,0.049-0.316,0.049-0.484v-56.83c0-3.096-2.51-5.605-5.606-5.605   s-5.606,2.509-5.606,5.605v56.83c0,0.059,0.014,0.113,0.017,0.169c0.089,1.992,0.746,3.182,0.746,3.182   c0.538,0.488,1.112,0.908,1.697,1.287c0.009,0.007,0.019,0.012,0.026,0.018c4.876,3.145,10.93,2.759,10.93,2.759l0.069-0.037   c1.61-0.08,3.167-0.368,4.639-0.851c-1.97-0.645-3.785-1.626-5.386-2.876C115.758,493.035,115.341,491.89,115.19,490.926z"/>
	<path style="fill:#E9B585;" d="M80.371,494.299v-0.362v-54.724c0-3.096-2.509-5.604-5.606-5.604c-3.097,0-5.608,2.508-5.608,5.604   v56.831c0,0.634,0.129,1.234,0.324,1.801c-0.085,0.001-0.17,0.012-0.257,0.012h-0.067c1.652,8.062,8.8,14.141,17.344,14.141   L87.086,512c1.919,0,3.762-0.316,5.494-0.883C85.502,508.798,80.37,502.142,80.371,494.299z"/>
	<path style="fill:#E9B585;" d="M151.988,423.125c-1.19-1.4-3.105-3.857-5.247-6.67c-0.279-0.392-0.555-0.782-0.817-1.166v0.091   c-5.316-7.007-11.572-15.562-11.572-15.562v15.471c3.678,5.667,11.572,13.358,11.572,13.358c4.046,3.526,8.609,6.345,13.527,7.399   c3.428,0.737,6.714,0.562,9.873-0.445C162.701,433.615,156.773,428.566,151.988,423.125z"/>
</g>
<g>
	<path style="fill:#6598CB;" d="M143.268,155.505l-15.901,7.636c-3.66,1.758-7.223,3.913-10.893,6.593   c-8.371,6.108-16.105,9.336-22.366,9.336c-5.473,0-8.347-2.541-8.824-3.002c-3.178-3.995-4.265-8.067-3.319-12.444   c0.92-4.258,3.965-9.029,8.809-13.794l19.313-19.008H31.217c-0.492,0-1.091-0.055-1.83-0.168L16.611,128.7v129.547h126.657V155.505   z"/>
	<path style="fill:#6598CB;" d="M369.023,255.366v102.74l15.901-7.636c3.659-1.758,7.223-3.913,10.893-6.592   c8.372-6.109,16.106-9.337,22.366-9.337c5.455,0,8.33,2.526,8.819,2.997c3.182,3.997,4.27,8.069,3.324,12.449   c-0.92,4.259-3.966,9.03-8.809,13.795l-19.315,19.008h78.87c0.496,0,1.092,0.054,1.821,0.166l12.785,1.968V255.366H369.023z"/>
</g>
<g>
	<path style="fill:#5491BC;" d="M369.023,358.106l15.901-7.636c3.659-1.758,7.223-3.913,10.893-6.592   c1.683-1.228,3.339-2.335,4.965-3.327v-85.185h-31.76L369.023,358.106L369.023,358.106z"/>
	<path style="fill:#5491BC;" d="M48.37,96.981l-15.901,11.985c-3.659,2.759-7.223,6.142-10.893,10.347   c-1.683,1.927-3.339,3.664-4.965,5.222v133.709h31.76C48.37,258.246,48.37,96.981,48.37,96.981z"/>
</g>
<path style="fill:#FBCB99;" d="M424.916,0c-9.761,0-17.701,7.94-17.701,17.701v0.505c-3.064-2.537-6.996-4.064-11.273-4.064  l-0.586,0.002c-9.762,0.001-17.704,7.939-17.704,17.7v64.864c-5.592-8.151-14.545-18.494-25.099-20.757  c-5.855-1.26-11.316,0.073-16.406,3.845l-1.756,1.299l-1.224,1.802c-2.779,4.087-7.623,15.806,7.35,36.32  c8.193,11.232,9.741,19.739,11.243,27.971c2.803,15.378,6.435,26.901,29.926,44.994v29.484h100.82l0.003-39.199  c20.682-15.01,19.746-71.766,19.695-74.171l0.001-41.7c-0.002-9.76-7.941-17.703-17.703-17.703h-0.587  c-4.279,0-8.21,1.528-11.275,4.065l0.001-21.115c0-9.761-7.941-17.704-17.703-17.704l-0.585,0.001  c-4.2,0.003-8.089,1.448-11.146,3.921v-0.362c0-9.762-7.941-17.7-17.703-17.7L424.916,0z"/>
<g>
	<path style="fill:#E9B585;" d="M360.636,147.19c-1.501-8.232-3.05-16.739-11.243-27.971c-14.973-20.512-10.129-32.232-7.35-36.32   l1.224-1.802l1.756-1.299c2.508-1.859,5.108-3.118,7.798-3.774c-0.091-0.02-0.179-0.051-0.27-0.07   c-5.855-1.26-11.316,0.073-16.406,3.845l-1.756,1.3l-1.224,1.802c-2.779,4.087-7.623,15.806,7.35,36.32   c8.193,11.232,9.741,19.739,11.243,27.971c2.803,15.378,6.435,26.901,29.926,44.994v29.484h8.878v-32.814   C367.071,170.762,363.439,162.568,360.636,147.19z"/>
	<path style="fill:#E9B585;" d="M452.973,21.074c0.014,0.162,0.049,0.316,0.049,0.484v56.83c0,3.096-2.51,5.605-5.606,5.605   s-5.606-2.509-5.606-5.605v-56.83c0-0.059,0.014-0.113,0.017-0.169c0.089-1.992,0.746-3.182,0.746-3.182   c0.538-0.488,1.112-0.908,1.697-1.287c0.009-0.007,0.019-0.012,0.026-0.018c4.876-3.145,10.93-2.759,10.93-2.759l0.068,0.037   c1.61,0.08,3.167,0.368,4.639,0.851c-1.97,0.645-3.785,1.626-5.386,2.876C453.54,18.965,453.124,20.11,452.973,21.074z"/>
	<path style="fill:#E9B585;" d="M483.305,55.847c0.014,0.162,0.049,0.316,0.049,0.484v34.635c0,3.096-2.51,5.605-5.606,5.605   s-5.606-2.509-5.606-5.605V56.33c0-0.059,0.014-0.113,0.017-0.169c0.089-1.992,0.746-3.182,0.746-3.182   c0.538-0.488,1.112-0.908,1.697-1.287c0,0,0.019-0.012,0.026-0.018c4.876-3.145,10.93-2.759,10.93-2.759l0.068,0.037   c1.61,0.08,3.167,0.368,4.639,0.851c-1.97,0.645-3.785,1.626-5.386,2.876C483.873,53.738,483.455,54.882,483.305,55.847z"/>
	<path style="fill:#E9B585;" d="M418.154,17.701v0.362v54.724c0,3.096-2.509,5.604-5.606,5.604c-3.097,0-5.608-2.508-5.608-5.604   V15.956c0-0.634,0.129-1.234,0.324-1.801c-0.085-0.001-0.17-0.012-0.257-0.012h-0.067c1.652-8.062,8.8-14.141,17.344-14.141   L424.869,0c1.92,0,3.762,0.316,5.494,0.883C423.285,3.202,418.153,9.858,418.154,17.701z"/>
	<path style="fill:#E9B585;" d="M377.148,95.575c3.573,4.516,7.633,10.201,11.212,16.575V52.687   c0.119,0.094,0.245,0.178,0.362,0.274l-0.002-21.115c0-7.846,5.136-14.508,12.219-16.824c-1.738-0.562-3.583-0.877-5.502-0.879   l-0.585-0.001c-9.761,0-17.703,7.942-17.703,17.704l0.001,11.959l-0.001,0.009v51.762H377.148z"/>
</g>
<path style="fill:#FBCB99;" d="M0,87.086c0,9.761,7.94,17.701,17.701,17.701h0.505c-2.537,3.064-4.064,6.996-4.064,11.273  l0.002,0.586c0.001,9.762,7.939,17.704,17.7,17.704h64.864c-8.151,5.592-18.494,14.545-20.757,25.099  c-1.26,5.855,0.073,11.316,3.845,16.406l1.299,1.756l1.802,1.225c4.087,2.779,15.806,7.623,36.32-7.35  c11.232-8.193,19.739-9.741,27.971-11.243c15.378-2.803,26.901-6.435,44.994-29.926h29.484V29.497l-39.199-0.003  C167.458,8.812,110.703,9.749,108.299,9.8l-41.7-0.001c-9.76,0.002-17.703,7.941-17.703,17.703v0.587  c0,4.279,1.528,8.21,4.065,11.275l-21.115-0.001c-9.761,0-17.704,7.941-17.704,17.703l0.001,0.585  c0.003,4.2,1.448,8.089,3.921,11.146h-0.362c-9.762,0-17.7,7.941-17.7,17.703L0,87.086z"/>
<g>
	<path style="fill:#E9B585;" d="M178.03,38.848l43.638,0.002v-9.352l-39.199-0.003C167.458,8.812,110.703,9.749,108.299,9.8   l-41.7-0.001c-9.76,0.002-17.703,7.941-17.703,17.703v0.587c0,1.915,0.32,3.754,0.887,5.483   c2.319-7.073,8.978-14.418,16.816-14.421l41.7,0.001C110.703,19.102,163.019,18.164,178.03,38.848z"/>
	<path style="fill:#E9B585;" d="M31.845,50.934l21.115,0.002c-0.097-0.117-0.18-0.243-0.274-0.362h47.955   c3.097,0,5.605-2.509,5.605-5.606c0-3.095-2.508-5.605-5.605-5.605H43.813l-0.009,0.001l-11.959-0.001   c-9.761,0-17.704,7.941-17.704,17.703l0.001,0.585c0.002,1.919,0.317,3.764,0.879,5.502C17.337,56.07,23.999,50.934,31.845,50.934z   "/>
	<path style="fill:#E9B585;" d="M21.074,115.189c0.162,0.014,0.316,0.049,0.484,0.049h56.83c3.096,0,5.605-2.51,5.605-5.606   c0-3.096-2.509-5.606-5.605-5.606h-56.83c-0.059,0-0.113,0.014-0.169,0.017c-1.992,0.089-3.182,0.746-3.182,0.746   c-0.488,0.538-0.908,1.112-1.287,1.697c0,0-0.012,0.019-0.018,0.026c-3.145,4.876-2.759,10.93-2.759,10.93l0.037,0.069   c0.08,1.61,0.368,3.167,0.851,4.639c0.645-1.97,1.626-3.785,2.876-5.386C18.965,115.757,20.11,115.34,21.074,115.189z"/>
	<path style="fill:#E9B585;" d="M17.701,80.37h0.362h54.724c3.096,0,5.604-2.509,5.604-5.606c0-3.097-2.508-5.608-5.604-5.608   H15.956c-0.634,0-1.234,0.129-1.801,0.324c-0.001-0.085-0.012-0.17-0.012-0.256v-0.068C6.08,70.808,0.001,77.956,0.001,86.5   L0,87.086c0,1.919,0.316,3.762,0.883,5.494C3.202,85.501,9.858,80.369,17.701,80.37z"/>
	<path style="fill:#E9B585;" d="M88.875,151.987c1.4-1.19,3.857-3.105,6.67-5.248c0.392-0.279,0.782-0.555,1.166-0.817H96.62   c7.007-5.316,15.562-11.572,15.562-11.572H96.709c-5.667,3.678-13.358,11.572-13.358,11.572c-3.526,4.045-6.345,8.609-7.399,13.527   c-0.737,3.428-0.562,6.714,0.445,9.873C78.385,162.7,83.434,156.772,88.875,151.987z"/>
</g>
<path style="fill:#FBCB99;" d="M512,424.915c0-9.761-7.94-17.701-17.701-17.701h-0.505c2.537-3.064,4.064-6.996,4.064-11.273  l-0.002-0.586c-0.001-9.762-7.939-17.704-17.7-17.704H415.29c8.151-5.592,18.494-14.545,20.757-25.099  c1.26-5.855-0.073-11.316-3.845-16.406l-1.299-1.756l-1.802-1.224c-4.087-2.779-15.806-7.623-36.318,7.35  c-11.232,8.193-19.739,9.741-27.971,11.243c-15.378,2.803-26.901,6.435-44.994,29.926h-29.484v100.82l39.199,0.003  c15.01,20.682,71.766,19.746,74.171,19.695l41.7,0.001c9.76-0.002,17.703-7.941,17.703-17.703v-0.587  c0-4.279-1.528-8.21-4.065-11.275l21.115,0.001c9.761,0,17.704-7.941,17.704-17.703l-0.001-0.585  c-0.003-4.2-1.448-8.089-3.921-11.146h0.362c9.762,0,17.7-7.941,17.7-17.703L512,424.915z"/>
<g>
	<path style="fill:#E9B585;" d="M364.81,360.635c8.232-1.501,16.739-3.05,27.971-11.243c20.512-14.973,32.232-10.129,36.318-7.35   l1.802,1.224l1.299,1.756c1.859,2.508,3.118,5.108,3.774,7.798c0.02-0.091,0.051-0.179,0.07-0.27   c1.26-5.855-0.073-11.316-3.845-16.406l-1.299-1.756l-1.802-1.224c-4.087-2.779-15.806-7.623-36.318,7.35   c-11.232,8.193-19.739,9.741-27.971,11.243c-15.378,2.803-26.901,6.435-44.994,29.926H290.33v8.878h33.923   C342.347,367.07,349.432,363.438,364.81,360.635z"/>
	<path style="fill:#E9B585;" d="M490.926,452.972c-0.162,0.014-0.316,0.049-0.484,0.049h-56.83c-3.096,0-5.605-2.51-5.605-5.606   c0-3.096,2.509-5.606,5.605-5.606h56.83c0.059,0,0.113,0.014,0.169,0.017c1.992,0.089,3.182,0.746,3.182,0.746   c0.488,0.538,0.908,1.112,1.287,1.697c0.007,0.009,0.012,0.019,0.018,0.026c3.145,4.876,2.759,10.93,2.759,10.93l-0.037,0.069   c-0.08,1.61-0.368,3.166-0.851,4.639c-0.645-1.97-1.626-3.785-2.876-5.386C493.035,453.54,491.89,453.123,490.926,452.972z"/>
	<path style="fill:#E9B585;" d="M456.153,483.304c-0.161,0.014-0.316,0.049-0.483,0.049h-34.635c-3.096,0-5.605-2.51-5.605-5.606   s2.509-5.606,5.605-5.606h34.635c0.059,0,0.113,0.014,0.169,0.017c1.992,0.089,3.182,0.746,3.182,0.746   c0.488,0.538,0.908,1.112,1.287,1.697c0.007,0.009,0.012,0.019,0.012,0.019c3.151,4.883,2.764,10.936,2.764,10.936l-0.037,0.068   c-0.08,1.61-0.368,3.167-0.851,4.639c-0.645-1.97-1.626-3.785-2.876-5.386C458.262,483.871,457.118,483.455,456.153,483.304z"/>
	<path style="fill:#E9B585;" d="M494.299,418.153h-0.362h-54.724c-3.096,0-5.604-2.509-5.604-5.606c0-3.097,2.508-5.608,5.604-5.608   h56.831c0.634,0,1.234,0.129,1.801,0.324c0.001-0.085,0.012-0.17,0.012-0.256v-0.068c8.062,1.652,14.141,8.8,14.141,17.344   l0.001,0.585c0,1.92-0.316,3.762-0.883,5.494C508.798,423.284,502.142,418.151,494.299,418.153z"/>
	<path style="fill:#E9B585;" d="M416.425,377.147c-4.516,3.573-10.201,7.633-16.574,11.212h59.463   c-0.094,0.12-0.178,0.245-0.274,0.362l21.115-0.002c7.846,0,14.508,5.136,16.824,12.219c0.562-1.738,0.877-3.583,0.879-5.502   l0.001-0.585c0-9.761-7.942-17.703-17.704-17.703l-11.959,0.001l-0.004-0.001h-51.767V377.147z"/>
	<rect x="291.44" y="381.684" style="fill:#E9B585;" width="12.652" height="100.82"/>
</g>
<g>
	<circle style="fill:#4980B0;" cx="287.356" cy="40.239" r="10.495"/>
	<circle style="fill:#4980B0;" cx="316.21" cy="40.239" r="10.495"/>
	<circle style="fill:#4980B0;" cx="474.392" cy="289.165" r="10.495"/>
	<circle style="fill:#4980B0;" cx="474.392" cy="318.018" r="10.495"/>
	<circle style="fill:#4980B0;" cx="38.429" cy="198.433" r="10.495"/>
	<circle style="fill:#4980B0;" cx="38.429" cy="227.286" r="10.495"/>
	<circle style="fill:#4980B0;" cx="196.613" cy="476.201" r="10.495"/>
	<circle style="fill:#4980B0;" cx="225.466" cy="476.201" r="10.495"/>
</g>
<path style="fill:#E1E5EC;" d="M143.241,288.616c0,6.836-4.352,8.335-7.045,8.608H23.655c-2.692-0.273-7.046-1.772-7.046-8.608  v-35.316h126.658v34.22C143.252,287.85,143.241,288.205,143.241,288.616z"/>
<path style="fill:#EFF2F9;" d="M143.241,288.616c0,6.836-4.352,8.335-7.045,8.608H48.441v-43.925h94.826v34.22  C143.252,287.85,143.241,288.205,143.241,288.616z"/>
<path style="fill:#E1E5EC;" d="M287.355,496.315c6.836,0,8.335-4.352,8.608-7.045V376.73c-0.273-2.692-1.772-7.046-8.608-7.046  h-35.316v126.657h34.22C286.588,496.326,286.943,496.315,287.355,496.315z"/>
<path style="fill:#EFF2F9;" d="M287.355,496.315c6.836,0,8.335-4.352,8.608-7.045v-87.755h-43.925v94.825h34.22  C286.588,496.326,286.943,496.315,287.355,496.315z"/>
<path style="fill:#E1E5EC;" d="M369.05,224.996c0-6.836,4.352-8.335,7.045-8.608h112.541c2.692,0.273,7.046,1.772,7.046,8.608  v35.316H369.023v-34.22C369.039,225.761,369.05,225.406,369.05,224.996z"/>
<path style="fill:#EFF2F9;" d="M369.05,224.996c0-6.836,4.352-8.335,7.045-8.608h87.755v43.925h-94.825v-34.22  C369.039,225.761,369.05,225.406,369.05,224.996z"/>
<path style="fill:#E1E5EC;" d="M226.378,17.296c-6.836,0-8.335,4.352-8.608,7.045v112.541c0.273,2.692,1.772,7.046,8.608,7.046  h35.316V17.271h-34.22C227.145,17.285,226.789,17.296,226.378,17.296z"/>
<path style="fill:#EFF2F9;" d="M226.378,17.296c-6.836,0-8.335,4.352-8.608,7.045v87.755h43.925V17.271h-34.22  C227.145,17.285,226.789,17.296,226.378,17.296z"/>
<g>
</g>
<g>
</g>
<g>
</g>
<g>
</g>
<g>
</g>
<g>
</g>
<g>
</g>
<g>
</g>
<g>
</g>
<g>
</g>
<g>
</g>
<g>
</g>
<g>
</g>
<g>
</g>
<g>
</g>
</svg>
