<?xml version="1.0" encoding="iso-8859-1"?>
<!-- Generator: Adobe Illustrator 19.0.0, SVG Export Plug-In . SVG Version: 6.00 Build 0)  -->
<svg xmlns="http://www.w3.org/2000/svg" xmlns:xlink="http://www.w3.org/1999/xlink" version="1.1" id="Layer_1" x="0px" y="0px" viewBox="0 0 516.267 516.267" style="enable-background:new 0 0 516.267 516.267;" xml:space="preserve">
<path style="fill:#415A6B;" d="M208,220.8h98.133L304,261.333c7.467-10.667,12.8-26.667,13.867-43.733  c2.133-35.2-13.867-65.067-35.2-65.067c-3.2,0-6.4,1.067-9.6,2.133c-2.133-1.067-4.267-2.133-6.4-2.133  c-65.067-22.4-85.333,61.867-61.867,99.2h1.067c0-4.267,0-11.733,2.133-21.333L208,220.8z"/>
<path style="fill:#344A5E;" d="M382.933,411.733V374.4c0-22.4-14.933-41.6-37.333-46.933l-46.933-11.733l-40.533,11.733  l-40.533-12.8L170.667,326.4c-21.333,5.333-37.333,24.533-37.333,46.933v37.333h249.6V411.733z"/>
<rect x="229.333" y="291.2" style="fill:#F7B64C;" width="57.6" height="40.533"/>
<path style="fill:#FFD15C;" d="M308.267,203.733c-12.8-2.133-23.467-6.4-34.133-11.733c-9.6,6.4-21.333,11.733-32,13.867  c-11.733,2.133-23.467,3.2-35.2,1.067c-2.133,7.467-3.2,14.933-3.2,23.467c0,40.533,24.533,73.6,54.4,73.6s54.4-33.067,54.4-73.6  C312.533,221.867,310.4,212.267,308.267,203.733z"/>
<polygon style="fill:#CED6E0;" points="285.867,322.133 258.133,330.667 231.467,322.133 232.533,398.933 284.8,398.933 "/>
<path style="fill:#F05540;" d="M274.133,345.6c0,0-9.6-14.933-14.933-14.933S244.267,345.6,244.267,345.6l7.467,12.8h14.933  L274.133,345.6z"/>
<polygon style="fill:#F3705A;" points="270.933,411.733 276.267,400 266.667,359.467 250.667,359.467 241.067,400 245.333,411.733   "/>
<g>
	<polygon style="fill:#E8EAE9;" points="258.133,330.667 229.333,297.6 219.733,315.733 240,358.4  "/>
	<polygon style="fill:#E8EAE9;" points="258.133,330.667 288,297.6 297.6,315.733 276.267,358.4  "/>
</g>
<g>
	<polygon style="fill:#415A6B;" points="277.333,411.733 321.067,364.8 299.733,342.4 323.2,336 292.267,307.2 265.6,411.733  "/>
	<polygon style="fill:#415A6B;" points="238.933,411.733 195.2,364.8 216.533,342.4 193.067,336 224,307.2 250.667,411.733  "/>
</g>
<g>
	
		<ellipse transform="matrix(0.1833 0.9831 -0.9831 0.1833 402.8336 -6.4226)" style="fill:#FFD15C;" cx="205.282" cy="239.231" rx="17.067" ry="10.667"/>
	
		<ellipse transform="matrix(0.1833 -0.9831 0.9831 0.1833 17.5373 501.0561)" style="fill:#FFD15C;" cx="310.325" cy="239.973" rx="17.067" ry="10.667"/>
</g>
<path style="fill:#8AD7F8;" d="M515.2,293.333v-71.467L454.4,198.4c-4.267-13.867-9.6-25.6-16-38.4l26.667-59.733l-50.133-50.133  L355.2,76.8c-11.733-6.4-24.533-11.733-38.4-16L293.333,0h-71.467L198.4,60.8c-12.8,5.333-25.6,10.667-37.333,17.067L101.333,51.2  L51.2,101.333l26.667,59.733c-6.4,11.733-11.733,24.533-16,38.4l-60.8,23.467V294.4l60.8,23.467c4.267,13.867,9.6,25.6,16,38.4  L51.2,416l50.133,50.133l59.733-26.667c11.733,6.4,24.533,11.733,38.4,16l23.467,60.8H294.4l23.467-60.8  c13.867-4.267,26.667-9.6,38.4-16L416,466.133L466.133,416l-26.667-59.733c6.4-11.733,11.733-24.533,16-38.4L515.2,293.333z   M116.267,261.333C114.133,182.4,176,117.333,254.933,115.2s144,59.733,146.133,138.667C403.2,332.8,341.333,397.867,262.4,400  S118.4,340.267,116.267,261.333z"/>
<g>
</g>
<g>
</g>
<g>
</g>
<g>
</g>
<g>
</g>
<g>
</g>
<g>
</g>
<g>
</g>
<g>
</g>
<g>
</g>
<g>
</g>
<g>
</g>
<g>
</g>
<g>
</g>
<g>
</g>
</svg>
