<?xml version="1.0" encoding="iso-8859-1"?>
<!-- Generator: Adobe Illustrator 19.0.0, SVG Export Plug-In . SVG Version: 6.00 Build 0)  -->
<svg xmlns="http://www.w3.org/2000/svg" xmlns:xlink="http://www.w3.org/1999/xlink" version="1.1" id="Layer_1" x="0px" y="0px" viewBox="0 0 491.52 491.52" style="enable-background:new 0 0 491.52 491.52;" xml:space="preserve">
<path style="fill:#3A556A;" d="M408.396,0.005H83.126c-5.189,0-9.397,4.568-9.397,10.202v155.396h344.062V10.207  C417.791,4.573,413.584,0.005,408.396,0.005z"/>
<rect x="91.351" y="16.788" style="fill:#E1E6E9;" width="308.838" height="135.752"/>
<rect x="91.351" y="25.759" style="fill:#EBF0F3;" width="308.838" height="126.802"/>
<g>
	<path style="fill:#64798A;" d="M474.41,152.541H17.11c-9.449,0-17.11,7.66-17.11,17.11v256.734c0,9.449,7.66,17.11,17.11,17.11   h457.3c9.449,0,17.11-7.66,17.11-17.11V169.651C491.52,160.202,483.86,152.541,474.41,152.541z"/>
	<path style="fill:#64798A;" d="M491.52,169.651c0-9.449-7.66-17.11-17.11-17.11H17.11c-9.449,0-17.11,7.66-17.11,17.11v128.367   h491.52V169.651z"/>
</g>
<path style="fill:#3A556A;" d="M0,298.018v128.367c0,9.449,7.66,17.11,17.11,17.11h457.3c9.449,0,17.11-7.66,17.11-17.11V298.018H0z  "/>
<rect x="91.351" y="34.693" style="fill:#FFFFFF;" width="308.838" height="117.862"/>
<path style="fill:#2F4859;" d="M407.311,348.314H84.209c-11.377,0-20.6,9.223-20.6,20.599c0,11.376,9.223,20.599,20.6,20.599  h323.101c11.377,0,20.6-9.223,20.6-20.599C427.91,357.537,418.688,348.314,407.311,348.314z"/>
<circle style="fill:#E56353;" cx="453.632" cy="181.868" r="10.496"/>
<circle style="fill:#44C4A1;" cx="420.966" cy="181.868" r="10.496"/>
<rect x="91.351" y="370.744" style="fill:#EBF0F3;" width="308.838" height="120.771"/>
<rect x="91.351" y="370.744" style="fill:#E1E6E9;" width="308.838" height="15.821"/>
<g>
</g>
<g>
</g>
<g>
</g>
<g>
</g>
<g>
</g>
<g>
</g>
<g>
</g>
<g>
</g>
<g>
</g>
<g>
</g>
<g>
</g>
<g>
</g>
<g>
</g>
<g>
</g>
<g>
</g>
</svg>
