<?xml version="1.0" encoding="iso-8859-1"?>
<!-- Generator: Adobe Illustrator 19.0.0, SVG Export Plug-In . SVG Version: 6.00 Build 0)  -->
<svg xmlns="http://www.w3.org/2000/svg" xmlns:xlink="http://www.w3.org/1999/xlink" version="1.1" id="Layer_1" x="0px" y="0px" viewBox="0 0 491.52 491.52" style="enable-background:new 0 0 491.52 491.52;" xml:space="preserve">
<rect style="fill:#FCD462;" width="491.52" height="47.38"/>
<path style="fill:#64798A;" d="M254.699,410.566v-61.379h-17.873v61.379c-18.31,4.099-32.064,20.423-32.064,39.953  c0,22.608,18.397,41.001,41.001,41.001s41.001-18.393,41.001-41.001C286.763,430.989,273.009,414.665,254.699,410.566z   M245.762,473.647c-12.751,0-23.127-10.377-23.127-23.127s10.377-23.127,23.127-23.127c12.751,0,23.127,10.377,23.127,23.127  S258.513,473.647,245.762,473.647z"/>
<rect x="28.959" y="47.38" style="fill:#EBF0F3;" width="433.613" height="310.743"/>
<rect x="28.959" y="47.38" style="fill:#E1E6E9;" width="433.613" height="19.41"/>
<rect x="206.029" y="254.536" style="fill:#E56353;" width="45.148" height="61.164"/>
<rect x="266.854" y="185.498" style="fill:#27A2DB;" width="45.148" height="130.207"/>
<rect x="327.675" y="115.686" style="fill:#44C4A1;" width="45.148" height="199.987"/>
<rect x="388.506" y="209.331" style="fill:#FCD462;" width="45.148" height="106.368"/>
<rect x="206.029" y="296.499" style="fill:#D15241;" width="45.148" height="19.2"/>
<rect x="266.854" y="296.499" style="fill:#2D93BA;" width="45.148" height="19.2"/>
<rect x="327.675" y="296.499" style="fill:#3EA69B;" width="45.148" height="19.2"/>
<rect x="388.506" y="296.499" style="fill:#F6C358;" width="45.148" height="19.2"/>
<path style="fill:#DC8744;" d="M105.036,315.697v-13.993c-17.519-1.789-33.238-8.754-47.167-20.9l13.988-16.682  c10.745,9.331,21.801,14.893,33.18,16.682v-37.196c-14.449-3.451-25.021-7.986-31.737-13.612  c-6.705-5.626-10.064-13.964-10.064-25.021c0-11.056,3.866-20.098,11.599-27.133c7.732-7.028,17.796-10.86,30.202-11.506v-9.585  h12.268v9.781c14.057,1.021,27.352,5.817,39.885,14.38l-12.464,17.64c-8.436-6.007-17.577-9.717-27.421-11.125v36.048h0.577  c14.692,3.451,25.494,8.119,32.395,13.999c6.913,5.88,10.364,14.409,10.364,25.598c0,11.183-3.97,20.289-11.887,27.317  c-7.929,7.034-18.408,10.866-31.449,11.506v13.803H105.036z M91.51,191.933c-3.255,2.879-4.882,6.457-4.882,10.739  s1.269,7.669,3.832,10.162c2.551,2.493,7.409,4.888,14.576,7.19v-33.168C99.277,187.369,94.776,189.059,91.51,191.933z   M131.88,276.008c3.566-2.937,5.367-6.642,5.367-11.12c0-4.472-1.408-8.021-4.224-10.641c-2.816-2.62-8.056-5.078-15.719-7.38  v34.513C123.443,280.74,128.291,278.951,131.88,276.008z"/>
<g>
</g>
<g>
</g>
<g>
</g>
<g>
</g>
<g>
</g>
<g>
</g>
<g>
</g>
<g>
</g>
<g>
</g>
<g>
</g>
<g>
</g>
<g>
</g>
<g>
</g>
<g>
</g>
<g>
</g>
</svg>
