<?xml version="1.0" encoding="iso-8859-1"?>
<!-- Generator: Adobe Illustrator 19.0.0, SVG Export Plug-In . SVG Version: 6.00 Build 0)  -->
<svg xmlns="http://www.w3.org/2000/svg" xmlns:xlink="http://www.w3.org/1999/xlink" version="1.1" id="Layer_1" x="0px" y="0px" viewBox="0 0 512.001 512.001" style="enable-background:new 0 0 512.001 512.001;" xml:space="preserve">
<path style="fill:#EF4C35;" d="M391.019,306.834l-11.759-8.656c-3.69-2.718-8.719-2.718-12.409,0l-11.572,8.515  c-3.89,2.864-5.315,8.019-3.45,12.475l4.617,11.022c1.631,3.892,5.438,6.424,9.655,6.424h14.627c4.362,0,8.266-2.703,9.8-6.787  l4.086-10.883C396.259,314.557,394.791,309.612,391.019,306.834z"/>
<path style="fill:#DD3E2B;" d="M397.422,397.712c0.782-1.812,1.055-3.823,0.734-5.814l-8.342-51.719  c-0.446-2.768-1.958-5.13-4.069-6.71h-24.449c-2.111,1.58-3.621,3.942-4.069,6.71l-8.342,51.719  c-0.303,1.873-0.084,3.767,0.593,5.494l-0.727,6.64h10.469h28.605h10.466L397.422,397.712z"/>
<g>
	<path style="fill:#D9D8DA;" d="M383.053,330.917l0.771-1.844l0,0l0.007-0.014l3.522-8.401c0.189-0.454,0.418-0.883,0.665-1.3   l6.446-14.935l31.544-39.12l29.816,13.719l0,0l13.161,5.483c1.813,0.63,43.018,15.538,43.018,66.622v42.439   c0,5.779-4.685,10.466-10.466,10.466h-14.354h-18.214h-15.699h-51.105h-9.455l-3.906-27.578l-6.426-39.827   C382.061,334.699,382.297,332.72,383.053,330.917z"/>
	<path style="fill:#D9D8DA;" d="M362.425,330.917l-0.773-1.844l0,0l-0.007-0.014l-3.52-8.401c-0.189-0.454-0.418-0.883-0.665-1.3   l-6.446-14.935l-31.546-39.12l-29.816,13.719l0,0l-13.159,5.483c-1.815,0.63-43.021,15.538-43.021,66.622v42.439   c0,5.779,4.687,10.466,10.466,10.466h14.355h18.214h15.699h51.105h9.455l3.906-27.578l6.426-39.827   C363.414,334.699,363.178,332.72,362.425,330.917z"/>
</g>
<path style="fill:#CBCBCD;" d="M246.034,400.37v-42.437c0-51.085,41.207-65.992,43.02-66.622l13.161-5.484l24.654-11.345  l-7.401-9.177l-29.816,13.719l-13.159,5.483c-1.815,0.63-43.021,15.538-43.021,66.622v42.439c0,5.779,4.687,10.466,10.466,10.466  h2.767C246.28,402.891,246.034,401.661,246.034,400.37z"/>
<path style="fill:#EDEFF4;" d="M428.375,266.449l-12.124-8c-0.452-0.297-0.925-0.544-1.409-0.766l-9.516-6.118h-63.631l-8.478,5.062  c-0.782,0.279-1.547,0.626-2.261,1.098l-13.222,8.724c-4.383,2.893-5.947,8.59-3.647,13.316l17.339,35.641  c1.361,2.792,3.89,4.839,6.907,5.582c0.827,0.205,1.668,0.305,2.506,0.305c2.211,0,4.388-0.701,6.205-2.037l20.423-15.032  c0.343-0.253,0.661-0.527,0.966-0.812l4.719-3.524l4.333,3.286c0.398,0.413,0.823,0.802,1.291,1.148l14.054,10.343  c0.022,0.018,0.048,0.034,0.072,0.052l6.165,4.539c1.817,1.336,3.994,2.037,6.205,2.037c0.838,0,1.679-0.1,2.508-0.305  c3.015-0.743,5.546-2.79,6.905-5.582l17.341-35.641C434.321,275.04,432.758,269.343,428.375,266.449z"/>
<path style="fill:#694B4B;" d="M376.722,24.503h-6.71c-45.84,0-83.136,37.295-83.136,83.136v11.089v10.378v17.534  c0,0,18.928-1.876,21.254-11.057l-0.011-0.009c0.799-0.868,1.468-1.86,1.94-2.967c10.736-0.324,60.887-0.714,89.526-35.303  c3.42,10,14.981,28.933,37.229,34.896c0.455,1.206,1.139,2.292,1.975,3.236l-0.186,0.147c2.326,9.18,21.254,11.057,21.254,11.057  v-17.605v-10.308v-11.089C459.861,61.798,422.564,24.503,376.722,24.503z M439.402,129.613l0.799-0.578h0.113l-1.304,0.964  L439.402,129.613z M438.995,129.865l0.093-0.285l0.273-0.544h0.116l-0.332,0.684L438.995,129.865z M436.789,131.569l-0.03-0.043  l2.051-1.484l-0.486,0.466l-1.499,1.109L436.789,131.569z M438.482,131.086l-0.643,1.33c-0.004,0-0.007-0.002-0.009-0.004  l-0.091-0.04c-0.016-0.01-0.032-0.017-0.045-0.024l1.048-2.08l0.026-0.027L438.482,131.086z"/>
<path style="fill:#563B3B;" d="M301.531,129.105v-10.378v-11.089c0-44.509,35.163-80.954,79.166-83.035  c-1.32-0.062-2.642-0.101-3.974-0.101h-6.71c-45.84,0-83.136,37.295-83.136,83.136v11.089v10.378v17.534  c0,0,8.364-0.834,14.653-4.085L301.531,129.105L301.531,129.105z"/>
<path style="fill:#FBCB99;" d="M449.877,134.585c-3.179-0.99-6.64-0.411-9.319,1.559c-2.681,1.973-4.265,5.104-4.265,8.432v29.827  c0,3.329,1.581,6.457,4.262,8.432c1.82,1.339,3.997,2.036,6.205,2.036c1.043,0,2.092-0.155,3.113-0.473  c2.006-0.624,3.976-1.526,5.856-2.68c1.111-0.68,2.079-1.56,2.863-2.594c1.154-0.593,2.19-1.397,3.052-2.371  c4.229-4.782,6.56-10.913,6.56-17.263C468.203,148.013,460.838,138.004,449.877,134.585z"/>
<path style="fill:#EDBA89;" d="M306.485,136.145c-2.683-1.972-6.142-2.55-9.319-1.561c-10.963,3.42-18.33,13.428-18.33,24.908  c0,11.48,7.368,21.49,18.33,24.907c1.02,0.318,2.07,0.476,3.115,0.476c2.204,0,4.385-0.697,6.205-2.037  c2.679-1.972,4.265-5.104,4.265-8.431v-29.829C310.75,141.248,309.164,138.118,306.485,136.145z"/>
<path style="fill:#FBCB99;" d="M402.101,226.407c-2.059-1.973-4.821-3.006-7.691-2.901l-0.355,0.019  c-0.639,0.023-1.273,0.103-1.897,0.242c-4.045,0.899-8.162,1.356-12.238,1.356h-12.797c-4.195,0-8.433-0.486-12.6-1.44  c-3.108-0.712-6.369,0.03-8.86,2.016c-2.495,1.986-3.946,5.001-3.946,8.187v30.448l-0.007,0.103  c-0.166,3.021,0.981,5.967,3.149,8.078l21.029,20.484c1.956,1.905,4.578,2.968,7.305,2.968c0.054,0,0.111,0,0.164-0.001  c2.785-0.044,5.44-1.196,7.372-3.205l21.668-22.491c1.877-1.95,2.928-4.552,2.928-7.262v-29.042  C405.325,231.11,404.16,228.379,402.101,226.407z"/>
<path style="fill:#EDBA89;" d="M375.309,289.857l-21.032-20.483c-2.166-2.113-3.313-5.059-3.147-8.078l0.007-0.103v-30.448  c0-2.679,1.036-5.228,2.843-7.154c-2.941-0.516-5.971,0.236-8.319,2.107c-2.495,1.986-3.946,5.001-3.946,8.187v30.448l-0.007,0.103  c-0.166,3.021,0.981,5.967,3.149,8.078l21.029,20.484c1.956,1.905,4.578,2.968,7.305,2.968c0.054,0,0.111,0,0.164-0.001  c2.785-0.044,5.44-1.196,7.372-3.205l0.093-0.098C378.758,292.304,376.831,291.339,375.309,289.857z"/>
<path style="fill:#FBCB99;" d="M434.712,126.043c-1.263-0.47-2.458-1.02-3.626-1.603c-17.587-8.209-24.888-18.884-27.832-25.25  c-0.171-0.241-0.344-0.509-0.527-0.841c-2.103-3.865-5.38-1.419-5.38-1.419l-0.009-0.004c-16.427,12.598-34.37,19.964-49.283,24.249  c-5.806,1.716-11.372,2.96-16.401,3.858c-9.997,1.836-16.425,2.077-16.425,2.077c-5.475,0.394-9.716,4.952-9.716,10.44v42.713  c0,33.969,27.637,61.606,61.607,61.606h12.797c33.972,0,61.607-27.637,61.607-61.606v-44.413  C441.526,131.48,438.809,127.567,434.712,126.043z"/>
<path style="fill:#EDBA89;" d="M318.077,180.264v-42.713c0-5.488,4.24-10.046,9.716-10.44c0,0,6.428-0.241,16.425-2.077  c5.029-0.899,10.595-2.142,16.401-3.858c13.202-3.793,28.771-10.007,43.568-20.121c-0.349-0.654-0.659-1.276-0.931-1.865  c-0.171-0.241-0.344-0.509-0.527-0.841c-2.103-3.865-5.38-1.419-5.38-1.419l-0.009-0.004c-16.427,12.598-34.37,19.964-49.283,24.249  c-5.806,1.716-11.372,2.96-16.401,3.858c-9.997,1.836-16.425,2.077-16.425,2.077c-5.475,0.394-9.716,4.952-9.716,10.44v42.713  c0,33.969,27.637,61.606,61.607,61.606h12.561C345.711,241.869,318.077,214.233,318.077,180.264z"/>
<g>
	<path style="fill:#CBCBCD;" d="M276.824,404.034h15.701v-49.826c0-4.336-3.515-7.85-7.851-7.85s-7.851,3.514-7.851,7.85V404.034z"/>
	<path style="fill:#CBCBCD;" d="M469.284,404.034v-49.826c0-4.336-3.515-7.85-7.851-7.85c-4.336,0-7.851,3.514-7.851,7.85v49.826   H469.284z"/>
	<path style="fill:#CBCBCD;" d="M322.069,296.177c0,0-13.31,14.302-21.349,17.629v8.594l22.085,14.213l37.509,17.288l-1.454,9.013   l-68.34-24.813v-28.205l27.099-22.86L322.069,296.177z"/>
</g>
<path style="fill:#EF4C35;" d="M157.545,306.834l-11.76-8.656c-3.69-2.718-8.719-2.718-12.409,0l-11.571,8.515  c-3.891,2.864-5.316,8.019-3.45,12.475l4.617,11.022c1.629,3.892,5.437,6.424,9.654,6.424h14.629c4.362,0,8.266-2.703,9.8-6.787  l4.086-10.883C162.786,314.557,161.317,309.612,157.545,306.834z"/>
<path style="fill:#DD3E2B;" d="M163.949,397.712c0.782-1.812,1.056-3.823,0.735-5.814l-8.343-51.719  c-0.446-2.768-1.957-5.13-4.069-6.71h-24.448c-2.111,1.58-3.623,3.942-4.069,6.71l-8.344,51.719  c-0.302,1.873-0.083,3.767,0.595,5.494l-0.727,6.64h10.468h28.605h10.466L163.949,397.712z"/>
<g>
	<path style="fill:#D9D8DA;" d="M149.579,330.917l0.771-1.844l0,0l0.007-0.014l3.519-8.401c0.189-0.454,0.418-0.883,0.665-1.3   l6.445-14.935l31.545-39.12l29.816,13.719l0,0l13.161,5.483c1.812,0.63,43.018,15.538,43.018,66.622v42.439   c0,5.779-4.685,10.466-10.466,10.466h-14.353h-18.213h-15.7h-51.104h-9.455l-3.908-27.578l-6.425-39.827   C148.587,334.699,148.823,332.72,149.579,330.917z"/>
	<path style="fill:#D9D8DA;" d="M128.949,330.917l-0.772-1.844l0,0l-0.007-0.014l-3.518-8.401c-0.19-0.454-0.419-0.883-0.666-1.3   l-6.446-14.935l-31.545-39.12L56.18,279.022l0,0l-13.16,5.483C41.207,285.136,0,300.044,0,351.128v42.439   c0,5.779,4.687,10.466,10.466,10.466h14.356h18.213h15.7h51.104h9.455l3.908-27.578l6.425-39.827   C129.94,334.699,129.703,332.72,128.949,330.917z"/>
</g>
<path style="fill:#CBCBCD;" d="M12.561,400.37v-42.437c0-51.085,41.207-65.992,43.02-66.622l13.16-5.484l24.656-11.345l-7.4-9.177  l-29.816,13.719l-13.16,5.483C41.207,285.136,0,300.044,0,351.128v42.439c0,5.779,4.687,10.466,10.466,10.466h2.767  C12.806,402.891,12.561,401.661,12.561,400.37z"/>
<path style="fill:#EDEFF4;" d="M194.901,266.449l-12.123-8c-0.452-0.297-0.925-0.544-1.409-0.766l-9.516-6.118h-63.633l-8.478,5.062  c-0.782,0.279-1.547,0.626-2.261,1.098l-13.221,8.724c-4.386,2.893-5.947,8.59-3.648,13.316l17.339,35.641  c1.359,2.792,3.889,4.839,6.906,5.582c0.828,0.205,1.668,0.305,2.505,0.305c2.211,0,4.389-0.701,6.206-2.037l20.423-15.032  c0.342-0.253,0.661-0.527,0.966-0.812l4.718-3.524l4.333,3.286c0.398,0.413,0.824,0.802,1.292,1.148l14.052,10.343  c0.022,0.018,0.049,0.034,0.073,0.052l6.165,4.539c1.816,1.336,3.994,2.037,6.205,2.037c0.837,0,1.678-0.1,2.506-0.305  c3.016-0.743,5.546-2.79,6.906-5.582l17.34-35.641C200.846,275.04,199.285,269.343,194.901,266.449z"/>
<path style="fill:#694B4B;" d="M143.248,24.503h-6.709c-45.84,0-83.137,37.295-83.137,83.136v11.089v10.378v17.534  c0,0,18.928-1.876,21.256-11.057l-0.011-0.009c0.799-0.868,1.468-1.86,1.939-2.967c10.737-0.324,60.889-0.714,89.529-35.303  c3.419,10,14.979,28.933,37.227,34.896c0.456,1.206,1.139,2.292,1.975,3.236l-0.186,0.147c2.326,9.18,21.254,11.057,21.254,11.057  v-17.605v-10.308v-11.089C226.385,61.798,189.09,24.503,143.248,24.503z M205.929,129.613l0.799-0.578h0.112l-1.304,0.964  L205.929,129.613z M205.521,129.865l0.092-0.285l0.275-0.544h0.115l-0.33,0.684L205.521,129.865z M203.315,131.569l-0.03-0.043  l2.05-1.484l-0.486,0.466l-1.498,1.109L203.315,131.569z M205.009,131.086l-0.644,1.33c-0.003,0-0.006-0.002-0.008-0.004  l-0.091-0.04c-0.017-0.01-0.032-0.017-0.047-0.024l1.049-2.08l0.027-0.027L205.009,131.086z"/>
<path style="fill:#563B3B;" d="M68.057,129.105v-10.378v-11.089c0-44.509,35.162-80.954,79.165-83.035  c-1.317-0.062-2.641-0.101-3.973-0.101h-6.709c-45.84,0-83.137,37.295-83.137,83.136v11.089v10.378v17.534  c0,0,8.364-0.834,14.655-4.085v-13.449H68.057z"/>
<path style="fill:#FBCB99;" d="M216.401,134.585c-3.179-0.99-6.639-0.411-9.319,1.559c-2.681,1.973-4.265,5.104-4.265,8.432v29.827  c0,3.329,1.582,6.457,4.262,8.432c1.821,1.339,4,2.036,6.206,2.036c1.042,0,2.091-0.155,3.111-0.473  c2.007-0.624,3.977-1.526,5.858-2.68c1.11-0.68,2.079-1.56,2.863-2.594c1.153-0.593,2.189-1.397,3.052-2.371  c4.229-4.782,6.559-10.913,6.559-17.263C234.728,148.013,227.363,138.004,216.401,134.585z"/>
<path style="fill:#EDBA89;" d="M73.011,136.145c-2.682-1.972-6.142-2.55-9.32-1.561c-10.963,3.42-18.329,13.428-18.329,24.908  c0,11.48,7.366,21.49,18.329,24.907c1.02,0.318,2.071,0.476,3.116,0.476c2.204,0,4.384-0.697,6.204-2.037  c2.68-1.972,4.264-5.104,4.264-8.431v-29.829C77.275,141.248,75.691,138.118,73.011,136.145z"/>
<path style="fill:#FBCB99;" d="M168.625,226.407c-2.059-1.973-4.819-3.006-7.689-2.901l-0.356,0.019  c-0.639,0.023-1.274,0.103-1.897,0.242c-4.045,0.899-8.163,1.356-12.238,1.356h-12.798c-4.194,0-8.433-0.486-12.599-1.44  c-3.108-0.712-6.37,0.03-8.862,2.016c-2.493,1.986-3.945,5.001-3.945,8.187v30.448l-0.006,0.103  c-0.167,3.021,0.98,5.967,3.147,8.078l21.03,20.484c1.956,1.905,4.577,2.968,7.304,2.968c0.055,0,0.111,0,0.166-0.001  c2.785-0.044,5.439-1.196,7.372-3.205l21.667-22.491c1.878-1.95,2.928-4.552,2.928-7.262v-29.042  C171.851,231.11,170.687,228.379,168.625,226.407z"/>
<path style="fill:#EDBA89;" d="M141.834,289.857l-21.03-20.483c-2.168-2.113-3.315-5.059-3.147-8.078l0.006-0.103v-30.448  c0-2.679,1.037-5.228,2.844-7.154c-2.943-0.516-5.972,0.236-8.32,2.107c-2.493,1.986-3.945,5.001-3.945,8.187v30.448l-0.006,0.103  c-0.167,3.021,0.98,5.967,3.147,8.078l21.03,20.484c1.956,1.905,4.577,2.968,7.304,2.968c0.055,0,0.111,0,0.166-0.001  c2.785-0.044,5.439-1.196,7.372-3.205l0.093-0.098C145.284,292.304,143.357,291.339,141.834,289.857z"/>
<path style="fill:#FBCB99;" d="M201.238,126.043c-1.262-0.47-2.458-1.02-3.625-1.603c-17.589-8.209-24.889-18.884-27.832-25.25  c-0.171-0.241-0.346-0.509-0.527-0.841c-2.104-3.865-5.38-1.419-5.38-1.419l-0.01-0.004c-16.427,12.598-34.369,19.964-49.282,24.249  c-5.807,1.716-11.372,2.96-16.402,3.858c-9.997,1.836-16.424,2.077-16.424,2.077c-5.476,0.394-9.715,4.952-9.715,10.44v42.713  c0,33.969,27.636,61.606,61.606,61.606h12.798c33.97,0,61.606-27.637,61.606-61.606v-44.413  C208.052,131.48,205.335,127.567,201.238,126.043z"/>
<path style="fill:#EDBA89;" d="M84.602,180.264v-42.713c0-5.488,4.24-10.046,9.716-10.44c0,0,6.427-0.241,16.424-2.077  c5.03-0.899,10.595-2.142,16.402-3.858c13.202-3.793,28.772-10.007,43.568-20.121c-0.349-0.654-0.658-1.276-0.93-1.865  c-0.171-0.241-0.346-0.509-0.527-0.841c-2.103-3.865-5.38-1.419-5.38-1.419l-0.01-0.004c-16.427,12.598-34.369,19.964-49.282,24.249  c-5.807,1.716-11.372,2.96-16.402,3.858c-9.997,1.836-16.424,2.077-16.424,2.077c-5.476,0.394-9.715,4.952-9.715,10.44v42.713  c0,33.969,27.636,61.606,61.606,61.606h12.561C112.238,241.869,84.602,214.233,84.602,180.264z"/>
<g>
	<path style="fill:#CBCBCD;" d="M43.351,404.034h15.7v-49.826c0-4.336-3.515-7.85-7.851-7.85s-7.851,3.514-7.851,7.85v49.826H43.351   z"/>
	<path style="fill:#CBCBCD;" d="M235.809,404.034v-49.826c0-4.336-3.514-7.85-7.851-7.85c-4.336,0-7.851,3.514-7.851,7.85v49.826   H235.809z"/>
</g>
<path style="fill:#EF4C35;" d="M275.366,384.53l-12.458-9.17c-3.909-2.879-9.237-2.88-13.145,0l-12.257,9.022  c-4.122,3.033-5.632,8.494-3.655,13.214l4.891,11.676c1.726,4.123,5.758,6.805,10.228,6.805h15.496  c4.621,0,8.757-2.865,10.381-7.191l4.328-11.529C280.919,392.711,279.362,387.472,275.366,384.53z"/>
<path style="fill:#DD3E2B;" d="M282.15,480.803c0.828-1.918,1.119-4.051,0.778-6.16l-8.839-54.788  c-0.472-2.933-2.074-5.433-4.311-7.108h-25.897c-2.238,1.674-3.839,4.176-4.312,7.108l-8.84,54.788  c-0.319,1.984-0.089,3.992,0.63,5.82l-0.771,7.035h11.087h30.305h11.089L282.15,480.803z"/>
<g>
	<path style="fill:#D9D8DA;" d="M266.928,410.043l0.816-1.953l0,0l0.008-0.017l3.728-8.9c0.201-0.48,0.444-0.935,0.706-1.376   l6.826-15.821l33.417-41.443l31.586,14.534l0,0l13.942,5.809c1.921,0.668,45.573,16.459,45.573,70.576v44.956   c0,6.124-4.965,11.089-11.089,11.089h-15.207h-19.294h-16.633H287.17h-10.016l-4.139-29.216l-6.807-42.191   C265.877,414.048,266.128,411.952,266.928,410.043z"/>
	<path style="fill:#D9D8DA;" d="M245.074,410.043l-0.817-1.953l0,0l-0.007-0.017l-3.728-8.9c-0.201-0.48-0.444-0.935-0.706-1.376   l-6.827-15.821l-33.417-41.443l-31.586,14.534l0,0l-13.942,5.809c-1.921,0.668-45.573,16.459-45.573,70.576v44.956   c0,6.124,4.964,11.089,11.089,11.089h15.207h19.294h16.633h54.136h10.016l4.14-29.216l6.807-42.191   C246.123,414.048,245.873,411.952,245.074,410.043z"/>
</g>
<path style="fill:#CBCBCD;" d="M121.777,483.617v-44.956c0-54.119,43.652-69.91,45.573-70.576l13.942-5.809l26.119-12.019  l-7.84-9.724l-31.586,14.534l-13.942,5.809c-1.921,0.668-45.573,16.459-45.573,70.576v44.956c0,6.124,4.964,11.089,11.089,11.089  h2.93C122.037,486.289,121.777,484.984,121.777,483.617z"/>
<path style="fill:#EDEFF4;" d="M314.938,341.747l-12.843-8.474c-0.479-0.315-0.98-0.578-1.494-0.813l-10.081-6.481h-67.409  l-8.981,5.362c-0.829,0.296-1.639,0.664-2.396,1.163l-14.006,9.242c-4.645,3.066-6.299,9.1-3.863,14.107l18.367,37.756  c1.439,2.96,4.12,5.126,7.316,5.915c0.878,0.216,1.769,0.323,2.655,0.323c2.342,0,4.649-0.743,6.573-2.158l21.635-15.923  c0.361-0.266,0.701-0.557,1.025-0.86l4.998-3.732l4.592,3.482c0.422,0.437,0.873,0.849,1.368,1.215l14.886,10.958  c0.023,0.019,0.051,0.037,0.077,0.057l6.532,4.807c1.924,1.415,4.23,2.158,6.573,2.158c0.887,0,1.779-0.106,2.656-0.323  c3.196-0.788,5.876-2.955,7.316-5.915l18.368-37.756C321.238,350.848,319.584,344.812,314.938,341.747z"/>
<path style="fill:#694B4B;" d="M260.222,85.441h-7.108c-48.561,0-88.069,39.508-88.069,88.071v11.746v10.994v18.575  c0,0,20.05-1.988,22.515-11.714l-0.011-0.009c0.847-0.919,1.555-1.97,2.055-3.142c11.375-0.345,64.503-0.757,94.843-37.4  c3.621,10.594,15.869,30.652,39.436,36.968c0.483,1.277,1.206,2.427,2.092,3.427l-0.197,0.156  c2.465,9.726,22.516,11.714,22.516,11.714v-18.65v-10.92v-11.746C348.294,124.949,308.785,85.441,260.222,85.441z M326.623,196.79  l0.847-0.613h0.119l-1.382,1.022L326.623,196.79z M326.191,197.055l0.098-0.3l0.292-0.578h0.122l-0.35,0.725L326.191,197.055z   M323.852,198.861l-0.031-0.045l2.172-1.572l-0.514,0.493l-1.587,1.175L323.852,198.861z M325.649,198.35l-0.683,1.409  c-0.003-0.001-0.006-0.002-0.009-0.004l-0.095-0.042c-0.018-0.01-0.034-0.019-0.05-0.027l1.111-2.204l0.028-0.028L325.649,198.35z"/>
<path style="fill:#563B3B;" d="M180.568,196.252v-10.994v-11.746c0-47.151,37.247-85.76,83.862-87.964  c-1.396-0.065-2.798-0.106-4.209-0.106h-7.108c-48.561,0-88.069,39.508-88.069,88.071v11.746v10.994v18.575  c0,0,8.859-0.883,15.524-4.328L180.568,196.252L180.568,196.252z"/>
<path style="fill:#FBCB99;" d="M337.716,202.057c-3.369-1.049-7.033-0.436-9.872,1.653c-2.841,2.09-4.517,5.406-4.517,8.933v31.598  c0,3.526,1.677,6.841,4.515,8.931c1.928,1.419,4.236,2.158,6.574,2.158c1.104,0,2.215-0.164,3.296-0.501  c2.127-0.662,4.215-1.618,6.206-2.841c1.175-0.72,2.202-1.652,3.033-2.747c1.222-0.628,2.319-1.479,3.232-2.513  c4.481-5.065,6.949-11.56,6.949-18.286C357.131,216.282,349.329,205.679,337.716,202.057z"/>
<path style="fill:#EDBA89;" d="M185.815,203.71c-2.841-2.09-6.506-2.703-9.872-1.654c-11.614,3.623-19.417,14.225-19.417,26.386  c0,12.161,7.803,22.764,19.417,26.386c1.082,0.337,2.194,0.502,3.301,0.502c2.335,0,4.644-0.738,6.571-2.157  c2.84-2.089,4.517-5.406,4.517-8.932v-31.6C190.332,209.116,188.654,205.799,185.815,203.71z"/>
<path style="fill:#FBCB99;" d="M287.105,299.328c-2.182-2.09-5.106-3.184-8.146-3.073l-0.377,0.02  c-0.676,0.023-1.349,0.11-2.01,0.256c-4.286,0.951-8.648,1.435-12.964,1.435H250.05c-4.444,0-8.935-0.513-13.348-1.525  c-3.292-0.755-6.747,0.031-9.388,2.136c-2.64,2.105-4.179,5.296-4.179,8.672v32.255l-0.007,0.109  c-0.177,3.201,1.039,6.32,3.334,8.558l22.279,21.699c2.072,2.017,4.849,3.145,7.736,3.145c0.059,0,0.118,0,0.176-0.001  c2.951-0.048,5.762-1.27,7.81-3.394l22.953-23.826c1.99-2.066,3.103-4.824,3.103-7.693v-30.766  C290.522,304.312,289.288,301.42,287.105,299.328z"/>
<path style="fill:#EDBA89;" d="M258.723,366.545l-22.279-21.699c-2.295-2.238-3.512-5.357-3.334-8.558l0.007-0.109v-32.255  c0-2.839,1.098-5.538,3.014-7.579c-3.117-0.544-6.327,0.251-8.814,2.233c-2.64,2.105-4.179,5.296-4.179,8.672v32.255l-0.007,0.109  c-0.177,3.201,1.039,6.32,3.334,8.558l22.279,21.699c2.072,2.017,4.849,3.145,7.736,3.145c0.059,0,0.118,0,0.176-0.001  c2.951-0.048,5.762-1.27,7.81-3.394l0.099-0.103C262.378,369.137,260.336,368.115,258.723,366.545z"/>
<path style="fill:#FBCB99;" d="M321.652,193.007c-1.337-0.498-2.605-1.08-3.84-1.699c-18.632-8.696-26.366-20.005-29.483-26.747  c-0.182-0.255-0.366-0.539-0.558-0.89c-2.229-4.095-5.699-1.504-5.699-1.504l-0.011-0.006  c-17.401,13.346-36.407,21.148-52.207,25.69c-6.152,1.817-12.047,3.134-17.375,4.087c-10.591,1.946-17.4,2.2-17.4,2.2  c-5.799,0.418-10.292,5.245-10.292,11.061v45.248c0,35.986,29.277,65.261,65.264,65.261h13.558  c35.986,0,65.261-29.276,65.261-65.261v-47.049C328.871,198.767,325.992,194.624,321.652,193.007z"/>
<path style="fill:#EDBA89;" d="M198.094,250.447v-45.248c0-5.815,4.492-10.643,10.292-11.061c0,0,6.809-0.254,17.4-2.2  c5.328-0.952,11.223-2.27,17.375-4.087c13.985-4.02,30.48-10.603,46.154-21.315c-0.37-0.693-0.697-1.354-0.986-1.975  c-0.182-0.255-0.366-0.539-0.558-0.89c-2.229-4.095-5.699-1.504-5.699-1.504l-0.011-0.006  c-17.401,13.346-36.407,21.148-52.207,25.69c-6.152,1.817-12.047,3.134-17.375,4.087c-10.591,1.946-17.4,2.2-17.4,2.2  c-5.799,0.418-10.292,5.245-10.292,11.061v45.248c0,35.986,29.277,65.261,65.264,65.261h13.305  C227.371,315.708,198.094,286.432,198.094,250.447z"/>
<g>
	<path style="fill:#CBCBCD;" d="M154.393,487.498h16.633v-52.784c0-4.593-3.724-8.316-8.316-8.316s-8.316,3.724-8.316,8.316V487.498   z"/>
	<path style="fill:#CBCBCD;" d="M358.275,487.498v-52.784c0-4.593-3.722-8.316-8.316-8.316c-4.593,0-8.316,3.724-8.316,8.316v52.784   H358.275z"/>
</g>
<g>
</g>
<g>
</g>
<g>
</g>
<g>
</g>
<g>
</g>
<g>
</g>
<g>
</g>
<g>
</g>
<g>
</g>
<g>
</g>
<g>
</g>
<g>
</g>
<g>
</g>
<g>
</g>
<g>
</g>
</svg>
