<?xml version="1.0" encoding="iso-8859-1"?>
<!-- Generator: Adobe Illustrator 19.0.0, SVG Export Plug-In . SVG Version: 6.00 Build 0)  -->
<svg xmlns="http://www.w3.org/2000/svg" xmlns:xlink="http://www.w3.org/1999/xlink" version="1.1" id="Layer_1" x="0px" y="0px" viewBox="0 0 512 512" style="enable-background:new 0 0 512 512;" xml:space="preserve">
<circle style="fill:#E8EAE9;" cx="256" cy="256" r="139.733"/>
<path style="fill:#344A5E;" d="M334.933,318.933l-39.467-10.667L256,321.067l-39.467-11.733L177.067,320  c-13.867,3.2-23.467,13.867-27.733,27.733c25.6,29.867,64,49.067,105.6,49.067s80-19.2,105.6-49.067  C358.4,333.867,347.733,323.2,334.933,318.933z"/>
<rect x="231.467" y="285.867" style="fill:#F7B64C;" width="50.133" height="35.2"/>
<ellipse style="fill:#FFD15C;" cx="256" cy="232.533" rx="46.933" ry="66.133"/>
<path style="fill:#415A6B;" d="M211.2,245.333c0-9.6,2.133-44.8,29.867-48c0,0-11.733,5.333-14.933,11.733  c5.333-5.333,35.2-18.133,58.667-6.4c17.067,8.533,13.867,38.4,12.8,42.667h4.267c1.067-4.267,19.2-69.333-35.2-86.4  c-55.467-17.067-76.8,53.333-57.6,86.4H211.2z"/>
<g>
	
		<ellipse transform="matrix(0.1833 0.9831 -0.9831 0.1833 413.9962 -8.3715)" style="fill:#FFD15C;" cx="212.036" cy="244.975" rx="14.934" ry="9.6"/>
	
		<ellipse transform="matrix(0.1833 -0.9831 0.9831 0.1833 4.4126 496.0711)" style="fill:#FFD15C;" cx="300.763" cy="245.38" rx="14.934" ry="9.6"/>
</g>
<polygon style="fill:#55C0EB;" points="280.533,313.6 256,321.067 232.533,313.6 233.6,380.8 279.467,380.8 "/>
<path style="fill:#F05540;" d="M272,337.067c0,0-8.533-16-16-16s-16,16-16,16l7.467,10.667h16L272,337.067z"/>
<path style="fill:#F3705A;" d="M248.533,347.733l-11.733,35.2l5.333,11.733c4.267,0,9.6,1.067,13.867,1.067  c5.333,0,9.6,0,14.933-1.067l5.333-11.733l-11.733-35.2H248.533z"/>
<g>
	<path style="fill:#8AD7F8;" d="M256,321.067c0,0-23.467-14.933-25.6-28.8l-8.533,14.933L240,344.533   C243.2,336,248.533,326.4,256,321.067z"/>
	<path style="fill:#8AD7F8;" d="M256,321.067c0,0,23.467-14.933,25.6-28.8l8.533,14.933L272,344.533   C269.867,336,263.467,326.4,256,321.067z"/>
</g>
<g>
	<path style="fill:#415A6B;" d="M226.133,300.8l-23.467,22.4l13.867,6.4l-13.867,6.4l34.133,58.667   c4.267,0,7.467,1.067,11.733,1.067L226.133,300.8z"/>
	<path style="fill:#415A6B;" d="M286.933,300.8l-22.4,94.933c4.267,0,7.467-1.067,11.733-1.067L309.333,336l-13.867-6.4l13.867-6.4   L286.933,300.8z"/>
	<path style="fill:#415A6B;" d="M256,0C114.133,0,0,114.133,0,256s114.133,256,256,256s256-114.133,256-256S397.867,0,256,0z    M277.333,468.267v-27.733c0-11.733-9.6-21.333-21.333-21.333s-21.333,9.6-21.333,21.333v27.733   C134.4,458.667,53.333,377.6,43.733,277.333h27.733c11.733,0,21.333-9.6,21.333-21.333s-9.6-21.333-21.333-21.333H43.733   C53.333,134.4,134.4,53.333,234.667,43.733v27.733c0,11.733,9.6,21.333,21.333,21.333s21.333-9.6,21.333-21.333V43.733   c100.267,9.6,181.333,90.667,190.933,190.933H438.4c-11.733,0-21.333,9.6-21.333,21.333s9.6,21.333,21.333,21.333h29.867   C458.667,377.6,377.6,458.667,277.333,468.267z"/>
</g>
<g>
</g>
<g>
</g>
<g>
</g>
<g>
</g>
<g>
</g>
<g>
</g>
<g>
</g>
<g>
</g>
<g>
</g>
<g>
</g>
<g>
</g>
<g>
</g>
<g>
</g>
<g>
</g>
<g>
</g>
</svg>
