<?xml version="1.0" encoding="iso-8859-1"?>
<!-- Generator: Adobe Illustrator 19.0.0, SVG Export Plug-In . SVG Version: 6.00 Build 0)  -->
<svg xmlns="http://www.w3.org/2000/svg" xmlns:xlink="http://www.w3.org/1999/xlink" version="1.1" id="Layer_1" x="0px" y="0px" viewBox="0 0 512 512" style="enable-background:new 0 0 512 512;" xml:space="preserve">
<path style="fill:#415A6B;" d="M449.067,318.933v53.333h-21.333V329.6H266.667v42.667h-21.333V329.6H84.267v42.667H62.933v-53.333  c0-5.333,5.333-10.667,10.667-10.667h171.733V272h21.333v36.267H438.4C444.8,308.267,449.067,313.6,449.067,318.933z"/>
<circle style="fill:#FFD15C;" cx="256" cy="139.733" r="139.733"/>
<circle style="fill:#F7B64C;" cx="256" cy="139.733" r="97.067"/>
<path style="fill:#FFD15C;" d="M249.6,199.467V188.8c-11.733-2.133-23.467-7.467-33.067-16l13.867-16  c7.467,6.4,13.867,10.667,20.267,12.8v-21.333c-9.6-2.133-17.067-6.4-22.4-10.667c-4.267-4.267-7.467-10.667-7.467-19.2  s3.2-14.933,8.533-20.267c5.333-5.333,12.8-8.533,21.333-9.6v-7.467H265.6v7.467c9.6,1.067,19.2,5.333,28.8,11.733l-12.8,17.067  c-6.4-4.267-11.733-7.467-17.067-8.533v20.267c10.667,3.2,18.133,6.4,22.4,10.667c5.333,4.267,7.467,10.667,7.467,19.2  s-3.2,14.933-8.533,20.267c-5.333,5.333-12.8,8.533-22.4,9.6v9.6H249.6V199.467z M249.6,107.733c-4.267,1.067-6.4,4.267-6.4,7.467  s2.133,6.4,6.4,8.533V107.733z M273.067,160c0-2.133,0-3.2-1.067-5.333c-1.067-1.067-3.2-2.133-5.333-3.2V169.6  C269.867,167.467,273.067,164.267,273.067,160z"/>
<path style="fill:#66C6B9;" d="M125.867,364.8H21.333C9.6,364.8,0,374.4,0,386.133v104.533C0,502.4,9.6,512,21.333,512h104.533  c11.733,0,21.333-9.6,21.333-21.333V386.133C147.2,374.4,137.6,364.8,125.867,364.8z"/>
<rect x="27.733" y="392.533" style="fill:#4EC0AA;" width="91.733" height="91.733"/>
<path style="fill:#F3705A;" d="M308.267,364.8H203.733c-11.733,0-21.333,9.6-21.333,21.333v104.533C182.4,502.4,192,512,203.733,512  h104.533c11.733,0,21.333-9.6,21.333-21.333V386.133C329.6,374.4,320,364.8,308.267,364.8z"/>
<rect x="210.133" y="392.533" style="fill:#F05540;" width="91.733" height="91.733"/>
<path style="fill:#66C6B9;" d="M490.667,364.8H386.133c-11.733,0-21.333,9.6-21.333,21.333v104.533  c0,11.733,9.6,21.333,21.333,21.333h104.533C502.4,512,512,502.4,512,490.667V386.133C512,374.4,502.4,364.8,490.667,364.8z"/>
<rect x="392.533" y="392.533" style="fill:#4EC0AA;" width="91.733" height="91.733"/>
<g>
</g>
<g>
</g>
<g>
</g>
<g>
</g>
<g>
</g>
<g>
</g>
<g>
</g>
<g>
</g>
<g>
</g>
<g>
</g>
<g>
</g>
<g>
</g>
<g>
</g>
<g>
</g>
<g>
</g>
</svg>
