<?xml version="1.0" encoding="iso-8859-1"?>
<!-- Generator: Adobe Illustrator 19.0.0, SVG Export Plug-In . SVG Version: 6.00 Build 0)  -->
<svg xmlns="http://www.w3.org/2000/svg" xmlns:xlink="http://www.w3.org/1999/xlink" version="1.1" id="Layer_1" x="0px" y="0px" viewBox="0 0 491.52 491.52" style="enable-background:new 0 0 491.52 491.52;" xml:space="preserve">
<g>
	<path style="fill:#F6C358;" d="M318.933,373.001v108c0,5.809,4.71,10.518,10.518,10.518h47.22c5.81,0,10.52-4.709,10.52-10.518   v-108H318.933z"/>
	<path style="fill:#F6C358;" d="M104.329,373.001v108c0,5.809,4.708,10.518,10.518,10.518h47.22c5.81,0,10.518-4.709,10.518-10.518   v-108H104.329z"/>
	<path style="fill:#F6C358;" d="M463.63,0C345.781,11.331,300.833,97.451,300.833,97.451l74.411,77.234   C473.66,102.289,463.63,0,463.63,0z"/>
	<path style="fill:#F6C358;" d="M27.89,0c117.848,11.331,162.797,97.451,162.797,97.451l-74.411,77.234   C17.86,102.289,27.89,0,27.89,0z"/>
</g>
<circle style="fill:#FCD462;" cx="245.76" cy="242.227" r="215.603"/>
<circle style="fill:#F6C358;" cx="245.76" cy="285.629" r="92.314"/>
<g>
	<circle style="fill:#DC8744;" cx="203.044" cy="285.629" r="25.221"/>
	<circle style="fill:#DC8744;" cx="288.461" cy="285.629" r="25.221"/>
</g>
<circle style="fill:#EBF0F3;" cx="350.106" cy="158.444" r="32.461"/>
<circle style="fill:#64798A;" cx="350.106" cy="158.444" r="13.793"/>
<circle style="fill:#FFFFFF;" cx="358.861" cy="149.709" r="5.069"/>
<circle style="fill:#EBF0F3;" cx="141.399" cy="158.444" r="32.461"/>
<circle style="fill:#64798A;" cx="141.399" cy="158.444" r="13.793"/>
<circle style="fill:#FFFFFF;" cx="150.118" cy="149.709" r="5.069"/>
<g>
</g>
<g>
</g>
<g>
</g>
<g>
</g>
<g>
</g>
<g>
</g>
<g>
</g>
<g>
</g>
<g>
</g>
<g>
</g>
<g>
</g>
<g>
</g>
<g>
</g>
<g>
</g>
<g>
</g>
</svg>
