<?xml version="1.0" encoding="iso-8859-1"?>
<!-- Generator: Adobe Illustrator 19.0.0, SVG Export Plug-In . SVG Version: 6.00 Build 0)  -->
<svg xmlns="http://www.w3.org/2000/svg" xmlns:xlink="http://www.w3.org/1999/xlink" version="1.1" id="Layer_1" x="0px" y="0px" viewBox="0 0 512 512" style="enable-background:new 0 0 512 512;" xml:space="preserve">
<path style="fill:#F3F3F3;" d="M480,512H32c-18.133,0-32-13.867-32-32V32C0,13.867,13.867,0,32,0h448c18.133,0,32,13.867,32,32v448  C512,498.133,498.133,512,480,512z"/>
<g>
	<rect x="42.667" y="446.933" style="fill:#CED6E0;" width="426.667" height="22.4"/>
	<rect x="42.667" y="384" style="fill:#CED6E0;" width="426.667" height="22.4"/>
	<rect x="42.667" y="321.067" style="fill:#CED6E0;" width="188.8" height="22.4"/>
	<rect x="42.667" y="257.067" style="fill:#CED6E0;" width="188.8" height="22.4"/>
</g>
<rect x="42.667" y="194.133" style="fill:#415A6B;" width="188.8" height="22.4"/>
<g>
	<path style="fill:#F3705A;" d="M113.067,44.8h22.4v100.267h-22.4l-48-62.933v62.933h-22.4V44.8H64l49.067,64V44.8z"/>
	<path style="fill:#F3705A;" d="M231.467,44.8v20.267h-50.133v20.267h44.8v19.2h-44.8V124.8h51.2v20.267H160V44.8H231.467z"/>
	<path style="fill:#F3705A;" d="M284.8,102.4l18.133-57.6H326.4l18.133,57.6L364.8,44.8h24.533L352,145.067h-17.067l-22.4-69.333   L291.2,145.067h-17.067L238.933,44.8h24.533L284.8,102.4z"/>
	<path style="fill:#F3705A;" d="M422.4,65.067c-2.133,2.133-3.2,4.267-3.2,7.467s1.067,5.333,4.267,7.467   c2.133,2.133,8.533,4.267,18.133,6.4c9.6,2.133,17.067,5.333,22.4,10.667c5.333,4.267,7.467,11.733,7.467,20.267   s-3.2,16-9.6,21.333c-6.4,5.333-16,8.533-26.667,8.533c-16,0-29.867-6.4-42.667-18.133l12.8-16   c10.667,9.6,20.267,13.867,29.867,13.867c4.267,0,7.467-1.067,9.6-2.133c2.133-2.133,3.2-4.267,3.2-7.467s-1.067-5.333-3.2-7.467   s-7.467-3.2-14.933-5.333c-11.733-3.2-20.267-6.4-25.6-10.667c-5.333-4.267-8.533-11.733-8.533-21.333s3.2-17.067,10.667-22.4   c6.4-5.333,14.933-7.467,25.6-7.467c6.4,0,13.867,1.067,20.267,3.2c6.4,2.133,11.733,5.333,17.067,9.6l-11.733,16   c-8.533-6.4-18.133-9.6-26.667-9.6C426.667,61.867,424.533,62.933,422.4,65.067z"/>
</g>
<rect x="275.2" y="194.133" style="fill:#8AD7F8;" width="194.133" height="148.267"/>
<g>
</g>
<g>
</g>
<g>
</g>
<g>
</g>
<g>
</g>
<g>
</g>
<g>
</g>
<g>
</g>
<g>
</g>
<g>
</g>
<g>
</g>
<g>
</g>
<g>
</g>
<g>
</g>
<g>
</g>
</svg>
