<?xml version="1.0" encoding="iso-8859-1"?>
<!-- Generator: Adobe Illustrator 19.0.0, SVG Export Plug-In . SVG Version: 6.00 Build 0)  -->
<svg xmlns="http://www.w3.org/2000/svg" xmlns:xlink="http://www.w3.org/1999/xlink" version="1.1" id="Layer_1" x="0px" y="0px" viewBox="0 0 491.52 491.52" style="enable-background:new 0 0 491.52 491.52;" xml:space="preserve">
<path style="fill:#64798A;" d="M421.685,208.839c-2.433,0-4.905-0.495-7.254-1.543c-6.018-2.682-10.631-8.376-12.993-16.034  c-2.899-9.45-1.773-19.865,2.666-28.604c-5.183-3.384-10.806-6.306-16.313-9.166l-17.322-8.997c-4.478-2.32-5.707-2.012-5.83-1.961  c-3.054,2.022-7.157,1.158-9.169-1.902c-2.006-3.057-1.152-7.17,1.909-9.179c7.383-4.85,15.957-0.395,19.199,1.281l17.322,8.997  c6.095,3.167,12.32,6.4,18.215,10.327c6.044-5.532,13.226-8.616,20.169-11.599c3.442-1.475,6.697-2.873,9.725-4.523  c3.229-1.757,7.241-0.563,8.988,2.647c1.754,3.216,0.563,7.237-2.647,8.988c-3.572,1.948-7.267,3.533-10.838,5.067  c-5.448,2.342-10.631,4.568-14.792,7.8c9.169,8.758,14.585,19.347,15.297,29.982c0.155,2.352,0.188,5.888-1.411,9.392  C434.045,205.477,428.027,208.839,421.685,208.839z M414.801,171.241c-1.948,5.151-2.284,10.935-0.692,16.128  c1.197,3.882,3.281,6.736,5.72,7.823c1.792,0.799,4.251,0.178,4.711-0.854c0.188-0.404,0.375-1.249,0.252-3.028  C424.209,182.61,418.981,175.557,414.801,171.241z"/>
<path style="fill:#DC8744;" d="M123.209,89.575V0c0,0,59.258,22.983,52.022,89.575"/>
<g>
	<path style="fill:#F6C358;" d="M177.983,334.536h-38.862c-2.865,0-5.188-2.323-5.188-5.188v-64.397h49.239v64.397   C183.171,332.213,180.848,334.536,177.983,334.536z"/>
	<path style="fill:#F6C358;" d="M311.05,334.536h-38.862c-2.865,0-5.188-2.323-5.188-5.188v-64.397h49.239v64.397   C316.238,332.213,313.915,334.536,311.05,334.536z"/>
</g>
<path style="fill:#FCD462;" d="M225.949,43.724c-74.675,0-137.473,42.686-155.85,100.624h-18.7c-6.455,0-11.686,5.232-11.686,11.685  v46.74c0,6.453,5.232,11.685,11.686,11.685h18.7c18.377,57.937,81.175,100.624,155.85,100.624  c89.093,0,161.318-60.745,161.318-135.679S315.042,43.724,225.949,43.724z"/>
<path style="fill:#F6C358;" d="M106.529,106.255V16.68c0,0,59.258,22.983,52.022,89.575"/>
<ellipse style="fill:#EBF0F3;" cx="114.918" cy="148.091" rx="13.389" ry="24.069"/>
<ellipse style="fill:#64798A;" cx="114.918" cy="148.091" rx="5.688" ry="10.23"/>
<ellipse style="fill:#FFFFFF;" cx="118.528" cy="141.619" rx="2.089" ry="3.758"/>
<rect x="181.934" y="86.794" style="fill:#F6C358;" width="127.785" height="9.395"/>
<path style="fill:#EBF0F3;" d="M82.042,342.906c-40.548,0-73.419,31.394-73.419,70.121c0,38.726,32.871,70.121,73.419,70.121  l408.695,0c-20.069,0-20.069-140.242,0-140.242L82.042,342.906z"/>
<path style="fill:#64798A;" d="M482.897,491.52H80.851C36.269,491.52,0,456.308,0,413.026c0-43.278,36.269-78.49,80.851-78.49  h402.046c4.766,0,8.623,3.749,8.623,8.372c0,4.623-3.857,8.372-8.623,8.372H80.851c-35.074,0-63.604,27.699-63.604,61.746  s28.531,61.75,63.604,61.75h402.046c4.766,0,8.623,3.749,8.623,8.372S487.663,491.52,482.897,491.52z"/>
<g>
	<path style="fill:#D5D6DB;" d="M48.893,450.697c-1.897-2.176-3.535-4.437-5.086-6.864h433.227c0.259,2.344,0.516,4.688,0.775,6.864   H48.893z"/>
	<path style="fill:#D5D6DB;" d="M38.459,433.535c-0.863-2.177-1.638-4.437-2.242-6.781h439.695c0.086,2.261,0.259,4.604,0.345,6.781   H38.459z"/>
	<path style="fill:#D5D6DB;" d="M43.806,382.216c1.552-2.428,3.189-4.688,5.086-6.865h428.916c-0.259,2.177-0.516,4.521-0.775,6.865   H43.806z"/>
	<path style="fill:#D5D6DB;" d="M479.362,460.995c0.516,2.428,1.034,4.688,1.552,6.865H73.728   c-4.657-1.842-9.055-4.102-13.107-6.865H479.362z"/>
	<path style="fill:#D5D6DB;" d="M60.621,365.054c4.053-2.763,8.451-5.023,13.107-6.865h407.185   c-0.518,2.177-1.036,4.437-1.552,6.865H60.621z"/>
	<path style="fill:#D5D6DB;" d="M34.665,416.457c-0.086-1.172-0.173-2.261-0.173-3.433c0-1.172,0.086-2.26,0.173-3.432h441.074   c-0.086,2.261-0.086,4.604,0,6.865H34.665z"/>
	<path style="fill:#D5D6DB;" d="M36.217,399.295c0.604-2.344,1.379-4.604,2.242-6.781h437.798c-0.086,2.26-0.259,4.521-0.345,6.781   H36.217z"/>
</g>
<g>
</g>
<g>
</g>
<g>
</g>
<g>
</g>
<g>
</g>
<g>
</g>
<g>
</g>
<g>
</g>
<g>
</g>
<g>
</g>
<g>
</g>
<g>
</g>
<g>
</g>
<g>
</g>
<g>
</g>
</svg>
