<?xml version="1.0" encoding="iso-8859-1"?>
<!-- Generator: Adobe Illustrator 19.0.0, SVG Export Plug-In . SVG Version: 6.00 Build 0)  -->
<svg xmlns="http://www.w3.org/2000/svg" xmlns:xlink="http://www.w3.org/1999/xlink" version="1.1" id="Layer_1" x="0px" y="0px" viewBox="0 0 491.52 491.52" style="enable-background:new 0 0 491.52 491.52;" xml:space="preserve">
<path style="fill:#E56353;" d="M457.515,136.368C416.478,68.693,342.342,23.32,257.422,23.32v234.1L457.515,136.368z"/>
<path style="fill:#27A2DB;" d="M455.795,381.298c22.505-35.96,35.725-78.328,35.725-123.878c0-44.367-12.57-85.698-34.005-121.052  L257.422,257.42L455.795,381.298z"/>
<path style="fill:#44C4A1;" d="M234.103,0.001C104.811,0.001,0,104.811,0,234.101c0,71.603,32.235,135.601,82.881,178.542  l151.222-178.542V0.001z"/>
<path style="fill:#FCD462;" d="M257.422,257.42L106.2,435.962c40.803,34.596,93.533,55.557,151.222,55.557  c83.735,0,157.001-44.112,198.373-110.221L257.422,257.42z"/>
<g>
</g>
<g>
</g>
<g>
</g>
<g>
</g>
<g>
</g>
<g>
</g>
<g>
</g>
<g>
</g>
<g>
</g>
<g>
</g>
<g>
</g>
<g>
</g>
<g>
</g>
<g>
</g>
<g>
</g>
</svg>
