<?xml version="1.0" encoding="iso-8859-1"?>
<!-- Generator: Adobe Illustrator 19.0.0, SVG Export Plug-In . SVG Version: 6.00 Build 0)  -->
<svg xmlns="http://www.w3.org/2000/svg" xmlns:xlink="http://www.w3.org/1999/xlink" version="1.1" id="Layer_1" x="0px" y="0px" viewBox="0 0 513.275 513.275" style="enable-background:new 0 0 513.275 513.275;" xml:space="preserve">
<path style="fill:#FFD15C;" d="M231.467,457.038l-32-4.267h-30.933V236.238H188.8l48-26.667c59.733-33.067,108.8-83.2,139.733-144  c0,0,0-1.067,1.067-1.067c4.267-7.467,6.4-16,8.533-25.6L393.6,4.771c0,0,24.533-16,38.4,16c0,0,19.2,52.267-6.4,96  c-3.2,19.2-30.933,41.6-28.8,58.667c0,0,18.133,12.8,35.2,7.467c17.067-6.4,64,5.333,74.667,26.667  c8.533,16,13.867,40.533-17.067,54.4c0,0,22.4,12.8,19.2,35.2s-23.467,30.933-23.467,30.933s17.067,16,7.467,37.333  c-9.6,20.267-21.333,24.533-21.333,24.533s18.133,25.6,6.4,42.667l0,0c-9.6,12.8-22.4,21.333-37.333,25.6  C384,473.038,309.333,466.638,231.467,457.038z"/>
<path style="fill:#F3F3F3;" d="M393.6,6.904l-6.4,32c-1.067,4.267-2.133,7.467-3.2,10.667c18.133,1.067,23.467-13.867,24.533-27.733  C408.533,11.171,393.6,6.904,393.6,6.904z"/>
<rect x="114.133" y="226.638" style="fill:#E8EAE9;" width="81.067" height="247.467"/>
<rect y="215.971" style="fill:#415A6B;" width="153.6" height="296.533"/>
<circle style="fill:#344A5E;" cx="88.533" cy="450.638" r="28.8"/>
<g>
</g>
<g>
</g>
<g>
</g>
<g>
</g>
<g>
</g>
<g>
</g>
<g>
</g>
<g>
</g>
<g>
</g>
<g>
</g>
<g>
</g>
<g>
</g>
<g>
</g>
<g>
</g>
<g>
</g>
</svg>
