<?xml version="1.0" encoding="iso-8859-1"?>
<!-- Generator: Adobe Illustrator 19.0.0, SVG Export Plug-In . SVG Version: 6.00 Build 0)  -->
<svg xmlns="http://www.w3.org/2000/svg" xmlns:xlink="http://www.w3.org/1999/xlink" version="1.1" id="Layer_1" x="0px" y="0px" viewBox="0 0 512 512" style="enable-background:new 0 0 512 512;" xml:space="preserve">
<path style="fill:#415A6B;" d="M452.267,482.133H59.733c-18.133,0-32-13.867-32-32V166.4c0-18.133,13.867-32,32-32h392.533  c18.133,0,32,13.867,32,32v282.667C484.267,467.2,469.333,482.133,452.267,482.133z"/>
<rect x="59.733" y="166.4" style="fill:#8AD7F8;" width="392.533" height="253.867"/>
<path style="fill:#344A5E;" d="M0,451.2C0,485.333,26.667,512,60.8,512h390.4c33.067,0,60.8-26.667,60.8-60.8H0z"/>
<path style="fill:#F3F3F3;" d="M395.733,0H116.267c-18.133,0-32,13.867-32,32v389.333H428.8V32C427.733,13.867,413.867,0,395.733,0z  "/>
<g>
	<rect x="121.6" y="188.8" style="fill:#CED6E0;" width="268.8" height="17.067"/>
	<rect x="121.6" y="138.667" style="fill:#CED6E0;" width="268.8" height="17.067"/>
	<rect x="121.6" y="238.933" style="fill:#CED6E0;" width="100.267" height="17.067"/>
	<rect x="121.6" y="89.6" style="fill:#CED6E0;" width="268.8" height="17.067"/>
</g>
<rect x="121.6" y="39.467" style="fill:#FFD15C;" width="168.533" height="17.067"/>
<polygon style="fill:#F3705A;" points="400,343.467 307.2,284.8 320,393.6 339.2,368 355.2,393.6 384,375.467 368,349.867 "/>
<g>
	<path style="fill:#FFD15C;" d="M316.8,241.067L316.8,241.067c-2.133,0-4.267,1.067-5.333,3.2l-3.2,13.867   c0,2.133,1.067,4.267,3.2,5.333l0,0c2.133,0,4.267-1.067,5.333-3.2L320,246.4C320,244.267,318.933,242.133,316.8,241.067z"/>
	<path style="fill:#FFD15C;" d="M289.067,248.533c-1.067-2.133-4.267-2.133-6.4-1.067l0,0c-2.133,1.067-2.133,4.267-1.067,6.4   l7.467,11.733c1.067,2.133,4.267,2.133,6.4,1.067l0,0c2.133-1.067,2.133-4.267,1.067-6.4L289.067,248.533z"/>
	<path style="fill:#FFD15C;" d="M285.867,280.533L285.867,280.533c0-2.133-1.067-4.267-3.2-5.333L268.8,272   c-2.133,0-4.267,1.067-5.333,3.2l0,0c0,2.133,1.067,4.267,3.2,5.333l13.867,3.2C282.667,283.733,284.8,282.667,285.867,280.533z"/>
	<path style="fill:#FFD15C;" d="M288,296.533c-1.067-2.133-4.267-2.133-6.4-1.067l-11.733,7.467c-2.133,1.067-2.133,4.267-1.067,6.4   l0,0c1.067,2.133,4.267,2.133,6.4,1.067l11.733-7.467C289.067,300.8,289.067,298.667,288,296.533L288,296.533z"/>
	<path style="fill:#FFD15C;" d="M301.867,306.133L301.867,306.133c-2.133,0-4.267,1.067-5.333,3.2l-3.2,13.867   c0,2.133,1.067,4.267,3.2,5.333l0,0c2.133,0,4.267-1.067,5.333-3.2l3.2-13.867C306.133,309.333,304,307.2,301.867,306.133z"/>
	<path style="fill:#FFD15C;" d="M346.667,289.067l-13.867-3.2c-2.133,0-4.267,1.067-5.333,3.2l0,0c0,2.133,1.067,4.267,3.2,5.333   l13.867,3.2c2.133,0,4.267-1.067,5.333-3.2l0,0C350.933,292.267,348.8,290.133,346.667,289.067z"/>
	<path style="fill:#FFD15C;" d="M344.533,261.333L344.533,261.333c-1.067-2.133-4.267-2.133-6.4-1.067l-11.733,7.467   c-2.133,1.067-2.133,4.267-1.067,6.4l0,0c1.067,2.133,4.267,2.133,6.4,1.067l11.733-7.467   C344.533,265.6,345.6,263.467,344.533,261.333z"/>
</g>
<g>
</g>
<g>
</g>
<g>
</g>
<g>
</g>
<g>
</g>
<g>
</g>
<g>
</g>
<g>
</g>
<g>
</g>
<g>
</g>
<g>
</g>
<g>
</g>
<g>
</g>
<g>
</g>
<g>
</g>
</svg>
