<?xml version="1.0" encoding="iso-8859-1"?>
<!-- Generator: Adobe Illustrator 19.0.0, SVG Export Plug-In . SVG Version: 6.00 Build 0)  -->
<svg xmlns="http://www.w3.org/2000/svg" xmlns:xlink="http://www.w3.org/1999/xlink" version="1.1" id="Layer_1" x="0px" y="0px" viewBox="0 0 491.52 491.52" style="enable-background:new 0 0 491.52 491.52;" xml:space="preserve">
<path style="fill:#64798A;" d="M467.629,36.336H23.892C10.697,36.336,0,47.033,0,60.228v371.063  c0,13.195,10.697,23.892,23.892,23.892h443.737c13.195,0,23.891-10.697,23.891-23.892V60.228  C491.52,47.033,480.824,36.336,467.629,36.336z"/>
<path style="fill:#EBF0F3;" d="M131.282,62.38H49.171c-6.047,0-10.948,4.901-10.948,10.948v344.864  c0,6.046,4.901,10.948,10.948,10.948h82.111c6.046,0,10.947-4.902,10.947-10.948V73.328C142.229,67.281,137.328,62.38,131.282,62.38  z"/>
<rect x="192.445" y="78.162" style="fill:#44C4A1;" width="243.405" height="86.81"/>
<rect x="192.445" y="150.866" style="fill:#3EA69B;" width="243.405" height="14.106"/>
<g>
	<circle style="fill:#EBF0F3;" cx="222.054" cy="260.024" r="16.712"/>
	<circle style="fill:#EBF0F3;" cx="283.443" cy="260.024" r="16.712"/>
	<circle style="fill:#EBF0F3;" cx="344.832" cy="260.024" r="16.712"/>
</g>
<circle style="fill:#FCD462;" cx="406.221" cy="260.024" r="16.712"/>
<g>
	<circle style="fill:#EBF0F3;" cx="222.054" cy="305.567" r="16.712"/>
	<circle style="fill:#EBF0F3;" cx="283.443" cy="305.567" r="16.712"/>
	<circle style="fill:#EBF0F3;" cx="344.832" cy="305.567" r="16.712"/>
</g>
<circle style="fill:#E56353;" cx="406.221" cy="305.567" r="16.712"/>
<g>
	<circle style="fill:#EBF0F3;" cx="222.054" cy="351.13" r="16.712"/>
	<circle style="fill:#EBF0F3;" cx="283.443" cy="351.13" r="16.712"/>
	<circle style="fill:#EBF0F3;" cx="344.832" cy="351.13" r="16.712"/>
</g>
<circle style="fill:#44C4A1;" cx="406.221" cy="351.13" r="16.712"/>
<circle style="fill:#3A556A;" cx="222.054" cy="396.646" r="16.712"/>
<circle style="fill:#EBF0F3;" cx="283.443" cy="396.646" r="16.712"/>
<circle style="fill:#3A556A;" cx="344.832" cy="396.646" r="16.712"/>
<circle style="fill:#27A2DB;" cx="406.221" cy="396.646" r="16.712"/>
<g>
	<path style="fill:#EBF0F3;" d="M234.083,192.426h-20.537c-4.526,0-8.195,3.669-8.195,8.195c0,4.526,3.669,8.194,8.195,8.194h20.537   c4.525,0,8.195-3.669,8.195-8.194C242.278,196.095,238.608,192.426,234.083,192.426z"/>
	<path style="fill:#EBF0F3;" d="M294.306,192.426h-20.537c-4.526,0-8.195,3.669-8.195,8.195c0,4.526,3.669,8.194,8.195,8.194h20.537   c4.525,0,8.195-3.669,8.195-8.194C302.501,196.095,298.831,192.426,294.306,192.426z"/>
	<path style="fill:#EBF0F3;" d="M354.53,192.426h-20.537c-4.526,0-8.195,3.669-8.195,8.195c0,4.526,3.669,8.194,8.195,8.194h20.537   c4.525,0,8.195-3.669,8.195-8.194C362.725,196.095,359.055,192.426,354.53,192.426z"/>
	<path style="fill:#EBF0F3;" d="M414.753,192.426h-20.537c-4.526,0-8.195,3.669-8.195,8.195c0,4.526,3.669,8.194,8.195,8.194h20.537   c4.525,0,8.195-3.669,8.195-8.194C422.948,196.095,419.278,192.426,414.753,192.426z"/>
</g>
<g>
</g>
<g>
</g>
<g>
</g>
<g>
</g>
<g>
</g>
<g>
</g>
<g>
</g>
<g>
</g>
<g>
</g>
<g>
</g>
<g>
</g>
<g>
</g>
<g>
</g>
<g>
</g>
<g>
</g>
</svg>
