<?xml version="1.0" encoding="iso-8859-1"?>
<!-- Generator: Adobe Illustrator 19.0.0, SVG Export Plug-In . SVG Version: 6.00 Build 0)  -->
<svg xmlns="http://www.w3.org/2000/svg" xmlns:xlink="http://www.w3.org/1999/xlink" version="1.1" id="Layer_1" x="0px" y="0px" viewBox="0 0 491.51 491.51" style="enable-background:new 0 0 491.51 491.51;" xml:space="preserve">
<ellipse style="fill:#FCD462;" cx="130.017" cy="130.104" rx="130.012" ry="130.104"/>
<ellipse style="fill:#F6C358;" cx="130.017" cy="130.104" rx="108.339" ry="108.39"/>
<path style="fill:#DC8744;" d="M125.551,214.458v-14.856c-18.587-1.896-35.27-9.291-50.034-22.177l14.846-17.705  c11.387,9.904,23.105,15.8,35.187,17.705v-39.484c-15.326-3.66-26.548-8.48-33.665-14.451c-7.117-5.971-10.675-14.823-10.675-26.558  S85.299,75.6,93.508,68.131c8.209-7.461,18.885-11.527,32.043-12.206V45.747h13.009v10.376c14.912,1.093,29.014,6.178,42.304,15.27  L167.64,90.117c-8.954-6.376-18.636-10.31-29.08-11.809v38.259h0.612c15.591,3.669,27.044,8.621,34.36,14.856  c7.332,6.244,10.99,15.304,10.99,27.17c0,11.875-4.204,21.548-12.612,29.001c-8.408,7.47-19.514,11.536-33.35,12.215v14.649H125.551  z M111.201,83.095c-3.459,3.047-5.18,6.848-5.18,11.395c0,4.546,1.357,8.14,4.072,10.782c2.698,2.65,7.862,5.192,15.459,7.635  V77.696C119.443,78.242,114.66,80.039,111.201,83.095z M154.018,172.332c3.79-3.114,5.694-7.047,5.694-11.801  c0-4.745-1.49-8.513-4.469-11.295c-2.996-2.782-8.557-5.391-16.683-7.834v36.627C145.064,177.359,150.212,175.454,154.018,172.332z"/>
<g>
	<path style="fill:#27A2DB;" d="M394.678,10.199c6.283,6.805,9.443,15.04,9.443,24.694c0,9.663-3.195,17.924-9.55,24.801   c-6.355,6.886-14.262,10.315-23.687,10.315c-9.425,0-17.296-3.403-23.58-10.199c-6.283-6.805-9.425-15.04-9.425-24.694   c0-9.663,3.177-17.924,9.532-24.801C353.784,3.438,361.673,0,371.098,0C380.541,0,388.395,3.403,394.678,10.199z M483.944,3.724   L371.652,157.149H343.36L455.652,3.724H483.944z M379.987,46.414c2.338-2.992,3.516-6.689,3.516-11.083   c0-4.385-1.249-8.083-3.731-11.083c-2.499-2.992-5.533-4.501-9.103-4.501c-3.588,0-6.551,1.509-8.889,4.501   c-2.338,3.001-3.516,6.698-3.516,11.083c0,4.394,1.249,8.091,3.731,11.083c2.499,3.001,5.516,4.501,9.103,4.501   C374.686,50.915,377.649,49.415,379.987,46.414z M481.767,99.098c6.283,6.805,9.425,15.031,9.425,24.685   c0,9.663-3.177,17.933-9.55,24.81c-6.354,6.877-14.244,10.315-23.687,10.315c-9.425,0-17.279-3.403-23.58-10.208   c-6.283-6.805-9.425-15.04-9.425-24.694s3.177-17.924,9.55-24.801c6.355-6.877,14.244-10.315,23.687-10.315   C467.612,88.89,475.466,92.292,481.767,99.098z M467.505,135.75c2.338-3.001,3.499-6.698,3.499-11.083   c0-4.394-1.232-8.083-3.713-11.083c-2.499-3.001-5.533-4.501-9.103-4.501c-3.588,0-6.551,1.5-8.889,4.501   s-3.516,6.689-3.516,11.083c0,4.385,1.25,8.083,3.731,11.083c2.481,3.001,5.516,4.501,9.103,4.501   C462.203,140.252,465.166,138.751,467.505,135.75z"/>
	<rect x="0.005" y="448.922" style="fill:#27A2DB;" width="148.838" height="42.588"/>
</g>
<rect x="171.336" y="448.922" style="fill:#DC8744;" width="148.838" height="42.588"/>
<rect x="342.666" y="448.922" style="fill:#E56353;" width="148.838" height="42.588"/>
<rect x="0.005" y="398.894" style="fill:#DC8744;" width="148.838" height="42.588"/>
<rect x="171.336" y="398.894" style="fill:#44C4A1;" width="148.838" height="42.588"/>
<rect x="342.666" y="398.894" style="fill:#DC8744;" width="148.838" height="42.588"/>
<rect x="171.336" y="348.877" style="fill:#27A2DB;" width="148.838" height="42.588"/>
<rect x="342.666" y="348.877" style="fill:#E56353;" width="148.838" height="42.588"/>
<rect x="171.336" y="298.803" style="fill:#DC8744;" width="148.838" height="42.588"/>
<rect x="342.666" y="298.803" style="fill:#44C4A1;" width="148.838" height="42.588"/>
<rect x="342.666" y="248.786" style="fill:#27A2DB;" width="148.838" height="42.588"/>
<rect x="342.666" y="198.753" style="fill:#DC8744;" width="148.838" height="42.588"/>
<g>
</g>
<g>
</g>
<g>
</g>
<g>
</g>
<g>
</g>
<g>
</g>
<g>
</g>
<g>
</g>
<g>
</g>
<g>
</g>
<g>
</g>
<g>
</g>
<g>
</g>
<g>
</g>
<g>
</g>
</svg>
