<?xml version="1.0" encoding="iso-8859-1"?>
<!-- Generator: Adobe Illustrator 19.0.0, SVG Export Plug-In . SVG Version: 6.00 Build 0)  -->
<svg xmlns="http://www.w3.org/2000/svg" xmlns:xlink="http://www.w3.org/1999/xlink" version="1.1" id="Layer_1" x="0px" y="0px" viewBox="0 0 511.51 511.51" style="enable-background:new 0 0 511.51 511.51;" xml:space="preserve">
<path style="fill:#415A6B;" d="M176.822,161.643l-59.733-39.467l7.467-11.733l60.8,39.467c20.267,13.867,48,7.467,61.867-12.8  c13.867-20.267,7.467-48-12.8-61.867l-86.4-56.533c-13.867-8.533-30.933-5.333-38.4,7.467c-8.533,12.8-5.333,29.867,7.467,38.4  l80,52.267c4.267,3.2,10.667,2.133,13.867-3.2c3.2-4.267,2.133-10.667-3.2-13.867L152.288,63.51l7.467-12.8l55.467,36.267  c11.733,7.467,14.933,22.4,7.467,34.133c-7.467,11.733-22.4,14.933-34.133,7.467l-80-52.267c-18.133-12.8-23.467-38.4-11.733-57.6  s38.4-24.533,57.6-11.733l86.4,56.533c27.733,18.133,35.2,54.4,17.067,81.067S204.555,178.71,176.822,161.643z"/>
<path style="fill:#F3705A;" d="M438.155,511.51h-364.8c-18.133,0-32-13.867-32-32V54.977c0-18.133,13.867-32,32-32h364.8  c18.133,0,32,13.867,32,32V479.51C470.155,497.643,455.222,511.51,438.155,511.51z"/>
<polygon style="fill:#FFFFFF;" points="87.222,57.11 87.222,477.377 334.688,477.377 424.288,387.777 424.288,57.11 "/>
<polygon style="fill:#CED6E0;" points="334.688,477.377 424.288,387.777 334.688,387.777 "/>
<path style="fill:#415A6B;" d="M189.622,128.577l-80-52.267c-19.2-12.8-24.533-38.4-12.8-57.6s38.4-24.533,57.6-11.733  l-7.467,11.733c-12.8-8.533-29.867-5.333-37.333,7.467c-8.533,12.8-5.333,29.867,7.467,38.4l80,52.267  c4.267,3.2,10.667,2.133,13.867-3.2c3.2-4.267,2.133-10.667-3.2-13.867L152.288,63.51c-8.533-5.333-1.067-18.133,7.467-11.733  l55.467,36.267c11.733,7.467,14.933,22.4,7.467,34.133C216.288,131.777,200.288,134.977,189.622,128.577z"/>
<g>
	<rect x="244.022" y="162.71" style="fill:#E8EAE9;" width="146.133" height="22.4"/>
	<rect x="244.022" y="214.977" style="fill:#E8EAE9;" width="107.733" height="22.4"/>
</g>
<path style="fill:#CED6E0;" d="M188.555,241.643h-50.133c-9.6,0-17.067-7.467-17.067-17.067v-50.133  c0-9.6,7.467-17.067,17.067-17.067h50.133c9.6,0,17.067,7.467,17.067,17.067v50.133  C205.622,234.177,197.088,241.643,188.555,241.643z M138.422,169.11c-3.2,0-5.333,2.133-5.333,5.333v50.133  c0,3.2,2.133,5.333,5.333,5.333h50.133c3.2,0,5.333-2.133,5.333-5.333v-50.133c0-3.2-2.133-5.333-5.333-5.333L138.422,169.11  L138.422,169.11z"/>
<polygon style="fill:#66C6B9;" points="170.422,223.51 141.622,194.71 150.155,187.243 170.422,207.51 217.355,161.643   225.888,169.11 "/>
<g>
	<rect x="244.022" y="294.977" style="fill:#E8EAE9;" width="146.133" height="22.4"/>
	<rect x="244.022" y="347.243" style="fill:#E8EAE9;" width="107.733" height="22.4"/>
</g>
<path style="fill:#CED6E0;" d="M188.555,373.91h-50.133c-9.6,0-17.067-7.467-17.067-17.067V306.71c0-9.6,7.467-17.067,17.067-17.067  h50.133c9.6,0,17.067,7.467,17.067,17.067v50.133C205.622,366.444,197.088,373.91,188.555,373.91z M138.422,301.377  c-3.2,0-5.333,2.133-5.333,5.333v50.133c0,3.2,2.133,5.333,5.333,5.333h50.133c3.2,0,5.333-2.133,5.333-5.333V306.71  c0-3.2-2.133-5.333-5.333-5.333H138.422z"/>
<polygon style="fill:#66C6B9;" points="170.422,356.844 141.622,328.043 150.155,319.51 170.422,340.844 217.355,293.91   225.888,302.443 "/>
<g>
</g>
<g>
</g>
<g>
</g>
<g>
</g>
<g>
</g>
<g>
</g>
<g>
</g>
<g>
</g>
<g>
</g>
<g>
</g>
<g>
</g>
<g>
</g>
<g>
</g>
<g>
</g>
<g>
</g>
</svg>
