<?xml version="1.0" encoding="iso-8859-1"?>
<!-- Generator: Adobe Illustrator 19.0.0, SVG Export Plug-In . SVG Version: 6.00 Build 0)  -->
<svg xmlns="http://www.w3.org/2000/svg" xmlns:xlink="http://www.w3.org/1999/xlink" version="1.1" id="Layer_1" x="0px" y="0px" viewBox="0 0 512 512" style="enable-background:new 0 0 512 512;" xml:space="preserve">
<path style="fill:#344A5E;" d="M193.067,466.133c7.467,26.667,32,45.867,60.8,45.867c28.8,0,53.333-19.2,60.8-45.867H193.067z"/>
<path style="fill:#E8EAE9;" d="M172.8,404.267h162.133v-19.2c7.467-32,22.4-61.867,45.867-85.333  c34.133-35.2,53.333-86.4,46.933-140.8c-8.533-80-73.6-145.067-153.6-154.667c-105.6-11.733-195.2,71.467-195.2,173.867  c0,45.867,18.133,88.533,46.933,119.467c23.467,24.533,39.467,54.4,46.933,87.467V404.267z"/>
<path style="fill:#F3705A;" d="M253.867,310.4c-72.533,0-132.267-59.733-132.267-132.267S181.333,45.867,253.867,45.867  S386.133,105.6,386.133,178.133C386.133,251.733,327.467,310.4,253.867,310.4z"/>
<path style="fill:#FFFFFF;" d="M253.867,275.2c-53.333,0-97.067-43.733-97.067-97.067s43.733-97.067,97.067-97.067  s97.067,43.733,97.067,97.067S308.267,275.2,253.867,275.2z"/>
<path style="fill:#F3705A;" d="M253.867,240C219.733,240,192,212.267,192,178.133s27.733-61.867,61.867-61.867  c34.133,0,61.867,27.733,61.867,61.867C315.733,212.267,288,240,253.867,240z"/>
<circle style="fill:#FFFFFF;" cx="253.867" cy="178.133" r="26.667"/>
<rect x="172.8" y="401.067" style="fill:#344A5E;" width="162.133" height="70.4"/>
<g>
	<path style="fill:#415A6B;" d="M337.067,417.067h-166.4c-8.533,0-16-7.467-16-16l0,0c0-8.533,7.467-16,16-16h166.4   c8.533,0,16,7.467,16,16l0,0C353.067,409.6,346.667,417.067,337.067,417.067z"/>
	<path style="fill:#415A6B;" d="M337.067,471.467h-166.4c-8.533,0-16-7.467-16-16l0,0c0-8.533,7.467-16,16-16h166.4   c8.533,0,16,7.467,16,16l0,0C353.067,465.067,346.667,471.467,337.067,471.467z"/>
	<path style="fill:#415A6B;" d="M416,17.067c-3.2-3.2-8.533-3.2-11.733,0L251.733,169.6c-3.2,3.2-3.2,8.533,0,11.733   c3.2,3.2,8.533,3.2,11.733,0L416,27.733C419.2,24.533,419.2,20.267,416,17.067z"/>
	<polygon style="fill:#415A6B;" points="350.933,38.4 357.333,75.733 394.667,81.067 433.067,42.667 395.733,37.333 389.333,0  "/>
</g>
<g>
</g>
<g>
</g>
<g>
</g>
<g>
</g>
<g>
</g>
<g>
</g>
<g>
</g>
<g>
</g>
<g>
</g>
<g>
</g>
<g>
</g>
<g>
</g>
<g>
</g>
<g>
</g>
<g>
</g>
</svg>
