<?xml version="1.0" encoding="iso-8859-1"?>
<!-- Generator: Adobe Illustrator 19.0.0, SVG Export Plug-In . SVG Version: 6.00 Build 0)  -->
<svg xmlns="http://www.w3.org/2000/svg" xmlns:xlink="http://www.w3.org/1999/xlink" version="1.1" id="Layer_1" x="0px" y="0px" viewBox="0 0 491.525 491.525" style="enable-background:new 0 0 491.525 491.525;" xml:space="preserve">
<circle style="fill:#2D93BA;" cx="190.979" cy="126.203" r="126.203"/>
<circle style="fill:#27A2DB;" cx="190.979" cy="126.203" r="105.144"/>
<path style="fill:#1C75A1;" d="M186.641,208.028v-14.411c-18.042-1.84-34.236-9.013-48.566-21.512l14.411-17.174  c11.053,9.607,22.428,15.327,34.156,17.174v-38.3c-14.877-3.55-25.769-8.226-32.677-14.017  c-6.908-5.792-10.362-14.379-10.362-25.761s3.968-20.693,11.937-27.938c7.969-7.238,18.331-11.182,31.103-11.84v-9.872h12.628V54.44  c14.475,1.06,28.163,5.992,41.064,14.812l-12.836,18.162c-8.692-6.185-18.09-10.001-28.227-11.455v37.112h0.594  c15.134,3.559,26.251,8.362,33.352,14.411c7.117,6.057,10.668,14.845,10.668,26.356c0,11.519-4.081,20.901-12.242,28.131  c-8.161,7.246-18.941,11.19-32.372,11.848v14.21H186.641z M172.713,80.603c-3.358,2.956-5.029,6.643-5.029,11.053  c0,4.41,1.317,7.896,3.952,10.459c2.619,2.57,7.631,5.037,15.005,7.406V75.366C180.713,75.896,176.07,77.639,172.713,80.603z   M214.274,167.165c3.679-3.02,5.527-6.836,5.527-11.447c0-4.603-1.446-8.258-4.338-10.957c-2.908-2.699-8.306-5.229-16.194-7.599  v35.529C205.583,172.041,210.579,170.193,214.274,167.165z"/>
<path style="fill:#F6C358;" d="M401.247,214.811c-4.747,0-9.176,1.279-12.982,3.466v-2.43c0-13.635-11.054-24.688-24.688-24.688  c-6.332,0-12.089,2.404-16.459,6.324v-2.797c0-13.635-11.053-24.689-24.688-24.689c-7.878,0-14.878,3.703-19.398,9.449v-69.994  c0-13.635-11.053-24.689-24.688-24.689s-24.688,11.053-24.688,24.689v168.755c-8.557-14.974-22.15-30.255-38.095-36.851  c-4.281-1.771-8.807-3.176-13.441-3.163c-4.633,0.013-9.416,1.595-12.533,5.022c-4.409,4.849-4.622,12.344-2.596,18.577  c2.026,6.233,5.918,11.654,9.101,17.383c7.479,13.463,11.053,31.884,15.672,46.576c4.619,14.692,10.677,29.526,21.834,40.143  c5.111,4.863,11.128,8.674,16.437,13.319c8.043,7.038,14.397,15.994,18.381,25.911h107.331h20.037  c21.04-17.826,27.204-60.678,30.966-107.571V239.5C426.749,225.865,415.331,214.811,401.247,214.811z"/>
<rect x="244.309" y="403.2" style="fill:#44C4A1;" width="171.781" height="88.325"/>
<circle style="fill:#31978C;" cx="386.563" cy="447.334" r="15.268"/>
<g>
</g>
<g>
</g>
<g>
</g>
<g>
</g>
<g>
</g>
<g>
</g>
<g>
</g>
<g>
</g>
<g>
</g>
<g>
</g>
<g>
</g>
<g>
</g>
<g>
</g>
<g>
</g>
<g>
</g>
</svg>
