<?xml version="1.0" encoding="iso-8859-1"?>
<!-- Generator: Adobe Illustrator 19.0.0, SVG Export Plug-In . SVG Version: 6.00 Build 0)  -->
<svg xmlns="http://www.w3.org/2000/svg" xmlns:xlink="http://www.w3.org/1999/xlink" version="1.1" id="Layer_1" x="0px" y="0px" viewBox="0 0 512.045 512.045" style="enable-background:new 0 0 512.045 512.045;" xml:space="preserve">
<g>
	<path style="fill:#CED6E0;" d="M399.624,128.036l-16-16c-4.267-4.267-9.6-4.267-13.867,0l-13.867,13.867l29.867,29.867   l13.867-13.867C402.824,137.636,402.824,132.302,399.624,128.036z"/>
	<path style="fill:#CED6E0;" d="M92.424,281.636l-36.267-65.067c-8.533-13.867-10.667-30.933-5.333-45.867l0,0l76.8,76.8   L92.424,281.636z"/>
	<path style="fill:#CED6E0;" d="M281.224,92.836l-65.067-36.267c-13.867-8.533-30.933-10.667-45.867-5.333l0,0l76.8,76.8   L281.224,92.836z"/>
</g>
<rect x="45.058" y="10.415" transform="matrix(0.7071 0.7071 -0.7071 0.7071 94.6737 -39.2014)" style="fill:#415A6B;" width="99.199" height="168.532"/>
<g>
	<path style="fill:#CED6E0;" d="M418.824,230.436l36.267,65.067c7.467,13.867,9.6,30.933,4.267,46.933l0,0l-75.733-76.8   L418.824,230.436z"/>
	<path style="fill:#CED6E0;" d="M230.024,419.236l65.067,36.267c13.867,7.467,30.933,9.6,46.933,4.267l0,0l-76.8-75.733   L230.024,419.236z"/>
</g>
<rect x="367.788" y="333.098" transform="matrix(-0.7071 -0.7071 0.7071 -0.7071 417.4044 1007.6232)" style="fill:#415A6B;" width="99.199" height="168.532"/>
<circle style="fill:#E8EAE9;" cx="255.624" cy="256.036" r="169.6"/>
<circle style="fill:#FFFFFF;" cx="255.624" cy="256.036" r="134.4"/>
<g>
	
		<rect x="175.467" y="171.076" transform="matrix(-0.7071 0.7071 -0.7071 -0.7071 433.2937 180.8083)" style="fill:#344A5E;" width="7.467" height="18.133"/>
	
		<rect x="147.676" y="219.378" transform="matrix(-0.2588 0.9659 -0.9659 -0.2588 411.2559 141.3167)" style="fill:#344A5E;" width="7.466" height="18.133"/>
	
		<rect x="148.769" y="274.904" transform="matrix(0.2588 0.9659 -0.9659 0.2588 387.3288 63.1704)" style="fill:#344A5E;" width="7.466" height="18.133"/>
	
		<rect x="176.536" y="322.907" transform="matrix(0.7071 0.7071 -0.7071 0.7071 287.5406 -30.2371)" style="fill:#344A5E;" width="7.467" height="18.133"/>
	
		<rect x="224.718" y="350.452" transform="matrix(0.9659 0.2588 -0.2588 0.9659 100.8297 -46.8757)" style="fill:#344A5E;" width="7.466" height="18.133"/>
	
		<rect x="280.167" y="350.137" transform="matrix(0.9659 -0.2588 0.2588 0.9659 -83.2919 85.7139)" style="fill:#344A5E;" width="7.466" height="18.133"/>
	
		<rect x="327.279" y="322.809" transform="matrix(0.7071 -0.7071 0.7071 0.7071 -137.7201 331.2653)" style="fill:#344A5E;" width="7.467" height="18.133"/>
	
		<rect x="354.976" y="274.938" transform="matrix(0.2588 -0.9659 0.9659 0.2588 -8.4556 556.9899)" style="fill:#344A5E;" width="7.466" height="18.133"/>
	
		<rect x="356.11" y="219.369" transform="matrix(-0.2588 -0.9659 0.9659 -0.2588 232.3207 635.1393)" style="fill:#344A5E;" width="7.466" height="18.133"/>
	
		<rect x="328.28" y="171.031" transform="matrix(-0.7071 -0.7071 0.7071 -0.7071 439.4347 542.2146)" style="fill:#344A5E;" width="7.467" height="18.133"/>
	
		<rect x="279.195" y="142.822" transform="matrix(-0.9659 -0.2588 0.2588 -0.9659 516.9064 371.8259)" style="fill:#344A5E;" width="7.466" height="18.133"/>
	
		<rect x="223.548" y="143.062" transform="matrix(-0.9659 0.2588 -0.2588 -0.9659 486.1907 240.2512)" style="fill:#344A5E;" width="7.466" height="18.133"/>
</g>
<path style="fill:#FFD15C;" d="M281.224,281.636c-2.133,2.133-6.4,2.133-8.533,0l-72.533-72.533c-2.133-2.133-2.133-6.4,0-8.533  c2.133-2.133,6.4-2.133,8.533,0l72.533,72.533C283.357,275.236,283.357,278.436,281.224,281.636z"/>
<path style="fill:#F3705A;" d="M280.157,244.302l-76.8,16c-3.2,1.067-5.333,4.267-5.333,7.467s4.267,5.333,7.467,5.333l76.8-16  c3.2-1.067,5.333-4.267,5.333-7.467l0,0C286.557,246.436,283.357,243.236,280.157,244.302z"/>
<circle style="fill:#415A6B;" cx="255.624" cy="256.036" r="13.867"/>
<circle style="fill:#344A5E;" cx="255.624" cy="256.036" r="6.4"/>
<g>
</g>
<g>
</g>
<g>
</g>
<g>
</g>
<g>
</g>
<g>
</g>
<g>
</g>
<g>
</g>
<g>
</g>
<g>
</g>
<g>
</g>
<g>
</g>
<g>
</g>
<g>
</g>
<g>
</g>
</svg>
