<?xml version="1.0" encoding="iso-8859-1"?>
<!-- Generator: Adobe Illustrator 19.0.0, SVG Export Plug-In . SVG Version: 6.00 Build 0)  -->
<svg xmlns="http://www.w3.org/2000/svg" xmlns:xlink="http://www.w3.org/1999/xlink" version="1.1" id="Layer_1" x="0px" y="0px" viewBox="0 0 491.52 491.52" style="enable-background:new 0 0 491.52 491.52;" xml:space="preserve">
<path style="fill:#EBF0F3;" d="M491.52,245.76C355.791,74.736,135.731,74.736,0,245.76l0,0v0  C135.731,416.784,355.791,416.784,491.52,245.76L491.52,245.76L491.52,245.76z"/>
<circle style="fill:#27A2DB;" cx="245.76" cy="245.76" r="109.394"/>
<circle style="fill:#1C75A1;" cx="245.76" cy="245.76" r="86.922"/>
<path style="fill:#FFFFFF;" d="M242.576,305.824v-10.578c-13.243-1.35-25.13-6.616-35.65-15.791l10.578-12.607  c8.113,7.052,16.463,11.25,25.071,12.607v-28.114c-10.92-2.606-18.916-6.038-23.987-10.289c-5.071-4.251-7.606-10.555-7.606-18.91  c0-8.355,2.913-15.189,8.762-20.508c5.849-5.313,13.456-8.208,22.831-8.691v-7.247h9.269v7.388  c10.625,0.778,20.673,4.399,30.142,10.873l-9.422,13.332c-6.38-4.54-13.279-7.341-20.72-8.408v27.241h0.436  c11.109,2.612,19.269,6.138,24.482,10.578c5.224,4.446,7.83,10.897,7.83,19.346c0,8.455-2.995,15.342-8.986,20.649  c-5.991,5.319-13.904,8.214-23.762,8.697v10.431H242.576z M232.352,212.289c-2.465,2.17-3.691,4.876-3.691,8.113  c0,3.237,0.967,5.796,2.901,7.677c1.922,1.887,5.602,3.697,11.014,5.436v-25.071C238.224,208.834,234.816,210.113,232.352,212.289z   M262.86,275.829c2.701-2.217,4.057-5.018,4.057-8.402c0-3.379-1.061-6.061-3.184-8.043c-2.134-1.981-6.097-3.839-11.887-5.578  v26.08C256.48,279.408,260.147,278.052,262.86,275.829z"/>
<g>
</g>
<g>
</g>
<g>
</g>
<g>
</g>
<g>
</g>
<g>
</g>
<g>
</g>
<g>
</g>
<g>
</g>
<g>
</g>
<g>
</g>
<g>
</g>
<g>
</g>
<g>
</g>
<g>
</g>
</svg>
