<?xml version="1.0" encoding="iso-8859-1"?>
<!-- Generator: Adobe Illustrator 19.0.0, SVG Export Plug-In . SVG Version: 6.00 Build 0)  -->
<svg xmlns="http://www.w3.org/2000/svg" xmlns:xlink="http://www.w3.org/1999/xlink" version="1.1" id="Layer_1" x="0px" y="0px" viewBox="0 0 491.52 491.52" style="enable-background:new 0 0 491.52 491.52;" xml:space="preserve">
<path style="fill:#3A556A;" d="M273.213,17.246H26.751c-14.767,0-26.739,11.972-26.739,26.739v420.796  c0,14.768,11.972,26.739,26.739,26.739h246.462c14.768,0,26.739-11.971,26.739-26.739V43.985  C299.952,29.218,287.982,17.246,273.213,17.246z"/>
<path style="fill:#64798A;" d="M273.213,0H26.751C11.984,0,0.012,11.972,0.012,26.739v420.796c0,14.768,11.972,26.739,26.739,26.739  h246.462c14.768,0,26.739-11.971,26.739-26.739V26.739C299.952,11.972,287.982,0,273.213,0z"/>
<path style="fill:#EBF0F3;" d="M26.748,403.439c-0.48,0-0.867-0.329-0.867-0.736V45.7c0-0.407,0.387-0.739,0.867-0.739h246.467  c0.48,0,0.867,0.332,0.867,0.739v357.003c0,0.407-0.387,0.736-0.867,0.736H26.748z"/>
<g>
	<path style="fill:#3A556A;" d="M149.982,463.877c-13.145,0-23.84-10.695-23.84-23.844c0-13.149,10.695-23.844,23.84-23.844   c13.145,0,23.84,10.695,23.84,23.844C173.822,453.183,163.128,463.877,149.982,463.877z M149.982,424.812   c-8.387,0-15.217,6.829-15.217,15.221c0,8.392,6.829,15.221,15.217,15.221c8.387,0,15.217-6.829,15.217-15.221   C165.199,431.642,158.37,424.812,149.982,424.812z"/>
	<path style="fill:#3A556A;" d="M190.095,28.465h-80.226c-2.06,0-3.73-1.67-3.73-3.73v-5.562c0-2.06,1.67-3.73,3.73-3.73h80.226   c2.06,0,3.73,1.67,3.73,3.73v5.562C193.825,26.795,192.155,28.465,190.095,28.465z"/>
</g>
<rect x="102.783" y="87.042" transform="matrix(-0.982 0.1888 -0.1888 -0.982 608.8731 306.5125)" style="fill:#3EA69B;" width="374.116" height="190.412"/>
<path style="fill:#44C4A1;" d="M132.009,280.068L107,149.951c8.331-1.601,13.786-9.653,12.185-17.983l310.527-59.685  c1.601,8.331,9.653,13.786,17.983,12.185l25.009,130.117c-8.331,1.601-13.786,9.652-12.185,17.983l-310.527,59.685  C148.391,283.922,140.34,278.467,132.009,280.068z"/>
<g>
	
		<ellipse transform="matrix(-0.1888 -0.982 0.982 -0.1888 165.5969 501.3262)" style="fill:#3EA69B;" cx="289.871" cy="182.263" rx="64.957" ry="51.302"/>
	<ellipse style="fill:#3EA69B;" cx="432.597" cy="154.825" rx="11.612" ry="11.612"/>
	<ellipse style="fill:#3EA69B;" cx="147.118" cy="209.7" rx="11.612" ry="11.612"/>
</g>
<path style="fill:#44C4A1;" d="M297.003,234.164l-1.739-9.048c-11.549,1.022-22.582-1.527-33.087-7.645l6.975-12.521  c8.099,4.698,15.93,6.916,23.516,6.661l-4.622-24.046c-9.769-0.434-17.171-2.055-22.207-4.857  c-5.036-2.803-8.241-7.777-9.614-14.923c-1.374-7.146-0.006-13.47,4.123-18.981c4.13-5.506,10.159-9.232,18.099-11.187l-1.191-6.198  l7.928-1.524l1.215,6.319c9.216-1.081,18.405,0.364,27.569,4.344l-5.867,12.952c-6.203-2.834-12.564-4.096-19.104-3.785l4.478,23.3  l0.373-0.072c9.931,0.408,17.49,2.082,22.679,5.023c5.199,2.944,8.489,8.033,9.878,15.26c1.39,7.232-0.04,13.615-4.291,19.139  c-4.25,5.534-10.542,9.311-18.895,11.345l1.715,8.922L297.003,234.164z M272.881,155.844c-1.751,2.261-2.355,4.778-1.823,7.546  c0.532,2.769,1.78,4.799,3.743,6.089c1.954,1.298,5.399,2.241,10.315,2.839l-4.122-21.444  C277.336,151.923,274.632,153.578,272.881,155.844z M309.421,205.175c1.945-2.34,2.645-4.959,2.088-7.854  c-0.555-2.89-1.904-5.01-4.046-6.356c-2.151-1.344-5.846-2.281-11.084-2.817l4.287,22.306  C304.552,209.285,307.466,207.522,309.421,205.175z"/>
<g>
	<polygon style="fill:#64798A;" points="41.431,188.748 39.096,179.852 85.092,169.596 87.426,178.493  "/>
	<polygon style="fill:#64798A;" points="41.431,224.316 39.096,215.42 91.686,203.229 94.021,212.126  "/>
	<polygon style="fill:#64798A;" points="41.431,259.884 39.096,250.988 96.968,236.289 99.303,245.185  "/>
	<polygon style="fill:#64798A;" points="41.431,295.457 39.096,286.56 102.954,267.413 105.288,276.309  "/>
</g>
<rect x="86.033" y="333.568" style="fill:#E56353;" width="127.898" height="35.231"/>
<g>
	<path style="fill:#FFFFFF;" d="M118.208,344.098c-0.961,0-1.75,0.196-2.365,0.588c-0.617,0.393-0.925,0.985-0.925,1.778   c0,0.794,0.308,1.4,0.925,1.819c0.615,0.42,1.925,0.874,3.932,1.358c2.005,0.486,3.518,1.168,4.536,2.044   c1.016,0.878,1.524,2.17,1.524,3.878s-0.642,3.094-1.932,4.158c-1.287,1.064-2.975,1.596-5.067,1.596   c-3.06,0-5.775-1.055-8.145-3.163l2.071-2.492c1.978,1.718,4.03,2.576,6.158,2.576c1.064,0,1.909-0.228,2.533-0.686   c0.627-0.457,0.939-1.064,0.939-1.819c0-0.756-0.294-1.344-0.882-1.765c-0.588-0.419-1.602-0.802-3.037-1.147   c-1.438-0.345-2.531-0.663-3.276-0.952c-0.747-0.289-1.41-0.666-1.989-1.133c-1.157-0.877-1.734-2.221-1.734-4.031   c0-1.81,0.656-3.206,1.973-4.185c1.315-0.98,2.944-1.469,4.885-1.469c1.251,0,2.492,0.205,3.723,0.615   c1.233,0.411,2.297,0.99,3.192,1.736l-1.763,2.491c-0.579-0.522-1.362-0.951-2.351-1.287   C120.144,344.266,119.169,344.098,118.208,344.098z"/>
	<path style="fill:#FFFFFF;" d="M143.667,341.522v3.108h-10.441v5.18h9.377v2.939h-9.377v5.236h10.779v3.108h-14.082v-19.569   H143.667z"/>
	<path style="fill:#FFFFFF;" d="M162.903,341.522h3.304v19.569h-3.584l-11.086-14.278v14.278h-3.304v-19.569h3.304l11.366,14.614   V341.522z"/>
	<path style="fill:#FFFFFF;" d="M186.444,344.084c1.886,1.708,2.827,4.083,2.827,7.125c0,3.042-0.914,5.45-2.743,7.222   c-1.829,1.774-4.629,2.66-8.398,2.66h-6.495v-19.569h6.719C181.863,341.522,184.56,342.376,186.444,344.084z M185.941,351.292   c0-4.479-2.565-6.719-7.698-6.719h-3.304v13.41h3.668c2.369,0,4.185-0.564,5.445-1.694   C185.312,355.161,185.941,353.495,185.941,351.292z"/>
</g>
<g>
</g>
<g>
</g>
<g>
</g>
<g>
</g>
<g>
</g>
<g>
</g>
<g>
</g>
<g>
</g>
<g>
</g>
<g>
</g>
<g>
</g>
<g>
</g>
<g>
</g>
<g>
</g>
<g>
</g>
</svg>
