<?xml version="1.0" encoding="iso-8859-1"?>
<!-- Generator: Adobe Illustrator 19.0.0, SVG Export Plug-In . SVG Version: 6.00 Build 0)  -->
<svg xmlns="http://www.w3.org/2000/svg" xmlns:xlink="http://www.w3.org/1999/xlink" version="1.1" id="Layer_1" x="0px" y="0px" viewBox="0 0 512 512" style="enable-background:new 0 0 512 512;" xml:space="preserve">
<path style="fill:#F3F3F3;" d="M394.8,512H32.133c-18.133,0-32-13.867-32-32V32c0-18.133,13.867-32,32-32H394.8  c18.133,0,32,13.867,32,32v448C426.8,498.133,411.867,512,394.8,512z"/>
<rect x="53.467" y="53.333" style="fill:#66C6B9;" width="320" height="23.467"/>
<g>
	<rect x="53.467" y="130.133" style="fill:#CED6E0;" width="320" height="23.467"/>
	<rect x="53.467" y="205.867" style="fill:#CED6E0;" width="320" height="23.467"/>
	<rect x="53.467" y="282.667" style="fill:#CED6E0;" width="320" height="23.467"/>
	<rect x="53.467" y="359.467" style="fill:#CED6E0;" width="320" height="23.467"/>
	<rect x="53.467" y="435.2" style="fill:#CED6E0;" width="164.267" height="23.467"/>
</g>
<path style="fill:#F3705A;" d="M498.267,433.067L417.2,352l-65.067,65.067l81.067,81.067c18.133,18.133,46.933,18.133,65.067,0l0,0  C516.4,480,516.4,451.2,498.267,433.067z"/>
<path style="fill:#F05540;" d="M352.133,417.067l17.067,17.067c13.867-7.467,26.667-16,37.333-27.733  c11.733-11.733,20.267-24.533,27.733-37.333L417.2,352L352.133,417.067z"/>
<circle style="fill:#8AD7F8;" cx="298.8" cy="298.667" r="122.667"/>
<path style="fill:#415A6B;" d="M396.933,396.8c-54.4,54.4-142.933,54.4-197.333,0s-54.4-142.933,0-197.333s142.933-54.4,197.333,0  S451.333,342.4,396.933,396.8z M224.133,224c-40.533,40.533-40.533,107.733,0,148.267s107.733,40.533,148.267,0  s40.533-107.733,0-148.267S265.733,183.467,224.133,224z"/>
<ellipse style="fill:#FFFFFF;" cx="298.8" cy="243.2" rx="34.133" ry="20.267"/>
<g>
</g>
<g>
</g>
<g>
</g>
<g>
</g>
<g>
</g>
<g>
</g>
<g>
</g>
<g>
</g>
<g>
</g>
<g>
</g>
<g>
</g>
<g>
</g>
<g>
</g>
<g>
</g>
<g>
</g>
</svg>
