<?xml version="1.0" encoding="iso-8859-1"?>
<!-- Generator: Adobe Illustrator 19.0.0, SVG Export Plug-In . SVG Version: 6.00 Build 0)  -->
<svg xmlns="http://www.w3.org/2000/svg" xmlns:xlink="http://www.w3.org/1999/xlink" version="1.1" id="Layer_1" x="0px" y="0px" viewBox="0 0 513.067 513.067" style="enable-background:new 0 0 513.067 513.067;" xml:space="preserve">
<path style="fill:#F3705A;" d="M264.533,29.333c-41.6,0-81.067,9.6-115.2,25.6l-112-33.067L70.4,115.733  c-18.133,21.333-32,45.867-41.6,72.533L0,195.733V312l28.8,6.4c12.8,38.4,36.267,72.533,68.267,99.2v73.6h92.8l8.533-20.267  c21.333,5.333,43.733,8.533,67.2,8.533c136.533,0,247.467-100.267,247.467-224C512,129.6,401.067,29.333,264.533,29.333z"/>
<polygon style="fill:#F05540;" points="329.6,414.4 329.6,464.533 340.267,491.2 433.067,491.2 433.067,414.4 "/>
<ellipse style="fill:#F3705A;" cx="264.533" cy="254.4" rx="247.467" ry="224"/>
<path style="fill:#F05540;" d="M512,254.4c0,123.733-110.933,224-247.467,224c-20.267,0-40.533-2.133-58.667-6.4  c3.2,0,6.4,0,8.533,0c150.4,0,272-109.867,272-246.4c0-41.6-11.733-81.067-30.933-115.2C490.667,148.8,512,198.933,512,254.4z"/>
<g>
	<circle style="fill:#344A5E;" cx="112" cy="164.8" r="19.2"/>
	<path style="fill:#344A5E;" d="M219.733,98.667c29.867-5.333,60.8-5.333,90.667,0c6.4,1.067,12.8-2.133,14.933-9.6l0,0   c2.133-7.467-2.133-14.933-9.6-16c-33.067-6.4-67.2-6.4-100.267,0c-8.533,2.133-12.8,9.6-10.667,17.067l0,0   C206.933,96.533,213.333,100.8,219.733,98.667z"/>
</g>
<g>
</g>
<g>
</g>
<g>
</g>
<g>
</g>
<g>
</g>
<g>
</g>
<g>
</g>
<g>
</g>
<g>
</g>
<g>
</g>
<g>
</g>
<g>
</g>
<g>
</g>
<g>
</g>
<g>
</g>
</svg>
