<?xml version="1.0" encoding="iso-8859-1"?>
<!-- Generator: Adobe Illustrator 19.0.0, SVG Export Plug-In . SVG Version: 6.00 Build 0)  -->
<svg xmlns="http://www.w3.org/2000/svg" xmlns:xlink="http://www.w3.org/1999/xlink" version="1.1" id="Layer_1" x="0px" y="0px" viewBox="0 0 512 512" style="enable-background:new 0 0 512 512;" xml:space="preserve">
<path style="fill:#F3F3F3;" d="M164.267,512L59.733,407.467V32c0-18.133,13.867-32,32-32h328.533c18.133,0,32,13.867,32,32v448  c0,18.133-13.867,32-32,32H164.267z"/>
<polygon style="fill:#ADB3BA;" points="164.267,512 59.733,407.467 164.267,407.467 "/>
<g>
	<polygon style="fill:#415A6B;" points="145.067,180.267 216.533,108.8 216.533,86.4 136.533,166.4 136.533,180.267  "/>
	<polygon style="fill:#415A6B;" points="279.467,134.4 232.533,87.467 232.533,109.867 279.467,157.867  "/>
	<polygon style="fill:#415A6B;" points="297.6,135.467 297.6,157.867 375.467,80 375.467,57.6  "/>
</g>
<circle style="fill:#FFD15C;" cx="128" cy="185.6" r="24.533"/>
<circle style="fill:#66C6B9;" cx="222.933" cy="90.667" r="24.533"/>
<circle style="fill:#F3705A;" cx="290.133" cy="155.733" r="24.533"/>
<g>
	<circle style="fill:#8AD7F8;" cx="384" cy="60.8" r="24.533"/>
	<rect x="128" y="251.733" style="fill:#8AD7F8;" width="30.933" height="60.8"/>
</g>
<rect x="187.733" y="188.8" style="fill:#F3705A;" width="30.933" height="123.733"/>
<rect x="248.533" y="221.867" style="fill:#66C6B9;" width="30.933" height="90.667"/>
<rect x="308.267" y="208" style="fill:#FFD15C;" width="30.933" height="105.6"/>
<rect x="369.067" y="155.733" style="fill:#415A6B;" width="30.933" height="157.867"/>
<g>
	<rect x="108.8" y="356.267" style="fill:#CED6E0;" width="294.4" height="25.6"/>
	<rect x="209.067" y="433.067" style="fill:#CED6E0;" width="194.133" height="23.467"/>
</g>
<g>
</g>
<g>
</g>
<g>
</g>
<g>
</g>
<g>
</g>
<g>
</g>
<g>
</g>
<g>
</g>
<g>
</g>
<g>
</g>
<g>
</g>
<g>
</g>
<g>
</g>
<g>
</g>
<g>
</g>
</svg>
