<?xml version="1.0" encoding="iso-8859-1"?>
<!-- Generator: Adobe Illustrator 19.0.0, SVG Export Plug-In . SVG Version: 6.00 Build 0)  -->
<svg xmlns="http://www.w3.org/2000/svg" xmlns:xlink="http://www.w3.org/1999/xlink" version="1.1" id="Layer_1" x="0px" y="0px" viewBox="0 0 491.52 491.52" style="enable-background:new 0 0 491.52 491.52;" xml:space="preserve">
<path style="fill:#E56353;" d="M462.974,218.378c3.299-12.21,5.22-24.989,5.22-38.243c0-13.255-1.921-26.034-5.22-38.245  l24.841-18.274c3.732-2.746,4.803-7.859,2.484-11.873L465.271,68.39c-2.317-4.013-7.28-5.642-11.524-3.782l-28.138,12.328  c-18.04-18.15-40.859-31.446-66.351-38.188L355.854,8.09C355.341,3.484,351.447,0,346.816,0h-50.062  c-4.631,0-8.525,3.484-9.038,8.09l-3.406,30.658C258.817,45.491,236,58.787,217.958,76.936l-28.135-12.328  c-4.244-1.859-9.208-0.231-11.524,3.782l-25.029,43.352c-2.319,4.014-1.248,9.127,2.484,11.875l24.841,18.273  c-3.301,12.211-5.22,24.99-5.22,38.245c0,13.254,1.918,26.033,5.22,38.243l-24.841,18.275c-3.732,2.746-4.803,7.859-2.484,11.872  l25.029,43.354c2.317,4.013,7.28,5.642,11.524,3.783l28.135-12.328c18.042,18.15,40.859,31.443,66.351,38.187l3.406,30.659  c0.513,4.606,4.407,8.09,9.038,8.09h50.062c4.631,0,8.525-3.484,9.038-8.09l3.404-30.659c25.491-6.743,48.311-20.037,66.351-38.187  l28.138,12.328c4.244,1.859,9.208,0.229,11.524-3.783l25.029-43.354c2.319-4.013,1.248-9.126-2.484-11.872L462.974,218.378z   M321.784,279.965c-55.046,0-99.832-44.783-99.832-99.829c0-55.047,44.785-99.83,99.832-99.83s99.832,44.783,99.832,99.83  C421.616,235.182,376.831,279.965,321.784,279.965z"/>
<g>
	<path style="fill:#D15241;" d="M321.784,68.745c-61.422,0-111.388,49.97-111.388,111.39c0,61.419,49.966,111.388,111.388,111.388   s111.388-49.968,111.388-111.388C433.172,118.715,383.206,68.745,321.784,68.745z M321.784,279.965   c-55.046,0-99.832-44.783-99.832-99.829c0-55.047,44.785-99.83,99.832-99.83s99.832,44.783,99.832,99.83   C421.616,235.182,376.831,279.965,321.784,279.965z"/>
	<circle style="fill:#D15241;" cx="321.787" cy="180.122" r="66.765"/>
</g>
<ellipse style="fill:#FCD462;" cx="169.83" cy="321.587" rx="169.83" ry="169.933"/>
<ellipse style="fill:#F6C358;" cx="169.83" cy="321.587" rx="141.486" ry="141.583"/>
<path style="fill:#DC8744;" d="M163.982,431.767v-19.405c-24.277-2.477-46.068-12.136-65.352-28.966l19.391-23.126  c14.873,12.936,30.179,20.638,45.96,23.126v-51.573c-20.018-4.781-34.676-11.076-43.971-18.875  c-9.296-7.799-13.944-19.361-13.944-34.688s5.34-27.863,16.062-37.62c10.723-9.746,24.666-15.056,41.853-15.943v-13.293h16.992  v13.553c19.478,1.428,37.897,8.069,55.256,19.945l-17.273,24.456c-11.695-8.329-24.342-13.466-37.983-15.424v49.972h0.8  c20.364,4.792,35.324,11.26,44.879,19.405c9.577,8.156,14.354,19.989,14.354,35.489c0,15.511-5.491,28.144-16.473,37.879  c-10.982,9.756-25.488,15.067-43.561,15.954v19.134H163.982z M145.239,260.186c-4.518,3.98-6.766,8.945-6.766,14.883  c0,5.938,1.773,10.633,5.318,14.083c3.524,3.461,10.269,6.782,20.191,9.973v-45.991  C156.005,253.848,149.757,256.195,145.239,260.186z M201.165,376.744c4.951-4.067,7.437-9.205,7.437-15.413  c0-6.198-1.946-11.119-5.837-14.754c-3.913-3.634-11.177-7.042-21.791-10.232v47.841C189.47,383.31,196.193,380.822,201.165,376.744  z"/>
<g>
</g>
<g>
</g>
<g>
</g>
<g>
</g>
<g>
</g>
<g>
</g>
<g>
</g>
<g>
</g>
<g>
</g>
<g>
</g>
<g>
</g>
<g>
</g>
<g>
</g>
<g>
</g>
<g>
</g>
</svg>
