<?xml version="1.0" encoding="iso-8859-1"?>
<!-- Generator: Adobe Illustrator 19.0.0, SVG Export Plug-In . SVG Version: 6.00 Build 0)  -->
<svg xmlns="http://www.w3.org/2000/svg" xmlns:xlink="http://www.w3.org/1999/xlink" version="1.1" id="Layer_1" x="0px" y="0px" viewBox="0 0 491.52 491.52" style="enable-background:new 0 0 491.52 491.52;" xml:space="preserve">
<polygon style="fill:#EBF0F3;" points="455.693,419.105 455.693,252.132 372.248,252.132 372.248,419.105 336.421,419.105   413.971,491.52 491.52,419.105 "/>
<polygon style="fill:#E56353;" points="35.827,72.415 35.827,239.388 119.272,239.388 119.272,72.415 155.099,72.415 77.549,0   0,72.415 "/>
<ellipse style="fill:#FCD462;" cx="245.76" cy="245.76" rx="155.884" ry="155.986"/>
<ellipse style="fill:#F6C358;" cx="245.76" cy="245.76" rx="129.874" ry="129.961"/>
<path style="fill:#DC8744;" d="M240.402,346.899v-17.812c-22.285-2.274-42.287-11.14-59.988-26.589l17.8-21.228  c13.653,11.875,27.702,18.944,42.188,21.228v-47.34c-18.376-4.388-31.83-10.167-40.363-17.326  c-8.533-7.159-12.799-17.772-12.799-31.841c0-14.069,4.901-25.576,14.744-34.532c9.843-8.946,22.642-13.821,38.418-14.635v-12.202  h15.597v12.441c17.879,1.311,34.786,7.407,50.721,18.309l-15.855,22.449c-10.736-7.645-22.344-12.361-34.866-14.158v45.871h0.734  c18.693,4.398,32.425,10.336,41.196,17.812c8.791,7.486,13.176,18.348,13.176,32.576c0,14.238-5.04,25.835-15.121,34.77  c-10.081,8.956-23.396,13.831-39.986,14.645v17.564H240.402z M223.197,189.4c-4.147,3.654-6.211,8.211-6.211,13.662  s1.627,9.76,4.882,12.927c3.235,3.177,9.426,6.225,18.534,9.154v-42.217C233.08,183.581,227.345,185.736,223.197,189.4z   M274.534,296.392c4.544-3.733,6.826-8.449,6.826-14.148c0-5.689-1.786-10.207-5.358-13.543c-3.592-3.336-10.259-6.464-20.003-9.393  v43.915C263.798,302.418,269.97,300.135,274.534,296.392z"/>
<g>
</g>
<g>
</g>
<g>
</g>
<g>
</g>
<g>
</g>
<g>
</g>
<g>
</g>
<g>
</g>
<g>
</g>
<g>
</g>
<g>
</g>
<g>
</g>
<g>
</g>
<g>
</g>
<g>
</g>
</svg>
