<?xml version="1.0" encoding="iso-8859-1"?>
<!-- Generator: Adobe Illustrator 19.0.0, SVG Export Plug-In . SVG Version: 6.00 Build 0)  -->
<svg xmlns="http://www.w3.org/2000/svg" xmlns:xlink="http://www.w3.org/1999/xlink" version="1.1" id="Layer_1" x="0px" y="0px" viewBox="0 0 512 512" style="enable-background:new 0 0 512 512;" xml:space="preserve">
<path style="fill:#F3F3F3;" d="M134.233,0L1.966,133.333V480c0,18.133,13.867,32,32,32h333.867c18.133,0,32-13.867,32-32V32  c0-18.133-13.867-32-32-32H134.233z"/>
<g>
	<rect x="53.166" y="439.467" style="fill:#CED6E0;" width="295.467" height="26.667"/>
	<rect x="53.166" y="372.267" style="fill:#CED6E0;" width="295.467" height="26.667"/>
	<rect x="53.166" y="304" style="fill:#CED6E0;" width="122.667" height="26.667"/>
</g>
<polygon style="fill:#415A6B;" points="134.233,0 1.966,133.333 134.233,133.333 "/>
<path style="fill:#F7B64C;" d="M220.633,229.333c-1.067,1.067-2.133,2.133-3.2,3.2L192.899,320l87.467-24.533  c1.067-1.067,2.133-2.133,3.2-3.2L220.633,229.333z"/>
<polygon style="fill:#FFD15C;" points="240.899,249.6 234.499,256 192.899,321.067 256.899,278.4 264.366,273.067 "/>
<path style="fill:#F05540;" d="M459.566,116.267l-179.2,180.267c0-4.267-2.133-8.533-5.333-12.8  c-4.267-4.267-11.733-6.4-18.133-5.333c1.067-6.4,0-12.8-5.333-18.133c-4.267-4.267-10.667-5.333-17.067-4.267  c1.067-6.4,0-12.8-5.333-18.133c-3.2-3.2-7.467-5.333-12.8-5.333l180.267-179.2L459.566,116.267z"/>
<path style="fill:#F3705A;" d="M416.899,73.6L234.499,256c6.4-1.067,12.8,0,18.133,5.333c4.267,4.267,6.4,11.733,5.333,18.133  L439.299,96L416.899,73.6z"/>
<path style="fill:#55C0EB;" d="M459.566,116.267L508.633,67.2c2.133-2.133,2.133-9.6-2.133-13.867L459.566,6.4  c-4.267-4.267-11.733-4.267-13.867-2.133l-49.067,49.067L459.566,116.267z"/>
<rect x="425.581" y="33.14" transform="matrix(-0.7071 0.7071 -0.7071 -0.7071 798.9215 -175.0458)" style="fill:#E8EAE9;" width="20.266" height="89.599"/>
<path style="fill:#344A5E;" d="M224.899,311.467l-32,8.533l8.533-32C213.166,291.2,221.699,300.8,224.899,311.467z"/>
<path style="fill:#415A6B;" d="M211.033,292.267L192.899,320l0,0l0,0l27.733-18.133  C218.499,298.667,215.299,295.467,211.033,292.267z"/>
<g>
</g>
<g>
</g>
<g>
</g>
<g>
</g>
<g>
</g>
<g>
</g>
<g>
</g>
<g>
</g>
<g>
</g>
<g>
</g>
<g>
</g>
<g>
</g>
<g>
</g>
<g>
</g>
<g>
</g>
</svg>
