<?xml version="1.0" encoding="iso-8859-1"?>
<!-- Generator: Adobe Illustrator 19.0.0, SVG Export Plug-In . SVG Version: 6.00 Build 0)  -->
<svg xmlns="http://www.w3.org/2000/svg" xmlns:xlink="http://www.w3.org/1999/xlink" version="1.1" id="Layer_1" x="0px" y="0px" viewBox="0 0 491.52 491.52" style="enable-background:new 0 0 491.52 491.52;" xml:space="preserve">
<circle style="fill:#2D93BA;" cx="382.771" cy="380.058" r="98.447"/>
<circle style="fill:#27A2DB;" cx="382.771" cy="380.058" r="82.022"/>
<path style="fill:#1C75A1;" d="M324.903,375.002v-13.124h15.869c3.352-10.883,9.3-19.631,17.855-26.243  c8.543-6.612,18.253-9.915,29.142-9.915c16.167,0,28.98,5.848,38.442,17.545l-10.827,13.733c-4.482-4.78-8.729-8.139-12.74-10.07  c-4.023-1.931-8.977-2.899-14.875-2.899c-5.91,0-11.225,1.552-15.943,4.65c-4.731,3.104-8.269,7.506-10.604,13.199h36.306v13.124  h-39.522c-0.099,1.217-0.149,3.073-0.149,5.569c0,2.49,0.149,4.855,0.459,7.09h39.212v13.124h-35.09  c5.488,10.579,13.783,15.869,24.871,15.869c5.488,0,10.194-1.043,14.105-3.129c3.924-2.086,8.071-5.364,12.441-9.84l10.827,13.118  c-9.461,11.703-21.915,17.551-37.374,17.551c-10.579,0-19.966-3.03-28.149-9.083c-8.195-6.047-14.068-14.211-17.632-24.486h-16.626  v-13.124h13.733c-0.31-2.44-0.459-4.88-0.459-7.32s0.05-4.222,0.149-5.339H324.903z"/>
<circle style="fill:#FCD462;" cx="112.579" cy="372.531" r="98.657"/>
<circle style="fill:#F6C358;" cx="112.579" cy="372.531" r="82.176"/>
<path style="fill:#DC8744;" d="M109.186,436.508v-11.266c-14.104-1.438-26.764-7.046-37.966-16.817L82.486,395  c8.641,7.51,17.533,11.982,26.701,13.426v-29.941c-11.63-2.776-20.145-6.43-25.545-10.958c-5.4-4.528-8.101-11.24-8.101-20.139  c0-8.898,3.102-16.176,9.331-21.84c6.229-5.658,14.33-8.741,24.315-9.256v-7.718h9.872v7.868  c11.316,0.829,22.016,4.685,32.101,11.58l-10.035,14.198c-6.795-4.835-14.142-7.818-22.067-8.955v29.012h0.465  c11.831,2.782,20.522,6.537,26.073,11.266c5.564,4.735,8.339,11.605,8.339,20.603c0,9.005-3.19,16.34-9.57,21.991  c-6.38,5.664-14.807,8.747-25.307,9.262v11.109H109.186z M98.298,336.895c-2.625,2.311-3.931,5.193-3.931,8.641  c0,3.447,1.03,6.173,3.09,8.176c2.047,2.009,5.966,3.937,11.73,5.79v-26.701C104.552,333.215,100.923,334.578,98.298,336.895z   M130.788,404.564c2.876-2.361,4.32-5.344,4.32-8.948c0-3.598-1.13-6.455-3.391-8.565c-2.273-2.11-6.493-4.088-12.66-5.94v27.775  C123.994,408.376,127.9,406.931,130.788,404.564z"/>
<path style="fill:#64798A;" d="M216.227,491.52c-21.19,0-38.426-17.241-38.426-38.435c0-4.935,3.997-8.937,8.937-8.937  c4.94,0,8.937,4.001,8.937,8.937c0,11.337,9.216,20.561,20.553,20.561c11.337,0,20.561-9.225,20.561-20.561V8.937  c0-4.935,3.997-8.937,8.937-8.937c4.94,0,8.937,4.001,8.937,8.937v444.148C254.662,474.279,237.417,491.52,216.227,491.52z"/>
<path style="fill:#EBF0F3;" d="M442.368,227.523c27.146,0,49.152,22.006,49.152,49.152c0-135.729-110.03-245.759-245.759-245.759  C110.031,30.915,0,140.946,0,276.675c0-27.146,22.007-49.152,49.153-49.152s49.153,22.006,49.153,49.152  c0-27.146,22.006-49.152,49.152-49.152s49.152,22.006,49.152,49.152c0-27.146,22.006-49.152,49.153-49.152  c27.145,0,49.152,22.006,49.152,49.152c0-27.146,22.006-49.152,49.152-49.152c27.147,0,49.153,22.006,49.153,49.152  C393.217,249.529,415.223,227.523,442.368,227.523z"/>
<path style="fill:#E56353;" d="M245.761,30.915c-81.438,0-147.456,110.03-147.456,245.759c0-27.146,22.006-49.152,49.152-49.152  s49.152,22.006,49.152,49.152c0-27.146,22.006-49.152,49.153-49.152c27.145,0,49.152,22.006,49.152,49.152  c0-27.146,22.006-49.152,49.152-49.152c27.147,0,49.153,22.006,49.153,49.152C393.217,140.946,327.198,30.915,245.761,30.915z"/>
<path style="fill:#EBF0F3;" d="M245.761,227.523c27.145,0,49.152,22.006,49.152,49.152c0-135.729-22.007-245.759-49.152-245.759  c-27.147,0-49.153,110.03-49.153,245.759C196.608,249.529,218.614,227.523,245.761,227.523z"/>
<g>
</g>
<g>
</g>
<g>
</g>
<g>
</g>
<g>
</g>
<g>
</g>
<g>
</g>
<g>
</g>
<g>
</g>
<g>
</g>
<g>
</g>
<g>
</g>
<g>
</g>
<g>
</g>
<g>
</g>
</svg>
