<?xml version="1.0" encoding="iso-8859-1"?>
<!-- Generator: Adobe Illustrator 19.0.0, SVG Export Plug-In . SVG Version: 6.00 Build 0)  -->
<svg xmlns="http://www.w3.org/2000/svg" xmlns:xlink="http://www.w3.org/1999/xlink" version="1.1" id="Layer_1" x="0px" y="0px" viewBox="0 0 512.137 512.137" style="enable-background:new 0 0 512.137 512.137;" xml:space="preserve">
<path style="fill:#F3705A;" d="M500.267,442.735C405.333,351.002,309.333,261.402,211.2,171.802l-39.467,39.467  c88.533,98.133,179.2,194.133,270.933,288c16,16,41.6,16,56.533,0l0,0C516.267,484.335,516.267,458.735,500.267,442.735z"/>
<path style="fill:#FFD15C;" d="M158.933,36.335c-37.333,66.133-57.6,85.333-122.667,122.667L156.8,279.535  c37.333-66.133,57.6-85.333,122.667-122.667L158.933,36.335z"/>
<g>
	<path style="fill:#F7B64C;" d="M264.533,165.402c4.267-3.2,9.6-5.333,14.933-8.533L158.933,36.335   c-3.2,5.333-5.333,9.6-8.533,14.933L264.533,165.402z"/>
	<path style="fill:#F7B64C;" d="M50.133,150.468c-4.267,3.2-9.6,5.333-14.933,8.533l120.533,120.533   c3.2-5.333,5.333-9.6,8.533-14.933L50.133,150.468z"/>
</g>
<g>
	<path style="fill:#FFD15C;" d="M278.4,156.868L157.867,36.335c-8.533-8.533-8.533-22.4,0-29.867c8.533-8.533,22.4-8.533,29.867,0   l121.6,120.533c8.533,8.533,8.533,22.4,0,29.867C300.8,165.402,286.933,165.402,278.4,156.868z"/>
	<path style="fill:#FFD15C;" d="M126.933,309.402L6.4,188.868c-8.533-8.533-8.533-22.4,0-29.867c8.533-8.533,22.4-8.533,29.867,0   L156.8,279.535c8.533,8.533,8.533,22.4,0,29.867C148.267,317.935,135.467,317.935,126.933,309.402z"/>
</g>
<path style="fill:#344A5E;" d="M206.933,464.068c-3.2-13.867-16-24.533-30.933-24.533H60.8c-14.933,0-27.733,10.667-30.933,24.533  H206.933z"/>
<path style="fill:#415A6B;" d="M220.8,464.068H16c-8.533,0-16,6.4-16,16v32h236.8v-32C236.8,470.468,229.333,464.068,220.8,464.068z  "/>
<g>
</g>
<g>
</g>
<g>
</g>
<g>
</g>
<g>
</g>
<g>
</g>
<g>
</g>
<g>
</g>
<g>
</g>
<g>
</g>
<g>
</g>
<g>
</g>
<g>
</g>
<g>
</g>
<g>
</g>
</svg>
