<?xml version="1.0" encoding="iso-8859-1"?>
<!-- Generator: Adobe Illustrator 19.0.0, SVG Export Plug-In . SVG Version: 6.00 Build 0)  -->
<svg xmlns="http://www.w3.org/2000/svg" xmlns:xlink="http://www.w3.org/1999/xlink" version="1.1" id="Layer_1" x="0px" y="0px" viewBox="0 0 512 512" style="enable-background:new 0 0 512 512;" xml:space="preserve">
<path style="fill:#415A6B;" d="M453.333,425.6H58.667c-18.133,0-32-13.867-32-32V97.067c0-18.133,13.867-32,32-32h394.667  c18.133,0,32,13.867,32,32v297.6C485.333,411.733,470.4,425.6,453.333,425.6z"/>
<rect x="60.8" y="98.133" style="fill:#55C0EB;" width="391.467" height="268.8"/>
<path style="fill:#F7B64C;" d="M94.933,310.4c0,13.867,28.8,25.6,64,25.6s64-11.733,64-25.6v-81.067c0-13.867-28.8-25.6-64-25.6  s-64,11.733-64,25.6V310.4z"/>
<ellipse style="fill:#FFD15C;" cx="160" cy="230.4" rx="64" ry="25.6"/>
<ellipse style="fill:#F7B64C;" cx="160" cy="230.4" rx="48" ry="19.2"/>
<g>
	<path style="fill:#FFD15C;" d="M157.867,242.133V240c-6.4,0-12.8-1.067-18.133-3.2l5.333-2.133c4.267,1.067,8.533,2.133,12.8,2.133   v-5.333c-5.333,0-9.6-1.067-11.733-2.133c-2.133-1.067-4.267-2.133-4.267-4.267c0-2.133,1.067-3.2,4.267-4.267   c3.2-1.067,6.4-2.133,11.733-2.133V217.6h4.267v1.067c5.333,0,10.667,1.067,14.933,2.133l-3.2,3.2   c-3.2-1.067-6.4-1.067-10.667-2.133v5.333l0,0c5.333,0,9.6,1.067,12.8,2.133c2.133,1.067,4.267,2.133,4.267,4.267   c0,2.133-1.067,3.2-4.267,4.267c-3.2,1.067-7.467,2.133-11.733,2.133v2.133H157.867z M152.533,222.933   c-1.067,0-2.133,1.067-2.133,2.133s0,1.067,1.067,1.067c1.067,0,3.2,1.067,5.333,1.067v-5.333   C155.733,222.933,154.667,222.933,152.533,222.933z M168.533,235.733c1.067,0,2.133-1.067,2.133-2.133s-1.067-1.067-2.133-2.133   c-1.067,0-3.2-1.067-6.4-1.067v5.333C165.333,236.8,167.467,236.8,168.533,235.733z"/>
	<path style="fill:#FFD15C;" d="M160,276.267c29.867,0,55.467-7.467,64-18.133V249.6c-1.067,12.8-29.867,23.467-64,23.467   S97.067,262.4,96,249.6v8.533C104.533,268.8,129.067,276.267,160,276.267z"/>
	<path style="fill:#FFD15C;" d="M160,296.533c29.867,0,55.467-7.467,64-18.133v-8.533c-1.067,12.8-29.867,23.467-64,23.467   s-62.933-10.667-64-23.467v7.467C104.533,288,129.067,296.533,160,296.533z"/>
	<path style="fill:#FFD15C;" d="M160,311.467c-34.133,0-62.933-10.667-64-23.467v8.533c8.533,10.667,34.133,18.133,64,18.133   s55.467-7.467,64-18.133V288C222.933,300.8,194.133,311.467,160,311.467z"/>
	<circle style="fill:#FFD15C;" cx="256" cy="152.533" r="43.733"/>
</g>
<circle style="fill:#F7B64C;" cx="256" cy="152.533" r="33.067"/>
<path style="fill:#FFD15C;" d="M254.933,172.8v-3.2c-4.267,0-8.533-2.133-12.8-5.333l3.2-4.267c3.2,2.133,5.333,4.267,8.533,4.267  v-9.6c-4.267-1.067-6.4-2.133-8.533-3.2c-2.133-1.067-2.133-3.2-2.133-6.4c0-3.2,1.067-5.333,3.2-7.467s4.267-3.2,7.467-3.2v-2.133  h3.2v2.133c3.2,0,7.467,1.067,10.667,4.267l-3.2,4.267c-2.133-1.067-4.267-2.133-7.467-3.2v9.6l0,0c4.267,1.067,6.4,2.133,8.533,3.2  c2.133,1.067,3.2,4.267,3.2,6.4c0,3.2-1.067,5.333-3.2,7.467s-5.333,3.2-8.533,3.2v3.2L254.933,172.8L254.933,172.8z M250.667,140.8  c-1.067,1.067-1.067,2.133-1.067,3.2c0,1.067,0,2.133,1.067,3.2s2.133,1.067,4.267,2.133v-10.667  C252.8,139.733,251.733,139.733,250.667,140.8z M261.333,163.2c1.067-1.067,1.067-2.133,1.067-3.2c0-1.067,0-2.133-1.067-3.2  c-1.067-1.067-2.133-1.067-4.267-2.133v9.6C259.2,164.267,260.267,163.2,261.333,163.2z"/>
<g>
	<polygon style="fill:#FFFFFF;" points="417.067,285.867 327.467,228.267 338.133,333.867 357.333,309.333 373.333,334.933    401.067,316.8 385.067,292.267  "/>
	<path style="fill:#FFFFFF;" d="M337.067,186.667L337.067,186.667c-2.133-1.067-4.267,1.067-5.333,3.2l-2.133,12.8   c0,2.133,1.067,4.267,3.2,5.333l0,0c2.133,0,4.267-1.067,5.333-3.2l3.2-12.8C341.333,188.8,339.2,186.667,337.067,186.667z"/>
	<path style="fill:#FFFFFF;" d="M310.4,193.067c-1.067-2.133-4.267-2.133-5.333-1.067l0,0c-2.133,1.067-2.133,4.267-1.067,5.333   l7.467,11.733c1.067,2.133,4.267,2.133,5.333,1.067l0,0c2.133-1.067,2.133-4.267,1.067-5.333L310.4,193.067z"/>
	<path style="fill:#FFFFFF;" d="M306.133,222.933L306.133,222.933c1.067-2.133-1.067-4.267-3.2-5.333l-12.8-3.2   c-2.133,0-4.267,1.067-5.333,3.2l0,0c0,2.133,1.067,4.267,3.2,5.333l12.8,3.2C304,227.2,306.133,226.133,306.133,222.933z"/>
	<path style="fill:#FFFFFF;" d="M309.333,240c-1.067-2.133-4.267-2.133-5.333-1.067l-11.733,6.4   c-2.133,1.067-2.133,4.267-1.067,5.333l0,0c1.067,2.133,4.267,2.133,5.333,1.067l11.733-7.467   C309.333,244.267,310.4,241.067,309.333,240L309.333,240z"/>
	<path style="fill:#FFFFFF;" d="M322.133,248.533L322.133,248.533c-2.133-1.067-4.267,1.067-5.333,3.2l-3.2,12.8   c0,2.133,1.067,4.267,3.2,5.333l0,0c2.133,0,4.267-1.067,5.333-3.2l3.2-12.8C326.4,251.733,324.267,249.6,322.133,248.533z"/>
	<path style="fill:#FFFFFF;" d="M365.867,233.6l-12.8-3.2c-2.133,0-4.267,1.067-5.333,3.2l0,0c0,2.133,1.067,4.267,3.2,5.333   l12.8,3.2c2.133,0,4.267-1.067,5.333-3.2l0,0C370.133,235.733,368,233.6,365.867,233.6z"/>
	<path style="fill:#FFFFFF;" d="M363.733,205.867L363.733,205.867c-1.067-2.133-4.267-2.133-5.333-1.067l-11.733,7.467   c-2.133,1.067-2.133,4.267-1.067,5.333l0,0c1.067,2.133,3.2,2.133,5.333,1.067l11.733-7.467   C364.8,210.133,364.8,208,363.733,205.867z"/>
</g>
<path style="fill:#E8EAE9;" d="M512,396.8L512,396.8H0l0,0c0,27.733,22.4,50.133,50.133,50.133h411.733  C489.6,446.933,512,424.533,512,396.8z"/>
<polygon style="fill:#CED6E0;" points="302.933,419.2 315.733,396.8 196.267,396.8 209.067,419.2 "/>
<g>
</g>
<g>
</g>
<g>
</g>
<g>
</g>
<g>
</g>
<g>
</g>
<g>
</g>
<g>
</g>
<g>
</g>
<g>
</g>
<g>
</g>
<g>
</g>
<g>
</g>
<g>
</g>
<g>
</g>
</svg>
