<?xml version="1.0" encoding="iso-8859-1"?>
<!-- Generator: Adobe Illustrator 19.0.0, SVG Export Plug-In . SVG Version: 6.00 Build 0)  -->
<svg xmlns="http://www.w3.org/2000/svg" xmlns:xlink="http://www.w3.org/1999/xlink" version="1.1" id="Layer_1" x="0px" y="0px" viewBox="0 0 491.52 491.52" style="enable-background:new 0 0 491.52 491.52;" xml:space="preserve">
<polygon style="fill:#EBF0F3;" points="397.513,59.07 278.661,341.887 136.555,282.817 255.406,0 "/>
<polygon style="fill:#44C4A1;" points="377.45,50.731 258.599,333.547 178.215,300.134 297.066,17.317 "/>
<g>
	<polygon style="fill:#64798A;" points="356.396,133.045 302.702,260.814 298.251,258.964 351.945,131.194  "/>
	<polygon style="fill:#64798A;" points="230.69,143.635 189.4,241.889 184.949,240.039 226.239,141.785  "/>
	<polygon style="fill:#64798A;" points="205.096,167.237 176.055,236.342 171.604,234.492 200.645,165.386  "/>
</g>
<polygon style="fill:#E56353;" points="157.273,248.009 150.665,263.734 161.946,277.659 179.836,275.859 186.444,260.135   175.163,246.209 "/>
<g>
	<polygon style="fill:#D5D6DB;" points="249.888,97.952 244.935,109.739 229.227,103.21 234.18,91.423  "/>
	<polygon style="fill:#D5D6DB;" points="255.495,84.61 250.541,96.398 234.833,89.868 239.787,78.081  "/>
	<polygon style="fill:#D5D6DB;" points="261.102,71.269 256.148,83.056 240.44,76.527 245.393,64.739  "/>
	<polygon style="fill:#D5D6DB;" points="266.708,57.927 261.755,69.715 246.047,63.185 251,51.398  "/>
	<polygon style="fill:#D5D6DB;" points="272.315,44.586 267.361,56.373 251.653,49.843 256.607,38.056  "/>
	<polygon style="fill:#D5D6DB;" points="277.922,31.244 272.968,43.031 257.26,36.502 262.213,24.715  "/>
</g>
<g>
	<polygon style="fill:#EBF0F3;" points="273.019,136.153 206.198,295.159 201.747,293.309 268.568,134.302  "/>
	<polygon style="fill:#EBF0F3;" points="293.508,144.669 226.687,303.676 222.236,301.826 289.057,142.819  "/>
	<polygon style="fill:#EBF0F3;" points="353.917,57.555 322.722,131.788 318.271,129.938 349.466,55.705  "/>
	<polygon style="fill:#EBF0F3;" points="298.465,121.705 329.66,47.472 308.716,38.766 277.521,112.999  "/>
</g>
<polygon style="fill:#3EA69B;" points="473.647,157.29 268.76,381.8 148.032,275.17 352.919,50.66 "/>
<path style="fill:#44C4A1;" d="M249.211,349.79l-66.73-58.938c9.11-9.983,8.269-25.341-1.878-34.303L337.599,84.518  c10.147,8.962,25.758,8.135,34.868-1.847l66.73,58.938c-9.11,9.983-8.269,25.341,1.878,34.303L284.08,347.942  C273.933,338.98,258.321,339.807,249.211,349.79z"/>
<g>
	<path style="fill:#3EA69B;" d="M338.941,185.437c22.744,20.088,28.6,50.159,13.079,67.166   c-15.52,17.007-46.539,14.509-69.283-5.579s-28.6-50.159-13.079-67.166S316.198,165.349,338.941,185.437z"/>
	<path style="fill:#3EA69B;" d="M396.79,122.048c4.065,3.591,4.514,9.621,1.003,13.469c-3.512,3.848-9.654,4.057-13.72,0.466   c-4.065-3.591-4.514-9.621-1.003-13.469C386.582,118.666,392.725,118.457,396.79,122.048z"/>
	<path style="fill:#3EA69B;" d="M237.606,296.478c4.065,3.591,4.514,9.621,1.003,13.469c-3.512,3.848-9.654,4.057-13.72,0.466   c-4.065-3.591-4.514-9.621-1.003-13.469C227.398,293.096,233.54,292.887,237.606,296.478z"/>
</g>
<path style="fill:#44C4A1;" d="M342.486,247.187l-5.841-5.159c-7.062,6.263-15.639,9.908-25.722,10.931l-1.916-11.677  c7.764-0.801,14.064-3.117,18.919-6.955l-15.524-13.711c-6.647,4.436-12.356,6.941-17.122,7.518  c-4.766,0.577-9.456-1.172-14.069-5.247c-4.613-4.075-6.998-8.93-7.145-14.581c-0.144-5.648,1.886-11.035,6.09-16.171l-4.001-3.534  l4.421-4.844l4.08,3.603c5.498-5.174,12.289-8.659,20.38-10.451l2.867,11.426c-5.55,1.12-10.387,3.36-14.525,6.728l15.042,13.285  l0.208-0.228c6.741-4.532,12.58-7.077,17.518-7.636c4.947-0.562,9.752,1.222,14.417,5.342c4.669,4.124,7.043,9.048,7.116,14.767  c0.079,5.725-2.096,11.272-6.531,16.661l5.76,5.087L342.486,247.187z M285.963,206.914c0.023,2.346,0.932,4.307,2.719,5.886  s3.662,2.321,5.623,2.228c1.959-0.084,4.713-1.125,8.255-3.105l-13.844-12.227C286.856,202.16,285.937,204.565,285.963,206.914z   M335.598,221.958c0.064-2.493-0.836-4.567-2.705-6.218c-1.866-1.648-3.853-2.401-5.96-2.258c-2.112,0.149-5.027,1.314-8.75,3.492  l14.4,12.719C334.532,227.037,335.532,224.459,335.598,221.958z"/>
<polygon style="fill:#3EA69B;" points="303.207,112.478 145.408,371.192 6.287,289.068 164.087,30.354 "/>
<path style="fill:#44C4A1;" d="M120.034,343.419l-76.896-45.392c7.016-11.503,3.225-26.425-8.468-33.327L155.584,66.458  c11.693,6.903,26.86,3.173,33.877-8.331l76.896,45.392c-7.016,11.503-3.225,26.425,8.468,33.327L153.91,335.088  C142.217,328.185,127.05,331.915,120.034,343.419z"/>
<g>
	<path style="fill:#3EA69B;" d="M176.391,165.288c26.209,15.471,37.765,43.9,25.812,63.498   c-11.953,19.598-42.89,22.943-69.099,7.471s-37.765-43.9-25.812-63.498S150.182,149.817,176.391,165.288z"/>
	<path style="fill:#3EA69B;" d="M220.945,92.242c4.685,2.766,6.29,8.602,3.585,13.036c-2.705,4.434-8.695,5.787-13.38,3.022   c-4.685-2.765-6.29-8.602-3.585-13.036C210.269,90.829,216.26,89.476,220.945,92.242z"/>
	<path style="fill:#3EA69B;" d="M98.344,293.246c4.685,2.766,6.29,8.602,3.585,13.036c-2.705,4.434-8.695,5.787-13.38,3.022   c-4.685-2.765-6.29-8.602-3.585-13.036C87.669,291.834,93.659,290.481,98.344,293.246z"/>
</g>
<path style="fill:#44C4A1;" d="M191.796,225.251l-6.731-3.973c-5.724,7.469-13.441,12.65-23.143,15.539l-4.136-11.106  c7.468-2.238,13.206-5.689,17.231-10.365l-17.889-10.56c-5.67,5.598-10.79,9.124-15.358,10.581s-9.51,0.617-14.826-2.522  c-5.316-3.138-8.595-7.459-9.83-12.98c-1.232-5.518-0.28-11.187,2.857-17.015l-4.611-2.722l3.405-5.582l4.701,2.775  c4.398-6.107,10.393-10.798,17.991-14.07l5.022,10.682c-5.233,2.137-9.549,5.24-12.961,9.321l17.333,10.232l0.16-0.263  c5.743-5.709,10.984-9.3,15.724-10.771c4.748-1.476,9.81-0.623,15.186,2.551c5.38,3.176,8.662,7.567,9.838,13.168  c1.184,5.606,0.119,11.459-3.195,17.578l6.637,3.918L191.796,225.251z M128.524,196.276c0.475,2.299,1.747,4.055,3.807,5.271  c2.06,1.216,4.043,1.595,5.951,1.136c1.907-0.449,4.41-1.985,7.505-4.592l-15.953-9.417  C128.483,191.442,128.045,193.975,128.524,196.276z M180.161,201.769c-0.419-2.459-1.703-4.328-3.856-5.599  c-2.15-1.269-4.247-1.638-6.287-1.103c-2.045,0.541-4.682,2.23-7.916,5.064l16.594,9.796  C180.095,206.955,180.579,204.237,180.161,201.769z"/>
<path style="fill:#27A2DB;" d="M358.881,76.706l-218.287,97.748c-5.254,2.353-7.599,8.491-5.237,13.71l61.936,136.811  c2.363,5.219,8.538,7.541,13.792,5.188l218.287-97.748c5.256-2.353,7.599-8.491,5.237-13.71L372.673,81.895  C370.31,76.676,364.136,74.353,358.881,76.706z"/>
<path style="fill:#FCD462;" d="M190.107,175.154l-31.266,14.001c-1.72,0.77-2.487,2.779-1.714,4.487l14.057,31.051  c0.773,1.708,2.794,2.469,4.514,1.699l31.266-14.001c1.719-0.77,2.487-2.779,1.714-4.488l-14.057-31.051  C193.848,175.145,191.826,174.384,190.107,175.154z"/>
<path style="fill:#E56353;" d="M364.814,112.823c4.72,10.426,0.036,22.689-10.462,27.39c-10.498,4.701-22.835,0.06-27.555-10.366  c-4.72-10.426-0.036-22.689,10.462-27.39C347.757,97.756,360.094,102.397,364.814,112.823z"/>
<path style="fill:#FFFFFF;" d="M340.03,123.921c4.72,10.426,0.036,22.689-10.462,27.39c-10.498,4.701-22.835,0.06-27.555-10.366  c-4.72-10.426-0.036-22.689,10.462-27.39C322.973,108.854,335.31,113.495,340.03,123.921z"/>
<g>
	<polygon style="fill:#64798A;" points="247.499,229.075 185.697,256.749 182.297,249.239 244.099,221.564  "/>
	<polygon style="fill:#64798A;" points="235.884,293.716 208.071,306.171 204.671,298.661 232.484,286.206  "/>
	<polygon style="fill:#64798A;" points="286.067,271.285 258.254,283.74 254.854,276.229 282.667,263.775  "/>
	<polygon style="fill:#64798A;" points="336.258,248.87 308.445,261.325 305.044,253.815 332.858,241.36  "/>
	<polygon style="fill:#64798A;" points="386.426,226.406 358.612,238.86 355.212,231.35 383.025,218.895  "/>
	<polygon style="fill:#64798A;" points="290.76,242.117 197.898,283.7 194.498,276.19 287.36,234.607  "/>
</g>
<ellipse style="fill:#FCD462;" cx="74.967" cy="192.261" rx="57.093" ry="56.832"/>
<ellipse style="fill:#F6C358;" cx="74.967" cy="192.261" rx="47.57" ry="47.345"/>
<path style="fill:#DC8744;" d="M73.007,229.102v-6.489c-8.162-0.828-15.489-4.058-21.972-9.686l6.52-7.733  c5.001,4.326,10.147,6.901,15.453,7.733v-17.245c-6.73-1.599-11.658-3.704-14.784-6.311c-3.125-2.608-4.688-6.474-4.688-11.599  s1.795-9.317,5.4-12.579c3.605-3.259,8.293-5.035,14.072-5.331v-4.445h5.713v4.532c6.549,0.477,12.741,2.698,18.578,6.669  l-5.807,8.178c-3.932-2.785-8.184-4.503-12.77-5.158v16.71h0.269c6.847,1.602,11.876,3.765,15.089,6.489  c3.22,2.727,4.826,6.684,4.826,11.867c0,5.187-1.846,9.411-5.538,12.666c-3.692,3.262-8.569,5.038-14.646,5.335v6.398H73.007z   M66.705,171.728c-1.519,1.331-2.275,2.991-2.275,4.977s0.596,3.555,1.788,4.709c1.185,1.157,3.452,2.268,6.789,3.335V169.37  C70.325,169.609,68.224,170.394,66.705,171.728z M85.508,210.703c1.664-1.36,2.5-3.078,2.5-5.154c0-2.072-0.654-3.718-1.962-4.933  c-1.316-1.215-3.758-2.355-7.326-3.422v15.997C81.576,212.899,83.836,212.067,85.508,210.703z"/>
<path style="fill:#64798A;" d="M481.876,216.976H9.644c-5.326,0-9.644,4.248-9.644,9.487v255.57c0,5.239,4.318,9.487,9.644,9.487  h472.233c5.326,0,9.644-4.247,9.644-9.487v-255.57C491.52,221.224,487.202,216.976,481.876,216.976z"/>
<path style="fill:none;stroke:#3A556A;stroke-width:0.5;stroke-miterlimit:10;stroke-dasharray:0.9965,0.9965;" d="M468.705,234.561  H22.815c-2.729,0-4.942,2.176-4.942,4.862v229.65c0,2.685,2.212,4.862,4.942,4.862h445.889c2.729,0,4.942-2.177,4.942-4.862v-229.65  C473.647,236.738,471.434,234.561,468.705,234.561z"/>
<path style="fill:#3A556A;" d="M469.74,210.406H21.78c-2.158,0-3.907,1.72-3.907,3.843v33.134c0,2.122,1.749,3.843,3.907,3.843  h447.96c2.158,0,3.907-1.721,3.907-3.843v-33.134C473.647,212.126,471.898,210.406,469.74,210.406z"/>
<path style="fill:#64798A;" d="M233.133,188.035c-5.537-5.447-5.536-14.28,0.001-19.727s14.514-5.446,20.051,0.001  c4.403,4.332,5.246,10.783,2.644,15.991l21.752,21.4l-6.441,6.337l-21.752-21.4C244.094,193.195,237.536,192.367,233.133,188.035z"/>
<path style="fill:#EBF0F3;" d="M469.74,205.313H21.78c-2.158,0-3.907,1.72-3.907,3.843v33.134c0,2.122,1.749,3.843,3.907,3.843  h447.96c2.158,0,3.907-1.721,3.907-3.843v-33.134C473.647,207.034,471.898,205.313,469.74,205.313z"/>
<g>
</g>
<g>
</g>
<g>
</g>
<g>
</g>
<g>
</g>
<g>
</g>
<g>
</g>
<g>
</g>
<g>
</g>
<g>
</g>
<g>
</g>
<g>
</g>
<g>
</g>
<g>
</g>
<g>
</g>
</svg>
