<?xml version="1.0" encoding="iso-8859-1"?>
<!-- Generator: Adobe Illustrator 19.0.0, SVG Export Plug-In . SVG Version: 6.00 Build 0)  -->
<svg xmlns="http://www.w3.org/2000/svg" xmlns:xlink="http://www.w3.org/1999/xlink" version="1.1" id="Layer_1" x="0px" y="0px" viewBox="0 0 491.53 491.53" style="enable-background:new 0 0 491.53 491.53;" xml:space="preserve">
<polygon style="fill:#FCD462;" points="145.8,171.649 72.904,98.752 0.005,171.649 44.864,171.649 44.864,308.714 100.942,308.714   100.942,171.649 "/>
<polygon style="fill:#27A2DB;" points="318.663,111.968 245.767,39.071 172.867,111.968 217.726,111.968 217.726,249.034   273.804,249.034 273.804,111.968 "/>
<polygon style="fill:#E56353;" points="491.525,72.897 418.629,0 345.73,72.897 390.589,72.897 390.589,209.962 446.666,209.962   446.666,72.897 "/>
<polygon style="fill:#31978C;" points="392.37,336.197 315.188,312.054 165.184,360.005 29.188,374.256 29.188,403.478   176.34,449.509 462.342,358.085 462.342,328.864 "/>
<polygon style="fill:#3EA69B;" points="315.188,282.833 29.188,374.256 176.34,420.287 462.342,328.864 "/>
<path style="fill:#44C4A1;" d="M156.92,407.635L69.408,380.26c10.548-3.372,10.455-8.809-0.208-12.145l227.002-72.564  c10.663,3.336,27.858,3.306,38.407-0.066l87.512,27.375c-10.548,3.372-10.455,8.809,0.208,12.145l-227.002,72.564  C184.663,404.233,167.468,404.263,156.92,407.635z"/>
<g>
	<path style="fill:#3EA69B;" d="M284.992,339.021c27.722,8.672,32.633,21.316,10.968,28.241c-21.665,6.925-61.701,5.51-89.423-3.162   c-27.722-8.672-32.633-21.316-10.968-28.241S257.269,330.349,284.992,339.021z"/>
	<path style="fill:#3EA69B;" d="M365.743,313.208c4.955,1.55,4.999,4.077,0.097,5.644c-4.902,1.567-12.893,1.581-17.848,0.031   c-4.955-1.55-4.999-4.077-0.097-5.644C352.796,311.671,360.787,311.658,365.743,313.208z"/>
	<path style="fill:#3EA69B;" d="M143.538,384.238c4.955,1.55,4.999,4.077,0.097,5.644c-4.902,1.567-12.893,1.581-17.848,0.031   c-4.955-1.55-4.999-4.077-0.097-5.644C130.591,382.702,138.582,382.688,143.538,384.238z"/>
</g>
<path style="fill:#44C4A1;" d="M284.07,364.883l-7.119-2.227c-9.726,2.534-21.184,3.956-34.363,4.263l-1.442-4.905  c10.148-0.242,18.533-1.135,25.177-2.682l-18.922-5.919c-9.025,1.775-16.657,2.755-22.895,2.939  c-6.237,0.184-12.168-0.603-17.791-2.362c-5.623-1.759-8.284-3.818-7.969-6.182c0.319-2.363,3.434-4.592,9.351-6.689l-4.877-1.526  l6.171-1.973l4.973,1.555c7.598-2.097,16.724-3.474,27.386-4.126l2.699,4.812c-7.303,0.402-13.782,1.281-19.454,2.64l18.334,5.735  l0.291-0.093c9.154-1.814,16.96-2.809,23.419-2.983c6.47-0.176,12.547,0.628,18.234,2.406c5.691,1.78,8.332,3.868,7.915,6.26  c-0.409,2.395-3.729,4.688-9.967,6.888l7.02,2.196L284.07,364.883z M214.31,347.367c-0.181,0.981,0.824,1.812,3.003,2.494  c2.179,0.682,4.545,1.014,7.098,0.999c2.55-0.012,6.218-0.414,10.992-1.2l-16.874-5.278  C215.895,345.39,214.487,346.384,214.31,347.367z M277.386,354.251c0.306-1.042-0.676-1.92-2.954-2.632  c-2.274-0.711-4.786-1.05-7.533-1.016c-2.755,0.037-6.643,0.489-11.668,1.356l17.553,5.491  C275.548,356.363,277.077,355.297,277.386,354.251z"/>
<polygon style="fill:#31978C;" points="392.37,301.874 315.188,277.731 165.184,325.682 29.188,339.934 29.188,369.155   176.34,415.186 462.342,323.762 462.342,294.541 "/>
<polygon style="fill:#3EA69B;" points="315.188,248.51 29.188,339.934 176.34,385.965 462.342,294.541 "/>
<path style="fill:#44C4A1;" d="M156.92,373.312l-87.512-27.374c10.548-3.372,10.455-8.809-0.208-12.145l227.002-72.564  c10.663,3.336,27.858,3.306,38.407-0.066l87.512,27.375c-10.548,3.372-10.455,8.809,0.208,12.145l-227.002,72.564  C184.663,369.911,167.468,369.94,156.92,373.312z"/>
<g>
	<path style="fill:#3EA69B;" d="M284.992,304.698c27.722,8.672,32.633,21.316,10.968,28.241c-21.665,6.925-61.701,5.51-89.423-3.162   c-27.722-8.672-32.633-21.316-10.968-28.241C217.233,294.61,257.269,296.026,284.992,304.698z"/>
	<path style="fill:#3EA69B;" d="M365.743,278.885c4.955,1.55,4.999,4.077,0.097,5.644c-4.902,1.567-12.893,1.581-17.848,0.031   c-4.955-1.55-4.999-4.077-0.097-5.644C352.796,277.349,360.787,277.335,365.743,278.885z"/>
	<path style="fill:#3EA69B;" d="M143.538,349.915c4.955,1.55,4.999,4.077,0.097,5.644c-4.902,1.567-12.893,1.581-17.848,0.031   c-4.955-1.55-4.999-4.077-0.097-5.644S138.582,348.365,143.538,349.915z"/>
</g>
<path style="fill:#44C4A1;" d="M284.07,330.56l-7.119-2.227c-9.726,2.534-21.184,3.956-34.363,4.263l-1.442-4.905  c10.148-0.242,18.533-1.135,25.177-2.682l-18.922-5.919c-9.025,1.775-16.657,2.755-22.895,2.939  c-6.237,0.184-12.168-0.603-17.791-2.362c-5.623-1.759-8.284-3.818-7.969-6.182c0.319-2.363,3.434-4.592,9.351-6.689l-4.877-1.526  l6.171-1.973l4.973,1.555c7.598-2.097,16.724-3.474,27.386-4.126l2.699,4.812c-7.303,0.402-13.782,1.281-19.454,2.639l18.334,5.735  l0.291-0.093c9.154-1.814,16.96-2.809,23.419-2.983c6.47-0.176,12.547,0.628,18.234,2.406c5.691,1.78,8.332,3.868,7.915,6.26  c-0.409,2.395-3.729,4.688-9.967,6.888l7.02,2.196L284.07,330.56z M214.31,313.044c-0.181,0.981,0.824,1.812,3.003,2.494  c2.179,0.682,4.545,1.014,7.098,0.999c2.55-0.012,6.218-0.414,10.992-1.2l-16.874-5.278  C215.895,311.067,214.487,312.062,214.31,313.044z M277.386,319.929c0.306-1.042-0.676-1.92-2.954-2.632  c-2.274-0.711-4.786-1.05-7.533-1.016c-2.755,0.037-6.643,0.489-11.668,1.356l17.553,5.491  C275.548,322.04,277.077,320.974,277.386,319.929z"/>
<polygon style="fill:#31978C;" points="392.37,267.551 315.188,243.408 165.184,291.359 29.188,305.611 29.188,334.832   176.34,380.863 462.342,289.44 462.342,260.219 "/>
<polygon style="fill:#3EA69B;" points="315.188,214.187 29.188,305.611 176.34,351.642 462.342,260.219 "/>
<path style="fill:#44C4A1;" d="M156.92,338.989l-87.512-27.374c10.548-3.372,10.455-8.809-0.208-12.145l227.002-72.564  c10.663,3.336,27.858,3.306,38.407-0.066l87.512,27.374c-10.548,3.372-10.455,8.809,0.208,12.145l-227.002,72.564  C184.663,335.588,167.468,335.617,156.92,338.989z"/>
<g>
	<path style="fill:#3EA69B;" d="M284.992,270.375c27.722,8.672,32.633,21.316,10.968,28.241c-21.665,6.925-61.701,5.51-89.423-3.162   c-27.722-8.672-32.633-21.316-10.968-28.241C217.233,260.288,257.269,261.703,284.992,270.375z"/>
	<path style="fill:#3EA69B;" d="M365.743,244.562c4.955,1.55,4.999,4.077,0.097,5.644c-4.902,1.567-12.893,1.581-17.848,0.031   c-4.955-1.55-4.999-4.077-0.097-5.644C352.796,243.026,360.787,243.012,365.743,244.562z"/>
	<path style="fill:#3EA69B;" d="M143.538,315.593c4.955,1.55,4.999,4.077,0.097,5.644c-4.902,1.567-12.893,1.581-17.848,0.031   c-4.955-1.55-4.999-4.077-0.097-5.644C130.591,314.056,138.582,314.042,143.538,315.593z"/>
</g>
<path style="fill:#44C4A1;" d="M284.07,296.238l-7.119-2.227c-9.726,2.534-21.184,3.956-34.363,4.263l-1.442-4.905  c10.148-0.242,18.533-1.135,25.177-2.682l-18.922-5.919c-9.025,1.775-16.657,2.755-22.895,2.939  c-6.237,0.184-12.168-0.603-17.791-2.362c-5.623-1.759-8.284-3.818-7.969-6.182c0.319-2.363,3.434-4.592,9.351-6.689l-4.877-1.526  l6.171-1.973l4.973,1.555c7.598-2.098,16.724-3.474,27.386-4.126l2.699,4.812c-7.303,0.402-13.782,1.281-19.454,2.639l18.334,5.735  l0.291-0.093c9.154-1.814,16.96-2.809,23.419-2.983c6.47-0.176,12.547,0.628,18.234,2.406c5.691,1.78,8.332,3.868,7.915,6.26  c-0.409,2.395-3.729,4.688-9.967,6.888l7.02,2.196L284.07,296.238z M214.31,278.722c-0.181,0.981,0.824,1.812,3.003,2.494  c2.179,0.682,4.545,1.014,7.098,0.999c2.55-0.012,6.218-0.414,10.992-1.2l-16.874-5.278  C215.895,276.744,214.487,277.739,214.31,278.722z M277.386,285.606c0.306-1.042-0.676-1.92-2.954-2.632  c-2.274-0.711-4.786-1.05-7.533-1.016c-2.755,0.037-6.643,0.489-11.668,1.356l17.553,5.491  C275.548,287.717,277.077,286.651,277.386,285.606z"/>
<polygon style="fill:#31978C;" points="392.37,233.229 315.188,209.085 165.184,257.037 29.188,271.288 29.188,300.509   176.34,346.54 462.342,255.117 462.342,225.896 "/>
<polygon style="fill:#3EA69B;" points="315.188,179.865 29.188,271.288 176.34,317.319 462.342,225.896 "/>
<path style="fill:#44C4A1;" d="M156.92,304.666l-87.512-27.374c10.548-3.372,10.455-8.809-0.208-12.145l227.002-72.564  c10.663,3.336,27.858,3.306,38.407-0.066l87.512,27.374c-10.548,3.372-10.455,8.809,0.208,12.145l-227.002,72.564  C184.663,301.265,167.468,301.294,156.92,304.666z"/>
<g>
	<path style="fill:#3EA69B;" d="M284.992,236.052c27.722,8.672,32.633,21.316,10.968,28.241c-21.665,6.925-61.701,5.51-89.423-3.162   c-27.722-8.672-32.633-21.316-10.968-28.241C217.233,225.965,257.269,227.381,284.992,236.052z"/>
	<path style="fill:#3EA69B;" d="M365.743,210.24c4.955,1.55,4.999,4.077,0.097,5.644s-12.893,1.581-17.848,0.031   c-4.955-1.55-4.999-4.077-0.097-5.644C352.796,208.703,360.787,208.689,365.743,210.24z"/>
	<path style="fill:#3EA69B;" d="M143.538,281.27c4.955,1.55,4.999,4.077,0.097,5.644s-12.893,1.581-17.848,0.031   c-4.955-1.55-4.999-4.077-0.097-5.644C130.591,279.733,138.582,279.72,143.538,281.27z"/>
</g>
<path style="fill:#44C4A1;" d="M284.07,261.915l-7.119-2.227c-9.726,2.534-21.184,3.956-34.363,4.263l-1.442-4.905  c10.148-0.242,18.533-1.135,25.177-2.682l-18.922-5.919c-9.025,1.775-16.657,2.755-22.895,2.939  c-6.237,0.184-12.168-0.603-17.791-2.362c-5.623-1.759-8.284-3.818-7.969-6.182c0.319-2.363,3.434-4.592,9.351-6.689l-4.877-1.526  l6.171-1.973l4.973,1.555c7.598-2.097,16.724-3.474,27.386-4.126l2.699,4.812c-7.303,0.402-13.782,1.281-19.454,2.64l18.334,5.735  l0.291-0.093c9.154-1.814,16.96-2.809,23.419-2.983c6.47-0.176,12.547,0.628,18.234,2.406c5.691,1.78,8.332,3.868,7.915,6.26  c-0.409,2.395-3.729,4.688-9.967,6.888l7.02,2.196L284.07,261.915z M214.31,244.399c-0.181,0.981,0.824,1.812,3.003,2.494  c2.179,0.682,4.545,1.014,7.098,0.999c2.55-0.012,6.218-0.414,10.992-1.2l-16.874-5.278  C215.895,242.422,214.487,243.416,214.31,244.399z M277.386,251.283c0.306-1.042-0.676-1.92-2.954-2.632  c-2.274-0.711-4.786-1.05-7.533-1.016c-2.755,0.037-6.643,0.489-11.668,1.356l17.553,5.491  C275.548,253.394,277.077,252.328,277.386,251.283z"/>
<polygon style="fill:#31978C;" points="392.37,198.906 315.188,174.763 165.184,222.714 29.188,236.965 29.188,266.187   176.34,312.217 462.342,220.794 462.342,191.573 "/>
<polygon style="fill:#3EA69B;" points="315.188,145.542 29.188,236.965 176.34,282.996 462.342,191.573 "/>
<path style="fill:#44C4A1;" d="M156.92,270.344l-87.512-27.374c10.548-3.372,10.455-8.809-0.208-12.145l227.002-72.564  c10.663,3.336,27.858,3.306,38.407-0.066l87.512,27.374c-10.548,3.372-10.455,8.809,0.208,12.145l-227.002,72.564  C184.663,266.942,167.468,266.972,156.92,270.344z"/>
<g>
	<path style="fill:#3EA69B;" d="M284.992,201.73c27.722,8.672,32.633,21.316,10.968,28.241c-21.665,6.925-61.701,5.51-89.423-3.162   c-27.722-8.672-32.633-21.316-10.968-28.241C217.233,191.642,257.269,193.058,284.992,201.73z"/>
	<path style="fill:#3EA69B;" d="M365.743,175.917c4.955,1.55,4.999,4.077,0.097,5.644c-4.902,1.567-12.893,1.581-17.848,0.031   c-4.955-1.55-4.999-4.077-0.097-5.644C352.796,174.38,360.787,174.367,365.743,175.917z"/>
	<path style="fill:#3EA69B;" d="M143.538,246.947c4.955,1.55,4.999,4.077,0.097,5.644c-4.902,1.567-12.893,1.581-17.848,0.031   c-4.955-1.55-4.999-4.077-0.097-5.644C130.591,245.411,138.582,245.397,143.538,246.947z"/>
</g>
<path style="fill:#44C4A1;" d="M284.07,227.592l-7.119-2.227c-9.726,2.534-21.184,3.956-34.363,4.263l-1.442-4.905  c10.148-0.242,18.533-1.135,25.177-2.682l-18.922-5.919c-9.025,1.775-16.657,2.755-22.895,2.939  c-6.237,0.184-12.168-0.603-17.791-2.362c-5.623-1.759-8.284-3.818-7.969-6.182c0.319-2.363,3.434-4.592,9.351-6.689l-4.877-1.526  l6.171-1.973l4.973,1.555c7.598-2.097,16.724-3.474,27.386-4.126l2.699,4.812c-7.303,0.402-13.782,1.281-19.454,2.64l18.334,5.735  l0.291-0.093c9.154-1.814,16.96-2.809,23.419-2.983c6.47-0.176,12.547,0.628,18.234,2.406c5.691,1.78,8.332,3.868,7.915,6.26  c-0.409,2.395-3.729,4.688-9.967,6.888l7.02,2.196L284.07,227.592z M214.31,210.076c-0.181,0.981,0.824,1.812,3.003,2.494  c2.179,0.682,4.545,1.014,7.098,0.999c2.55-0.012,6.218-0.414,10.992-1.2l-16.874-5.278  C215.895,208.099,214.487,209.093,214.31,210.076z M277.386,216.96c0.306-1.042-0.676-1.92-2.954-2.632  c-2.274-0.711-4.786-1.05-7.533-1.016c-2.755,0.037-6.643,0.489-11.668,1.356l17.553,5.491  C275.548,219.072,277.077,218.006,277.386,216.96z"/>
<polygon style="fill:#FFFFFF;" points="285.771,248.016 285.771,414.572 351.566,393.54 351.566,226.984 "/>
<g>
	<polygon style="fill:#FCD462;" points="293.623,245.506 293.623,412.062 300.413,409.892 300.413,243.336  "/>
	<polygon style="fill:#FCD462;" points="336.924,231.664 336.924,398.221 343.714,396.051 343.714,229.494  "/>
</g>
<path style="fill:#F6C358;" d="M344.345,470.161c0,11.796-25.051,21.359-55.954,21.359c-30.902,0-55.954-9.563-55.954-21.359  v-17.472h111.908V470.161z"/>
<ellipse style="fill:#FCD462;" cx="288.415" cy="452.71" rx="55.951" ry="21.361"/>
<g>
	<path style="fill:#DC8744;" d="M288.391,435.503c-26.97,0-48.834,7.695-48.834,17.187c0,9.492,21.864,17.187,48.834,17.187   s48.834-7.695,48.834-17.187C337.225,443.197,315.361,435.503,288.391,435.503z M288.391,467.966   c-23.973,0-43.408-6.84-43.408-15.277c0-8.437,19.435-15.277,43.408-15.277s43.408,6.84,43.408,15.277   C331.799,461.126,312.364,467.966,288.391,467.966z"/>
	<path style="fill:#DC8744;" d="M286.603,464.562v-2.091c-7.438-0.267-14.114-1.308-20.022-3.121l5.941-2.492   c4.557,1.394,9.246,2.224,14.081,2.492v-5.557c-6.133-0.515-10.624-1.193-13.472-2.034s-4.272-2.086-4.272-3.738   c0-1.652,1.636-3.002,4.921-4.054c3.285-1.05,7.557-1.622,12.823-1.718v-1.432h5.206v1.46c5.968,0.154,11.611,0.87,16.929,2.149   l-5.292,2.635c-3.583-0.897-7.458-1.451-11.637-1.662v5.385h0.245c6.239,0.516,10.823,1.213,13.75,2.091   c2.934,0.879,4.398,2.154,4.398,3.824c0,1.671-1.682,3.033-5.047,4.082c-3.365,1.051-7.809,1.624-13.346,1.719v2.062H286.603z    M280.86,446.073c-1.384,0.429-2.073,0.964-2.073,1.604c0,0.64,0.543,1.146,1.629,1.518c1.08,0.373,3.146,0.731,6.186,1.075v-4.956   C284.159,445.39,282.245,445.643,280.86,446.073z M297.995,458.633c1.517-0.438,2.278-0.992,2.278-1.661   c0-0.668-0.596-1.198-1.788-1.59c-1.199-0.392-3.424-0.759-6.676-1.103v5.155C294.412,459.34,296.472,459.072,297.995,458.633z"/>
</g>
<path style="fill:#F6C358;" d="M344.345,448.942c0,11.796-25.051,21.359-55.954,21.359c-30.902,0-55.954-9.563-55.954-21.359V431.47  h111.908V448.942z"/>
<ellipse style="fill:#FCD462;" cx="288.415" cy="431.462" rx="55.951" ry="21.361"/>
<g>
	<path style="fill:#DC8744;" d="M288.391,414.283c-26.97,0-48.834,7.695-48.834,17.187s21.864,17.187,48.834,17.187   s48.834-7.695,48.834-17.187S315.361,414.283,288.391,414.283z M288.391,446.746c-23.973,0-43.408-6.84-43.408-15.277   s19.435-15.277,43.408-15.277s43.408,6.84,43.408,15.277S312.364,446.746,288.391,446.746z"/>
	<path style="fill:#DC8744;" d="M286.603,443.342v-2.091c-7.438-0.267-14.114-1.308-20.022-3.121l5.941-2.492   c4.557,1.394,9.246,2.224,14.081,2.492v-5.557c-6.133-0.515-10.624-1.193-13.472-2.034c-2.848-0.84-4.272-2.086-4.272-3.738   c0-1.652,1.636-3.002,4.921-4.054c3.285-1.05,7.557-1.622,12.823-1.718v-1.432h5.206v1.46c5.968,0.154,11.611,0.869,16.929,2.149   l-5.292,2.635c-3.583-0.897-7.458-1.451-11.637-1.662v5.385h0.245c6.239,0.516,10.823,1.213,13.75,2.091   c2.934,0.879,4.398,2.154,4.398,3.824c0,1.671-1.682,3.033-5.047,4.082c-3.365,1.051-7.809,1.624-13.346,1.719v2.062H286.603z    M280.86,424.854c-1.384,0.429-2.073,0.964-2.073,1.604s0.543,1.146,1.629,1.518c1.08,0.373,3.146,0.731,6.186,1.075v-4.956   C284.159,424.171,282.245,424.424,280.86,424.854z M297.995,437.413c1.517-0.438,2.278-0.992,2.278-1.661   c0-0.668-0.596-1.198-1.788-1.59c-1.199-0.392-3.424-0.759-6.676-1.103v5.155C294.412,438.121,296.472,437.853,297.995,437.413z"/>
</g>
<path style="fill:#F6C358;" d="M344.345,427.722c0,11.796-25.051,21.359-55.954,21.359c-30.902,0-55.954-9.563-55.954-21.359V410.25  h111.908V427.722z"/>
<ellipse style="fill:#FCD462;" cx="288.415" cy="410.266" rx="55.951" ry="21.361"/>
<g>
	<path style="fill:#DC8744;" d="M288.391,393.064c-26.97,0-48.834,7.695-48.834,17.187c0,9.492,21.864,17.187,48.834,17.187   s48.834-7.695,48.834-17.187C337.225,400.758,315.361,393.064,288.391,393.064z M288.391,425.527   c-23.973,0-43.408-6.84-43.408-15.277c0-8.437,19.435-15.277,43.408-15.277s43.408,6.84,43.408,15.277   C331.799,418.687,312.364,425.527,288.391,425.527z"/>
	<path style="fill:#DC8744;" d="M286.603,422.123v-2.091c-7.438-0.267-14.114-1.308-20.022-3.121l5.941-2.492   c4.557,1.394,9.246,2.224,14.081,2.492v-5.557c-6.133-0.515-10.624-1.193-13.472-2.034c-2.848-0.84-4.272-2.086-4.272-3.738   c0-1.652,1.636-3.002,4.921-4.054c3.285-1.05,7.557-1.622,12.823-1.718v-1.432h5.206v1.46c5.968,0.154,11.611,0.869,16.929,2.149   l-5.292,2.635c-3.583-0.897-7.458-1.451-11.637-1.662v5.385h0.245c6.239,0.516,10.823,1.213,13.75,2.091   c2.934,0.879,4.398,2.154,4.398,3.824c0,1.671-1.682,3.033-5.047,4.082c-3.365,1.051-7.809,1.624-13.346,1.719v2.062H286.603z    M280.86,403.634c-1.384,0.429-2.073,0.964-2.073,1.604s0.543,1.146,1.629,1.517c1.08,0.373,3.146,0.731,6.186,1.075v-4.956   C284.159,402.951,282.245,403.204,280.86,403.634z M297.995,416.194c1.517-0.438,2.278-0.992,2.278-1.661   c0-0.668-0.596-1.198-1.788-1.59c-1.199-0.392-3.424-0.759-6.676-1.103v5.155C294.412,416.901,296.472,416.633,297.995,416.194z"/>
</g>
<path style="fill:#F6C358;" d="M344.345,406.503c0,11.796-25.051,21.359-55.954,21.359c-30.902,0-55.954-9.563-55.954-21.359V389.03  h111.908V406.503z"/>
<ellipse style="fill:#FCD462;" cx="288.415" cy="389.033" rx="55.951" ry="21.361"/>
<g>
	<path style="fill:#DC8744;" d="M288.391,371.844c-26.97,0-48.834,7.695-48.834,17.187c0,9.492,21.864,17.187,48.834,17.187   s48.834-7.695,48.834-17.187C337.225,379.539,315.361,371.844,288.391,371.844z M288.391,404.307   c-23.973,0-43.408-6.84-43.408-15.277c0-8.437,19.435-15.277,43.408-15.277s43.408,6.84,43.408,15.277   C331.799,397.468,312.364,404.307,288.391,404.307z"/>
	<path style="fill:#DC8744;" d="M286.603,400.903v-2.091c-7.438-0.267-14.114-1.308-20.022-3.121l5.941-2.492   c4.557,1.394,9.246,2.224,14.081,2.492v-5.557c-6.133-0.515-10.624-1.193-13.472-2.034c-2.848-0.84-4.272-2.086-4.272-3.738   c0-1.652,1.636-3.002,4.921-4.054c3.285-1.05,7.557-1.622,12.823-1.718v-1.432h5.206v1.46c5.968,0.154,11.611,0.869,16.929,2.149   l-5.292,2.635c-3.583-0.897-7.458-1.451-11.637-1.662v5.385h0.245c6.239,0.516,10.823,1.213,13.75,2.091   c2.934,0.879,4.398,2.154,4.398,3.824c0,1.671-1.682,3.033-5.047,4.082c-3.365,1.051-7.809,1.624-13.346,1.719v2.062H286.603z    M280.86,382.414c-1.384,0.429-2.073,0.964-2.073,1.604c0,0.64,0.543,1.146,1.629,1.517c1.08,0.373,3.146,0.731,6.186,1.075v-4.956   C284.159,381.731,282.245,381.984,280.86,382.414z M297.995,394.974c1.517-0.438,2.278-0.992,2.278-1.661   c0-0.668-0.596-1.198-1.788-1.59c-1.199-0.392-3.424-0.759-6.676-1.103v5.155C294.412,395.681,296.472,395.413,297.995,394.974z"/>
</g>
<path style="fill:#F6C358;" d="M344.345,385.283c0,11.796-25.051,21.359-55.954,21.359c-30.902,0-55.954-9.563-55.954-21.359  v-17.472h111.908V385.283z"/>
<ellipse style="fill:#FCD462;" cx="288.415" cy="367.811" rx="55.951" ry="21.361"/>
<g>
	<path style="fill:#DC8744;" d="M288.391,350.624c-26.97,0-48.834,7.695-48.834,17.187c0,9.492,21.864,17.187,48.834,17.187   s48.834-7.695,48.834-17.187C337.225,358.319,315.361,350.624,288.391,350.624z M288.391,383.088   c-23.973,0-43.408-6.84-43.408-15.277c0-8.437,19.435-15.277,43.408-15.277s43.408,6.84,43.408,15.277   C331.799,376.248,312.364,383.088,288.391,383.088z"/>
	<path style="fill:#DC8744;" d="M286.603,379.683v-2.091c-7.438-0.267-14.114-1.308-20.022-3.121l5.941-2.492   c4.557,1.394,9.246,2.224,14.081,2.492v-5.557c-6.133-0.515-10.624-1.194-13.472-2.034c-2.848-0.84-4.272-2.086-4.272-3.738   c0-1.652,1.636-3.002,4.921-4.054c3.285-1.05,7.557-1.622,12.823-1.718v-1.432h5.206v1.46c5.968,0.154,11.611,0.87,16.929,2.149   l-5.292,2.635c-3.583-0.897-7.458-1.451-11.637-1.662v5.385h0.245c6.239,0.516,10.823,1.213,13.75,2.091   c2.934,0.879,4.398,2.154,4.398,3.824c0,1.671-1.682,3.033-5.047,4.082c-3.365,1.051-7.809,1.624-13.346,1.719v2.062H286.603z    M280.86,361.195c-1.384,0.429-2.073,0.964-2.073,1.604c0,0.64,0.543,1.146,1.629,1.518c1.08,0.373,3.146,0.731,6.186,1.075v-4.956   C284.159,360.512,282.245,360.765,280.86,361.195z M297.995,373.754c1.517-0.438,2.278-0.992,2.278-1.661   c0-0.668-0.596-1.198-1.788-1.59c-1.199-0.392-3.424-0.759-6.676-1.103v5.155C294.412,374.462,296.472,374.194,297.995,373.754z"/>
</g>
<path style="fill:#F6C358;" d="M344.345,364.063c0,11.796-25.051,21.359-55.954,21.359c-30.902,0-55.954-9.563-55.954-21.359  v-17.472h111.908V364.063z"/>
<ellipse style="fill:#FCD462;" cx="288.415" cy="346.573" rx="55.951" ry="21.361"/>
<g>
	<path style="fill:#DC8744;" d="M288.391,329.405c-26.97,0-48.834,7.695-48.834,17.187s21.864,17.187,48.834,17.187   s48.834-7.695,48.834-17.187S315.361,329.405,288.391,329.405z M288.391,361.868c-23.973,0-43.408-6.84-43.408-15.277   s19.435-15.277,43.408-15.277s43.408,6.84,43.408,15.277S312.364,361.868,288.391,361.868z"/>
	<path style="fill:#DC8744;" d="M286.603,358.464v-2.091c-7.438-0.267-14.114-1.308-20.022-3.121l5.941-2.492   c4.557,1.394,9.246,2.224,14.081,2.492v-5.557c-6.133-0.515-10.624-1.193-13.472-2.034c-2.848-0.84-4.272-2.086-4.272-3.738   c0-1.652,1.636-3.002,4.921-4.054c3.285-1.05,7.557-1.622,12.823-1.718v-1.432h5.206v1.46c5.968,0.154,11.611,0.869,16.929,2.149   l-5.292,2.635c-3.583-0.897-7.458-1.451-11.637-1.662v5.385h0.245c6.239,0.516,10.823,1.213,13.75,2.091   c2.934,0.879,4.398,2.154,4.398,3.824c0,1.671-1.682,3.033-5.047,4.082c-3.365,1.051-7.809,1.624-13.346,1.719v2.062H286.603z    M280.86,339.975c-1.384,0.429-2.073,0.964-2.073,1.604s0.543,1.146,1.629,1.518c1.08,0.373,3.146,0.731,6.186,1.075v-4.956   C284.159,339.292,282.245,339.545,280.86,339.975z M297.995,352.535c1.517-0.438,2.278-0.992,2.278-1.661   c0-0.668-0.596-1.198-1.788-1.59c-1.199-0.392-3.424-0.759-6.676-1.103v5.155C294.412,353.242,296.472,352.974,297.995,352.535z"/>
</g>
<path style="fill:#F6C358;" d="M344.345,342.844c0,11.796-25.051,21.359-55.954,21.359c-30.902,0-55.954-9.563-55.954-21.359  v-17.472h111.908V342.844z"/>
<ellipse style="fill:#FCD462;" cx="288.415" cy="325.376" rx="55.951" ry="21.361"/>
<g>
	<path style="fill:#DC8744;" d="M288.391,308.185c-26.97,0-48.834,7.695-48.834,17.187c0,9.492,21.864,17.187,48.834,17.187   s48.834-7.695,48.834-17.187C337.225,315.88,315.361,308.185,288.391,308.185z M288.391,340.648   c-23.973,0-43.408-6.84-43.408-15.277c0-8.437,19.435-15.277,43.408-15.277s43.408,6.84,43.408,15.277   C331.799,333.809,312.364,340.648,288.391,340.648z"/>
	<path style="fill:#DC8744;" d="M286.603,337.244v-2.091c-7.438-0.267-14.114-1.308-20.022-3.121l5.941-2.492   c4.557,1.394,9.246,2.224,14.081,2.492v-5.557c-6.133-0.515-10.624-1.194-13.472-2.034c-2.848-0.84-4.272-2.086-4.272-3.738   c0-1.652,1.636-3.002,4.921-4.054c3.285-1.05,7.557-1.622,12.823-1.718v-1.432h5.206v1.46c5.968,0.154,11.611,0.869,16.929,2.149   l-5.292,2.635c-3.583-0.897-7.458-1.451-11.637-1.662v5.385h0.245c6.239,0.516,10.823,1.213,13.75,2.091   c2.934,0.879,4.398,2.154,4.398,3.824c0,1.671-1.682,3.033-5.047,4.082c-3.365,1.051-7.809,1.624-13.346,1.719v2.062H286.603z    M280.86,318.755c-1.384,0.429-2.073,0.964-2.073,1.604s0.543,1.146,1.629,1.518c1.08,0.373,3.146,0.731,6.186,1.075v-4.956   C284.159,318.072,282.245,318.325,280.86,318.755z M297.995,331.315c1.517-0.438,2.278-0.992,2.278-1.661   c0-0.668-0.596-1.198-1.788-1.59c-1.199-0.392-3.424-0.759-6.676-1.103v5.155C294.412,332.023,296.472,331.755,297.995,331.315z"/>
</g>
<path style="fill:#F6C358;" d="M344.345,321.624c0,11.796-25.051,21.359-55.954,21.359c-30.902,0-55.954-9.563-55.954-21.359  v-17.472h111.908V321.624z"/>
<ellipse style="fill:#FCD462;" cx="288.415" cy="304.128" rx="55.951" ry="21.361"/>
<g>
	<path style="fill:#DC8744;" d="M288.391,286.965c-26.97,0-48.834,7.695-48.834,17.187c0,9.492,21.864,17.187,48.834,17.187   s48.834-7.695,48.834-17.187C337.225,294.66,315.361,286.965,288.391,286.965z M288.391,319.429   c-23.973,0-43.408-6.84-43.408-15.277c0-8.437,19.435-15.277,43.408-15.277s43.408,6.84,43.408,15.277   C331.799,312.589,312.364,319.429,288.391,319.429z"/>
	<path style="fill:#DC8744;" d="M286.603,316.024v-2.091c-7.438-0.267-14.114-1.308-20.022-3.121l5.941-2.492   c4.557,1.394,9.246,2.224,14.081,2.492v-5.557c-6.133-0.515-10.624-1.193-13.472-2.034s-4.272-2.086-4.272-3.738   s1.636-3.002,4.921-4.054c3.285-1.05,7.557-1.622,12.823-1.718v-1.432h5.206v1.46c5.968,0.154,11.611,0.869,16.929,2.149   l-5.292,2.635c-3.583-0.897-7.458-1.451-11.637-1.662v5.385h0.245c6.239,0.516,10.823,1.213,13.75,2.091   c2.934,0.879,4.398,2.154,4.398,3.824c0,1.671-1.682,3.033-5.047,4.082c-3.365,1.051-7.809,1.624-13.346,1.719v2.062H286.603z    M280.86,297.536c-1.384,0.429-2.073,0.964-2.073,1.604c0,0.64,0.543,1.146,1.629,1.517c1.08,0.373,3.146,0.731,6.186,1.075v-4.956   C284.159,296.853,282.245,297.106,280.86,297.536z M297.995,310.095c1.517-0.438,2.278-0.992,2.278-1.661   c0-0.668-0.596-1.198-1.788-1.59c-1.199-0.392-3.424-0.759-6.676-1.103v5.155C294.412,310.803,296.472,310.535,297.995,310.095z"/>
</g>
<path style="fill:#F6C358;" d="M462.342,470.161c0,11.796-25.051,21.359-55.954,21.359c-30.902,0-55.954-9.563-55.954-21.359  v-17.472h111.908V470.161z"/>
<ellipse style="fill:#FCD462;" cx="406.38" cy="452.71" rx="55.951" ry="21.361"/>
<g>
	<path style="fill:#DC8744;" d="M406.389,435.503c-26.97,0-48.834,7.695-48.834,17.187c0,9.492,21.864,17.187,48.834,17.187   c26.97,0,48.834-7.695,48.834-17.187C455.222,443.197,433.359,435.503,406.389,435.503z M406.389,467.966   c-23.973,0-43.408-6.84-43.408-15.277c0-8.437,19.435-15.277,43.408-15.277c23.973,0,43.408,6.84,43.408,15.277   C449.796,461.126,430.362,467.966,406.389,467.966z"/>
	<path style="fill:#DC8744;" d="M404.6,464.562v-2.091c-7.438-0.267-14.114-1.308-20.022-3.121l5.941-2.492   c4.557,1.394,9.246,2.224,14.081,2.492v-5.557c-6.133-0.515-10.624-1.193-13.472-2.034s-4.272-2.086-4.272-3.738   c0-1.652,1.636-3.002,4.921-4.054c3.285-1.05,7.557-1.622,12.823-1.718v-1.432h5.206v1.46c5.968,0.154,11.611,0.87,16.929,2.149   l-5.292,2.635c-3.583-0.897-7.458-1.451-11.637-1.662v5.385h0.245c6.239,0.516,10.823,1.213,13.75,2.091   c2.934,0.879,4.398,2.154,4.398,3.824c0,1.671-1.682,3.033-5.047,4.082c-3.365,1.051-7.809,1.624-13.346,1.719v2.062H404.6z    M398.858,446.073c-1.384,0.429-2.073,0.964-2.073,1.604c0,0.64,0.543,1.146,1.629,1.518c1.08,0.373,3.146,0.731,6.186,1.075   v-4.956C402.156,445.39,400.242,445.643,398.858,446.073z M415.993,458.633c1.517-0.438,2.278-0.992,2.278-1.661   c0-0.668-0.596-1.198-1.788-1.59c-1.199-0.392-3.424-0.759-6.676-1.103v5.155C412.409,459.34,414.469,459.072,415.993,458.633z"/>
</g>
<path style="fill:#F6C358;" d="M462.342,448.942c0,11.796-25.051,21.359-55.954,21.359c-30.902,0-55.954-9.563-55.954-21.359V431.47  h111.908V448.942z"/>
<ellipse style="fill:#FCD462;" cx="406.38" cy="431.462" rx="55.951" ry="21.361"/>
<g>
	<path style="fill:#DC8744;" d="M406.389,414.283c-26.97,0-48.834,7.695-48.834,17.187s21.864,17.187,48.834,17.187   c26.97,0,48.834-7.695,48.834-17.187S433.359,414.283,406.389,414.283z M406.389,446.746c-23.973,0-43.408-6.84-43.408-15.277   s19.435-15.277,43.408-15.277c23.973,0,43.408,6.84,43.408,15.277S430.362,446.746,406.389,446.746z"/>
	<path style="fill:#DC8744;" d="M404.6,443.342v-2.091c-7.438-0.267-14.114-1.308-20.022-3.121l5.941-2.492   c4.557,1.394,9.246,2.224,14.081,2.492v-5.557c-6.133-0.515-10.624-1.193-13.472-2.034c-2.848-0.84-4.272-2.086-4.272-3.738   c0-1.652,1.636-3.002,4.921-4.054c3.285-1.05,7.557-1.622,12.823-1.718v-1.432h5.206v1.46c5.968,0.154,11.611,0.869,16.929,2.149   l-5.292,2.635c-3.583-0.897-7.458-1.451-11.637-1.662v5.385h0.245c6.239,0.516,10.823,1.213,13.75,2.091   c2.934,0.879,4.398,2.154,4.398,3.824c0,1.671-1.682,3.033-5.047,4.082c-3.365,1.051-7.809,1.624-13.346,1.719v2.062H404.6z    M398.858,424.854c-1.384,0.429-2.073,0.964-2.073,1.604s0.543,1.146,1.629,1.518c1.08,0.373,3.146,0.731,6.186,1.075v-4.956   C402.156,424.171,400.242,424.424,398.858,424.854z M415.993,437.413c1.517-0.438,2.278-0.992,2.278-1.661   c0-0.668-0.596-1.198-1.788-1.59c-1.199-0.392-3.424-0.759-6.676-1.103v5.155C412.409,438.121,414.469,437.853,415.993,437.413z"/>
</g>
<path style="fill:#F6C358;" d="M462.342,427.722c0,11.796-25.051,21.359-55.954,21.359c-30.902,0-55.954-9.563-55.954-21.359V410.25  h111.908V427.722z"/>
<ellipse style="fill:#FCD462;" cx="406.38" cy="410.266" rx="55.951" ry="21.361"/>
<g>
	<path style="fill:#DC8744;" d="M406.389,393.064c-26.97,0-48.834,7.695-48.834,17.187c0,9.492,21.864,17.187,48.834,17.187   c26.97,0,48.834-7.695,48.834-17.187C455.222,400.758,433.359,393.064,406.389,393.064z M406.389,425.527   c-23.973,0-43.408-6.84-43.408-15.277c0-8.437,19.435-15.277,43.408-15.277c23.973,0,43.408,6.84,43.408,15.277   C449.796,418.687,430.362,425.527,406.389,425.527z"/>
	<path style="fill:#DC8744;" d="M404.6,422.123v-2.091c-7.438-0.267-14.114-1.308-20.022-3.121l5.941-2.492   c4.557,1.394,9.246,2.224,14.081,2.492v-5.557c-6.133-0.515-10.624-1.193-13.472-2.034c-2.848-0.84-4.272-2.086-4.272-3.738   c0-1.652,1.636-3.002,4.921-4.054c3.285-1.05,7.557-1.622,12.823-1.718v-1.432h5.206v1.46c5.968,0.154,11.611,0.869,16.929,2.149   l-5.292,2.635c-3.583-0.897-7.458-1.451-11.637-1.662v5.385h0.245c6.239,0.516,10.823,1.213,13.75,2.091   c2.934,0.879,4.398,2.154,4.398,3.824c0,1.671-1.682,3.033-5.047,4.082c-3.365,1.051-7.809,1.624-13.346,1.719v2.062H404.6z    M398.858,403.634c-1.384,0.429-2.073,0.964-2.073,1.604s0.543,1.146,1.629,1.517c1.08,0.373,3.146,0.731,6.186,1.075v-4.956   C402.156,402.951,400.242,403.204,398.858,403.634z M415.993,416.194c1.517-0.438,2.278-0.992,2.278-1.661   c0-0.668-0.596-1.198-1.788-1.59c-1.199-0.392-3.424-0.759-6.676-1.103v5.155C412.409,416.901,414.469,416.633,415.993,416.194z"/>
</g>
<path style="fill:#F6C358;" d="M462.342,406.503c0,11.796-25.051,21.359-55.954,21.359c-30.902,0-55.954-9.563-55.954-21.359V389.03  h111.908V406.503z"/>
<ellipse style="fill:#FCD462;" cx="406.38" cy="389.033" rx="55.951" ry="21.361"/>
<g>
	<path style="fill:#DC8744;" d="M406.389,371.844c-26.97,0-48.834,7.695-48.834,17.187c0,9.492,21.864,17.187,48.834,17.187   c26.97,0,48.834-7.695,48.834-17.187C455.222,379.539,433.359,371.844,406.389,371.844z M406.389,404.307   c-23.973,0-43.408-6.84-43.408-15.277c0-8.437,19.435-15.277,43.408-15.277c23.973,0,43.408,6.84,43.408,15.277   C449.796,397.468,430.362,404.307,406.389,404.307z"/>
	<path style="fill:#DC8744;" d="M404.6,400.903v-2.091c-7.438-0.267-14.114-1.308-20.022-3.121l5.941-2.492   c4.557,1.394,9.246,2.224,14.081,2.492v-5.557c-6.133-0.515-10.624-1.193-13.472-2.034c-2.848-0.84-4.272-2.086-4.272-3.738   c0-1.652,1.636-3.002,4.921-4.054c3.285-1.05,7.557-1.622,12.823-1.718v-1.432h5.206v1.46c5.968,0.154,11.611,0.869,16.929,2.149   l-5.292,2.635c-3.583-0.897-7.458-1.451-11.637-1.662v5.385h0.245c6.239,0.516,10.823,1.213,13.75,2.091   c2.934,0.879,4.398,2.154,4.398,3.824c0,1.671-1.682,3.033-5.047,4.082c-3.365,1.051-7.809,1.624-13.346,1.719v2.062H404.6z    M398.858,382.414c-1.384,0.429-2.073,0.964-2.073,1.604c0,0.64,0.543,1.146,1.629,1.517c1.08,0.373,3.146,0.731,6.186,1.075   v-4.956C402.156,381.731,400.242,381.984,398.858,382.414z M415.993,394.974c1.517-0.438,2.278-0.992,2.278-1.661   c0-0.668-0.596-1.198-1.788-1.59c-1.199-0.392-3.424-0.759-6.676-1.103v5.155C412.409,395.681,414.469,395.413,415.993,394.974z"/>
</g>
<path style="fill:#F6C358;" d="M462.342,385.283c0,11.796-25.051,21.359-55.954,21.359c-30.902,0-55.954-9.563-55.954-21.359  v-17.472h111.908V385.283z"/>
<ellipse style="fill:#FCD462;" cx="406.38" cy="367.811" rx="55.951" ry="21.361"/>
<g>
	<path style="fill:#DC8744;" d="M406.389,350.624c-26.97,0-48.834,7.695-48.834,17.187c0,9.492,21.864,17.187,48.834,17.187   c26.97,0,48.834-7.695,48.834-17.187C455.222,358.319,433.359,350.624,406.389,350.624z M406.389,383.088   c-23.973,0-43.408-6.84-43.408-15.277c0-8.437,19.435-15.277,43.408-15.277c23.973,0,43.408,6.84,43.408,15.277   C449.796,376.248,430.362,383.088,406.389,383.088z"/>
	<path style="fill:#DC8744;" d="M404.6,379.683v-2.091c-7.438-0.267-14.114-1.308-20.022-3.121l5.941-2.492   c4.557,1.394,9.246,2.224,14.081,2.492v-5.557c-6.133-0.515-10.624-1.194-13.472-2.034c-2.848-0.84-4.272-2.086-4.272-3.738   c0-1.652,1.636-3.002,4.921-4.054c3.285-1.05,7.557-1.622,12.823-1.718v-1.432h5.206v1.46c5.968,0.154,11.611,0.87,16.929,2.149   l-5.292,2.635c-3.583-0.897-7.458-1.451-11.637-1.662v5.385h0.245c6.239,0.516,10.823,1.213,13.75,2.091   c2.934,0.879,4.398,2.154,4.398,3.824c0,1.671-1.682,3.033-5.047,4.082c-3.365,1.051-7.809,1.624-13.346,1.719v2.062H404.6z    M398.858,361.195c-1.384,0.429-2.073,0.964-2.073,1.604c0,0.64,0.543,1.146,1.629,1.518c1.08,0.373,3.146,0.731,6.186,1.075   v-4.956C402.156,360.512,400.242,360.765,398.858,361.195z M415.993,373.754c1.517-0.438,2.278-0.992,2.278-1.661   c0-0.668-0.596-1.198-1.788-1.59c-1.199-0.392-3.424-0.759-6.676-1.103v5.155C412.409,374.462,414.469,374.194,415.993,373.754z"/>
</g>
<ellipse style="fill:#FCD462;" cx="307.308" cy="435.61" rx="61.594" ry="55.921"/>
<g>
	<path style="fill:#DC8744;" d="M307.291,386.799c-29.688,0-53.754,21.85-53.754,48.803c0,26.953,24.067,48.803,53.754,48.803   c29.688,0,53.754-21.85,53.754-48.803C361.046,408.649,336.979,386.799,307.291,386.799z M307.291,478.981   c-26.389,0-47.782-19.422-47.782-43.38c0-23.958,21.393-43.38,47.782-43.38c26.389,0,47.782,19.422,47.782,43.38   C355.073,459.56,333.68,478.981,307.291,478.981z"/>
	<path style="fill:#DC8744;" d="M305.323,469.315v-5.937c-8.188-0.758-15.537-3.713-22.04-8.863l6.54-7.076   c5.016,3.958,10.178,6.315,15.5,7.076v-15.78c-6.751-1.463-11.694-3.389-14.829-5.775c-3.135-2.386-4.703-5.924-4.703-10.614   c0-4.69,1.801-8.525,5.417-11.511c3.616-2.982,8.319-4.607,14.115-4.878v-4.067h5.731v4.147c6.569,0.437,12.781,2.469,18.635,6.103   l-5.825,7.483c-3.944-2.548-8.209-4.12-12.81-4.719v15.29h0.27c6.868,1.466,11.913,3.445,15.136,5.937   c3.23,2.495,4.841,6.116,4.841,10.859c0,4.746-1.852,8.612-5.556,11.59c-3.704,2.985-8.596,4.61-14.691,4.882v5.855H305.323z    M299.002,416.815c-1.524,1.218-2.282,2.737-2.282,4.554s0.598,3.253,1.794,4.309c1.188,1.059,3.463,2.075,6.81,3.051v-14.072   C302.633,414.875,300.525,415.594,299.002,416.815z M317.863,452.479c1.67-1.244,2.508-2.816,2.508-4.716   c0-1.896-0.656-3.402-1.969-4.514c-1.32-1.112-3.769-2.155-7.349-3.131v14.638C313.919,454.488,316.186,453.727,317.863,452.479z"/>
</g>
<g>
</g>
<g>
</g>
<g>
</g>
<g>
</g>
<g>
</g>
<g>
</g>
<g>
</g>
<g>
</g>
<g>
</g>
<g>
</g>
<g>
</g>
<g>
</g>
<g>
</g>
<g>
</g>
<g>
</g>
</svg>
