<?xml version="1.0" encoding="iso-8859-1"?>
<!-- Generator: Adobe Illustrator 19.0.0, SVG Export Plug-In . SVG Version: 6.00 Build 0)  -->
<svg xmlns="http://www.w3.org/2000/svg" xmlns:xlink="http://www.w3.org/1999/xlink" version="1.1" id="Layer_1" x="0px" y="0px" viewBox="0 0 512.187 512.187" style="enable-background:new 0 0 512.187 512.187;" xml:space="preserve">
<path style="fill:#66C6B9;" d="M512.187,128c0,70.4-61.867,128-138.667,128c-3.2,0-7.467,0-10.667,0l-81.067,37.333V224  c-28.8-23.467-46.933-57.6-46.933-96c0-70.4,61.867-128,138.667-128S512.187,57.6,512.187,128z"/>
<path style="fill:#F3705A;" d="M295.653,334.933c-13.867,17.067-26.667,35.2-26.667,35.2c-18.133,18.133-61.867,5.333-98.133-29.867  c-35.2-36.267-48-78.933-29.867-98.133c0,0,18.133-11.733,35.2-26.667L27.92,68.267c0,1.067-1.067,2.133-2.133,2.133  C-32.88,129.067,11.92,269.867,126.053,386.133c116.267,114.133,256,158.933,315.733,100.267c1.067-1.067,1.067-1.067,2.133-2.133  L295.653,334.933z"/>
<g>
	<path style="fill:#E8EAE9;" d="M69.52,36.267c-12.8,0-35.2,25.6-43.733,35.2l0,0l148.267,148.267c16-12.8,32-28.8,32-40.533   C206.053,128,120.72,36.267,69.52,36.267z"/>
	<path style="fill:#E8EAE9;" d="M475.92,442.667c0,12.8-25.6,35.2-35.2,43.733l0,0l-147.2-148.267c12.8-16,28.8-32,40.533-32   C384.187,306.133,475.92,391.467,475.92,442.667z"/>
</g>
<path style="fill:#FFFFFF;" d="M416.187,129.067c-7.467-6.4-18.133-10.667-32-13.867V77.867c9.6,2.133,18.133,5.333,26.667,10.667  l12.8-18.133c-12.8-8.533-25.6-12.8-39.467-14.933V44.8H367.12v10.667c-11.733,1.067-21.333,5.333-29.867,11.733  C328.72,74.667,325.52,84.267,325.52,96s3.2,20.267,10.667,25.6c6.4,5.333,17.067,9.6,30.933,13.867v38.4  c-10.667-2.133-22.4-7.467-32-17.067l-14.933,18.133c13.867,11.733,29.867,19.2,46.933,21.333V211.2h17.067v-14.933  c12.8-1.067,22.4-5.333,30.933-11.733c8.533-7.467,12.8-17.067,12.8-28.8C426.853,144,423.653,135.467,416.187,129.067z   M367.12,109.867c-6.4-2.133-10.667-4.267-12.8-6.4c-3.2-2.133-4.267-6.4-4.267-10.667s2.133-8.533,5.333-11.733  c3.2-2.133,7.467-4.267,11.733-5.333L367.12,109.867L367.12,109.867z M396.987,169.6c-3.2,3.2-7.467,4.267-12.8,5.333v-35.2  c6.4,2.133,11.733,4.267,13.867,7.467c3.2,3.2,4.267,6.4,4.267,10.667C402.32,162.133,400.187,166.4,396.987,169.6z"/>
<g>
</g>
<g>
</g>
<g>
</g>
<g>
</g>
<g>
</g>
<g>
</g>
<g>
</g>
<g>
</g>
<g>
</g>
<g>
</g>
<g>
</g>
<g>
</g>
<g>
</g>
<g>
</g>
<g>
</g>
</svg>
