<?xml version="1.0" encoding="iso-8859-1"?>
<!-- Generator: Adobe Illustrator 19.0.0, SVG Export Plug-In . SVG Version: 6.00 Build 0)  -->
<svg xmlns="http://www.w3.org/2000/svg" xmlns:xlink="http://www.w3.org/1999/xlink" version="1.1" id="Layer_1" x="0px" y="0px" viewBox="0 0 512 512" style="enable-background:new 0 0 512 512;" xml:space="preserve">
<polygon style="fill:#CED6E0;" points="444.8,336 67.2,336 0,414.933 512,414.933 "/>
<polygon style="fill:#ADB3BA;" points="197.333,393.6 227.2,357.333 284.8,357.333 314.667,393.6 "/>
<path style="fill:#415A6B;" d="M88.533,61.867h334.933c11.733,0,21.333,9.6,21.333,21.333V336H67.2V83.2  C67.2,71.467,76.8,61.867,88.533,61.867z"/>
<rect x="93.867" y="88.533" style="fill:#8AD7F8;" width="324.267" height="220.8"/>
<path style="fill:#ADB3BA;" d="M512,414.933H0l0,0c0,19.2,16,35.2,35.2,35.2h441.6C496,450.133,512,434.133,512,414.933L512,414.933  z"/>
<path style="fill:#FFFFFF;" d="M343.467,262.4c-57.6,12.8-116.267,12.8-173.867,0c-17.067-41.6-17.067-84.267,0-125.867  c57.6-12.8,116.267-12.8,173.867,0C360.533,178.133,360.533,219.733,343.467,262.4z"/>
<path style="fill:#F3705A;" d="M227.2,169.6v58.667c0,6.4,7.467,9.6,12.8,6.4l38.4-28.8c4.267-3.2,4.267-9.6,0-11.733l-38.4-28.8  C234.667,160,227.2,163.2,227.2,169.6z"/>
<g>
</g>
<g>
</g>
<g>
</g>
<g>
</g>
<g>
</g>
<g>
</g>
<g>
</g>
<g>
</g>
<g>
</g>
<g>
</g>
<g>
</g>
<g>
</g>
<g>
</g>
<g>
</g>
<g>
</g>
</svg>
