<?xml version="1.0" encoding="iso-8859-1"?>
<!-- Generator: Adobe Illustrator 19.0.0, SVG Export Plug-In . SVG Version: 6.00 Build 0)  -->
<svg xmlns="http://www.w3.org/2000/svg" xmlns:xlink="http://www.w3.org/1999/xlink" version="1.1" id="Layer_1" x="0px" y="0px" viewBox="0 0 491.52 491.52" style="enable-background:new 0 0 491.52 491.52;" xml:space="preserve">
<path style="fill:#F6C358;" d="M491.52,458.288c0,18.353-35.387,33.232-79.039,33.232s-79.039-14.878-79.039-33.232v-27.185H491.52  V458.288z"/>
<ellipse style="fill:#FCD462;" cx="412.467" cy="431.104" rx="79.037" ry="33.234"/>
<g>
	<path style="fill:#DC8744;" d="M412.481,404.363c-38.097,0-68.981,11.972-68.981,26.74c0,14.768,30.884,26.74,68.981,26.74   c38.097,0,68.981-11.972,68.981-26.74C481.462,416.335,450.578,404.363,412.481,404.363z M412.481,454.873   c-33.863,0-61.316-10.642-61.316-23.769c0-13.127,27.453-23.769,61.316-23.769c33.863,0,61.316,10.642,61.316,23.769   C473.797,444.231,446.345,454.873,412.481,454.873z"/>
	<path style="fill:#DC8744;" d="M409.955,449.576v-3.253c-10.507-0.415-19.938-2.035-28.283-4.856l8.392-3.877   c6.437,2.169,13.061,3.46,19.891,3.877v-8.646c-8.664-0.802-15.007-1.857-19.03-3.164c-4.023-1.307-6.035-3.246-6.035-5.816   c0-2.57,2.311-4.671,6.951-6.307c4.641-1.634,10.675-2.524,18.113-2.673v-2.229h7.354v2.272c8.43,0.239,16.401,1.353,23.914,3.344   l-7.475,4.1c-5.062-1.396-10.535-2.258-16.438-2.586v8.378h0.346c8.813,0.803,15.288,1.888,19.423,3.253   c4.145,1.367,6.212,3.351,6.212,5.95c0,2.6-2.376,4.719-7.129,6.351c-4.753,1.636-11.031,2.526-18.852,2.675v3.208H409.955z    M401.844,420.81c-1.955,0.667-2.928,1.5-2.928,2.495c0,0.996,0.767,1.783,2.302,2.361c1.525,0.58,4.444,1.137,8.738,1.672v-7.711   C406.503,419.747,403.799,420.14,401.844,420.81z M426.048,440.351c2.142-0.682,3.218-1.543,3.218-2.584   c0-1.039-0.842-1.864-2.526-2.473c-1.693-0.609-4.837-1.181-9.431-1.715v8.021C420.986,441.452,423.896,441.035,426.048,440.351z"/>
</g>
<path style="fill:#F6C358;" d="M491.52,425.273c0,18.353-35.387,33.232-79.039,33.232s-79.039-14.878-79.039-33.232v-27.185H491.52  V425.273z"/>
<ellipse style="fill:#FCD462;" cx="412.467" cy="398.08" rx="79.037" ry="33.234"/>
<g>
	<path style="fill:#DC8744;" d="M412.481,371.348c-38.097,0-68.981,11.972-68.981,26.74c0,14.768,30.884,26.74,68.981,26.74   c38.097,0,68.981-11.972,68.981-26.74C481.462,383.32,450.578,371.348,412.481,371.348z M412.481,421.857   c-33.863,0-61.316-10.642-61.316-23.769c0-13.127,27.453-23.769,61.316-23.769c33.863,0,61.316,10.642,61.316,23.769   C473.797,411.215,446.345,421.857,412.481,421.857z"/>
	<path style="fill:#DC8744;" d="M409.955,416.56v-3.253c-10.507-0.415-19.938-2.035-28.283-4.856l8.392-3.877   c6.437,2.169,13.061,3.46,19.891,3.877v-8.646c-8.664-0.802-15.007-1.857-19.03-3.164c-4.023-1.307-6.035-3.246-6.035-5.816   c0-2.57,2.311-4.671,6.951-6.307c4.641-1.634,10.675-2.524,18.113-2.673v-2.229h7.354v2.272c8.43,0.239,16.401,1.353,23.914,3.344   l-7.475,4.1c-5.062-1.396-10.535-2.258-16.438-2.586v8.378h0.346c8.813,0.803,15.288,1.888,19.423,3.253   c4.145,1.367,6.212,3.351,6.212,5.95c0,2.6-2.376,4.719-7.129,6.351c-4.753,1.636-11.031,2.526-18.852,2.675v3.208H409.955z    M401.844,387.794c-1.955,0.667-2.928,1.5-2.928,2.495c0,0.996,0.767,1.783,2.302,2.361c1.525,0.58,4.444,1.137,8.738,1.672v-7.711   C406.503,386.731,403.799,387.125,401.844,387.794z M426.048,407.336c2.142-0.682,3.218-1.543,3.218-2.584   c0-1.039-0.842-1.864-2.526-2.474c-1.693-0.609-4.837-1.181-9.431-1.716v8.021C420.986,408.436,423.896,408.019,426.048,407.336z"/>
</g>
<path style="fill:#F6C358;" d="M491.52,392.257c0,18.353-35.387,33.232-79.039,33.232s-79.039-14.878-79.039-33.232v-27.185H491.52  V392.257z"/>
<ellipse style="fill:#FCD462;" cx="412.467" cy="365.056" rx="79.037" ry="33.234"/>
<g>
	<path style="fill:#DC8744;" d="M412.481,338.332c-38.097,0-68.981,11.972-68.981,26.74c0,14.768,30.884,26.74,68.981,26.74   c38.097,0,68.981-11.972,68.981-26.74C481.462,350.304,450.578,338.332,412.481,338.332z M412.481,388.842   c-33.863,0-61.316-10.642-61.316-23.769c0-13.127,27.453-23.769,61.316-23.769c33.863,0,61.316,10.642,61.316,23.769   C473.797,378.2,446.345,388.842,412.481,388.842z"/>
	<path style="fill:#DC8744;" d="M409.955,383.545v-3.253c-10.507-0.415-19.938-2.035-28.283-4.856l8.392-3.877   c6.437,2.169,13.061,3.46,19.891,3.877v-8.646c-8.664-0.802-15.007-1.857-19.03-3.164c-4.023-1.307-6.035-3.246-6.035-5.816   c0-2.57,2.311-4.671,6.951-6.307c4.641-1.634,10.675-2.524,18.113-2.673V346.6h7.354v2.272c8.43,0.239,16.401,1.353,23.914,3.344   l-7.475,4.1c-5.062-1.396-10.535-2.258-16.438-2.586v8.378h0.346c8.813,0.803,15.288,1.888,19.423,3.253   c4.145,1.367,6.212,3.351,6.212,5.95c0,2.6-2.376,4.719-7.129,6.351c-4.753,1.636-11.031,2.526-18.852,2.675v3.208H409.955z    M401.844,354.779c-1.955,0.667-2.928,1.5-2.928,2.495c0,0.996,0.767,1.783,2.302,2.361c1.525,0.58,4.444,1.137,8.738,1.672v-7.711   C406.503,353.716,403.799,354.109,401.844,354.779z M426.048,374.32c2.142-0.682,3.218-1.543,3.218-2.584   c0-1.039-0.842-1.864-2.526-2.474c-1.693-0.609-4.837-1.181-9.431-1.716v8.021C420.986,375.421,423.896,375.004,426.048,374.32z"/>
</g>
<path style="fill:#F6C358;" d="M491.52,359.242c0,18.353-35.387,33.232-79.039,33.232s-79.039-14.878-79.039-33.232v-27.185H491.52  V359.242z"/>
<ellipse style="fill:#FCD462;" cx="412.467" cy="332.058" rx="79.037" ry="33.234"/>
<g>
	<path style="fill:#DC8744;" d="M412.481,305.317c-38.097,0-68.981,11.972-68.981,26.74c0,14.768,30.884,26.74,68.981,26.74   c38.097,0,68.981-11.972,68.981-26.74C481.462,317.289,450.578,305.317,412.481,305.317z M412.481,355.826   c-33.863,0-61.316-10.642-61.316-23.769c0-13.127,27.453-23.769,61.316-23.769c33.863,0,61.316,10.642,61.316,23.769   C473.797,345.184,446.345,355.826,412.481,355.826z"/>
	<path style="fill:#DC8744;" d="M409.955,350.529v-3.253c-10.507-0.415-19.938-2.035-28.283-4.856l8.392-3.877   c6.437,2.169,13.061,3.46,19.891,3.877v-8.646c-8.664-0.802-15.007-1.857-19.03-3.164c-4.023-1.307-6.035-3.246-6.035-5.816   s2.311-4.671,6.951-6.307c4.641-1.634,10.675-2.524,18.113-2.673v-2.229h7.354v2.272c8.43,0.239,16.401,1.353,23.914,3.344   l-7.475,4.1c-5.062-1.396-10.535-2.258-16.438-2.586v8.378h0.346c8.813,0.803,15.288,1.888,19.423,3.253   c4.145,1.367,6.212,3.351,6.212,5.95c0,2.6-2.376,4.719-7.129,6.351c-4.753,1.636-11.031,2.526-18.852,2.675v3.208H409.955z    M401.844,321.763c-1.955,0.667-2.928,1.5-2.928,2.495s0.767,1.783,2.302,2.361c1.525,0.58,4.444,1.137,8.738,1.672v-7.711   C406.503,320.7,403.799,321.094,401.844,321.763z M426.048,341.305c2.142-0.682,3.218-1.543,3.218-2.584   c0-1.039-0.842-1.864-2.526-2.474c-1.693-0.609-4.837-1.181-9.431-1.716v8.021C420.986,342.405,423.896,341.988,426.048,341.305z"/>
</g>
<path style="fill:#F6C358;" d="M491.52,326.226c0,18.353-35.387,33.232-79.039,33.232s-79.039-14.878-79.039-33.232v-27.185H491.52  V326.226z"/>
<ellipse style="fill:#FCD462;" cx="412.467" cy="299.059" rx="79.037" ry="33.234"/>
<g>
	<path style="fill:#DC8744;" d="M412.481,272.301c-38.097,0-68.981,11.972-68.981,26.74c0,14.768,30.884,26.74,68.981,26.74   c38.097,0,68.981-11.972,68.981-26.74C481.462,284.273,450.578,272.301,412.481,272.301z M412.481,322.811   c-33.863,0-61.316-10.642-61.316-23.769c0-13.127,27.453-23.769,61.316-23.769c33.863,0,61.316,10.642,61.316,23.769   C473.797,312.169,446.345,322.811,412.481,322.811z"/>
	<path style="fill:#DC8744;" d="M409.955,317.514v-3.253c-10.507-0.415-19.938-2.035-28.283-4.856l8.392-3.877   c6.437,2.169,13.061,3.46,19.891,3.877v-8.646c-8.664-0.802-15.007-1.857-19.03-3.164c-4.023-1.307-6.035-3.246-6.035-5.816   c0-2.57,2.311-4.671,6.951-6.307c4.641-1.634,10.675-2.524,18.113-2.673v-2.229h7.354v2.272c8.43,0.239,16.401,1.353,23.914,3.344   l-7.475,4.1c-5.062-1.396-10.535-2.258-16.438-2.586v8.378h0.346c8.813,0.803,15.288,1.888,19.423,3.253   c4.145,1.367,6.212,3.351,6.212,5.95c0,2.6-2.376,4.719-7.129,6.351c-4.753,1.636-11.031,2.526-18.852,2.675v3.208H409.955z    M401.844,288.748c-1.955,0.667-2.928,1.5-2.928,2.495s0.767,1.783,2.302,2.361c1.525,0.58,4.444,1.137,8.738,1.672v-7.711   C406.503,287.685,403.799,288.078,401.844,288.748z M426.048,308.289c2.142-0.682,3.218-1.543,3.218-2.584   c0-1.039-0.842-1.864-2.526-2.474c-1.693-0.609-4.837-1.181-9.431-1.716v8.021C420.986,309.39,423.896,308.973,426.048,308.289z"/>
</g>
<path style="fill:#F6C358;" d="M491.52,293.211c0,18.353-35.387,33.232-79.039,33.232s-79.039-14.878-79.039-33.232v-27.185H491.52  V293.211z"/>
<ellipse style="fill:#FCD462;" cx="412.467" cy="266.025" rx="79.037" ry="33.234"/>
<g>
	<path style="fill:#DC8744;" d="M412.481,239.286c-38.097,0-68.981,11.972-68.981,26.74c0,14.768,30.884,26.74,68.981,26.74   c38.097,0,68.981-11.972,68.981-26.74C481.462,251.258,450.578,239.286,412.481,239.286z M412.481,289.795   c-33.863,0-61.316-10.642-61.316-23.769c0-13.127,27.453-23.769,61.316-23.769c33.863,0,61.316,10.642,61.316,23.769   C473.797,279.153,446.345,289.795,412.481,289.795z"/>
	<path style="fill:#DC8744;" d="M409.955,284.498v-3.253c-10.507-0.415-19.938-2.035-28.283-4.856l8.392-3.877   c6.437,2.169,13.061,3.46,19.891,3.877v-8.646c-8.664-0.802-15.007-1.857-19.03-3.164c-4.023-1.307-6.035-3.246-6.035-5.816   c0-2.57,2.311-4.671,6.951-6.307c4.641-1.634,10.675-2.524,18.113-2.673v-2.229h7.354v2.272c8.43,0.239,16.401,1.353,23.914,3.344   l-7.475,4.1c-5.062-1.396-10.535-2.258-16.438-2.586v8.378h0.346c8.813,0.803,15.288,1.888,19.423,3.253   c4.145,1.367,6.212,3.351,6.212,5.95c0,2.6-2.376,4.719-7.129,6.351c-4.753,1.636-11.031,2.526-18.852,2.675v3.208H409.955z    M401.844,255.732c-1.955,0.667-2.928,1.5-2.928,2.495s0.767,1.783,2.302,2.361c1.525,0.58,4.444,1.137,8.738,1.672v-7.711   C406.503,254.669,403.799,255.063,401.844,255.732z M426.048,275.274c2.142-0.682,3.218-1.543,3.218-2.584   c0-1.039-0.842-1.864-2.526-2.474c-1.693-0.609-4.837-1.181-9.431-1.715v8.021C420.986,276.374,423.896,275.957,426.048,275.274z"/>
</g>
<path style="fill:#F6C358;" d="M491.52,260.195c0,18.353-35.387,33.232-79.039,33.232s-79.039-14.878-79.039-33.232v-27.185H491.52  V260.195z"/>
<ellipse style="fill:#FCD462;" cx="412.467" cy="233.011" rx="79.037" ry="33.234"/>
<g>
	<path style="fill:#DC8744;" d="M412.481,206.27c-38.097,0-68.981,11.972-68.981,26.74c0,14.768,30.884,26.74,68.981,26.74   c38.097,0,68.981-11.972,68.981-26.74C481.462,218.242,450.578,206.27,412.481,206.27z M412.481,256.78   c-33.863,0-61.316-10.642-61.316-23.769c0-13.127,27.453-23.769,61.316-23.769c33.863,0,61.316,10.642,61.316,23.769   C473.797,246.138,446.345,256.78,412.481,256.78z"/>
	<path style="fill:#DC8744;" d="M409.955,251.483v-3.253c-10.507-0.415-19.938-2.035-28.283-4.856l8.392-3.877   c6.437,2.169,13.061,3.46,19.891,3.877v-8.646c-8.664-0.802-15.007-1.857-19.03-3.164c-4.023-1.307-6.035-3.246-6.035-5.816   c0-2.57,2.311-4.671,6.951-6.307c4.641-1.634,10.675-2.524,18.113-2.673v-2.229h7.354v2.272c8.43,0.239,16.401,1.353,23.914,3.344   l-7.475,4.1c-5.062-1.396-10.535-2.258-16.438-2.586v8.378h0.346c8.813,0.803,15.288,1.888,19.423,3.253   c4.145,1.367,6.212,3.351,6.212,5.95c0,2.6-2.376,4.719-7.129,6.351c-4.753,1.636-11.031,2.526-18.852,2.675v3.208H409.955z    M401.844,222.717c-1.955,0.667-2.928,1.5-2.928,2.495s0.767,1.783,2.302,2.361c1.525,0.58,4.444,1.137,8.738,1.672v-7.711   C406.503,221.654,403.799,222.047,401.844,222.717z M426.048,242.258c2.142-0.682,3.218-1.543,3.218-2.584   c0-1.039-0.842-1.864-2.526-2.474c-1.693-0.609-4.837-1.181-9.431-1.715v8.021C420.986,243.359,423.896,242.942,426.048,242.258z"/>
</g>
<path style="fill:#F6C358;" d="M491.52,227.18c0,18.353-35.387,33.232-79.039,33.232s-79.039-14.878-79.039-33.232v-27.185H491.52  V227.18z"/>
<ellipse style="fill:#FCD462;" cx="412.467" cy="199.987" rx="79.037" ry="33.234"/>
<g>
	<path style="fill:#DC8744;" d="M412.481,173.255c-38.097,0-68.981,11.972-68.981,26.74c0,14.768,30.884,26.74,68.981,26.74   c38.097,0,68.981-11.972,68.981-26.74C481.462,185.227,450.578,173.255,412.481,173.255z M412.481,223.764   c-33.863,0-61.316-10.642-61.316-23.769c0-13.127,27.453-23.769,61.316-23.769c33.863,0,61.316,10.642,61.316,23.769   C473.797,213.122,446.345,223.764,412.481,223.764z"/>
	<path style="fill:#DC8744;" d="M409.955,218.467v-3.253c-10.507-0.415-19.938-2.035-28.283-4.856l8.392-3.877   c6.437,2.169,13.061,3.46,19.891,3.877v-8.646c-8.664-0.802-15.007-1.857-19.03-3.164c-4.023-1.307-6.035-3.246-6.035-5.816   c0-2.57,2.311-4.671,6.951-6.307c4.641-1.634,10.675-2.524,18.113-2.673v-2.229h7.354v2.272c8.43,0.239,16.401,1.353,23.914,3.344   l-7.475,4.1c-5.062-1.396-10.535-2.258-16.438-2.586v8.378h0.346c8.813,0.803,15.288,1.888,19.423,3.253   c4.145,1.367,6.212,3.351,6.212,5.95c0,2.6-2.376,4.719-7.129,6.351c-4.753,1.636-11.031,2.526-18.852,2.675v3.208H409.955z    M401.844,189.701c-1.955,0.667-2.928,1.5-2.928,2.495c0,0.996,0.767,1.783,2.302,2.361c1.525,0.58,4.444,1.137,8.738,1.672v-7.711   C406.503,188.638,403.799,189.032,401.844,189.701z M426.048,209.243c2.142-0.682,3.218-1.543,3.218-2.584   c0-1.039-0.842-1.864-2.526-2.473c-1.693-0.609-4.837-1.181-9.431-1.715v8.021C420.986,210.343,423.896,209.926,426.048,209.243z"/>
</g>
<path style="fill:#F6C358;" d="M324.799,458.288c0,18.353-35.387,33.232-79.039,33.232s-79.039-14.878-79.039-33.232v-27.185  h158.077V458.288z"/>
<ellipse style="fill:#FCD462;" cx="245.76" cy="431.104" rx="79.037" ry="33.234"/>
<g>
	<path style="fill:#DC8744;" d="M245.76,404.363c-38.097,0-68.981,11.972-68.981,26.74c0,14.768,30.884,26.74,68.981,26.74   s68.981-11.972,68.981-26.74C314.741,416.335,283.857,404.363,245.76,404.363z M245.76,454.873   c-33.863,0-61.316-10.642-61.316-23.769c0-13.127,27.453-23.769,61.316-23.769s61.316,10.642,61.316,23.769   C307.076,444.231,279.623,454.873,245.76,454.873z"/>
	<path style="fill:#DC8744;" d="M243.234,449.576v-3.253c-10.507-0.415-19.938-2.035-28.283-4.856l8.392-3.877   c6.437,2.169,13.061,3.46,19.891,3.877v-8.646c-8.664-0.802-15.007-1.857-19.03-3.164c-4.023-1.307-6.035-3.246-6.035-5.816   c0-2.57,2.311-4.671,6.951-6.307c4.641-1.634,10.675-2.524,18.113-2.673v-2.229h7.354v2.272c8.43,0.239,16.401,1.353,23.914,3.344   l-7.475,4.1c-5.062-1.396-10.535-2.258-16.438-2.586v8.378h0.346c8.813,0.803,15.288,1.888,19.423,3.253   c4.145,1.367,6.212,3.351,6.212,5.95c0,2.6-2.376,4.719-7.129,6.351c-4.753,1.636-11.031,2.526-18.852,2.675v3.208H243.234z    M235.122,420.81c-1.955,0.667-2.928,1.5-2.928,2.495c0,0.996,0.767,1.783,2.302,2.361c1.525,0.58,4.444,1.137,8.738,1.672v-7.711   C239.782,419.747,237.078,420.14,235.122,420.81z M259.326,440.351c2.143-0.682,3.218-1.543,3.218-2.584   c0-1.039-0.842-1.864-2.526-2.473c-1.693-0.609-4.837-1.181-9.431-1.715v8.021C254.265,441.452,257.174,441.035,259.326,440.351z"/>
</g>
<path style="fill:#F6C358;" d="M324.799,425.273c0,18.353-35.387,33.232-79.039,33.232s-79.039-14.878-79.039-33.232v-27.185  h158.077V425.273z"/>
<ellipse style="fill:#FCD462;" cx="245.76" cy="398.08" rx="79.037" ry="33.234"/>
<g>
	<path style="fill:#DC8744;" d="M245.76,371.348c-38.097,0-68.981,11.972-68.981,26.74c0,14.768,30.884,26.74,68.981,26.74   s68.981-11.972,68.981-26.74C314.741,383.32,283.857,371.348,245.76,371.348z M245.76,421.857   c-33.863,0-61.316-10.642-61.316-23.769c0-13.127,27.453-23.769,61.316-23.769s61.316,10.642,61.316,23.769   C307.076,411.215,279.623,421.857,245.76,421.857z"/>
	<path style="fill:#DC8744;" d="M243.234,416.56v-3.253c-10.507-0.415-19.938-2.035-28.283-4.856l8.392-3.877   c6.437,2.169,13.061,3.46,19.891,3.877v-8.646c-8.664-0.802-15.007-1.857-19.03-3.164c-4.023-1.307-6.035-3.246-6.035-5.816   c0-2.57,2.311-4.671,6.951-6.307c4.641-1.634,10.675-2.524,18.113-2.673v-2.229h7.354v2.272c8.43,0.239,16.401,1.353,23.914,3.344   l-7.475,4.1c-5.062-1.396-10.535-2.258-16.438-2.586v8.378h0.346c8.813,0.803,15.288,1.888,19.423,3.253   c4.145,1.367,6.212,3.351,6.212,5.95c0,2.6-2.376,4.719-7.129,6.351c-4.753,1.636-11.031,2.526-18.852,2.675v3.208H243.234z    M235.122,387.794c-1.955,0.667-2.928,1.5-2.928,2.495c0,0.996,0.767,1.783,2.302,2.361c1.525,0.58,4.444,1.137,8.738,1.672v-7.711   C239.782,386.731,237.078,387.125,235.122,387.794z M259.326,407.336c2.143-0.682,3.218-1.543,3.218-2.584   c0-1.039-0.842-1.864-2.526-2.474c-1.693-0.609-4.837-1.181-9.431-1.716v8.021C254.265,408.436,257.174,408.019,259.326,407.336z"/>
</g>
<path style="fill:#F6C358;" d="M324.799,392.257c0,18.353-35.387,33.232-79.039,33.232s-79.039-14.878-79.039-33.232v-27.185  h158.077V392.257z"/>
<ellipse style="fill:#FCD462;" cx="245.76" cy="365.056" rx="79.037" ry="33.234"/>
<g>
	<path style="fill:#DC8744;" d="M245.76,338.332c-38.097,0-68.981,11.972-68.981,26.74c0,14.768,30.884,26.74,68.981,26.74   s68.981-11.972,68.981-26.74C314.741,350.304,283.857,338.332,245.76,338.332z M245.76,388.842   c-33.863,0-61.316-10.642-61.316-23.769c0-13.127,27.453-23.769,61.316-23.769s61.316,10.642,61.316,23.769   C307.076,378.2,279.623,388.842,245.76,388.842z"/>
	<path style="fill:#DC8744;" d="M243.234,383.545v-3.253c-10.507-0.415-19.938-2.035-28.283-4.856l8.392-3.877   c6.437,2.169,13.061,3.46,19.891,3.877v-8.646c-8.664-0.802-15.007-1.857-19.03-3.164c-4.023-1.307-6.035-3.246-6.035-5.816   c0-2.57,2.311-4.671,6.951-6.307c4.641-1.634,10.675-2.524,18.113-2.673V346.6h7.354v2.272c8.43,0.239,16.401,1.353,23.914,3.344   l-7.475,4.1c-5.062-1.396-10.535-2.258-16.438-2.586v8.378h0.346c8.813,0.803,15.288,1.888,19.423,3.253   c4.145,1.367,6.212,3.351,6.212,5.95c0,2.6-2.376,4.719-7.129,6.351c-4.753,1.636-11.031,2.526-18.852,2.675v3.208H243.234z    M235.122,354.779c-1.955,0.667-2.928,1.5-2.928,2.495c0,0.996,0.767,1.783,2.302,2.361c1.525,0.58,4.444,1.137,8.738,1.672v-7.711   C239.782,353.716,237.078,354.109,235.122,354.779z M259.326,374.32c2.143-0.682,3.218-1.543,3.218-2.584   c0-1.039-0.842-1.864-2.526-2.474c-1.693-0.609-4.837-1.181-9.431-1.716v8.021C254.265,375.421,257.174,375.004,259.326,374.32z"/>
</g>
<path style="fill:#F6C358;" d="M324.799,359.242c0,18.353-35.387,33.232-79.039,33.232s-79.039-14.878-79.039-33.232v-27.185  h158.077V359.242z"/>
<ellipse style="fill:#FCD462;" cx="245.76" cy="332.058" rx="79.037" ry="33.234"/>
<g>
	<path style="fill:#DC8744;" d="M245.76,305.317c-38.097,0-68.981,11.972-68.981,26.74c0,14.768,30.884,26.74,68.981,26.74   s68.981-11.972,68.981-26.74C314.741,317.289,283.857,305.317,245.76,305.317z M245.76,355.826   c-33.863,0-61.316-10.642-61.316-23.769c0-13.127,27.453-23.769,61.316-23.769s61.316,10.642,61.316,23.769   C307.076,345.184,279.623,355.826,245.76,355.826z"/>
	<path style="fill:#DC8744;" d="M243.234,350.529v-3.253c-10.507-0.415-19.938-2.035-28.283-4.856l8.392-3.877   c6.437,2.169,13.061,3.46,19.891,3.877v-8.646c-8.664-0.802-15.007-1.857-19.03-3.164c-4.023-1.307-6.035-3.246-6.035-5.816   s2.311-4.671,6.951-6.307c4.641-1.634,10.675-2.524,18.113-2.673v-2.229h7.354v2.272c8.43,0.239,16.401,1.353,23.914,3.344   l-7.475,4.1c-5.062-1.396-10.535-2.258-16.438-2.586v8.378h0.346c8.813,0.803,15.288,1.888,19.423,3.253   c4.145,1.367,6.212,3.351,6.212,5.95c0,2.6-2.376,4.719-7.129,6.351c-4.753,1.636-11.031,2.526-18.852,2.675v3.208H243.234z    M235.122,321.763c-1.955,0.667-2.928,1.5-2.928,2.495s0.767,1.783,2.302,2.361c1.525,0.58,4.444,1.137,8.738,1.672v-7.711   C239.782,320.7,237.078,321.094,235.122,321.763z M259.326,341.305c2.143-0.682,3.218-1.543,3.218-2.584   c0-1.039-0.842-1.864-2.526-2.474c-1.693-0.609-4.837-1.181-9.431-1.716v8.021C254.265,342.405,257.174,341.988,259.326,341.305z"/>
</g>
<path style="fill:#F6C358;" d="M324.799,326.226c0,18.353-35.387,33.232-79.039,33.232s-79.039-14.878-79.039-33.232v-27.185  h158.077V326.226z"/>
<ellipse style="fill:#FCD462;" cx="245.76" cy="299.059" rx="79.037" ry="33.234"/>
<g>
	<path style="fill:#DC8744;" d="M245.76,272.301c-38.097,0-68.981,11.972-68.981,26.74c0,14.768,30.884,26.74,68.981,26.74   s68.981-11.972,68.981-26.74C314.741,284.273,283.857,272.301,245.76,272.301z M245.76,322.811   c-33.863,0-61.316-10.642-61.316-23.769c0-13.127,27.453-23.769,61.316-23.769s61.316,10.642,61.316,23.769   C307.076,312.169,279.623,322.811,245.76,322.811z"/>
	<path style="fill:#DC8744;" d="M243.234,317.514v-3.253c-10.507-0.415-19.938-2.035-28.283-4.856l8.392-3.877   c6.437,2.169,13.061,3.46,19.891,3.877v-8.646c-8.664-0.802-15.007-1.857-19.03-3.164c-4.023-1.307-6.035-3.246-6.035-5.816   c0-2.57,2.311-4.671,6.951-6.307c4.641-1.634,10.675-2.524,18.113-2.673v-2.229h7.354v2.272c8.43,0.239,16.401,1.353,23.914,3.344   l-7.475,4.1c-5.062-1.396-10.535-2.258-16.438-2.586v8.378h0.346c8.813,0.803,15.288,1.888,19.423,3.253   c4.145,1.367,6.212,3.351,6.212,5.95c0,2.6-2.376,4.719-7.129,6.351c-4.753,1.636-11.031,2.526-18.852,2.675v3.208H243.234z    M235.122,288.748c-1.955,0.667-2.928,1.5-2.928,2.495s0.767,1.783,2.302,2.361c1.525,0.58,4.444,1.137,8.738,1.672v-7.711   C239.782,287.685,237.078,288.078,235.122,288.748z M259.326,308.289c2.143-0.682,3.218-1.543,3.218-2.584   c0-1.039-0.842-1.864-2.526-2.474c-1.693-0.609-4.837-1.181-9.431-1.716v8.021C254.265,309.39,257.174,308.973,259.326,308.289z"/>
</g>
<path style="fill:#F6C358;" d="M158.077,458.288c0,18.353-35.387,33.232-79.039,33.232S0,476.642,0,458.288v-27.185h158.077V458.288  z"/>
<ellipse style="fill:#FCD462;" cx="79.037" cy="431.104" rx="79.037" ry="33.234"/>
<g>
	<path style="fill:#DC8744;" d="M79.039,404.363c-38.097,0-68.981,11.972-68.981,26.74c0,14.768,30.884,26.74,68.981,26.74   s68.981-11.972,68.981-26.74C148.019,416.335,117.135,404.363,79.039,404.363z M79.039,454.873   c-33.863,0-61.316-10.642-61.316-23.769c0-13.127,27.453-23.769,61.316-23.769s61.316,10.642,61.316,23.769   C140.355,444.231,112.902,454.873,79.039,454.873z"/>
	<path style="fill:#DC8744;" d="M76.512,449.576v-3.253c-10.507-0.415-19.938-2.035-28.283-4.856l8.392-3.877   c6.437,2.169,13.061,3.46,19.891,3.877v-8.646c-8.664-0.802-15.007-1.857-19.03-3.164c-4.023-1.307-6.035-3.246-6.035-5.816   c0-2.57,2.311-4.671,6.951-6.307c4.641-1.634,10.675-2.524,18.113-2.673v-2.229h7.354v2.272c8.43,0.239,16.401,1.353,23.914,3.344   l-7.475,4.1c-5.062-1.396-10.535-2.258-16.438-2.586v8.378h0.346c8.813,0.803,15.288,1.888,19.423,3.253   c4.145,1.367,6.212,3.351,6.212,5.95c0,2.6-2.376,4.719-7.129,6.351c-4.753,1.636-11.031,2.526-18.852,2.675v3.208H76.512z    M68.401,420.81c-1.955,0.667-2.928,1.5-2.928,2.495c0,0.996,0.767,1.783,2.302,2.361c1.525,0.58,4.444,1.137,8.738,1.672v-7.711   C73.06,419.747,70.356,420.14,68.401,420.81z M92.605,440.351c2.143-0.682,3.218-1.543,3.218-2.584   c0-1.039-0.842-1.864-2.526-2.473c-1.693-0.609-4.837-1.181-9.431-1.715v8.021C87.543,441.452,90.453,441.035,92.605,440.351z"/>
</g>
<path style="fill:#F6C358;" d="M158.077,425.273c0,18.353-35.387,33.232-79.039,33.232S0,443.626,0,425.273v-27.185h158.077V425.273  z"/>
<ellipse style="fill:#FCD462;" cx="79.037" cy="398.08" rx="79.037" ry="33.234"/>
<g>
	<path style="fill:#DC8744;" d="M79.039,371.348c-38.097,0-68.981,11.972-68.981,26.74c0,14.768,30.884,26.74,68.981,26.74   s68.981-11.972,68.981-26.74C148.019,383.32,117.135,371.348,79.039,371.348z M79.039,421.857   c-33.863,0-61.316-10.642-61.316-23.769c0-13.127,27.453-23.769,61.316-23.769s61.316,10.642,61.316,23.769   C140.355,411.215,112.902,421.857,79.039,421.857z"/>
	<path style="fill:#DC8744;" d="M76.512,416.56v-3.253c-10.507-0.415-19.938-2.035-28.283-4.856l8.392-3.877   c6.437,2.169,13.061,3.46,19.891,3.877v-8.646c-8.664-0.802-15.007-1.857-19.03-3.164c-4.023-1.307-6.035-3.246-6.035-5.816   c0-2.57,2.311-4.671,6.951-6.307c4.641-1.634,10.675-2.524,18.113-2.673v-2.229h7.354v2.272c8.43,0.239,16.401,1.353,23.914,3.344   l-7.475,4.1c-5.062-1.396-10.535-2.258-16.438-2.586v8.378h0.346c8.813,0.803,15.288,1.888,19.423,3.253   c4.145,1.367,6.212,3.351,6.212,5.95c0,2.6-2.376,4.719-7.129,6.351c-4.753,1.636-11.031,2.526-18.852,2.675v3.208H76.512z    M68.401,387.794c-1.955,0.667-2.928,1.5-2.928,2.495c0,0.996,0.767,1.783,2.302,2.361c1.525,0.58,4.444,1.137,8.738,1.672v-7.711   C73.06,386.731,70.356,387.125,68.401,387.794z M92.605,407.336c2.143-0.682,3.218-1.543,3.218-2.584   c0-1.039-0.842-1.864-2.526-2.474c-1.693-0.609-4.837-1.181-9.431-1.716v8.021C87.543,408.436,90.453,408.019,92.605,407.336z"/>
</g>
<path style="fill:#F6C358;" d="M158.077,392.257c0,18.353-35.387,33.232-79.039,33.232S0,410.611,0,392.257v-27.185h158.077V392.257  z"/>
<ellipse style="fill:#FCD462;" cx="79.037" cy="365.056" rx="79.037" ry="33.234"/>
<g>
	<path style="fill:#DC8744;" d="M79.039,338.332c-38.097,0-68.981,11.972-68.981,26.74c0,14.768,30.884,26.74,68.981,26.74   s68.981-11.972,68.981-26.74C148.019,350.304,117.135,338.332,79.039,338.332z M79.039,388.842   c-33.863,0-61.316-10.642-61.316-23.769c0-13.127,27.453-23.769,61.316-23.769s61.316,10.642,61.316,23.769   C140.355,378.2,112.902,388.842,79.039,388.842z"/>
	<path style="fill:#DC8744;" d="M76.512,383.545v-3.253c-10.507-0.415-19.938-2.035-28.283-4.856l8.392-3.877   c6.437,2.169,13.061,3.46,19.891,3.877v-8.646c-8.664-0.802-15.007-1.857-19.03-3.164c-4.023-1.307-6.035-3.246-6.035-5.816   c0-2.57,2.311-4.671,6.951-6.307c4.641-1.634,10.675-2.524,18.113-2.673V346.6h7.354v2.272c8.43,0.239,16.401,1.353,23.914,3.344   l-7.475,4.1c-5.062-1.396-10.535-2.258-16.438-2.586v8.378h0.346c8.813,0.803,15.288,1.888,19.423,3.253   c4.145,1.367,6.212,3.351,6.212,5.95c0,2.6-2.376,4.719-7.129,6.351c-4.753,1.636-11.031,2.526-18.852,2.675v3.208H76.512z    M68.401,354.779c-1.955,0.667-2.928,1.5-2.928,2.495c0,0.996,0.767,1.783,2.302,2.361c1.525,0.58,4.444,1.137,8.738,1.672v-7.711   C73.06,353.716,70.356,354.109,68.401,354.779z M92.605,374.32c2.143-0.682,3.218-1.543,3.218-2.584   c0-1.039-0.842-1.864-2.526-2.474c-1.693-0.609-4.837-1.181-9.431-1.716v8.021C87.543,375.421,90.453,375.004,92.605,374.32z"/>
</g>
<path style="fill:#44C4A1;" d="M433.836,0h-72.559c-7.401,0-13.405,6.004-13.405,13.405s6.004,13.405,13.405,13.405h43.217  L251.2,203.075l-93.967-82.543c-5.385-4.739-13.562-4.381-18.537,0.803L25.312,239.895c-5.114,5.35-4.931,13.841,0.419,18.956  c2.601,2.487,5.935,3.718,9.268,3.718c3.526,0,7.052-1.388,9.687-4.137l104.5-109.274l94.438,82.953  c2.679,2.356,6.284,3.561,9.748,3.308c3.561-0.244,6.877-1.894,9.216-4.582L420.431,49.341v36.622  c0,7.401,6.004,13.405,13.405,13.405s13.405-6.004,13.405-13.405V13.405C447.241,6.004,441.236,0,433.836,0z"/>
<g>
</g>
<g>
</g>
<g>
</g>
<g>
</g>
<g>
</g>
<g>
</g>
<g>
</g>
<g>
</g>
<g>
</g>
<g>
</g>
<g>
</g>
<g>
</g>
<g>
</g>
<g>
</g>
<g>
</g>
</svg>
