<?xml version="1.0" encoding="iso-8859-1"?>
<!-- Generator: Adobe Illustrator 19.0.0, SVG Export Plug-In . SVG Version: 6.00 Build 0)  -->
<svg xmlns="http://www.w3.org/2000/svg" xmlns:xlink="http://www.w3.org/1999/xlink" version="1.1" id="Layer_1" x="0px" y="0px" viewBox="0 0 491.52 491.52" style="enable-background:new 0 0 491.52 491.52;" xml:space="preserve">
<g>
	<path style="fill:#2F4859;" d="M340.022,437.914l48.234,48.75c6.407,6.476,16.797,6.476,23.204,0   c6.408-6.476,6.408-16.977,0-23.453l-48.234-48.75L340.022,437.914z"/>
	<path style="fill:#2F4859;" d="M151.498,437.914l-48.234,48.75c-6.407,6.476-16.797,6.476-23.204,0   c-6.408-6.476-6.408-16.977,0-23.453l48.234-48.75L151.498,437.914z"/>
</g>
<ellipse style="fill:#3A556A;" cx="245.76" cy="254.403" rx="213.499" ry="215.757"/>
<path style="fill:#FFFFFF;" d="M245.76,428.132c-94.781,0-171.89-77.933-171.89-173.727S150.979,80.678,245.76,80.678  s171.89,77.933,171.89,173.727S340.541,428.132,245.76,428.132z"/>
<g>
	<rect x="240.896" y="92.826" style="fill:#E1E6E9;" width="9.697" height="24.765"/>
	<rect x="240.896" y="391.219" style="fill:#E1E6E9;" width="9.697" height="24.765"/>
	<rect x="381.107" y="249.487" style="fill:#E1E6E9;" width="24.499" height="9.8"/>
	<rect x="85.852" y="249.518" style="fill:#E1E6E9;" width="24.499" height="9.8"/>
	<polygon style="fill:#E1E6E9;" points="321.821,141.102 313.606,135.893 326.628,114.916 334.843,120.126  "/>
	<polygon style="fill:#E1E6E9;" points="164.892,393.894 156.677,388.684 169.699,367.708 177.914,372.917  "/>
	<polygon style="fill:#E1E6E9;" points="357.865,331.279 363.019,322.976 383.773,336.137 378.619,344.44  "/>
	<polygon style="fill:#E1E6E9;" points="107.746,172.673 112.901,164.37 133.655,177.531 128.501,185.834  "/>
	<polygon style="fill:#E1E6E9;" points="368.684,196.853 364.295,188.113 386.144,176.906 390.533,185.647  "/>
	<polygon style="fill:#E1E6E9;" points="105.376,331.904 100.987,323.163 122.836,311.957 127.225,320.697  "/>
	<polygon style="fill:#E1E6E9;" points="302.703,378.643 311.351,374.207 322.439,396.289 313.791,400.725  "/>
	<polygon style="fill:#E1E6E9;" points="169.081,112.521 177.729,108.085 188.817,130.167 180.169,134.603  "/>
</g>
<g>
	<path style="fill:#3A556A;" d="M245.76,148.774c-3.773,0-6.832,3.092-6.832,6.906v91.819c0,3.814,3.059,6.906,6.832,6.906   s6.834-3.092,6.834-6.906V155.68C252.594,151.866,249.533,148.774,245.76,148.774z"/>
	<path style="fill:#3A556A;" d="M318.418,254.404c0-3.814-3.059-6.905-6.833-6.905h-59.058c-3.774,0-6.833,3.092-6.833,6.905   c0,3.814,3.059,6.907,6.833,6.907h59.058C315.359,261.311,318.418,258.218,318.418,254.404z"/>
</g>
<polygon style="fill:#E56353;" points="197.328,312.846 228.564,281.275 226.265,278.951 352.453,151.414 347.853,146.765   221.665,274.302 219.365,271.978 188.129,303.549 "/>
<ellipse style="fill:#FCD462;" cx="245.76" cy="254.403" rx="13.235" ry="13.373"/>
<path style="fill:#F6C358;" d="M466.861,24.922c-32.877-33.228-86.184-33.229-119.062,0l119.062,120.334  C499.739,112.026,499.74,58.152,466.861,24.922z"/>
<path style="fill:#FCD462;" d="M452.904,24.922c-29.023-29.333-76.081-29.334-105.104,0L452.904,131.15  C481.928,101.815,481.929,54.257,452.904,24.922z"/>
<path style="fill:#F6C358;" d="M24.659,24.922c32.877-33.228,86.184-33.229,119.062,0L24.659,145.256  C-8.219,112.026-8.22,58.152,24.659,24.922z"/>
<g>
	<path style="fill:#FCD462;" d="M38.616,24.922c29.023-29.333,76.081-29.334,105.105,0L38.616,131.15   C9.592,101.815,9.591,54.257,38.616,24.922z"/>
	<circle style="fill:#FCD462;" cx="101.555" cy="389.939" r="101.555"/>
</g>
<circle style="fill:#F6C358;" cx="101.555" cy="389.939" r="84.613"/>
<path style="fill:#DC8744;" d="M98.066,455.81v-11.597c-14.519-1.48-27.55-7.253-39.082-17.311l11.597-13.82  c8.895,7.731,18.048,12.334,27.486,13.82v-30.821c-11.972-2.857-20.737-6.619-26.296-11.28c-5.559-4.661-8.339-11.571-8.339-20.731  s3.193-16.652,9.606-22.482c6.412-5.824,14.751-8.998,25.029-9.528v-7.944h10.162v8.1c11.648,0.853,22.663,4.822,33.045,11.92  l-10.33,14.615c-6.994-4.977-14.557-8.048-22.715-9.218v29.864h0.478c12.178,2.864,21.125,6.729,26.839,11.597  c5.727,4.874,8.584,11.946,8.584,21.209c0,9.27-3.284,16.82-9.851,22.637c-6.568,5.831-15.243,9.005-26.051,9.535v11.435H98.066z   M86.857,353.269c-2.702,2.379-4.047,5.346-4.047,8.895s1.06,6.354,3.18,8.416c2.107,2.069,6.141,4.053,12.075,5.96v-27.486  C93.296,349.481,89.559,350.884,86.857,353.269z M120.303,422.927c2.961-2.431,4.447-5.501,4.447-9.211  c0-3.704-1.164-6.645-3.491-8.817c-2.34-2.172-6.684-4.208-13.032-6.115v28.591C113.309,426.851,117.329,425.364,120.303,422.927z"/>
<g>
</g>
<g>
</g>
<g>
</g>
<g>
</g>
<g>
</g>
<g>
</g>
<g>
</g>
<g>
</g>
<g>
</g>
<g>
</g>
<g>
</g>
<g>
</g>
<g>
</g>
<g>
</g>
<g>
</g>
</svg>
