<?xml version="1.0" encoding="iso-8859-1"?>
<!-- Generator: Adobe Illustrator 19.0.0, SVG Export Plug-In . SVG Version: 6.00 Build 0)  -->
<svg xmlns="http://www.w3.org/2000/svg" xmlns:xlink="http://www.w3.org/1999/xlink" version="1.1" id="Layer_1" x="0px" y="0px" viewBox="0 0 513.067 513.067" style="enable-background:new 0 0 513.067 513.067;" xml:space="preserve">
<rect x="228.8" y="230.4" style="fill:#FFD15C;" width="283.733" height="282.667"/>
<g>
	<rect x="228.8" y="230.4" style="fill:#F7B64C;" width="283.733" height="13.867"/>
	<rect x="228.8" y="297.6" style="fill:#F7B64C;" width="283.733" height="13.867"/>
	<rect x="228.8" y="364.8" style="fill:#F7B64C;" width="283.733" height="13.867"/>
	<rect x="228.8" y="432" style="fill:#F7B64C;" width="283.733" height="13.867"/>
	<rect x="228.8" y="499.2" style="fill:#F7B64C;" width="283.733" height="13.867"/>
	<circle style="fill:#F7B64C;" cx="128.533" cy="384" r="128"/>
</g>
<circle style="fill:#FFD15C;" cx="128.533" cy="384" r="94.933"/>
<path style="fill:#F7B64C;" d="M125.333,446.933v-10.667c-13.867-1.067-26.667-6.4-37.333-16l10.667-12.8  c8.533,7.467,17.067,11.733,25.6,12.8v-28.8c-11.733-3.2-19.2-6.4-24.533-10.667c-5.333-4.267-7.467-10.667-7.467-19.2  s3.2-16,9.6-21.333c6.4-5.333,13.867-8.533,23.467-8.533v-7.467h9.6v7.467c10.667,1.067,21.333,4.267,30.933,11.733l-9.6,13.867  c-6.4-4.267-13.867-7.467-21.333-8.533v25.6l0,0c11.733,3.2,20.267,6.4,25.6,10.667s8.533,11.733,8.533,20.267  c0,8.533-3.2,16-9.6,21.333c-6.4,5.333-14.933,8.533-24.533,8.533v10.667h-9.6V446.933z M114.667,349.867  C112.533,352,110.4,355.2,110.4,358.4c0,3.2,1.067,6.4,3.2,7.467c2.133,2.133,5.333,4.267,11.733,5.333v-25.6  C121.067,345.6,116.8,346.667,114.667,349.867z M147.733,416c3.2-2.133,4.267-5.333,4.267-9.6c0-4.267-1.067-6.4-3.2-9.6  c-2.133-2.133-7.467-4.267-13.867-6.4v29.867C140.267,420.267,144.533,419.2,147.733,416z"/>
<path style="fill:#F3705A;" d="M512.533,0l-39.467,107.733l-24.533-29.867L302.4,198.4c-6.4,5.333-16,5.333-23.467,0l-86.4-74.667  L21.867,247.467l-21.333-28.8L182.933,86.4c6.4-5.333,16-4.267,22.4,1.067l86.4,73.6L426.133,51.2l-25.6-30.933L512.533,0z"/>
<g>
</g>
<g>
</g>
<g>
</g>
<g>
</g>
<g>
</g>
<g>
</g>
<g>
</g>
<g>
</g>
<g>
</g>
<g>
</g>
<g>
</g>
<g>
</g>
<g>
</g>
<g>
</g>
<g>
</g>
</svg>
