<?xml version="1.0" encoding="iso-8859-1"?>
<!-- Generator: Adobe Illustrator 19.0.0, SVG Export Plug-In . SVG Version: 6.00 Build 0)  -->
<svg xmlns="http://www.w3.org/2000/svg" xmlns:xlink="http://www.w3.org/1999/xlink" version="1.1" id="Layer_1" x="0px" y="0px" viewBox="0 0 491.569 491.569" style="enable-background:new 0 0 491.569 491.569;" xml:space="preserve">
<path style="fill:#FCD462;" d="M55.398,157.22C104.232,52.242,229.373,6.564,334.349,55.399  c14.073,6.546,27.008,14.536,38.864,23.592l-43.656,17.3l140.692,54.846L415.403,10.446l-16.991,42.876  c-14.804-11.729-31.108-22.02-48.984-30.336C226.379-34.255,80.226,19.093,22.986,142.141  C3.497,184.038-3.145,228.608,1.392,271.439l34.849-12.72C34.096,224.881,40.118,190.065,55.398,157.22z"/>
<path style="fill:#E56353;" d="M490.177,220.129l-34.847,12.721c2.145,33.838-3.879,68.655-19.157,101.501  c-48.836,104.978-173.975,150.656-278.953,101.822c-19.598-9.117-37.077-20.943-52.313-34.752l43.492-17.235L7.706,329.339  l54.847,140.692l17.145-43.267c18.119,16.631,38.956,30.893,62.444,41.82c123.049,57.24,269.2,3.891,326.44-119.157  C488.073,307.531,494.715,262.961,490.177,220.129z"/>
<path style="fill:#F6C358;" d="M249.19,347.505c0,15.858-30.576,28.714-68.294,28.714s-68.294-12.856-68.294-28.714v-23.489H249.19  V347.505z"/>
<ellipse style="fill:#FCD462;" cx="180.914" cy="324.018" rx="68.296" ry="28.713"/>
<g>
	<path style="fill:#DC8744;" d="M180.896,300.911c-32.918,0-59.603,10.344-59.603,23.105c0,12.761,26.685,23.105,59.603,23.105   s59.603-10.345,59.603-23.105C240.499,311.256,213.814,300.911,180.896,300.911z M180.896,344.554   c-29.26,0-52.98-9.195-52.98-20.538c0-11.343,23.721-20.538,52.98-20.538s52.98,9.195,52.98,20.538   C233.877,335.359,210.156,344.554,180.896,344.554z"/>
	<path style="fill:#DC8744;" d="M178.714,339.978v-2.811c-9.078-0.359-17.227-1.758-24.438-4.196l7.251-3.35   c5.562,1.874,11.285,2.99,17.187,3.35V325.5c-7.486-0.693-12.967-1.604-16.443-2.734c-3.476-1.13-5.214-2.805-5.214-5.025   c0-2.22,1.997-4.036,6.006-5.45c4.01-1.412,9.224-2.181,15.651-2.31v-1.926h6.354v1.963c7.284,0.207,14.171,1.169,20.663,2.889   l-6.459,3.543c-4.373-1.207-9.103-1.951-14.204-2.234v7.239h0.299c7.615,0.694,13.209,1.631,16.783,2.811   c3.581,1.181,5.368,2.896,5.368,5.141c0,2.247-2.053,4.077-6.16,5.487c-4.107,1.413-9.531,2.183-16.289,2.311v2.772H178.714z    M171.705,315.122c-1.69,0.577-2.53,1.296-2.53,2.156s0.663,1.54,1.989,2.04c1.318,0.501,3.84,0.982,7.551,1.445V314.1   C175.731,314.204,173.394,314.544,171.705,315.122z M192.618,332.007c1.851-0.589,2.781-1.333,2.781-2.233   c0-0.898-0.728-1.611-2.183-2.137c-1.463-0.526-4.179-1.02-8.149-1.482v6.93C188.245,332.958,190.759,332.598,192.618,332.007z"/>
</g>
<path style="fill:#F6C358;" d="M249.19,318.978c0,15.858-30.576,28.714-68.294,28.714s-68.294-12.856-68.294-28.714v-23.489H249.19  V318.978z"/>
<ellipse style="fill:#FCD462;" cx="180.914" cy="295.49" rx="68.296" ry="28.713"/>
<g>
	<path style="fill:#DC8744;" d="M180.896,272.384c-32.918,0-59.603,10.345-59.603,23.105c0,12.761,26.685,23.105,59.603,23.105   s59.603-10.345,59.603-23.105C240.499,282.729,213.814,272.384,180.896,272.384z M180.896,316.027   c-29.26,0-52.98-9.195-52.98-20.538c0-11.343,23.721-20.538,52.98-20.538s52.98,9.195,52.98,20.538   C233.877,306.832,210.156,316.027,180.896,316.027z"/>
	<path style="fill:#DC8744;" d="M178.714,311.45v-2.811c-9.078-0.359-17.227-1.758-24.438-4.196l7.251-3.35   c5.562,1.874,11.285,2.99,17.187,3.35v-7.471c-7.486-0.693-12.967-1.604-16.443-2.734c-3.476-1.13-5.214-2.805-5.214-5.025   c0-2.22,1.997-4.036,6.006-5.45c4.01-1.412,9.224-2.181,15.651-2.31v-1.926h6.354v1.963c7.284,0.207,14.171,1.169,20.663,2.889   l-6.459,3.543c-4.373-1.207-9.103-1.951-14.204-2.234v7.239h0.299c7.615,0.694,13.209,1.631,16.783,2.811   c3.581,1.181,5.368,2.896,5.368,5.141c0,2.247-2.053,4.077-6.16,5.487c-4.107,1.413-9.531,2.183-16.289,2.311v2.772H178.714z    M171.705,286.595c-1.69,0.577-2.53,1.296-2.53,2.156s0.663,1.54,1.989,2.04c1.318,0.501,3.84,0.982,7.551,1.445v-6.662   C175.731,285.677,173.394,286.017,171.705,286.595z M192.618,303.48c1.851-0.589,2.781-1.333,2.781-2.233   c0-0.898-0.728-1.611-2.183-2.137c-1.463-0.526-4.179-1.02-8.149-1.482v6.93C188.245,304.431,190.759,304.07,192.618,303.48z"/>
</g>
<path style="fill:#F6C358;" d="M249.19,290.451c0,15.858-30.576,28.714-68.294,28.714s-68.294-12.856-68.294-28.714v-23.489H249.19  V290.451z"/>
<ellipse style="fill:#FCD462;" cx="180.914" cy="266.981" rx="68.296" ry="28.713"/>
<g>
	<path style="fill:#DC8744;" d="M180.896,243.857c-32.918,0-59.603,10.345-59.603,23.105c0,12.761,26.685,23.105,59.603,23.105   s59.603-10.345,59.603-23.105C240.499,254.201,213.814,243.857,180.896,243.857z M180.896,287.5c-29.26,0-52.98-9.195-52.98-20.538   c0-11.343,23.721-20.538,52.98-20.538s52.98,9.195,52.98,20.538C233.877,278.305,210.156,287.5,180.896,287.5z"/>
	<path style="fill:#DC8744;" d="M178.714,282.923v-2.811c-9.078-0.359-17.227-1.758-24.438-4.196l7.251-3.35   c5.562,1.874,11.285,2.99,17.187,3.35v-7.471c-7.486-0.693-12.967-1.604-16.443-2.734c-3.476-1.13-5.214-2.805-5.214-5.025   c0-2.22,1.997-4.036,6.006-5.45c4.01-1.412,9.224-2.181,15.651-2.31v-1.926h6.354v1.963c7.284,0.207,14.171,1.169,20.663,2.889   l-6.459,3.543c-4.373-1.206-9.103-1.951-14.204-2.234v7.239h0.299c7.615,0.694,13.209,1.631,16.783,2.811   c3.581,1.181,5.368,2.896,5.368,5.141c0,2.247-2.053,4.077-6.16,5.487c-4.107,1.413-9.531,2.183-16.289,2.311v2.772H178.714z    M171.705,258.068c-1.69,0.577-2.53,1.296-2.53,2.156c0,0.86,0.663,1.54,1.989,2.04c1.318,0.501,3.84,0.982,7.551,1.445v-6.662   C175.731,257.149,173.394,257.489,171.705,258.068z M192.618,274.953c1.851-0.589,2.781-1.333,2.781-2.233   c0-0.898-0.728-1.611-2.183-2.137c-1.463-0.526-4.179-1.02-8.149-1.482v6.93C188.245,275.904,190.759,275.543,192.618,274.953z"/>
</g>
<path style="fill:#F6C358;" d="M249.19,261.924c0,15.858-30.576,28.714-68.294,28.714s-68.294-12.856-68.294-28.714v-23.489H249.19  V261.924z"/>
<ellipse style="fill:#FCD462;" cx="180.914" cy="238.437" rx="68.296" ry="28.713"/>
<g>
	<path style="fill:#DC8744;" d="M180.896,215.33c-32.918,0-59.603,10.345-59.603,23.105c0,12.761,26.685,23.105,59.603,23.105   s59.603-10.345,59.603-23.105C240.499,225.674,213.814,215.33,180.896,215.33z M180.896,258.973c-29.26,0-52.98-9.195-52.98-20.538   c0-11.343,23.721-20.538,52.98-20.538s52.98,9.195,52.98,20.538C233.877,249.778,210.156,258.973,180.896,258.973z"/>
	<path style="fill:#DC8744;" d="M178.714,254.396v-2.811c-9.078-0.359-17.227-1.758-24.438-4.196l7.251-3.35   c5.562,1.874,11.285,2.99,17.187,3.35v-7.471c-7.486-0.693-12.967-1.604-16.443-2.734c-3.476-1.13-5.214-2.805-5.214-5.025   c0-2.22,1.997-4.036,6.006-5.45c4.01-1.412,9.224-2.181,15.651-2.31v-1.926h6.354v1.963c7.284,0.207,14.171,1.169,20.663,2.889   l-6.459,3.543c-4.373-1.207-9.103-1.951-14.204-2.234v7.239h0.299c7.615,0.694,13.209,1.631,16.783,2.811   c3.581,1.181,5.368,2.896,5.368,5.141c0,2.247-2.053,4.077-6.16,5.487c-4.107,1.413-9.531,2.183-16.289,2.311v2.772H178.714z    M171.705,229.54c-1.69,0.577-2.53,1.296-2.53,2.156c0,0.86,0.663,1.54,1.989,2.04c1.318,0.501,3.84,0.982,7.551,1.445v-6.662   C175.731,228.622,173.394,228.962,171.705,229.54z M192.618,246.425c1.851-0.589,2.781-1.333,2.781-2.233   c0-0.898-0.728-1.611-2.183-2.137c-1.463-0.526-4.179-1.02-8.149-1.482v6.93C188.245,247.376,190.759,247.016,192.618,246.425z"/>
</g>
<path style="fill:#F6C358;" d="M249.19,233.397c0,15.858-30.576,28.714-68.294,28.714s-68.294-12.856-68.294-28.714v-23.489H249.19  V233.397z"/>
<ellipse style="fill:#FCD462;" cx="180.914" cy="209.909" rx="68.296" ry="28.713"/>
<g>
	<path style="fill:#DC8744;" d="M180.896,186.803c-32.918,0-59.603,10.345-59.603,23.105c0,12.761,26.685,23.105,59.603,23.105   s59.603-10.345,59.603-23.105C240.499,197.147,213.814,186.803,180.896,186.803z M180.896,230.446   c-29.26,0-52.98-9.195-52.98-20.538c0-11.343,23.721-20.538,52.98-20.538s52.98,9.195,52.98,20.538   C233.877,221.251,210.156,230.446,180.896,230.446z"/>
	<path style="fill:#DC8744;" d="M178.714,225.869v-2.811c-9.078-0.359-17.227-1.758-24.438-4.196l7.251-3.35   c5.562,1.874,11.285,2.99,17.187,3.35v-7.471c-7.486-0.693-12.967-1.605-16.443-2.734c-3.476-1.13-5.214-2.805-5.214-5.025   s1.997-4.036,6.006-5.45c4.01-1.412,9.224-2.181,15.651-2.31v-1.926h6.354v1.963c7.284,0.207,14.171,1.169,20.663,2.889   l-6.459,3.543c-4.373-1.207-9.103-1.951-14.204-2.234v7.239h0.299c7.615,0.694,13.209,1.631,16.783,2.811   c3.581,1.181,5.368,2.896,5.368,5.141c0,2.247-2.053,4.077-6.16,5.487c-4.107,1.413-9.531,2.183-16.289,2.311v2.772H178.714z    M171.705,201.013c-1.69,0.577-2.53,1.296-2.53,2.156c0,0.86,0.663,1.54,1.989,2.04c1.318,0.501,3.84,0.982,7.551,1.445v-6.662   C175.731,200.095,173.394,200.435,171.705,201.013z M192.618,217.898c1.851-0.589,2.781-1.333,2.781-2.233   c0-0.898-0.728-1.611-2.183-2.137c-1.463-0.526-4.179-1.02-8.149-1.482v6.93C188.245,218.849,190.759,218.489,192.618,217.898z"/>
</g>
<path style="fill:#F6C358;" d="M249.19,204.87c0,15.858-30.576,28.714-68.294,28.714s-68.294-12.856-68.294-28.714v-23.489H249.19  V204.87z"/>
<ellipse style="fill:#FCD462;" cx="180.914" cy="181.38" rx="68.296" ry="28.713"/>
<g>
	<path style="fill:#DC8744;" d="M180.896,158.276c-32.918,0-59.603,10.344-59.603,23.105c0,12.761,26.685,23.105,59.603,23.105   s59.603-10.345,59.603-23.105C240.499,168.62,213.814,158.276,180.896,158.276z M180.896,201.918   c-29.26,0-52.98-9.195-52.98-20.538c0-11.343,23.721-20.538,52.98-20.538s52.98,9.195,52.98,20.538   C233.877,192.723,210.156,201.918,180.896,201.918z"/>
	<path style="fill:#DC8744;" d="M178.714,197.342v-2.811c-9.078-0.359-17.227-1.758-24.438-4.196l7.251-3.35   c5.562,1.874,11.285,2.99,17.187,3.35v-7.471c-7.486-0.693-12.967-1.605-16.443-2.734c-3.476-1.13-5.214-2.805-5.214-5.025   c0-2.22,1.997-4.036,6.006-5.45c4.01-1.412,9.224-2.181,15.651-2.31v-1.926h6.354v1.963c7.284,0.207,14.171,1.169,20.663,2.889   l-6.459,3.543c-4.373-1.207-9.103-1.951-14.204-2.234v7.239h0.299c7.615,0.694,13.209,1.631,16.783,2.811   c3.581,1.181,5.368,2.896,5.368,5.141c0,2.247-2.053,4.077-6.16,5.487c-4.107,1.413-9.531,2.183-16.289,2.311v2.772H178.714z    M171.705,172.486c-1.69,0.577-2.53,1.296-2.53,2.156c0,0.86,0.663,1.54,1.989,2.04c1.318,0.501,3.84,0.982,7.551,1.445v-6.662   C175.731,171.568,173.394,171.908,171.705,172.486z M192.618,189.371c1.851-0.589,2.781-1.333,2.781-2.233   c0-0.898-0.728-1.611-2.183-2.137c-1.463-0.526-4.179-1.02-8.149-1.482v6.93C188.245,190.322,190.759,189.962,192.618,189.371z"/>
</g>
<path style="fill:#F6C358;" d="M249.19,176.343c0,15.858-30.576,28.714-68.294,28.714s-68.294-12.856-68.294-28.714v-23.489H249.19  V176.343z"/>
<ellipse style="fill:#FCD462;" cx="180.914" cy="152.852" rx="68.296" ry="28.713"/>
<g>
	<path style="fill:#DC8744;" d="M180.896,129.748c-32.918,0-59.603,10.345-59.603,23.105c0,12.761,26.685,23.105,59.603,23.105   s59.603-10.345,59.603-23.105C240.499,140.093,213.814,129.748,180.896,129.748z M180.896,173.391   c-29.26,0-52.98-9.195-52.98-20.538c0-11.343,23.721-20.538,52.98-20.538s52.98,9.195,52.98,20.538   C233.877,164.196,210.156,173.391,180.896,173.391z"/>
	<path style="fill:#DC8744;" d="M178.714,168.815v-2.811c-9.078-0.359-17.227-1.758-24.438-4.196l7.251-3.35   c5.562,1.874,11.285,2.99,17.187,3.35v-7.471c-7.486-0.693-12.967-1.604-16.443-2.734c-3.476-1.13-5.214-2.805-5.214-5.025   s1.997-4.036,6.006-5.45c4.01-1.412,9.224-2.181,15.651-2.31v-1.926h6.354v1.963c7.284,0.207,14.171,1.169,20.663,2.889   l-6.459,3.543c-4.373-1.207-9.103-1.951-14.204-2.234v7.239h0.299c7.615,0.694,13.209,1.631,16.783,2.811   c3.581,1.181,5.368,2.896,5.368,5.141c0,2.247-2.053,4.077-6.16,5.487c-4.107,1.413-9.531,2.183-16.289,2.311v2.772H178.714z    M171.705,143.959c-1.69,0.577-2.53,1.296-2.53,2.156c0,0.86,0.663,1.54,1.989,2.04c1.318,0.501,3.84,0.982,7.551,1.445v-6.662   C175.731,143.041,173.394,143.381,171.705,143.959z M192.618,160.844c1.851-0.589,2.781-1.333,2.781-2.233   c0-0.898-0.728-1.611-2.183-2.137c-1.463-0.526-4.179-1.02-8.149-1.482v6.93C188.245,161.795,190.759,161.435,192.618,160.844z"/>
</g>
<path style="fill:#F6C358;" d="M249.19,147.815c0,15.858-30.576,28.714-68.294,28.714s-68.294-12.856-68.294-28.714v-23.489H249.19  V147.815z"/>
<ellipse style="fill:#FCD462;" cx="180.914" cy="124.338" rx="68.296" ry="28.713"/>
<g>
	<path style="fill:#DC8744;" d="M180.896,101.221c-32.918,0-59.603,10.345-59.603,23.105c0,12.761,26.685,23.105,59.603,23.105   s59.603-10.345,59.603-23.105C240.499,111.566,213.814,101.221,180.896,101.221z M180.896,144.864   c-29.26,0-52.98-9.195-52.98-20.538c0-11.343,23.721-20.538,52.98-20.538s52.98,9.195,52.98,20.538   C233.877,135.669,210.156,144.864,180.896,144.864z"/>
	<path style="fill:#DC8744;" d="M178.714,140.288v-2.811c-9.078-0.359-17.227-1.758-24.438-4.196l7.251-3.35   c5.562,1.874,11.285,2.99,17.187,3.35v-7.471c-7.486-0.693-12.967-1.604-16.443-2.734c-3.476-1.13-5.214-2.805-5.214-5.025   c0-2.22,1.997-4.036,6.006-5.45c4.01-1.412,9.224-2.181,15.651-2.31v-1.926h6.354v1.963c7.284,0.207,14.171,1.169,20.663,2.889   l-6.459,3.543c-4.373-1.207-9.103-1.951-14.204-2.234v7.239h0.299c7.615,0.694,13.209,1.631,16.783,2.811   c3.581,1.181,5.368,2.896,5.368,5.141c0,2.247-2.053,4.077-6.16,5.487c-4.107,1.413-9.531,2.183-16.289,2.311v2.772H178.714z    M171.705,115.432c-1.69,0.577-2.53,1.296-2.53,2.156c0,0.86,0.663,1.54,1.989,2.04c1.318,0.501,3.84,0.982,7.551,1.445v-6.662   C175.731,114.514,173.394,114.854,171.705,115.432z M192.618,132.317c1.851-0.589,2.781-1.333,2.781-2.233   c0-0.898-0.728-1.611-2.183-2.137c-1.463-0.526-4.179-1.02-8.149-1.482v6.93C188.245,133.268,190.759,132.908,192.618,132.317z"/>
</g>
<path style="fill:#F6C358;" d="M393.21,347.505c0,15.858-30.576,28.714-68.294,28.714s-68.294-12.856-68.294-28.714v-23.489H393.21  V347.505z"/>
<ellipse style="fill:#FCD462;" cx="324.94" cy="324.018" rx="68.296" ry="28.713"/>
<g>
	<path style="fill:#DC8744;" d="M324.916,300.911c-32.918,0-59.603,10.344-59.603,23.105c0,12.761,26.685,23.105,59.603,23.105   s59.603-10.345,59.603-23.105C384.519,311.256,357.834,300.911,324.916,300.911z M324.916,344.554   c-29.26,0-52.98-9.195-52.98-20.538c0-11.343,23.721-20.538,52.98-20.538s52.98,9.195,52.98,20.538   C377.897,335.359,354.176,344.554,324.916,344.554z"/>
	<path style="fill:#DC8744;" d="M322.734,339.978v-2.811c-9.078-0.359-17.227-1.758-24.438-4.196l7.251-3.35   c5.562,1.874,11.285,2.99,17.187,3.35V325.5c-7.486-0.693-12.967-1.604-16.443-2.734c-3.476-1.13-5.214-2.805-5.214-5.025   c0-2.22,1.997-4.036,6.006-5.45c4.01-1.412,9.224-2.181,15.651-2.31v-1.926h6.354v1.963c7.284,0.207,14.171,1.169,20.663,2.889   l-6.459,3.543c-4.373-1.207-9.103-1.951-14.204-2.234v7.239h0.299c7.615,0.694,13.209,1.631,16.783,2.811   c3.581,1.181,5.368,2.896,5.368,5.141c0,2.247-2.053,4.077-6.16,5.487c-4.107,1.413-9.531,2.183-16.289,2.311v2.772H322.734z    M315.725,315.122c-1.69,0.577-2.53,1.296-2.53,2.156s0.663,1.54,1.989,2.04c1.318,0.501,3.84,0.982,7.551,1.445V314.1   C319.751,314.204,317.414,314.544,315.725,315.122z M336.638,332.007c1.851-0.589,2.781-1.333,2.781-2.233   c0-0.898-0.728-1.611-2.183-2.137c-1.463-0.526-4.179-1.02-8.149-1.482v6.93C332.265,332.958,334.779,332.598,336.638,332.007z"/>
</g>
<path style="fill:#F6C358;" d="M393.21,318.978c0,15.858-30.576,28.714-68.294,28.714s-68.294-12.856-68.294-28.714v-23.489H393.21  V318.978z"/>
<ellipse style="fill:#FCD462;" cx="324.94" cy="295.49" rx="68.296" ry="28.713"/>
<g>
	<path style="fill:#DC8744;" d="M324.916,272.384c-32.918,0-59.603,10.345-59.603,23.105c0,12.761,26.685,23.105,59.603,23.105   s59.603-10.345,59.603-23.105C384.519,282.729,357.834,272.384,324.916,272.384z M324.916,316.027   c-29.26,0-52.98-9.195-52.98-20.538c0-11.343,23.721-20.538,52.98-20.538s52.98,9.195,52.98,20.538   C377.897,306.832,354.176,316.027,324.916,316.027z"/>
	<path style="fill:#DC8744;" d="M322.734,311.45v-2.811c-9.078-0.359-17.227-1.758-24.438-4.196l7.251-3.35   c5.562,1.874,11.285,2.99,17.187,3.35v-7.471c-7.486-0.693-12.967-1.604-16.443-2.734c-3.476-1.13-5.214-2.805-5.214-5.025   c0-2.22,1.997-4.036,6.006-5.45c4.01-1.412,9.224-2.181,15.651-2.31v-1.926h6.354v1.963c7.284,0.207,14.171,1.169,20.663,2.889   l-6.459,3.543c-4.373-1.207-9.103-1.951-14.204-2.234v7.239h0.299c7.615,0.694,13.209,1.631,16.783,2.811   c3.581,1.181,5.368,2.896,5.368,5.141c0,2.247-2.053,4.077-6.16,5.487c-4.107,1.413-9.531,2.183-16.289,2.311v2.772H322.734z    M315.725,286.595c-1.69,0.577-2.53,1.296-2.53,2.156s0.663,1.54,1.989,2.04c1.318,0.501,3.84,0.982,7.551,1.445v-6.662   C319.751,285.677,317.414,286.017,315.725,286.595z M336.638,303.48c1.851-0.589,2.781-1.333,2.781-2.233   c0-0.898-0.728-1.611-2.183-2.137c-1.463-0.526-4.179-1.02-8.149-1.482v6.93C332.265,304.431,334.779,304.07,336.638,303.48z"/>
</g>
<path style="fill:#F6C358;" d="M393.21,290.451c0,15.858-30.576,28.714-68.294,28.714s-68.294-12.856-68.294-28.714v-23.489H393.21  V290.451z"/>
<ellipse style="fill:#FCD462;" cx="324.94" cy="266.981" rx="68.296" ry="28.713"/>
<g>
	<path style="fill:#DC8744;" d="M324.916,243.857c-32.918,0-59.603,10.345-59.603,23.105c0,12.761,26.685,23.105,59.603,23.105   s59.603-10.345,59.603-23.105C384.519,254.201,357.834,243.857,324.916,243.857z M324.916,287.5c-29.26,0-52.98-9.195-52.98-20.538   c0-11.343,23.721-20.538,52.98-20.538s52.98,9.195,52.98,20.538C377.897,278.305,354.176,287.5,324.916,287.5z"/>
	<path style="fill:#DC8744;" d="M322.734,282.923v-2.811c-9.078-0.359-17.227-1.758-24.438-4.196l7.251-3.35   c5.562,1.874,11.285,2.99,17.187,3.35v-7.471c-7.486-0.693-12.967-1.604-16.443-2.734c-3.476-1.13-5.214-2.805-5.214-5.025   c0-2.22,1.997-4.036,6.006-5.45c4.01-1.412,9.224-2.181,15.651-2.31v-1.926h6.354v1.963c7.284,0.207,14.171,1.169,20.663,2.889   l-6.459,3.543c-4.373-1.206-9.103-1.951-14.204-2.234v7.239h0.299c7.615,0.694,13.209,1.631,16.783,2.811   c3.581,1.181,5.368,2.896,5.368,5.141c0,2.247-2.053,4.077-6.16,5.487c-4.107,1.413-9.531,2.183-16.289,2.311v2.772H322.734z    M315.725,258.068c-1.69,0.577-2.53,1.296-2.53,2.156c0,0.86,0.663,1.54,1.989,2.04c1.318,0.501,3.84,0.982,7.551,1.445v-6.662   C319.751,257.149,317.414,257.489,315.725,258.068z M336.638,274.953c1.851-0.589,2.781-1.333,2.781-2.233   c0-0.898-0.728-1.611-2.183-2.137c-1.463-0.526-4.179-1.02-8.149-1.482v6.93C332.265,275.904,334.779,275.543,336.638,274.953z"/>
</g>
<path style="fill:#F6C358;" d="M393.21,261.924c0,15.858-30.576,28.714-68.294,28.714s-68.294-12.856-68.294-28.714v-23.489H393.21  V261.924z"/>
<ellipse style="fill:#FCD462;" cx="324.94" cy="238.437" rx="68.296" ry="28.713"/>
<g>
	<path style="fill:#DC8744;" d="M324.916,215.33c-32.918,0-59.603,10.345-59.603,23.105c0,12.761,26.685,23.105,59.603,23.105   s59.603-10.345,59.603-23.105C384.519,225.674,357.834,215.33,324.916,215.33z M324.916,258.973c-29.26,0-52.98-9.195-52.98-20.538   c0-11.343,23.721-20.538,52.98-20.538s52.98,9.195,52.98,20.538C377.897,249.778,354.176,258.973,324.916,258.973z"/>
	<path style="fill:#DC8744;" d="M322.734,254.396v-2.811c-9.078-0.359-17.227-1.758-24.438-4.196l7.251-3.35   c5.562,1.874,11.285,2.99,17.187,3.35v-7.471c-7.486-0.693-12.967-1.604-16.443-2.734c-3.476-1.13-5.214-2.805-5.214-5.025   c0-2.22,1.997-4.036,6.006-5.45c4.01-1.412,9.224-2.181,15.651-2.31v-1.926h6.354v1.963c7.284,0.207,14.171,1.169,20.663,2.889   l-6.459,3.543c-4.373-1.207-9.103-1.951-14.204-2.234v7.239h0.299c7.615,0.694,13.209,1.631,16.783,2.811   c3.581,1.181,5.368,2.896,5.368,5.141c0,2.247-2.053,4.077-6.16,5.487c-4.107,1.413-9.531,2.183-16.289,2.311v2.772H322.734z    M315.725,229.54c-1.69,0.577-2.53,1.296-2.53,2.156c0,0.86,0.663,1.54,1.989,2.04c1.318,0.501,3.84,0.982,7.551,1.445v-6.662   C319.751,228.622,317.414,228.962,315.725,229.54z M336.638,246.425c1.851-0.589,2.781-1.333,2.781-2.233   c0-0.898-0.728-1.611-2.183-2.137c-1.463-0.526-4.179-1.02-8.149-1.482v6.93C332.265,247.376,334.779,247.016,336.638,246.425z"/>
</g>
<path style="fill:#F6C358;" d="M393.21,233.397c0,15.858-30.576,28.714-68.294,28.714s-68.294-12.856-68.294-28.714v-23.489H393.21  V233.397z"/>
<ellipse style="fill:#FCD462;" cx="324.94" cy="209.909" rx="68.296" ry="28.713"/>
<g>
	<path style="fill:#DC8744;" d="M324.916,186.803c-32.918,0-59.603,10.345-59.603,23.105c0,12.761,26.685,23.105,59.603,23.105   s59.603-10.345,59.603-23.105C384.519,197.147,357.834,186.803,324.916,186.803z M324.916,230.446   c-29.26,0-52.98-9.195-52.98-20.538c0-11.343,23.721-20.538,52.98-20.538s52.98,9.195,52.98,20.538   C377.897,221.251,354.176,230.446,324.916,230.446z"/>
	<path style="fill:#DC8744;" d="M322.734,225.869v-2.811c-9.078-0.359-17.227-1.758-24.438-4.196l7.251-3.35   c5.562,1.874,11.285,2.99,17.187,3.35v-7.471c-7.486-0.693-12.967-1.605-16.443-2.734c-3.476-1.13-5.214-2.805-5.214-5.025   s1.997-4.036,6.006-5.45c4.01-1.412,9.224-2.181,15.651-2.31v-1.926h6.354v1.963c7.284,0.207,14.171,1.169,20.663,2.889   l-6.459,3.543c-4.373-1.207-9.103-1.951-14.204-2.234v7.239h0.299c7.615,0.694,13.209,1.631,16.783,2.811   c3.581,1.181,5.368,2.896,5.368,5.141c0,2.247-2.053,4.077-6.16,5.487c-4.107,1.413-9.531,2.183-16.289,2.311v2.772H322.734z    M315.725,201.013c-1.69,0.577-2.53,1.296-2.53,2.156c0,0.86,0.663,1.54,1.989,2.04c1.318,0.501,3.84,0.982,7.551,1.445v-6.662   C319.751,200.095,317.414,200.435,315.725,201.013z M336.638,217.898c1.851-0.589,2.781-1.333,2.781-2.233   c0-0.898-0.728-1.611-2.183-2.137c-1.463-0.526-4.179-1.02-8.149-1.482v6.93C332.265,218.849,334.779,218.489,336.638,217.898z"/>
</g>
<circle style="fill:#FCD462;" cx="203.965" cy="301.045" r="75.177"/>
<g>
	<path style="fill:#DC8744;" d="M203.965,235.435c-36.235,0-65.609,29.374-65.609,65.609c0,36.235,29.374,65.609,65.609,65.609   s65.609-29.374,65.609-65.609C269.574,264.809,240.199,235.435,203.965,235.435z M203.965,359.363   c-32.208,0-58.319-26.11-58.319-58.319c0-32.209,26.111-58.319,58.319-58.319s58.319,26.11,58.319,58.319   C262.284,333.253,236.173,359.363,203.965,359.363z"/>
	<path style="fill:#DC8744;" d="M201.562,346.367v-7.982c-9.993-1.019-18.963-4.992-26.901-11.915l7.982-9.513   c6.122,5.321,12.423,8.489,18.919,9.513v-21.214c-8.24-1.967-14.273-4.556-18.1-7.764c-3.826-3.208-5.74-7.964-5.74-14.269   c0-6.305,2.198-11.461,6.612-15.475c4.414-4.009,10.153-6.193,17.228-6.558v-5.468h6.994v5.575   c8.018,0.587,15.599,3.319,22.745,8.205l-7.11,10.06c-4.814-3.426-10.02-5.539-15.635-6.345v20.556h0.329   c8.383,1.971,14.54,4.632,18.474,7.982c3.942,3.355,5.909,8.222,5.909,14.598c0,6.38-2.26,11.577-6.781,15.582   c-4.521,4.013-10.492,6.198-17.931,6.563v7.871H201.562z M193.847,275.788c-1.86,1.637-2.785,3.68-2.785,6.122   c0,2.443,0.73,4.374,2.189,5.793c1.45,1.424,4.227,2.79,8.311,4.102v-18.919C198.279,273.18,195.707,274.146,193.847,275.788z    M216.868,323.734c2.038-1.673,3.061-3.786,3.061-6.34c0-2.549-0.801-4.574-2.403-6.069c-1.611-1.495-4.601-2.897-8.97-4.209   v19.679C212.054,326.434,214.821,325.411,216.868,323.734z"/>
</g>
<g>
</g>
<g>
</g>
<g>
</g>
<g>
</g>
<g>
</g>
<g>
</g>
<g>
</g>
<g>
</g>
<g>
</g>
<g>
</g>
<g>
</g>
<g>
</g>
<g>
</g>
<g>
</g>
<g>
</g>
</svg>
