<?xml version="1.0" encoding="iso-8859-1"?>
<!-- Generator: Adobe Illustrator 19.0.0, SVG Export Plug-In . SVG Version: 6.00 Build 0)  -->
<svg xmlns="http://www.w3.org/2000/svg" xmlns:xlink="http://www.w3.org/1999/xlink" version="1.1" id="Layer_1" x="0px" y="0px" viewBox="0 0 512.267 512.267" style="enable-background:new 0 0 512.267 512.267;" xml:space="preserve">
<rect x="293.096" y="288.694" transform="matrix(-0.7071 0.7071 -0.7071 -0.7071 804.0687 332.8639)" style="fill:#E8EAE9;" width="79.999" height="88.532"/>
<path style="fill:#F3705A;" d="M316.533,415.733l75.733,75.733c27.733,27.733,71.467,27.733,99.2,0  c27.733-27.733,27.733-71.467,0-99.2l-75.733-75.733L316.533,415.733z"/>
<rect x="362.884" y="304.227" transform="matrix(0.7071 0.7071 -0.7071 0.7071 374.2466 -155.325)" style="fill:#F05540;" width="23.466" height="139.732"/>
<path style="fill:#F3705A;" d="M416.8,295.2L416.8,295.2c-6.4-6.4-17.067-7.467-23.467-1.067l-99.2,99.2  c-6.4,6.4-6.4,17.067,1.067,23.467l0,0c6.4,6.4,17.067,7.467,23.467,1.067l99.2-99.2C424.267,313.333,424.267,302.667,416.8,295.2z"/>
<circle style="fill:#8AD7F8;" cx="189.6" cy="189.6" r="165.333"/>
<path style="fill:#FFFFFF;" d="M241.867,97.867c-32-21.333-74.667-20.267-105.6,1.067c-7.467,5.333-9.6,17.067-2.133,23.467  c5.333,5.333,14.933,7.467,21.333,2.133c21.333-13.867,49.067-13.867,70.4,0c6.4,4.267,14.933,3.2,21.333-3.2  C252.533,114.933,249.333,103.2,241.867,97.867z"/>
<path style="fill:#415A6B;" d="M322.933,322.933c-73.6,73.6-194.133,73.6-267.733,0S-18.4,128.8,55.2,55.2s194.133-73.6,267.733,0  S396.533,249.333,322.933,322.933z M89.333,89.333c-54.4,54.4-54.4,144,0,199.467s144,54.4,199.467,0s54.4-144,0-199.467  S144.8,34.933,89.333,89.333z"/>
<g>
</g>
<g>
</g>
<g>
</g>
<g>
</g>
<g>
</g>
<g>
</g>
<g>
</g>
<g>
</g>
<g>
</g>
<g>
</g>
<g>
</g>
<g>
</g>
<g>
</g>
<g>
</g>
<g>
</g>
</svg>
