<?xml version="1.0" encoding="iso-8859-1"?>
<!-- Generator: Adobe Illustrator 19.0.0, SVG Export Plug-In . SVG Version: 6.00 Build 0)  -->
<svg xmlns="http://www.w3.org/2000/svg" xmlns:xlink="http://www.w3.org/1999/xlink" version="1.1" id="Layer_1" x="0px" y="0px" viewBox="0 0 512.428 512.428" style="enable-background:new 0 0 512.428 512.428;" xml:space="preserve">
<path style="fill:#FFD15C;" d="M332.481,141.014h-153.6c-7.467,0-13.867,4.267-14.933,11.733l-30.933,109.867  c-3.2,10.667,4.267,20.267,14.933,20.267h215.467c10.667,0,18.133-9.6,14.933-20.267l-30.933-109.867  C345.281,145.281,338.881,141.014,332.481,141.014z"/>
<path style="fill:#F7B64C;" d="M378.347,262.614l-30.933-109.867c-1.067-4.267-4.267-7.467-7.467-9.6L136.214,276.481  c3.2,3.2,7.467,5.333,11.733,5.333h215.467C374.081,282.881,381.547,272.214,378.347,262.614z"/>
<path id="SVGCleanerId_0" style="fill:#FFD15C;" d="M199.147,297.814H46.614c-7.467,0-13.867,4.267-14.933,11.733L0.747,420.481  c-3.2,10.667,4.267,20.267,14.933,20.267h215.467c10.667,0,18.133-9.6,14.933-20.267l-30.933-110.933  C213.014,303.147,206.614,297.814,199.147,297.814z"/>
<g>
	<path id="SVGCleanerId_0_1_" style="fill:#FFD15C;" d="M199.147,297.814H46.614c-7.467,0-13.867,4.267-14.933,11.733L0.747,420.481   c-3.2,10.667,4.267,20.267,14.933,20.267h215.467c10.667,0,18.133-9.6,14.933-20.267l-30.933-110.933   C213.014,303.147,206.614,297.814,199.147,297.814z"/>
</g>
<path style="fill:#F7B64C;" d="M246.081,420.481l-30.933-110.933c-1.067-4.267-4.267-7.467-7.467-9.6l-204.8,134.4  c3.2,3.2,7.467,6.4,12.8,6.4h215.467C241.814,440.747,249.281,430.081,246.081,420.481z"/>
<path style="fill:#FFD15C;" d="M464.747,297.814H312.214c-7.467,0-13.867,4.267-14.933,11.733l-30.933,109.867  c-3.2,10.667,4.267,20.267,14.933,20.267h215.467c10.667,0,18.133-9.6,14.933-20.267l-32-109.867  C477.547,303.147,471.147,297.814,464.747,297.814z"/>
<path style="fill:#F7B64C;" d="M510.614,420.481l-30.933-110.933c-1.067-4.267-4.267-7.467-7.467-9.6l-203.733,134.4  c3.2,3.2,7.467,5.333,11.733,5.333h215.467C506.347,440.747,513.814,430.081,510.614,420.481z"/>
<g>
	<polygon style="fill:#F3F3F3;" points="319.681,150.614 338.881,176.214 313.281,157.014 305.814,213.547 298.347,157.014    272.747,176.214 291.947,150.614 235.414,143.147 291.947,135.681 272.747,110.081 298.347,129.281 305.814,71.681    313.281,129.281 338.881,110.081 319.681,135.681 377.281,143.147  "/>
	<polygon style="fill:#F3F3F3;" points="157.547,288.214 170.347,305.281 153.281,292.481 147.947,329.814 143.681,292.481    125.547,305.281 139.414,288.214 101.014,282.881 139.414,277.547 125.547,260.481 143.681,273.281 147.947,234.881    153.281,273.281 170.347,260.481 157.547,277.547 195.947,282.881  "/>
</g>
<g>
</g>
<g>
</g>
<g>
</g>
<g>
</g>
<g>
</g>
<g>
</g>
<g>
</g>
<g>
</g>
<g>
</g>
<g>
</g>
<g>
</g>
<g>
</g>
<g>
</g>
<g>
</g>
<g>
</g>
</svg>
