<?xml version="1.0" encoding="iso-8859-1"?>
<!-- Generator: Adobe Illustrator 19.0.0, SVG Export Plug-In . SVG Version: 6.00 Build 0)  -->
<svg xmlns="http://www.w3.org/2000/svg" xmlns:xlink="http://www.w3.org/1999/xlink" version="1.1" id="Layer_1" x="0px" y="0px" viewBox="0 0 512 512" style="enable-background:new 0 0 512 512;" xml:space="preserve">
<path style="fill:#F3F3F3;" d="M0,130.133V480c0,18.133,13.867,32,32,32h356.267L512,388.267V130.133H0z"/>
<path style="fill:#ADB3BA;" d="M512,388.267h-91.733c-18.133,0-32,13.867-32,32V512L512,388.267z"/>
<path style="fill:#66C6B9;" d="M512,130.133V32c0-18.133-13.867-32-32-32H32C13.867,0,0,13.867,0,32v98.133H512z"/>
<g>
	<circle style="fill:#FFFFFF;" cx="112" cy="65.067" r="26.667"/>
	<circle style="fill:#FFFFFF;" cx="400" cy="65.067" r="26.667"/>
</g>
<path style="fill:#344A5E;" d="M249.6,439.467V419.2c-25.6-3.2-49.067-13.867-69.333-32l20.267-24.533  c16,13.867,32,22.4,49.067,24.533v-55.467c-21.333-5.333-37.333-11.733-46.933-20.267s-14.933-20.267-14.933-37.333  s5.333-29.867,17.067-40.533c11.733-10.667,26.667-16,44.8-17.067v-13.867h18.133V217.6c21.333,1.067,40.533,8.533,58.667,21.333  L308.267,265.6c-12.8-8.533-25.6-14.933-40.533-16v53.333h1.067c21.333,5.333,37.333,11.733,48,20.267  c10.667,8.533,14.933,21.333,14.933,38.4s-6.4,29.867-18.133,40.533c-11.733,10.667-27.733,16-46.933,17.067v20.267L249.6,439.467  L249.6,439.467z M229.333,256c-5.333,4.267-7.467,9.6-7.467,16c0,6.4,2.133,11.733,5.333,14.933  c4.267,3.2,10.667,7.467,21.333,10.667v-49.067C241.067,248.533,234.667,251.733,229.333,256z M289.067,380.8  c5.333-4.267,7.467-9.6,7.467-16s-2.133-11.733-6.4-16s-11.733-7.467-23.467-10.667v51.2  C277.333,387.2,283.733,385.067,289.067,380.8z"/>
<g>
</g>
<g>
</g>
<g>
</g>
<g>
</g>
<g>
</g>
<g>
</g>
<g>
</g>
<g>
</g>
<g>
</g>
<g>
</g>
<g>
</g>
<g>
</g>
<g>
</g>
<g>
</g>
<g>
</g>
</svg>
