<?xml version="1.0" encoding="iso-8859-1"?>
<!-- Generator: Adobe Illustrator 19.0.0, SVG Export Plug-In . SVG Version: 6.00 Build 0)  -->
<svg xmlns="http://www.w3.org/2000/svg" xmlns:xlink="http://www.w3.org/1999/xlink" version="1.1" id="Layer_1" x="0px" y="0px" viewBox="0 0 512.167 512.167" style="enable-background:new 0 0 512.167 512.167;" xml:space="preserve">
<path style="fill:#344A5E;" d="M293.398,474.834c0,21.333-17.067,37.333-37.333,37.333c-21.333,0-37.333-17.067-37.333-37.333  H293.398z"/>
<path style="fill:#F3F3F3;" d="M328.598,366.034c5.333-26.667,20.267-52.267,41.6-70.4c35.2-32,56.533-77.867,55.467-129.067  c-2.133-88.533-73.6-162.133-162.133-166.4c-97.067-4.267-177.067,73.6-177.067,169.6c0,49.067,21.333,93.867,55.467,124.8  c21.333,19.2,36.267,43.733,41.6,71.467H328.598z"/>
<path style="fill:#FFD15C;" d="M245.398,362.834h21.333V198.567l42.667-42.667c4.267-4.267,4.267-10.667,0-14.933l0,0  c-4.267-4.267-10.667-4.267-14.933,0l-38.4,37.333l-38.4-38.4c-4.267-4.267-10.667-4.267-14.933,0s-4.267,10.667,0,14.933  l42.667,42.667V362.834z"/>
<path style="fill:#415A6B;" d="M183.531,366.034v85.333c0,12.8,10.667,22.4,22.4,22.4h99.2c12.8,0,22.4-10.667,22.4-22.4v-85.333  H183.531z"/>
<g>
	<path style="fill:#344A5E;" d="M165.398,383.101c1.067,9.6,9.6,16,19.2,14.933l150.4-17.067c9.6-1.067,16-9.6,14.933-19.2l0,0   c-1.067-9.6-9.6-16-19.2-14.933l-150.4,17.067C170.731,364.967,164.331,373.501,165.398,383.101L165.398,383.101z"/>
	<path style="fill:#344A5E;" d="M349.931,416.167c-1.067-9.6-9.6-16-19.2-14.933l-150.4,17.067c-9.6,1.067-16,9.6-14.933,19.2l0,0   c1.067,9.6,9.6,16,19.2,14.933l150.4-17.067C343.531,434.301,350.998,425.767,349.931,416.167L349.931,416.167z"/>
</g>
<g>
</g>
<g>
</g>
<g>
</g>
<g>
</g>
<g>
</g>
<g>
</g>
<g>
</g>
<g>
</g>
<g>
</g>
<g>
</g>
<g>
</g>
<g>
</g>
<g>
</g>
<g>
</g>
<g>
</g>
</svg>
