<?xml version="1.0" encoding="iso-8859-1"?>
<!-- Generator: Adobe Illustrator 19.0.0, SVG Export Plug-In . SVG Version: 6.00 Build 0)  -->
<svg xmlns="http://www.w3.org/2000/svg" xmlns:xlink="http://www.w3.org/1999/xlink" version="1.1" id="Layer_1" x="0px" y="0px" viewBox="0 0 512 512" style="enable-background:new 0 0 512 512;" xml:space="preserve">
<path style="fill:#E8EAE9;" d="M435.2,0H88.533c-18.133,0-32,13.867-32,32v448c0,18.133,13.867,32,32,32h347.733  c18.133,0,32-13.867,32-32V32C467.2,13.867,453.333,0,435.2,0z"/>
<g>
	<path style="fill:#415A6B;" d="M89.6,128H23.467C10.667,128,0,117.333,0,104.533l0,0c0-12.8,10.667-23.467,23.467-23.467h65.067   c12.8,0,23.467,10.667,23.467,23.467l0,0C113.067,117.333,102.4,128,89.6,128z"/>
	<path style="fill:#415A6B;" d="M89.6,430.933H23.467C10.667,430.933,0,420.267,0,407.467l0,0C0,394.667,10.667,384,23.467,384   h65.067c12.8,0,23.467,10.667,23.467,23.467l0,0C113.067,420.267,102.4,430.933,89.6,430.933z"/>
</g>
<path style="fill:#F3705A;" d="M501.333,110.933H467.2V45.867h34.133c5.333,0,10.667,4.267,10.667,10.667v44.8  C512,106.667,507.733,110.933,501.333,110.933z"/>
<path style="fill:#8AD7F8;" d="M501.333,203.733H467.2V137.6h34.133c5.333,0,10.667,4.267,10.667,10.667v44.8  C512,199.467,507.733,203.733,501.333,203.733z"/>
<path style="fill:#F3705A;" d="M501.333,296.533H467.2V230.4h34.133c5.333,0,10.667,4.267,10.667,10.667v44.8  C512,292.267,507.733,296.533,501.333,296.533z"/>
<path style="fill:#8AD7F8;" d="M501.333,389.333H467.2V323.2h34.133c5.333,0,10.667,4.267,10.667,10.667v44.8  C512,384,507.733,389.333,501.333,389.333z"/>
<circle style="fill:#FFFFFF;" cx="262.4" cy="256" r="115.2"/>
<g>
	<path style="fill:#F3705A;" d="M349.867,309.333c0-10.667-7.467-20.267-17.067-23.467C286.933,272,237.867,272,192,285.867   c-10.667,3.2-17.067,12.8-17.067,23.467v21.333C196.267,355.2,227.2,371.2,262.4,371.2s66.133-16,87.467-40.533V309.333z"/>
	<circle style="fill:#F3705A;" cx="262.4" cy="210.133" r="45.867"/>
</g>
<g>
</g>
<g>
</g>
<g>
</g>
<g>
</g>
<g>
</g>
<g>
</g>
<g>
</g>
<g>
</g>
<g>
</g>
<g>
</g>
<g>
</g>
<g>
</g>
<g>
</g>
<g>
</g>
<g>
</g>
</svg>
