<?xml version="1.0" encoding="iso-8859-1"?>
<!-- Generator: Adobe Illustrator 19.0.0, SVG Export Plug-In . SVG Version: 6.00 Build 0)  -->
<svg xmlns="http://www.w3.org/2000/svg" xmlns:xlink="http://www.w3.org/1999/xlink" version="1.1" id="Layer_1" x="0px" y="0px" viewBox="0 0 512 512" style="enable-background:new 0 0 512 512;" xml:space="preserve">
<path style="fill:#415A6B;" d="M500.267,173.867l10.667-26.667L486.4,124.8c1.067-6.4,1.067-12.8,0-19.2L512,83.2l-10.667-26.667  l-33.067,2.133c-4.267-5.333-8.533-9.6-12.8-13.867l2.133-34.133L430.933,0l-22.4,24.533c-6.4-1.067-12.8-1.067-19.2,0L366.933,0  l-26.667,10.667l1.067,34.133c-5.333,4.267-9.6,8.533-13.867,12.8l-34.133-2.133l-10.667,26.667l24.533,22.4  c-1.067,6.4-1.067,12.8,0,19.2l-25.6,22.4l10.667,26.667l33.067-2.133c4.267,5.333,8.533,9.6,13.867,13.867l-2.133,33.067  l26.667,10.667l22.4-24.533c6.4,1.067,12.8,1.067,19.2,0l22.4,25.6l26.667-10.667l-2.133-33.067  c5.333-4.267,9.6-8.533,13.867-13.867L500.267,173.867z M384,147.2c-18.133-7.467-26.667-28.8-19.2-45.867  c7.467-18.133,28.8-26.667,45.867-19.2c18.133,7.467,26.667,28.8,19.2,45.867C422.4,146.133,402.133,154.667,384,147.2z"/>
<path style="fill:#8AD7F8;" d="M334.933,317.867l36.267-30.933c-1.067-6.4-3.2-12.8-5.333-19.2l-46.933-8.533l-8.533-14.933l16-44.8  c-4.267-5.333-9.6-9.6-13.867-13.867l-44.8,16l-14.933-8.533l-8.533-46.933c-6.4-2.133-12.8-4.267-19.2-5.333l-30.933,36.267  h-17.067L146.133,140.8c-6.4,1.067-12.8,3.2-19.2,5.333l-8.533,46.933l-14.933,8.533l-44.8-16c-4.267,4.267-9.6,9.6-13.867,13.867  l16,44.8L52.267,259.2l-46.933,8.533c-2.133,6.4-4.267,12.8-5.333,19.2l36.267,30.933v17.067L0,365.867  c1.067,6.4,3.2,12.8,5.333,19.2l46.933,8.533l8.533,14.933l-16,44.8c4.267,5.333,9.6,9.6,13.867,13.867l44.8-16l14.933,8.533  l8.533,46.933c6.4,2.133,12.8,4.267,19.2,5.333l30.933-36.267h17.067L225.067,512c6.4-1.067,12.8-3.2,19.2-5.333l8.533-46.933  l14.933-8.533l44.8,16c5.333-4.267,9.6-8.533,13.867-13.867l-16-44.8l8.533-14.933l46.933-8.533c2.133-6.4,4.267-12.8,5.333-19.2  l-36.267-30.933V317.867z M185.6,440.533c-62.933,0-114.133-51.2-114.133-114.133s51.2-114.133,114.133-114.133  s114.133,51.2,114.133,114.133S248.533,440.533,185.6,440.533z"/>
<path style="fill:#F3F3F3;" d="M185.6,440.533c-62.933,0-114.133-51.2-114.133-114.133s51.2-114.133,114.133-114.133  s114.133,51.2,114.133,114.133S248.533,440.533,185.6,440.533z"/>
<g>
	<path style="fill:#F3705A;" d="M192,314.667V262.4c0-4.267-3.2-6.4-6.4-6.4c-4.267,0-6.4,3.2-6.4,6.4v52.267H192z"/>
	<path style="fill:#F3705A;" d="M228.267,320h-44.8v13.867h44.8c4.267,0,6.4-3.2,6.4-6.4C234.667,322.133,231.467,320,228.267,320z"/>
</g>
<path style="fill:#415A6B;" d="M185.6,343.467c-9.6,0-17.067-7.467-17.067-17.067c0-9.6,7.467-17.067,17.067-17.067  c9.6,0,17.067,7.467,17.067,17.067C202.667,336,195.2,343.467,185.6,343.467z"/>
<circle style="fill:#344A5E;" cx="185.6" cy="326.4" r="7.467"/>
<g>
	<circle style="fill:#CED6E0;" cx="185.6" cy="235.733" r="6.4"/>
	<circle style="fill:#CED6E0;" cx="185.6" cy="417.067" r="6.4"/>
	<circle style="fill:#CED6E0;" cx="276.267" cy="326.4" r="6.4"/>
	<circle style="fill:#CED6E0;" cx="94.933" cy="326.4" r="6.4"/>
</g>
<path style="fill:#344A5E;" d="M418.133,65.067c-27.733-11.733-59.733,1.067-70.4,28.8c-11.733,27.733,1.067,59.733,28.8,70.4  C404.267,176,436.267,163.2,448,135.467C458.667,107.733,445.867,75.733,418.133,65.067z M429.867,128  c-7.467,18.133-28.8,26.667-46.933,19.2c-18.133-7.467-26.667-28.8-19.2-45.867c7.467-18.133,28.8-26.667,45.867-19.2  C428.8,89.6,437.333,109.867,429.867,128z"/>
<g>
</g>
<g>
</g>
<g>
</g>
<g>
</g>
<g>
</g>
<g>
</g>
<g>
</g>
<g>
</g>
<g>
</g>
<g>
</g>
<g>
</g>
<g>
</g>
<g>
</g>
<g>
</g>
<g>
</g>
</svg>
