<?xml version="1.0" encoding="iso-8859-1"?>
<!-- Generator: Adobe Illustrator 19.0.0, SVG Export Plug-In . SVG Version: 6.00 Build 0)  -->
<svg xmlns="http://www.w3.org/2000/svg" xmlns:xlink="http://www.w3.org/1999/xlink" version="1.1" id="Layer_1" x="0px" y="0px" viewBox="0 0 512 512" style="enable-background:new 0 0 512 512;" xml:space="preserve">
<rect x="30.933" y="164.267" style="fill:#F3F3F3;" width="451.2" height="347.733"/>
<path style="fill:#F05540;" d="M64,237.867L64,237.867c-35.2,0-64-28.8-64-64v-40.533h128v40.533  C128,209.067,99.2,237.867,64,237.867z"/>
<path style="fill:#CED6E0;" d="M192,237.867L192,237.867c-35.2,0-64-28.8-64-64v-40.533h128v40.533  C256,209.067,227.2,237.867,192,237.867z"/>
<path style="fill:#F05540;" d="M320,237.867L320,237.867c-35.2,0-64-28.8-64-64v-40.533h128v40.533  C384,209.067,355.2,237.867,320,237.867z"/>
<path style="fill:#CED6E0;" d="M448,237.867L448,237.867c-35.2,0-64-28.8-64-64v-40.533h128v40.533  C512,209.067,483.2,237.867,448,237.867z"/>
<polygon style="fill:#F3705A;" points="128,133.333 0,133.333 75.733,0 166.4,0 "/>
<polygon style="fill:#E8EAE9;" points="256,133.333 128,133.333 166.4,0 256,0 "/>
<polygon style="fill:#F3705A;" points="384,133.333 256,133.333 256,0 345.6,0 "/>
<polygon style="fill:#E8EAE9;" points="512,133.333 384,133.333 345.6,0 436.267,0 "/>
<rect x="138.667" y="294.4" style="fill:#415A6B;" width="234.667" height="217.6"/>
<g>
	<rect x="160" y="315.733" style="fill:#8AD7F8;" width="89.6" height="196.267"/>
	<rect x="262.4" y="315.733" style="fill:#8AD7F8;" width="89.6" height="196.267"/>
</g>
<g>
	<path style="fill:#55C0EB;" d="M225.067,343.467L225.067,343.467c-2.133-2.133-5.333-2.133-7.467,0l-39.467,39.467   c-2.133,2.133-2.133,5.333,0,7.467l0,0c2.133,2.133,5.333,2.133,7.467,0l39.467-39.467C227.2,349.867,227.2,345.6,225.067,343.467z   "/>
	<path style="fill:#55C0EB;" d="M231.467,368L231.467,368c-2.133-2.133-5.333-2.133-7.467,0l-21.333,21.333   c-2.133,2.133-2.133,5.333,0,7.467l0,0c2.133,2.133,5.333,2.133,7.467,0l21.333-21.333C233.6,373.333,233.6,370.133,231.467,368z"/>
	<path style="fill:#55C0EB;" d="M286.933,343.467L286.933,343.467c2.133-2.133,5.333-2.133,7.467,0l39.467,39.467   c2.133,2.133,2.133,5.333,0,7.467l0,0c-2.133,2.133-5.333,2.133-7.467,0l-39.467-39.467C284.8,349.867,284.8,345.6,286.933,343.467   z"/>
	<path style="fill:#55C0EB;" d="M280.533,368L280.533,368c2.133-2.133,5.333-2.133,7.467,0l21.333,21.333   c2.133,2.133,2.133,5.333,0,7.467l0,0c-2.133,2.133-5.333,2.133-7.467,0l-21.333-21.333C278.4,373.333,278.4,370.133,280.533,368z"/>
</g>
<g>
	<rect x="274.133" y="402.133" style="fill:#415A6B;" width="9.6" height="22.4"/>
	<rect x="229.333" y="402.133" style="fill:#415A6B;" width="9.6" height="22.4"/>
</g>
<g>
</g>
<g>
</g>
<g>
</g>
<g>
</g>
<g>
</g>
<g>
</g>
<g>
</g>
<g>
</g>
<g>
</g>
<g>
</g>
<g>
</g>
<g>
</g>
<g>
</g>
<g>
</g>
<g>
</g>
</svg>
