<?xml version="1.0" encoding="iso-8859-1"?>
<!-- Generator: Adobe Illustrator 19.0.0, SVG Export Plug-In . SVG Version: 6.00 Build 0)  -->
<svg xmlns="http://www.w3.org/2000/svg" xmlns:xlink="http://www.w3.org/1999/xlink" version="1.1" id="Layer_1" x="0px" y="0px" viewBox="0 0 512.727 512.727" style="enable-background:new 0 0 512.727 512.727;" xml:space="preserve">
<path style="fill:#E8EAE9;" d="M367.512,495.297l83.2-401.067c2.133-11.733-5.333-23.467-17.067-25.6l-323.2-68.267  C98.712-1.77,86.979,5.697,84.845,17.43L0.579,419.563c-2.133,11.733,5.333,23.467,17.067,25.6l324.267,67.2  C353.645,514.497,364.312,507.03,367.512,495.297z"/>
<path style="fill:#F3F3F3;" d="M314.179,482.497l98.133-96V51.563c0-11.733-9.6-21.333-21.333-21.333H60.312  c-11.733,0-21.333,9.6-21.333,21.333v409.6c0,11.733,9.6,21.333,21.333,21.333L314.179,482.497L314.179,482.497z"/>
<rect x="85.912" y="145.43" style="fill:#8AD7F8;" width="279.467" height="22.4"/>
<g>
	<rect x="85.912" y="213.697" style="fill:#CED6E0;" width="279.467" height="22.4"/>
	<rect x="85.912" y="281.963" style="fill:#CED6E0;" width="279.467" height="22.4"/>
	<rect x="85.912" y="351.297" style="fill:#CED6E0;" width="132.267" height="22.4"/>
	<polygon style="fill:#CED6E0;" points="314.179,482.497 412.312,386.497 314.179,386.497  "/>
</g>
<g>
	<path style="fill:#F3705A;" d="M104.045,104.897c4.267,0,6.4-1.067,9.6-4.267l5.333,5.333c-4.267,4.267-8.533,6.4-13.867,6.4   c-5.333,0-9.6-2.133-12.8-5.333c-3.2-3.2-5.333-7.467-5.333-12.8c0-5.333,2.133-9.6,5.333-12.8c3.2-3.2,7.467-5.333,12.8-5.333   c5.333,0,10.667,2.133,13.867,6.4l-4.267,5.333c-2.133-3.2-5.333-4.267-8.533-4.267s-5.333,1.067-7.467,3.2   c-3.2,2.133-4.267,4.267-4.267,7.467c0,3.2,1.067,5.333,3.2,7.467C99.779,103.83,101.912,104.897,104.045,104.897z"/>
	<path style="fill:#F3705A;" d="M152.045,107.03c-3.2,3.2-7.467,5.333-12.8,5.333c-5.333,0-9.6-2.133-12.8-5.333   s-5.333-7.467-5.333-12.8c0-5.333,2.133-9.6,5.333-12.8s7.467-5.333,12.8-5.333c5.333,0,9.6,2.133,12.8,5.333   c3.2,3.2,5.333,7.467,5.333,12.8C157.379,99.563,156.312,103.83,152.045,107.03z M149.912,94.23c0-3.2-1.067-5.333-3.2-7.467   s-4.267-3.2-7.467-3.2c-3.2,0-5.333,1.067-7.467,3.2s-3.2,4.267-3.2,7.467c0,3.2,1.067,5.333,3.2,7.467s4.267,3.2,7.467,3.2   c3.2,0,5.333-1.067,7.467-3.2C148.845,100.63,149.912,97.43,149.912,94.23z"/>
	<path style="fill:#F3705A;" d="M188.312,78.23h7.467v34.133h-7.467l-16-21.333v21.333h-7.467V78.23h6.4l17.067,22.4V78.23z"/>
	<path style="fill:#F3705A;" d="M218.179,84.63v27.733h-7.467V84.63h-9.6v-6.4h26.667v6.4H218.179z"/>
	<path style="fill:#F3705A;" d="M260.845,88.897c0,5.333-2.133,8.533-6.4,10.667l8.533,11.733h-9.6l-7.467-10.667h-5.333v10.667   h-7.467V78.23h12.8c5.333,0,9.6,1.067,11.733,3.2C259.779,82.497,260.845,84.63,260.845,88.897z M252.312,93.163   c1.067-1.067,1.067-2.133,1.067-4.267s0-3.2-1.067-4.267c-1.067-1.067-2.133-1.067-5.333-1.067h-5.333v9.6h5.333   C249.112,94.23,251.245,94.23,252.312,93.163z"/>
	<path style="fill:#F3705A;" d="M292.845,112.363l-3.2-7.467h-13.867l-3.2,7.467h-8.533l14.933-34.133h7.467l14.933,34.133H292.845z    M283.245,87.83l-4.267,9.6h8.533L283.245,87.83z"/>
	<path style="fill:#F3705A;" d="M320.579,104.897c4.267,0,6.4-1.067,9.6-4.267l5.333,5.333c-4.267,4.267-8.533,6.4-13.867,6.4   c-5.333,0-9.6-2.133-12.8-5.333c-3.2-3.2-5.333-7.467-5.333-12.8c0-5.333,2.133-9.6,5.333-12.8c3.2-3.2,7.467-5.333,12.8-5.333   c5.333,0,10.667,2.133,13.867,6.4l-4.267,5.333c-2.133-3.2-5.333-4.267-8.533-4.267s-5.333,1.067-7.467,3.2s-3.2,4.267-3.2,7.467   s1.067,5.333,3.2,7.467C315.245,103.83,318.445,104.897,320.579,104.897z"/>
	<path style="fill:#F3705A;" d="M355.779,84.63v27.733h-7.467V84.63h-9.6v-6.4h26.667v6.4H355.779z"/>
</g>
<path style="fill:#344A5E;" d="M83.779,450.497c-1.067,0-2.133-1.067-2.133-2.133c0-1.067,0-3.2,1.067-3.2  c7.467-3.2,12.8-9.6,14.933-14.933l-8.533-6.4c-2.133-2.133-4.267-3.2-6.4-6.4c-3.2-5.333-2.133-13.867,3.2-17.067  c5.333-4.267,13.867-3.2,18.133,2.133c4.267,4.267,5.333,10.667,2.133,20.267c-1.067,2.133-1.067,4.267-2.133,6.4  c2.133,1.067,5.333,2.133,6.4,2.133c1.067-1.067,3.2-2.133,4.267-4.267c2.133-2.133,4.267-5.333,7.467-5.333  c1.067,0,2.133,0,2.133,1.067c1.067,1.067,1.067,2.133,1.067,2.133c0,1.067,0,1.067,0,2.133c1.067,1.067,1.067,1.067,2.133,2.133  c2.133,0,4.267,0,6.4-2.133c1.067-1.067,2.133-1.067,2.133,0c1.067,0,1.067,1.067,2.133,2.133c1.067,2.133,4.267,4.267,7.467,3.2  c3.2,0,7.467-3.2,9.6-5.333c1.067-1.067,2.133-1.067,3.2,0c3.2,3.2,7.467,5.333,12.8,5.333c1.067,0,3.2,1.067,3.2,2.133  c0,1.067-1.067,3.2-2.133,3.2c-5.333,0-10.667-1.067-14.933-5.333c-3.2,2.133-6.4,4.267-10.667,4.267  c-4.267,1.067-8.533-1.067-11.733-4.267c-3.2,1.067-5.333,2.133-8.533,1.067c-2.133,0-4.267-2.133-6.4-4.267v-1.067  c-1.067,1.067-1.067,1.067-2.133,2.133c-2.133,2.133-3.2,4.267-6.4,5.333c-4.267,1.067-7.467,0-10.667-2.133  C97.645,441.963,91.245,448.363,83.779,450.497L83.779,450.497z M94.445,402.497c-2.133,0-3.2,0-4.267,1.067  c-3.2,2.133-4.267,7.467-2.133,10.667c1.067,2.133,3.2,3.2,5.333,4.267l7.467,5.333c1.067-2.133,1.067-3.2,1.067-4.267  c2.133-7.467,1.067-11.733-1.067-14.933C98.712,403.563,96.579,402.497,94.445,402.497z"/>
<path style="fill:#F3705A;" d="M269.379,369.43c17.067-9.6,34.133-20.267,50.133-32l183.467-147.2  c10.667-8.533,12.8-25.6,4.267-36.267c-8.533-10.667-25.6-12.8-36.267-4.267l-183.467,147.2c-14.933,12.8-28.8,27.733-42.667,42.667  L269.379,369.43z"/>
<path style="fill:#E8EAE9;" d="M246.979,337.43c-17.067,18.133-32,38.4-44.8,59.733c-1.067,1.067,0,3.2,2.133,2.133  c23.467-8.533,45.867-18.133,68.267-30.933L246.979,337.43z"/>
<g>
	<path style="fill:#344A5E;" d="M246.979,337.43c-17.067,18.133-32,38.4-44.8,59.733c-1.067,1.067,0,3.2,2.133,2.133   c23.467-8.533,45.867-18.133,68.267-30.933L246.979,337.43z"/>
	<polygon style="fill:#344A5E;" points="315.245,274.497 305.645,281.963 338.712,322.497 347.245,315.03  "/>
	<polygon style="fill:#344A5E;" points="473.112,216.897 438.979,173.163 454.979,159.297 490.179,203.03  "/>
	<path style="fill:#344A5E;" d="M413.379,286.23L413.379,286.23c-2.133-3.2-2.133-7.467,1.067-9.6l68.267-54.4l-12.8-16   l10.667-8.533l16,20.267c2.133,3.2,2.133,7.467-1.067,9.6l-73.6,58.667C419.779,289.43,415.512,289.43,413.379,286.23z"/>
</g>
<g>
</g>
<g>
</g>
<g>
</g>
<g>
</g>
<g>
</g>
<g>
</g>
<g>
</g>
<g>
</g>
<g>
</g>
<g>
</g>
<g>
</g>
<g>
</g>
<g>
</g>
<g>
</g>
<g>
</g>
</svg>
