<?xml version="1.0" encoding="iso-8859-1"?>
<!-- Generator: Adobe Illustrator 19.0.0, SVG Export Plug-In . SVG Version: 6.00 Build 0)  -->
<svg xmlns="http://www.w3.org/2000/svg" xmlns:xlink="http://www.w3.org/1999/xlink" version="1.1" id="Layer_1" x="0px" y="0px" viewBox="0 0 512 512" style="enable-background:new 0 0 512 512;" xml:space="preserve">
<path style="fill:#F3F3F3;" d="M365.867,0h-252.8L0,113.067V480c0,18.133,13.867,32,32,32h333.867c18.133,0,32-13.867,32-32V32  C397.867,13.867,382.933,0,365.867,0z"/>
<g>
	<rect x="52.267" y="356.267" style="fill:#CED6E0;" width="293.333" height="23.467"/>
	<rect x="52.267" y="281.6" style="fill:#CED6E0;" width="293.333" height="23.467"/>
	<rect x="52.267" y="206.933" style="fill:#CED6E0;" width="293.333" height="23.467"/>
	<rect x="52.267" y="132.267" style="fill:#CED6E0;" width="293.333" height="23.467"/>
	<rect x="155.733" y="57.6" style="fill:#CED6E0;" width="188.8" height="23.467"/>
</g>
<polygon style="fill:#66C6B9;" points="113.067,0 0,113.067 113.067,113.067 "/>
<path style="fill:#FFD15C;" d="M512,59.733v-6.4L372.267,84.267c0,0-26.667,25.6-25.6,26.667s86.4,43.733,86.4,43.733L512,149.333  V59.733z"/>
<path style="fill:#F7B64C;" d="M512,137.6v-35.2c-27.733,8.533-78.933,24.533-107.733,35.2H512L512,137.6z"/>
<path style="fill:#FFD15C;" d="M512,0L368,18.133C350.933,20.267,336,32,328.533,48c-10.667,25.6-26.667,64-34.133,78.933  c-11.733,23.467-5.333,54.4-5.333,54.4s-1.067,21.333,0,53.333c1.067,21.333,16,29.867,25.6,33.067  c5.333,2.133,11.733,3.2,18.133,1.067c8.533-2.133,19.2-8.533,29.867-29.867c13.867-29.867,2.133-80,2.133-80  c23.467-5.333,49.067-52.267,49.067-52.267C468.267,121.6,489.6,86.4,489.6,86.4c5.333,9.6,13.867,14.933,22.4,18.133V0z"/>
<path style="fill:#F7B64C;" d="M474.667,77.867c-23.467,23.467-62.933,22.4-85.333-2.133c-7.467-8.533-12.8-14.933-12.8-14.933  S387.2,77.867,390.4,88.533c8.533,27.733-11.733,58.667-48,52.267c-8.533-3.2-27.733-10.667-27.733-10.667s20.267,10.667,28.8,19.2  c8.533,9.6,9.6,23.467,9.6,35.2c0,10.667,1.067,22.4,1.067,33.067c0,6.4,0,11.733-2.133,18.133c-5.333,19.2-20.267,28.8-43.733,28.8  c2.133,1.067,4.267,2.133,6.4,3.2c5.333,2.133,11.733,3.2,18.133,1.067c8.533-2.133,19.2-8.533,29.867-29.867  c13.867-29.867,2.133-80,2.133-80c23.467-5.333,49.067-52.267,49.067-52.267C468.267,121.6,489.6,86.4,489.6,86.4  c5.333,9.6,13.867,14.933,22.4,18.133v-19.2c-1.067,0-1.067,0-2.133,0c-3.2,0-5.333,0-8.533-1.067  c-6.4-2.133-10.667-6.4-14.933-10.667c-4.267-4.267-6.4-8.533-8.533-13.867C481.067,65.067,478.933,72.533,474.667,77.867  C474.667,76.8,474.667,77.867,474.667,77.867z"/>
<path style="fill:#415A6B;" d="M353.067,300.8c-22.4,13.867-21.333,27.733-20.267,34.133l67.2,19.2  c5.333-4.267,12.8-17.067,1.067-39.467c-11.733-22.4,19.2-58.667,36.267-76.8c13.867-13.867,24.533-32,29.867-51.2c0,0,0,0,0-1.067  c17.067-66.133-83.2-93.867-103.467-28.8c0,0,0,0,0,1.067c-5.333,19.2-5.333,39.467-1.067,58.667  C366.933,241.067,374.4,288,353.067,300.8z"/>
<g>
	<path style="fill:#344A5E;" d="M452.267,134.4H451.2c0,1.067-1.067,2.133-2.133,2.133c-2.133,0-4.267-1.067-4.267-3.2   c-1.067,0-1.067,0-2.133,0c-8.533,8.533-19.2,14.933-29.867,22.4S392.533,172.8,387.2,185.6c-3.2,8.533-3.2,18.133-6.4,26.667   c-1.067,4.267-3.2,8.533-7.467,8.533s-7.467-4.267-8.533-7.467c-1.067-3.2-2.133-6.4-3.2-9.6c-2.133-6.4-4.267-12.8-4.267-19.2   c4.267-49.067,56.533-51.2,81.067-57.6C444.8,128,448,131.2,452.267,134.4z"/>
	<path style="fill:#344A5E;" d="M359.467,187.733c0,0-8.533,52.267,53.333,78.933c7.467-11.733,17.067-21.333,24.533-28.8   c4.267-4.267,7.467-8.533,11.733-13.867L359.467,187.733z"/>
	<path style="fill:#344A5E;" d="M467.2,413.867L467.2,413.867c5.333-20.267-6.4-42.667-26.667-48l-148.267-41.6   c-20.267-5.333-42.667,6.4-48,26.667l0,0L467.2,413.867z"/>
</g>
<rect x="343.648" y="286.578" transform="matrix(0.2702 -0.9628 0.9628 0.2702 -118.6394 624.6384)" style="fill:#F3705A;" width="18.133" height="207.999"/>
<path style="fill:#FFD15C;" d="M512,112c-35.2,10.667-103.467,33.067-121.6,39.467C362.667,163.2,362.667,195.2,365.867,211.2  c4.267,17.067,20.267,39.467,72.533,35.2c0,0,39.467,1.067,73.6-2.133V112z"/>
<path style="fill:#FFFFFF;" d="M411.733,158.933C394.667,160,380.8,172.8,378.667,189.867c-1.067,5.333-1.067,10.667,0,18.133v1.067  c3.2,18.133,27.733,33.067,45.867,27.733l24.533-6.4c6.4-2.133,12.8-6.4,13.867-13.867c5.333-18.133,4.267-34.133-6.4-50.133  c-4.267-6.4-10.667-9.6-17.067-8.533C432,157.867,420.267,158.933,411.733,158.933z"/>
<g>
	<path style="fill:#F3705A;" d="M148.267,457.6l-2.133-5.333h-9.6L134.4,457.6h-5.333l9.6-22.4H144l9.6,22.4H148.267z    M141.867,441.6l-3.2,6.4H144L141.867,441.6z"/>
	<path style="fill:#F3705A;" d="M171.733,436.267c1.067,1.067,2.133,3.2,2.133,6.4c0,3.2-1.067,5.333-2.133,6.4   c-2.133,1.067-4.267,2.133-7.467,2.133h-3.2v6.4h-5.333v-22.4h8.533C167.467,434.133,170.667,435.2,171.733,436.267z    M168.533,445.867c1.067-1.067,1.067-2.133,1.067-3.2s0-2.133-1.067-3.2s-2.133-1.067-3.2-1.067h-3.2v7.467h3.2   C166.4,446.933,167.467,445.867,168.533,445.867z"/>
	<path style="fill:#F3705A;" d="M194.133,436.267c1.067,1.067,2.133,3.2,2.133,6.4c0,3.2-1.067,5.333-2.133,6.4   c-2.133,1.067-4.267,2.133-7.467,2.133h-3.2v6.4h-5.333v-22.4h8.533C189.867,434.133,193.067,435.2,194.133,436.267z    M190.933,445.867c1.067-1.067,1.067-2.133,1.067-3.2s0-2.133-1.067-3.2s-2.133-1.067-3.2-1.067h-3.2v7.467h3.2   C188.8,446.933,189.867,445.867,190.933,445.867z"/>
	<path style="fill:#F3705A;" d="M218.667,441.6c0,3.2-1.067,6.4-4.267,7.467l5.333,8.533h-6.4L208,450.133h-3.2v7.467h-5.333v-22.4   H208c3.2,0,6.4,1.067,7.467,2.133C218.667,437.333,218.667,439.467,218.667,441.6z M213.333,444.8   c1.067-1.067,1.067-1.067,1.067-3.2c0-1.067,0-2.133-1.067-2.133c-1.067,0-2.133-1.067-3.2-1.067h-4.267v6.4h3.2   C211.2,445.867,212.267,445.867,213.333,444.8z"/>
	<path style="fill:#F3705A;" d="M243.2,454.4c-2.133,2.133-5.333,3.2-8.533,3.2s-6.4-1.067-8.533-3.2   c-2.133-2.133-3.2-5.333-3.2-8.533s1.067-6.4,3.2-8.533c2.133-2.133,5.333-3.2,8.533-3.2s6.4,1.067,8.533,3.2   c2.133,2.133,3.2,5.333,3.2,8.533C246.4,449.067,245.333,452.267,243.2,454.4z M241.067,445.867c0-2.133-1.067-4.267-2.133-5.333   s-3.2-2.133-5.333-2.133c-2.133,0-3.2,1.067-5.333,2.133c-1.067,1.067-2.133,3.2-2.133,5.333s1.067,4.267,2.133,5.333   c1.067,1.067,3.2,2.133,5.333,2.133c2.133,0,3.2-1.067,5.333-2.133C241.067,449.067,241.067,448,241.067,445.867z"/>
	<path style="fill:#F3705A;" d="M259.2,449.067l5.333-14.933h5.333l-9.6,22.4H256l-9.6-22.4h5.333L259.2,449.067z"/>
	<path style="fill:#F3705A;" d="M289.067,434.133v4.267h-11.733v4.267H288V448h-10.667v4.267h11.733v4.267H272v-22.4   L289.067,434.133L289.067,434.133z"/>
	<path style="fill:#F3705A;" d="M311.467,437.333c2.133,2.133,3.2,4.267,3.2,8.533c0,3.2-1.067,6.4-3.2,8.533s-5.333,3.2-9.6,3.2   H294.4v-22.4h8.533C306.133,434.133,309.333,435.2,311.467,437.333z M308.267,451.2c1.067-1.067,2.133-3.2,2.133-5.333   s-1.067-4.267-2.133-5.333c-1.067-1.067-3.2-2.133-5.333-2.133h-3.2v13.867h3.2C305.067,453.333,307.2,452.267,308.267,451.2z"/>
	<path style="fill:#F3705A;" d="M318.933,468.267H125.867c-4.267,0-7.467-3.2-7.467-7.467v-29.867c0-4.267,3.2-7.467,7.467-7.467   h193.067c4.267,0,7.467,3.2,7.467,7.467V460.8C325.333,465.067,322.133,468.267,318.933,468.267z M125.867,426.667   c-2.133,0-4.267,2.133-4.267,4.267V460.8c0,2.133,2.133,4.267,4.267,4.267h193.067c2.133,0,4.267-2.133,4.267-4.267v-29.867   c0-2.133-2.133-4.267-4.267-4.267H125.867z"/>
</g>
<g>
</g>
<g>
</g>
<g>
</g>
<g>
</g>
<g>
</g>
<g>
</g>
<g>
</g>
<g>
</g>
<g>
</g>
<g>
</g>
<g>
</g>
<g>
</g>
<g>
</g>
<g>
</g>
<g>
</g>
</svg>
