<?xml version="1.0" encoding="iso-8859-1"?>
<!-- Generator: Adobe Illustrator 19.0.0, SVG Export Plug-In . SVG Version: 6.00 Build 0)  -->
<svg xmlns="http://www.w3.org/2000/svg" xmlns:xlink="http://www.w3.org/1999/xlink" version="1.1" id="Layer_1" x="0px" y="0px" viewBox="0 0 512 512" style="enable-background:new 0 0 512 512;" xml:space="preserve">
<path style="fill:#8AD7F8;" d="M512,171.733H0V480c0,18.133,13.867,32,32,32h448c18.133,0,32-13.867,32-32V171.733z"/>
<rect x="64" y="235.733" style="fill:#FFFFFF;" width="384" height="212.267"/>
<path style="fill:#F3F3F3;" d="M512,85.333V32c0-18.133-13.867-32-32-32H32C13.867,0,0,13.867,0,32v53.333H512z"/>
<g>
	<path style="fill:#415A6B;" d="M32,0C13.867,0,0,13.867,0,32v53.333h8.533L64,0H32z"/>
	<polygon style="fill:#415A6B;" points="125.867,0 71.467,85.333 134.4,85.333 188.8,0  "/>
	<polygon style="fill:#415A6B;" points="251.733,0 197.333,85.333 260.267,85.333 314.667,0  "/>
	<polygon style="fill:#415A6B;" points="377.6,0 323.2,85.333 386.133,85.333 440.533,0  "/>
	<path style="fill:#415A6B;" d="M499.2,6.4l-50.133,78.933H512l0,0V32C512,21.333,506.667,12.8,499.2,6.4z"/>
</g>
<rect y="85.333" style="fill:#E8EAE9;" width="512" height="85.333"/>
<g>
	<polygon style="fill:#344A5E;" points="8.533,85.333 62.933,171.733 0,171.733 0,171.733 0,85.333  "/>
	<polygon style="fill:#344A5E;" points="125.867,171.733 71.467,85.333 134.4,85.333 188.8,171.733  "/>
	<polygon style="fill:#344A5E;" points="251.733,171.733 197.333,85.333 260.267,85.333 314.667,171.733  "/>
	<polygon style="fill:#344A5E;" points="377.6,171.733 323.2,85.333 386.133,85.333 440.533,171.733  "/>
	<polygon style="fill:#344A5E;" points="503.467,171.733 449.067,85.333 512,85.333 512,86.4 512,171.733  "/>
</g>
<g>
	<rect x="110.933" y="293.333" style="fill:#E8EAE9;" width="291.2" height="23.467"/>
	<rect x="110.933" y="366.933" style="fill:#E8EAE9;" width="291.2" height="23.467"/>
</g>
<g>
</g>
<g>
</g>
<g>
</g>
<g>
</g>
<g>
</g>
<g>
</g>
<g>
</g>
<g>
</g>
<g>
</g>
<g>
</g>
<g>
</g>
<g>
</g>
<g>
</g>
<g>
</g>
<g>
</g>
</svg>
