<?xml version="1.0" encoding="iso-8859-1"?>
<!-- Generator: Adobe Illustrator 19.0.0, SVG Export Plug-In . SVG Version: 6.00 Build 0)  -->
<svg xmlns="http://www.w3.org/2000/svg" xmlns:xlink="http://www.w3.org/1999/xlink" version="1.1" id="Layer_1" x="0px" y="0px" viewBox="0 0 512 512" style="enable-background:new 0 0 512 512;" xml:space="preserve">
<path style="fill:#415A6B;" d="M154.138,238.933v-86.4c0-56.533,45.867-102.4,102.4-102.4s102.4,45.867,102.4,102.4v86.4h49.067  v-86.4C409.072,68.267,340.805,0,256.538,0S104.005,68.267,104.005,152.533v86.4L154.138,238.933L154.138,238.933z"/>
<g>
	<path style="fill:#E8EAE9;" d="M255.472,512c102.4,0,185.6-83.2,185.6-185.6v-99.2c0-28.8-23.467-53.333-53.333-53.333l0,0   c-29.867,0-54.4,23.467-54.4,53.333c-51.2-7.467-103.467-7.467-153.6,0c0-28.8-24.533-53.333-54.4-53.333s-54.4,23.467-54.4,53.333   v99.2C69.872,428.8,153.072,512,255.472,512L255.472,512z"/>
</g>
<path style="fill:#415A6B;" d="M273.605,365.867l16,42.667h-66.133l16-42.667c-9.6-5.333-16-16-16-27.733  c0-18.133,14.933-33.067,33.067-33.067c18.133,0,33.067,14.933,33.067,33.067C289.605,349.867,283.205,360.533,273.605,365.867z"/>
<g>
</g>
<g>
</g>
<g>
</g>
<g>
</g>
<g>
</g>
<g>
</g>
<g>
</g>
<g>
</g>
<g>
</g>
<g>
</g>
<g>
</g>
<g>
</g>
<g>
</g>
<g>
</g>
<g>
</g>
</svg>
