<?xml version="1.0" encoding="iso-8859-1"?>
<!-- Generator: Adobe Illustrator 19.0.0, SVG Export Plug-In . SVG Version: 6.00 Build 0)  -->
<svg xmlns="http://www.w3.org/2000/svg" xmlns:xlink="http://www.w3.org/1999/xlink" version="1.1" id="Layer_1" x="0px" y="0px" viewBox="0 0 512.644 512.644" style="enable-background:new 0 0 512.644 512.644;" xml:space="preserve">
<path style="fill:#CED6E0;" d="M359.828,328.707L246.761,378.84l37.333,56.533l52.267-48  C331.028,366.04,339.561,342.573,359.828,328.707z"/>
<path style="fill:#F3705A;" d="M305.428,512.173l65.067-65.067c23.467-23.467,36.267-55.467,36.267-88.533  c-33.067,0-65.067,12.8-88.533,36.267l-65.067,65.067L305.428,512.173z"/>
<path style="fill:#CED6E0;" d="M120.894,176.173l-42.667,53.333l56.533,36.267l50.133-113.067  C168.894,174.04,143.294,182.573,120.894,176.173z"/>
<path style="fill:#F3705A;" d="M0.361,207.107l65.067-65.067c23.467-23.467,55.467-36.267,88.533-36.267  c0,33.067-12.8,65.067-36.267,88.533l-65.067,65.067L0.361,207.107z"/>
<g>
	
		<rect x="275.85" y="440.988" transform="matrix(-0.7071 0.7071 -0.7071 -0.7071 829.6926 611.9062)" style="fill:#FFD15C;" width="24.533" height="73.599"/>
	
		<rect x="22.428" y="187.135" transform="matrix(-0.7071 0.7071 -0.7071 -0.7071 217.5742 357.7481)" style="fill:#FFD15C;" width="24.533" height="73.599"/>
</g>
<path style="fill:#F3F3F3;" d="M208.361,415.107C551.828,284.973,510.228-3.027,511.294,1.24  c4.267,1.067-283.733-39.467-413.867,302.933L208.361,415.107z"/>
<g>
	<path style="fill:#415A6B;" d="M108.094,279.64c-3.2,8.533-6.4,16-9.6,24.533L209.428,414.04c8.533-3.2,17.067-6.4,24.533-9.6   L108.094,279.64z"/>
	<circle style="fill:#415A6B;" cx="302.228" cy="210.307" r="73.6"/>
</g>
<circle style="fill:#8AD7F8;" cx="302.228" cy="210.307" r="55.467"/>
<g>
	<path style="fill:#55C0EB;" d="M340.628,249.773V170.84c-6.4-6.4-13.867-9.6-21.333-12.8v104.533   C327.828,259.373,334.228,255.107,340.628,249.773z"/>
	<path style="fill:#55C0EB;" d="M294.761,155.907v108.8c4.267,1.067,8.533,1.067,12.8,0V154.84   C303.294,154.84,299.028,154.84,294.761,155.907z"/>
</g>
<path style="fill:#FFD15C;" d="M332.094,33.24l146.133,146.133c4.267-8.533,7.467-17.067,10.667-24.533L356.628,23.64  C349.161,26.84,340.628,30.04,332.094,33.24z"/>
<path style="fill:#F3705A;" d="M488.894,154.84c32-86.4,22.4-155.733,22.4-153.6c2.133,0-67.2-8.533-153.6,22.4L488.894,154.84z"/>
<path style="fill:#FFD15C;" d="M137.961,455.64c-22.4,22.4-137.6,56.533-137.6,56.533s34.133-115.2,56.533-137.6  c22.4-22.4,58.667-22.4,80,0C159.294,396.973,159.294,433.24,137.961,455.64z"/>
<path style="fill:#F7B64C;" d="M137.961,421.507c-12.8,12.8-80,33.067-80,33.067s20.267-67.2,33.067-80  c12.8-12.8,34.133-12.8,46.933,0C150.761,387.373,150.761,408.707,137.961,421.507z"/>
<g>
</g>
<g>
</g>
<g>
</g>
<g>
</g>
<g>
</g>
<g>
</g>
<g>
</g>
<g>
</g>
<g>
</g>
<g>
</g>
<g>
</g>
<g>
</g>
<g>
</g>
<g>
</g>
<g>
</g>
</svg>
