<?xml version="1.0" encoding="iso-8859-1"?>
<!-- Generator: Adobe Illustrator 19.0.0, SVG Export Plug-In . SVG Version: 6.00 Build 0)  -->
<svg xmlns="http://www.w3.org/2000/svg" xmlns:xlink="http://www.w3.org/1999/xlink" version="1.1" id="Layer_1" x="0px" y="0px" viewBox="0 0 512.146 512.146" style="enable-background:new 0 0 512.146 512.146;" xml:space="preserve">
<path style="fill:#F3F3F3;" d="M123.733,512.073L0,388.34V32.073c0-18.133,13.867-32,32-32h334.933c18.133,0,32,13.867,32,32v448  c0,18.133-13.867,32-32,32H123.733z"/>
<polygon style="fill:#8AD7F8;" points="123.733,512.073 0,388.34 123.733,388.34 "/>
<path style="fill:#415A6B;" d="M93.867,191.007C93.867,191.007,92.8,191.007,93.867,191.007c-3.2,0-5.333-3.2-5.333-6.4  C96,129.14,144,87.54,199.467,87.54s103.467,41.6,110.933,97.067c0,3.2-2.133,5.333-4.267,6.4c-3.2,0-5.333-2.133-6.4-4.267  c-6.4-50.133-50.133-87.467-100.267-87.467S105.6,136.607,99.2,186.74C98.133,188.873,96,191.007,93.867,191.007z"/>
<rect x="76.8" y="87.54" style="fill:#344A5E;" width="246.4" height="10.667"/>
<g>
	<path style="fill:#415A6B;" d="M184.533,310.473L184.533,310.473c-50.133-6.4-89.6-45.867-96-96c0-3.2,2.133-5.333,4.267-6.4   c3.2,0,5.333,2.133,6.4,4.267c6.4,44.8,41.6,80,86.4,86.4c3.2,0,5.333,3.2,4.267,6.4   C189.867,309.407,187.733,310.473,184.533,310.473z"/>
	<path style="fill:#415A6B;" d="M214.4,310.473c-2.133,0-5.333-2.133-5.333-4.267c0-3.2,2.133-5.333,4.267-6.4   c44.8-6.4,80-41.6,86.4-86.4c0-3.2,3.2-5.333,6.4-4.267c3.2,0,5.333,3.2,4.267,6.4C304,264.607,264.533,304.073,214.4,310.473   L214.4,310.473z"/>
	<rect x="184.533" y="77.94" style="fill:#415A6B;" width="28.8" height="28.8"/>
	<rect x="61.867" y="77.94" style="fill:#415A6B;" width="28.8" height="28.8"/>
	<rect x="308.267" y="77.94" style="fill:#415A6B;" width="28.8" height="28.8"/>
	<path style="fill:#415A6B;" d="M99.2,193.14v12.8H86.4v-12.8H99.2 M107.733,185.673h-28.8v28.8h28.8V185.673L107.733,185.673z"/>
	<path style="fill:#415A6B;" d="M312.533,193.14v12.8h-12.8v-12.8H312.533 M321.067,185.673h-28.8v28.8h28.8V185.673   L321.067,185.673z"/>
	<path style="fill:#415A6B;" d="M205.867,299.807v12.8h-12.8v-12.8H205.867 M214.4,292.34h-28.8v28.8h28.8V292.34L214.4,292.34z"/>
</g>
<path style="fill:#FFD15C;" d="M324.267,91.807L284.8,307.273l41.6,43.733l147.2-46.933l8.533-59.733L324.267,91.807z   M387.2,287.007c-9.6,3.2-19.2-2.133-22.4-11.733s2.133-19.2,11.733-22.4c9.6-3.2,19.2,2.133,22.4,11.733  C401.067,274.207,395.733,284.873,387.2,287.007z"/>
<path style="fill:#F05540;" d="M505.6,315.807c-4.267-11.733-16-18.133-28.8-14.933l-154.667,51.2  c-11.733,4.267-18.133,16-14.933,28.8c4.267,11.733,16,18.133,28.8,14.933l154.667-51.2C502.4,340.34,508.8,327.54,505.6,315.807z"/>
<rect x="342.419" y="368.034" transform="matrix(-0.9519 0.3063 -0.3063 -0.9519 950.8386 655.1202)" style="fill:#F3705A;" width="163.195" height="68.264"/>
<g>
</g>
<g>
</g>
<g>
</g>
<g>
</g>
<g>
</g>
<g>
</g>
<g>
</g>
<g>
</g>
<g>
</g>
<g>
</g>
<g>
</g>
<g>
</g>
<g>
</g>
<g>
</g>
<g>
</g>
</svg>
