<?xml version="1.0" encoding="iso-8859-1"?>
<!-- Generator: Adobe Illustrator 19.0.0, SVG Export Plug-In . SVG Version: 6.00 Build 0)  -->
<svg xmlns="http://www.w3.org/2000/svg" xmlns:xlink="http://www.w3.org/1999/xlink" version="1.1" id="Layer_1" x="0px" y="0px" viewBox="0 0 512 512" style="enable-background:new 0 0 512 512;" xml:space="preserve">
<path style="fill:#415A6B;" d="M427.733,70.4H84.267c-17.067,0-30.933,12.8-30.933,29.867v381.867c0,16,13.867,29.867,30.933,29.867  H428.8c17.067,0,29.867-13.867,29.867-29.867V100.267C458.667,83.2,444.8,70.4,427.733,70.4z"/>
<path style="fill:#FFFFFF;" d="M99.2,466.133V115.2h313.6v350.933H99.2z"/>
<g>
	<rect x="145.067" y="395.733" style="fill:#CED6E0;" width="221.867" height="24.533"/>
	<rect x="240" y="305.067" style="fill:#CED6E0;" width="126.933" height="24.533"/>
</g>
<path style="fill:#8AD7F8;" d="M168.533,326.4l-19.2-19.2c-4.267-4.267-4.267-11.733,0-16l0,0c4.267-4.267,11.733-4.267,16,0  l11.733,11.733l28.8-28.8c4.267-4.267,11.733-4.267,16,0l0,0c4.267,4.267,4.267,11.733,0,16l-37.333,37.333  C179.2,330.667,172.8,330.667,168.533,326.4z"/>
<rect x="240" y="213.333" style="fill:#CED6E0;" width="126.933" height="24.533"/>
<path style="fill:#F3705A;" d="M168.533,234.667l-19.2-19.2c-4.267-4.267-4.267-11.733,0-16l0,0c4.267-4.267,11.733-4.267,16,0  l11.733,11.733l28.8-28.8c4.267-4.267,11.733-4.267,16,0l0,0c4.267,4.267,4.267,11.733,0,16l-37.333,36.267  C179.2,238.933,172.8,238.933,168.533,234.667z"/>
<path style="fill:#FFD15C;" d="M347.733,138.667V69.333c0-10.667-8.533-19.2-19.2-19.2h-22.4C306.133,22.4,283.733,0,256,0  s-50.133,22.4-50.133,50.133h-22.4c-10.667,0-19.2,8.533-19.2,19.2v69.333H347.733z"/>
<g>
</g>
<g>
</g>
<g>
</g>
<g>
</g>
<g>
</g>
<g>
</g>
<g>
</g>
<g>
</g>
<g>
</g>
<g>
</g>
<g>
</g>
<g>
</g>
<g>
</g>
<g>
</g>
<g>
</g>
</svg>
