<?xml version="1.0" encoding="iso-8859-1"?>
<!-- Generator: Adobe Illustrator 19.0.0, SVG Export Plug-In . SVG Version: 6.00 Build 0)  -->
<svg xmlns="http://www.w3.org/2000/svg" xmlns:xlink="http://www.w3.org/1999/xlink" version="1.1" id="Layer_1" x="0px" y="0px" viewBox="0 0 512 512" style="enable-background:new 0 0 512 512;" xml:space="preserve">
<path style="fill:#E8EAE9;" d="M292.267,512c88.533,0,163.2-70.4,164.267-158.933c0-114.133-124.8-212.267-200.533-212.267  S55.467,238.933,55.467,353.067C56.533,440.533,131.2,512,219.733,512H292.267z"/>
<path style="fill:#CED6E0;" d="M456.533,353.067C455.467,440.533,380.8,512,292.267,512H240c88.533,0,163.2-77.867,164.267-174.933  c0-72.533-41.6-138.667-91.733-182.4C381.867,185.6,456.533,264.533,456.533,353.067z"/>
<path style="fill:#E8EAE9;" d="M296.533,130.133H268.8l0,0h-27.733l0,0h-27.733C204.8,108.8,110.933,68.267,125.867,28.8  c7.467-20.267,67.2-27.733,85.333-16c13.867-17.067,72.533-17.067,85.333,0c18.133-11.733,77.867-4.267,85.333,16  C398.933,68.267,305.067,108.8,296.533,130.133z"/>
<g>
	<path style="fill:#415A6B;" d="M313.6,114.133c-20.267,0-41.6,0-62.933,0c-17.067,0-34.133,0-51.2,0c-5.333,0-9.6,4.267-9.6,9.6   c0,5.333,4.267,9.6,9.6,9.6l0,0c2.133,0,4.267,0,5.333,0c-2.133,1.067-4.267,4.267-5.333,7.467   c-1.067,5.333,3.2,10.667,8.533,11.733c16,2.133,32,4.267,48,4.267s32-1.067,48-4.267c5.333-1.067,9.6-6.4,8.533-11.733   c0-3.2-2.133-5.333-5.333-7.467c2.133,0,4.267,0,5.333,0c5.333,0,9.6-4.267,9.6-9.6C323.2,118.4,318.933,114.133,313.6,114.133z"/>
	<path style="fill:#415A6B;" d="M295.467,145.067H275.2c0,13.867,0,50.133,0,52.267c0,5.333,4.267,9.6,9.6,9.6s9.6-4.267,9.6-9.6   C295.467,194.133,295.467,160,295.467,145.067z"/>
	<path style="fill:#415A6B;" d="M269.867,124.8H249.6c0,16,0,42.667,0,43.733c0,5.333,4.267,9.6,9.6,9.6c5.333,0,9.6-4.267,9.6-9.6   C269.867,166.4,269.867,141.867,269.867,124.8z"/>
</g>
<path style="fill:#F7B64C;" d="M245.333,453.333V435.2C224,432,204.8,422.4,186.667,406.4l23.467-28.8  c12.8,11.733,24.533,19.2,35.2,22.4v-37.333C227.2,358.4,214.4,352,206.933,344.533c-8.533-7.467-12.8-18.133-12.8-33.067  c0-13.867,4.267-26.667,13.867-35.2c9.6-9.6,21.333-14.933,37.333-17.067v-12.8H272v12.8c17.067,2.133,33.067,9.6,50.133,21.333  l-20.267,28.8C291.2,301.867,281.6,296.533,272,294.4v36.267c18.133,4.267,32,10.667,40.533,19.2c8.533,7.467,12.8,19.2,12.8,33.067  S320,409.6,310.4,419.2c-9.6,9.6-22.4,14.933-38.4,17.067V454.4h-26.667V453.333z M245.333,293.333  c-7.467,2.133-10.667,7.467-10.667,13.867c0,6.4,3.2,11.733,10.667,14.933V293.333z M284.8,385.067c0-3.2-1.067-6.4-3.2-8.533  c-2.133-2.133-5.333-4.267-9.6-6.4v30.933C280.533,397.867,284.8,392.533,284.8,385.067z"/>
<g>
</g>
<g>
</g>
<g>
</g>
<g>
</g>
<g>
</g>
<g>
</g>
<g>
</g>
<g>
</g>
<g>
</g>
<g>
</g>
<g>
</g>
<g>
</g>
<g>
</g>
<g>
</g>
<g>
</g>
</svg>
