<?xml version="1.0" encoding="iso-8859-1"?>
<!-- Generator: Adobe Illustrator 19.0.0, SVG Export Plug-In . SVG Version: 6.00 Build 0)  -->
<svg xmlns="http://www.w3.org/2000/svg" xmlns:xlink="http://www.w3.org/1999/xlink" version="1.1" id="Layer_1" x="0px" y="0px" viewBox="0 0 512 512" style="enable-background:new 0 0 512 512;" xml:space="preserve">
<path style="fill:#F3F3F3;" d="M26.667,0h268.8l118.4,118.4v366.933c0,14.933-11.733,26.667-26.667,26.667H26.667  C11.733,512,0,500.267,0,485.333V26.667C0,11.733,11.733,0,26.667,0z"/>
<g>
	<rect x="42.667" y="289.067" style="fill:#CED6E0;" width="327.467" height="23.467"/>
	<rect x="42.667" y="363.733" style="fill:#CED6E0;" width="327.467" height="23.467"/>
	<rect x="42.667" y="438.4" style="fill:#CED6E0;" width="327.467" height="23.467"/>
	<polygon style="fill:#CED6E0;" points="295.467,0 412.8,118.4 295.467,118.4  "/>
</g>
<path style="fill:#FFD15C;" d="M156.8,32v101.333H54.4C54.4,77.867,100.267,32,156.8,32z"/>
<path style="fill:#F3705A;" d="M168.533,43.733c56.533,0,101.333,45.867,101.333,101.333S224,246.4,168.533,246.4  C140.8,246.4,115.2,234.667,96,216.533L168.533,144L168.533,43.733L168.533,43.733z"/>
<path style="fill:#55C0EB;" d="M144,146.133l-72.533,72.533c-17.067-19.2-28.8-44.8-28.8-72.533H144z"/>
<path style="fill:#415A6B;" d="M500.267,292.267c7.467,3.2,11.733,10.667,11.733,19.2V387.2c0,60.8-43.733,112-102.4,123.733  c-2.133,0-5.333,0-7.467,0C342.4,500.267,299.733,448,299.733,387.2v-75.733c0-8.533,4.267-16,11.733-19.2  C371.2,266.667,439.467,266.667,500.267,292.267z"/>
<path style="fill:#8AD7F8;" d="M326.4,392.533c0-1.067,0-3.2,0-4.267V316.8c25.6-10.667,52.267-16,78.933-16v91.733L326.4,392.533  L326.4,392.533z"/>
<g>
	<path style="fill:#FFFFFF;" d="M405.333,300.8L405.333,300.8c26.667,0,54.4,5.333,78.933,16v71.467c0,1.067,0,3.2,0,4.267h-78.933   V300.8z"/>
	<path style="fill:#FFFFFF;" d="M405.333,392.533v91.733l0,0c-44.8-8.533-76.8-45.867-78.933-91.733L405.333,392.533   L405.333,392.533z"/>
</g>
<path style="fill:#8AD7F8;" d="M484.267,392.533c-2.133,45.867-34.133,83.2-78.933,91.733v-91.733L484.267,392.533L484.267,392.533z  "/>
<g>
</g>
<g>
</g>
<g>
</g>
<g>
</g>
<g>
</g>
<g>
</g>
<g>
</g>
<g>
</g>
<g>
</g>
<g>
</g>
<g>
</g>
<g>
</g>
<g>
</g>
<g>
</g>
<g>
</g>
</svg>
