<?xml version="1.0" encoding="iso-8859-1"?>
<!-- Generator: Adobe Illustrator 19.0.0, SVG Export Plug-In . SVG Version: 6.00 Build 0)  -->
<svg xmlns="http://www.w3.org/2000/svg" xmlns:xlink="http://www.w3.org/1999/xlink" version="1.1" id="Layer_1" x="0px" y="0px" viewBox="0 0 512 512" style="enable-background:new 0 0 512 512;" xml:space="preserve">
<path style="fill:#415A6B;" d="M434.64,0H78.373c-18.133,0-32,13.867-32,32v448c0,18.133,13.867,32,32,32h355.2  c18.133,0,32-13.867,32-32V32C466.64,13.867,451.706,0,434.64,0z"/>
<rect x="89.04" y="57.6" style="fill:#FFFFFF;" width="333.867" height="359.467"/>
<circle style="fill:#344A5E;" cx="256.506" cy="465.067" r="23.467"/>
<rect x="131.706" y="301.867" style="fill:#F3705A;" width="30.933" height="72.533"/>
<rect x="186.106" y="250.667" style="fill:#FFD15C;" width="30.933" height="123.733"/>
<rect x="240.506" y="326.4" style="fill:#66C6B9;" width="30.933" height="48"/>
<rect x="295.973" y="247.467" style="fill:#415A6B;" width="30.933" height="126.933"/>
<rect x="350.373" y="194.133" style="fill:#CED6E0;" width="30.933" height="180.267"/>
<path style="fill:#F3705A;" d="M333.306,136.533l11.733,11.733l-88.533,87.467L209.573,188.8c-4.267-4.267-10.667-4.267-14.933,0  l-70.4,70.4l14.933,14.933l61.867-61.867l46.933,46.933c4.267,4.267,10.667,4.267,14.933,0l94.933-94.933L369.573,176l13.867-51.2  L333.306,136.533z"/>
<g>
</g>
<g>
</g>
<g>
</g>
<g>
</g>
<g>
</g>
<g>
</g>
<g>
</g>
<g>
</g>
<g>
</g>
<g>
</g>
<g>
</g>
<g>
</g>
<g>
</g>
<g>
</g>
<g>
</g>
</svg>
