<?xml version="1.0" encoding="iso-8859-1"?>
<!-- Generator: Adobe Illustrator 19.0.0, SVG Export Plug-In . SVG Version: 6.00 Build 0)  -->
<svg xmlns="http://www.w3.org/2000/svg" xmlns:xlink="http://www.w3.org/1999/xlink" version="1.1" id="Layer_1" x="0px" y="0px" viewBox="0 0 512 512" style="enable-background:new 0 0 512 512;" xml:space="preserve">
<g>
	<path style="fill:#415A6B;" d="M77.867,200.533c0,0,104.533-10.667,178.133,92.8L229.333,310.4   C229.333,310.4,194.133,218.667,77.867,200.533z"/>
	<path style="fill:#415A6B;" d="M434.133,226.133c0,0-141.867,20.267-173.867,154.667l-32-3.2   C285.867,222.933,434.133,226.133,434.133,226.133z"/>
</g>
<path style="fill:#4EC0AA;" d="M379.733,252.8c-10.667-6.4-24.533-4.267-30.933,5.333l54.4,34.133  C403.2,293.333,390.4,260.267,379.733,252.8z"/>
<path style="fill:#66C6B9;" d="M403.2,293.333L348.8,259.2c-6.4,9.6-4.267,22.4,6.4,28.8C364.8,294.4,403.2,293.333,403.2,293.333z"/>
<path style="fill:#4EC0AA;" d="M363.733,195.2c-8.533,14.933-4.267,34.133,10.667,42.667L421.333,160  C421.333,160,372.267,180.267,363.733,195.2z"/>
<path style="fill:#66C6B9;" d="M421.333,160L374.4,237.867c14.933,8.533,34.133,4.267,42.667-10.667  C426.667,212.267,421.333,160,421.333,160z"/>
<path style="fill:#4EC0AA;" d="M121.6,217.6c7.467-6.4,19.2-5.333,24.533,1.067l-39.467,32C106.667,250.667,114.133,224,121.6,217.6  z"/>
<path style="fill:#66C6B9;" d="M106.667,250.667l39.467-32c6.4,6.4,5.333,17.067-2.133,23.467  C136.533,248.533,106.667,250.667,106.667,250.667z"/>
<path style="fill:#4EC0AA;" d="M128,169.6c8.533,10.667,6.4,26.667-4.267,35.2l-44.8-56.533  C78.933,148.267,119.467,158.933,128,169.6z"/>
<path style="fill:#66C6B9;" d="M78.933,148.267l44.8,56.533c-10.667,8.533-26.667,6.4-35.2-4.267  C81.067,189.867,78.933,148.267,78.933,148.267z"/>
<path style="fill:#F3705A;" d="M117.333,370.133l32,124.8c2.133,9.6,11.733,17.067,22.4,17.067h144c10.667,0,19.2-7.467,22.4-17.067  l32-124.8H117.333z"/>
<polygon style="fill:#F05540;" points="364.8,388.267 369.067,370.133 117.333,370.133 121.6,388.267 "/>
<path style="fill:#F3705A;" d="M373.333,321.067H113.067c-6.4,0-11.733,5.333-11.733,11.733v26.667  c0,6.4,5.333,11.733,11.733,11.733h260.267c6.4,0,11.733-5.333,11.733-11.733V332.8C384,325.333,379.733,321.067,373.333,321.067z"/>
<rect x="227.2" y="210.133" style="fill:#415A6B;" width="32" height="110.933"/>
<circle style="fill:#FFD15C;" cx="243.2" cy="113.067" r="113.067"/>
<circle style="fill:#F7B64C;" cx="243.2" cy="113.067" r="80"/>
<path style="fill:#FFD15C;" d="M237.867,167.467v-9.6c-10.667-2.133-21.333-6.4-30.933-14.933L218.667,128  c6.4,6.4,12.8,9.6,18.133,11.733v-19.2c-9.6-2.133-16-5.333-20.267-9.6c-3.2-4.267-5.333-10.667-5.333-18.133  c0-7.467,2.133-12.8,7.467-18.133c5.333-5.333,11.733-7.467,19.2-8.533v-6.4h13.867v6.4c8.533,1.067,17.067,5.333,25.6,10.667  l-10.667,14.933c-5.333-4.267-10.667-6.4-14.933-7.467v19.2c9.6,2.133,16,5.333,21.333,9.6c4.267,4.267,6.4,9.6,6.4,17.067  S277.333,144,272,148.267c-5.333,5.333-11.733,7.467-20.267,8.533v9.6h-13.867V167.467z M237.867,84.267  c-4.267,1.067-5.333,3.2-5.333,7.467c0,3.2,2.133,6.4,5.333,7.467V84.267z M258.133,132.267c0-2.133,0-3.2-1.067-4.267  c-1.067-1.067-3.2-2.133-5.333-3.2v16C256,138.667,258.133,135.467,258.133,132.267z"/>
<g>
</g>
<g>
</g>
<g>
</g>
<g>
</g>
<g>
</g>
<g>
</g>
<g>
</g>
<g>
</g>
<g>
</g>
<g>
</g>
<g>
</g>
<g>
</g>
<g>
</g>
<g>
</g>
<g>
</g>
</svg>
