<?xml version="1.0" encoding="iso-8859-1"?>
<!-- Generator: Adobe Illustrator 19.0.0, SVG Export Plug-In . SVG Version: 6.00 Build 0)  -->
<svg xmlns="http://www.w3.org/2000/svg" xmlns:xlink="http://www.w3.org/1999/xlink" version="1.1" id="Layer_1" x="0px" y="0px" viewBox="0 0 512 512" style="enable-background:new 0 0 512 512;" xml:space="preserve">
<rect x="245.333" y="402.133" style="fill:#CED6E0;" width="21.333" height="41.6"/>
<path style="fill:#F3F3F3;" d="M26.667,53.333V377.6c0,18.133,13.867,32,32,32h394.667c18.133,0,32-13.867,32-32V53.333H26.667z"/>
<path style="fill:#F3705A;" d="M485.333,53.333H26.667C11.733,53.333,0,40.533,0,26.667l0,0C0,11.733,11.733,0,26.667,0h458.667  C500.267,0,512,11.733,512,26.667l0,0C512,40.533,500.267,53.333,485.333,53.333z"/>
<path style="fill:#CED6E0;" d="M256,512c-21.333,0-39.467-18.133-39.467-39.467c0-21.333,18.133-39.467,39.467-39.467  s39.467,18.133,39.467,39.467C295.467,493.867,277.333,512,256,512z M256,454.4c-9.6,0-18.133,8.533-18.133,18.133  c0,9.6,8.533,18.133,18.133,18.133c9.6,0,18.133-8.533,18.133-18.133C274.133,462.933,265.6,454.4,256,454.4z"/>
<rect x="275.2" y="240" style="fill:#F3705A;" width="51.2" height="105.6"/>
<rect x="186.667" y="184.533" style="fill:#415A6B;" width="51.2" height="160"/>
<rect x="97.067" y="274.133" style="fill:#66C6B9;" width="51.2" height="70.4"/>
<rect x="363.733" y="112" style="fill:#8AD7F8;" width="51.2" height="232.533"/>
<g>
</g>
<g>
</g>
<g>
</g>
<g>
</g>
<g>
</g>
<g>
</g>
<g>
</g>
<g>
</g>
<g>
</g>
<g>
</g>
<g>
</g>
<g>
</g>
<g>
</g>
<g>
</g>
<g>
</g>
</svg>
