<?xml version="1.0" encoding="iso-8859-1"?>
<!-- Generator: Adobe Illustrator 19.0.0, SVG Export Plug-In . SVG Version: 6.00 Build 0)  -->
<svg xmlns="http://www.w3.org/2000/svg" xmlns:xlink="http://www.w3.org/1999/xlink" version="1.1" id="Layer_1" x="0px" y="0px" viewBox="0 0 512 512" style="enable-background:new 0 0 512 512;" xml:space="preserve">
<path style="fill:#E8EAE9;" d="M349.333,512h-185.6c-19.2,0-35.2-13.867-37.333-33.067L79.467,99.2h353.067L385.6,478.933  C383.467,498.133,367.467,512,349.333,512z"/>
<path style="fill:#415A6B;" d="M433.6,102.4H79.467c-11.733,0-21.333-9.6-21.333-21.333s9.6-21.333,21.333-21.333h353.067  c11.733,0,21.333,9.6,21.333,21.333S445.333,102.4,433.6,102.4z"/>
<path style="fill:#344A5E;" d="M394.133,0h-275.2c-10.667,0-19.2,6.4-23.467,16l-16,42.667h353.067l-16-42.667  C413.333,6.4,403.733,0,394.133,0z"/>
<polygon style="fill:#F05540;" points="397.333,388.267 417.6,224 95.467,224 115.733,388.267 "/>
<circle style="fill:#F3705A;" cx="256.533" cy="306.133" r="94.933"/>
<g>
	<path style="fill:#FFFFFF;" d="M250.133,306.133c0-28.8,26.667-44.8,42.667-53.333c-20.267-9.6-49.067-3.2-71.467,19.2   c-24.533,24.533-30.933,59.733-13.867,78.933C221.333,344.533,250.133,330.667,250.133,306.133z"/>
	<path style="fill:#FFFFFF;" d="M262.933,306.133c0,28.8-26.667,44.8-42.667,53.333c20.267,9.6,49.067,3.2,71.467-19.2   c24.533-24.533,30.933-59.733,13.867-78.933C291.733,266.667,262.933,281.6,262.933,306.133z"/>
</g>
<g>
</g>
<g>
</g>
<g>
</g>
<g>
</g>
<g>
</g>
<g>
</g>
<g>
</g>
<g>
</g>
<g>
</g>
<g>
</g>
<g>
</g>
<g>
</g>
<g>
</g>
<g>
</g>
<g>
</g>
</svg>
