<?xml version="1.0" encoding="iso-8859-1"?>
<!-- Generator: Adobe Illustrator 19.0.0, SVG Export Plug-In . SVG Version: 6.00 Build 0)  -->
<svg xmlns="http://www.w3.org/2000/svg" xmlns:xlink="http://www.w3.org/1999/xlink" version="1.1" id="Layer_1" x="0px" y="0px" viewBox="0 0 512.127 512.127" style="enable-background:new 0 0 512.127 512.127;" xml:space="preserve">
<path style="fill:#E8EAE9;" d="M270.004,0.127C147.337,4.394,51.337,109.994,51.337,232.661L8.67,332.927  c-4.267,10.667,3.2,22.4,14.933,22.4h27.733v68.267c0,17.067,13.867,30.933,30.933,30.933h50.133v57.6H357.47  c1.067-40.533,21.333-77.867,53.333-101.333c56.533-41.6,93.867-107.733,93.867-183.467l0,0  C504.67,99.327,399.07-4.139,270.004,0.127z"/>
<path style="fill:#8AD7F8;" d="M399.07,242.261v-41.6l-33.067-12.8c-1.067-3.2-2.133-6.4-4.267-9.6l13.867-33.067l-28.8-28.8  l-33.067,13.867c-3.2-1.067-6.4-2.133-9.6-4.267L290.27,91.861h-40.533l-12.8,34.133c-3.2,1.067-6.4,2.133-9.6,4.267l-33.067-14.933  l-28.8,28.8l13.867,33.067c-1.067,3.2-3.2,6.4-4.267,9.6l-34.133,12.8v41.6l34.133,12.8c1.067,3.2,2.133,6.4,4.267,9.6  l-13.867,33.067l28.8,28.8l33.067-13.867c3.2,1.067,6.4,2.133,9.6,4.267l12.8,34.133h40.533l13.867-34.133  c3.2-1.067,6.4-2.133,9.6-4.267l33.067,13.867l28.8-28.8l-13.867-33.067c1.067-3.2,3.2-6.4,4.267-9.6L399.07,242.261z   M271.07,259.327c-21.333,0-38.4-17.067-38.4-38.4s17.067-38.4,38.4-38.4s38.4,17.067,38.4,38.4  C308.404,242.261,291.337,259.327,271.07,259.327z"/>
<path style="fill:#55C0EB;" d="M271.07,156.927c-36.267,0-65.067,28.8-65.067,65.067s28.8,65.067,65.067,65.067  s65.067-28.8,65.067-65.067S306.27,156.927,271.07,156.927z M271.07,259.327c-21.333,0-38.4-17.067-38.4-38.4s17.067-38.4,38.4-38.4  s38.4,17.067,38.4,38.4C308.404,242.261,291.337,259.327,271.07,259.327z"/>
<g>
</g>
<g>
</g>
<g>
</g>
<g>
</g>
<g>
</g>
<g>
</g>
<g>
</g>
<g>
</g>
<g>
</g>
<g>
</g>
<g>
</g>
<g>
</g>
<g>
</g>
<g>
</g>
<g>
</g>
</svg>
