<?xml version="1.0" encoding="iso-8859-1"?>
<!-- Generator: Adobe Illustrator 19.0.0, SVG Export Plug-In . SVG Version: 6.00 Build 0)  -->
<svg xmlns="http://www.w3.org/2000/svg" xmlns:xlink="http://www.w3.org/1999/xlink" version="1.1" id="Layer_1" x="0px" y="0px" viewBox="0 0 511.72 511.72" style="enable-background:new 0 0 511.72 511.72;" xml:space="preserve">
<path style="fill:#8AD7F8;" d="M313.32,298.667L263.187,368c-27.733,38.4-81.067,46.933-119.467,19.2s-46.933-81.067-18.133-119.467  L175.72,198.4l-87.467-64l-51.2,68.267c-62.933,86.4-43.733,209.067,42.667,272S288.787,518.4,351.72,432l50.133-69.333  L313.32,298.667z"/>
<g>
	
		<rect x="342.153" y="246.513" transform="matrix(0.5894 -0.8079 0.8079 0.5894 -87.4887 429.7073)" style="fill:#E8EAE9;" width="73.604" height="108.805"/>
	
		<rect x="116.209" y="81.801" transform="matrix(0.5894 -0.8079 0.8079 0.5894 -47.203 179.5401)" style="fill:#E8EAE9;" width="73.603" height="108.805"/>
</g>
<g>
	<polygon style="fill:#FFD15C;" points="237.587,92.8 286.653,52.267 259.987,34.133 349.587,0 300.52,40.533 327.187,59.733  "/>
	<polygon style="fill:#FFD15C;" points="399.72,167.467 448.787,126.933 422.12,107.733 511.72,74.667 462.653,115.2    489.32,133.333  "/>
	<polygon style="fill:#FFD15C;" points="219.453,245.333 279.187,195.2 247.187,171.733 358.12,130.133 297.32,180.267    329.32,203.733  "/>
</g>
<g>
</g>
<g>
</g>
<g>
</g>
<g>
</g>
<g>
</g>
<g>
</g>
<g>
</g>
<g>
</g>
<g>
</g>
<g>
</g>
<g>
</g>
<g>
</g>
<g>
</g>
<g>
</g>
<g>
</g>
</svg>
