<?xml version="1.0" encoding="iso-8859-1"?>
<!-- Generator: Adobe Illustrator 19.0.0, SVG Export Plug-In . SVG Version: 6.00 Build 0)  -->
<svg xmlns="http://www.w3.org/2000/svg" xmlns:xlink="http://www.w3.org/1999/xlink" version="1.1" id="Layer_1" x="0px" y="0px" viewBox="0 0 512 512" style="enable-background:new 0 0 512 512;" xml:space="preserve">
<g>
	<path style="fill:#415A6B;" d="M93.867,512L93.867,512c-30.933,0-50.133-33.067-34.133-59.733l86.4-149.333h92.8l-109.867,188.8   C121.6,504.533,108.8,512,93.867,512z"/>
	<path style="fill:#415A6B;" d="M403.2,512L403.2,512c30.933,0,50.133-33.067,34.133-59.733l-86.4-149.333h-92.8L368,492.8   C375.467,504.533,388.267,512,403.2,512z"/>
</g>
<path style="fill:#66C6B9;" d="M248.533,482.133c-133.333,0-241.067-108.8-241.067-241.067S115.2,0,248.533,0  S489.6,107.733,489.6,241.067S381.867,482.133,248.533,482.133z"/>
<path style="fill:#FFFFFF;" d="M248.533,417.067c-97.067,0-176-78.933-176-176s78.933-176,176-176s176,78.933,176,176  S345.6,417.067,248.533,417.067z"/>
<path style="fill:#66C6B9;" d="M248.533,352c-60.8,0-110.933-50.133-110.933-110.933s50.133-110.933,110.933-110.933  s110.933,50.133,110.933,110.933S309.333,352,248.533,352z"/>
<circle style="fill:#FFFFFF;" cx="248.533" cy="241.067" r="45.867"/>
<polygon style="fill:#F3705A;" points="274.133,166.4 246.4,244.267 324.267,221.867 "/>
<path style="fill:#415A6B;" d="M307.2,202.667L488.533,34.133c4.267-4.267,4.267-10.667,1.067-16  c-4.267-4.267-10.667-4.267-16-1.067L292.267,185.6L307.2,202.667z"/>
<polygon style="fill:#F3705A;" points="418.133,84.267 453.333,98.133 504.533,50.133 468.267,37.333 457.6,0 406.4,46.933 "/>
<g>
</g>
<g>
</g>
<g>
</g>
<g>
</g>
<g>
</g>
<g>
</g>
<g>
</g>
<g>
</g>
<g>
</g>
<g>
</g>
<g>
</g>
<g>
</g>
<g>
</g>
<g>
</g>
<g>
</g>
</svg>
