<?xml version="1.0" encoding="iso-8859-1"?>
<!-- Generator: Adobe Illustrator 19.0.0, SVG Export Plug-In . SVG Version: 6.00 Build 0)  -->
<svg xmlns="http://www.w3.org/2000/svg" xmlns:xlink="http://www.w3.org/1999/xlink" version="1.1" id="Layer_1" x="0px" y="0px" viewBox="0 0 512.25 512.25" style="enable-background:new 0 0 512.25 512.25;" xml:space="preserve">
<path style="fill:#8AD7F8;" d="M441.05,71.86c-94.933-94.933-249.6-94.933-345.6,0l22.4,22.4c83.2-83.2,217.6-83.2,299.733,0  s83.2,217.6,0,299.733l22.4,22.4C535.984,321.46,535.984,166.793,441.05,71.86z"/>
<path style="fill:#F3705A;" d="M353.584,343.86l-32,32c-10.667,10.667-30.933,10.667-54.4,1.067s-51.2-28.8-76.8-53.333  c-51.2-51.2-74.667-109.867-53.333-131.2l32-32L35.717,25.993l-16,14.933C-33.616,94.26,25.05,238.26,149.85,363.06  c62.933,62.933,130.133,107.733,187.733,131.2c58.667,23.467,107.733,24.533,134.4-2.133l14.933-14.933L353.584,343.86z"/>
<g>
	<path style="fill:#E8EAE9;" d="M368.517,328.926l-19.2,19.2L482.65,481.46l19.2-19.2c13.867-13.867,13.867-35.2,0-49.067   l-85.333-85.333C403.717,315.06,382.384,315.06,368.517,328.926z"/>
	<path style="fill:#E8EAE9;" d="M50.65,9.993l-19.2,19.2l133.333,133.333l19.2-19.2c13.867-13.867,13.867-35.2,0-49.067L98.65,8.926   C85.85-2.807,63.45-2.807,50.65,9.993z"/>
</g>
<g>
	<path style="fill:#415A6B;" d="M236.25,208.393c3.2-4.267,5.333-8.533,5.333-12.8c0-4.267-1.067-7.467-4.267-10.667   c-3.2-3.2-6.4-4.267-10.667-4.267c-8.533,0-16,5.333-23.467,17.067l-23.467-13.867c6.4-9.6,12.8-16,20.267-21.333   s16-7.467,27.733-7.467s21.333,3.2,28.8,10.667c8.533,7.467,12.8,17.067,12.8,28.8c0,6.4-2.133,12.8-5.333,19.2   c-3.2,6.4-9.6,13.867-18.133,23.467l-23.467,24.533h51.2v25.6H181.85v-21.333l37.333-38.4   C226.65,219.06,231.984,213.726,236.25,208.393z"/>
	<path style="fill:#415A6B;" d="M340.784,231.86v-22.4h27.733v22.4h14.933v24.533h-14.933v30.933h-27.733v-30.933h-52.267V235.06   l45.867-75.733h30.933l-43.733,72.533H340.784z"/>
	<path style="fill:#415A6B;" d="M418.65,257.46v28.8h-14.933v-74.667h14.933v26.667c4.267-4.267,9.6-7.467,14.933-7.467   c5.333,0,10.667,2.133,13.867,6.4c4.267,4.267,5.333,9.6,5.333,16v33.067H437.85v-29.867c0-8.533-3.2-12.8-9.6-12.8   c-3.2,0-5.333,1.067-7.467,3.2C419.717,249.993,418.65,253.193,418.65,257.46z"/>
</g>
<g>
</g>
<g>
</g>
<g>
</g>
<g>
</g>
<g>
</g>
<g>
</g>
<g>
</g>
<g>
</g>
<g>
</g>
<g>
</g>
<g>
</g>
<g>
</g>
<g>
</g>
<g>
</g>
<g>
</g>
</svg>
