<?xml version="1.0" encoding="iso-8859-1"?>
<!-- Generator: Adobe Illustrator 19.0.0, SVG Export Plug-In . SVG Version: 6.00 Build 0)  -->
<svg xmlns="http://www.w3.org/2000/svg" xmlns:xlink="http://www.w3.org/1999/xlink" version="1.1" id="Layer_1" x="0px" y="0px" viewBox="0 0 511.928 511.928" style="enable-background:new 0 0 511.928 511.928;" xml:space="preserve">
<path style="fill:#415A6B;" d="M418.133,325.532c-36.267,0-87.467-21.333-132.267-50.133c-68.267-44.8-123.733-108.8-99.2-147.2  c8.533-12.8,27.733-25.6,73.6-14.933c30.933,7.467,66.133,23.467,101.333,45.867l0,0c68.267,44.8,123.733,108.8,99.2,147.2  C451.2,320.198,436.266,325.532,418.133,325.532z M229.333,139.932c-10.667,0-14.933,2.133-17.067,4.267  c-7.467,11.733,21.333,59.733,89.6,104.533c69.333,44.8,124.8,52.267,132.267,40.533c7.467-11.733-21.333-59.733-89.6-104.533l0,0  c-32-20.267-64-35.2-91.733-41.6C243.2,140.998,234.666,139.932,229.333,139.932z"/>
<path style="fill:#4EC0AA;" d="M468.266,366.065L338.133,88.732c-35.2-76.8-125.867-109.867-201.6-74.667  s-108.8,125.867-73.6,202.667l130.133,277.333c7.467,14.933,25.6,22.4,40.533,14.933l220.8-103.467  C469.333,399.132,475.733,380.999,468.266,366.065z M192,172.999c-21.333,0-38.4-17.067-38.4-38.4s17.067-38.4,38.4-38.4  s38.4,17.067,38.4,38.4C231.466,155.932,213.333,172.999,192,172.999z"/>
<path style="fill:#E8EAE9;" d="M193.066,2.332c-84.267,0-152.533,68.267-152.533,152.533v306.133  c0,17.067,13.867,30.933,30.933,30.933h243.2c17.067,0,30.933-13.867,30.933-30.933V154.865  C344.533,70.598,276.266,2.332,193.066,2.332z M192,172.999c-21.333,0-38.4-17.067-38.4-38.4s17.067-38.4,38.4-38.4  s38.4,17.067,38.4,38.4C231.466,155.932,213.333,172.999,192,172.999z"/>
<path style="fill:#415A6B;" d="M418.133,325.532c-36.267,0-87.467-21.333-132.267-50.133c-68.267-44.8-123.733-108.8-99.2-147.2  l25.6,17.067c-7.467,11.733,21.333,59.733,89.6,104.533c69.333,44.8,124.8,52.267,132.267,40.533l25.6,17.067  C451.2,320.198,436.266,325.532,418.133,325.532z"/>
<g>
</g>
<g>
</g>
<g>
</g>
<g>
</g>
<g>
</g>
<g>
</g>
<g>
</g>
<g>
</g>
<g>
</g>
<g>
</g>
<g>
</g>
<g>
</g>
<g>
</g>
<g>
</g>
<g>
</g>
</svg>
