<?xml version="1.0" encoding="iso-8859-1"?>
<!-- Generator: Adobe Illustrator 19.0.0, SVG Export Plug-In . SVG Version: 6.00 Build 0)  -->
<svg xmlns="http://www.w3.org/2000/svg" xmlns:xlink="http://www.w3.org/1999/xlink" version="1.1" id="Layer_1" x="0px" y="0px" viewBox="0 0 513.067 513.067" style="enable-background:new 0 0 513.067 513.067;" xml:space="preserve">
<polygon style="fill:#344A5E;" points="397.867,461.333 114.133,461.333 133.333,422.933 378.667,422.933 "/>
<g>
	<path style="fill:#415A6B;" d="M101.333,382.4l-38.4,75.733c-12.8,24.533,5.333,54.4,33.067,54.4l0,0   c13.867,0,26.667-7.467,33.067-20.267L184.533,382.4H101.333z"/>
	<path style="fill:#415A6B;" d="M410.667,382.4H326.4l55.467,109.867c6.4,12.8,19.2,20.267,33.067,20.267l0,0   c27.733,0,45.867-29.867,33.067-54.4L410.667,382.4z"/>
</g>
<g>
	<path style="fill:#F3705A;" d="M486.4,0.533H25.6C11.733,0.533,0,12.267,0,26.133s11.733,25.6,25.6,25.6h461.867   c13.867,0,25.6-11.733,25.6-25.6C512,12.267,500.267,0.533,486.4,0.533z"/>
	<path style="fill:#F3705A;" d="M486.4,345.067H25.6c-13.867,0-25.6,11.733-25.6,25.6c0,12.8,11.733,24.533,25.6,24.533h461.867   c13.867,0,25.6-11.733,25.6-25.6C512,355.733,500.267,345.067,486.4,345.067z"/>
</g>
<rect x="25.6" y="50.667" style="fill:#F3F3F3;" width="461.867" height="294.4"/>
<rect x="290.133" y="94.4" style="fill:#415A6B;" width="153.6" height="22.4"/>
<g>
	<rect x="290.133" y="155.2" style="fill:#CED6E0;" width="153.6" height="22.4"/>
	<rect x="290.133" y="217.067" style="fill:#CED6E0;" width="153.6" height="22.4"/>
	<rect x="290.133" y="278.933" style="fill:#CED6E0;" width="153.6" height="22.4"/>
</g>
<path style="fill:#F3705A;" d="M104.533,190.4c3.2-26.667,24.533-48,51.2-51.2V104c-46.933,3.2-84.267,40.533-87.467,87.467h36.267  V190.4z"/>
<path style="fill:#FFD15C;" d="M168.533,104v36.267c10.667,1.067,21.333,5.333,28.8,11.733l25.6-25.6  C208,113.6,189.867,105.067,168.533,104z"/>
<path style="fill:#8AD7F8;" d="M206.933,161.6c7.467,9.6,12.8,22.4,12.8,36.267c0,32-25.6,58.667-58.667,58.667  c-29.867,0-54.4-22.4-57.6-51.2h-35.2c3.2,49.067,44.8,87.467,93.867,87.467C214.4,292.8,256,250.133,256,198.933  c0-23.467-8.533-44.8-23.467-61.867L206.933,161.6z"/>
<g>
</g>
<g>
</g>
<g>
</g>
<g>
</g>
<g>
</g>
<g>
</g>
<g>
</g>
<g>
</g>
<g>
</g>
<g>
</g>
<g>
</g>
<g>
</g>
<g>
</g>
<g>
</g>
<g>
</g>
</svg>
