<?xml version="1.0" encoding="iso-8859-1"?>
<!-- Generator: Adobe Illustrator 19.0.0, SVG Export Plug-In . SVG Version: 6.00 Build 0)  -->
<svg xmlns="http://www.w3.org/2000/svg" xmlns:xlink="http://www.w3.org/1999/xlink" version="1.1" id="Layer_1" x="0px" y="0px" viewBox="0 0 512 512" style="enable-background:new 0 0 512 512;" xml:space="preserve">
<path style="fill:#344A5E;" d="M51.339,80l21.333-7.467l4.267,11.733l-16,5.333l33.067,91.733c1.067,3.2,0,6.4-3.2,7.467  c-3.2,1.067-6.4,0-7.467-3.2L47.072,87.467C46.005,84.267,48.139,81.067,51.339,80z"/>
<path style="fill:#415A6B;" d="M195.339,220.8L132.405,45.867c-6.4-19.2-27.733-28.8-45.867-21.333l0,0  c-19.2,6.4-28.8,27.733-21.333,45.867l54.4,150.4H195.339z"/>
<rect x="123.689" y="107.895" transform="matrix(0.3385 0.941 -0.941 0.3385 222.0608 -27.5464)" style="fill:#344A5E;" width="13.867" height="72.536"/>
<path style="fill:#F7B64C;" d="M291.339,89.6c0-2.133,0-3.2,0-5.333L244.405,0l-46.933,84.267c0,2.133,0,3.2,0,5.333H291.339z"/>
<polygon style="fill:#FFD15C;" points="262.539,89.6 261.472,80 244.405,0 227.339,80 226.272,89.6 "/>
<path style="fill:#F05540;" d="M292.405,220.8V84.267c-3.2,3.2-8.533,5.333-13.867,5.333c-7.467,0-13.867-4.267-17.067-9.6  c-3.2,5.333-9.6,9.6-17.067,9.6s-13.867-4.267-17.067-9.6c-3.2,5.333-9.6,9.6-17.067,9.6c-5.333,0-9.6-2.133-13.867-5.333V220.8  H292.405z"/>
<path style="fill:#F3705A;" d="M261.472,220.8V80c-3.2,5.333-9.6,9.6-17.067,9.6s-13.867-4.267-17.067-9.6v140.8H261.472z"/>
<path style="fill:#344A5E;" d="M227.339,30.933L244.405,0l17.067,30.933C250.805,37.333,238.005,37.333,227.339,30.933z"/>
<path style="fill:#415A6B;" d="M251.872,35.2L244.405,0l0,0l0,0l-7.467,35.2C242.272,36.267,246.539,36.267,251.872,35.2z"/>
<path style="fill:#8AD7F8;" d="M419.339,220.8l41.6-136.533c2.133-5.333-1.067-11.733-7.467-12.8l-85.333-25.6  c-5.333-2.133-11.733,1.067-12.8,7.467l-51.2,168.533h115.2V220.8z"/>
<g>
	
		<rect x="348.808" y="69.148" transform="matrix(-0.9563 -0.2925 0.2925 -0.9563 689.1685 256.2697)" style="fill:#55C0EB;" width="29.868" height="14.934"/>
	
		<rect x="338.164" y="104.547" transform="matrix(-0.9563 -0.2925 0.2925 -0.9563 648.6018 321.0025)" style="fill:#55C0EB;" width="20.267" height="14.934"/>
	
		<rect x="326.446" y="142.803" transform="matrix(-0.9563 -0.2925 0.2925 -0.9563 623.878 393.8192)" style="fill:#55C0EB;" width="29.868" height="14.934"/>
	
		<rect x="315.802" y="178.213" transform="matrix(-0.9563 -0.2925 0.2925 -0.9563 583.3082 458.5729)" style="fill:#55C0EB;" width="20.267" height="14.934"/>
</g>
<path style="fill:#E8EAE9;" d="M393.739,484.267l42.667-227.2H91.872l42.667,227.2c3.2,16,17.067,27.733,33.067,27.733h193.067  C376.672,512,391.605,500.267,393.739,484.267z"/>
<polygon style="fill:#CED6E0;" points="428.939,300.8 436.405,257.067 91.872,257.067 100.405,300.8 "/>
<path style="fill:#E8EAE9;" d="M436.405,268.8H91.872c-16,0-28.8-12.8-28.8-28.8s12.8-28.8,28.8-28.8h344.533  c16,0,28.8,12.8,28.8,28.8C465.205,256,452.405,268.8,436.405,268.8z"/>
<g>
</g>
<g>
</g>
<g>
</g>
<g>
</g>
<g>
</g>
<g>
</g>
<g>
</g>
<g>
</g>
<g>
</g>
<g>
</g>
<g>
</g>
<g>
</g>
<g>
</g>
<g>
</g>
<g>
</g>
</svg>
