<?xml version="1.0" encoding="iso-8859-1"?>
<!-- Generator: Adobe Illustrator 19.0.0, SVG Export Plug-In . SVG Version: 6.00 Build 0)  -->
<svg xmlns="http://www.w3.org/2000/svg" xmlns:xlink="http://www.w3.org/1999/xlink" version="1.1" id="Layer_1" x="0px" y="0px" viewBox="0 0 512 512" style="enable-background:new 0 0 512 512;" xml:space="preserve">
<g>
	<path style="fill:#66C6B9;" d="M456.533,512c12.8-45.867-73.6-87.467-200.533-87.467S42.667,466.133,55.467,512H456.533z"/>
	<circle style="fill:#66C6B9;" cx="256" cy="77.867" r="77.867"/>
</g>
<g>
	<path style="fill:#E8EAE9;" d="M343.467,147.2L343.467,147.2c0-13.867-11.733-25.6-25.6-25.6H194.133   c-13.867,0-25.6,11.733-25.6,25.6l0,0c0,13.867,11.733,25.6,25.6,25.6h124.8C331.733,172.8,343.467,161.067,343.467,147.2z"/>
	<path style="fill:#E8EAE9;" d="M410.667,419.2L410.667,419.2c0-13.867-11.733-25.6-25.6-25.6h-259.2   c-13.867,0-25.6,11.733-25.6,25.6l0,0c0,13.867,11.733,25.6,25.6,25.6h259.2C400,444.8,410.667,433.067,410.667,419.2z"/>
</g>
<path style="fill:#66C6B9;" d="M385.067,394.667H126.933c66.133-44.8,81.067-137.6,75.733-221.867h106.667  C304,257.067,318.933,349.867,385.067,394.667z"/>
<g>
</g>
<g>
</g>
<g>
</g>
<g>
</g>
<g>
</g>
<g>
</g>
<g>
</g>
<g>
</g>
<g>
</g>
<g>
</g>
<g>
</g>
<g>
</g>
<g>
</g>
<g>
</g>
<g>
</g>
</svg>
