<?xml version="1.0" encoding="iso-8859-1"?>
<!-- Generator: Adobe Illustrator 19.0.0, SVG Export Plug-In . SVG Version: 6.00 Build 0)  -->
<svg xmlns="http://www.w3.org/2000/svg" xmlns:xlink="http://www.w3.org/1999/xlink" version="1.1" id="Layer_1" x="0px" y="0px" viewBox="0 0 512 512" style="enable-background:new 0 0 512 512;" xml:space="preserve">
<path style="fill:#415A6B;" d="M480,194.133H32c-18.133,0-32,13.867-32,32v147.2c0,18.133,13.867,32,32,32h448  c18.133,0,32-13.867,32-32v-147.2C512,208,498.133,194.133,480,194.133z"/>
<g>
	<path style="fill:#344A5E;" d="M210.133,246.4L210.133,246.4c0-8.533-6.4-14.933-14.933-14.933H60.8   c-8.533,0-14.933,6.4-14.933,14.933l0,0c0,8.533,6.4,14.933,14.933,14.933h133.333C202.667,261.333,210.133,254.933,210.133,246.4z   "/>
	<path style="fill:#344A5E;" d="M210.133,298.667L210.133,298.667c0-8.533-6.4-14.933-14.933-14.933H60.8   c-8.533,0-14.933,6.4-14.933,14.933l0,0c0,8.533,6.4,14.933,14.933,14.933h133.333C202.667,314.667,210.133,307.2,210.133,298.667z   "/>
	<path style="fill:#344A5E;" d="M210.133,352L210.133,352c0-8.533-6.4-14.933-14.933-14.933H60.8c-8.533,0-14.933,6.4-14.933,14.933   l0,0c0,8.533,6.4,14.933,14.933,14.933h133.333C202.667,366.933,210.133,360.533,210.133,352z"/>
	<circle style="fill:#344A5E;" cx="355.2" cy="219.733" r="135.467"/>
</g>
<circle style="fill:#F3F3F3;" cx="355.2" cy="219.733" r="100.267"/>
<circle style="fill:#8AD7F8;" cx="355.2" cy="219.733" r="68.267"/>
<g>
	<rect x="46.933" y="404.267" style="fill:#344A5E;" width="68.267" height="23.467"/>
	<rect x="397.867" y="404.267" style="fill:#344A5E;" width="68.267" height="23.467"/>
</g>
<ellipse transform="matrix(0.7071 -0.7071 0.7071 0.7071 -23.7861 327.0592)" style="fill:#FFFFFF;" cx="382.902" cy="192.242" rx="11.733" ry="26.666"/>
<g>
</g>
<g>
</g>
<g>
</g>
<g>
</g>
<g>
</g>
<g>
</g>
<g>
</g>
<g>
</g>
<g>
</g>
<g>
</g>
<g>
</g>
<g>
</g>
<g>
</g>
<g>
</g>
<g>
</g>
</svg>
