<?xml version="1.0" encoding="iso-8859-1"?>
<!-- Generator: Adobe Illustrator 19.0.0, SVG Export Plug-In . SVG Version: 6.00 Build 0)  -->
<svg xmlns="http://www.w3.org/2000/svg" xmlns:xlink="http://www.w3.org/1999/xlink" version="1.1" id="Layer_1" x="0px" y="0px" viewBox="0 0 512 512" style="enable-background:new 0 0 512 512;" xml:space="preserve">
<rect x="17.067" y="350.933" style="fill:#66C6B9;" width="477.867" height="161.067"/>
<g>
	<rect x="17.067" y="350.933" style="fill:#4EC0AA;" width="477.867" height="14.933"/>
	<rect x="17.067" y="423.467" style="fill:#4EC0AA;" width="477.867" height="14.933"/>
	<rect x="17.067" y="497.067" style="fill:#4EC0AA;" width="477.867" height="14.933"/>
</g>
<path style="fill:#F3F3F3;" d="M480,167.467H32c-18.133,0-32-13.867-32-32V32C0,13.867,13.867,0,32,0h448c18.133,0,32,13.867,32,32  v103.467C512,153.6,498.133,167.467,480,167.467z"/>
<path style="fill:#415A6B;" d="M52.267,99.2L52.267,99.2c0,12.8,9.6,22.4,22.4,22.4h362.667c12.8,0,22.4-9.6,22.4-22.4l0,0  c0-12.8-9.6-22.4-22.4-22.4H74.667C61.867,77.867,52.267,87.467,52.267,99.2z"/>
<path style="fill:#66C6B9;" d="M87.467,99.2L19.2,256c-7.467,16,1.067,29.867,18.133,29.867H473.6  c17.067,0,25.6-13.867,18.133-29.867l-67.2-156.8H87.467z"/>
<path style="fill:#FFFFFF;" d="M82.133,203.733l23.467-67.2c20.267,0,39.467-11.733,42.667-25.6H361.6  c3.2,13.867,22.4,25.6,42.667,25.6l23.467,67.2c-23.467,0-37.333,17.067-32,38.4h-281.6  C120.533,219.733,105.6,203.733,82.133,203.733z"/>
<g>
	<path style="fill:#66C6B9;" d="M250.667,212.267v-8.533c-11.733-1.067-22.4-6.4-30.933-12.8l12.8-11.733   c6.4,5.333,12.8,7.467,18.133,9.6v-16c-8.533-2.133-14.933-4.267-19.2-7.467s-5.333-7.467-5.333-12.8c0-5.333,3.2-9.6,7.467-12.8   c4.267-3.2,10.667-5.333,17.067-5.333v-4.267h12.8v4.267c7.467,1.067,16,3.2,23.467,7.467l-9.6,10.667   c-5.333-3.2-9.6-4.267-13.867-5.333v13.867c8.533,2.133,16,4.267,20.267,7.467S291.2,176,291.2,182.4s-2.133,11.733-6.4,16   c-5.333,4.267-11.733,6.4-20.267,7.467v8.533h-13.867V212.267z M250.667,145.067c-5.333,1.067-8.533,3.2-8.533,6.4   c0,3.2,2.133,5.333,7.467,6.4L250.667,145.067z M274.133,182.4c0-2.133-1.067-3.2-2.133-4.267c-1.067-1.067-4.267-2.133-7.467-3.2   v14.933C270.933,188.8,274.133,185.6,274.133,182.4z"/>
	<path style="fill:#66C6B9;" d="M178.133,167.467C177.067,176,167.467,182.4,156.8,182.4c-10.667,0-17.067-6.4-14.933-14.933   C144,160,153.6,153.6,163.2,153.6C171.733,153.6,179.2,158.933,178.133,167.467z"/>
	<path style="fill:#66C6B9;" d="M371.2,167.467c2.133,8.533-4.267,14.933-14.933,14.933c-10.667,0-20.267-6.4-21.333-14.933   c-1.067-7.467,5.333-13.867,14.933-13.867S369.067,158.933,371.2,167.467z"/>
</g>
<g>
</g>
<g>
</g>
<g>
</g>
<g>
</g>
<g>
</g>
<g>
</g>
<g>
</g>
<g>
</g>
<g>
</g>
<g>
</g>
<g>
</g>
<g>
</g>
<g>
</g>
<g>
</g>
<g>
</g>
</svg>
