<?xml version="1.0" encoding="iso-8859-1"?>
<!-- Generator: Adobe Illustrator 19.0.0, SVG Export Plug-In . SVG Version: 6.00 Build 0)  -->
<svg xmlns="http://www.w3.org/2000/svg" xmlns:xlink="http://www.w3.org/1999/xlink" version="1.1" id="Layer_1" x="0px" y="0px" viewBox="0 0 512 512" style="enable-background:new 0 0 512 512;" xml:space="preserve">
<path style="fill:#F3705A;" d="M206.933,435.733l-25.6-109.867h-96l30.933,131.2c5.333,21.333,24.533,36.267,45.867,36.267  C190.933,493.333,213.333,465.6,206.933,435.733z"/>
<path style="fill:#415A6B;" d="M439.467,166.933c39.467,0,72.533,32,72.533,72.533S480,312,439.467,312"/>
<path style="fill:#F3705A;" d="M413.867,458.133c-14.933,0-26.667-11.733-26.667-26.667V45.333  c0-14.933,11.733-26.667,26.667-26.667s26.667,11.733,26.667,26.667v386.133C440.533,446.4,428.8,458.133,413.867,458.133z"/>
<path style="fill:#E8EAE9;" d="M193.067,143.467v189.867c83.2,20.267,161.067,65.067,194.133,98.133V45.333  C354.133,79.467,276.267,123.2,193.067,143.467z"/>
<path style="fill:#415A6B;" d="M200.533,342.933h-96C46.933,342.933,0,296,0,238.4l0,0c0-57.6,46.933-104.533,104.533-104.533h96  c5.333,0,10.667,4.267,10.667,10.667v188.8C211.2,338.667,206.933,342.933,200.533,342.933z"/>
<g>
</g>
<g>
</g>
<g>
</g>
<g>
</g>
<g>
</g>
<g>
</g>
<g>
</g>
<g>
</g>
<g>
</g>
<g>
</g>
<g>
</g>
<g>
</g>
<g>
</g>
<g>
</g>
<g>
</g>
</svg>
