<?xml version="1.0" encoding="iso-8859-1"?>
<!-- Generator: Adobe Illustrator 19.0.0, SVG Export Plug-In . SVG Version: 6.00 Build 0)  -->
<svg xmlns="http://www.w3.org/2000/svg" xmlns:xlink="http://www.w3.org/1999/xlink" version="1.1" id="Layer_1" x="0px" y="0px" viewBox="0 0 512 512" style="enable-background:new 0 0 512 512;" xml:space="preserve">
<path style="fill:#F7B64C;" d="M462.796,290.133V177.067c0-18.133-14.933-33.067-33.067-33.067H195.063l-20.267-37.333  C169.463,96,157.73,89.6,145.996,89.6H71.33c-18.133,0-33.067,14.933-33.067,33.067v167.467H462.796z"/>
<path style="fill:#F3F3F3;" d="M342.263,0l91.733,91.733v264.533H77.73V32c0-18.133,13.867-32,32-32H342.263z"/>
<polygon style="fill:#CED6E0;" points="342.263,0 433.996,91.733 342.263,91.733 "/>
<path style="fill:#FFD15C;" d="M510.796,252.8l-43.733,234.667c-3.2,13.867-16,24.533-30.933,24.533H64.93  c-14.933,0-27.733-10.667-30.933-25.6L0.93,310.4c-3.2-19.2,10.667-37.333,30.933-37.333h288l35.2-45.867  c6.4-7.467,14.933-11.733,24.533-11.733H480.93C500.13,215.467,515.063,233.6,510.796,252.8z"/>
<circle style="fill:#F3705A;" cx="255.863" cy="157.867" r="86.4"/>
<polygon style="fill:#F3F3F3;" points="223.863,109.867 223.863,205.867 300.663,157.867 "/>
<g>
</g>
<g>
</g>
<g>
</g>
<g>
</g>
<g>
</g>
<g>
</g>
<g>
</g>
<g>
</g>
<g>
</g>
<g>
</g>
<g>
</g>
<g>
</g>
<g>
</g>
<g>
</g>
<g>
</g>
</svg>
