<?xml version="1.0" encoding="iso-8859-1"?>
<!-- Generator: Adobe Illustrator 19.0.0, SVG Export Plug-In . SVG Version: 6.00 Build 0)  -->
<svg xmlns="http://www.w3.org/2000/svg" xmlns:xlink="http://www.w3.org/1999/xlink" version="1.1" id="Layer_1" x="0px" y="0px" viewBox="0 0 511.467 511.467" style="enable-background:new 0 0 511.467 511.467;" xml:space="preserve">
<g>
	<path style="fill:#66C6B9;" d="M138.4,511.467L138.4,511.467c-24.533,0-41.6-24.533-33.067-46.933l27.733-74.667h122.667   l-90.667,108.8C158.667,507.2,148,511.467,138.4,511.467z"/>
	<path style="fill:#66C6B9;" d="M373.067,511.467L373.067,511.467c24.533,0,41.6-24.533,33.067-46.933L378.4,389.867H255.733   l90.667,108.8C352.8,507.2,363.467,511.467,373.067,511.467z"/>
</g>
<rect x="66.895" y="83.002" transform="matrix(-0.7071 -0.7071 0.7071 -0.7071 99.729 239.3126)" style="fill:#344A5E;" width="65.066" height="32"/>
<path style="fill:#F3705A;" d="M158.667,27.2l-131.2,131.2C-8.8,122.133-8.8,63.467,27.467,27.2S122.4-9.067,158.667,27.2z"/>
<rect x="380.219" y="82.543" transform="matrix(0.7072 -0.7071 0.7071 0.7072 51.1964 320.6983)" style="fill:#344A5E;" width="65.071" height="32.002"/>
<g>
	<path style="fill:#F3705A;" d="M484,158.4L352.8,27.2c36.267-36.267,94.933-36.267,131.2,0S520.267,122.133,484,158.4z"/>
	<circle style="fill:#F3705A;" cx="255.733" cy="269.333" r="221.867"/>
</g>
<circle style="fill:#FFFFFF;" cx="255.733" cy="269.333" r="172.8"/>
<path style="fill:#66C6B9;" d="M343.2,344L218.4,219.2c-3.2-3.2-9.6-3.2-12.8,0l0,0c-3.2,3.2-3.2,9.6,0,12.8l124.8,124.8  c3.2,3.2,9.6,3.2,12.8,0l0,0C346.4,353.6,346.4,347.2,343.2,344z"/>
<path style="fill:#F3705A;" d="M255.733,128.533c-6.4,0-10.667,4.267-10.667,10.667v119.467h-76.8  c-6.4,0-10.667,4.267-10.667,10.667c0,6.4,4.267,10.667,10.667,10.667h87.467c6.4,0,10.667-4.267,10.667-10.667V139.2  C266.4,133.867,262.133,128.533,255.733,128.533z"/>
<circle style="fill:#415A6B;" cx="255.733" cy="269.333" r="36.267"/>
<circle style="fill:#344A5E;" cx="255.733" cy="269.333" r="16"/>
<g>
</g>
<g>
</g>
<g>
</g>
<g>
</g>
<g>
</g>
<g>
</g>
<g>
</g>
<g>
</g>
<g>
</g>
<g>
</g>
<g>
</g>
<g>
</g>
<g>
</g>
<g>
</g>
<g>
</g>
</svg>
