<?xml version="1.0" encoding="iso-8859-1"?>
<!-- Generator: Adobe Illustrator 19.0.0, SVG Export Plug-In . SVG Version: 6.00 Build 0)  -->
<svg xmlns="http://www.w3.org/2000/svg" xmlns:xlink="http://www.w3.org/1999/xlink" version="1.1" id="Layer_1" x="0px" y="0px" viewBox="0 0 512.174 512.174" style="enable-background:new 0 0 512.174 512.174;" xml:space="preserve">
<path style="fill:#F3F3F3;" d="M88.087,377.774c-48,0-87.467-38.4-87.467-86.4c0-43.733,33.067-81.067,75.733-86.4  c-9.6-42.667-2.133-89.6,23.467-130.133c51.2-76.8,155.733-98.133,232.533-46.933c45.867,29.867,71.467,78.933,74.667,130.133  c58.667,3.2,104.533,51.2,104.533,109.867c0,60.8-49.067,109.867-109.867,109.867H88.087z"/>
<polygon style="fill:#F3705A;" points="207.554,512.174 305.687,512.174 305.687,394.841 356.887,394.841 256.62,261.507   156.354,394.841 207.554,394.841 "/>
<g>
</g>
<g>
</g>
<g>
</g>
<g>
</g>
<g>
</g>
<g>
</g>
<g>
</g>
<g>
</g>
<g>
</g>
<g>
</g>
<g>
</g>
<g>
</g>
<g>
</g>
<g>
</g>
<g>
</g>
</svg>
