<?xml version="1.0" encoding="iso-8859-1"?>
<!-- Generator: Adobe Illustrator 19.0.0, SVG Export Plug-In . SVG Version: 6.00 Build 0)  -->
<svg xmlns="http://www.w3.org/2000/svg" xmlns:xlink="http://www.w3.org/1999/xlink" version="1.1" id="Layer_1" x="0px" y="0px" viewBox="0 0 512.358 512.358" style="enable-background:new 0 0 512.358 512.358;" xml:space="preserve">
<path style="fill:#E8EAE9;" d="M505.789,453.512L315.922,177.246V40.712H196.456v136.533L6.589,453.512  c-17.067,24.533,1.067,58.667,30.933,58.667h436.267C504.722,512.179,522.856,478.046,505.789,453.512z"/>
<path style="fill:#4EC0AA;" d="M263.656,293.512c-29.867-16-55.467-39.467-92.8-3.2v23.467h92.8V293.512z"/>
<path style="fill:#66C6B9;" d="M170.856,290.312l-123.733,179.2h417.067l-122.667-179.2  C264.722,238.046,233.789,351.112,170.856,290.312z"/>
<rect x="196.456" y="40.712" style="fill:#CED6E0;" width="120.533" height="20.267"/>
<path style="fill:#E8EAE9;" d="M336.189,20.446L336.189,20.446c0-11.733-9.6-20.267-20.267-20.267H196.456  c-11.733,0-20.267,9.6-20.267,20.267l0,0c0,11.733,9.6,20.267,20.267,20.267h119.467C327.656,40.712,336.189,32.179,336.189,20.446z  "/>
<g>
	<circle style="fill:#4EC0AA;" cx="216.722" cy="421.512" r="19.2"/>
	<circle style="fill:#4EC0AA;" cx="289.256" cy="353.246" r="30.933"/>
	<circle style="fill:#4EC0AA;" cx="176.189" cy="353.246" r="9.6"/>
	<circle style="fill:#4EC0AA;" cx="341.522" cy="437.512" r="11.733"/>
</g>
<g>
	<circle style="fill:#66C6B9;" cx="279.656" cy="220.979" r="11.733"/>
	<circle style="fill:#66C6B9;" cx="250.856" cy="126.046" r="17.067"/>
</g>
<g>
</g>
<g>
</g>
<g>
</g>
<g>
</g>
<g>
</g>
<g>
</g>
<g>
</g>
<g>
</g>
<g>
</g>
<g>
</g>
<g>
</g>
<g>
</g>
<g>
</g>
<g>
</g>
<g>
</g>
</svg>
