<?xml version="1.0" encoding="iso-8859-1"?>
<!-- Generator: Adobe Illustrator 19.0.0, SVG Export Plug-In . SVG Version: 6.00 Build 0)  -->
<svg xmlns="http://www.w3.org/2000/svg" xmlns:xlink="http://www.w3.org/1999/xlink" version="1.1" id="Layer_1" x="0px" y="0px" viewBox="0 0 512 512" style="enable-background:new 0 0 512 512;" xml:space="preserve">
<path style="fill:#CED6E0;" d="M512,293.333h-96V464c0,26.667,21.333,48,48,48l0,0c26.667,0,48-21.333,48-48V293.333z"/>
<path style="fill:#F3F3F3;" d="M416,464V293.333V48c0-26.667-21.333-48-48-48H48C21.333,0,0,21.333,0,48v416  c0,26.667,21.333,48,48,48h416C437.333,512,416,490.667,416,464z"/>
<g>
	<rect x="42.667" y="289.067" style="fill:#CED6E0;" width="330.667" height="28.8"/>
	<rect x="42.667" y="364.8" style="fill:#CED6E0;" width="330.667" height="28.8"/>
	<rect x="42.667" y="440.533" style="fill:#CED6E0;" width="330.667" height="28.8"/>
</g>
<path style="fill:#F3705A;" d="M214.4,42.667v106.667c0,2.133-1.067,3.2-2.133,4.267l-75.733,75.733  c19.2,16,44.8,26.667,71.467,26.667c58.667,0,106.667-48,106.667-106.667C314.667,92.8,269.867,45.867,214.4,42.667z"/>
<path style="fill:#55C0EB;" d="M201.6,141.867v-99.2c-53.333,3.2-96,45.867-99.2,99.2H201.6z"/>
<path style="fill:#FFD15C;" d="M101.333,155.733c1.067,24.533,10.667,46.933,26.667,64l64-64H101.333z"/>
<g>
</g>
<g>
</g>
<g>
</g>
<g>
</g>
<g>
</g>
<g>
</g>
<g>
</g>
<g>
</g>
<g>
</g>
<g>
</g>
<g>
</g>
<g>
</g>
<g>
</g>
<g>
</g>
<g>
</g>
</svg>
