<?xml version="1.0" encoding="iso-8859-1"?>
<!-- Generator: Adobe Illustrator 19.0.0, SVG Export Plug-In . SVG Version: 6.00 Build 0)  -->
<svg xmlns="http://www.w3.org/2000/svg" xmlns:xlink="http://www.w3.org/1999/xlink" version="1.1" id="Layer_1" x="0px" y="0px" viewBox="0 0 512 512" style="enable-background:new 0 0 512 512;" xml:space="preserve">
<circle style="fill:#FFD15C;" cx="392.533" cy="119.467" r="119.467"/>
<circle style="fill:#F7B64C;" cx="392.533" cy="119.467" r="86.4"/>
<path style="fill:#FFD15C;" d="M387.2,176v-9.6c-11.733-2.133-22.4-7.467-32-16l12.8-14.933c7.467,6.4,13.867,9.6,19.2,11.733  v-20.267c-9.6-2.133-17.067-5.333-21.333-9.6s-6.4-9.6-6.4-18.133c0-7.467,2.133-13.867,7.467-19.2  c5.333-5.333,11.733-8.533,20.267-8.533v-8.533h14.933V70.4c9.6,1.067,18.133,5.333,26.667,11.733l-10.667,16  c-5.333-4.267-10.667-6.4-16-8.533v19.2c9.6,2.133,17.067,6.4,21.333,10.667c4.267,4.267,7.467,10.667,7.467,18.133  c0,7.467-2.133,13.867-7.467,19.2c-5.333,5.333-11.733,8.533-21.333,9.6v9.6H387.2z M387.2,88.533c-4.267,1.067-6.4,4.267-6.4,7.467  c0,3.2,2.133,6.4,6.4,8.533V88.533z M408.533,138.667c0-2.133,0-3.2-1.067-4.267s-3.2-2.133-5.333-3.2v17.067  C406.4,146.133,408.533,142.933,408.533,138.667z"/>
<path style="fill:#415A6B;" d="M277.333,261.333L298.667,240l-182.4-182.4C102.4,43.733,80,43.733,66.133,57.6l0,0  c-12.8,13.867-12.8,36.267,1.067,49.067l154.667,154.667H277.333z"/>
<path style="fill:#66C6B9;" d="M455.467,512H56.533c-19.2,0-35.2-14.933-35.2-34.133V283.733h469.333v194.133  C490.667,497.067,474.667,512,455.467,512z"/>
<g>
	<path style="fill:#FFFFFF;" d="M121.6,329.6L121.6,329.6c-13.867,0-25.6,11.733-25.6,25.6v85.333c0,13.867,11.733,25.6,25.6,25.6   l0,0c13.867,0,25.6-11.733,25.6-25.6V355.2C147.2,340.267,136.533,329.6,121.6,329.6z"/>
	<path style="fill:#FFFFFF;" d="M256,329.6L256,329.6c-13.867,0-25.6,11.733-25.6,25.6v85.333c0,13.867,11.733,25.6,25.6,25.6l0,0   c13.867,0,25.6-11.733,25.6-25.6V355.2C281.6,340.267,269.867,329.6,256,329.6z"/>
	<path style="fill:#FFFFFF;" d="M390.4,329.6L390.4,329.6c-13.867,0-25.6,11.733-25.6,25.6v85.333c0,13.867,11.733,25.6,25.6,25.6   l0,0c13.867,0,25.6-11.733,25.6-25.6V355.2C416,340.267,404.267,329.6,390.4,329.6z"/>
</g>
<rect x="21.333" y="283.733" style="fill:#4EC0AA;" width="468.267" height="26.667"/>
<path style="fill:#E8EAE9;" d="M496,209.067H16c-8.533,0-16,7.467-16,16v41.6c0,8.533,7.467,16,16,16h480c8.533,0,16-7.467,16-16  v-41.6C512,216.533,504.533,209.067,496,209.067z"/>
<circle style="fill:#415A6B;" cx="256" cy="246.4" r="17.067"/>
<g>
</g>
<g>
</g>
<g>
</g>
<g>
</g>
<g>
</g>
<g>
</g>
<g>
</g>
<g>
</g>
<g>
</g>
<g>
</g>
<g>
</g>
<g>
</g>
<g>
</g>
<g>
</g>
<g>
</g>
</svg>
