<?xml version="1.0" encoding="iso-8859-1"?>
<!-- Generator: Adobe Illustrator 19.0.0, SVG Export Plug-In . SVG Version: 6.00 Build 0)  -->
<svg xmlns="http://www.w3.org/2000/svg" xmlns:xlink="http://www.w3.org/1999/xlink" version="1.1" id="Layer_1" x="0px" y="0px" viewBox="0 0 513.067 513.067" style="enable-background:new 0 0 513.067 513.067;" xml:space="preserve">
<path style="fill:#8AD7F8;" d="M505.6,176.667L339.2,9.2c-11.733-11.733-29.867-11.733-41.6,0L130.133,176.667H505.6z"/>
<polygon style="fill:#55C0EB;" points="316.8,176.667 410.667,81.733 363.733,33.733 221.867,176.667 "/>
<path style="fill:#415A6B;" d="M0,189.467v291.2c0,18.133,13.867,32,32,32h448c18.133,0,32-13.867,32-32v-291.2  c0-18.133-13.867-32-32-32l-448,0C13.867,157.467,0,171.333,0,189.467z"/>
<path style="fill:#344A5E;" d="M504.533,281.2H512v-12.8h-8.533c0-23.467-3.2-44.8-8.533-65.067c6.4-2.133,11.733-3.2,17.067-5.333  v-8.533c0-2.133,0-3.2,0-5.333c-6.4,3.2-12.8,5.333-20.267,7.467c-4.267-12.8-9.6-24.533-16-34.133H460.8  c7.467,9.6,13.867,22.4,19.2,37.333c-14.933,3.2-32,5.333-49.067,5.333v-42.667h-12.8v42.667c-17.067,0-33.067-2.133-49.067-5.333  c5.333-14.933,11.733-27.733,19.2-37.333h-14.933c-6.4,9.6-11.733,21.333-16,34.133c-12.8-3.2-24.533-8.533-34.133-13.867  c7.467-7.467,16-14.933,24.533-20.267H326.4c-33.067,27.733-55.467,70.4-55.467,117.333c0,84.267,69.333,153.6,153.6,153.6  c33.067,0,64-10.667,88.533-28.8v-16c-14.933,11.733-32,21.333-50.133,26.667c11.733-11.733,22.4-29.867,29.867-52.267  c7.467,2.133,13.867,4.267,20.267,7.467V351.6c-5.333-2.133-10.667-4.267-17.067-5.333C500.267,326,503.467,304.667,504.533,281.2z   M313.6,187.333c10.667,6.4,24.533,11.733,38.4,16c-5.333,19.2-8.533,41.6-8.533,65.067h-59.733  C284.8,237.467,295.467,209.733,313.6,187.333z M313.6,362.267c-18.133-22.4-28.8-50.133-29.867-81.067h59.733  c0,23.467,3.2,45.867,8.533,65.067C338.133,350.533,325.333,355.867,313.6,362.267z M322.133,371.867  c9.6-5.333,21.333-9.6,34.133-13.867c7.467,21.333,17.067,39.467,29.867,52.267C361.6,402.8,339.2,390,322.133,371.867z   M417.067,414.533C396.8,410.267,379.733,387.867,368,354.8c14.933-3.2,32-5.333,49.067-5.333V414.533z M417.067,336.667  c-18.133,0-36.267,2.133-52.267,6.4c-5.333-18.133-8.533-39.467-8.533-61.867h60.8V336.667z M417.067,268.4h-60.8  c0-22.4,3.2-42.667,8.533-61.867c16,3.2,34.133,5.333,52.267,6.4V268.4z M429.867,414.533v-65.067  c17.067,0,33.067,2.133,49.067,5.333C468.267,387.867,450.133,410.267,429.867,414.533z M483.2,343.067  c-16-3.2-34.133-5.333-52.267-6.4V281.2h60.8C490.667,303.6,487.467,323.867,483.2,343.067z M429.867,268.4v-55.467  c18.133,0,36.267-2.133,52.267-6.4c5.333,18.133,8.533,39.467,8.533,61.867L429.867,268.4L429.867,268.4z"/>
<rect y="387.867" style="fill:#E8EAE9;" width="513.067" height="72.533"/>
<path style="fill:#FFD15C;" d="M167.467,225.733H137.6V255.6H176v-21.333C176,230,171.733,225.733,167.467,225.733z"/>
<path style="fill:#F7B64C;" d="M178.133,257.733h-42.667V223.6h32c5.333,0,10.667,4.267,10.667,10.667V257.733z M139.733,253.467  h34.133v-19.2c0-3.2-3.2-6.4-6.4-6.4h-27.733V253.467z"/>
<rect x="137.6" y="255.6" style="fill:#FFD15C;" width="38.4" height="29.867"/>
<path style="fill:#F7B64C;" d="M178.133,287.6h-42.667v-34.133h42.667V287.6z M139.733,283.333h34.133v-25.6h-34.133  L139.733,283.333L139.733,283.333z"/>
<path style="fill:#FFD15C;" d="M176,285.467h-38.4v29.867h29.867c4.267,0,8.533-3.2,8.533-8.533V285.467z"/>
<path style="fill:#F7B64C;" d="M167.467,317.467h-32v-34.133h42.667V306.8C178.133,312.133,172.8,317.467,167.467,317.467z   M139.733,313.2h27.733c3.2,0,6.4-3.2,6.4-6.4v-19.2h-34.133L139.733,313.2L139.733,313.2z"/>
<path style="fill:#FFD15C;" d="M100.267,225.733H69.333c-4.267,0-8.533,3.2-8.533,8.533V255.6h38.4v-29.867H100.267z"/>
<path style="fill:#F7B64C;" d="M102.4,257.733H59.733v-23.467c0-5.333,4.267-10.667,10.667-10.667h32V257.733z M62.933,253.467  h34.133v-25.6H69.333c-3.2,0-6.4,3.2-6.4,6.4V253.467z"/>
<rect x="60.8" y="255.6" style="fill:#FFD15C;" width="38.4" height="29.867"/>
<path style="fill:#F7B64C;" d="M102.4,287.6H59.733v-34.133H102.4V287.6z M62.933,283.333h34.133v-25.6H62.933V283.333z"/>
<path style="fill:#FFD15C;" d="M100.267,285.467H60.8V306.8c0,4.267,3.2,8.533,8.533,8.533H99.2v-29.867H100.267z"/>
<path style="fill:#F7B64C;" d="M102.4,317.467h-32c-5.333,0-10.667-4.267-10.667-10.667v-23.467H102.4V317.467z M62.933,287.6v19.2  c0,3.2,3.2,6.4,6.4,6.4h27.733v-25.6H62.933z"/>
<rect x="100.267" y="225.733" style="fill:#FFD15C;" width="37.333" height="46.933"/>
<path style="fill:#F7B64C;" d="M139.733,274.8h-41.6v-51.2h41.6V274.8z M102.4,270.533h33.067v-42.667H102.4V270.533z"/>
<rect x="100.267" y="272.667" style="fill:#FFD15C;" width="37.333" height="42.667"/>
<path style="fill:#F7B64C;" d="M139.733,317.467h-41.6V271.6h41.6V317.467z M102.4,313.2h33.067v-38.4H102.4V313.2z"/>
<g>
</g>
<g>
</g>
<g>
</g>
<g>
</g>
<g>
</g>
<g>
</g>
<g>
</g>
<g>
</g>
<g>
</g>
<g>
</g>
<g>
</g>
<g>
</g>
<g>
</g>
<g>
</g>
<g>
</g>
</svg>
