<?xml version="1.0" encoding="iso-8859-1"?>
<!-- Generator: Adobe Illustrator 19.0.0, SVG Export Plug-In . SVG Version: 6.00 Build 0)  -->
<svg xmlns="http://www.w3.org/2000/svg" xmlns:xlink="http://www.w3.org/1999/xlink" version="1.1" id="Layer_1" x="0px" y="0px" viewBox="0 0 512 512" style="enable-background:new 0 0 512 512;" xml:space="preserve">
<g>
	<path style="fill:#415A6B;" d="M145.067,217.6H92.8c-6.4,0-10.667,4.267-10.667,10.667v141.867h21.333v-131.2h41.6V217.6z"/>
	<path style="fill:#415A6B;" d="M419.2,217.6h-43.733v21.333h33.067v131.2h21.333V228.267C429.867,221.867,425.6,217.6,419.2,217.6z   "/>
</g>
<circle style="fill:#FFD15C;" cx="92.8" cy="419.2" r="92.8"/>
<g>
	<circle style="fill:#F3F3F3;" cx="46.933" cy="419.2" r="14.933"/>
	<circle style="fill:#F3F3F3;" cx="92.8" cy="419.2" r="14.933"/>
	<circle style="fill:#F3F3F3;" cx="138.667" cy="419.2" r="14.933"/>
</g>
<circle style="fill:#F3705A;" cx="419.2" cy="419.2" r="92.8"/>
<g>
	<circle style="fill:#F3F3F3;" cx="373.333" cy="419.2" r="14.933"/>
	<circle style="fill:#F3F3F3;" cx="419.2" cy="419.2" r="14.933"/>
	<circle style="fill:#F3F3F3;" cx="465.067" cy="419.2" r="14.933"/>
	<path style="fill:#F3F3F3;" d="M355.2,0H218.667L131.2,87.467V297.6c0,13.867,11.733,25.6,25.6,25.6h198.4   c13.867,0,25.6-11.733,25.6-25.6v-272C380.8,11.733,369.067,0,355.2,0z"/>
</g>
<g>
	<rect x="169.6" y="267.733" style="fill:#CED6E0;" width="173.867" height="18.133"/>
	<rect x="169.6" y="212.267" style="fill:#CED6E0;" width="173.867" height="18.133"/>
	<rect x="169.6" y="155.733" style="fill:#CED6E0;" width="173.867" height="18.133"/>
	<rect x="247.467" y="99.2" style="fill:#CED6E0;" width="94.933" height="18.133"/>
</g>
<polygon style="fill:#ADB3BA;" points="218.667,0 131.2,87.467 218.667,87.467 "/>
<g>
</g>
<g>
</g>
<g>
</g>
<g>
</g>
<g>
</g>
<g>
</g>
<g>
</g>
<g>
</g>
<g>
</g>
<g>
</g>
<g>
</g>
<g>
</g>
<g>
</g>
<g>
</g>
<g>
</g>
</svg>
