<?xml version="1.0" encoding="iso-8859-1"?>
<!-- Generator: Adobe Illustrator 19.0.0, SVG Export Plug-In . SVG Version: 6.00 Build 0)  -->
<svg xmlns="http://www.w3.org/2000/svg" xmlns:xlink="http://www.w3.org/1999/xlink" version="1.1" id="Layer_1" x="0px" y="0px" viewBox="0 0 512 512" style="enable-background:new 0 0 512 512;" xml:space="preserve">
<path style="fill:#415A6B;" d="M89.6,309.333V288l0,0c-28.8-26.667-40.533-67.2-29.867-104.533c9.6-32,26.667-60.8,51.2-85.333  c38.4-39.467,90.667-60.8,145.067-60.8s106.667,21.333,145.067,59.733c24.533,24.533,41.6,54.4,51.2,85.333  C464,219.733,451.2,260.267,422.4,286.933v22.4h87.467c-1.067-5.333-3.2-10.667-5.333-16c-8.533-17.067-10.667-36.267-11.733-54.4  c-1.067-60.8-24.533-120.533-69.333-165.333C378.667,29.867,318.933,5.333,256,5.333S133.333,29.867,88.533,74.667  C42.667,120.533,19.2,182.4,19.2,245.333c0,17.067-4.267,33.067-11.733,49.067c-2.133,5.333-4.267,10.667-5.333,16H89.6V309.333z"/>
<path style="fill:#55C0EB;" d="M110.933,98.133c2.133,2.133,5.333,2.133,6.4,0C155.733,61.867,204.8,42.667,256,42.667  s100.267,19.2,137.6,55.467c2.133,2.133,5.333,2.133,6.4,0l23.467-23.467c2.133-2.133,2.133-5.333,0-7.467  C378.667,23.467,318.933,0,256,0S133.333,23.467,88.533,67.2c-2.133,2.133-2.133,5.333,0,7.467L110.933,98.133z"/>
<path style="fill:#415A6B;" d="M468.267,348.8c-5.333,0-10.667,4.267-11.733,9.6l-7.467,89.6l-179.2,24.533v21.333l189.867-24.533  c5.333-1.067,8.533-4.267,9.6-9.6l8.533-98.133C477.867,355.2,473.6,349.867,468.267,348.8z"/>
<path style="fill:#E8EAE9;" d="M106.667,432L106.667,432c-13.867,0-24.533-10.667-24.533-23.467v-166.4  c0-12.8,10.667-23.467,23.467-23.467h1.067c12.8,0,23.467,10.667,23.467,23.467v166.4C130.133,421.333,119.467,432,106.667,432z"/>
<g>
	<path style="fill:#55C0EB;" d="M89.6,240c-2.133,0-3.2,0-5.333,0C37.333,240,0,278.4,0,324.267c0,46.933,38.4,84.267,84.267,84.267   c2.133,0,3.2,0,5.333,0V240z"/>
	<path style="fill:#55C0EB;" d="M422.4,240c2.133,0,3.2,0,5.333,0C474.667,240,512,278.4,512,324.267   c0,46.933-38.4,84.267-84.267,84.267c-2.133,0-3.2,0-5.333,0V240z"/>
</g>
<g>
	<path style="fill:#E8EAE9;" d="M405.333,432L405.333,432c13.867,0,24.533-10.667,24.533-23.467v-166.4   c0-12.8-10.667-23.467-23.467-23.467h-1.067c-12.8,0-23.467,10.667-23.467,23.467v166.4C381.867,421.333,392.533,432,405.333,432z"/>
	<ellipse style="fill:#E8EAE9;" cx="260.267" cy="485.333" rx="39.467" ry="26.667"/>
</g>
<path style="fill:#FFD15C;" d="M256,179.2c-65.067,0-117.333,42.667-117.333,96c0,29.867,16,56.533,41.6,73.6v69.333L256,371.2  c65.067,0,117.333-42.667,117.333-96S321.067,179.2,256,179.2z"/>
<g>
	<circle style="fill:#FFFFFF;" cx="190.933" cy="275.2" r="20.267"/>
	<circle style="fill:#FFFFFF;" cx="256" cy="275.2" r="20.267"/>
	<circle style="fill:#FFFFFF;" cx="320" cy="275.2" r="20.267"/>
</g>
<g>
</g>
<g>
</g>
<g>
</g>
<g>
</g>
<g>
</g>
<g>
</g>
<g>
</g>
<g>
</g>
<g>
</g>
<g>
</g>
<g>
</g>
<g>
</g>
<g>
</g>
<g>
</g>
<g>
</g>
</svg>
