<?xml version="1.0" encoding="iso-8859-1"?>
<!-- Generator: Adobe Illustrator 19.0.0, SVG Export Plug-In . SVG Version: 6.00 Build 0)  -->
<svg xmlns="http://www.w3.org/2000/svg" xmlns:xlink="http://www.w3.org/1999/xlink" version="1.1" id="Layer_1" x="0px" y="0px" viewBox="0 0 512.858 512.858" style="enable-background:new 0 0 512.858 512.858;" xml:space="preserve">
<path style="fill:#CED6E0;" d="M380.162,100.267L155.096,421.333l29.867,21.333l49.067-70.4l28.8,9.6  c7.467,2.133,16-1.067,20.267-8.533L402.562,147.2L380.162,100.267z"/>
<path style="fill:#F3705A;" d="M191.362,363.733c-5.333,7.467-11.733,12.8-19.2,17.067c-12.8,7.467-27.733,7.467-41.6,2.133  c-33.067-14.933-73.6-1.067-89.6,35.2C30.296,441.6,35.629,470.4,53.762,489.6c29.867,32,81.067,27.733,104.533-6.4l67.2-96  L191.362,363.733z M81.496,474.667c-16-11.733-20.267-34.133-8.533-50.133s34.133-20.267,50.133-8.533  c16,11.733,20.267,34.133,8.533,50.133C120.962,482.133,98.562,486.4,81.496,474.667z"/>
<path style="fill:#4EC0AA;" d="M482.562,249.6V27.733c0-14.933-12.8-27.733-28.8-27.733H59.096c-16,0-28.8,12.8-28.8,27.733V249.6  c0,16,12.8,27.733,27.733,27.733h394.667C469.762,278.4,482.562,265.6,482.562,249.6z"/>
<path style="fill:#FFFFFF;" d="M68.696,193.067v-108.8c25.6,0,46.933-21.333,46.933-46.933h281.6  c0,25.6,21.333,46.933,46.933,46.933v108.8c-25.6,0-46.933,21.333-46.933,46.933h-281.6  C115.629,214.4,94.296,193.067,68.696,193.067z"/>
<ellipse style="fill:#4EC0AA;" cx="256.429" cy="138.667" rx="55.467" ry="67.2"/>
<path style="fill:#F3F3F3;" d="M254.296,181.333v-7.467c-9.6-1.067-18.133-4.267-24.533-10.667l7.467-8.533  c5.333,5.333,11.733,7.467,18.133,8.533v-20.267c-7.467-2.133-12.8-4.267-17.067-7.467c-3.2-3.2-5.333-7.467-5.333-12.8  c0-6.4,2.133-10.667,6.4-14.933s9.6-5.333,16-6.4v-4.267h6.4v5.333c7.467,1.067,14.933,3.2,21.333,7.467l-6.4,9.6  c-4.267-3.2-9.6-5.333-14.933-6.4v19.2l0,0c7.467,2.133,13.867,4.267,17.067,7.467c3.2,3.2,5.333,7.467,5.333,13.867  c0,6.4-2.133,10.667-6.4,14.933c-4.267,3.2-9.6,5.333-17.067,6.4v6.4H254.296z M246.829,115.2c-2.133,1.067-2.133,3.2-2.133,5.333  s1.067,4.267,2.133,5.333c1.067,1.067,4.267,2.133,7.467,4.267V112C251.096,113.067,248.962,114.133,246.829,115.2z M268.162,160  c2.133-1.067,3.2-3.2,3.2-6.4c0-2.133-1.067-4.267-2.133-5.333c-1.067-1.067-4.267-3.2-8.533-4.267v18.133  C263.896,163.2,266.029,162.133,268.162,160z"/>
<g>
	<circle style="fill:#4EC0AA;" cx="129.496" cy="138.667" r="19.2"/>
	<circle style="fill:#4EC0AA;" cx="383.362" cy="138.667" r="19.2"/>
</g>
<path style="fill:#E8EAE9;" d="M132.696,100.267l225.067,321.067l-29.867,21.333l-49.067-70.4l-28.8,9.6  c-7.467,2.133-16-1.067-20.267-8.533L111.362,147.2L132.696,100.267z"/>
<path style="fill:#F3705A;" d="M288.429,388.267l67.2,96c24.533,34.133,74.667,39.467,104.533,6.4c18.133-19.2,22.4-48,12.8-71.467  c-16-36.267-56.533-50.133-89.6-35.2c-12.8,6.4-28.8,5.333-41.6-2.133c-7.467-4.267-13.867-9.6-19.2-17.067L288.429,388.267z   M380.162,465.067c-11.733-16-7.467-39.467,8.533-50.133c16-11.733,39.467-7.467,50.133,8.533c11.733,16,7.467,39.467-8.533,50.133  C414.296,484.267,391.896,482.133,380.162,465.067z"/>
<circle style="fill:#ADB3BA;" cx="253.229" cy="338.133" r="13.867"/>
<g>
</g>
<g>
</g>
<g>
</g>
<g>
</g>
<g>
</g>
<g>
</g>
<g>
</g>
<g>
</g>
<g>
</g>
<g>
</g>
<g>
</g>
<g>
</g>
<g>
</g>
<g>
</g>
<g>
</g>
</svg>
