<?xml version="1.0" encoding="iso-8859-1"?>
<!-- Generator: Adobe Illustrator 19.0.0, SVG Export Plug-In . SVG Version: 6.00 Build 0)  -->
<svg xmlns="http://www.w3.org/2000/svg" xmlns:xlink="http://www.w3.org/1999/xlink" version="1.1" id="Layer_1" x="0px" y="0px" viewBox="0 0 512.8 512.8" style="enable-background:new 0 0 512.8 512.8;" xml:space="preserve">
<path style="fill:#F3F3F3;" d="M116.8,0L0.533,116.267V480c0,18.133,13.867,32,32,32h341.333c18.133,0,32-13.867,32-32V32  c0-18.133-13.867-32-32-32H116.8z"/>
<polygon style="fill:#CED6E0;" points="116.8,0 0.533,116.267 116.8,116.267 "/>
<path style="fill:#FFD15C;" d="M203.2,308.267c26.667,0,51.2-10.667,69.333-28.8L203.2,210.133V308.267z"/>
<path style="fill:#F3705A;" d="M203.2,112v196.267c-54.4,0-98.133-43.733-98.133-98.133S148.8,112,203.2,112z"/>
<path style="fill:#66C6B9;" d="M301.333,210.133c0,26.667-10.667,51.2-28.8,69.333L203.2,210.133V112  c26.667,0,51.2,10.667,69.333,28.8C290.667,158.933,301.333,183.467,301.333,210.133z"/>
<g>
	<rect x="43.2" y="352" style="fill:#CED6E0;" width="320" height="25.6"/>
	<rect x="43.2" y="424.533" style="fill:#CED6E0;" width="320" height="25.6"/>
</g>
<rect x="356.998" y="365.071" transform="matrix(-0.7071 0.7071 -0.7071 -0.7071 928.8747 384.8551)" style="fill:#344A5E;" width="55.466" height="39.466"/>
<path style="fill:#F3705A;" d="M421.867,375.467L376,421.333c-6.4,6.4-6.4,16,0,22.4l55.467,55.467  c18.133,18.133,49.067,18.133,67.2,0s18.133-49.067,0-67.2L443.2,376.533C437.867,370.133,428.267,370.133,421.867,375.467z"/>
<path style="fill:#415A6B;" d="M384.533,384c-53.333,53.333-140.8,53.333-194.133,0s-53.333-140.8,0-194.133s140.8-53.333,194.133,0  S437.867,330.667,384.533,384z M217.067,216.533c-38.4,38.4-38.4,101.333,0,140.8c38.4,38.4,101.333,38.4,140.8,0  c38.4-38.4,38.4-101.333,0-140.8S255.467,178.133,217.067,216.533z"/>
<g>
</g>
<g>
</g>
<g>
</g>
<g>
</g>
<g>
</g>
<g>
</g>
<g>
</g>
<g>
</g>
<g>
</g>
<g>
</g>
<g>
</g>
<g>
</g>
<g>
</g>
<g>
</g>
<g>
</g>
</svg>
