<?xml version="1.0" encoding="iso-8859-1"?>
<!-- Generator: Adobe Illustrator 19.0.0, SVG Export Plug-In . SVG Version: 6.00 Build 0)  -->
<svg xmlns="http://www.w3.org/2000/svg" xmlns:xlink="http://www.w3.org/1999/xlink" version="1.1" id="Layer_1" x="0px" y="0px" viewBox="0 0 508.8 508.8" style="enable-background:new 0 0 508.8 508.8;" xml:space="preserve">
<g>
	<path style="fill:#415A6B;" d="M416.533,300.8c-9.6-70.4-26.667-74.667-26.667-74.667c-13.867,3.2-28.8,59.733-33.067,74.667   H416.533z"/>
	<path style="fill:#415A6B;" d="M152,300.8c-4.267-14.933-19.2-71.467-33.067-74.667c0,0-17.067,4.267-26.667,74.667H152z"/>
</g>
<path style="fill:#344A5E;" d="M144.533,300.8h219.733c8.533-38.4,19.2-70.4,25.6-74.667l-73.6-35.2L254.4,211.2L192.533,192  l-73.6,35.2C125.333,230.4,134.933,262.4,144.533,300.8z"/>
<polygon style="fill:#CED6E0;" points="290.667,300.8 291.733,199.467 254.4,211.2 217.067,199.467 219.2,300.8 "/>
<polygon style="fill:#F3705A;" points="232,300.8 276.8,300.8 265.067,249.6 275.733,232.533 254.4,211.2 233.067,232.533   243.733,249.6 "/>
<path style="fill:#E8EAE9;" d="M254.4,210.133c0,0,37.333-23.467,39.467-44.8l13.867,24.533l-25.6,55.467L254.4,210.133z"/>
<polygon style="fill:#415A6B;" points="299.2,300.8 337.6,233.6 316.267,222.933 338.667,213.333 301.333,178.133 272.533,300.8 "/>
<path style="fill:#E8EAE9;" d="M254.4,210.133c0,0-37.333-23.467-39.467-44.8l-13.867,24.533l25.6,55.467L254.4,210.133z"/>
<polygon style="fill:#415A6B;" points="171.2,233.6 209.6,300.8 236.267,300.8 207.467,178.133 170.133,213.333 192.533,222.933 "/>
<path style="fill:#F7B64C;" d="M214.933,140.8v25.6c3.2,21.333,39.467,44.8,39.467,44.8s37.333-23.467,39.467-44.8v-25.6H214.933z"/>
<g>
	<path style="fill:#415A6B;" d="M254.4,78.933c0,34.133-13.867,59.733-32,59.733c-17.067,0-33.067-26.667-34.133-59.733   c-1.067-35.2,12.8-65.067,32-65.067S254.4,43.733,254.4,78.933z"/>
	<path style="fill:#415A6B;" d="M324.8,71.467C322.667,108.8,296,137.6,264,137.6s-58.667-28.8-60.8-66.133   C202.133,33.067,229.867,0,264,0S326.933,32,324.8,71.467z"/>
</g>
<g>
	<path style="fill:#FFD15C;" d="M314.133,73.6C286.4,70.4,258.667,61.867,235.2,46.933C224.533,64,211.733,76.8,194.667,85.333   c0,4.267-1.067,9.6-1.067,13.867c2.133,41.6,28.8,74.667,60.8,74.667s59.733-32,61.867-74.667   C316.267,89.6,315.2,81.067,314.133,73.6z"/>
	<path style="fill:#FFD15C;" d="M324.8,108.8c-3.2,11.733-11.733,20.267-18.133,19.2c-6.4-1.067-9.6-11.733-6.4-23.467   C303.467,92.8,312,83.2,318.4,84.267C325.867,85.333,328,97.067,324.8,108.8z"/>
	<path style="fill:#FFD15C;" d="M184,108.8c3.2,11.733,11.733,20.267,18.133,19.2c6.4-1.067,9.6-11.733,6.4-23.467   C205.333,92.8,196.8,83.2,190.4,84.267C182.933,85.333,180.8,97.067,184,108.8z"/>
	<polygon style="fill:#FFD15C;" points="25.067,295.467 54.933,377.6 453.867,377.6 483.733,295.467  "/>
</g>
<rect x="77.333" y="377.6" style="fill:#F7B64C;" width="355.2" height="131.2"/>
<g>
</g>
<g>
</g>
<g>
</g>
<g>
</g>
<g>
</g>
<g>
</g>
<g>
</g>
<g>
</g>
<g>
</g>
<g>
</g>
<g>
</g>
<g>
</g>
<g>
</g>
<g>
</g>
<g>
</g>
</svg>
