<?xml version="1.0" encoding="iso-8859-1"?>
<!-- Generator: Adobe Illustrator 19.0.0, SVG Export Plug-In . SVG Version: 6.00 Build 0)  -->
<svg xmlns="http://www.w3.org/2000/svg" xmlns:xlink="http://www.w3.org/1999/xlink" version="1.1" id="Layer_1" x="0px" y="0px" viewBox="0 0 512 512" style="enable-background:new 0 0 512 512;" xml:space="preserve">
<g>
	<path style="fill:#415A6B;" d="M124.8,225.067h-20.267v97.067c0,5.333,4.267,10.667,10.667,10.667h33.067v-20.267H124.8V225.067z"/>
	<path style="fill:#415A6B;" d="M105.6,230.4h30.933c3.2,0,6.4-3.2,6.4-6.4v-24.533c0-3.2-3.2-6.4-6.4-6.4H105.6   c-3.2,0-6.4,3.2-6.4,6.4V224C99.2,228.267,102.4,230.4,105.6,230.4z"/>
</g>
<g>
	<path style="fill:#CED6E0;" d="M371.2,496c-32-34.133-73.6-54.4-116.267-53.333c-41.6,0-82.133,19.2-112,53.333l-17.067-14.933   c34.133-38.4,80-60.8,129.067-60.8c1.067,0,1.067,0,2.133,0c49.067,0,96,21.333,132.267,60.8L371.2,496z"/>
	<rect x="244.267" y="390.4" style="fill:#CED6E0;" width="23.467" height="98.133"/>
</g>
<rect x="228.267" y="267.733" style="fill:#415A6B;" width="55.467" height="22.4"/>
<path style="fill:#66C6B9;" d="M377.6,44.8c-22.4,60.8-29.867,128-26.667,202.667C352,261.333,340.267,272,327.467,272H185.6  c-13.867,0-24.533-11.733-23.467-24.533c3.2-73.6-4.267-140.8-26.667-202.667c-4.267-12.8,3.2-27.733,16-30.933  C186.667,4.267,220.8,0,256,0l0,0c35.2,0,69.333,4.267,104.533,13.867C374.4,17.067,381.867,32,377.6,44.8z"/>
<g>
	<path style="fill:#415A6B;" d="M387.2,225.067v86.4h-23.467v20.267H396.8c5.333,0,10.667-4.267,10.667-10.667V224H387.2V225.067z"/>
	<path style="fill:#415A6B;" d="M406.4,230.4h-30.933c-3.2,0-6.4-3.2-6.4-6.4v-24.533c0-3.2,3.2-6.4,6.4-6.4H406.4   c3.2,0,6.4,3.2,6.4,6.4V224C412.8,228.267,409.6,230.4,406.4,230.4z"/>
</g>
<path style="fill:#4EC0AA;" d="M343.467,288H168.533c-19.2,0-34.133,14.933-34.133,34.133c0,19.2,14.933,34.133,34.133,34.133  h174.933c19.2,0,34.133-14.933,34.133-34.133C377.6,302.933,362.667,288,343.467,288z"/>
<g>
	<rect x="235.733" y="356.267" style="fill:#344A5E;" width="41.6" height="36.267"/>
	<circle style="fill:#344A5E;" cx="135.467" cy="488.533" r="23.467"/>
	<circle style="fill:#344A5E;" cx="376.533" cy="488.533" r="23.467"/>
	<circle style="fill:#344A5E;" cx="257.067" cy="488.533" r="23.467"/>
</g>
<g>
</g>
<g>
</g>
<g>
</g>
<g>
</g>
<g>
</g>
<g>
</g>
<g>
</g>
<g>
</g>
<g>
</g>
<g>
</g>
<g>
</g>
<g>
</g>
<g>
</g>
<g>
</g>
<g>
</g>
</svg>
