<?xml version="1.0" encoding="iso-8859-1"?>
<!-- Generator: Adobe Illustrator 19.0.0, SVG Export Plug-In . SVG Version: 6.00 Build 0)  -->
<svg version="1.1" id="Layer_1" xmlns="http://www.w3.org/2000/svg" xmlns:xlink="http://www.w3.org/1999/xlink" x="0px" y="0px"
	 viewBox="0 0 491.52 491.52" style="enable-background:new 0 0 491.52 491.52;" xml:space="preserve">
<path style="fill:#2F4859;" d="M255.989,396.781c3.26,0,5.904-2.643,5.904-5.904v-45.5c0-3.261-2.644-5.904-5.904-5.904h-16.417
	l10.07,57.307H255.989z"/>
<path style="fill:#EBF0F3;" d="M188.149,485.794c0.582,3.311,3.458,5.726,6.819,5.726h23.273h48.049h1.647
	c7.372,0,13.348-5.976,13.348-13.348l0,0c0-7.372-5.976-13.348-13.348-13.348c-3.665,0-6.8-2.632-7.434-6.241l-10.86-61.802
	l-10.07-57.307l-7.45-42.391h-77.135L188.149,485.794z"/>
<path style="fill:#64798A;" d="M38.394,160.996c-6.426,0-11.636,5.209-11.636,11.636v67.282c0,6.426,5.209,11.636,11.636,11.636
	h10.095v-90.553H38.394z"/>
<path style="fill:#FCD462;" d="M60.124,142.375c-6.426,0-11.636,5.21-11.636,11.636v6.985v90.553v6.984
	c0,6.426,5.209,11.636,11.636,11.636h31.941V142.375H60.124z"/>
<polygon style="fill:#D15241;" points="92.065,127.221 92.065,142.375 92.065,270.169 92.065,285.324 126.095,297.083 
	126.095,115.463 "/>
<polygon style="fill:#E56353;" points="126.095,115.463 126.095,297.083 154.988,297.083 232.123,297.083 259.063,297.083 
	259.063,115.463 "/>
<polygon style="fill:#EBF0F3;" points="259.063,115.463 259.063,297.083 426.628,393.003 426.628,19.541 "/>
<path style="fill:#64798A;" d="M445.695,0c-10.53,0-19.067,8.536-19.067,19.067v0.474v373.462v0.475
	c0,10.53,8.536,19.067,19.067,19.067c10.531,0,19.067-8.537,19.067-19.067V19.067C464.762,8.536,456.226,0,445.695,0z"/>
<g>
</g>
<g>
</g>
<g>
</g>
<g>
</g>
<g>
</g>
<g>
</g>
<g>
</g>
<g>
</g>
<g>
</g>
<g>
</g>
<g>
</g>
<g>
</g>
<g>
</g>
<g>
</g>
<g>
</g>
</svg>
