<?xml version="1.0" encoding="iso-8859-1"?>
<!-- Generator: Adobe Illustrator 19.0.0, SVG Export Plug-In . SVG Version: 6.00 Build 0)  -->
<svg version="1.1" id="Layer_1" xmlns="http://www.w3.org/2000/svg" xmlns:xlink="http://www.w3.org/1999/xlink" x="0px" y="0px"
	 viewBox="0 0 491.52 491.52" style="enable-background:new 0 0 491.52 491.52;" xml:space="preserve">
<g>
	<polygon style="fill:#D15241;" points="281.282,163.51 166.007,278.785 132.705,281.346 135.266,248.044 250.541,132.77 	"/>
	<polygon style="fill:#D15241;" points="305.927,85.701 329.194,33.943 306.312,0 239.493,0 216.611,33.943 239.879,85.701 	"/>
</g>
<polygon style="fill:#E56353;" points="358.815,421.964 272.903,491.52 186.991,421.964 239.918,85.701 305.888,85.701 "/>
<g>
	<polygon style="fill:#EBF0F3;" points="251.54,474.224 356.445,406.908 354.248,392.952 240.953,465.654 	"/>
	<polygon style="fill:#EBF0F3;" points="219.21,448.049 349.737,364.29 347.54,350.333 208.622,439.477 	"/>
	<polygon style="fill:#EBF0F3;" points="187.018,421.79 343.03,321.677 340.833,307.718 189.708,404.698 	"/>
	<polygon style="fill:#EBF0F3;" points="195.233,369.596 336.322,279.057 334.125,265.102 197.923,352.504 	"/>
	<polygon style="fill:#EBF0F3;" points="203.448,317.4 329.614,236.441 327.417,222.485 206.139,300.31 	"/>
	<polygon style="fill:#EBF0F3;" points="211.664,265.207 322.906,193.822 320.71,179.866 214.354,248.117 	"/>
	<polygon style="fill:#EBF0F3;" points="314.002,137.249 222.569,195.923 219.879,213.013 316.198,151.205 	"/>
	<polygon style="fill:#EBF0F3;" points="307.294,94.632 230.785,143.729 228.094,160.82 309.49,108.588 	"/>
</g>
<g>
</g>
<g>
</g>
<g>
</g>
<g>
</g>
<g>
</g>
<g>
</g>
<g>
</g>
<g>
</g>
<g>
</g>
<g>
</g>
<g>
</g>
<g>
</g>
<g>
</g>
<g>
</g>
<g>
</g>
</svg>
