<?xml version="1.0" encoding="iso-8859-1"?>
<!-- Generator: Adobe Illustrator 19.0.0, SVG Export Plug-In . SVG Version: 6.00 Build 0)  -->
<svg version="1.1" id="Layer_1" xmlns="http://www.w3.org/2000/svg" xmlns:xlink="http://www.w3.org/1999/xlink" x="0px" y="0px"
	 viewBox="0 0 491.52 491.52" style="enable-background:new 0 0 491.52 491.52;" xml:space="preserve">
<polygon style="fill:#EBF0F3;" points="387.243,0 117.342,0 117.342,491.52 491.52,491.52 491.52,102.234 "/>
<polygon style="fill:#D5D6DB;" points="387.243,102.234 491.52,102.234 387.243,0 "/>
<polygon style="fill:#E1E6E9;" points="491.52,102.234 387.243,102.234 491.52,173.099 "/>
<g>
	<rect x="165.796" y="224.952" style="fill:#D5D6DB;" width="277.248" height="13.404"/>
	<rect x="165.796" y="277.709" style="fill:#D5D6DB;" width="277.248" height="13.404"/>
	<rect x="165.796" y="330.445" style="fill:#D5D6DB;" width="277.248" height="13.404"/>
	<rect x="165.796" y="383.201" style="fill:#D5D6DB;" width="277.248" height="13.404"/>
	<rect x="165.796" y="435.968" style="fill:#D5D6DB;" width="277.248" height="13.404"/>
</g>
<rect x="165.796" y="170.496" style="fill:#F6C358;" width="35.046" height="12.38"/>
<rect x="165.796" y="71.46" style="fill:#FCD462;" width="35.046" height="99.041"/>
<rect x="216.934" y="170.496" style="fill:#3EA69B;" width="35.046" height="12.38"/>
<rect x="216.934" y="27.766" style="fill:#44C4A1;" width="35.046" height="142.735"/>
<rect x="268.134" y="170.496" style="fill:#D15241;" width="35.046" height="12.38"/>
<rect x="268.134" y="93.307" style="fill:#E56353;" width="35.046" height="77.21"/>
<rect x="319.283" y="170.496" style="fill:#2D93BA;" width="35.046" height="12.38"/>
<rect x="319.283" y="55.439" style="fill:#27A2DB;" width="35.046" height="115.062"/>
<path style="fill:#64798A;" d="M175.809,414.92V269.324c0-1.746-0.295-3.484-0.882-5.131c-4.84-13.598-16.552-15.238-16.552-15.238
	c1.498-7.611-0.886-11.937-3.644-14.36c-2.224-1.954-5.163-2.943-8.149-2.943h-50.6c-29.058,0-52.831,23.309-52.831,51.797V414.92"
	/>
<path style="fill:#F6C358;" d="M148.305,388.809c-2.962-3.257-4.519-7.514-4.519-11.877v-3.477
	c-0.422,0.524-0.803,1.119-1.235,1.623c-9.233,10.809-20.645,17.286-33.048,17.286c-12.422,0-23.849-6.497-33.09-17.335
	c-0.431-0.505-0.813-1.102-1.234-1.626v3.529c0,4.363-1.558,8.62-4.519,11.877c-1.357,1.494-3.112,3.086-5.307,4.62
	c0.214,0.237,0.638,0.71,1.391,1.609c2.271,2.705,6.833,8.558,12.335,17.679c9.438,3.586,19.669,5.602,30.4,5.602
	c10.729,0,20.96-2.015,30.397-5.602c5.504-9.123,10.067-14.975,12.337-17.68c0.754-0.898,1.178-1.371,1.391-1.607
	C151.416,391.894,149.661,390.303,148.305,388.809z"/>
<path style="fill:#FCD462;" d="M109.503,393.197c12.403,0,23.815-6.477,33.048-17.286c0.432-0.504,0.813-1.099,1.235-1.623
	c12.818-15.928,21.122-40.415,21.122-68.074c-1.473-11.189-11.78-18.047-11.78-18.047l-33.132-10.827
	c-4.215,3.442-9.684,5.571-14.253,6.856c-4.317,1.215-8.789,1.805-13.281,1.805H74.714c-19.511,1.804-20.615,20.212-20.615,20.212
	c0,27.627,8.285,52.092,21.08,68.022c0.421,0.524,0.803,1.121,1.234,1.626C85.653,386.7,97.08,393.197,109.503,393.197z"/>
<path style="fill:#44C4A1;" d="M85.815,426.036c8.231,15.772,17.161,37.402,23.663,65.475c6.518-28.143,15.476-49.813,23.725-65.596
	c-7.599,1.846-15.517,2.928-23.724,2.928C101.308,428.842,93.389,427.854,85.815,426.036z"/>
<path style="fill:#31978C;" d="M77.28,412.24c2.455,4.068,5.082,8.78,7.79,14.108c7.813,1.925,15.981,2.972,24.409,2.972
	c8.466,0,16.633-1.145,24.472-3.101c2.684-5.275,5.289-9.943,7.725-13.979c-9.996,3.799-20.832,5.933-32.196,5.933
	C98.113,418.173,87.277,416.038,77.28,412.24z"/>
<path style="fill:#3A556A;" d="M63.57,395.031l-19.182,10.156L19.054,418.6c0,0-19.054,11.676-19.054,29.967v42.953h109.476
	l0.001-0.004"/>
<path style="fill:#EBF0F3;" d="M86.434,426.036c-2.557-5.03-5.037-9.478-7.355-13.319c-5.502-9.121-10.065-14.973-12.335-17.679
	c-0.753-0.898-1.178-1.372-1.391-1.609c-0.07-0.077-1.783,1.601-1.783,1.601l-8.898,10.374c-1.799,2.097-1.72,5.181,0.182,7.188
	l20.965,22.11l-3.502-0.08c-4.775-0.108-7.44,5.366-4.349,8.937l41.509,47.956l0.002-0.005
	C103.147,463.438,94.45,441.809,86.434,426.036z"/>
<path style="fill:#3A556A;" d="M109.476,491.52h0.004h109.476v-42.953c0-18.291-19.053-29.967-19.053-29.967l-25.334-13.413
	l-19.183-10.156"/>
<path style="fill:#EBF0F3;" d="M146.64,434.623l-3.502,0.08l20.965-22.11c1.904-2.007,1.981-5.09,0.182-7.188l-8.898-10.374
	c0,0-1.711-1.678-1.781-1.601c-0.214,0.236-0.637,0.709-1.391,1.607c-2.27,2.705-6.833,8.558-12.337,17.68
	c-2.299,3.811-4.759,8.217-7.293,13.198c-8.033,15.783-16.757,37.454-23.105,65.596l-0.002,0.005l-0.001,0.004l41.514-47.96
	C154.08,439.99,151.416,434.515,146.64,434.623z"/>
<g>
</g>
<g>
</g>
<g>
</g>
<g>
</g>
<g>
</g>
<g>
</g>
<g>
</g>
<g>
</g>
<g>
</g>
<g>
</g>
<g>
</g>
<g>
</g>
<g>
</g>
<g>
</g>
<g>
</g>
</svg>
