<?xml version="1.0" encoding="iso-8859-1"?>
<!-- Generator: Adobe Illustrator 19.0.0, SVG Export Plug-In . SVG Version: 6.00 Build 0)  -->
<svg version="1.1" id="Layer_1" xmlns="http://www.w3.org/2000/svg" xmlns:xlink="http://www.w3.org/1999/xlink" x="0px" y="0px"
	 viewBox="0 0 491.53 491.53" style="enable-background:new 0 0 491.53 491.53;" xml:space="preserve">
<path style="fill:#64798A;" d="M282.39,421.659c0-5.03-4.076-9.107-9.106-9.107h-50.083c-5.03,0-9.107,4.078-9.107,9.107v10.023
	h68.295V421.659z"/>
<g>
	<path style="fill:#3A556A;" d="M132.828,231.047l81.237-81.238l-29.035-29.035l-84.358,84.358
		C114.98,208.347,126.731,218.078,132.828,231.047z"/>
	<path style="fill:#3A556A;" d="M107.387,294.738c-5.3,2.066-11.02,3.303-17.051,3.303c-8.812,0-16.96-2.572-24.011-6.785v140.425
		h41.062V294.738z"/>
</g>
<path style="fill:#64798A;" d="M224.404,3.601c-4.802-4.803-12.587-4.8-17.388,0L162.647,47.97
	c-4.803,4.803-4.803,12.587-0.001,17.389l19.924,19.924l61.758-61.758L224.404,3.601z"/>
<path style="fill:#D5D6DB;" d="M230.4,166.144l94.787-94.786l-51.199-51.201c-7.26-7.258-19.03-7.261-26.29,0l-3.37,3.369
	L182.57,85.283l-3.369,3.371c-7.26,7.259-7.259,19.03,0.001,26.289l5.829,5.829l29.035,29.035L230.4,166.144z"/>
<path style="fill:#64798A;" d="M438.993,99.701L325.188,71.357L230.4,166.144l28.345,113.804
	c2.296,9.216,13.768,12.399,20.483,5.684l165.448-165.447C451.39,113.468,448.207,101.996,438.993,99.701z"/>
<path style="fill:#F6C358;" d="M329.159,235.7c18.111,18.111,47.474,18.111,65.585,0c18.111-18.111,18.11-47.474,0-65.586
	L329.159,235.7z"/>
<path style="fill:#EBF0F3;" d="M329.73,431.681h-47.34h-68.295H107.387H66.325h-0.432c-11.292,0-20.445,9.156-20.445,20.446v23.456
	h304.725v-23.456C350.174,440.837,341.022,431.681,329.73,431.681z"/>
<rect x="45.45" y="475.597" style="fill:#D5D6DB;" width="304.742" height="15.933"/>
<path style="fill:#64798A;" d="M107.387,294.738c17.539-6.842,30.015-23.799,30.015-43.763c0-7.152-1.719-13.858-4.574-19.928
	c-6.098-12.969-17.848-22.7-32.156-25.916c-3.336-0.751-6.774-1.223-10.336-1.223c-25.994,0-47.066,21.073-47.066,47.066
	c0,17.184,9.305,32.064,23.055,40.281c7.051,4.213,15.2,6.785,24.011,6.785C96.367,298.041,102.087,296.804,107.387,294.738z
	 M90.336,224.846c14.431,0,26.13,11.699,26.13,26.129c0,14.433-11.699,26.132-26.13,26.132s-26.13-11.699-26.13-26.132
	C64.206,236.545,75.905,224.846,90.336,224.846z"/>
<circle style="fill:#3A556A;" cx="90.337" cy="250.982" r="26.132"/>
<g>
</g>
<g>
</g>
<g>
</g>
<g>
</g>
<g>
</g>
<g>
</g>
<g>
</g>
<g>
</g>
<g>
</g>
<g>
</g>
<g>
</g>
<g>
</g>
<g>
</g>
<g>
</g>
<g>
</g>
</svg>
