<?xml version="1.0" encoding="iso-8859-1"?>
<!-- Generator: Adobe Illustrator 19.0.0, SVG Export Plug-In . SVG Version: 6.00 Build 0)  -->
<svg version="1.1" id="Layer_1" xmlns="http://www.w3.org/2000/svg" xmlns:xlink="http://www.w3.org/1999/xlink" x="0px" y="0px"
	 viewBox="0 0 491.521 491.521" style="enable-background:new 0 0 491.521 491.521;" xml:space="preserve">
<path style="fill:#E1E6E9;" d="M359.579,418.206l67.882,67.882c7.242,7.243,18.985,7.243,26.228,0l32.399-32.398
	c7.242-7.242,7.242-18.985,0-26.227l-67.883-67.882L359.579,418.206z"/>
<ellipse style="fill:#E7E7E7;" cx="234.36" cy="234.359" rx="234.359" ry="234.359"/>
<ellipse style="fill:#EBF0F3;" cx="234.36" cy="234.359" rx="198.892" ry="198.892"/>
<ellipse style="fill:#FCD462;" cx="234.36" cy="234.359" rx="188.724" ry="188.724"/>
<g>
	<path style="fill:#F6C358;" d="M136.893,345.348c-57.563-57.563-57.563-150.891,0-208.455c57.562-57.562,150.891-57.562,208.455,0
		c28.208,28.209,42.502,65.008,43.064,101.977c1.191-40.944-13.796-82.27-45.046-113.52c-60.203-60.204-157.813-60.204-218.017,0
		c-60.203,60.204-60.203,157.813,0,218.017c31.25,31.249,72.575,46.237,113.518,45.046
		C201.9,387.852,165.101,373.556,136.893,345.348z"/>
	<circle style="fill:#F6C358;" cx="136.801" cy="282.574" r="4.838"/>
	<circle style="fill:#F6C358;" cx="218.24" cy="178.326" r="5.801"/>
	<circle style="fill:#F6C358;" cx="318.822" cy="164.404" r="2.708"/>
	<circle style="fill:#F6C358;" cx="338.38" cy="251.239" r="5.996"/>
	<circle style="fill:#F6C358;" cx="269.306" cy="331.526" r="10.445"/>
	<circle style="fill:#F6C358;" cx="248.422" cy="377.959" r="1.935"/>
	<circle style="fill:#F6C358;" cx="164.096" cy="199.988" r="11.991"/>
	<circle style="fill:#F6C358;" cx="266.598" cy="135.384" r="7.736"/>
</g>
<g>
</g>
<g>
</g>
<g>
</g>
<g>
</g>
<g>
</g>
<g>
</g>
<g>
</g>
<g>
</g>
<g>
</g>
<g>
</g>
<g>
</g>
<g>
</g>
<g>
</g>
<g>
</g>
<g>
</g>
</svg>
