<?xml version="1.0" encoding="iso-8859-1"?>
<!-- Generator: Adobe Illustrator 19.0.0, SVG Export Plug-In . SVG Version: 6.00 Build 0)  -->
<svg version="1.1" id="Layer_1" xmlns="http://www.w3.org/2000/svg" xmlns:xlink="http://www.w3.org/1999/xlink" x="0px" y="0px"
	 viewBox="0 0 491.52 491.52" style="enable-background:new 0 0 491.52 491.52;" xml:space="preserve">
<circle style="fill:#EBF0F3;" cx="245.76" cy="245.76" r="162.232"/>
<path style="fill:#64798A;" d="M196.292,298.428c0,0,0.156,0.177,0.234,0.265c2.448-1.745,4.405-3.556,5.918-5.256
	c3.303-3.705,5.04-8.547,5.04-13.511v-3.067c-14.269-18.119-23.509-45.949-23.509-77.376c0,0,1.231-20.939,22.992-22.992h19.792
	c5.009,0,9.997-0.671,14.811-2.053c5.096-1.463,11.196-3.885,15.896-7.801l36.951,12.317c0,0,11.495,7.801,13.138,20.529
	c0,31.462-9.261,59.317-23.556,77.435v3.008c0,4.963,1.737,9.805,5.04,13.511c1.513,1.699,3.469,3.509,5.911,5.256
	c0.078-0.088,0.233-0.265,0.233-0.265l1.754,2.086l21.393,11.552h1.383V157.52c0-1.986-0.328-3.962-0.983-5.837
	c-5.398-15.468-18.459-17.334-18.459-17.334c1.67-8.657-0.988-13.578-4.064-16.334c-2.481-2.223-5.758-3.347-9.09-3.347h-56.43
	c-32.406,0-58.92,26.514-58.92,58.92v138.477h1.378l21.394-11.552L196.292,298.428z"/>
<path style="fill:#F6C358;" d="M289.038,293.437c-3.303-3.705-5.04-8.547-5.04-13.511v-3.008c-0.47,0.596-0.896,1.273-1.377,1.847
	c-10.297,12.294-23.024,19.663-36.856,19.663c-13.854,0-26.598-7.391-36.903-19.72c-0.481-0.575-0.907-1.253-1.377-1.849v3.067
	c0,4.963-1.737,9.805-5.04,13.511c-1.513,1.7-3.47,3.51-5.918,5.256c0.239,0.269,0.711,0.809,1.552,1.829
	c2.532,3.078,7.62,9.735,13.757,20.11c10.525,4.08,21.935,6.372,33.902,6.372c11.966,0,23.376-2.292,33.901-6.372
	c6.139-10.377,11.227-17.035,13.759-20.112c0.841-1.021,1.314-1.559,1.551-1.828C292.507,296.947,290.551,295.136,289.038,293.437z"
	/>
<path style="fill:#FCD462;" d="M245.764,298.428c13.832,0,26.559-7.368,36.856-19.663c0.481-0.575,0.907-1.251,1.377-1.847
	c14.295-18.117,23.556-45.973,23.556-77.435c-1.643-12.728-13.138-20.529-13.138-20.529l-36.951-12.317
	c-4.7,3.916-10.8,6.338-15.896,7.801c-4.814,1.382-9.802,2.053-14.811,2.053h-19.792c-21.76,2.053-22.992,22.992-22.992,22.992
	c0,31.427,9.24,59.257,23.509,77.376c0.47,0.596,0.896,1.274,1.377,1.849C219.166,291.038,231.911,298.428,245.764,298.428z"/>
<path style="fill:#44C4A1;" d="M220.036,335.783c8.94,17.942,18.638,42.547,25.7,74.479c7.08-32.013,16.809-56.663,25.768-74.617
	c-8.254,2.1-16.853,3.331-25.767,3.331C236.863,338.976,228.263,337.851,220.036,335.783z"/>
<path style="fill:#31978C;" d="M211.835,320.633c2.585,4.369,5.351,9.43,8.201,15.15c8.227,2.068,16.827,3.193,25.701,3.193
	c8.914,0,17.513-1.231,25.767-3.331c2.827-5.665,5.569-10.678,8.133-15.013c-10.525,4.08-21.934,6.372-33.901,6.372
	C233.77,327.004,222.36,324.712,211.835,320.633z"/>
<path style="fill:#3A556A;" d="M199.442,355.717c-3.447-4.062-0.475-10.289,4.85-10.166l3.906,0.09l-23.38-25.152
	c-2.122-2.282-2.21-5.789-0.204-8.175l9.924-11.801l-21.394,11.552l-28.253,15.258c0,0-21.25,13.282-21.25,34.088v48.86h122.092
	l0.001-0.004L199.442,355.717z"/>
<path style="fill:#EBF0F3;" d="M220.036,335.783c-2.851-5.72-5.617-10.781-8.201-15.15c-6.137-10.376-11.225-17.033-13.757-20.11
	c-0.841-1.021-1.314-1.56-1.552-1.829c-0.078-0.088-0.234-0.265-0.234-0.265l-1.753,2.086l-9.924,11.801
	c-2.006,2.386-1.919,5.893,0.204,8.175l23.38,25.152l-3.906-0.09c-5.325-0.123-8.297,6.104-4.85,10.166l46.293,54.552l0.002-0.006
	C238.675,378.33,228.977,353.725,220.036,335.783z"/>
<path style="fill:#3A556A;" d="M346.581,327.324l-28.253-15.258l-21.393-11.552l9.923,11.801c2.006,2.386,1.919,5.893-0.204,8.175
	l-23.38,25.152l3.906-0.09c5.325-0.123,8.297,6.104,4.85,10.166l-46.298,54.555h0.005h122.092v-48.86
	C367.831,340.606,346.581,327.324,346.581,327.324z"/>
<path style="fill:#EBF0F3;" d="M287.181,345.552l-3.906,0.09l23.38-25.152c2.123-2.282,2.21-5.789,0.204-8.175l-9.923-11.801
	l-1.754-2.086c0,0-0.155,0.177-0.233,0.265c-0.238,0.268-0.71,0.806-1.551,1.828c-2.532,3.077-7.62,9.735-13.759,20.112
	c-2.564,4.334-5.307,9.348-8.133,15.013c-8.959,17.954-18.688,42.604-25.768,74.617l-0.002,0.006v0.003l46.297-54.554
	C295.478,351.655,292.507,345.428,287.181,345.552z"/>
<path style="fill:#E56353;" d="M482.913,201.73l-39.675-6.742c-4.826-18.837-12.309-36.601-21.971-52.922l23.318-32.867
	c2.917-4.111,2.443-9.728-1.122-13.292l-47.852-47.853c-3.566-3.565-9.182-4.039-13.293-1.122l-32.854,23.311
	c-16.326-9.67-34.095-17.16-52.938-21.991l-6.739-39.647C288.943,3.635,284.637,0,279.596,0h-67.673
	c-5.041,0-9.347,3.635-10.191,8.604l-6.738,39.637c-18.85,4.829-36.628,12.316-52.961,21.987L109.2,46.933
	c-4.112-2.917-9.728-2.443-13.292,1.122L48.055,95.907c-3.565,3.565-4.039,9.181-1.122,13.292l23.291,32.83
	c-9.673,16.334-17.164,34.113-21.995,52.967L8.606,201.73C3.635,202.575,0,206.881,0,211.922v67.675
	c0,5.04,3.635,9.347,8.606,10.191l39.631,6.736c4.83,18.85,12.323,36.626,21.996,52.957l-23.3,32.839
	c-2.917,4.111-2.442,9.727,1.122,13.292l47.853,47.853c3.565,3.564,9.181,4.038,13.293,1.122l32.85-23.307
	c16.326,9.665,34.098,17.15,52.941,21.977l6.741,39.658c0.844,4.969,5.149,8.605,10.191,8.605h67.673
	c5.041,0,9.347-3.635,10.192-8.605l6.743-39.67c18.836-4.83,36.597-12.316,52.917-21.981l32.872,23.322
	c4.112,2.917,9.727,2.442,13.291-1.122l47.854-47.853c3.565-3.565,4.039-9.181,1.122-13.292l-23.325-32.876
	c9.661-16.318,17.145-34.078,21.974-52.912l39.679-6.744c4.97-0.845,8.606-5.151,8.606-10.191v-67.674
	C491.52,206.881,487.883,202.575,482.913,201.73z M394.791,299.057c-14.833,45.102-50.642,80.911-95.744,95.745
	C171.213,436.847,54.636,320.268,96.684,192.435c14.834-45.101,50.644-80.909,95.744-95.742
	C320.261,54.653,436.833,171.227,394.791,299.057z"/>
<g>
</g>
<g>
</g>
<g>
</g>
<g>
</g>
<g>
</g>
<g>
</g>
<g>
</g>
<g>
</g>
<g>
</g>
<g>
</g>
<g>
</g>
<g>
</g>
<g>
</g>
<g>
</g>
<g>
</g>
</svg>
