<?xml version="1.0" encoding="iso-8859-1"?>
<!-- Generator: Adobe Illustrator 19.0.0, SVG Export Plug-In . SVG Version: 6.00 Build 0)  -->
<svg version="1.1" id="Layer_1" xmlns="http://www.w3.org/2000/svg" xmlns:xlink="http://www.w3.org/1999/xlink" x="0px" y="0px"
	 viewBox="0 0 491.52 491.52" style="enable-background:new 0 0 491.52 491.52;" xml:space="preserve">
<rect style="fill:#64798A;" width="491.52" height="491.52"/>
<rect x="26.793" y="26.813" style="fill:#FFFFFF;" width="437.914" height="437.914"/>
<rect style="fill:#EBF0F3;" width="491.52" height="85.34"/>
<rect x="26.839" y="26.778" style="fill:#D5D6DB;" width="267.571" height="31.713"/>
<circle style="fill:#FCD462;" cx="338.586" cy="42.67" r="15.857"/>
<circle style="fill:#44C4A1;" cx="396.339" cy="42.67" r="15.857"/>
<circle style="fill:#E56353;" cx="454.093" cy="42.67" r="15.857"/>
<path style="fill:#FCD462;" d="M124.326,249.825v-11.464c-14.352-1.47-27.235-7.17-38.636-17.126l11.465-13.662
	c8.793,7.643,17.841,12.206,27.171,13.662v-30.469c-11.835-2.825-20.5-6.531-25.996-11.145c-5.495-4.601-8.243-11.438-8.243-20.5
	c0-9.048,3.156-16.461,9.496-22.212c6.339-5.764,14.583-8.908,24.743-9.433v-7.847h10.046v8.014
	c11.515,0.831,22.404,4.767,32.667,11.771l-10.212,14.454c-6.914-4.921-14.391-7.962-22.455-9.112v29.522h0.473
	c12.04,2.825,20.883,6.659,26.532,11.465c5.662,4.818,8.486,11.809,8.486,20.973c0,9.164-3.246,16.615-9.738,22.378
	c-6.493,5.752-15.068,8.896-25.753,9.419v11.311H124.326z M113.245,148.45c-2.671,2.351-4,5.291-4,8.793
	c0,3.515,1.047,6.275,3.144,8.32c2.083,2.045,6.071,4.013,11.937,5.892v-27.172C119.61,144.704,115.917,146.098,113.245,148.45z
	 M146.309,217.312c2.927-2.403,4.397-5.445,4.397-9.113c0-3.655-1.15-6.569-3.45-8.717c-2.314-2.134-6.608-4.153-12.883-6.045v28.27
	C139.394,221.184,143.369,219.727,146.309,217.312z"/>
<g>
	<rect x="222.817" y="139.827" style="fill:#EBF0F3;" width="205.261" height="8.934"/>
	<rect x="222.817" y="184.627" style="fill:#EBF0F3;" width="205.261" height="8.934"/>
	<rect x="222.817" y="229.432" style="fill:#EBF0F3;" width="205.261" height="8.934"/>
	<rect x="63.432" y="274.227" style="fill:#EBF0F3;" width="364.646" height="8.934"/>
	<rect x="63.432" y="319.027" style="fill:#EBF0F3;" width="364.646" height="8.934"/>
	<rect x="63.432" y="363.878" style="fill:#EBF0F3;" width="364.646" height="8.934"/>
	<rect x="63.432" y="408.678" style="fill:#EBF0F3;" width="364.646" height="8.934"/>
</g>
<g>
</g>
<g>
</g>
<g>
</g>
<g>
</g>
<g>
</g>
<g>
</g>
<g>
</g>
<g>
</g>
<g>
</g>
<g>
</g>
<g>
</g>
<g>
</g>
<g>
</g>
<g>
</g>
<g>
</g>
</svg>
