<?xml version="1.0" encoding="iso-8859-1"?>
<!-- Generator: Adobe Illustrator 19.0.0, SVG Export Plug-In . SVG Version: 6.00 Build 0)  -->
<svg version="1.1" id="Layer_1" xmlns="http://www.w3.org/2000/svg" xmlns:xlink="http://www.w3.org/1999/xlink" x="0px" y="0px"
	 viewBox="0 0 491.519 491.519" style="enable-background:new 0 0 491.519 491.519;" xml:space="preserve">
<g>
	<path style="fill:#EBF0F3;" d="M377.418,297.086c-7.137,7.689-14.619,15.554-21.7,22.634c-0.27,0.269-0.5,0.493-0.762,0.755
		l112.026,112.027c8.897-10.613,16.633-20.41,21.699-26.969c3.686-4.773,3.224-11.516-1.039-15.779l-92.976-92.976
		C389.859,291.972,382.041,292.104,377.418,297.086z"/>
	<path style="fill:#EBF0F3;" d="M334.172,337.661c-34.255,11.378-77.449,0.413-114.39-29.542
		c-48.951-39.693-75.865-102.642-65.745-150.593L37.929,41.418C17.977,59.424,0.35,78.544,0.35,90
		c0,141.75,259.972,415.895,400.93,400.93c11.281-1.198,30.133-18.651,47.995-38.167L334.172,337.661z"/>
	<path style="fill:#EBF0F3;" d="M85.776,2.384c-6.645,4.982-16.624,12.651-27.414,21.498l111.786,111.785
		c0.061-0.061,0.111-0.113,0.172-0.174c7.227-7.228,15.332-14.885,23.258-22.166c5.022-4.615,5.172-12.465,0.349-17.288
		l-92.51-92.511C97.198-0.69,90.551-1.194,85.776,2.384z"/>
</g>
<g>
</g>
<g>
</g>
<g>
</g>
<g>
</g>
<g>
</g>
<g>
</g>
<g>
</g>
<g>
</g>
<g>
</g>
<g>
</g>
<g>
</g>
<g>
</g>
<g>
</g>
<g>
</g>
<g>
</g>
</svg>
