<?xml version="1.0" encoding="iso-8859-1"?>
<!-- Generator: Adobe Illustrator 19.0.0, SVG Export Plug-In . SVG Version: 6.00 Build 0)  -->
<svg version="1.1" id="Layer_1" xmlns="http://www.w3.org/2000/svg" xmlns:xlink="http://www.w3.org/1999/xlink" x="0px" y="0px"
	 viewBox="0 0 491.52 491.52" style="enable-background:new 0 0 491.52 491.52;" xml:space="preserve">
<g>
	<path style="fill:#EBF0F3;" d="M37.058,0c-7.142,0-12.931,5.788-12.931,12.931v465.658c0,7.141,5.789,12.931,12.931,12.931
		c7.141,0,12.931-5.79,12.931-12.931V12.931C49.989,5.788,44.2,0,37.058,0z"/>
	<path style="fill:#EBF0F3;" d="M141.415,0c-7.141,0-12.931,5.788-12.931,12.931v465.658c0,7.141,5.79,12.931,12.931,12.931
		s12.931-5.79,12.931-12.931V12.931C154.346,5.788,148.556,0,141.415,0z"/>
	<path style="fill:#EBF0F3;" d="M245.773,0c-7.141,0-12.931,5.788-12.931,12.931v465.658c0,7.141,5.79,12.931,12.931,12.931
		c7.141,0,12.931-5.79,12.931-12.931V12.931C258.703,5.788,252.914,0,245.773,0z"/>
	<path style="fill:#EBF0F3;" d="M350.131,0c-7.142,0-12.931,5.788-12.931,12.931v465.658c0,7.141,5.789,12.931,12.931,12.931
		c7.141,0,12.931-5.79,12.931-12.931V12.931C363.061,5.788,357.272,0,350.131,0z"/>
	<path style="fill:#EBF0F3;" d="M454.487,0c-7.141,0-12.931,5.788-12.931,12.931v465.658c0,7.141,5.789,12.931,12.931,12.931
		c7.142,0,12.931-5.79,12.931-12.931V12.931C467.419,5.788,461.63,0,454.487,0z"/>
</g>
<circle style="fill:#FCD462;" cx="37.056" cy="165.683" r="37.043"/>
<circle style="fill:#DC8744;" cx="37.056" cy="165.683" r="17.674"/>
<circle style="fill:#27A2DB;" cx="141.417" cy="375.091" r="37.043"/>
<circle style="fill:#1C75A1;" cx="141.417" cy="375.091" r="17.674"/>
<circle style="fill:#44C4A1;" cx="245.773" cy="222.054" r="37.043"/>
<circle style="fill:#31978C;" cx="245.773" cy="222.054" r="17.674"/>
<circle style="fill:#FCD462;" cx="350.118" cy="399.667" r="37.043"/>
<circle style="fill:#DC8744;" cx="350.118" cy="399.667" r="17.674"/>
<circle style="fill:#64798A;" cx="454.464" cy="122.624" r="37.043"/>
<circle style="fill:#2F4859;" cx="454.464" cy="122.624" r="17.674"/>
<g>
</g>
<g>
</g>
<g>
</g>
<g>
</g>
<g>
</g>
<g>
</g>
<g>
</g>
<g>
</g>
<g>
</g>
<g>
</g>
<g>
</g>
<g>
</g>
<g>
</g>
<g>
</g>
<g>
</g>
</svg>
