<?xml version="1.0" encoding="iso-8859-1"?>
<!-- Generator: Adobe Illustrator 19.0.0, SVG Export Plug-In . SVG Version: 6.00 Build 0)  -->
<svg version="1.1" id="Layer_1" xmlns="http://www.w3.org/2000/svg" xmlns:xlink="http://www.w3.org/1999/xlink" x="0px" y="0px"
	 viewBox="0 0 491.52 491.52" style="enable-background:new 0 0 491.52 491.52;" xml:space="preserve">
<path style="fill:#EBF0F3;" d="M383.512,0H99.566c-9.157,0-16.582,7.424-16.582,16.581v458.358c0,9.157,7.425,16.581,16.582,16.581
	h283.946c9.158,0,16.582-7.424,16.582-16.581V16.581C400.094,7.424,392.67,0,383.512,0z"/>
<rect x="109.793" y="39.25" style="fill:#64798A;" width="263.475" height="368.691"/>
<rect x="109.793" y="394.906" style="fill:#3A556A;" width="263.475" height="13.041"/>
<g>
	<path style="fill:#64798A;" d="M241.537,472.575c-13.065,0-23.695-10.629-23.695-23.694c0-13.074,10.63-23.704,23.695-23.704
		c13.069,0,23.698,10.63,23.698,23.704C265.236,461.946,254.606,472.575,241.537,472.575z M241.537,434.114
		c-8.139,0-14.758,6.624-14.758,14.767c0,8.133,6.619,14.757,14.758,14.757c8.138,0,14.762-6.624,14.762-14.757
		C256.299,440.738,249.675,434.114,241.537,434.114z"/>
	<path style="fill:#64798A;" d="M261.92,23.539h-40.761c-2.469,0-4.468-1.998-4.468-4.468c0-2.469,1.999-4.468,4.468-4.468h40.761
		c2.469,0,4.468,1.999,4.468,4.468C266.389,21.541,264.389,23.539,261.92,23.539z"/>
	<circle style="fill:#64798A;" cx="194.765" cy="19.072" r="4.47"/>
</g>
<path style="fill:#44C4A1;" d="M472.391,88.225h-184.04c-5.212,0-9.437,4.225-9.437,9.437V214.48c0,5.212,4.225,9.437,9.437,9.437
	h13.609v31.089c0,7.43,8.983,11.151,14.237,5.897l36.986-36.986h119.208c5.213,0,9.437-4.225,9.437-9.437V97.662
	C481.828,92.45,477.604,88.225,472.391,88.225z"/>
<path style="fill:#FCD462;" d="M19.129,178.108h184.04c5.212,0,9.437,4.225,9.437,9.438v116.816c0,5.212-4.225,9.437-9.437,9.437
	h-13.609v31.089c0,7.43-8.983,11.151-14.237,5.897L138.337,313.8H19.129c-5.213,0-9.437-4.225-9.437-9.437V187.546
	C9.692,182.333,13.916,178.108,19.129,178.108z"/>
<g>
	<rect x="36.25" y="207.626" style="fill:#FFFFFF;" width="149.811" height="8.934"/>
	<rect x="36.25" y="241.306" style="fill:#FFFFFF;" width="149.811" height="8.934"/>
	<rect x="36.25" y="274.959" style="fill:#FFFFFF;" width="149.811" height="8.934"/>
	<rect x="305.459" y="115.052" style="fill:#FFFFFF;" width="149.811" height="8.934"/>
	<rect x="305.459" y="148.736" style="fill:#FFFFFF;" width="149.811" height="8.934"/>
	<rect x="305.459" y="182.385" style="fill:#FFFFFF;" width="149.811" height="8.934"/>
</g>
<g>
</g>
<g>
</g>
<g>
</g>
<g>
</g>
<g>
</g>
<g>
</g>
<g>
</g>
<g>
</g>
<g>
</g>
<g>
</g>
<g>
</g>
<g>
</g>
<g>
</g>
<g>
</g>
<g>
</g>
</svg>
