<?xml version="1.0" encoding="iso-8859-1"?>
<!-- Generator: Adobe Illustrator 19.0.0, SVG Export Plug-In . SVG Version: 6.00 Build 0)  -->
<svg version="1.1" id="Layer_1" xmlns="http://www.w3.org/2000/svg" xmlns:xlink="http://www.w3.org/1999/xlink" x="0px" y="0px"
	 viewBox="0 0 491.52 491.52" style="enable-background:new 0 0 491.52 491.52;" xml:space="preserve">
<path style="fill:#EBF0F3;" d="M412,232.87h-41.412c0,68.831-55.995,124.826-124.826,124.826S120.931,301.7,120.931,232.87H79.52
	c0,84.649,63.614,154.672,145.536,164.901v93.749h41.412v-93.749C348.39,387.541,412,317.518,412,232.87z"/>
<path style="fill:#3A556A;" d="M245.763,0h-0.003v311.108h0.003c43.14,0,78.238-35.098,78.238-78.238V78.238
	C324.001,35.098,288.903,0,245.763,0z"/>
<path style="fill:#64798A;" d="M167.519,78.238V232.87c0,43.139,35.097,78.237,78.241,78.238V0
	C202.616,0.001,167.519,35.099,167.519,78.238z"/>
<g>
</g>
<g>
</g>
<g>
</g>
<g>
</g>
<g>
</g>
<g>
</g>
<g>
</g>
<g>
</g>
<g>
</g>
<g>
</g>
<g>
</g>
<g>
</g>
<g>
</g>
<g>
</g>
<g>
</g>
</svg>
