<?xml version="1.0" encoding="iso-8859-1"?>
<!-- Generator: Adobe Illustrator 19.0.0, SVG Export Plug-In . SVG Version: 6.00 Build 0)  -->
<svg version="1.1" id="Layer_1" xmlns="http://www.w3.org/2000/svg" xmlns:xlink="http://www.w3.org/1999/xlink" x="0px" y="0px"
	 viewBox="0 0 491.52 491.52" style="enable-background:new 0 0 491.52 491.52;" xml:space="preserve">
<path style="fill:#3A556A;" d="M470.097,336.482h-26.81V219.955c0-106.379-88.612-192.926-197.528-192.926
	S48.233,113.576,48.233,219.955v116.527h-26.81V219.955c0-121.277,100.635-219.943,224.335-219.943
	c123.699,0,224.339,98.666,224.339,219.943V336.482z"/>
<path style="fill:#EBF0F3;" d="M350.194,273.835v108.747c0,23.478,18.887,42.51,42.185,42.51V231.325
	C369.081,231.325,350.194,250.357,350.194,273.835z"/>
<path style="fill:#E1E6E9;" d="M392.379,231.325L392.379,231.325v193.768l0,0c23.298,0,42.185-19.033,42.185-42.51V273.835
	C434.564,250.357,415.677,231.325,392.379,231.325z"/>
<path style="fill:#64798A;" d="M434.564,270.813v114.79c31.456,0,56.956-25.697,56.956-57.395
	C491.52,296.51,466.02,270.813,434.564,270.813z"/>
<path style="fill:#EBF0F3;" d="M141.326,273.835v108.747c0,23.478-18.887,42.51-42.185,42.51V231.325
	C122.439,231.325,141.326,250.357,141.326,273.835z"/>
<path style="fill:#E1E6E9;" d="M99.141,231.325L99.141,231.325v193.768l0,0c-23.298,0-42.185-19.033-42.185-42.51V273.835
	C56.956,250.357,75.843,231.325,99.141,231.325z"/>
<g>
	<path style="fill:#64798A;" d="M56.956,270.813v114.79C25.5,385.604,0,359.907,0,328.209C0,296.51,25.5,270.813,56.956,270.813z"/>
	<path style="fill:#64798A;" d="M267.88,481.232l-0.227-9.006c111.6-2.849,166.686-94.998,167.228-95.93l7.706,4.573
		C442.015,381.836,384.38,478.259,267.88,481.232z"/>
</g>
<g>
	<path style="fill:#3A556A;" d="M472.701,347.484c4.184-8.686,0.589-19.143-8.029-23.36c-8.62-4.217-18.998-0.594-23.181,8.09
		c-3.076,6.384-1.921,13.705,2.316,18.823l-13.581,28.19l12.785,6.255l13.581-28.19
		C463.201,357.481,469.626,353.868,472.701,347.484z"/>
	<ellipse style="fill:#3A556A;" cx="260.664" cy="475.712" rx="22.989" ry="15.795"/>
</g>
<g>
</g>
<g>
</g>
<g>
</g>
<g>
</g>
<g>
</g>
<g>
</g>
<g>
</g>
<g>
</g>
<g>
</g>
<g>
</g>
<g>
</g>
<g>
</g>
<g>
</g>
<g>
</g>
<g>
</g>
</svg>
