<?xml version="1.0" encoding="iso-8859-1"?>
<!-- Generator: Adobe Illustrator 19.0.0, SVG Export Plug-In . SVG Version: 6.00 Build 0)  -->
<svg version="1.1" id="Layer_1" xmlns="http://www.w3.org/2000/svg" xmlns:xlink="http://www.w3.org/1999/xlink" x="0px" y="0px"
	 viewBox="0 0 491.52 491.52" style="enable-background:new 0 0 491.52 491.52;" xml:space="preserve">
<g>
	<path style="fill:#64798A;" d="M0.104,320.642L0,371.578c-0.011,5.223,4.214,9.466,9.438,9.477l471.92,0.969
		c5.223,0.011,9.467-4.214,9.478-9.437l0.104-50.936L0.104,320.642z"/>
	<path style="fill:#64798A;" d="M491.52,39.159c0.011-5.222-4.215-9.466-9.438-9.477l-471.92-0.969
		c-5.224-0.011-9.467,4.215-9.478,9.437l-0.58,282.492l490.835,1.008L491.52,39.159z"/>
</g>
<path style="fill:#EBF0F3;" d="M461.772,67.168c0.01-4.703-3.704-8.524-8.296-8.534L38.648,57.783
	c-4.592-0.01-8.322,3.796-8.332,8.499l-0.522,254.421l431.455,0.886L461.772,67.168z"/>
<g>
	<ellipse style="fill:#3A556A;" cx="245.46" cy="351.352" rx="13.599" ry="13.599"/>
	
		<rect x="149.763" y="381.55" transform="matrix(-1 -0.002 0.002 -1 489.8097 825.9326)" style="fill:#3A556A;" width="191.13" height="62.331"/>
</g>
<g>
	<polygon style="fill:#2F4859;" points="149.702,443.675 149.83,381.343 340.966,381.736 	"/>
	
		<rect x="128.821" y="443.86" transform="matrix(-1 -0.002 0.002 -1 489.6221 906.9307)" style="fill:#2F4859;" width="232.909" height="18.709"/>
</g>
<rect x="241.866" y="101.731" transform="matrix(-0.0021 1 -1 -0.0021 563.5126 72.5729)" style="fill:#E1E6E9;" width="7.357" height="431.463"/>
<rect x="69.487" y="263.199" transform="matrix(-0.0021 1 -1 -0.0021 356.2958 207.715)" style="fill:#F6C358;" width="10.035" height="36.879"/>
<rect x="34.456" y="218.055" transform="matrix(-0.0021 1 -1 -0.0021 311.2446 162.3857)" style="fill:#FCD462;" width="80.282" height="36.879"/>
<rect x="137.431" y="263.354" transform="matrix(-0.002 1 -1 -0.002 424.5316 139.9177)" style="fill:#3EA69B;" width="10.035" height="36.879"/>
<rect x="84.721" y="200.481" transform="matrix(-0.002 1 -1 -0.002 361.7768 76.7937)" style="fill:#44C4A1;" width="115.697" height="36.874"/>
<rect x="205.313" y="263.512" transform="matrix(-0.0021 1 -1 -0.0021 492.7153 72.202)" style="fill:#D15241;" width="10.035" height="36.879"/>
<rect x="141.145" y="189.088" transform="matrix(-0.0021 1 -1 -0.0021 418.4816 -2.565)" style="fill:#E56353;" width="138.752" height="36.879"/>
<rect x="273.273" y="263.666" transform="matrix(-0.0021 1 -1 -0.0021 560.9686 4.397)" style="fill:#2D93BA;" width="10.035" height="36.879"/>
<rect x="196.455" y="176.598" transform="matrix(-0.002 1 -1 -0.002 474.0856 -83.0391)" style="fill:#27A2DB;" width="164.045" height="36.879"/>
<path style="fill:#DC8744;" d="M377.098,287.3l0.036-17.648c-22.089-2.309-41.904-11.124-59.422-26.486l17.692-20.996
	c13.511,11.793,27.427,18.845,41.785,21.118l0.096-46.905c-18.21-4.385-31.538-10.118-39.983-17.238
	c-8.445-7.1-12.654-17.634-12.625-31.584c0.029-13.93,4.912-25.332,14.689-34.165c9.777-8.853,22.477-13.668,38.12-14.442
	l0.025-12.08l15.464,0.032l-0.026,12.336c17.725,1.315,34.475,7.409,50.253,18.223l-15.767,22.22
	c-10.628-7.596-22.128-12.303-34.54-14.099l-0.094,45.449l0.728,0.001c18.525,4.386,32.128,10.316,40.808,17.732
	c8.702,7.436,13.028,18.206,12.998,32.313c-0.029,14.107-5.05,25.567-15.062,34.42c-10.013,8.833-23.225,13.645-39.675,14.418
	l-0.036,17.412L377.098,287.3z M360.36,131.206c-4.12,3.612-6.176,8.133-6.186,13.524c-0.012,5.411,1.593,9.663,4.814,12.818
	c3.2,3.154,9.333,6.197,18.357,9.107l0.086-41.828C370.17,125.462,364.48,127.594,360.36,131.206z M411.042,237.317
	c4.512-3.689,6.784-8.367,6.796-14.015c0.012-5.627-1.75-10.116-5.284-13.428c-3.554-3.293-10.158-6.415-19.814-9.346l-0.089,43.52
	C400.385,243.256,406.508,241.026,411.042,237.317z"/>
<g>
</g>
<g>
</g>
<g>
</g>
<g>
</g>
<g>
</g>
<g>
</g>
<g>
</g>
<g>
</g>
<g>
</g>
<g>
</g>
<g>
</g>
<g>
</g>
<g>
</g>
<g>
</g>
<g>
</g>
</svg>
