<?xml version="1.0" encoding="iso-8859-1"?>
<!-- Generator: Adobe Illustrator 19.0.0, SVG Export Plug-In . SVG Version: 6.00 Build 0)  -->
<svg version="1.1" id="Layer_1" xmlns="http://www.w3.org/2000/svg" xmlns:xlink="http://www.w3.org/1999/xlink" x="0px" y="0px"
	 viewBox="0 0 491.52 491.52" style="enable-background:new 0 0 491.52 491.52;" xml:space="preserve">
<g>
	<path style="fill:#FFFFFF;" d="M359.1,66.962l0.948,5.153c0.799,4.336-4.249,9.383-8.585,8.584l-5.152-0.947l0.949,5.152
		c0.798,4.335-4.251,9.384-8.586,8.586l-4.74-0.871c1.206,0.629,2.395,1.342,3.423,2.367l42.895,42.897
		c0.994,0.993,1.67,2.147,2.291,3.309l-0.864-4.697c-0.798-4.335,4.25-9.384,8.586-8.586l5.151,0.949l0,0l-0.947-5.151
		c-0.799-4.338,4.249-9.386,8.586-8.587l5.151,0.949l5.833,5.832l0,0l-64.831-64.831l0,0L359.1,66.962z"/>
	<polygon style="fill:#FFFFFF;" points="346.311,79.751 359.1,66.962 333.645,92.417 333.645,92.417 	"/>
</g>
<g>
	<path style="fill:#EBF0F3;" d="M139.627,384.647L139.627,384.647l-0.948-5.151c-0.798-4.337,4.25-9.384,8.586-8.587l5.152,0.949
		l0,0l-0.948-5.151c-0.798-4.335,4.25-9.384,8.585-8.586l5.152,0.946h0.001l-0.949-5.151c-0.537-2.917,1.586-6.114,4.344-7.678
		l-21.778-60.908l-5.145-0.946l0.949,5.151c0.798,4.335-4.251,9.384-8.586,8.586l-5.152-0.947l0.948,5.152
		c0.799,4.335-4.25,9.384-8.586,8.586l-5.151-0.949l0.947,5.153c0.773,4.2-3.937,9.02-8.174,8.594l29.398,82.215l-1.576,1.576
		l-30.085-84.14l-3.301-0.609l0.948,5.151c0.798,4.338-4.249,9.386-8.586,8.588l-5.151-0.949l-9.892-9.893L62.31,343.97
		l36.327,101.589l50.952-50.949L139.627,384.647L139.627,384.647z"/>
	<polygon style="fill:#EBF0F3;" points="192.837,233.225 200.395,225.667 186.429,239.632 186.429,239.632 	"/>
	<path style="fill:#EBF0F3;" d="M219.364,212.798c0.799,4.335-4.249,9.384-8.586,8.586l-5.152-0.949l0,0l0.949,5.154
		c0.798,4.335-4.251,9.384-8.586,8.586l-5.152-0.949l0.948,5.153c0.576,3.125-1.899,6.589-4.945,7.999l21.658,60.567
		c0.238,0.011,0.478-0.026,0.713,0.018l5.151,0.949l0.001-0.003l-0.948-5.149c-0.798-4.337,4.249-9.385,8.586-8.587l5.151,0.949
		h0.001l-0.949-5.151c-0.797-4.338,4.251-9.386,8.586-8.587l5.152,0.949l0,0l-0.948-5.152c-0.73-3.962,3.422-8.465,7.452-8.613
		l-8.304-23.221c-1.932-1.416-3.836-2.904-5.592-4.659c-9.202-9.202-13.575-21.119-13.308-32.52l-2.828-0.519L219.364,212.798z"/>
	<polygon style="fill:#EBF0F3;" points="221.4,204.662 221.4,204.662 211.382,214.679 218.416,207.647 	"/>
	<polygon style="fill:#EBF0F3;" points="145.219,280.843 107.157,318.905 107.157,318.905 116.101,309.962 128.889,297.173 
		141.679,284.384 145.22,280.843 	"/>
	<polygon style="fill:#EBF0F3;" points="105.583,320.48 90.521,335.541 103.311,322.751 	"/>
	<polygon style="fill:#EBF0F3;" points="154.468,271.594 167.258,258.804 180.048,246.014 184.855,241.208 184.855,241.208 
		146.793,279.27 146.793,279.27 	"/>
	<path style="fill:#EBF0F3;" d="M254.732,269.541L254.732,269.541l-0.948-5.151c-0.798-4.335,4.25-9.384,8.586-8.586l5.151,0.949
		l0,0l-0.507-2.758c-8.173,0.181-16.549-2.068-24.064-6.779l7.715,21.576L254.732,269.541z"/>
	<polygon style="fill:#EBF0F3;" points="60.735,345.543 16.351,389.927 52.677,491.52 98.637,445.559 97.061,447.134 	"/>
	<path style="fill:#EBF0F3;" d="M185.199,246.963l-5.151-0.949l0.948,5.154c0.798,4.335-4.25,9.382-8.586,8.583l-5.152-0.946
		l0.948,5.151c0.798,4.335-4.25,9.384-8.586,8.586l-5.153-0.947l0.949,5.152c0.67,3.643-2.791,7.747-6.485,8.504l21.538,60.234
		c0.791-0.197,1.591-0.297,2.374-0.153l5.151,0.947h0.001l-0.949-5.151c-0.798-4.336,4.25-9.384,8.587-8.586l5.151,0.946l0,0
		l-0.947-5.151c-0.799-4.335,4.25-9.384,8.585-8.586l5.151,0.949v-0.002l-0.947-5.151c-0.631-3.425,2.397-7.25,5.831-8.331
		l-21.538-60.234C186.344,247.062,185.766,247.069,185.199,246.963z"/>
</g>
<g>
	<polygon style="fill:#D5D6DB;" points="60.735,345.543 97.061,447.134 98.637,445.559 62.31,343.97 	"/>
	<path style="fill:#D5D6DB;" d="M106.612,323.36l30.085,84.14l1.576-1.576l-29.398-82.215c-0.137-0.013-0.276,0.017-0.412-0.009
		L106.612,323.36z"/>
	<polygon style="fill:#D5D6DB;" points="107.157,318.905 107.157,318.905 105.583,320.48 105.583,320.48 	"/>
	<path style="fill:#D5D6DB;" d="M148.932,285.25c-0.702,0.144-1.408,0.21-2.101,0.08h-0.007l21.778,60.908
		c0.601-0.343,1.226-0.593,1.869-0.755L148.932,285.25z"/>
	<polygon style="fill:#D5D6DB;" points="146.793,279.27 146.793,279.27 145.219,280.843 145.22,280.843 	"/>
	<polygon style="fill:#D5D6DB;" points="186.429,239.632 186.429,239.632 184.855,241.208 184.855,241.208 	"/>
	<path style="fill:#D5D6DB;" d="M186.92,246.983l21.538,60.234c0.676-0.212,1.357-0.301,2.041-0.273l-21.658-60.567
		C188.215,246.665,187.573,246.892,186.92,246.983z"/>
	<path style="fill:#D5D6DB;" d="M249.581,268.592l1.085,0.201l-7.715-21.576c-0.952-0.596-1.888-1.198-2.808-1.872l8.304,23.221
		C248.826,268.553,249.207,268.524,249.581,268.592z"/>
</g>
<g>
	<path style="fill:#D15241;" d="M408.206,116.068l-12.789,12.789l-12.654,12.653c2.257,4.525,1.815,9.853-1.638,13.305
		L292.28,243.66c-6.001,6.002-13.708,9.301-21.849,10.182l-2.909,2.911l-12.788,12.788l-12.79,12.79l-12.789,12.789l-12.789,12.79
		l-12.79,12.789l-12.789,12.788l-12.788,12.79l-12.789,12.789l-12.79,12.79l-12.789,12.789l9.962,9.963l8.225,8.225
		c6.725,6.724,17.629,6.724,24.353,0L438.57,146.432L414.039,121.9L408.206,116.068z"/>
	<polygon style="fill:#D15241;" points="216.363,307.911 216.364,307.911 216.364,307.908 	"/>
	<path style="fill:#D15241;" d="M105.583,320.48l1.575-1.576l38.062-38.061l1.575-1.574l38.062-38.062l1.575-1.576l13.965-13.965
		l5.232-5.232l5.755-5.755l10.018-10.017c0.906-8.088,4.212-15.739,10.177-21.705l88.845-88.845
		c3.431-3.43,8.717-3.901,13.223-1.695L359.1,66.962l-9.892-9.892l-20.471-20.47L72.334,293.002c-6.725,6.725-6.725,17.628,0,24.353
		l8.295,8.293l9.892,9.893L105.583,320.48z"/>
</g>
<path style="fill:#64798A;" d="M452.421,22.747c-30.33-30.329-79.503-30.329-109.832,0l-13.852,13.852l20.471,20.47l64.831,64.831
	l24.531,24.532l13.851-13.853C482.751,102.25,482.751,53.077,452.421,22.747z"/>
<g>
	<path style="fill:#D5D6DB;" d="M95.673,336.491c4.337,0.798,9.384-4.25,8.586-8.588l-0.948-5.151l-12.789,12.79L95.673,336.491z"/>
	<path style="fill:#D5D6DB;" d="M105.583,320.48l-2.272,2.271l3.301,0.609l1.851,0.341c0.136,0.026,0.275-0.004,0.412,0.009
		c4.237,0.425,8.947-4.394,8.174-8.594l-0.947-5.153l-8.944,8.943L105.583,320.48z"/>
	<path style="fill:#D5D6DB;" d="M121.252,310.911c4.335,0.798,9.385-4.25,8.586-8.586l-0.948-5.152l-12.788,12.788L121.252,310.911z
		"/>
	<path style="fill:#D5D6DB;" d="M134.042,298.121c4.335,0.799,9.384-4.25,8.586-8.586l-0.949-5.151l-12.789,12.789L134.042,298.121z
		"/>
	<path style="fill:#D5D6DB;" d="M148.932,285.25c3.694-0.757,7.156-4.861,6.485-8.504l-0.949-5.152l-7.675,7.676l-1.574,1.574
		l-3.541,3.541l5.145,0.946h0.007C147.523,285.46,148.229,285.394,148.932,285.25z"/>
	<path style="fill:#D5D6DB;" d="M168.207,263.956l-0.948-5.151l-12.79,12.789l5.153,0.947
		C163.956,273.34,169.005,268.291,168.207,263.956z"/>
	<path style="fill:#D5D6DB;" d="M180.996,251.168l-0.948-5.154l-12.789,12.79l5.152,0.946
		C176.746,260.55,181.794,255.503,180.996,251.168z"/>
	<path style="fill:#D5D6DB;" d="M186.92,246.983c0.653-0.091,1.295-0.318,1.92-0.606c3.046-1.41,5.521-4.874,4.945-7.999
		l-0.948-5.153l-6.408,6.408l-1.575,1.576l-4.807,4.806l5.151,0.949C185.766,247.069,186.344,247.062,186.92,246.983z"/>
	<path style="fill:#D5D6DB;" d="M197.989,234.174c4.335,0.798,9.384-4.25,8.586-8.586l-0.949-5.154l0,0l-5.232,5.232l-7.558,7.558
		L197.989,234.174z"/>
	<path style="fill:#D5D6DB;" d="M210.778,221.384c4.336,0.799,9.384-4.25,8.586-8.586l-0.948-5.151l-7.034,7.032l-5.755,5.755l0,0
		L210.778,221.384z"/>
	<path style="fill:#D5D6DB;" d="M221.243,208.166c0.028-1.172,0.028-2.345,0.156-3.504l-2.984,2.985L221.243,208.166z"/>
	<path style="fill:#D5D6DB;" d="M333.934,92.617l4.74,0.871c4.335,0.798,9.385-4.25,8.586-8.586l-0.949-5.152l-12.666,12.666
		C333.748,92.467,333.833,92.563,333.934,92.617z"/>
	<path style="fill:#D5D6DB;" d="M351.463,80.698c4.336,0.799,9.384-4.248,8.585-8.584l-0.948-5.153l-12.789,12.789L351.463,80.698z"
		/>
	<path style="fill:#D5D6DB;" d="M147.264,370.909c-4.335-0.796-9.384,4.25-8.586,8.587l0.948,5.151l0,0l12.789-12.789l0,0
		L147.264,370.909z"/>
	<path style="fill:#D5D6DB;" d="M160.054,358.121c-4.335-0.799-9.384,4.25-8.585,8.586l0.948,5.151l0,0l12.79-12.79h-0.001
		L160.054,358.121z"/>
	<path style="fill:#D5D6DB;" d="M172.844,345.331c-0.783-0.144-1.583-0.044-2.374,0.153c-0.643,0.162-1.267,0.412-1.869,0.755
		c-2.758,1.564-4.881,4.761-4.344,7.678l0.949,5.151l0,0l12.789-12.789h-0.001L172.844,345.331z"/>
	<path style="fill:#D5D6DB;" d="M185.633,332.541c-4.336-0.799-9.385,4.249-8.587,8.586l0.949,5.151l0,0l12.788-12.79l0,0
		L185.633,332.541z"/>
	<path style="fill:#D5D6DB;" d="M198.423,319.751c-4.335-0.798-9.384,4.25-8.585,8.586l0.947,5.151l0,0l12.789-12.788l0,0
		L198.423,319.751z"/>
	<path style="fill:#D5D6DB;" d="M211.212,306.962c-0.235-0.044-0.475-0.007-0.713-0.018c-0.684-0.029-1.366,0.061-2.041,0.273
		c-3.434,1.08-6.462,4.905-5.831,8.331l0.947,5.151v0.002l12.79-12.789h-0.001L211.212,306.962z"/>
	<path style="fill:#D5D6DB;" d="M224.001,294.172c-4.336-0.798-9.384,4.25-8.586,8.587l0.948,5.149v0.003l12.789-12.79h-0.001
		L224.001,294.172z"/>
	<path style="fill:#D5D6DB;" d="M236.791,281.382c-4.335-0.799-9.384,4.249-8.586,8.587l0.949,5.151l0,0l12.789-12.789l0,0
		L236.791,281.382z"/>
	<path style="fill:#D5D6DB;" d="M250.666,268.793l-1.085-0.201c-0.374-0.068-0.755-0.039-1.134-0.026
		c-4.03,0.148-8.182,4.652-7.452,8.613l0.948,5.152l0,0l12.79-12.79h-0.001L250.666,268.793z"/>
	<path style="fill:#D5D6DB;" d="M262.37,255.804c-4.336-0.799-9.384,4.25-8.586,8.586l0.949,5.151l0,0l12.788-12.788l0,0
		L262.37,255.804z"/>
	<path style="fill:#D5D6DB;" d="M267.015,253.996l0.507,2.758l0,0l2.909-2.911C269.301,253.965,268.158,253.97,267.015,253.996z"/>
	<path style="fill:#D5D6DB;" d="M390.266,127.908c-4.336-0.798-9.384,4.25-8.586,8.586l0.864,4.697
		c0.06,0.113,0.164,0.206,0.22,0.319l12.654-12.653l0,0L390.266,127.908z"/>
	<path style="fill:#D5D6DB;" d="M394.469,123.706l0.947,5.151l0,0l12.789-12.789l-5.151-0.949
		C398.719,114.32,393.67,119.368,394.469,123.706z"/>
</g>
<path style="fill:#64798A;" d="M382.543,141.191c-0.621-1.163-1.298-2.316-2.291-3.309l-42.895-42.897
	c-1.028-1.025-2.216-1.738-3.423-2.367c-0.101-0.055-0.186-0.15-0.289-0.2l0,0c-4.506-2.206-9.792-1.735-13.223,1.695
	l-88.845,88.845c-5.965,5.965-9.271,13.617-10.177,21.705l0,0c-0.129,1.159-0.129,2.332-0.156,3.504
	c-0.267,11.401,4.106,23.318,13.308,32.52c1.756,1.754,3.66,3.242,5.592,4.659c0.92,0.674,1.856,1.276,2.808,1.872
	c7.515,4.711,15.891,6.96,24.064,6.779c1.143-0.026,2.286-0.03,3.416-0.153c8.141-0.881,15.849-4.181,21.849-10.182l88.845-88.845
	c3.453-3.452,3.895-8.78,1.638-13.305C382.708,141.396,382.603,141.304,382.543,141.191z M282.96,183.348
	c2.467-2.467,6.464-2.467,8.93,0c2.467,2.466,2.467,6.463,0,8.929c-2.466,2.465-6.463,2.465-8.93,0
	C280.495,189.811,280.495,185.814,282.96,183.348z M323.09,193.782c-2.467,2.466-6.464,2.466-8.93,0
	c-2.466-2.466-2.466-6.462,0-8.928c2.466-2.466,6.463-2.466,8.93,0C325.556,187.32,325.556,191.316,323.09,193.782z
	 M321.584,162.584c-2.467,2.466-6.464,2.466-8.93,0c-2.467-2.467-2.467-6.464,0-8.93c2.466-2.466,6.463-2.466,8.93,0
	C324.049,156.12,324.049,160.116,321.584,162.584z M281.455,152.148c2.466-2.466,6.464-2.466,8.93,0
	c2.466,2.466,2.466,6.463,0,8.928c-2.466,2.466-6.464,2.466-8.93,0C278.989,158.611,278.989,154.614,281.455,152.148z
	 M296.301,137.301c2.466-2.465,6.464-2.465,8.93,0c2.466,2.466,2.466,6.465,0,8.93c-2.466,2.466-6.464,2.466-8.93,0
	C293.836,143.766,293.836,139.766,296.301,137.301z M297.807,168.501c2.467-2.467,6.464-2.467,8.93,0
	c2.466,2.466,2.466,6.463,0,8.93c-2.466,2.466-6.463,2.466-8.93,0C295.341,174.964,295.341,170.966,297.807,168.501z
	 M311.148,122.454c2.466-2.466,6.464-2.466,8.93,0c2.466,2.465,2.466,6.465,0,8.93c-2.466,2.466-6.464,2.466-8.93,0
	C308.682,128.919,308.682,124.919,311.148,122.454z M299.314,208.629c-2.466-2.466-2.466-6.465,0-8.93
	c2.466-2.466,6.464-2.466,8.93,0s2.466,6.465,0,8.93C305.778,211.095,301.779,211.095,299.314,208.629z M293.396,214.546
	c2.467,2.466,2.467,6.465,0,8.93c-2.465,2.465-6.463,2.465-8.929,0c-2.466-2.466-2.466-6.465,0-8.93
	C286.933,212.081,290.931,212.081,293.396,214.546z M278.55,238.321c-2.467,2.467-6.464,2.467-8.929,0
	c-2.467-2.466-2.467-6.463,0-8.928c2.466-2.466,6.463-2.466,8.929,0C281.016,231.858,281.016,235.856,278.55,238.321z
	 M358.7,140.314c2.466-2.466,6.464-2.466,8.93,0c2.466,2.466,2.466,6.462,0,8.928c-2.466,2.466-6.464,2.466-8.93,0
	C356.234,146.776,356.234,142.78,358.7,140.314z M352.783,164.089c-2.466,2.466-6.464,2.466-8.93,0c-2.466-2.466-2.466-6.465,0-8.93
	c2.466-2.465,6.464-2.465,8.93,0C355.249,157.625,355.249,161.624,352.783,164.089z M342.348,123.959
	c2.466-2.466,6.463-2.466,8.929,0c2.467,2.467,2.467,6.465,0,8.93c-2.466,2.467-6.463,2.467-8.929,0
	C339.881,130.424,339.881,126.427,342.348,123.959z M337.936,178.937c-2.466,2.466-6.464,2.466-8.93,0
	c-2.467-2.466-2.467-6.465,0-8.93c2.466-2.466,6.464-2.466,8.93,0C340.402,172.472,340.402,176.471,337.936,178.937z
	 M336.43,147.737c-2.466,2.465-6.464,2.465-8.929,0c-2.467-2.466-2.467-6.463,0-8.93c2.465-2.466,6.463-2.466,8.929,0
	C338.896,141.274,338.896,145.271,336.43,147.737z M334.924,116.537c-2.466,2.465-6.464,2.465-8.93,0
	c-2.466-2.466-2.466-6.463,0-8.929c2.466-2.465,6.464-2.465,8.93,0C337.39,110.074,337.39,114.071,334.924,116.537z
	 M245.844,205.616c-2.466,2.466-6.464,2.466-8.93,0c-2.466-2.466-2.466-6.462,0-8.928c2.466-2.466,6.464-2.466,8.93,0
	C248.31,199.154,248.31,203.15,245.844,205.616z M251.761,181.84c2.466-2.466,6.463-2.466,8.93,0c2.466,2.466,2.466,6.465,0,8.93
	c-2.467,2.466-6.464,2.466-8.93,0C249.296,188.305,249.296,184.306,251.761,181.84z M262.197,221.971
	c-2.466,2.466-6.464,2.466-8.93,0c-2.466-2.467-2.466-6.465,0-8.93c2.466-2.465,6.464-2.465,8.93,0
	C264.662,215.506,264.662,219.503,262.197,221.971z M266.608,166.993c2.466-2.465,6.464-2.465,8.93,0
	c2.466,2.466,2.466,6.465,0,8.93c-2.466,2.466-6.464,2.466-8.93,0C264.142,173.458,264.142,169.459,266.608,166.993z
	 M268.115,198.194c2.465-2.466,6.463-2.466,8.929,0c2.467,2.465,2.467,6.462,0,8.93c-2.466,2.466-6.464,2.466-8.929,0
	C265.648,204.656,265.648,200.659,268.115,198.194z"/>
<g>
	<ellipse style="fill:#3A556A;" cx="274.075" cy="233.876" rx="6.313" ry="6.313"/>
	<ellipse style="fill:#3A556A;" cx="257.752" cy="217.475" rx="6.313" ry="6.313"/>
	<ellipse style="fill:#3A556A;" cx="241.374" cy="201.179" rx="6.313" ry="6.313"/>
	<ellipse style="fill:#3A556A;" cx="288.927" cy="219.023" rx="6.313" ry="6.313"/>
	<ellipse style="fill:#3A556A;" cx="272.588" cy="202.628" rx="6.313" ry="6.313"/>
	<ellipse style="fill:#3A556A;" cx="256.22" cy="186.323" rx="6.313" ry="6.313"/>
	<ellipse style="fill:#3A556A;" cx="303.773" cy="204.172" rx="6.313" ry="6.313"/>
	<ellipse style="fill:#3A556A;" cx="287.43" cy="187.79" rx="6.313" ry="6.313"/>
	<ellipse style="fill:#3A556A;" cx="271.081" cy="171.447" rx="6.313" ry="6.313"/>
	<ellipse style="fill:#3A556A;" cx="318.619" cy="189.324" rx="6.313" ry="6.313"/>
	<ellipse style="fill:#3A556A;" cx="302.278" cy="172.957" rx="6.313" ry="6.313"/>
	<ellipse style="fill:#3A556A;" cx="285.919" cy="156.594" rx="6.313" ry="6.313"/>
	<ellipse style="fill:#3A556A;" cx="333.478" cy="174.479" rx="6.313" ry="6.313"/>
	<ellipse style="fill:#3A556A;" cx="317.119" cy="158.123" rx="6.313" ry="6.313"/>
	<ellipse style="fill:#3A556A;" cx="300.764" cy="141.766" rx="6.313" ry="6.313"/>
	<ellipse style="fill:#3A556A;" cx="348.327" cy="159.625" rx="6.313" ry="6.313"/>
	<ellipse style="fill:#3A556A;" cx="331.965" cy="143.293" rx="6.313" ry="6.313"/>
	<ellipse style="fill:#3A556A;" cx="315.6" cy="126.93" rx="6.313" ry="6.313"/>
	<ellipse style="fill:#3A556A;" cx="363.176" cy="144.811" rx="6.313" ry="6.313"/>
	<ellipse style="fill:#3A556A;" cx="346.814" cy="128.42" rx="6.313" ry="6.313"/>
	<ellipse style="fill:#3A556A;" cx="330.446" cy="112.067" rx="6.313" ry="6.313"/>
</g>
<g>
</g>
<g>
</g>
<g>
</g>
<g>
</g>
<g>
</g>
<g>
</g>
<g>
</g>
<g>
</g>
<g>
</g>
<g>
</g>
<g>
</g>
<g>
</g>
<g>
</g>
<g>
</g>
<g>
</g>
</svg>
