<?xml version="1.0" encoding="iso-8859-1"?>
<!-- Generator: Adobe Illustrator 19.0.0, SVG Export Plug-In . SVG Version: 6.00 Build 0)  -->
<svg version="1.1" id="Layer_1" xmlns="http://www.w3.org/2000/svg" xmlns:xlink="http://www.w3.org/1999/xlink" x="0px" y="0px"
	 viewBox="0 0 491.52 491.52" style="enable-background:new 0 0 491.52 491.52;" xml:space="preserve">
<polygon style="fill:#EBF0F3;" points="326.95,0 62.335,0 62.335,491.52 429.184,491.52 429.184,102.234 "/>
<polygon style="fill:#E1E6E9;" points="326.95,102.234 429.184,102.234 326.95,0 "/>
<g>
	<polygon style="fill:#D5D6DB;" points="429.184,102.234 326.95,102.234 429.184,173.099 	"/>
	<rect x="109.839" y="66.713" style="fill:#D5D6DB;" width="158.561" height="13.404"/>
	<rect x="109.839" y="119.454" style="fill:#D5D6DB;" width="158.561" height="13.404"/>
	<rect x="109.839" y="172.206" style="fill:#D5D6DB;" width="271.821" height="13.404"/>
	<rect x="109.839" y="224.952" style="fill:#D5D6DB;" width="271.821" height="13.404"/>
	<rect x="109.839" y="277.709" style="fill:#D5D6DB;" width="271.821" height="13.404"/>
	<rect x="109.839" y="330.445" style="fill:#D5D6DB;" width="271.821" height="13.404"/>
	<rect x="109.839" y="383.201" style="fill:#D5D6DB;" width="271.821" height="13.404"/>
	<rect x="109.839" y="435.968" style="fill:#D5D6DB;" width="271.821" height="13.404"/>
</g>
<path style="fill:#E56353;" d="M284.709,337.344c0-6.329-0.85-12.445-2.293-18.33l20.07-16.324l-17.286-29.942l-24.16,9.213
	c-8.836-8.482-19.679-14.859-31.766-18.359l-4.097-25.509h-34.573l-4.097,25.509c-12.088,3.501-22.931,9.877-31.766,18.36
	l-24.16-9.214l-17.286,29.942l20.07,16.325c-1.443,5.884-2.292,12-2.292,18.329s0.849,12.445,2.292,18.33l-20.07,16.325
	l17.286,29.942l24.16-9.214c8.836,8.482,19.679,14.859,31.766,18.36l4.097,25.509h34.573l4.097-25.509
	c12.088-3.501,22.931-9.878,31.766-18.36l24.16,9.214l17.286-29.942l-20.07-16.325C283.859,349.79,284.709,343.674,284.709,337.344z
	 M207.889,390.065c-29.117,0-52.72-23.604-52.72-52.721c0-29.117,23.604-52.72,52.72-52.72c29.117,0,52.72,23.604,52.72,52.72
	C260.609,366.462,237.005,390.065,207.889,390.065z"/>
<path style="fill:#D15241;" d="M207.889,284.624c-29.117,0-52.72,23.604-52.72,52.72c0,29.118,23.604,52.721,52.72,52.721
	c29.117,0,52.72-23.604,52.72-52.721C260.609,308.227,237.005,284.624,207.889,284.624z M207.889,381.921
	c-24.619,0-44.577-19.958-44.577-44.577c0-24.619,19.958-44.576,44.577-44.576c24.62,0,44.577,19.958,44.577,44.576
	C252.466,361.964,232.508,381.921,207.889,381.921z"/>
<path style="fill:#44C4A1;" d="M366.825,229.352c0-4.06-0.544-7.983-1.471-11.757l12.874-10.472l-11.089-19.205l-15.496,5.91
	c-5.668-5.441-12.623-9.531-20.377-11.776l-2.628-16.362h-22.176l-2.628,16.362c-7.753,2.245-14.708,6.335-20.376,11.776
	l-15.497-5.91l-11.088,19.205l12.873,10.472c-0.925,3.774-1.47,7.697-1.47,11.757c0,4.059,0.545,7.982,1.47,11.757l-12.873,10.471
	l11.088,19.206l15.497-5.91c5.668,5.441,12.623,9.531,20.376,11.776l2.628,16.362h22.176l2.628-16.362
	c7.754-2.245,14.709-6.335,20.377-11.776l15.496,5.91l11.089-19.206l-12.874-10.471C366.28,237.335,366.825,233.411,366.825,229.352
	z M317.55,263.168c-18.677,0-33.817-15.141-33.817-33.817c0-18.677,15.14-33.817,33.817-33.817c18.677,0,33.817,15.14,33.817,33.817
	C351.367,248.028,336.227,263.168,317.55,263.168z"/>
<path style="fill:#3EA69B;" d="M317.55,195.535c-18.677,0-33.817,15.14-33.817,33.817c0,18.676,15.14,33.817,33.817,33.817
	c18.677,0,33.817-15.141,33.817-33.817C351.367,210.675,336.227,195.535,317.55,195.535z M317.55,257.945
	c-15.792,0-28.593-12.802-28.593-28.593c0-15.792,12.801-28.593,28.593-28.593c15.791,0,28.593,12.801,28.593,28.593
	C346.143,245.143,333.341,257.945,317.55,257.945z"/>
<g>
</g>
<g>
</g>
<g>
</g>
<g>
</g>
<g>
</g>
<g>
</g>
<g>
</g>
<g>
</g>
<g>
</g>
<g>
</g>
<g>
</g>
<g>
</g>
<g>
</g>
<g>
</g>
<g>
</g>
</svg>
