<?xml version="1.0" encoding="iso-8859-1"?>
<!-- Generator: Adobe Illustrator 19.0.0, SVG Export Plug-In . SVG Version: 6.00 Build 0)  -->
<svg version="1.1" id="Layer_1" xmlns="http://www.w3.org/2000/svg" xmlns:xlink="http://www.w3.org/1999/xlink" x="0px" y="0px"
	 viewBox="0 0 491.52 491.52" style="enable-background:new 0 0 491.52 491.52;" xml:space="preserve">
<path style="fill:#EBF0F3;" d="M245.758,120.59c-33.243,0-60.291-27.048-60.291-60.291c0-33.251,27.048-60.3,60.291-60.3
	c33.247,0,60.296,27.049,60.296,60.3C306.054,93.543,279.005,120.59,245.758,120.59z M245.758,8.132
	c-28.759,0-52.159,23.403-52.159,52.167c0,28.764,23.4,52.159,52.159,52.159c28.765,0,52.164-23.395,52.164-52.159
	C297.922,31.535,274.523,8.132,245.758,8.132z"/>
<rect x="230.328" y="82.125" style="fill:#2F4859;" width="30.874" height="49.987"/>
<circle style="fill:#3A556A;" cx="245.76" cy="308.429" r="183.091"/>
<circle style="fill:#FFFFFF;" cx="245.76" cy="308.429" r="148.582"/>
<g>
	<rect x="243.727" y="170.65" style="fill:#64798A;" width="4.065" height="11.505"/>
	<rect x="243.727" y="434.688" style="fill:#64798A;" width="4.065" height="11.505"/>
	<rect x="372.019" y="306.396" style="fill:#64798A;" width="11.505" height="4.065"/>
	<rect x="107.981" y="306.396" style="fill:#64798A;" width="11.51" height="4.065"/>
	
		<rect x="309.701" y="416.985" transform="matrix(-0.866 0.5 -0.5 -0.866 793.0833 632.9538)" style="fill:#64798A;" width="4.065" height="11.51"/>
	
		<rect x="177.722" y="188.347" transform="matrix(-0.866 0.5 -0.5 -0.866 432.4804 272.3047)" style="fill:#64798A;" width="4.065" height="11.505"/>
	
		<rect x="125.669" y="372.381" transform="matrix(-0.866 0.5 -0.5 -0.866 432.4538 632.9402)" style="fill:#64798A;" width="11.505" height="4.065"/>
	
		<rect x="354.352" y="240.378" transform="matrix(-0.8661 0.4999 -0.4999 -0.8661 793.1669 272.332)" style="fill:#64798A;" width="11.505" height="4.065"/>
	
		<rect x="306.011" y="192.08" transform="matrix(-0.5 0.866 -0.866 -0.5 635.7597 21.1885)" style="fill:#64798A;" width="11.505" height="4.065"/>
	
		<rect x="173.991" y="420.694" transform="matrix(-0.4998 0.8662 -0.8662 -0.4998 635.7243 478.3105)" style="fill:#64798A;" width="11.51" height="4.065"/>
	
		<rect x="358.062" y="368.688" transform="matrix(-0.5 0.866 -0.866 -0.5 864.4227 249.8329)" style="fill:#64798A;" width="4.065" height="11.505"/>
	
		<rect x="129.373" y="236.675" transform="matrix(-0.5 0.866 -0.866 -0.5 407.0557 249.8539)" style="fill:#64798A;" width="4.065" height="11.505"/>
</g>
<path style="fill:#E56353;" d="M245.758,338.575c-2.247,0-4.065-1.819-4.065-4.065V203.039c0-2.248,1.819-4.066,4.065-4.066
	c2.248,0,4.066,1.819,4.066,4.066V334.51C249.824,336.756,248.006,338.575,245.758,338.575z"/>
<circle style="fill:#64798A;" cx="245.76" cy="308.429" r="11.443"/>
<path style="fill:#3A556A;" d="M275.633,57.877h-59.746c-2.446,0-4.427,1.983-4.427,4.427V90.43c0,2.446,1.981,4.426,4.427,4.426
	h59.746c2.446,0,4.428-1.98,4.428-4.426V62.304C280.061,59.86,278.079,57.877,275.633,57.877z"/>
<g>
</g>
<g>
</g>
<g>
</g>
<g>
</g>
<g>
</g>
<g>
</g>
<g>
</g>
<g>
</g>
<g>
</g>
<g>
</g>
<g>
</g>
<g>
</g>
<g>
</g>
<g>
</g>
<g>
</g>
</svg>
