<?xml version="1.0" encoding="iso-8859-1"?>
<!-- Generator: Adobe Illustrator 19.0.0, SVG Export Plug-In . SVG Version: 6.00 Build 0)  -->
<svg xmlns="http://www.w3.org/2000/svg" xmlns:xlink="http://www.w3.org/1999/xlink" version="1.1" id="Layer_1" x="0px" y="0px" viewBox="0 0 512 512" style="enable-background:new 0 0 512 512;" xml:space="preserve">
<rect x="149.333" y="185.6" style="fill:#ADB3BA;" width="214.4" height="254.933"/>
<polygon style="fill:#E8EAE9;" points="512,162.133 512,190.933 0,190.933 0,162.133 256,0 "/>
<g>
	<polygon style="fill:#CED6E0;" points="101.333,148.267 256,50.133 410.667,148.267  "/>
	<rect y="472.533" style="fill:#CED6E0;" width="512" height="39.467"/>
</g>
<g>
	<rect x="37.333" y="433.067" style="fill:#E8EAE9;" width="438.4" height="39.467"/>
	<rect x="90.667" y="226.133" style="fill:#E8EAE9;" width="70.4" height="171.733"/>
</g>
<g>
	<rect x="103.467" y="242.133" style="fill:#CED6E0;" width="16" height="139.733"/>
	<rect x="133.333" y="242.133" style="fill:#CED6E0;" width="16" height="139.733"/>
	<path style="fill:#CED6E0;" d="M172.8,215.467v-24.533H78.933v24.533c0,5.333,4.267,10.667,10.667,10.667h72.533   C168.533,226.133,172.8,221.867,172.8,215.467z"/>
	<path style="fill:#CED6E0;" d="M172.8,433.067v-24.533c0-5.333-4.267-10.667-10.667-10.667H89.6   c-5.333,0-10.667,4.267-10.667,10.667v24.533H172.8z"/>
</g>
<rect x="350.933" y="226.133" style="fill:#E8EAE9;" width="70.4" height="171.733"/>
<g>
	<rect x="362.667" y="242.133" style="fill:#CED6E0;" width="16" height="139.733"/>
	<rect x="392.533" y="242.133" style="fill:#CED6E0;" width="16" height="139.733"/>
	<path style="fill:#CED6E0;" d="M433.067,215.467v-24.533H339.2v24.533c0,5.333,4.267,10.667,10.667,10.667H422.4   C427.733,226.133,433.067,221.867,433.067,215.467z"/>
	<path style="fill:#CED6E0;" d="M433.067,433.067v-24.533c0-5.333-4.267-10.667-10.667-10.667h-72.533   c-5.333,0-10.667,4.267-10.667,10.667v24.533H433.067z"/>
</g>
<g>
</g>
<g>
</g>
<g>
</g>
<g>
</g>
<g>
</g>
<g>
</g>
<g>
</g>
<g>
</g>
<g>
</g>
<g>
</g>
<g>
</g>
<g>
</g>
<g>
</g>
<g>
</g>
<g>
</g>
</svg>
