<?xml version="1.0" encoding="iso-8859-1"?>
<!-- Generator: Adobe Illustrator 19.0.0, SVG Export Plug-In . SVG Version: 6.00 Build 0)  -->
<svg version="1.1" id="Layer_1" xmlns="http://www.w3.org/2000/svg" xmlns:xlink="http://www.w3.org/1999/xlink" x="0px" y="0px"
	 viewBox="0 0 491.52 491.52" style="enable-background:new 0 0 491.52 491.52;" xml:space="preserve">
<g>
	<path style="fill:#F6C358;" d="M100.353,433.202l0.065,0.044h0.001v-0.06l0.029,0.04l0.036-0.024l0,0l0.012-0.016v0.008
		l24.967-16.683h0.002v-12.565c-1.888,1.3-3.701,2.709-5.402,4.247c-10.956,9.904-21.7,8.208-21.7,8.208
		c-6.553,0.172-15.889-6.542-19.87-9.669c-1.013-0.795-2.053-1.556-3.12-2.276v12.056h0.002L100.353,433.202z"/>
	<polygon style="fill:#F6C358;" points="100.419,433.248 100.419,433.25 100.419,433.248 100.419,433.247 92.341,444.25 
		92.341,444.25 	"/>
</g>
<path style="fill:#64798A;" d="M73.879,324.532h15.542c1.416,0,2.824-0.214,4.173-0.647c2.815-0.904,7.291-2.567,10.679-3.854
	c3.023-1.148,6.351-1.189,9.401-0.119l16.359,5.744c11.006,4.043,12.129,14.375,12.129,14.375v29.201c0,0,1.444-9.747,6.436-17.753
	c1.212-1.944,1.875-4.18,1.875-6.471v-25.192c0,0-1.573-12.354-13.702-15.275c0,0,4.942-10.52-7.862-13.009h-47.17l0,0
	c-17.243,0-31.222,13.978-31.222,31.221v18.509c0,4.011,1.343,7.913,3.855,11.04c1.976,2.46,4.028,6.329,4.345,11.925v-24.534
	C61.75,326.104,73.879,324.532,73.879,324.532z"/>
<path style="fill:#FCD462;" d="M98.362,416.401c0,0,10.745,1.696,21.7-8.208c1.702-1.538,3.514-2.946,5.402-4.247
	c0.187-0.129,0.369-0.262,0.557-0.388c4.85-3.258,14.168-12.292,16.142-34.328V340.03c0,0-1.122-10.332-12.129-14.375l-16.359-5.744
	c-3.05-1.071-6.379-1.029-9.401,0.119c-3.389,1.288-7.864,2.951-10.679,3.854c-1.349,0.433-2.757,0.647-4.173,0.647H73.879
	c0,0-12.129,1.572-15.161,15.161v24.534v5.677c0,0,0.527,23.865,16.328,34.324c0.111,0.072,0.216,0.153,0.326,0.227
	c1.067,0.72,2.107,1.481,3.12,2.276C82.474,409.859,91.809,416.573,98.362,416.401z"/>
<g>
	<polygon style="fill:#D5D6DB;" points="108.971,444.897 104.626,451.137 108.639,476.431 118.696,458.143 	"/>
	<polygon style="fill:#D5D6DB;" points="92.259,476.543 96.29,451.137 91.906,444.842 82.14,458.143 	"/>
	<polygon style="fill:#D5D6DB;" points="92.341,444.25 91.999,444.715 100.419,433.292 100.419,433.25 100.419,433.248 	"/>
</g>
<g>
	<polygon style="fill:#E56353;" points="108.639,476.431 104.626,451.137 108.971,444.897 108.972,444.896 100.419,433.248 
		100.419,433.25 100.419,433.292 91.999,444.715 91.907,444.84 91.906,444.842 91.906,444.842 96.29,451.137 92.259,476.543 
		92.259,476.544 100.419,491.379 108.639,476.433 	"/>
	<polygon style="fill:#E56353;" points="100.469,491.47 101.248,490.69 100.444,491.425 	"/>
	<polygon style="fill:#E56353;" points="100.393,491.425 99.589,490.69 100.368,491.47 	"/>
	<polygon style="fill:#E56353;" points="100.382,491.482 100.419,491.519 100.456,491.482 100.419,491.449 100.419,491.449 
		100.419,491.449 	"/>
	<polygon style="fill:#E56353;" points="100.496,433.186 100.485,433.202 100.496,433.194 	"/>
	<polygon style="fill:#E56353;" points="100.419,433.186 100.419,433.246 100.449,433.227 	"/>
</g>
<g>
	<polygon style="fill:#E1E6E9;" points="100.496,433.194 100.485,433.202 100.485,433.202 100.449,433.227 100.419,433.246 
		100.419,433.246 100.419,433.247 100.419,433.247 100.419,433.248 108.972,444.896 118.699,458.144 138.94,421.342 
		125.465,416.511 125.463,416.511 	"/>
	<polygon style="fill:#E1E6E9;" points="91.906,444.842 91.907,444.84 92.341,444.25 100.419,433.247 100.419,433.247 
		100.419,433.246 100.353,433.202 75.374,416.511 75.372,416.511 61.897,421.342 82.138,458.144 	"/>
</g>
<g>
	<path style="fill:#3A556A;" d="M200.71,480.666l-4.534-27.377c-1.223-7.384-6.338-13.533-13.376-16.08l-43.86-15.868l11.649,23.361
		l-14.57,0.224l4.942,9.434l-39.714,36.329l-0.779,0.78l0.028,0.05h10.536h80.473C197.267,491.52,201.651,486.35,200.71,480.666z"/>
	<polygon style="fill:#3A556A;" points="100.456,491.482 100.419,491.519 100.419,491.52 100.496,491.52 	"/>
</g>
<g>
	<polygon style="fill:#2F4859;" points="108.639,476.433 100.419,491.379 100.419,491.38 100.444,491.425 101.248,490.69 
		140.962,454.361 136.02,444.927 150.589,444.702 138.94,421.342 118.699,458.144 	"/>
	<polygon style="fill:#2F4859;" points="100.382,491.482 100.419,491.449 100.419,491.449 100.393,491.425 100.368,491.47 	"/>
</g>
<path style="fill:#3A556A;" d="M100.382,491.482l-0.013-0.013l-0.779-0.78l-39.714-36.329l4.942-9.434l-14.569-0.224l11.648-23.361
	L18.038,437.21c-7.039,2.547-12.154,8.695-13.376,16.08l-4.534,27.377c-0.942,5.684,3.442,10.854,9.204,10.854h80.551h6.218h0.078
	h4.239h0.001l-0.001-0.001L100.382,491.482z"/>
<polygon style="fill:#2F4859;" points="100.469,491.47 100.444,491.425 100.419,491.38 100.419,491.379 92.259,476.544 
	82.138,458.144 61.897,421.342 50.249,444.702 64.817,444.927 59.875,454.361 99.589,490.69 100.393,491.425 100.419,491.449 
	100.419,491.449 100.456,491.482 100.496,491.52 "/>
<g>
	<path style="fill:#F6C358;" d="M391.036,433.202l0.065,0.044h0.001v-0.06l0.029,0.04l0.036-0.024l0,0l0.013-0.016v0.008
		l24.967-16.683h0.002v-12.565c-1.888,1.3-3.701,2.709-5.402,4.247c-10.956,9.904-21.7,8.208-21.7,8.208
		c-6.554,0.172-15.89-6.542-19.871-9.669c-1.013-0.795-2.053-1.556-3.12-2.276v12.056h0.002L391.036,433.202z"/>
	<polygon style="fill:#F6C358;" points="391.101,433.248 391.102,433.25 391.102,433.248 391.101,433.247 383.023,444.25 
		383.024,444.25 	"/>
</g>
<path style="fill:#64798A;" d="M364.561,324.532h15.542c1.417,0,2.825-0.214,4.173-0.647c2.816-0.904,7.291-2.567,10.68-3.854
	c3.021-1.148,6.35-1.189,9.401-0.119l16.359,5.744c11.006,4.043,12.13,14.375,12.13,14.375v29.201c0,0,1.443-9.747,6.435-17.753
	c1.212-1.944,1.875-4.18,1.875-6.471v-25.192c0,0-1.572-12.354-13.702-15.275c0,0,4.942-10.52-7.862-13.009h-47.17l0,0
	c-17.243,0-31.221,13.978-31.221,31.221v18.509c0,4.011,1.342,7.913,3.854,11.04c1.976,2.46,4.029,6.329,4.345,11.925v-24.534
	C352.432,326.104,364.561,324.532,364.561,324.532z"/>
<path style="fill:#FCD462;" d="M389.045,416.401c0,0,10.745,1.696,21.7-8.208c1.702-1.538,3.514-2.946,5.402-4.247
	c0.186-0.129,0.368-0.262,0.556-0.388c4.851-3.258,14.168-12.292,16.142-34.328V340.03c0,0-1.123-10.332-12.13-14.375l-16.359-5.744
	c-3.05-1.071-6.379-1.029-9.401,0.119c-3.39,1.288-7.864,2.951-10.68,3.854c-1.349,0.433-2.757,0.647-4.173,0.647h-15.542
	c0,0-12.129,1.572-15.161,15.161v24.534v5.677c0,0,0.528,23.865,16.328,34.324c0.111,0.072,0.216,0.153,0.326,0.227
	c1.067,0.72,2.107,1.481,3.12,2.276C373.156,409.859,382.491,416.573,389.045,416.401z"/>
<g>
	<polygon style="fill:#D5D6DB;" points="399.653,444.897 395.308,451.137 399.322,476.431 409.379,458.143 	"/>
	<polygon style="fill:#D5D6DB;" points="382.942,476.543 386.973,451.137 382.589,444.842 372.822,458.143 	"/>
	<polygon style="fill:#D5D6DB;" points="383.024,444.25 382.682,444.715 391.102,433.292 391.102,433.25 391.101,433.248 	"/>
</g>
<g>
	<polygon style="fill:#E56353;" points="399.322,476.431 395.308,451.137 399.653,444.897 399.654,444.896 391.102,433.248 
		391.102,433.25 391.102,433.292 382.682,444.715 382.589,444.84 382.589,444.842 382.589,444.842 386.973,451.137 382.942,476.543 
		382.942,476.544 391.101,491.379 399.322,476.433 	"/>
	<polygon style="fill:#E56353;" points="391.151,491.47 391.931,490.69 391.127,491.425 	"/>
	<polygon style="fill:#E56353;" points="391.076,491.425 390.271,490.69 391.052,491.47 	"/>
	<polygon style="fill:#E56353;" points="391.064,491.482 391.101,491.519 391.138,491.482 391.102,491.449 391.101,491.449 
		391.101,491.449 	"/>
	<polygon style="fill:#E56353;" points="391.179,433.186 391.167,433.202 391.179,433.194 	"/>
	<polygon style="fill:#E56353;" points="391.102,433.186 391.102,433.246 391.131,433.227 	"/>
</g>
<g>
	<polygon style="fill:#E1E6E9;" points="391.179,433.194 391.167,433.202 391.167,433.202 391.131,433.227 391.102,433.246 
		391.101,433.246 391.102,433.247 391.101,433.247 391.102,433.248 399.654,444.896 409.381,458.144 429.623,421.342 
		416.148,416.511 416.146,416.511 	"/>
	<polygon style="fill:#E1E6E9;" points="382.589,444.842 382.589,444.84 383.023,444.25 391.101,433.247 391.102,433.247 
		391.101,433.246 391.036,433.202 366.056,416.511 366.055,416.511 352.58,421.342 372.822,458.144 	"/>
</g>
<g>
	<path style="fill:#3A556A;" d="M491.392,480.666l-4.534-27.377c-1.223-7.384-6.338-13.533-13.376-16.08l-43.86-15.868
		l11.649,23.361l-14.569,0.224l4.941,9.434l-39.713,36.329l-0.78,0.78l0.029,0.05h10.535h80.473
		C487.949,491.52,492.333,486.35,491.392,480.666z"/>
	<polygon style="fill:#3A556A;" points="391.138,491.482 391.101,491.519 391.102,491.52 391.179,491.52 	"/>
</g>
<g>
	<polygon style="fill:#2F4859;" points="399.322,476.433 391.101,491.379 391.102,491.38 391.127,491.425 391.931,490.69 
		431.644,454.361 426.703,444.927 441.272,444.702 429.623,421.342 409.381,458.144 	"/>
	<polygon style="fill:#2F4859;" points="391.064,491.482 391.101,491.449 391.101,491.449 391.076,491.425 391.052,491.47 	"/>
</g>
<path style="fill:#3A556A;" d="M391.064,491.482l-0.013-0.013l-0.78-0.78l-39.713-36.329l4.941-9.434l-14.569-0.224l11.649-23.361
	l-43.86,15.868c-7.039,2.547-12.154,8.695-13.376,16.08l-4.534,27.377c-0.941,5.684,3.443,10.854,9.204,10.854h80.551h6.219h0.077
	h4.24h0.001l-0.001-0.001L391.064,491.482z"/>
<polygon style="fill:#2F4859;" points="391.151,491.47 391.127,491.425 391.102,491.38 391.101,491.379 382.942,476.544 
	372.822,458.144 352.58,421.342 340.931,444.702 355.5,444.927 350.558,454.361 390.271,490.69 391.076,491.425 391.101,491.449 
	391.102,491.449 391.138,491.482 391.179,491.52 "/>
<path style="fill:#64798A;" d="M207.168,140.617c0,0,0.122,0.136,0.182,0.203c1.911-1.336,3.438-2.722,4.619-4.022
	c2.578-2.835,3.934-6.54,3.934-10.338v-2.348c-11.137-13.865-18.349-35.161-18.349-59.209c0,0,0.962-16.024,17.945-17.594h15.448
	c3.91,0,7.803-0.514,11.56-1.571c3.978-1.119,8.739-2.972,12.407-5.969l28.841,9.425c0,0,8.972,5.97,10.254,15.709
	c0,24.075-7.228,45.391-18.386,59.255v2.302c0,3.798,1.357,7.503,3.934,10.338c1.181,1.3,2.708,2.685,4.614,4.022
	c0.06-0.066,0.181-0.202,0.181-0.202l1.369,1.596l16.697,8.84h1.08V32.791c0-1.519-0.256-3.031-0.768-4.466
	c-4.214-11.837-14.408-13.265-14.408-13.265c1.305-6.625-0.77-10.39-3.171-12.499C283.216,0.861,280.658,0,278.057,0h-44.045
	c-25.293,0-45.988,20.289-45.988,45.087v105.966h1.076l16.697-8.84L207.168,140.617z"/>
<path style="fill:#F6C358;" d="M279.557,136.797c-2.577-2.835-3.934-6.54-3.934-10.338v-2.302c-0.367,0.456-0.7,0.974-1.075,1.413
	c-8.037,9.409-17.97,15.047-28.766,15.047c-10.813,0-20.76-5.655-28.803-15.09c-0.375-0.44-0.709-0.959-1.075-1.416v2.348
	c0,3.798-1.356,7.503-3.934,10.338c-1.181,1.3-2.709,2.686-4.619,4.022c0.187,0.206,0.556,0.618,1.212,1.4
	c1.977,2.355,5.947,7.45,10.737,15.389c8.215,3.122,17.121,4.876,26.462,4.876c9.34,0,18.245-1.754,26.46-4.876
	c4.791-7.941,8.762-13.036,10.739-15.391c0.656-0.781,1.025-1.193,1.211-1.399C282.265,139.483,280.738,138.097,279.557,136.797z"/>
<path style="fill:#FCD462;" d="M245.782,140.617c10.796,0,20.73-5.638,28.766-15.047c0.375-0.439,0.708-0.957,1.075-1.413
	c11.158-13.864,18.386-35.18,18.386-59.255c-1.282-9.739-10.254-15.709-10.254-15.709l-28.841-9.425
	c-3.668,2.996-8.429,4.85-12.407,5.969c-3.757,1.057-7.65,1.571-11.56,1.571h-15.448c-16.983,1.57-17.945,17.594-17.945,17.594
	c0,24.049,7.212,45.344,18.349,59.209c0.366,0.457,0.7,0.976,1.075,1.416C225.022,134.962,234.969,140.617,245.782,140.617z"/>
<path style="fill:#EBF0F3;" d="M225.701,169.202c6.978,13.729,14.548,32.557,20.059,56.994c5.526-24.498,13.12-43.361,20.112-57.099
	c-6.442,1.607-13.153,2.549-20.111,2.549C238.835,171.645,232.122,170.784,225.701,169.202z"/>
<path style="fill:#64798A;" d="M219.299,157.608c2.017,3.343,4.176,7.215,6.401,11.594c6.421,1.582,13.134,2.443,20.06,2.443
	c6.958,0,13.67-0.942,20.111-2.549c2.206-4.335,4.347-8.171,6.349-11.488c-8.215,3.122-17.12,4.876-26.46,4.876
	C236.42,162.484,227.514,160.73,219.299,157.608z"/>
<path style="fill:#27A2DB;" d="M209.626,184.456c-2.69-3.108-0.371-7.873,3.786-7.779l3.049,0.07l-18.25-19.246
	c-1.656-1.747-1.724-4.431-0.158-6.257l7.745-9.031l-16.697,8.84l-22.051,11.676c0,0-16.586,10.164-16.586,26.085v37.389h95.294
	l0.001-0.003L209.626,184.456z"/>
<path style="fill:#2D93BA;" d="M225.701,169.202c-2.225-4.378-4.384-8.25-6.401-11.594c-4.79-7.939-8.761-13.034-10.737-15.389
	c-0.656-0.781-1.025-1.194-1.212-1.4c-0.061-0.067-0.182-0.203-0.182-0.203l-1.369,1.596l-7.745,9.031
	c-1.566,1.826-1.498,4.509,0.158,6.257l18.25,19.246l-3.049-0.07c-4.156-0.094-6.476,4.671-3.786,7.779l36.133,41.744l0.001-0.004
	C240.249,201.759,232.679,182.931,225.701,169.202z"/>
<path style="fill:#27A2DB;" d="M324.47,162.729l-22.051-11.676l-16.697-8.84l7.745,9.031c1.566,1.826,1.498,4.509-0.159,6.257
	l-18.249,19.246l3.049-0.07c4.156-0.094,6.476,4.671,3.786,7.779l-36.136,41.747h0.004h95.294v-37.389
	C341.056,172.893,324.47,162.729,324.47,162.729z"/>
<path style="fill:#2D93BA;" d="M278.108,176.676l-3.049,0.07l18.249-19.246c1.657-1.747,1.725-4.431,0.159-6.257l-7.745-9.031
	l-1.369-1.596c0,0-0.122,0.136-0.181,0.202c-0.186,0.206-0.555,0.618-1.211,1.399c-1.977,2.355-5.948,7.45-10.739,15.391
	c-2.002,3.317-4.142,7.153-6.349,11.488c-6.992,13.738-14.587,32.601-20.112,57.099l-0.001,0.004l-0.001,0.003l36.136-41.747
	C284.584,181.348,282.265,176.583,278.108,176.676z"/>
<path style="fill:#EBF0F3;" d="M299.577,372.541l-47.114-47.112v-60.857c0-3.701-3.002-6.703-6.703-6.703
	c-3.701,0-6.703,3.002-6.703,6.703v60.857l-47.119,47.112c-2.618,2.618-2.618,6.86,0,9.478c2.618,2.618,6.86,2.618,9.478,0
	l44.343-44.336l44.339,44.336c1.309,1.309,3.024,1.963,4.739,1.963s3.43-0.654,4.739-1.963
	C302.195,379.401,302.195,375.159,299.577,372.541z"/>
<g>
</g>
<g>
</g>
<g>
</g>
<g>
</g>
<g>
</g>
<g>
</g>
<g>
</g>
<g>
</g>
<g>
</g>
<g>
</g>
<g>
</g>
<g>
</g>
<g>
</g>
<g>
</g>
<g>
</g>
</svg>
