<?xml version="1.0" encoding="iso-8859-1"?>
<!-- Generator: Adobe Illustrator 19.0.0, SVG Export Plug-In . SVG Version: 6.00 Build 0)  -->
<svg version="1.1" id="Layer_1" xmlns="http://www.w3.org/2000/svg" xmlns:xlink="http://www.w3.org/1999/xlink" x="0px" y="0px"
	 viewBox="0 0 491.52 491.52" style="enable-background:new 0 0 491.52 491.52;" xml:space="preserve">
<path style="fill:#64798A;" d="M252.463,408.791v-76.178h-13.405v76.178c-19.802,3.232-35.002,20.319-35.002,41.021
	c0,22.997,18.707,41.708,41.703,41.708s41.703-18.711,41.703-41.708C287.463,429.111,272.265,412.022,252.463,408.791z
	 M245.76,478.115c-15.604,0-28.298-12.698-28.298-28.303c0-15.604,12.694-28.294,28.298-28.294s28.298,12.689,28.298,28.294
	C274.058,465.417,261.364,478.115,245.76,478.115z"/>
<g>
	<path style="fill:#3A556A;" d="M485.721,0H5.799C2.596,0,0,2.595,0,5.798v44.629c0,3.202,2.596,5.797,5.799,5.797h479.922
		c3.203,0,5.799-2.595,5.799-5.797V5.798C491.52,2.595,488.924,0,485.721,0z"/>
	<path style="fill:#3A556A;" d="M485.721,323.028H5.799c-3.203,0-5.799,2.595-5.799,5.797v7.579c0,3.203,2.596,5.798,5.799,5.798
		h479.922c3.203,0,5.799-2.595,5.799-5.798v-7.579C491.52,325.623,488.924,323.028,485.721,323.028z"/>
</g>
<rect x="24.97" y="56.228" style="fill:#EBF0F3;" width="441.6" height="266.803"/>
<rect x="57.236" y="198.052" style="fill:#F6C358;" width="28.534" height="10.081"/>
<rect x="57.236" y="117.427" style="fill:#FCD462;" width="28.534" height="80.63"/>
<rect x="98.888" y="198.052" style="fill:#3EA69B;" width="28.534" height="10.081"/>
<rect x="98.888" y="81.853" style="fill:#44C4A1;" width="28.534" height="116.198"/>
<rect x="140.534" y="198.052" style="fill:#D15241;" width="28.534" height="10.081"/>
<rect x="140.534" y="135.209" style="fill:#E56353;" width="28.534" height="62.843"/>
<rect x="182.18" y="198.052" style="fill:#2D93BA;" width="28.534" height="10.081"/>
<rect x="182.18" y="104.381" style="fill:#27A2DB;" width="28.534" height="93.67"/>
<g>
	<rect x="57.236" y="235.827" style="fill:#64798A;" width="153.472" height="8.934"/>
	<rect x="57.236" y="265.743" style="fill:#64798A;" width="153.472" height="8.934"/>
	<rect x="57.236" y="295.66" style="fill:#64798A;" width="153.472" height="8.934"/>
	<rect x="283.699" y="235.827" style="fill:#64798A;" width="153.472" height="8.934"/>
	<rect x="332.498" y="87.654" style="fill:#64798A;" width="104.689" height="8.934"/>
	<rect x="332.498" y="119.972" style="fill:#64798A;" width="104.689" height="8.934"/>
	<rect x="332.498" y="152.31" style="fill:#64798A;" width="104.689" height="8.934"/>
	<rect x="332.498" y="184.627" style="fill:#64798A;" width="104.689" height="8.934"/>
	<rect x="283.699" y="265.743" style="fill:#64798A;" width="153.472" height="8.934"/>
	<rect x="283.699" y="295.66" style="fill:#64798A;" width="153.472" height="8.934"/>
</g>
<circle style="fill:#FCD462;" cx="306.217" cy="92.099" r="11.264"/>
<circle style="fill:#44C4A1;" cx="306.217" cy="124.442" r="11.264"/>
<circle style="fill:#E56353;" cx="306.217" cy="156.78" r="11.264"/>
<circle style="fill:#27A2DB;" cx="306.217" cy="189.117" r="11.264"/>
<g>
</g>
<g>
</g>
<g>
</g>
<g>
</g>
<g>
</g>
<g>
</g>
<g>
</g>
<g>
</g>
<g>
</g>
<g>
</g>
<g>
</g>
<g>
</g>
<g>
</g>
<g>
</g>
<g>
</g>
</svg>
