<?xml version="1.0" encoding="iso-8859-1"?>
<!-- Generator: Adobe Illustrator 19.0.0, SVG Export Plug-In . SVG Version: 6.00 Build 0)  -->
<svg version="1.1" id="Layer_1" xmlns="http://www.w3.org/2000/svg" xmlns:xlink="http://www.w3.org/1999/xlink" x="0px" y="0px"
	 viewBox="0 0 491.52 491.52" style="enable-background:new 0 0 491.52 491.52;" xml:space="preserve">
<path style="fill:#E56353;" d="M456.845,237.917c-19.019,72.589-85.164,126.303-163.635,126.303
	c-93.269,0-169.145-75.876-169.145-169.145c0-93.268,75.875-169.145,169.145-169.145c77.295,0,142.597,52.133,162.714,123.069h26.24
	C461.467,63.831,384.746,0.581,293.211,0.581c-107.416,0-194.495,87.078-194.495,194.494c0,107.417,87.079,194.494,194.495,194.494
	c92.697,0,170.193-64.868,189.706-151.672L456.845,237.917z"/>
<path style="fill:#FFFFFF;" d="M432.999,228.217c-15.027,63.337-71.924,110.655-139.788,110.655
	c-79.288,0-143.797-64.51-143.797-143.797S213.923,51.278,293.211,51.278c66.871,0,123.065,45.954,139.076,107.892l7.838-10.172
	h15.8C435.808,78.062,370.506,25.929,293.211,25.929c-93.269,0-169.145,75.877-169.145,169.145
	c0,93.269,75.875,169.145,169.145,169.145c78.471,0,144.616-53.714,163.635-126.303l-16.332,0.013L432.999,228.217z"/>
<path style="fill:#E56353;" d="M293.211,51.278c-79.288,0-143.797,64.509-143.797,143.796s64.509,143.797,143.797,143.797
	c67.864,0,124.761-47.317,139.788-110.655l-21.6-27.912h-0.005c-2.766,62.875-54.638,113.219-118.184,113.219
	c-65.312,0-118.448-53.138-118.448-118.449c0-65.31,53.137-118.448,118.448-118.448c62.418,0,113.592,48.568,118.015,109.879
	l21.061-27.335C416.275,97.232,360.081,51.278,293.211,51.278z"/>
<path style="fill:#FFFFFF;" d="M293.211,288.175c-51.335,0-93.1-41.766-93.1-93.101c0-51.334,41.765-93.1,93.1-93.1
	c48.578,0,88.529,37.415,92.686,84.932h25.018l0.31-0.401c-4.423-61.311-55.596-109.879-118.015-109.879
	c-65.312,0-118.448,53.138-118.448,118.448c0,65.311,53.137,118.449,118.448,118.449c63.545,0,115.418-50.343,118.184-113.219
	l-25.348,0.008C383.304,249.208,342.777,288.175,293.211,288.175z"/>
<path style="fill:#E56353;" d="M293.211,101.974c-51.335,0-93.1,41.766-93.1,93.1c0,51.335,41.765,93.101,93.1,93.101
	c49.567,0,90.094-38.968,92.835-87.862l-25.349,0.009c-2.695,34.909-31.899,62.505-67.486,62.505
	c-37.359,0-67.752-30.393-67.752-67.753c0-37.359,30.393-67.752,67.752-67.752c34.589,0,63.158,26.07,67.21,59.584h25.476
	C381.739,139.39,341.789,101.974,293.211,101.974z"/>
<path style="fill:#FFFFFF;" d="M293.211,237.478c-23.383,0-42.403-19.021-42.403-42.404s19.02-42.403,42.403-42.403
	c20.588,0,37.777,14.751,41.597,34.235h25.614c-4.053-33.514-32.621-59.584-67.21-59.584c-37.359,0-67.752,30.393-67.752,67.752
	c0,37.36,30.393,67.753,67.752,67.753c35.588,0,64.791-27.597,67.486-62.505l-25.444,0.009
	C332.652,221.237,314.81,237.478,293.211,237.478z"/>
<path style="fill:#E56353;" d="M293.211,152.671c-23.383,0-42.403,19.02-42.403,42.403s19.02,42.404,42.403,42.404
	c21.599,0,39.441-16.242,42.043-37.147l-40.611,0.013v-13.438h40.165C330.988,167.422,313.799,152.671,293.211,152.671z"/>
<path style="fill:#D15241;" d="M462.355,195.074c0,14.798-1.923,29.153-5.509,42.843l26.071-0.021
	c3.098-13.784,4.788-28.102,4.788-42.822c0-15.881-1.948-31.3-5.54-46.076h-26.24C460.082,163.657,462.355,179.101,462.355,195.074z
	"/>
<path style="fill:#EBF0F3;" d="M455.925,148.998h-15.8l-7.838,10.172c2.973,11.501,4.72,23.488,4.72,35.904
	c0,11.422-1.48,22.482-4.008,33.143l7.515,9.712l16.332-0.013c3.586-13.689,5.509-28.044,5.509-42.843
	C462.355,179.101,460.082,163.657,455.925,148.998z"/>
<path style="fill:#D15241;" d="M411.66,195.074c0,1.766-0.189,3.484-0.265,5.231h0.005l21.6,27.912
	c2.528-10.661,4.008-21.721,4.008-33.143c0-12.416-1.747-24.404-4.72-35.904l-21.061,27.335
	C411.43,189.346,411.66,192.183,411.66,195.074z"/>
<path style="fill:#EBF0F3;" d="M411.225,186.505l-0.31,0.401h-25.018c0.236,2.697,0.414,5.411,0.414,8.168
	c0,1.768-0.167,3.495-0.265,5.239l25.348-0.008c0.077-1.747,0.265-3.465,0.265-5.231C411.66,192.183,411.43,189.346,411.225,186.505
	z"/>
<path style="fill:#D15241;" d="M360.962,195.074c0,1.771-0.131,3.51-0.265,5.248l25.349-0.009c0.098-1.744,0.265-3.471,0.265-5.239
	c0-2.757-0.178-5.471-0.414-8.168h-25.476C360.745,189.591,360.962,192.305,360.962,195.074z"/>
<path style="fill:#EBF0F3;" d="M360.421,186.906h-25.614c0.519,2.646,0.807,5.374,0.807,8.168c0,1.784-0.146,3.531-0.361,5.257
	l25.444-0.009c0.134-1.737,0.265-3.476,0.265-5.248C360.962,192.305,360.745,189.591,360.421,186.906z"/>
<path style="fill:#D15241;" d="M294.642,200.344l40.611-0.013c0.215-1.726,0.361-3.473,0.361-5.257c0-2.795-0.288-5.522-0.807-8.168
	h-40.165V200.344z"/>
<path style="fill:#64798A;" d="M433.581,48.442L293.173,188.851c-2.622,2.622-2.622,6.874,0,9.495l0,0
	c2.622,2.623,6.874,2.623,9.495,0L443.077,57.939c2.622-2.623,2.622-6.873,0-9.496C440.455,45.821,436.203,45.82,433.581,48.442z"/>
<g>
	<polygon style="fill:#3A556A;" points="428.473,0 364.547,63.925 370.638,111.386 434.564,47.459 	"/>
	<polygon style="fill:#3A556A;" points="491.52,63.047 427.595,126.972 380.134,120.882 444.06,56.955 	"/>
</g>
<path style="fill:#64798A;" d="M229.158,391.675V201.9c0-2.276-0.384-4.541-1.15-6.687c-6.309-17.724-21.574-19.862-21.574-19.862
	c1.952-9.921-1.154-15.559-4.749-18.717c-2.899-2.548-6.729-3.836-10.622-3.836h-65.954c-37.875,0-68.863,30.382-68.863,67.515
	v171.363"/>
<path style="fill:#F6C358;" d="M193.308,357.642c-3.86-4.245-5.891-9.794-5.891-15.481v-4.532c-0.55,0.683-1.047,1.458-1.61,2.115
	c-12.035,14.089-26.909,22.532-43.076,22.532c-16.191,0-31.086-8.468-43.131-22.596c-0.561-0.658-1.06-1.436-1.609-2.119v4.6
	c0,5.687-2.03,11.236-5.891,15.481c-1.769,1.948-4.056,4.022-6.917,6.022c0.278,0.309,0.832,0.926,1.814,2.097
	c2.96,3.526,8.906,11.155,16.078,23.043c12.302,4.675,25.637,7.301,39.625,7.301c13.985,0,27.32-2.627,39.621-7.301
	c7.174-11.891,13.122-19.52,16.081-23.046c0.983-1.171,1.535-1.787,1.814-2.094C197.362,361.663,195.076,359.589,193.308,357.642z"
	/>
<path style="fill:#FCD462;" d="M142.731,363.362c16.167,0,31.041-8.443,43.076-22.532c0.563-0.657,1.06-1.433,1.61-2.115
	c16.707-20.761,27.531-52.679,27.531-88.73c-1.92-14.584-15.355-23.523-15.355-23.523l-43.186-14.112
	c-5.493,4.487-12.622,7.262-18.578,8.937c-5.627,1.584-11.456,2.353-17.311,2.353H97.385c-25.431,2.352-26.871,26.346-26.871,26.346
	c0,36.01,10.799,67.899,27.477,88.663c0.549,0.683,1.047,1.461,1.609,2.119C111.644,354.893,126.539,363.362,142.731,363.362z"/>
<path style="fill:#44C4A1;" d="M111.855,406.165c10.729,20.559,22.368,48.751,30.843,85.343
	c8.496-36.682,20.172-64.929,30.924-85.502c-9.905,2.407-20.225,3.816-30.923,3.816
	C132.049,409.823,121.728,408.535,111.855,406.165z"/>
<path style="fill:#31978C;" d="M100.731,388.182c3.2,5.303,6.624,11.445,10.154,18.388c10.184,2.51,20.83,3.874,31.816,3.874
	c11.035,0,21.68-1.493,31.897-4.042c3.499-6.876,6.894-12.96,10.069-18.221c-13.029,4.951-27.153,7.733-41.966,7.733
	C127.885,395.916,113.761,393.134,100.731,388.182z"/>
<path style="fill:#3A556A;" d="M82.859,365.752l-25.002,13.237l-33.021,17.483c0,0-24.836,15.219-24.836,39.06v55.988h142.696
	l0.001-0.005"/>
<path style="fill:#EBF0F3;" d="M112.662,406.165c-3.333-6.556-6.565-12.354-9.587-17.361c-7.172-11.889-13.119-19.517-16.078-23.043
	c-0.982-1.171-1.535-1.788-1.814-2.097c-0.091-0.1-2.324,2.087-2.324,2.087l-11.598,13.522c-2.345,2.734-2.242,6.753,0.238,9.369
	l27.326,28.82l-4.565-0.104c-6.224-0.141-9.698,6.995-5.668,11.649l54.105,62.508l0.002-0.007
	C134.446,454.917,123.111,426.724,112.662,406.165z"/>
<path style="fill:#3A556A;" d="M142.696,491.52h0.006h142.696v-55.988c0-23.841-24.835-39.06-24.835-39.06l-33.021-17.483
	l-25.004-13.237"/>
<path style="fill:#EBF0F3;" d="M191.137,417.358l-4.565,0.104l27.326-28.82c2.481-2.616,2.582-6.635,0.238-9.369l-11.598-13.522
	c0,0-2.231-2.188-2.322-2.087c-0.278,0.308-0.831,0.924-1.814,2.094c-2.959,3.526-8.906,11.155-16.081,23.046
	c-2.997,4.967-6.203,10.711-9.506,17.203c-10.471,20.572-21.842,48.819-30.116,85.502l-0.002,0.007l-0.001,0.005l54.111-62.513
	C200.835,424.353,197.362,417.217,191.137,417.358z"/>
<g>
</g>
<g>
</g>
<g>
</g>
<g>
</g>
<g>
</g>
<g>
</g>
<g>
</g>
<g>
</g>
<g>
</g>
<g>
</g>
<g>
</g>
<g>
</g>
<g>
</g>
<g>
</g>
<g>
</g>
</svg>
