<?xml version="1.0" encoding="iso-8859-1"?>
<!-- Generator: Adobe Illustrator 19.0.0, SVG Export Plug-In . SVG Version: 6.00 Build 0)  -->
<svg version="1.1" id="Layer_1" xmlns="http://www.w3.org/2000/svg" xmlns:xlink="http://www.w3.org/1999/xlink" x="0px" y="0px"
	 viewBox="0 0 491.52 491.52" style="enable-background:new 0 0 491.52 491.52;" xml:space="preserve">
<rect x="70.067" style="fill:#E1E6E9;" width="26.424" height="491.52"/>
<g>
	<polygon style="fill:#F6C358;" points="412.152,228.552 265.974,228.552 241.831,249.09 421.453,249.09 408.28,219.995 	"/>
	<polygon style="fill:#F6C358;" points="380.789,159.28 421.453,69.469 241.831,69.469 241.831,211.301 404.343,211.301 	"/>
</g>
<g>
	<polygon style="fill:#D15241;" points="404.343,211.301 404.343,211.301 408.28,219.995 	"/>
	<polygon style="fill:#D15241;" points="276.115,219.927 265.974,228.552 412.152,228.552 408.28,219.995 404.343,211.301 
		241.831,211.301 241.831,219.927 	"/>
</g>
<polygon style="fill:#DC8744;" points="241.831,228.552 241.831,249.09 265.974,228.552 "/>
<polygon style="fill:#CE412D;" points="241.831,219.927 241.831,228.552 265.974,228.552 276.115,219.927 "/>
<polygon style="fill:#D15241;" points="241.831,90.008 241.831,107.259 404.342,107.259 412.152,90.008 "/>
<rect x="96.492" y="40.305" style="fill:#FCD462;" width="179.61" height="179.61"/>
<g>
	<rect x="96.492" y="60.846" style="fill:#E56353;" width="179.61" height="17.249"/>
	<rect x="96.492" y="182.139" style="fill:#E56353;" width="179.61" height="17.249"/>
</g>
<g>
</g>
<g>
</g>
<g>
</g>
<g>
</g>
<g>
</g>
<g>
</g>
<g>
</g>
<g>
</g>
<g>
</g>
<g>
</g>
<g>
</g>
<g>
</g>
<g>
</g>
<g>
</g>
<g>
</g>
</svg>
