<?xml version="1.0" encoding="iso-8859-1"?>
<!-- Generator: Adobe Illustrator 19.0.0, SVG Export Plug-In . SVG Version: 6.00 Build 0)  -->
<svg version="1.1" id="Layer_1" xmlns="http://www.w3.org/2000/svg" xmlns:xlink="http://www.w3.org/1999/xlink" x="0px" y="0px"
	 viewBox="0 0 491.52 491.52" style="enable-background:new 0 0 491.52 491.52;" xml:space="preserve">
<circle style="fill:#EBF0F3;" cx="245.76" cy="245.76" r="142.433"/>
<path style="fill:#64798A;" d="M245.757,92.727c-84.383,0-153.032,68.648-153.032,153.032s68.649,153.032,153.032,153.032
	c84.384,0,153.038-68.648,153.038-153.032S330.141,92.727,245.757,92.727z M386.158,251.992
	c-0.955,21.652-7.004,43.034-17.524,61.937h-53.843c4.691-19.226,7.274-40.049,7.688-61.937H386.158z M386.158,239.528h-63.679
	c-0.415-21.888-2.997-42.711-7.688-61.937h53.843C379.154,196.494,385.202,217.876,386.158,239.528z M251.993,239.528v-61.937
	h49.693c5.001,19.095,7.872,40.477,8.331,61.937H251.993z M311.404,165.137c-7.195-23.598-17.419-42.607-29.699-55.252
	c32.016,8.466,59.961,27.962,79.126,55.252H311.404z M251.993,165.137v-59.206c18.022,4.049,35.119,26.025,46.028,59.206H251.993z
	 M251.993,313.928v-61.937h58.023c-0.458,21.469-3.33,42.851-8.331,61.937H251.993z M298.021,326.383
	c-10.909,33.181-28.006,55.157-46.028,59.206v-59.206H298.021z M281.705,381.635c12.284-12.654,22.508-31.654,29.699-55.252h49.427
	C341.666,353.673,313.721,373.169,281.705,381.635z M239.526,177.591v61.937h-58.019c0.459-21.478,3.329-42.86,8.33-61.937H239.526z
	 M130.689,165.137c19.165-27.29,47.11-46.786,79.126-55.252c-12.28,12.645-22.504,31.654-29.699,55.252H130.689z M239.526,251.992
	v61.937h-49.689c-5.001-19.069-7.871-40.45-8.33-61.937H239.526z M105.358,239.528c0.96-21.661,7.008-43.043,17.528-61.937h53.843
	c-4.687,19.226-7.27,40.049-7.688,61.937H105.358z M169.041,251.992c0.418,21.888,3.002,42.711,7.688,61.937h-53.843
	c-10.52-18.894-16.569-40.276-17.528-61.937H169.041z M180.115,326.383c7.191,23.598,17.416,42.598,29.699,55.252
	c-32.016-8.466-59.961-27.962-79.126-55.252H180.115z M239.526,326.383v59.206c-18.022-4.049-35.119-26.025-46.028-59.206H239.526z
	 M193.499,165.137c10.909-33.181,28.006-55.157,46.028-59.206v59.206H193.499z"/>
<path style="fill:#FCD462;" d="M435.977,245.759c0-15.671-2.104-30.817-5.677-45.388l49.697-40.421l-42.804-74.14l-59.824,22.814
	c-21.879-21.004-48.728-36.793-78.658-45.46L288.564,0h-85.609L192.81,63.166c-29.932,8.666-56.778,24.455-78.658,45.459
	L54.328,85.81l-42.805,74.14l49.698,40.423c-3.574,14.57-5.678,29.715-5.678,45.386s2.104,30.816,5.678,45.387l-49.698,40.423
	l42.805,74.14l59.823-22.815c21.88,21.002,48.727,36.792,78.658,45.459l10.145,63.166h85.609l10.145-63.166
	c29.931-8.666,56.78-24.457,78.659-45.459l59.824,22.815l42.804-74.14L430.3,291.147
	C433.873,276.577,435.977,261.431,435.977,245.759z M245.758,398.792c-84.384,0-153.033-68.649-153.033-153.033
	c0-84.383,68.649-153.032,153.033-153.032s153.037,68.649,153.037,153.032C398.795,330.143,330.142,398.792,245.758,398.792z"/>
<g>
</g>
<g>
</g>
<g>
</g>
<g>
</g>
<g>
</g>
<g>
</g>
<g>
</g>
<g>
</g>
<g>
</g>
<g>
</g>
<g>
</g>
<g>
</g>
<g>
</g>
<g>
</g>
<g>
</g>
</svg>
