<?xml version="1.0" encoding="iso-8859-1"?>
<!-- Generator: Adobe Illustrator 19.0.0, SVG Export Plug-In . SVG Version: 6.00 Build 0)  -->
<svg version="1.1" id="Layer_1" xmlns="http://www.w3.org/2000/svg" xmlns:xlink="http://www.w3.org/1999/xlink" x="0px" y="0px"
	 viewBox="0 0 491.52 491.52" style="enable-background:new 0 0 491.52 491.52;" xml:space="preserve">
<g>
	<path style="fill:#64798A;" d="M12.401,52.937C5.551,52.937,0,58.488,0,65.336v360.846c0,6.849,5.551,12.401,12.401,12.401h24.477
		V52.937H12.401z"/>
	<path style="fill:#64798A;" d="M479.119,52.937H199.004v385.647h280.115c6.848,0,12.401-5.551,12.401-12.401V65.336
		C491.52,58.488,485.968,52.937,479.119,52.937z"/>
</g>
<rect x="36.879" y="52.936" style="fill:#3A556A;" width="162.125" height="385.638"/>
<path style="fill:#E1E6E9;" d="M165.178,15.375H70.702c-8.809,0-15.95,6.51-15.95,14.538v431.694c0,8.03,7.141,14.538,15.95,14.538
	h94.476c8.809,0,15.95-6.509,15.95-14.538V29.913C181.128,21.884,173.986,15.375,165.178,15.375z"/>
<rect x="234.066" y="95.427" style="fill:#EBF0F3;" width="222.413" height="73.667"/>
<g>
	<rect x="234.066" y="157.972" style="fill:#D5D6DB;" width="222.413" height="11.121"/>
	<path style="fill:#D5D6DB;" d="M270.242,194.098h-29.287c-3.804,0-6.888,3.084-6.888,6.888v29.287c0,3.804,3.084,6.888,6.888,6.888
		h29.287c3.804,0,6.888-3.084,6.888-6.888v-29.287C277.131,197.182,274.047,194.098,270.242,194.098z"/>
	<path style="fill:#D5D6DB;" d="M330.017,194.098h-29.286c-3.805,0-6.889,3.084-6.889,6.888v29.287c0,3.804,3.084,6.888,6.889,6.888
		h29.286c3.804,0,6.888-3.084,6.888-6.888v-29.287C336.906,197.182,333.822,194.098,330.017,194.098z"/>
	<path style="fill:#D5D6DB;" d="M389.792,194.098h-29.286c-3.805,0-6.889,3.084-6.889,6.888v29.287c0,3.804,3.084,6.888,6.889,6.888
		h29.286c3.805,0,6.889-3.084,6.889-6.888v-29.287C396.682,197.182,393.597,194.098,389.792,194.098z"/>
</g>
<path style="fill:#FCD462;" d="M449.568,194.098h-29.286c-3.804,0-6.889,3.084-6.889,6.888v29.287c0,3.804,3.085,6.888,6.889,6.888
	h29.286c3.804,0,6.889-3.084,6.889-6.888v-29.287C456.457,197.182,453.372,194.098,449.568,194.098z"/>
<g>
	<path style="fill:#D5D6DB;" d="M270.242,253.169h-29.287c-3.804,0-6.888,3.085-6.888,6.889v29.286c0,3.804,3.084,6.889,6.888,6.889
		h29.287c3.804,0,6.888-3.085,6.888-6.889v-29.286C277.131,256.254,274.047,253.169,270.242,253.169z"/>
	<path style="fill:#D5D6DB;" d="M330.017,253.169h-29.286c-3.805,0-6.889,3.085-6.889,6.889v29.286c0,3.804,3.084,6.889,6.889,6.889
		h29.286c3.804,0,6.888-3.085,6.888-6.889v-29.286C336.906,256.254,333.822,253.169,330.017,253.169z"/>
	<path style="fill:#D5D6DB;" d="M389.792,253.169h-29.286c-3.805,0-6.889,3.085-6.889,6.889v29.286c0,3.804,3.084,6.889,6.889,6.889
		h29.286c3.805,0,6.889-3.085,6.889-6.889v-29.286C396.682,256.254,393.597,253.169,389.792,253.169z"/>
</g>
<path style="fill:#44C4A1;" d="M449.568,253.169h-29.286c-3.804,0-6.889,3.085-6.889,6.889v29.286c0,3.804,3.085,6.889,6.889,6.889
	h29.286c3.804,0,6.889-3.085,6.889-6.889v-29.286C456.457,256.254,453.372,253.169,449.568,253.169z"/>
<g>
	<path style="fill:#D5D6DB;" d="M270.242,312.242h-29.287c-3.804,0-6.888,3.084-6.888,6.888v29.287c0,3.804,3.084,6.888,6.888,6.888
		h29.287c3.804,0,6.888-3.084,6.888-6.888v-29.287C277.131,315.326,274.047,312.242,270.242,312.242z"/>
	<path style="fill:#D5D6DB;" d="M330.017,312.242h-29.286c-3.805,0-6.889,3.084-6.889,6.888v29.287c0,3.804,3.084,6.888,6.889,6.888
		h29.286c3.804,0,6.888-3.084,6.888-6.888v-29.287C336.906,315.326,333.822,312.242,330.017,312.242z"/>
	<path style="fill:#D5D6DB;" d="M389.792,312.242h-29.286c-3.805,0-6.889,3.084-6.889,6.888v29.287c0,3.804,3.084,6.888,6.889,6.888
		h29.286c3.805,0,6.889-3.084,6.889-6.888v-29.287C396.682,315.326,393.597,312.242,389.792,312.242z"/>
</g>
<path style="fill:#27A2DB;" d="M449.568,312.242h-29.286c-3.804,0-6.889,3.084-6.889,6.888v29.287c0,3.804,3.085,6.888,6.889,6.888
	h29.286c3.804,0,6.889-3.084,6.889-6.888v-29.287C456.457,315.326,453.372,312.242,449.568,312.242z"/>
<g>
	<path style="fill:#D5D6DB;" d="M270.242,371.314h-29.287c-3.804,0-6.888,3.085-6.888,6.889v29.286c0,3.805,3.084,6.889,6.888,6.889
		h29.287c3.804,0,6.888-3.084,6.888-6.889v-29.286C277.131,374.399,274.047,371.314,270.242,371.314z"/>
	<path style="fill:#D5D6DB;" d="M330.017,371.314h-29.286c-3.805,0-6.889,3.085-6.889,6.889v29.286c0,3.805,3.084,6.889,6.889,6.889
		h29.286c3.804,0,6.888-3.084,6.888-6.889v-29.286C336.906,374.399,333.822,371.314,330.017,371.314z"/>
	<path style="fill:#D5D6DB;" d="M389.792,371.314h-29.286c-3.805,0-6.889,3.085-6.889,6.889v29.286c0,3.805,3.084,6.889,6.889,6.889
		h29.286c3.805,0,6.889-3.084,6.889-6.889v-29.286C396.682,374.399,393.597,371.314,389.792,371.314z"/>
</g>
<path style="fill:#E56353;" d="M449.568,371.314h-29.286c-3.804,0-6.889,3.085-6.889,6.889v29.286c0,3.805,3.085,6.889,6.889,6.889
	h29.286c3.804,0,6.889-3.084,6.889-6.889v-29.286C456.457,374.399,453.372,371.314,449.568,371.314z"/>
<g>
</g>
<g>
</g>
<g>
</g>
<g>
</g>
<g>
</g>
<g>
</g>
<g>
</g>
<g>
</g>
<g>
</g>
<g>
</g>
<g>
</g>
<g>
</g>
<g>
</g>
<g>
</g>
<g>
</g>
</svg>
