<?xml version="1.0" encoding="iso-8859-1"?>
<!-- Generator: Adobe Illustrator 19.0.0, SVG Export Plug-In . SVG Version: 6.00 Build 0)  -->
<svg version="1.1" id="Layer_1" xmlns="http://www.w3.org/2000/svg" xmlns:xlink="http://www.w3.org/1999/xlink" x="0px" y="0px"
	 viewBox="0 0 491.52 491.52" style="enable-background:new 0 0 491.52 491.52;" xml:space="preserve">
<rect x="99.901" y="204.851" style="fill:#FCD462;" width="55.014" height="104.637"/>
<rect x="201.267" y="112.328" style="fill:#44C4A1;" width="55.014" height="65.889"/>
<rect x="302.592" y="251.085" style="fill:#E56353;" width="55.014" height="67.953"/>
<rect x="403.932" y="170.906" style="fill:#27A2DB;" width="55.014" height="68.024"/>
<polygon style="fill:#EBF0F3;" points="53.62,473.647 53.62,0 35.747,0 35.747,42.979 0,42.979 0,60.852 35.747,60.852 
	35.747,91.44 13.839,91.44 13.839,109.313 35.747,109.313 35.747,139.901 0,139.901 0,157.774 35.747,157.774 35.747,188.362 
	18.327,188.362 13.839,188.362 13.839,206.236 18.327,206.236 35.747,206.236 35.747,236.823 0,236.823 0,254.697 35.747,254.697 
	35.747,285.284 13.839,285.284 13.839,303.158 35.747,303.158 35.747,333.745 0,333.745 0,351.618 35.747,351.618 35.747,382.207 
	18.327,382.207 13.839,382.207 13.839,400.08 18.327,400.08 35.747,400.08 35.747,430.667 0,430.667 0,448.541 35.747,448.541 
	35.747,491.52 491.52,491.52 491.52,473.647 "/>
<polygon style="fill:#F6C358;" points="154.918,414.523 154.918,309.475 99.904,309.475 99.904,414.523 99.904,440.733 
	154.918,440.733 "/>
<polygon style="fill:#3EA69B;" points="256.261,414.523 256.261,178.217 201.246,178.217 201.246,414.523 201.246,440.733 
	256.261,440.733 "/>
<polygon style="fill:#D15241;" points="357.604,414.523 357.604,319.043 302.589,319.043 302.589,414.523 302.589,440.733 
	357.604,440.733 "/>
<polygon style="fill:#2D93BA;" points="458.948,414.523 458.948,238.94 403.933,238.94 403.933,414.523 403.933,440.733 
	458.948,440.733 "/>
<g>
	<polygon style="fill:#E56353;" points="429.966,473.503 430.004,473.569 431.151,472.42 	"/>
	<polygon style="fill:#E56353;" points="428.707,472.42 429.856,473.569 429.892,473.503 	"/>
	<polygon style="fill:#E56353;" points="429.93,473.538 429.93,473.538 429.93,473.538 429.875,473.588 429.93,473.642 
		429.984,473.588 	"/>
</g>
<polygon style="fill:#3A556A;" points="429.93,473.642 429.93,473.643 430.044,473.643 429.984,473.588 "/>
<polygon style="fill:#2F4859;" points="429.93,473.538 429.892,473.503 429.856,473.569 429.875,473.588 "/>
<g>
</g>
<g>
</g>
<g>
</g>
<g>
</g>
<g>
</g>
<g>
</g>
<g>
</g>
<g>
</g>
<g>
</g>
<g>
</g>
<g>
</g>
<g>
</g>
<g>
</g>
<g>
</g>
<g>
</g>
</svg>
