<?xml version="1.0" encoding="iso-8859-1"?>
<!-- Generator: Adobe Illustrator 19.0.0, SVG Export Plug-In . SVG Version: 6.00 Build 0)  -->
<svg version="1.1" id="Layer_1" xmlns="http://www.w3.org/2000/svg" xmlns:xlink="http://www.w3.org/1999/xlink" x="0px" y="0px"
	 viewBox="0 0 491.52 491.52" style="enable-background:new 0 0 491.52 491.52;" xml:space="preserve">
<rect x="70.938" y="11.11" style="fill:#D5D6DB;" width="349.645" height="480.41"/>
<rect x="70.938" style="fill:#EBF0F3;" width="349.645" height="480.41"/>
<rect x="99.533" y="75.167" style="fill:#FCD462;" width="32.532" height="110.305"/>
<rect x="139.725" y="26.501" style="fill:#44C4A1;" width="32.532" height="158.976"/>
<rect x="179.968" y="99.497" style="fill:#E56353;" width="32.532" height="85.975"/>
<rect x="220.16" y="57.324" style="fill:#27A2DB;" width="32.532" height="128.154"/>
<g>
	<rect x="284.006" y="65.761" style="fill:#D5D6DB;" width="107.981" height="8.934"/>
	<rect x="284.006" y="101.519" style="fill:#D5D6DB;" width="107.981" height="8.934"/>
	<rect x="284.006" y="137.272" style="fill:#D5D6DB;" width="107.981" height="8.934"/>
	<rect x="284.006" y="173.036" style="fill:#D5D6DB;" width="107.981" height="8.934"/>
	<rect x="99.533" y="208.794" style="fill:#D5D6DB;" width="292.454" height="8.934"/>
	<rect x="99.533" y="244.547" style="fill:#D5D6DB;" width="292.454" height="8.934"/>
	<rect x="99.533" y="280.315" style="fill:#D5D6DB;" width="142.193" height="8.934"/>
	<rect x="99.533" y="316.068" style="fill:#D5D6DB;" width="292.454" height="8.934"/>
	<rect x="99.533" y="351.846" style="fill:#D5D6DB;" width="292.454" height="8.934"/>
	<rect x="99.533" y="387.584" style="fill:#D5D6DB;" width="234.117" height="8.934"/>
	<rect x="99.533" y="423.322" style="fill:#D5D6DB;" width="292.454" height="8.934"/>
</g>
<g>
</g>
<g>
</g>
<g>
</g>
<g>
</g>
<g>
</g>
<g>
</g>
<g>
</g>
<g>
</g>
<g>
</g>
<g>
</g>
<g>
</g>
<g>
</g>
<g>
</g>
<g>
</g>
<g>
</g>
</svg>
