<?xml version="1.0" encoding="iso-8859-1"?>
<!-- Generator: Adobe Illustrator 19.0.0, SVG Export Plug-In . SVG Version: 6.00 Build 0)  -->
<svg version="1.1" id="Layer_1" xmlns="http://www.w3.org/2000/svg" xmlns:xlink="http://www.w3.org/1999/xlink" x="0px" y="0px"
	 viewBox="0 0 491.52 491.52" style="enable-background:new 0 0 491.52 491.52;" xml:space="preserve">
<path style="fill:#3A556A;" d="M84.367,0C76.472,0,70.07,6.401,70.07,14.298v462.924c0,7.897,6.401,14.298,14.297,14.298h56.374V0
	H84.367z"/>
<path style="fill:#64798A;" d="M401.585,0H140.741v491.52h260.844c7.896,0,14.297-6.4,14.297-14.298V14.298
	C415.882,6.401,409.482,0,401.585,0z"/>
<g>
	<path style="fill:#FFFFFF;" d="M48.859,57.788h46.026c5.299,0,9.596-4.297,9.596-9.596c0-5.3-4.297-9.596-9.596-9.596H48.859
		c-5.3,0-9.596,4.296-9.596,9.596C39.263,53.491,43.558,57.788,48.859,57.788z"/>
	<path style="fill:#FFFFFF;" d="M94.885,95.043H48.859c-5.3,0-9.596,4.297-9.596,9.596c0,5.299,4.296,9.596,9.596,9.596h46.026
		c5.299,0,9.596-4.297,9.596-9.596C104.481,99.34,100.184,95.043,94.885,95.043z"/>
	<path style="fill:#FFFFFF;" d="M94.885,151.491H48.859c-5.3,0-9.596,4.297-9.596,9.596c0,5.3,4.296,9.596,9.596,9.596h46.026
		c5.299,0,9.596-4.296,9.596-9.596C104.481,155.788,100.184,151.491,94.885,151.491z"/>
	<path style="fill:#FFFFFF;" d="M94.885,207.94H48.859c-5.3,0-9.596,4.296-9.596,9.596c0,5.299,4.296,9.596,9.596,9.596h46.026
		c5.299,0,9.596-4.297,9.596-9.596C104.481,212.236,100.184,207.94,94.885,207.94z"/>
	<path style="fill:#FFFFFF;" d="M94.885,264.388H48.859c-5.3,0-9.596,4.297-9.596,9.596s4.296,9.596,9.596,9.596h46.026
		c5.299,0,9.596-4.297,9.596-9.596S100.184,264.388,94.885,264.388z"/>
	<path style="fill:#FFFFFF;" d="M94.885,320.836H48.859c-5.3,0-9.596,4.297-9.596,9.596c0,5.3,4.296,9.596,9.596,9.596h46.026
		c5.299,0,9.596-4.296,9.596-9.596C104.481,325.132,100.184,320.836,94.885,320.836z"/>
	<path style="fill:#FFFFFF;" d="M94.885,377.283H48.859c-5.3,0-9.596,4.297-9.596,9.596c0,5.3,4.296,9.596,9.596,9.596h46.026
		c5.299,0,9.596-4.296,9.596-9.596C104.481,381.58,100.184,377.283,94.885,377.283z"/>
	<path style="fill:#FFFFFF;" d="M94.885,433.732H48.859c-5.3,0-9.596,4.296-9.596,9.596c0,5.299,4.296,9.596,9.596,9.596h46.026
		c5.299,0,9.596-4.297,9.596-9.596C104.481,438.028,100.184,433.732,94.885,433.732z"/>
</g>
<path style="fill:#E56353;" d="M439.842,48.191h-23.96v83.883h23.96c6.856,0,12.415-5.559,12.415-12.415V60.606
	C452.257,53.75,446.699,48.191,439.842,48.191z"/>
<path style="fill:#44C4A1;" d="M439.842,132.074h-23.96v83.883h23.96c6.856,0,12.415-5.559,12.415-12.415v-59.053
	C452.257,137.633,446.699,132.074,439.842,132.074z"/>
<path style="fill:#27A2DB;" d="M439.842,215.957h-23.96v83.883h23.96c6.856,0,12.415-5.559,12.415-12.415v-59.053
	C452.257,221.515,446.699,215.957,439.842,215.957z"/>
<path style="fill:#EBF0F3;" d="M439.842,299.84h-23.96v83.883h23.96c6.856,0,12.415-5.559,12.415-12.415v-59.053
	C452.257,305.397,446.699,299.84,439.842,299.84z"/>
<g>
</g>
<g>
</g>
<g>
</g>
<g>
</g>
<g>
</g>
<g>
</g>
<g>
</g>
<g>
</g>
<g>
</g>
<g>
</g>
<g>
</g>
<g>
</g>
<g>
</g>
<g>
</g>
<g>
</g>
</svg>
