<?xml version="1.0" encoding="iso-8859-1"?>
<!-- Generator: Adobe Illustrator 19.0.0, SVG Export Plug-In . SVG Version: 6.00 Build 0)  -->
<svg version="1.1" id="Layer_1" xmlns="http://www.w3.org/2000/svg" xmlns:xlink="http://www.w3.org/1999/xlink" x="0px" y="0px"
	 viewBox="0 0 491.526 491.526" style="enable-background:new 0 0 491.526 491.526;" xml:space="preserve">
<path style="fill:#E56353;" d="M413.088,63.687c0.024-11.819-9.677-21.421-21.668-21.446L22.689,41.484
	C10.697,41.459,0.957,51.021,0.933,62.841l-0.139,67.856l412.154,0.846L413.088,63.687z"/>
<path style="fill:#EBF0F3;" d="M0.794,130.697L0.26,390.609c-0.024,11.82,9.677,21.421,21.668,21.446l368.731,0.757
	c11.991,0.024,21.731-9.537,21.755-21.357l0.534-259.912L0.794,130.697z"/>
<g>
	<ellipse style="fill:#D15241;" cx="71.64" cy="71.213" rx="19.543" ry="19.543"/>
	<ellipse style="fill:#D15241;" cx="342.365" cy="71.767" rx="19.543" ry="19.543"/>
</g>
<path style="fill:#E1E6E9;" d="M71.784,0l-0.17,83.168c7.559,0.015,13.7-6.012,13.716-13.464l0.115-56.183
	C85.46,6.07,79.343,0.016,71.784,0z"/>
<g>
	<path style="fill:#EBF0F3;" d="M58.068,13.465l-0.115,56.183c-0.015,7.452,6.1,13.505,13.66,13.52L71.784,0
		C64.224-0.015,58.084,6.013,58.068,13.465z"/>
	<path style="fill:#EBF0F3;" d="M328.779,14.02l-0.115,56.183c-0.016,7.452,6.101,13.505,13.66,13.521l0.171-83.168
		C334.935,0.541,328.794,6.569,328.779,14.02z"/>
</g>
<path style="fill:#E1E6E9;" d="M342.496,0.556l-0.171,83.168c7.559,0.015,13.7-6.013,13.716-13.465l0.116-56.183
	C356.171,6.625,350.054,0.571,342.496,0.556z"/>
<g>
	
		<rect x="187.652" y="159.027" transform="matrix(-1 -0.002 0.002 -1 413.1857 356.7232)" style="fill:#D5D6DB;" width="38.246" height="38.246"/>
	
		<rect x="256.255" y="159.131" transform="matrix(-1 -0.002 0.002 -1 550.3906 357.0735)" style="fill:#D5D6DB;" width="38.246" height="38.246"/>
</g>
<rect x="324.914" y="159.282" transform="matrix(-1 -0.002 0.002 -1 687.7079 357.5162)" style="fill:#E56353;" width="38.246" height="38.246"/>
<rect x="50.294" y="221.132" transform="matrix(-1 -0.002 0.002 -1 138.3413 480.6527)" style="fill:#D5D6DB;" width="38.246" height="38.246"/>
<rect x="118.886" y="221.288" transform="matrix(-1 -0.002 0.002 -1 275.5255 481.1053)" style="fill:#44C4A1;" width="38.246" height="38.246"/>
<g>
	
		<rect x="187.524" y="221.439" transform="matrix(-1 -0.002 0.002 -1 412.8018 481.5479)" style="fill:#D5D6DB;" width="38.246" height="38.246"/>
	
		<rect x="256.153" y="221.595" transform="matrix(-1 -0.002 0.002 -1 550.0577 482.0006)" style="fill:#D5D6DB;" width="38.246" height="38.246"/>
</g>
<rect x="324.76" y="221.695" transform="matrix(-1 -0.002 0.002 -1 687.2729 482.3407)" style="fill:#E56353;" width="38.246" height="38.246"/>
<g>
	
		<rect x="50.166" y="283.596" transform="matrix(-1 -0.002 0.002 -1 137.9571 605.5798)" style="fill:#D5D6DB;" width="38.246" height="38.246"/>
	
		<rect x="118.784" y="283.752" transform="matrix(-1 -0.002 0.002 -1 275.1925 606.0325)" style="fill:#D5D6DB;" width="38.246" height="38.246"/>
	
		<rect x="187.397" y="283.852" transform="matrix(-1 -0.002 0.002 -1 412.418 606.3725)" style="fill:#D5D6DB;" width="38.246" height="38.246"/>
	
		<rect x="255.999" y="284.008" transform="matrix(-1 -0.002 0.002 -1 549.6227 606.8252)" style="fill:#D5D6DB;" width="38.246" height="38.246"/>
</g>
<rect x="324.654" y="284.162" transform="matrix(-1 -0.002 0.002 -1 686.9382 607.2673)" style="fill:#E56353;" width="38.246" height="38.246"/>
<g>
	
		<rect x="50.038" y="346.008" transform="matrix(-1 -0.002 0.002 -1 137.5733 730.4045)" style="fill:#D5D6DB;" width="38.246" height="38.246"/>
	
		<rect x="118.63" y="346.164" transform="matrix(-1 -0.002 0.002 -1 274.7575 730.8571)" style="fill:#D5D6DB;" width="38.246" height="38.246"/>
</g>
<ellipse style="fill:#64798A;" cx="359.461" cy="359.722" rx="131.804" ry="131.804"/>
<ellipse style="fill:#FFFFFF;" cx="359.461" cy="359.722" rx="107.571" ry="107.571"/>
<path style="fill:#E1E6E9;" d="M257.119,362.138c0.119-57.965,47.205-104.859,105.171-104.74
	c57.524,0.118,104.119,46.496,104.71,103.853c0.006-0.44,0.036-0.875,0.037-1.317c0.122-59.42-47.949-107.689-107.371-107.812
	c-59.42-0.122-107.688,47.949-107.811,107.37c-0.122,59.421,47.949,107.69,107.369,107.812c0.442,0.001,0.877-0.026,1.318-0.03
	C303.186,466.447,257.001,419.662,257.119,362.138z"/>
<path style="fill:#E56353;" d="M414.117,416.177c-0.613-0.002-1.226-0.237-1.692-0.705l-69.65-69.937
	c-0.935-0.938-0.931-2.455,0.007-3.389c0.938-0.934,2.455-0.931,3.389,0.007l69.649,69.937c0.935,0.938,0.932,2.455-0.006,3.389
	C415.343,415.946,414.731,416.178,414.117,416.177z"/>
<path style="fill:#64798A;" d="M363.062,349.464l0.116-56.548c0.004-1.985-1.603-3.598-3.587-3.603
	c-1.984-0.004-3.598,1.603-3.603,3.588l-0.116,56.548c-2.706,0.945-4.912,2.909-6.174,5.452l-43.166-0.088
	c-2.649-0.005-4.798,2.134-4.803,4.783c-0.005,2.65,2.134,4.798,4.783,4.803l43.166,0.088c1.775,3.615,5.454,6.134,9.745,6.143
	c6.02,0.013,10.925-4.874,10.938-10.893C370.371,354.983,367.307,350.967,363.062,349.464z"/>
<ellipse style="fill:#FFFFFF;" cx="359.463" cy="359.667" rx="6.124" ry="6.124"/>
<g>
	<ellipse style="fill:#3A556A;" cx="359.655" cy="268.587" rx="5.381" ry="5.381"/>
	<ellipse style="fill:#3A556A;" cx="359.264" cy="450.849" rx="5.381" ry="5.381"/>
	<ellipse style="fill:#3A556A;" cx="450.568" cy="359.883" rx="5.381" ry="5.381"/>
	<ellipse style="fill:#3A556A;" cx="268.306" cy="359.545" rx="5.381" ry="5.381"/>
</g>
<g>
</g>
<g>
</g>
<g>
</g>
<g>
</g>
<g>
</g>
<g>
</g>
<g>
</g>
<g>
</g>
<g>
</g>
<g>
</g>
<g>
</g>
<g>
</g>
<g>
</g>
<g>
</g>
<g>
</g>
</svg>
