<?xml version="1.0" encoding="iso-8859-1"?>
<!-- Generator: Adobe Illustrator 19.0.0, SVG Export Plug-In . SVG Version: 6.00 Build 0)  -->
<svg version="1.1" id="Layer_1" xmlns="http://www.w3.org/2000/svg" xmlns:xlink="http://www.w3.org/1999/xlink" x="0px" y="0px"
	 viewBox="0 0 491.52 491.52" style="enable-background:new 0 0 491.52 491.52;" xml:space="preserve">
<polygon style="fill:#FCD462;" points="432.809,0 421.36,11.45 423.331,42.902 395.318,37.49 387.698,45.112 381.964,88.447 
	347.615,85.194 333.329,99.479 337.611,136.382 297.308,135.501 290.953,141.856 301.474,179.587 266.847,165.962 259.223,173.586 
	259.112,213.991 229.562,203.247 175.83,256.979 234.541,315.69 491.52,58.711 487.564,3.956 "/>
<polygon style="fill:#F6C358;" points="269.138,237.002 278.669,246.532 489.834,35.367 488.549,17.592 "/>
<path style="fill:#3A556A;" d="M38.58,266.659c-51.44,51.44-51.44,134.84,0,186.281c51.441,51.44,134.841,51.44,186.281,0
	s51.44-134.841,0-186.281S90.02,215.22,38.58,266.659z M178.539,454.31c-39.441,19.498-88.621,12.88-121.415-19.915
	c-32.793-32.793-39.412-81.973-19.915-121.414L178.539,454.31z"/>
<g>
</g>
<g>
</g>
<g>
</g>
<g>
</g>
<g>
</g>
<g>
</g>
<g>
</g>
<g>
</g>
<g>
</g>
<g>
</g>
<g>
</g>
<g>
</g>
<g>
</g>
<g>
</g>
<g>
</g>
</svg>
