<?xml version="1.0" encoding="iso-8859-1"?>
<!-- Generator: Adobe Illustrator 19.0.0, SVG Export Plug-In . SVG Version: 6.00 Build 0)  -->
<svg version="1.1" id="Layer_1" xmlns="http://www.w3.org/2000/svg" xmlns:xlink="http://www.w3.org/1999/xlink" x="0px" y="0px"
	 viewBox="0 0 491.52 491.52" style="enable-background:new 0 0 491.52 491.52;" xml:space="preserve">
<path style="fill:#F6C358;" d="M161.765,75.48L161.765,75.48c0-12.384-10.04-22.423-22.423-22.423H22.423
	C10.04,53.057,0,63.097,0,75.48v340.559c0,12.384,10.04,22.423,22.423,22.423h388.39c12.384,0,22.423-10.04,22.423-22.423V120.327
	c0-12.384-10.039-22.423-22.423-22.423H184.188C171.803,97.904,161.765,87.865,161.765,75.48z"/>
<path style="fill:#FCD462;" d="M469.086,155.721H82.084c-10.283,0-19.249,6.995-21.75,16.969L0.685,410.585
	c-3.55,14.157,7.156,27.877,21.749,27.877h387.002c10.283,0,19.249-6.995,21.75-16.97l59.649-237.896
	C494.385,169.441,483.68,155.721,469.086,155.721z"/>
<path style="fill:#FFFFFF;" d="M191.513,329.738H67.885c-4.262,0-7.717,3.628-7.717,8.101v65.425c0,4.475,3.455,8.101,7.717,8.101
	h123.628c4.262,0,7.718-3.627,7.718-8.101V337.84C199.231,333.367,195.775,329.738,191.513,329.738z"/>
<g>
	<rect x="74.399" y="342.175" style="fill:#EBF0F3;" width="110.602" height="8.934"/>
	<rect x="74.399" y="366.08" style="fill:#EBF0F3;" width="110.602" height="8.934"/>
	<rect x="74.399" y="389.99" style="fill:#EBF0F3;" width="110.602" height="8.934"/>
</g>
<g>
</g>
<g>
</g>
<g>
</g>
<g>
</g>
<g>
</g>
<g>
</g>
<g>
</g>
<g>
</g>
<g>
</g>
<g>
</g>
<g>
</g>
<g>
</g>
<g>
</g>
<g>
</g>
<g>
</g>
</svg>
