<?xml version="1.0" encoding="iso-8859-1"?>
<!-- Generator: Adobe Illustrator 19.0.0, SVG Export Plug-In . SVG Version: 6.00 Build 0)  -->
<svg version="1.1" id="Layer_1" xmlns="http://www.w3.org/2000/svg" xmlns:xlink="http://www.w3.org/1999/xlink" x="0px" y="0px"
	 viewBox="0 0 491.517 491.517" style="enable-background:new 0 0 491.517 491.517;" xml:space="preserve">
<path style="fill:#EBF0F3;" d="M168.625,269.885V252.95c-21.201-2.171-40.232-10.591-57.073-25.298l16.935-20.183
	c12.99,11.29,26.356,18.03,40.138,20.183v-45.009c-17.483-4.173-30.283-9.648-38.401-16.463
	c-8.118-6.796-12.177-16.897-12.177-30.283c0-13.367,4.663-24.317,14.027-32.813c9.365-8.515,21.542-13.159,36.551-13.933V77.56
	h14.839v11.838c17.01,1.227,33.096,7.042,48.256,17.388l-15.085,21.352c-10.214-7.268-21.259-11.762-33.171-13.461v43.612h0.699
	c17.784,4.173,30.848,9.837,39.194,16.935c8.364,7.118,12.536,17.445,12.536,30.982s-4.795,24.543-14.385,33.058
	c-9.591,8.496-22.259,13.14-38.042,13.914v16.708H168.625z M152.257,120.133c-3.946,3.474-5.91,7.816-5.91,12.989
	c0,5.192,1.549,9.27,4.644,12.291c3.078,3.021,8.968,5.929,17.634,8.703v-40.137C161.659,114.601,156.202,116.659,152.257,120.133z
	 M201.097,221.856c4.324-3.55,6.495-8.042,6.495-13.461c0-5.4-1.7-9.703-5.097-12.875c-3.417-3.153-9.761-6.136-19.031-8.93v41.761
	C190.884,227.576,196.756,225.424,201.097,221.856z"/>
<path style="fill:#F6C358;" d="M70.518,70.518c-56.998,56.998-56.998,149.411,0,206.41c56.999,56.998,149.412,56.997,206.41,0
	c56.998-56.998,56.998-149.412,0-206.41C219.929,13.519,127.516,13.52,70.518,70.518z M270.801,270.802
	c-53.615,53.616-140.542,53.616-194.158,0c-53.616-53.615-53.615-140.542,0-194.157c53.616-53.616,140.542-53.616,194.158,0
	C324.416,130.259,324.417,217.186,270.801,270.802z"/>
<path style="fill:#FCD462;" d="M296.563,50.882C228.72-16.961,118.725-16.961,50.882,50.883c-67.843,67.843-67.843,177.837,0,245.68
	c62.75,62.749,161.533,67.413,229.696,14.088l21.107,21.107c-7.429,10.419-11.169,20.023-6.783,24.409l15.144,15.144l61.264-61.264
	l-15.144-15.143c-4.387-4.387-13.99-0.646-24.41,6.783l-21.107-21.108C363.975,212.413,359.311,113.631,296.563,50.882z
	 M70.518,276.928c-56.998-56.999-56.998-149.412,0-206.41s149.411-56.999,206.41,0c56.998,56.998,56.998,149.412,0,206.41
	C219.93,333.925,127.517,333.926,70.518,276.928z"/>
<path style="fill:#3A556A;" d="M371.31,310.045l-14.217,14.217l126.906,126.907c6.671-9.79,9.798-18.637,5.638-22.797
	l-66.736-66.735L371.31,310.045z"/>
<path style="fill:#64798A;" d="M310.046,371.31l51.592,51.591l66.735,66.736c9.149,9.148,40.957-16.941,55.626-38.468
	L357.093,324.263L310.046,371.31z"/>
<g>
</g>
<g>
</g>
<g>
</g>
<g>
</g>
<g>
</g>
<g>
</g>
<g>
</g>
<g>
</g>
<g>
</g>
<g>
</g>
<g>
</g>
<g>
</g>
<g>
</g>
<g>
</g>
<g>
</g>
</svg>
