<?xml version="1.0" encoding="iso-8859-1"?>
<!-- Generator: Adobe Illustrator 19.0.0, SVG Export Plug-In . SVG Version: 6.00 Build 0)  -->
<svg version="1.1" id="Layer_1" xmlns="http://www.w3.org/2000/svg" xmlns:xlink="http://www.w3.org/1999/xlink" x="0px" y="0px"
	 viewBox="0 0 491.52 491.52" style="enable-background:new 0 0 491.52 491.52;" xml:space="preserve">
<g>
	<path style="fill:#F6C358;" d="M245.67,192.906l0.089,0.06h0.001v-0.081l0.04,0.055l0.048-0.033h0.001l0.016-0.021v0.011
		l33.995-22.717l0.003,0.001v-17.11c-2.571,1.772-5.039,3.69-7.356,5.784c-14.917,13.486-29.548,11.175-29.548,11.175
		c-8.924,0.235-21.635-8.908-27.056-13.165c-1.379-1.083-2.795-2.119-4.249-3.1v16.416l0.003-0.001L245.67,192.906z"/>
	<polygon style="fill:#F6C358;" points="245.759,192.969 245.76,192.971 245.76,192.969 245.759,192.968 234.76,207.949 
		234.76,207.949 	"/>
</g>
<path style="fill:#64798A;" d="M209.622,44.936h21.163c1.929,0,3.845-0.292,5.682-0.881c3.834-1.23,9.928-3.495,14.543-5.249
	c4.115-1.564,8.647-1.619,12.8-0.161l22.275,7.82C301.071,51.97,302.6,66.039,302.6,66.039v39.76c0,0,1.966-13.272,8.763-24.173
	c1.651-2.647,2.553-5.691,2.553-8.811V38.513c0,0-2.141-16.822-18.657-20.798c0,0,6.729-14.326-10.704-17.714h-64.228l0,0
	c-23.479,0-42.514,19.033-42.514,42.513v25.202c0,5.461,1.828,10.775,5.249,15.032c2.69,3.35,5.484,8.618,5.915,16.239V65.58
	C193.106,47.076,209.622,44.936,209.622,44.936z"/>
<path style="fill:#FCD462;" d="M242.959,170.028c0,0,14.631,2.31,29.548-11.175c2.316-2.094,4.785-4.012,7.356-5.784
	c0.254-0.174,0.502-0.356,0.758-0.527c6.604-4.436,19.292-16.736,21.979-46.743v-39.76c0,0-1.529-14.069-16.516-19.574l-22.275-7.82
	c-4.153-1.458-8.686-1.403-12.8,0.161c-4.615,1.753-10.709,4.019-14.543,5.249c-1.837,0.589-3.753,0.881-5.682,0.881h-21.163
	c0,0-16.516,2.14-20.645,20.645v33.406v7.73c0,0,0.719,32.496,22.234,46.737c0.151,0.099,0.295,0.208,0.444,0.309
	c1.453,0.981,2.87,2.017,4.249,3.1C221.324,161.12,234.035,170.263,242.959,170.028z"/>
<g>
	<polygon style="fill:#D5D6DB;" points="257.405,208.831 251.488,217.327 256.952,251.769 270.647,226.867 	"/>
	<polygon style="fill:#D5D6DB;" points="234.649,251.921 240.137,217.327 234.168,208.755 220.87,226.867 	"/>
	<polygon style="fill:#D5D6DB;" points="234.76,207.949 234.296,208.581 245.76,193.028 245.76,192.971 245.759,192.969 	"/>
</g>
<g>
	<polygon style="fill:#E56353;" points="256.952,251.769 251.488,217.327 257.405,208.831 257.405,208.829 245.76,192.969 
		245.76,192.971 245.76,193.028 234.296,208.581 234.169,208.753 234.168,208.755 234.168,208.755 240.137,217.327 234.649,251.921 
		234.649,251.922 245.759,272.122 256.952,251.772 	"/>
	<polygon style="fill:#E56353;" points="245.827,272.246 246.889,271.184 245.794,272.186 	"/>
	<polygon style="fill:#E56353;" points="245.724,272.186 244.63,271.184 245.691,272.246 	"/>
	<polygon style="fill:#E56353;" points="245.709,272.264 245.759,272.314 245.81,272.264 245.76,272.218 245.759,272.217 
		245.759,272.218 	"/>
	<polygon style="fill:#E56353;" points="245.865,192.885 245.849,192.906 245.865,192.896 	"/>
	<polygon style="fill:#E56353;" points="245.76,192.885 245.76,192.966 245.8,192.939 	"/>
</g>
<g>
	<polygon style="fill:#E1E6E9;" points="245.865,192.896 245.849,192.906 245.848,192.906 245.8,192.939 245.76,192.966 
		245.759,192.966 245.76,192.967 245.759,192.968 245.76,192.969 257.405,208.829 270.65,226.868 298.212,176.757 279.863,170.179 
		279.861,170.179 	"/>
	<polygon style="fill:#E1E6E9;" points="234.168,208.755 234.169,208.753 234.76,207.949 245.759,192.968 245.76,192.967 
		245.759,192.966 245.67,192.906 211.657,170.179 211.655,170.179 193.307,176.757 220.869,226.868 	"/>
</g>
<g>
	<path style="fill:#3A556A;" d="M382.32,257.536l-6.174-37.278c-1.665-10.055-8.629-18.428-18.214-21.895l-59.721-21.606
		l15.862,31.808l-19.838,0.306l6.728,12.846l-54.076,49.467l-1.062,1.062l0.038,0.069h14.346h109.576
		C377.632,272.315,383.602,265.275,382.32,257.536z"/>
	<polygon style="fill:#3A556A;" points="245.81,272.264 245.759,272.314 245.76,272.315 245.865,272.315 	"/>
</g>
<g>
	<polygon style="fill:#2F4859;" points="256.952,251.772 245.759,272.122 245.76,272.123 245.794,272.186 246.889,271.184 
		300.965,221.717 294.236,208.871 314.074,208.565 298.212,176.757 270.65,226.868 	"/>
	<polygon style="fill:#2F4859;" points="245.709,272.264 245.759,272.218 245.759,272.217 245.724,272.186 245.691,272.246 	"/>
</g>
<path style="fill:#3A556A;" d="M245.709,272.264l-0.018-0.018l-1.061-1.062l-54.076-49.467l6.728-12.846l-19.838-0.306
	l15.862-31.808l-59.721,21.606c-9.584,3.467-16.549,11.84-18.214,21.895l-6.173,37.278c-1.282,7.739,4.687,14.779,12.532,14.779
	h109.683h8.467h0.105h5.773h0.001l-0.001-0.001L245.709,272.264z"/>
<polygon style="fill:#2F4859;" points="245.827,272.246 245.794,272.186 245.76,272.123 245.759,272.122 234.649,251.922 
	220.869,226.868 193.307,176.757 177.445,208.565 197.283,208.871 190.554,221.717 244.63,271.184 245.724,272.186 245.759,272.217 
	245.76,272.218 245.81,272.264 245.865,272.315 "/>
<polygon style="fill:#44C4A1;" points="0,419.445 0,472.999 0,491.52 108.455,491.52 108.455,472.999 108.455,419.445 "/>
<polygon style="fill:#FCD462;" points="191.531,419.445 191.531,472.999 191.531,491.52 299.987,491.52 299.987,472.999 
	299.987,419.445 "/>
<polygon style="fill:#27A2DB;" points="383.064,419.445 383.064,472.999 383.064,491.52 491.52,491.52 491.52,472.999 
	491.52,419.445 "/>
<path style="fill:#64798A;" d="M437.289,332.234H252.463V291.46h-13.405v40.774H54.232c-3.7,0-6.703,3.002-6.703,6.703v50.906
	h13.405v-44.204h178.124v44.204h13.405v-44.204h178.123v44.204h13.405v-50.906C443.992,335.235,440.99,332.234,437.289,332.234z"/>
<g>
</g>
<g>
</g>
<g>
</g>
<g>
</g>
<g>
</g>
<g>
</g>
<g>
</g>
<g>
</g>
<g>
</g>
<g>
</g>
<g>
</g>
<g>
</g>
<g>
</g>
<g>
</g>
<g>
</g>
</svg>
