<?xml version="1.0" encoding="iso-8859-1"?>
<!-- Generator: Adobe Illustrator 19.0.0, SVG Export Plug-In . SVG Version: 6.00 Build 0)  -->
<svg version="1.1" id="Layer_1" xmlns="http://www.w3.org/2000/svg" xmlns:xlink="http://www.w3.org/1999/xlink" x="0px" y="0px"
	 viewBox="0 0 491.52 491.52" style="enable-background:new 0 0 491.52 491.52;" xml:space="preserve">
<polygon style="fill:#EBF0F3;" points="283.736,0 13.835,0 13.835,491.52 388.013,491.52 388.013,102.234 "/>
<polygon style="fill:#D5D6DB;" points="283.736,102.234 388.013,102.234 283.736,0 "/>
<polygon style="fill:#E1E6E9;" points="388.013,102.234 283.736,102.234 388.013,173.099 "/>
<g>
	<rect x="62.285" y="224.952" style="fill:#D5D6DB;" width="277.248" height="13.404"/>
	<rect x="62.285" y="277.709" style="fill:#D5D6DB;" width="277.248" height="13.404"/>
	<rect x="62.285" y="330.445" style="fill:#D5D6DB;" width="277.248" height="13.404"/>
	<rect x="62.285" y="383.201" style="fill:#D5D6DB;" width="277.248" height="13.404"/>
	<rect x="62.285" y="435.968" style="fill:#D5D6DB;" width="277.248" height="13.404"/>
</g>
<rect x="62.285" y="170.496" style="fill:#F6C358;" width="35.046" height="12.38"/>
<rect x="62.285" y="71.46" style="fill:#FCD462;" width="35.046" height="99.041"/>
<rect x="113.459" y="170.496" style="fill:#3EA69B;" width="35.046" height="12.38"/>
<rect x="113.459" y="27.766" style="fill:#44C4A1;" width="35.046" height="142.735"/>
<rect x="164.608" y="170.496" style="fill:#D15241;" width="35.046" height="12.38"/>
<rect x="164.608" y="93.307" style="fill:#E56353;" width="35.046" height="77.21"/>
<rect x="215.757" y="170.496" style="fill:#2D93BA;" width="35.046" height="12.38"/>
<rect x="215.757" y="55.439" style="fill:#27A2DB;" width="35.046" height="115.062"/>
<rect x="343.232" y="300.329" transform="matrix(-0.2984 0.9545 -0.9545 -0.2984 839.9432 194.3974)" style="fill:#E56353;" width="10.573" height="211.199"/>
<path style="fill:#64798A;" d="M358.758,294.62l-10.881,34.81l44.751,13.99l10.888-34.83c4.535-14.508,13.943-26.928,26.483-35.516
	c8.66-5.932,15.464-14.704,18.839-25.501c8.535-27.3-8.292-56.468-37.181-62.112c-21.142-4.131-43.181,6.776-52.6,26.151
	c-6.162,12.674-6.382,26.25-2.078,38.049C362.271,264.172,363.367,279.874,358.758,294.62z"/>
<path style="fill:#3A556A;" d="M342.611,327.784c-8.239-2.576-17.005,2.016-19.58,10.254l85.115,26.607
	c2.575-8.238-2.016-17.005-10.254-19.58l-5.265-1.645l-44.751-13.99L342.611,327.784z"/>
<polygon style="fill:#F6C358;" points="477.685,386.383 253.491,316.299 237.993,365.877 251.316,370.041 448.864,431.796 
	462.187,435.96 "/>
<g>
	<path style="fill:#E56353;" d="M169.094,444.734c-0.832-0.502-1.603-0.773-2.309-0.809c-0.713-0.038-1.458,0.128-2.231,0.496
		l-1.451,0.69l4.842,2.926l1.659-0.788c0.79-0.375,1.109-0.763,0.964-1.162C170.425,445.693,169.933,445.241,169.094,444.734z"/>
	<path style="fill:#E56353;" d="M175.239,439.82c-0.597-0.038-1.275,0.128-2.041,0.491l-1.817,0.864l4.32,2.609l1.779-0.845
		c0.807-0.384,1.181-0.75,1.113-1.106c-0.066-0.352-0.493-0.768-1.287-1.248C176.519,440.111,175.829,439.855,175.239,439.82z"/>
	<path style="fill:#E56353;" d="M158.507,447.862c-0.713-0.038-1.457,0.128-2.232,0.496l-1.451,0.69l4.843,2.926l1.659-0.789
		c0.79-0.375,1.109-0.763,0.963-1.162c-0.142-0.394-0.635-0.846-1.473-1.353C159.984,448.168,159.213,447.897,158.507,447.862z"/>
	<path style="fill:#E56353;" d="M191.16,440.935c0.839-0.399,1.12-0.995,0.843-1.786c-0.273-0.787-1.02-1.55-2.234-2.283
		c-1.216-0.735-2.538-1.223-3.964-1.462c-1.433-0.242-2.569-0.163-3.409,0.236c-0.838,0.399-1.118,0.993-0.84,1.785
		c0.272,0.787,1.02,1.55,2.234,2.284c1.215,0.734,2.538,1.223,3.964,1.461C189.186,441.413,190.321,441.335,191.16,440.935z"/>
	<path style="fill:#E56353;" d="M223.071,421.031c-20.06-12.12-54.655-13.229-77.268-2.476
		c-22.613,10.752-24.681,29.294-4.622,41.414c20.061,12.121,54.655,13.23,77.268,2.477
		C241.063,451.693,243.133,433.151,223.071,421.031z M206.235,422.611c1.517-0.721,3.205-0.959,5.078-0.707
		c1.867,0.247,3.743,0.94,5.622,2.075c1.873,1.132,2.967,2.221,3.269,3.256c0.305,1.039-0.359,1.944-1.99,2.719l-2.807,1.335
		l-12.078-7.297L206.235,422.611z M201.956,430.167l4.054-1.928l1.817,1.097l-4.054,1.928l3.228,1.95l4.659-2.215l1.919,1.158
		l-6.088,2.895l-12.076-7.296l5.943-2.827l1.919,1.159l-4.515,2.147L201.956,430.167z M181.614,447.357l-1.429,0.679l-12.077-7.297
		l3.147-1.496c1.292-0.615,2.525-0.867,3.705-0.753c1.177,0.108,2.45,0.578,3.822,1.407c1.991,1.204,2.643,2.254,1.943,3.146
		l6.602,1.598l-1.816,0.864l-6.083-1.493l-1.875,0.892L181.614,447.357z M165.056,455.23l-1.428,0.679l-12.077-7.297l2.905-1.382
		c1.283-0.609,2.568-0.844,3.86-0.699c1.291,0.145,2.671,0.66,4.133,1.544c1.462,0.884,2.232,1.671,2.312,2.37
		c0.08,0.696-0.505,1.339-1.748,1.929l-1.501,0.714L165.056,455.23z M159.828,444.676l2.906-1.382
		c1.282-0.609,2.568-0.844,3.86-0.699c1.291,0.144,2.67,0.66,4.133,1.544c1.462,0.884,2.232,1.671,2.311,2.369
		c0.08,0.697-0.504,1.339-1.747,1.929l-1.501,0.715l3.544,2.14l-1.428,0.679L159.828,444.676z M182.324,440.406
		c-1.777-1.074-2.839-2.18-3.176-3.307s0.123-1.99,1.381-2.588c1.258-0.599,2.912-0.741,4.961-0.426
		c2.047,0.314,3.966,1.012,5.743,2.085c1.778,1.073,2.841,2.178,3.178,3.305c0.338,1.127-0.124,1.99-1.383,2.588
		c-1.257,0.598-2.91,0.741-4.959,0.426C186.021,442.177,184.101,441.48,182.324,440.406z M185.803,432.327l1.597-0.76l11.62,4.211
		l-6.416-6.686l1.598-0.76l8.677,8.913l-1.597,0.76L185.803,432.327z M141.843,448.735c-6.216-8.745-2.244-18.992,11.591-25.572
		c13.835-6.577,33.293-7.47,48.752-3.12L141.843,448.735z M157.336,455.937l-4.238,2.014l1.898,2.062l-1.524,0.725l-8.35-9.069
		l1.525-0.725l15.806,5.524l-1.525,0.725L157.336,455.937z M210.819,457.835c-13.835,6.579-33.293,7.471-48.751,3.121l60.342-28.692
		C228.627,441.009,224.654,451.257,210.819,457.835z"/>
	<path style="fill:#E56353;" d="M217.81,426.946c-0.155-0.68-0.91-1.433-2.265-2.251c-2.768-1.672-5.257-1.976-7.476-0.921
		l-1.428,0.679l8.274,4.998l1.585-0.754C217.526,428.21,217.961,427.627,217.81,426.946z"/>
	<polygon style="fill:#E56353;" points="151.797,456.537 154.872,455.075 148.355,452.798 	"/>
</g>
<g>
</g>
<g>
</g>
<g>
</g>
<g>
</g>
<g>
</g>
<g>
</g>
<g>
</g>
<g>
</g>
<g>
</g>
<g>
</g>
<g>
</g>
<g>
</g>
<g>
</g>
<g>
</g>
<g>
</g>
</svg>
