<?xml version="1.0" encoding="iso-8859-1"?>
<!-- Generator: Adobe Illustrator 19.0.0, SVG Export Plug-In . SVG Version: 6.00 Build 0)  -->
<svg version="1.1" id="Layer_1" xmlns="http://www.w3.org/2000/svg" xmlns:xlink="http://www.w3.org/1999/xlink" x="0px" y="0px"
	 viewBox="0 0 491.52 491.52" style="enable-background:new 0 0 491.52 491.52;" xml:space="preserve">
<path style="fill:#F6C358;" d="M445.522,88.989h-259.23c-5.832,0-11.24-3.318-14.26-8.749l-13.88-24.957
	c-3.021-5.432-8.427-8.749-14.259-8.749H45.998c-9.208,0-16.671,8.126-16.671,18.15v362.151c0,10.024,7.463,18.15,16.671,18.15
	h399.523c9.207,0,16.671-8.126,16.671-18.15V107.14C462.192,97.116,454.728,88.989,445.522,88.989z"/>
<rect x="55.383" y="133.12" style="fill:#EBF0F3;" width="385.536" height="122.092"/>
<rect x="55.383" y="150.17" style="fill:#FFFFFF;" width="385.536" height="122.092"/>
<path style="fill:#FCD462;" d="M474.806,216.429H16.714c-10.557,0-17.956,8.348-16.541,18.538l27.158,195.639
	c1.107,7.974,9.46,14.379,18.667,14.379h399.523c9.207,0,17.56-6.405,18.667-14.379l27.158-195.639
	C492.761,224.777,485.362,216.429,474.806,216.429z"/>
<g>
</g>
<g>
</g>
<g>
</g>
<g>
</g>
<g>
</g>
<g>
</g>
<g>
</g>
<g>
</g>
<g>
</g>
<g>
</g>
<g>
</g>
<g>
</g>
<g>
</g>
<g>
</g>
<g>
</g>
</svg>
