<?xml version="1.0" encoding="iso-8859-1"?>
<!-- Generator: Adobe Illustrator 19.0.0, SVG Export Plug-In . SVG Version: 6.00 Build 0)  -->
<svg version="1.1" id="Layer_1" xmlns="http://www.w3.org/2000/svg" xmlns:xlink="http://www.w3.org/1999/xlink" x="0px" y="0px"
	 viewBox="0 0 491.521 491.521" style="enable-background:new 0 0 491.521 491.521;" xml:space="preserve">
<path style="fill:#2F4859;" d="M74.331,69.048c-48.151,48.151-48.152,126.22-0.001,174.371c48.152,48.151,126.221,48.151,174.372,0
	c48.152-48.151,48.151-126.22,0-174.371S122.482,20.897,74.331,69.048z M242.963,237.681c-44.982,44.981-117.912,44.981-162.894,0
	C35.087,192.698,35.088,119.768,80.07,74.786c44.981-44.981,117.91-44.981,162.893,0
	C287.945,119.768,287.945,192.698,242.963,237.681z"/>
<ellipse style="opacity:0.75;fill:#FFFFFF;enable-background:new    ;" cx="161.513" cy="156.215" rx="115.184" ry="115.184"/>
<path style="fill:#3A556A;" d="M275.725,47.308c-63.076-63.076-165.342-63.076-228.418,0c-63.075,63.075-63.076,165.341,0,228.418
	c57.387,57.386,147.122,62.38,210.36,15.345l24.842,24.842l33.404-33.404l-24.842-24.842
	C338.106,194.428,333.112,104.694,275.725,47.308z M248.702,243.419c-48.151,48.151-126.22,48.151-174.372,0
	c-48.151-48.151-48.15-126.22,0.001-174.371s126.22-48.151,174.371,0S296.854,195.268,248.702,243.419z"/>
<path style="fill:#2F4859;" d="M325.707,272.715l-52.992,52.992c-2.596,2.596-2.596,6.805,0.001,9.402l154.462,154.463
	c2.597,2.596,6.806,2.596,9.403,0l52.992-52.992c2.596-2.597,2.596-6.806,0-9.403L335.11,272.715
	C332.514,270.118,328.304,270.118,325.707,272.715z"/>
<rect x="278.727" y="314.388" transform="matrix(-0.7071 0.7071 -0.7071 -0.7071 779.4265 322.8642)" style="fill:#E56353;" width="88.238" height="16.937"/>
<g>
</g>
<g>
</g>
<g>
</g>
<g>
</g>
<g>
</g>
<g>
</g>
<g>
</g>
<g>
</g>
<g>
</g>
<g>
</g>
<g>
</g>
<g>
</g>
<g>
</g>
<g>
</g>
<g>
</g>
</svg>
