<?xml version="1.0" encoding="iso-8859-1"?>
<!-- Generator: Adobe Illustrator 19.0.0, SVG Export Plug-In . SVG Version: 6.00 Build 0)  -->
<svg version="1.1" id="Layer_1" xmlns="http://www.w3.org/2000/svg" xmlns:xlink="http://www.w3.org/1999/xlink" x="0px" y="0px"
	 viewBox="0 0 500.128 500.128" style="enable-background:new 0 0 500.128 500.128;" xml:space="preserve">
<path style="fill:#64798A;" d="M408.98,86.749c-50.259,0-91.149,40.891-91.149,91.149V298.89c0,50.259,40.89,91.149,91.149,91.149
	s91.149-40.89,91.149-91.149V177.898C500.128,127.64,459.238,86.749,408.98,86.749z M458.997,298.89
	c0,27.585-22.433,50.018-50.018,50.018c-27.585,0-50.018-22.433-50.018-50.018V177.898c0-27.584,22.433-50.018,50.018-50.018
	c27.585,0,50.018,22.434,50.018,50.018V298.89z"/>
<path style="fill:#D5D6DB;" d="M326.77,495.824H50.754c-6.419,0-11.622-5.204-11.622-11.622v-11.72h299.261v11.72
	C338.392,490.62,333.189,495.824,326.77,495.824z"/>
<path style="fill:#EBF0F3;" d="M17.361,4.308c-9.829,0-17.698,8.152-17.35,17.975l15.374,433.454
	c0.332,9.342,8.002,16.745,17.35,16.745h236.314V4.308H17.361z"/>
<path style="fill:#E1E6E9;" d="M360.162,4.308h-91.114v468.174h75.74c9.349,0,17.018-7.402,17.35-16.745l15.375-433.454
	C377.861,12.46,369.993,4.308,360.162,4.308z"/>
<path style="fill:#E56353;" d="M172.529,189.923H78.836c-4.814,0-8.717,3.902-8.717,8.716v112.577c0,4.813,3.903,8.716,8.717,8.716
	h93.693c4.813,0,8.715-3.903,8.715-8.716V198.639C181.244,193.825,177.342,189.923,172.529,189.923z"/>
<circle style="fill:#D15241;" cx="125.684" cy="207.302" r="8.847"/>
<rect x="121.209" y="4.304" style="fill:#64798A;" width="8.934" height="204.488"/>
<g>
</g>
<g>
</g>
<g>
</g>
<g>
</g>
<g>
</g>
<g>
</g>
<g>
</g>
<g>
</g>
<g>
</g>
<g>
</g>
<g>
</g>
<g>
</g>
<g>
</g>
<g>
</g>
<g>
</g>
</svg>
