<?xml version="1.0" encoding="iso-8859-1"?>
<!-- Generator: Adobe Illustrator 19.0.0, SVG Export Plug-In . SVG Version: 6.00 Build 0)  -->
<svg version="1.1" id="Layer_1" xmlns="http://www.w3.org/2000/svg" xmlns:xlink="http://www.w3.org/1999/xlink" x="0px" y="0px"
	 viewBox="0 0 491.52 491.52" style="enable-background:new 0 0 491.52 491.52;" xml:space="preserve">
<path style="fill:#DC8744;" d="M396.195,40.57H95.325c-9.086,0-16.452,7.366-16.452,16.452v418.047
	c0,9.086,7.366,16.452,16.452,16.452h300.871c9.086,0,16.452-7.366,16.452-16.452V57.022
	C412.647,47.936,405.281,40.57,396.195,40.57z"/>
<rect x="103.982" y="71.281" style="fill:#EBF0F3;" width="283.546" height="399.821"/>
<rect x="103.982" y="60.37" style="fill:#FFFFFF;" width="283.546" height="399.821"/>
<path style="fill:#64798A;" d="M341.852,67.416l-8.91-32.571c-1.089-3.98-4.705-6.74-8.831-6.74h-55.938
	c1.248-5.514,0.956-11.599-4.617-18.672c-4.399-5.583-10.934-9.506-18.041-9.432c-12.601,0.131-22.774,10.386-22.774,23.018
	c0,1.753,0.235,3.445,0.606,5.086H167.41c-4.127,0-7.744,2.76-8.833,6.74l-8.91,32.571c-1.593,5.827,2.793,11.573,8.833,11.573
	h174.521C339.061,78.989,343.446,73.243,341.852,67.416z M245.762,35.131c-6.679,0-12.113-5.434-12.113-12.113
	c0-6.677,5.434-12.11,12.113-12.11c6.674,0,12.107,5.434,12.107,12.11C257.869,29.698,252.436,35.131,245.762,35.131z"/>
<g>
	<path style="fill:#EBF0F3;" d="M166.854,167.172h-26.505c-6.318,0-11.459-5.14-11.459-11.45v-26.505
		c0-6.318,5.14-11.459,11.459-11.459h26.505c6.318,0,11.459,5.14,11.459,11.459v26.505
		C178.313,162.032,173.172,167.172,166.854,167.172z M140.349,126.695c-1.387,0-2.522,1.135-2.522,2.522v26.505
		c0,1.387,1.135,2.513,2.522,2.513h26.505c1.387,0,2.522-1.126,2.522-2.513v-26.505c0-1.387-1.135-2.522-2.522-2.522H140.349z"/>
	<path style="fill:#EBF0F3;" d="M166.854,236.571h-26.505c-6.318,0-11.459-5.14-11.459-11.459v-26.505
		c0-6.31,5.14-11.451,11.459-11.451h26.505c6.318,0,11.459,5.14,11.459,11.451v26.505
		C178.313,231.431,173.172,236.571,166.854,236.571z M140.349,196.094c-1.387,0-2.522,1.126-2.522,2.514v26.505
		c0,1.388,1.135,2.522,2.522,2.522h26.505c1.387,0,2.522-1.134,2.522-2.522v-26.505c0-1.388-1.135-2.514-2.522-2.514H140.349z"/>
	<path style="fill:#EBF0F3;" d="M166.854,305.971h-26.505c-6.318,0-11.459-5.14-11.459-11.46v-26.505
		c0-6.318,5.14-11.459,11.459-11.459h26.505c6.318,0,11.459,5.14,11.459,11.459v26.505
		C178.313,300.831,173.172,305.971,166.854,305.971z M140.349,265.485c-1.387,0-2.522,1.134-2.522,2.522v26.505
		c0,1.388,1.135,2.523,2.522,2.523h26.505c1.387,0,2.522-1.135,2.522-2.523v-26.505c0-1.388-1.135-2.522-2.522-2.522H140.349z"/>
	<path style="fill:#EBF0F3;" d="M166.854,375.37h-26.505c-6.318,0-11.459-5.14-11.459-11.459v-26.505
		c0-6.318,5.14-11.459,11.459-11.459h26.505c6.318,0,11.459,5.14,11.459,11.459v26.505
		C178.313,370.23,173.172,375.37,166.854,375.37z M140.349,334.884c-1.387,0-2.522,1.135-2.522,2.522v26.505
		c0,1.387,1.135,2.522,2.522,2.522h26.505c1.387,0,2.522-1.135,2.522-2.522v-26.505c0-1.387-1.135-2.522-2.522-2.522H140.349z"/>
	<rect x="199.127" y="124.262" style="fill:#EBF0F3;" width="159.027" height="8.934"/>
	<rect x="199.127" y="151.736" style="fill:#EBF0F3;" width="159.027" height="8.934"/>
	<rect x="199.127" y="193.659" style="fill:#EBF0F3;" width="159.027" height="8.934"/>
	<rect x="199.127" y="221.133" style="fill:#EBF0F3;" width="159.027" height="8.934"/>
	<rect x="199.127" y="263.066" style="fill:#EBF0F3;" width="159.027" height="8.934"/>
	<rect x="199.127" y="290.524" style="fill:#EBF0F3;" width="159.027" height="8.934"/>
	<rect x="199.127" y="332.457" style="fill:#EBF0F3;" width="159.027" height="8.934"/>
	<rect x="199.127" y="359.936" style="fill:#EBF0F3;" width="159.027" height="8.934"/>
</g>
<g>
	<path style="fill:#44C4A1;" d="M152.637,154.736c-1.213,0-2.383-0.498-3.238-1.388l-9.329-9.783
		c-1.702-1.78-1.632-4.608,0.157-6.318c1.78-1.694,4.608-1.641,6.318,0.157l5.49,5.76c5.585-7.872,17.733-23.005,30.58-26.557
		c2.374-0.611,4.844,0.751,5.499,3.124c0.654,2.374-0.742,4.835-3.124,5.499c-11.485,3.167-24.506,20.84-28.556,27.386
		c-0.725,1.178-1.955,1.955-3.334,2.095C152.942,154.727,152.794,154.736,152.637,154.736z"/>
	<path style="fill:#44C4A1;" d="M152.637,223.53c-1.213,0-2.383-0.498-3.238-1.388l-9.329-9.783
		c-1.702-1.78-1.632-4.609,0.157-6.319c1.78-1.693,4.608-1.641,6.318,0.157l5.49,5.761c5.585-7.872,17.733-23.006,30.58-26.557
		c2.374-0.611,4.844,0.751,5.499,3.124c0.654,2.374-0.742,4.835-3.124,5.498c-11.485,3.168-24.506,20.84-28.556,27.387
		c-0.725,1.178-1.955,1.954-3.334,2.094C152.942,223.521,152.794,223.53,152.637,223.53z"/>
</g>
<g>
	<path style="fill:#E56353;" d="M137.644,301.686c-1.143,0-2.286-0.437-3.159-1.309c-1.745-1.745-1.745-4.573,0-6.318l31.916-31.916
		c1.745-1.745,4.573-1.745,6.318,0c1.745,1.745,1.745,4.573,0,6.318l-31.916,31.916C139.93,301.249,138.787,301.686,137.644,301.686
		z"/>
	<path style="fill:#E56353;" d="M169.559,301.686c-1.143,0-2.287-0.437-3.159-1.309l-31.916-31.916
		c-1.745-1.745-1.745-4.573,0-6.318c1.745-1.745,4.573-1.745,6.318,0l31.916,31.916c1.745,1.745,1.745,4.573,0,6.318
		C171.846,301.249,170.702,301.686,169.559,301.686z"/>
</g>
<g>
</g>
<g>
</g>
<g>
</g>
<g>
</g>
<g>
</g>
<g>
</g>
<g>
</g>
<g>
</g>
<g>
</g>
<g>
</g>
<g>
</g>
<g>
</g>
<g>
</g>
<g>
</g>
<g>
</g>
</svg>
