<?xml version="1.0" encoding="iso-8859-1"?>
<!-- Generator: Adobe Illustrator 19.0.0, SVG Export Plug-In . SVG Version: 6.00 Build 0)  -->
<svg version="1.1" id="Layer_1" xmlns="http://www.w3.org/2000/svg" xmlns:xlink="http://www.w3.org/1999/xlink" x="0px" y="0px"
	 viewBox="0 0 491.54 491.54" style="enable-background:new 0 0 491.54 491.54;" xml:space="preserve">
<path style="fill:#D5D6DB;" d="M344.643,212.228H14.352C6.426,212.228,0,218.653,0,226.58v208.143
	c0,7.927,6.426,14.352,14.352,14.352h330.291c7.927,0,14.352-6.426,14.352-14.352V226.58
	C358.996,218.653,352.57,212.228,344.643,212.228z"/>
<path style="fill:#EBF0F3;" d="M112.867,264.963V206.37H14.352C6.426,206.37,0,212.795,0,220.723v208.142
	c0,7.927,6.426,14.353,14.352,14.353h330.291c7.927,0,14.352-6.426,14.352-14.353V298.976H146.88
	C128.121,298.976,112.867,283.722,112.867,264.963z"/>
<path style="fill:#E1E6E9;" d="M358.996,220.723c0-7.928-6.426-14.353-14.352-14.353H123.738h-10.871v58.594
	c0,18.759,15.254,34.013,34.013,34.013h212.115v-10.875V220.723z"/>
<path style="fill:#EBF0F3;" d="M477.168,42.466H146.877c-7.926,0-14.352,6.426-14.352,14.352v208.144
	c0,7.926,6.426,14.352,14.352,14.352h330.291c7.927,0,14.352-6.426,14.352-14.352V56.818
	C491.52,48.892,485.094,42.466,477.168,42.466z"/>
<path style="fill:#FCD462;" d="M79.752,242.595h-43.47c-2.55,0-4.617,2.067-4.617,4.617v43.469c0,2.551,2.067,4.617,4.617,4.617
	h43.47c2.549,0,4.616-2.066,4.616-4.617v-43.469C84.368,244.662,82.301,242.595,79.752,242.595z"/>
<path style="fill:#DC8744;" d="M84.366,264.735h-13.9v-22.143h-5.857v6.035h-16.24v-6.035h-5.857v14.489H31.666v5.857h10.846v14.941
	H31.666v5.857h10.846v11.561h5.857v-6.029h16.24v6.029h5.857v-24.706h13.9V264.735z M48.369,283.411v-28.926h16.24v28.926H48.369z"
	/>
<rect x="31.667" y="336.087" style="fill:#64798A;" width="49.367" height="11.407"/>
<rect x="31.667" y="370.237" style="fill:#2D93BA;" width="103.322" height="11.407"/>
<rect x="31.667" y="404.296" style="fill:#FCD462;" width="159.795" height="11.407"/>
<rect x="105.948" y="336.087" style="fill:#64798A;" width="49.367" height="11.407"/>
<g>
	<rect x="158.31" y="146.79" style="fill:#D5D6DB;" width="93.548" height="11.407"/>
	<rect x="158.31" y="186.762" style="fill:#D5D6DB;" width="122.004" height="11.407"/>
	<rect x="158.31" y="226.724" style="fill:#D5D6DB;" width="166.723" height="11.407"/>
</g>
<g>
	<rect x="180.224" y="336.087" style="fill:#64798A;" width="49.367" height="11.407"/>
	<rect x="254.505" y="336.087" style="fill:#64798A;" width="49.367" height="11.407"/>
	<rect x="132.526" y="78.556" style="fill:#64798A;" width="359.014" height="31.913"/>
</g>
<path style="fill:#44C4A1;" d="M432.318,210.347c-3.448,0-6.719,0.73-9.694,2.018c5.177,6.074,8.422,13.844,8.422,22.433
	c0,8.585-3.245,16.354-8.422,22.428c2.974,1.288,6.246,2.018,9.694,2.018c13.503,0,24.448-10.946,24.448-24.448
	S445.82,210.347,432.318,210.347z"/>
<circle style="fill:#27A2DB;" cx="396.288" cy="234.793" r="26.363"/>
<g>
</g>
<g>
</g>
<g>
</g>
<g>
</g>
<g>
</g>
<g>
</g>
<g>
</g>
<g>
</g>
<g>
</g>
<g>
</g>
<g>
</g>
<g>
</g>
<g>
</g>
<g>
</g>
<g>
</g>
</svg>
