<?xml version="1.0" encoding="iso-8859-1"?>
<!-- Generator: Adobe Illustrator 19.0.0, SVG Export Plug-In . SVG Version: 6.00 Build 0)  -->
<svg version="1.1" id="Layer_1" xmlns="http://www.w3.org/2000/svg" xmlns:xlink="http://www.w3.org/1999/xlink" x="0px" y="0px"
	 viewBox="0 0 491.5 491.5" style="enable-background:new 0 0 491.5 491.5;" xml:space="preserve">
<ellipse style="fill:#E56353;" cx="245.76" cy="289.774" rx="174.336" ry="102.707"/>
<path style="fill:#F6C358;" d="M427.392,402.452H245.76V94.456c0,0,14.005,87.609,65.338,151.954
	c29.694,37.221,89.246,37.368,119.454,0.508c18.297-22.327,29.411-51.504,35.936-85.54"/>
<g>
	<path style="fill:#FCD462;" d="M64.128,402.452H245.76V94.456c0,0-14.005,87.609-65.338,151.954
		c-29.694,37.221-89.246,37.368-119.455,0.508c-18.297-22.327-29.41-51.504-35.935-85.54"/>
	<rect x="52.306" y="402.465" style="fill:#FCD462;" width="386.918" height="23.316"/>
</g>
<g>
	<circle style="fill:#E56353;" cx="245.76" cy="94.728" r="29.01"/>
	<circle style="fill:#E56353;" cx="462.49" cy="176.755" r="29.01"/>
	<circle style="fill:#E56353;" cx="29.01" cy="176.755" r="29.01"/>
</g>
<ellipse style="fill:#44C4A1;" cx="245.76" cy="307.489" rx="39.68" ry="59.023"/>
<g>
</g>
<g>
</g>
<g>
</g>
<g>
</g>
<g>
</g>
<g>
</g>
<g>
</g>
<g>
</g>
<g>
</g>
<g>
</g>
<g>
</g>
<g>
</g>
<g>
</g>
<g>
</g>
<g>
</g>
</svg>
