<?xml version="1.0" encoding="iso-8859-1"?>
<!-- Generator: Adobe Illustrator 19.0.0, SVG Export Plug-In . SVG Version: 6.00 Build 0)  -->
<svg version="1.1" id="Layer_1" xmlns="http://www.w3.org/2000/svg" xmlns:xlink="http://www.w3.org/1999/xlink" x="0px" y="0px"
	 viewBox="0 0 491.52 491.52" style="enable-background:new 0 0 491.52 491.52;" xml:space="preserve">
<circle style="fill:#EBF0F3;" cx="245.76" cy="245.76" r="230.077"/>
<path style="fill:#64798A;" d="M245.76,0C110.248,0,0,110.249,0,245.76s110.248,245.76,245.76,245.76
	c135.511,0,245.76-110.249,245.76-245.76S381.271,0,245.76,0z M17.465,254.383h105.786c0.61,37.178,5.15,72.002,12.842,102.931
	h-89.66C29.204,326.652,18.857,291.652,17.465,254.383z M254.383,116.96V18.114c31.818,5.904,60.135,44.016,77.786,98.846H254.383z
	 M337.212,134.206c8.182,30.838,13.145,65.912,13.815,102.931h-96.644V134.206H337.212z M237.137,18.114v98.846h-77.783
	C177.004,62.13,205.319,24.017,237.137,18.114z M237.137,134.206v102.931h-96.641c0.671-37.019,5.634-72.093,13.815-102.931H237.137
	z M123.251,237.137H17.465c1.392-37.269,11.739-72.27,28.967-102.931h89.66C128.401,165.135,123.861,199.959,123.251,237.137z
	 M140.496,254.383h96.641v102.931h-82.826C146.13,326.475,141.167,291.402,140.496,254.383z M237.137,374.56v98.846
	c-31.818-5.904-60.133-44.016-77.783-98.846H237.137z M254.383,473.406V374.56h77.786
	C314.518,429.39,286.201,467.502,254.383,473.406z M254.383,357.313V254.383h96.644c-0.67,37.019-5.634,72.093-13.815,102.931
	H254.383z M368.273,254.383h105.781c-1.392,37.269-11.74,72.27-28.967,102.931h-89.657
	C363.122,326.385,367.662,291.561,368.273,254.383z M368.273,237.137c-0.611-37.178-5.151-72.002-12.843-102.931h89.657
	c17.227,30.661,27.575,65.662,28.967,102.931H368.273z M434.395,116.96h-83.666c-12.218-40.519-30.136-73.018-51.689-93.378
	C354.902,36.98,402.851,70.908,434.395,116.96z M192.482,23.582c-21.553,20.361-39.47,52.859-51.687,93.378H57.125
	C88.668,70.908,136.618,36.98,192.482,23.582z M57.125,374.56h83.669c12.217,40.519,30.135,73.017,51.687,93.378
	C136.618,454.54,88.668,420.612,57.125,374.56z M299.04,467.938c21.554-20.36,39.471-52.859,51.689-93.378h83.666
	C402.851,420.611,354.902,454.54,299.04,467.938z"/>
<g>
</g>
<g>
</g>
<g>
</g>
<g>
</g>
<g>
</g>
<g>
</g>
<g>
</g>
<g>
</g>
<g>
</g>
<g>
</g>
<g>
</g>
<g>
</g>
<g>
</g>
<g>
</g>
<g>
</g>
</svg>
