<?xml version="1.0" encoding="iso-8859-1"?>
<!-- Generator: Adobe Illustrator 19.0.0, SVG Export Plug-In . SVG Version: 6.00 Build 0)  -->
<svg version="1.1" id="Layer_1" xmlns="http://www.w3.org/2000/svg" xmlns:xlink="http://www.w3.org/1999/xlink" x="0px" y="0px"
	 viewBox="0 0 491.516 491.516" style="enable-background:new 0 0 491.516 491.516;" xml:space="preserve">
<path style="fill:#EBF0F3;" d="M245.758,90.936c-85.507,0-154.822,69.316-154.822,154.822s69.315,154.822,154.822,154.822
	c85.506,0,154.821-69.316,154.821-154.822S331.264,90.936,245.758,90.936z"/>
<g>
	<path style="fill:#F6C358;" d="M245.67,312.226l0.088,0.059l0,0v-0.08l0.04,0.054l0.047-0.032h0.001l0.015-0.021v0.011
		l33.469-22.365l0.003,0.001v-16.844c-2.532,1.744-4.962,3.632-7.242,5.694c-14.687,13.275-29.09,11.002-29.09,11.002
		c-8.786,0.231-21.3-8.77-26.636-12.961c-1.357-1.066-2.752-2.086-4.182-3.052v16.161l0.003-0.001L245.67,312.226z"/>
	<polygon style="fill:#F6C358;" points="245.757,312.288 245.758,312.29 245.758,312.287 245.758,312.286 234.929,327.035 
		234.93,327.035 	"/>
</g>
<path style="fill:#64798A;" d="M210.181,166.552h20.834c1.899,0,3.786-0.288,5.594-0.867c3.774-1.211,9.773-3.442,14.317-5.167
	c4.051-1.54,8.513-1.594,12.602-0.159l21.93,7.699c14.754,5.419,16.259,19.27,16.259,19.27v39.143c0,0,1.936-13.066,8.627-23.797
	c1.625-2.607,2.514-5.603,2.514-8.675v-33.77c0,0-2.107-16.561-18.367-20.476c0,0,6.624-14.103-10.539-17.44H220.72l0,0
	c-23.116,0-41.854,18.738-41.854,41.854v24.811c0,5.376,1.8,10.608,5.166,14.799c2.649,3.299,5.4,8.484,5.824,15.987v-32.888
	C193.922,168.66,210.181,166.552,210.181,166.552z"/>
<path style="fill:#FCD462;" d="M243.001,289.703c0,0,14.403,2.273,29.09-11.002c2.281-2.062,4.711-3.95,7.242-5.694
	c0.249-0.172,0.494-0.35,0.745-0.519c6.502-4.368,18.993-16.477,21.638-46.018v-39.143c0,0-1.506-13.851-16.259-19.27l-21.93-7.699
	c-4.089-1.435-8.551-1.381-12.602,0.159c-4.543,1.726-10.543,3.956-14.317,5.167c-1.809,0.579-3.695,0.867-5.594,0.867h-20.834
	c0,0-16.259,2.108-20.325,20.325v32.888v7.61c0,0,0.708,31.991,21.889,46.011c0.148,0.098,0.29,0.206,0.438,0.305
	c1.431,0.966,2.825,1.986,4.182,3.052C221.702,280.934,234.216,289.934,243.001,289.703z"/>
<g>
	<polygon style="fill:#D5D6DB;" points="257.222,327.903 251.397,336.268 256.777,370.175 270.259,345.659 	"/>
	<polygon style="fill:#D5D6DB;" points="234.82,370.325 240.223,336.268 234.347,327.829 221.255,345.659 	"/>
	<polygon style="fill:#D5D6DB;" points="234.93,327.035 234.472,327.658 245.758,312.345 245.758,312.29 245.757,312.288 	"/>
</g>
<g>
	<polygon style="fill:#E56353;" points="256.777,370.175 251.397,336.268 257.222,327.903 257.223,327.902 245.758,312.287 
		245.758,312.29 245.758,312.345 234.472,327.658 234.348,327.827 234.346,327.829 234.347,327.829 240.223,336.268 234.82,370.325 
		234.82,370.325 245.758,390.212 256.777,370.178 	"/>
	<polygon style="fill:#E56353;" points="245.825,390.334 246.87,389.289 245.792,390.275 	"/>
	<polygon style="fill:#E56353;" points="245.723,390.275 244.646,389.289 245.691,390.334 	"/>
	<polygon style="fill:#E56353;" points="245.708,390.352 245.758,390.401 245.807,390.352 245.758,390.307 245.758,390.306 
		245.757,390.307 	"/>
	<polygon style="fill:#E56353;" points="245.862,312.205 245.847,312.226 245.862,312.216 	"/>
	<polygon style="fill:#E56353;" points="245.758,312.205 245.758,312.285 245.798,312.259 	"/>
</g>
<g>
	<polygon style="fill:#E1E6E9;" points="245.862,312.216 245.847,312.226 245.846,312.226 245.798,312.259 245.758,312.285 
		245.758,312.285 245.758,312.285 245.758,312.286 245.758,312.287 257.223,327.902 270.263,345.66 297.396,296.327 
		279.333,289.852 279.331,289.851 	"/>
	<polygon style="fill:#E1E6E9;" points="234.346,327.829 234.348,327.827 234.929,327.035 245.758,312.286 245.758,312.285 
		245.758,312.285 245.67,312.226 212.186,289.851 212.183,289.852 194.119,296.327 221.254,345.66 	"/>
</g>
<g>
	<path style="fill:#3A556A;" d="M340.73,375.458c16.667-8.472,22.873-27.223,31.334-43.018c-3.026-6.81-8.678-12.24-15.872-14.842
		l-58.795-21.271l15.615,31.315l-19.529,0.3l6.624,12.646l-53.236,48.7l-1.045,1.045l0.037,0.068h37.15
		C302.21,385.869,323.358,384.288,340.73,375.458z"/>
	<polygon style="fill:#3A556A;" points="245.807,390.352 245.758,390.401 245.758,390.402 245.862,390.402 	"/>
</g>
<g>
	<polygon style="fill:#2F4859;" points="256.777,370.178 245.758,390.212 245.758,390.213 245.792,390.275 246.87,389.289 
		300.107,340.59 293.482,327.943 313.012,327.642 297.396,296.327 270.263,345.66 	"/>
	<polygon style="fill:#2F4859;" points="245.708,390.352 245.757,390.307 245.758,390.306 245.723,390.275 245.691,390.334 	"/>
</g>
<path style="fill:#3A556A;" d="M244.646,389.289l-53.237-48.7l6.625-12.646l-19.53-0.3l15.616-31.315l-58.794,21.271
	c-8.425,3.048-14.569,10.041-17.005,18.532c15.14,21.189,30.764,40.17,52.123,54.271h75.315L244.646,389.289z"/>
<polygon style="fill:#2F4859;" points="245.825,390.334 245.792,390.275 245.758,390.213 245.758,390.212 234.82,370.325 
	221.254,345.66 194.119,296.327 178.504,327.642 198.034,327.943 191.409,340.59 244.646,389.289 245.723,390.275 245.758,390.306 
	245.758,390.307 245.807,390.352 245.862,390.402 "/>
<g>
	<polygon style="fill:#2D93BA;" points="394.742,0 394.742,24.915 448.983,24.915 379.794,94.098 397.411,111.714 466.601,42.53 
		466.601,96.766 491.516,96.766 491.516,0 	"/>
	<polygon style="fill:#2D93BA;" points="96.774,0 96.774,24.915 42.533,24.915 111.722,94.098 94.106,111.714 24.915,42.53 
		24.915,96.766 0,96.766 0,0 	"/>
	<polygon style="fill:#2D93BA;" points="394.742,491.516 394.742,466.601 448.983,466.601 379.794,397.419 397.411,379.803 
		466.601,448.986 466.601,394.75 491.516,394.75 491.516,491.516 	"/>
	<polygon style="fill:#2D93BA;" points="96.774,491.516 96.774,466.601 42.533,466.601 111.722,397.419 94.106,379.803 
		24.915,448.986 24.915,394.75 0,394.75 0,491.516 	"/>
	<path style="fill:#2D93BA;" d="M245.759,413.987c-92.762,0-168.226-75.464-168.226-168.226S152.997,77.527,245.759,77.527
		S413.985,153,413.985,245.762S338.521,413.987,245.759,413.987z M245.759,104.337c-77.978,0-141.416,63.447-141.416,141.424
		s63.438,141.416,141.416,141.416s141.416-63.438,141.416-141.416S323.737,104.337,245.759,104.337z"/>
</g>
<g>
</g>
<g>
</g>
<g>
</g>
<g>
</g>
<g>
</g>
<g>
</g>
<g>
</g>
<g>
</g>
<g>
</g>
<g>
</g>
<g>
</g>
<g>
</g>
<g>
</g>
<g>
</g>
<g>
</g>
</svg>
