<?xml version="1.0" encoding="iso-8859-1"?>
<!-- Generator: Adobe Illustrator 19.0.0, SVG Export Plug-In . SVG Version: 6.00 Build 0)  -->
<svg version="1.1" id="Layer_1" xmlns="http://www.w3.org/2000/svg" xmlns:xlink="http://www.w3.org/1999/xlink" x="0px" y="0px"
	 viewBox="0 0 491.499 491.499" style="enable-background:new 0 0 491.499 491.499;" xml:space="preserve">
<path style="fill:#FCD462;" d="M442.95,0H48.55c-9.015,0-16.324,7.307-16.324,16.325v432.626c0,9.015,7.308,16.322,16.324,16.322
	h394.4c9.015,0,16.324-7.307,16.324-16.322V16.325C459.274,7.307,451.965,0,442.95,0z"/>
<g>
	<rect x="59.039" y="345.907" style="fill:#DC8744;" width="373.427" height="101.473"/>
	<rect x="59.039" y="35.748" style="fill:#DC8744;" width="373.427" height="101.473"/>
	<rect x="59.039" y="190.822" style="fill:#DC8744;" width="373.427" height="101.463"/>
	<rect x="65.951" y="465.254" style="fill:#DC8744;" width="68.618" height="26.245"/>
	<rect x="356.956" y="465.254" style="fill:#DC8744;" width="68.618" height="26.245"/>
</g>
<g>
	<rect x="59.039" y="336.988" style="fill:#F6C358;" width="373.427" height="101.473"/>
	<rect x="59.039" y="26.813" style="fill:#F6C358;" width="373.427" height="101.473"/>
	<rect x="59.039" y="181.903" style="fill:#F6C358;" width="373.427" height="101.463"/>
</g>
<g>
	<path style="fill:#EBF0F3;" d="M184.729,77.554c0,3.493,2.833,6.327,6.328,6.327h10.847V71.226h-10.847
		C187.562,71.226,184.729,74.059,184.729,77.554z"/>
	<path style="fill:#EBF0F3;" d="M300.443,71.226h-10.848v12.655h10.848c3.495,0,6.328-2.834,6.328-6.327
		C306.771,74.059,303.938,71.226,300.443,71.226z"/>
</g>
<path style="fill:#64798A;" d="M201.905,83.881c34.999,3.287,52.688,3.302,87.69,0c0-5.068,0-7.594,0-12.655
	c-35.002-3.306-52.691-3.309-87.69,0C201.905,76.287,201.905,78.813,201.905,83.881z"/>
<g>
	<path style="fill:#EBF0F3;" d="M184.729,232.642c0,3.493,2.833,6.327,6.328,6.327h10.847v-12.655h-10.847
		C187.562,226.314,184.729,229.147,184.729,232.642z"/>
	<path style="fill:#EBF0F3;" d="M300.443,226.314h-10.848v12.655h10.848c3.495,0,6.328-2.834,6.328-6.327
		C306.771,229.147,303.938,226.314,300.443,226.314z"/>
</g>
<path style="fill:#64798A;" d="M201.905,238.969c34.999,3.287,52.688,3.302,87.69,0c0-5.068,0-7.594,0-12.655
	c-35.002-3.306-52.691-3.309-87.69,0C201.905,231.375,201.905,233.901,201.905,238.969z"/>
<g>
	<path style="fill:#EBF0F3;" d="M184.729,387.73c0,3.493,2.833,6.328,6.328,6.328h10.847v-12.656h-10.847
		C187.562,381.402,184.729,384.235,184.729,387.73z"/>
	<path style="fill:#EBF0F3;" d="M300.443,381.402h-10.848v12.656h10.848c3.495,0,6.328-2.835,6.328-6.328
		C306.771,384.235,303.938,381.402,300.443,381.402z"/>
</g>
<path style="fill:#64798A;" d="M201.905,394.058c34.999,3.286,52.688,3.301,87.69,0c0-5.069,0-7.595,0-12.656
	c-35.002-3.306-52.691-3.309-87.69,0C201.905,386.462,201.905,388.989,201.905,394.058z"/>
<g>
</g>
<g>
</g>
<g>
</g>
<g>
</g>
<g>
</g>
<g>
</g>
<g>
</g>
<g>
</g>
<g>
</g>
<g>
</g>
<g>
</g>
<g>
</g>
<g>
</g>
<g>
</g>
<g>
</g>
</svg>
