<?xml version="1.0" encoding="iso-8859-1"?>
<!-- Generator: Adobe Illustrator 19.0.0, SVG Export Plug-In . SVG Version: 6.00 Build 0)  -->
<svg version="1.1" id="Layer_1" xmlns="http://www.w3.org/2000/svg" xmlns:xlink="http://www.w3.org/1999/xlink" x="0px" y="0px"
	 viewBox="0 0 491.52 491.52" style="enable-background:new 0 0 491.52 491.52;" xml:space="preserve">
<path style="fill:#64798A;" d="M491.52,222.997h-30.022c-10.6-101.63-91.345-182.376-192.975-192.976V0h-45.525v30.021
	C121.367,40.622,40.621,121.368,30.021,222.997H0v45.525h30.021c10.6,101.629,91.346,182.375,192.976,192.976v30.021h45.525v-30.021
	c101.63-10.6,182.375-91.346,192.975-192.976h30.022V222.997z M268.523,415.496v-33.413h-45.525v33.412
	C146.579,405.331,86.19,344.941,76.025,268.523h33.411v-45.525H76.025C86.19,146.579,146.579,86.188,222.997,76.024v33.413h45.525
	V76.023c76.419,10.166,136.81,70.556,146.975,146.974h-33.414v45.525h33.414C405.332,344.941,344.942,405.331,268.523,415.496z"/>
<circle style="fill:#E56353;" cx="245.76" cy="245.76" r="92.723"/>
<g>
</g>
<g>
</g>
<g>
</g>
<g>
</g>
<g>
</g>
<g>
</g>
<g>
</g>
<g>
</g>
<g>
</g>
<g>
</g>
<g>
</g>
<g>
</g>
<g>
</g>
<g>
</g>
<g>
</g>
</svg>
