<?xml version="1.0" encoding="iso-8859-1"?>
<!-- Generator: Adobe Illustrator 19.0.0, SVG Export Plug-In . SVG Version: 6.00 Build 0)  -->
<svg version="1.1" id="Layer_1" xmlns="http://www.w3.org/2000/svg" xmlns:xlink="http://www.w3.org/1999/xlink" x="0px" y="0px"
	 viewBox="0 0 516.72 516.72" style="enable-background:new 0 0 516.72 516.72;" xml:space="preserve">
<polygon style="fill:#D5D6DB;" points="0,148.233 258.36,504.12 121.996,148.233 "/>
<g>
	<polygon style="fill:#EBF0F3;" points="157.995,54.284 68.204,54.284 0,148.233 121.996,148.233 	"/>
	<polygon style="fill:#EBF0F3;" points="258.36,504.12 516.72,148.233 394.724,148.233 	"/>
</g>
<g>
	<polygon style="fill:#D5D6DB;" points="358.725,54.284 394.724,148.233 516.72,148.233 448.516,54.284 	"/>
	<polygon style="fill:#D5D6DB;" points="258.36,148.233 258.36,54.284 157.995,54.284 121.996,148.233 	"/>
</g>
<g>
	<polygon style="fill:#EBF0F3;" points="121.996,148.233 258.36,504.12 258.36,148.233 	"/>
	<polygon style="fill:#EBF0F3;" points="394.724,148.233 358.725,54.284 258.36,54.284 258.36,148.233 	"/>
</g>
<polygon style="fill:#D5D6DB;" points="258.36,148.233 258.36,504.12 394.724,148.233 "/>
<g>
	<path style="fill:#FFFFFF;" d="M121.996,106.548c0,23.022-18.663,41.685-41.684,41.685l0,0c23.022,0,41.684,18.662,41.684,41.684
		c0-23.023,18.663-41.684,41.685-41.684l0,0C140.66,148.233,121.996,129.57,121.996,106.548z"/>
	<path style="fill:#FFFFFF;" d="M448.516,12.6c0,23.021-18.663,41.684-41.685,41.684l0,0c23.022,0,41.685,18.663,41.685,41.685
		c0-23.023,18.662-41.685,41.685-41.685l0,0C467.178,54.284,448.516,35.621,448.516,12.6z"/>
</g>
<g>
</g>
<g>
</g>
<g>
</g>
<g>
</g>
<g>
</g>
<g>
</g>
<g>
</g>
<g>
</g>
<g>
</g>
<g>
</g>
<g>
</g>
<g>
</g>
<g>
</g>
<g>
</g>
<g>
</g>
</svg>
