<?xml version="1.0" encoding="iso-8859-1"?>
<!-- Generator: Adobe Illustrator 19.0.0, SVG Export Plug-In . SVG Version: 6.00 Build 0)  -->
<svg version="1.1" id="Layer_1" xmlns="http://www.w3.org/2000/svg" xmlns:xlink="http://www.w3.org/1999/xlink" x="0px" y="0px"
	 viewBox="0 0 491.52 491.52" style="enable-background:new 0 0 491.52 491.52;" xml:space="preserve">
<path style="fill:#EBF0F3;" d="M384.914,438.218L384.914,438.218v-0.002V199.445V0H0v438.216c0,29.439,23.864,53.304,53.303,53.304
	h384.914h-0.001C408.778,491.52,384.915,467.655,384.914,438.218z"/>
<path style="fill:#E1E6E9;" d="M384.914,199.445v238.771v0.002c0.001,29.438,23.865,53.302,53.302,53.302h0.001l0,0
	c29.438,0,53.303-23.865,53.303-53.304V199.445H384.914z"/>
<path style="fill:#D5D6DB;" d="M428.683,199.445V432.34c0,5.266,4.268,9.535,9.534,9.535c5.266,0,9.534-4.268,9.534-9.535V199.445
	H428.683z"/>
<rect x="33.935" y="32.379" style="fill:#FCD462;" width="318.72" height="88.98"/>
<g>
	<path style="fill:#E56353;" d="M40.152,162.333v-7.408H63.9v32.204c0,5.675-1.444,9.941-4.332,12.779
		c-2.888,2.837-6.587,4.257-11.107,4.257c-5.68,0-10.519-1.996-14.527-5.999l4.682-6.496c3.166,3.02,6.262,4.54,9.287,4.54
		c2.143,0,3.972-0.729,5.483-2.168c1.515-1.44,2.27-3.608,2.27-6.496v-25.212H40.152z"/>
	<path style="fill:#E56353;" d="M117.887,197.01c-4.935,4.813-11.035,7.225-18.301,7.225c-7.261,0-13.361-2.412-18.297-7.225
		c-4.935-4.824-7.402-10.822-7.402-18.017s2.467-13.204,7.402-18.018c4.936-4.823,11.036-7.235,18.297-7.235
		c7.266,0,13.366,2.412,18.301,7.235c4.936,4.814,7.403,10.823,7.403,18.018S122.823,192.186,117.887,197.01z M111.848,166.457
		c-3.334-3.445-7.417-5.168-12.261-5.168c-4.839,0-8.928,1.723-12.257,5.168c-3.329,3.445-4.991,7.62-4.991,12.536
		c0,4.914,1.662,9.09,4.991,12.535c3.329,3.446,7.417,5.168,12.257,5.168c4.844,0,8.927-1.722,12.261-5.168
		c3.329-3.445,4.991-7.62,4.991-12.535C116.839,174.078,115.177,169.902,111.848,166.457z"/>
	<path style="fill:#E56353;" d="M157.069,203.749h-21.372v-48.824h18.996c3.308,0,6.161,0.395,8.558,1.196
		c2.396,0.79,4.18,1.854,5.345,3.212c2.235,2.514,3.349,5.351,3.349,8.512c0,3.82-1.211,6.669-3.633,8.523
		c-0.882,0.659-1.49,1.063-1.814,1.226c-0.324,0.162-0.907,0.425-1.748,0.801c3.03,0.659,5.436,2.016,7.231,4.083
		c1.794,2.078,2.69,4.652,2.69,7.722c0,3.395-1.165,6.404-3.491,9.009C168.429,202.239,163.727,203.749,157.069,203.749z
		 M143.941,175.182h10.473c5.963,0,8.943-2.027,8.943-6.08c0-2.321-0.725-4.003-2.169-5.027c-1.444-1.023-3.678-1.53-6.703-1.53
		h-10.544V175.182z M143.941,196.139h12.92c3.025,0,5.341-0.476,6.947-1.439c1.607-0.953,2.412-2.757,2.412-5.412
		c0-4.326-3.471-6.495-10.407-6.495h-11.872V196.139z"/>
</g>
<g>
	<rect x="33.935" y="248.32" style="fill:#D5D6DB;" width="140.739" height="8.934"/>
	<rect x="211.917" y="248.32" style="fill:#D5D6DB;" width="140.739" height="8.934"/>
	<rect x="33.935" y="280.955" style="fill:#D5D6DB;" width="140.739" height="8.934"/>
	<rect x="211.917" y="280.955" style="fill:#D5D6DB;" width="140.739" height="8.934"/>
	<rect x="33.935" y="313.6" style="fill:#D5D6DB;" width="140.739" height="8.934"/>
	<rect x="211.917" y="313.6" style="fill:#D5D6DB;" width="140.739" height="8.934"/>
	<rect x="33.935" y="346.214" style="fill:#D5D6DB;" width="140.739" height="8.934"/>
	<rect x="211.917" y="346.214" style="fill:#D5D6DB;" width="140.739" height="8.934"/>
	<rect x="211.917" y="150.456" style="fill:#D5D6DB;" width="140.739" height="8.934"/>
	<rect x="211.917" y="183.081" style="fill:#D5D6DB;" width="140.739" height="8.934"/>
	<rect x="211.917" y="215.706" style="fill:#D5D6DB;" width="140.739" height="8.934"/>
	<rect x="33.935" y="378.824" style="fill:#D5D6DB;" width="140.739" height="8.934"/>
	<rect x="211.917" y="378.824" style="fill:#D5D6DB;" width="140.739" height="8.934"/>
	<rect x="33.935" y="411.443" style="fill:#D5D6DB;" width="140.739" height="8.934"/>
	<rect x="211.917" y="411.443" style="fill:#D5D6DB;" width="140.739" height="8.934"/>
	<rect x="33.935" y="444.058" style="fill:#D5D6DB;" width="140.739" height="8.934"/>
	<rect x="211.917" y="444.058" style="fill:#D5D6DB;" width="140.739" height="8.934"/>
</g>
<g>
	<path style="fill:#FFFFFF;" d="M107.343,46.84h10.274v60.852h-11.139L71.999,63.279v44.413H61.725V46.84h10.274l35.344,45.433
		V46.84z"/>
	<path style="fill:#FFFFFF;" d="M177.264,46.84v9.665h-32.481v16.099h29.165v9.155h-29.165v16.268h33.515v9.665h-43.79V46.84
		H177.264z"/>
	<path style="fill:#FFFFFF;" d="M210.439,90.63l13.59-43.79h9.225l13.59,43.79l15.319-43.79h11.054l-21.243,60.852h-10.19
		L228.989,66h-0.694l-12.796,41.693h-10.19L184.066,46.84h11.054L210.439,90.63z"/>
	<path style="fill:#FFFFFF;" d="M301.107,54.833c-2.99,0-5.442,0.623-7.355,1.842c-1.912,1.219-2.862,3.061-2.862,5.527
		c0,2.466,0.95,4.336,2.862,5.669c1.913,1.303,5.995,2.692,12.23,4.223c6.249,1.502,10.955,3.628,14.115,6.349
		c3.161,2.721,4.748,6.745,4.748,12.046c0,5.328-2.013,9.636-6.009,12.924c-4.011,3.316-9.268,4.988-15.758,4.988
		c-9.524,0-17.97-3.288-25.338-9.863l6.434-7.737c6.165,5.328,12.542,8.021,19.159,8.021c3.316,0,5.938-0.709,7.88-2.154
		c1.941-1.417,2.919-3.288,2.919-5.64c0-2.353-0.921-4.195-2.749-5.499c-1.828-1.304-4.974-2.494-9.438-3.571
		c-4.478-1.077-7.865-2.041-10.189-2.948c-2.324-0.906-4.379-2.069-6.179-3.543c-3.6-2.721-5.4-6.888-5.4-12.527
		s2.04-9.976,6.136-13.009c4.096-3.061,9.155-4.592,15.192-4.592c3.883,0,7.752,0.652,11.578,1.928
		c3.84,1.275,7.142,3.089,9.934,5.385l-5.484,7.766c-1.8-1.616-4.237-2.977-7.326-3.997
		C307.13,55.371,304.097,54.833,301.107,54.833z"/>
</g>
<g>
</g>
<g>
</g>
<g>
</g>
<g>
</g>
<g>
</g>
<g>
</g>
<g>
</g>
<g>
</g>
<g>
</g>
<g>
</g>
<g>
</g>
<g>
</g>
<g>
</g>
<g>
</g>
<g>
</g>
</svg>
