<?xml version="1.0" encoding="iso-8859-1"?>
<!-- Generator: Adobe Illustrator 19.0.0, SVG Export Plug-In . SVG Version: 6.00 Build 0)  -->
<svg version="1.1" id="Layer_1" xmlns="http://www.w3.org/2000/svg" xmlns:xlink="http://www.w3.org/1999/xlink" x="0px" y="0px"
	 viewBox="0 0 491.52 491.52" style="enable-background:new 0 0 491.52 491.52;" xml:space="preserve">
<rect style="fill:#64798A;" width="491.52" height="41.6"/>
<g>
	<rect x="235.279" y="360.806" style="fill:#3A556A;" width="20.966" height="92.119"/>
	<polygon style="fill:#3A556A;" points="108.904,491.52 130.704,491.52 168.885,360.819 147.086,360.819 	"/>
	<polygon style="fill:#3A556A;" points="360.816,491.52 382.616,491.52 344.434,360.819 322.635,360.819 	"/>
</g>
<g>
	<rect x="235.279" y="325.837" style="fill:#2F4859;" width="20.966" height="34.975"/>
	<polygon style="fill:#2F4859;" points="157.242,326.056 147.086,360.819 168.885,360.819 177.404,331.661 	"/>
	<polygon style="fill:#2F4859;" points="314.116,331.661 322.635,360.819 344.434,360.819 334.278,326.056 	"/>
</g>
<rect y="304.845" style="fill:#64798A;" width="491.52" height="41.6"/>
<rect x="27.366" y="41.6" style="fill:#EBF0F3;" width="436.787" height="263.219"/>
<rect x="27.366" y="41.6" style="fill:#E1E6E9;" width="436.787" height="14.546"/>
<rect x="83.282" y="255.145" style="fill:#F6C358;" width="49.792" height="15.56"/>
<rect x="83.282" y="130.652" style="fill:#FCD462;" width="49.792" height="124.493"/>
<rect x="175.002" y="255.145" style="fill:#3EA69B;" width="49.792" height="15.56"/>
<rect x="175.002" y="75.73" style="fill:#44C4A1;" width="49.792" height="179.405"/>
<rect x="266.701" y="255.145" style="fill:#D15241;" width="49.792" height="15.56"/>
<rect x="266.701" y="158.116" style="fill:#E56353;" width="49.792" height="97.029"/>
<rect x="358.451" y="255.145" style="fill:#2D93BA;" width="49.792" height="15.56"/>
<rect x="358.451" y="110.515" style="fill:#27A2DB;" width="49.792" height="144.64"/>
<g>
</g>
<g>
</g>
<g>
</g>
<g>
</g>
<g>
</g>
<g>
</g>
<g>
</g>
<g>
</g>
<g>
</g>
<g>
</g>
<g>
</g>
<g>
</g>
<g>
</g>
<g>
</g>
<g>
</g>
</svg>
