<?xml version="1.0" encoding="iso-8859-1"?>
<!-- Generator: Adobe Illustrator 19.0.0, SVG Export Plug-In . SVG Version: 6.00 Build 0)  -->
<svg version="1.1" id="Layer_1" xmlns="http://www.w3.org/2000/svg" xmlns:xlink="http://www.w3.org/1999/xlink" x="0px" y="0px"
	 viewBox="0 0 491.52 491.52" style="enable-background:new 0 0 491.52 491.52;" xml:space="preserve">
<path style="fill:#E56353;" d="M491.52,75.836c0.029-14.073-11.521-25.505-25.798-25.533L26.703,49.4
	C12.426,49.371,0.83,60.756,0.801,74.829L0.635,155.62l490.719,1.007L491.52,75.836z"/>
<path style="fill:#EBF0F3;" d="M0.635,155.62L0,465.075c-0.029,14.072,11.52,25.504,25.798,25.533l439.018,0.902
	c14.277,0.029,25.873-11.356,25.903-25.428l0.635-309.455L0.635,155.62z"/>
<g>
	<ellipse style="fill:#D15241;" cx="84.982" cy="84.787" rx="23.265" ry="23.265"/>
	<ellipse style="fill:#D15241;" cx="407.297" cy="85.444" rx="23.265" ry="23.265"/>
</g>
<path style="fill:#E1E6E9;" d="M85.159,0.01l-0.203,99.02c8.999,0.019,16.312-7.158,16.329-16.03l0.137-66.892
	C101.44,7.235,94.158,0.028,85.159,0.01z"/>
<g>
	<path style="fill:#EBF0F3;" d="M68.827,16.04L68.69,82.933c-0.018,8.872,7.263,16.08,16.265,16.097l0.203-99.02
		C76.156-0.009,68.846,7.168,68.827,16.04z"/>
	<path style="fill:#EBF0F3;" d="M391.14,16.702l-0.137,66.892c-0.018,8.872,7.263,16.079,16.265,16.097l0.203-99.021
		C398.469,0.653,391.159,7.83,391.14,16.702z"/>
</g>
<path style="fill:#E1E6E9;" d="M407.471,0.671l-0.203,99.021c8.999,0.019,16.312-7.158,16.329-16.03l0.137-66.892
	C423.753,7.897,416.47,0.69,407.471,0.671z"/>
<g>
	<path style="fill:#64798A;" d="M190.332,304.842c5.194-7.043,7.778-14.217,7.793-21.461c0.015-7.243-2.731-13.397-8.237-18.504
		c-5.507-5.106-12.492-7.669-20.936-7.686c-14.845-0.03-27.178,7.546-37.042,22.707l-24.565-14.284
		c7.962-11.88,16.741-20.832,26.334-26.856c9.572-6.023,21.916-9.01,37.014-8.978s28.311,4.838,39.682,14.441
		c11.372,9.583,17.031,22.671,16.997,39.221c-0.019,9.328-2.459,18.208-7.297,26.643c-4.84,8.455-13.748,19.301-26.725,32.541
		l-42.518,43.12l82.014,0.168l-0.06,29.247l-123.663-0.253l0.054-25.878l54.964-54.992
		C176.4,321.638,185.138,311.908,190.332,304.842z"/>
	<path style="fill:#64798A;" d="M372.613,234.321l-0.056,27.688l-76.329-0.157l-0.091,44.514c7.588-4.134,16.226-6.179,25.891-6.158
		c16.908,0.034,31.469,5.16,43.681,15.355c12.233,10.194,18.332,24.02,18.297,41.434c-0.036,17.413-6.445,31.846-19.229,43.295
		c-12.805,11.45-28.504,17.145-47.139,17.107c-24.319-0.05-43.695-8.197-58.17-24.44l16.364-22.223
		c1.366,1.393,3.215,3.039,5.549,4.938c2.313,1.9,7.108,4.458,14.344,7.652c7.238,3.216,15.151,4.832,23.784,4.85
		c8.633,0.018,16.471-2.556,23.557-7.721c7.085-5.166,10.638-12.696,10.658-22.613c0.021-9.918-3.712-17.611-11.196-23.059
		c-7.505-5.448-16.975-8.183-28.451-8.208c-11.476-0.023-22.388,2.797-32.74,8.482l-12.92-14.008l0.178-86.941L372.613,234.321z"/>
</g>
<g>
</g>
<g>
</g>
<g>
</g>
<g>
</g>
<g>
</g>
<g>
</g>
<g>
</g>
<g>
</g>
<g>
</g>
<g>
</g>
<g>
</g>
<g>
</g>
<g>
</g>
<g>
</g>
<g>
</g>
</svg>
