<?xml version="1.0" encoding="iso-8859-1"?>
<!-- Generator: Adobe Illustrator 19.0.0, SVG Export Plug-In . SVG Version: 6.00 Build 0)  -->
<svg version="1.1" id="Layer_1" xmlns="http://www.w3.org/2000/svg" xmlns:xlink="http://www.w3.org/1999/xlink" x="0px" y="0px"
	 viewBox="0 0 491.52 491.52" style="enable-background:new 0 0 491.52 491.52;" xml:space="preserve">
<path style="fill:#DC8744;" d="M282.575,396.416H36.876C16.51,396.416,0,412.926,0,433.292v58.228h319.451v-58.228
	C319.451,412.926,302.942,396.416,282.575,396.416z"/>
<path style="fill:#F6C358;" d="M282.575,387.479H36.876C16.51,387.479,0,403.989,0,424.355v58.228h319.451v-58.228
	C319.451,403.989,302.942,387.479,282.575,387.479z"/>
<rect x="130.107" y="53.151" transform="matrix(-0.7071 -0.7071 0.7071 -0.7071 239.8455 373.2773)" style="fill:#EBF0F3;" width="134.246" height="167.628"/>
<g>
	<path style="fill:#D5D6DB;" d="M158.932,268.609l-93.358-93.357c-7.097-7.097-7.097-18.603,0-25.699l0,0
		c7.097-7.097,18.603-7.097,25.699,0l93.357,93.357c7.098,7.097,7.098,18.603,0,25.699l0,0
		C177.534,275.706,166.029,275.706,158.932,268.609z"/>
	<path style="fill:#D5D6DB;" d="M303.163,124.378l-93.357-93.357c-7.097-7.097-7.097-18.603,0-25.699l0,0
		c7.097-7.097,18.603-7.097,25.699,0l93.357,93.357c7.097,7.097,7.097,18.603,0,25.699l0,0
		C321.766,131.475,310.26,131.475,303.163,124.378z"/>
	<path style="fill:#D5D6DB;" d="M484.894,392.647L260.681,168.434l-31.993,31.993l224.214,224.214
		c8.835,8.835,23.159,8.835,31.993,0l0,0C493.728,415.806,493.728,401.482,484.894,392.647z"/>
</g>
<g>
</g>
<g>
</g>
<g>
</g>
<g>
</g>
<g>
</g>
<g>
</g>
<g>
</g>
<g>
</g>
<g>
</g>
<g>
</g>
<g>
</g>
<g>
</g>
<g>
</g>
<g>
</g>
<g>
</g>
</svg>
