<?xml version="1.0" encoding="iso-8859-1"?>
<!-- Generator: Adobe Illustrator 19.0.0, SVG Export Plug-In . SVG Version: 6.00 Build 0)  -->
<svg version="1.1" id="Layer_1" xmlns="http://www.w3.org/2000/svg" xmlns:xlink="http://www.w3.org/1999/xlink" x="0px" y="0px"
	 viewBox="0 0 491.5 491.5" style="enable-background:new 0 0 491.5 491.5;" xml:space="preserve">
<rect x="55.978" y="27.651" transform="matrix(-1 0.0039 -0.0039 -1 492.5192 517.4346)" style="fill:#EBF0F3;" width="379.545" height="463.103"/>
<g>
	<ellipse style="fill:#E1E6E9;" cx="69.894" cy="52.302" rx="6.81" ry="6.81"/>
	<ellipse style="fill:#E1E6E9;" cx="98.094" cy="52.186" rx="6.81" ry="6.81"/>
	<ellipse style="fill:#E1E6E9;" cx="126.32" cy="52.08" rx="6.81" ry="6.81"/>
	<ellipse style="fill:#E1E6E9;" cx="154.515" cy="51.968" rx="6.81" ry="6.81"/>
	<ellipse style="fill:#E1E6E9;" cx="182.751" cy="51.867" rx="6.81" ry="6.81"/>
	<ellipse style="fill:#E1E6E9;" cx="210.941" cy="51.762" rx="6.81" ry="6.81"/>
	<ellipse style="fill:#E1E6E9;" cx="239.177" cy="51.609" rx="6.81" ry="6.81"/>
	<ellipse style="fill:#E1E6E9;" cx="267.413" cy="51.508" rx="6.81" ry="6.81"/>
	<ellipse style="fill:#E1E6E9;" cx="295.603" cy="51.402" rx="6.81" ry="6.81"/>
	<ellipse style="fill:#E1E6E9;" cx="323.834" cy="51.301" rx="6.81" ry="6.81"/>
	<ellipse style="fill:#E1E6E9;" cx="352.045" cy="51.19" rx="6.81" ry="6.81"/>
	<ellipse style="fill:#E1E6E9;" cx="380.255" cy="51.074" rx="6.81" ry="6.81"/>
	<ellipse style="fill:#E1E6E9;" cx="408.471" cy="50.963" rx="6.81" ry="6.81"/>
</g>
<g>
	<path style="fill:#64798A;" d="M76.752,1.337c-7.247,0.029-12.665,11.652-12.604,27.039c0.027,6.918,1.198,12.985,3.092,17.655
		c2.137,5.273,5.226,8.624,8.826,9.107c0.403-0.874,0.643-1.837,0.638-2.863c-0.001-0.24-0.048-0.468-0.073-0.702
		c-1.963-0.206-3.993-2.349-5.619-5.969c-1.855-4.128-3.179-10.098-3.206-17.242C67.75,14.612,72.483,5.011,76.766,4.994
		c4.283-0.017,9.092,9.547,9.147,23.296l3.657-0.014C89.509,12.889,83.999,1.308,76.752,1.337z"/>
	<path style="fill:#64798A;" d="M104.998,1.225c-7.248,0.029-12.666,11.652-12.605,27.039c0.028,6.914,1.198,12.978,3.089,17.646
		c2.131,5.264,5.211,8.613,8.801,9.11c0.4-0.873,0.638-1.835,0.635-2.858c-0.001-0.243-0.049-0.474-0.075-0.71
		c-1.951-0.228-3.967-2.36-5.585-5.957c-1.855-4.127-3.18-10.098-3.208-17.245c-0.054-13.749,4.679-23.351,8.963-23.368
		c4.283-0.017,9.092,9.547,9.146,23.296l3.657-0.014C117.756,12.777,112.245,1.197,104.998,1.225z"/>
	<path style="fill:#64798A;" d="M133.245,1.114c-7.248,0.029-12.666,11.653-12.605,27.04c0.028,6.909,1.197,12.97,3.085,17.638
		c2.126,5.254,5.197,8.602,8.776,9.113c0.399-0.87,0.635-1.831,0.632-2.852c-0.001-0.247-0.049-0.481-0.076-0.72
		c-1.94-0.248-3.942-2.37-5.55-5.945c-1.856-4.127-3.181-10.1-3.21-17.248c-0.054-13.75,4.679-23.352,8.963-23.368
		c4.282-0.017,9.091,9.547,9.146,23.296l3.657-0.015C146.001,12.665,140.492,1.085,133.245,1.114z"/>
	<path style="fill:#64798A;" d="M161.49,1.003c-7.247,0.029-12.665,11.652-12.604,27.039c0.027,6.905,1.195,12.962,3.081,17.629
		c2.121,5.245,5.182,8.591,8.75,9.116c0.398-0.87,0.633-1.828,0.628-2.846c-0.001-0.249-0.049-0.486-0.076-0.728
		c-1.929-0.268-3.917-2.381-5.515-5.933c-1.858-4.127-3.184-10.101-3.212-17.251c-0.055-13.749,4.679-23.351,8.962-23.368
		c4.283-0.017,9.092,9.547,9.147,23.296l3.657-0.014C174.247,12.554,168.738,0.974,161.49,1.003z"/>
	<path style="fill:#64798A;" d="M189.736,0.891c-7.247,0.029-12.665,11.652-12.604,27.039c0.027,6.902,1.193,12.955,3.078,17.621
		c2.114,5.235,5.166,8.578,8.724,9.118c0.396-0.867,0.63-1.823,0.626-2.839c-0.001-0.253-0.049-0.492-0.077-0.738
		c-1.919-0.287-3.891-2.391-5.481-5.921c-1.858-4.127-3.185-10.102-3.213-17.255c-0.055-13.749,4.678-23.351,8.962-23.368
		c4.283-0.017,9.092,9.547,9.147,23.296l3.657-0.014C202.494,12.443,196.983,0.862,189.736,0.891z"/>
	<path style="fill:#64798A;" d="M217.983,0.78c-7.248,0.029-12.666,11.652-12.605,27.039c0.028,6.896,1.193,12.946,3.075,17.611
		c2.109,5.226,5.151,8.568,8.699,9.123c0.394-0.867,0.626-1.82,0.622-2.835c-0.001-0.256-0.05-0.498-0.079-0.746
		c-1.908-0.307-3.865-2.401-5.445-5.909c-1.859-4.128-3.187-10.103-3.215-17.258c-0.054-13.75,4.679-23.352,8.963-23.368
		c4.283-0.017,9.092,9.547,9.146,23.296l3.657-0.014C230.74,12.332,225.23,0.752,217.983,0.78z"/>
	<path style="fill:#64798A;" d="M246.229,0.669c-7.248,0.029-12.666,11.652-12.605,27.039c0.027,6.893,1.191,12.939,3.072,17.603
		c2.103,5.216,5.136,8.555,8.673,9.124c0.392-0.864,0.623-1.816,0.619-2.828c-0.001-0.259-0.05-0.505-0.08-0.756
		c-1.897-0.325-3.84-2.411-5.41-5.896c-1.861-4.128-3.189-10.105-3.217-17.262c-0.055-13.749,4.679-23.351,8.963-23.368
		c4.282-0.017,9.091,9.547,9.146,23.296l3.657-0.014C258.985,12.22,253.476,0.64,246.229,0.669z"/>
	<path style="fill:#64798A;" d="M274.474,0.557c-7.247,0.029-12.665,11.652-12.604,27.039c0.027,6.888,1.189,12.931,3.068,17.594
		c2.097,5.207,5.12,8.545,8.647,9.129c0.391-0.863,0.62-1.814,0.617-2.823c-0.002-0.262-0.051-0.51-0.08-0.764
		c-1.886-0.345-3.814-2.421-5.375-5.882c-1.862-4.128-3.191-10.107-3.219-17.268c-0.055-13.749,4.679-23.351,8.962-23.368
		c4.283-0.017,9.092,9.547,9.147,23.296l3.657-0.014C287.232,12.108,281.722,0.528,274.474,0.557z"/>
	<path style="fill:#64798A;" d="M302.721,0.446c-7.247,0.029-12.665,11.652-12.604,27.039c0.027,6.884,1.188,12.923,3.064,17.585
		c2.091,5.197,5.106,8.534,8.622,9.131c0.389-0.861,0.617-1.81,0.612-2.816c-0.001-0.265-0.05-0.517-0.08-0.774
		c-1.873-0.363-3.786-2.428-5.336-5.862c-1.864-4.128-3.198-10.111-3.225-17.278c-0.055-13.749,4.678-23.351,8.962-23.368
		c4.283-0.017,9.092,9.547,9.147,23.296l3.657-0.014C315.478,11.998,309.968,0.417,302.721,0.446z"/>
	<path style="fill:#64798A;" d="M330.967,0.334c-7.248,0.029-12.666,11.652-12.605,27.039c0.028,6.879,1.187,12.915,3.061,17.576
		c2.087,5.188,5.091,8.523,8.597,9.134c0.387-0.86,0.614-1.806,0.609-2.811c-0.001-0.268-0.051-0.522-0.082-0.782
		c-1.86-0.381-3.756-2.435-5.297-5.841c-1.867-4.129-3.203-10.115-3.232-17.291c-0.054-13.749,4.679-23.351,8.963-23.368
		c4.283-0.017,9.092,9.547,9.146,23.296l3.657-0.014C343.724,11.886,338.214,0.306,330.967,0.334z"/>
	<path style="fill:#64798A;" d="M359.213,0.223c-7.248,0.029-12.666,11.653-12.605,27.04c0.027,6.875,1.186,12.907,3.057,17.566
		c2.08,5.179,5.075,8.513,8.571,9.138c0.385-0.858,0.61-1.803,0.607-2.804c-0.001-0.272-0.051-0.529-0.083-0.792
		c-1.847-0.399-3.727-2.442-5.257-5.82c-1.871-4.13-3.209-10.12-3.238-17.303c-0.055-13.749,4.679-23.351,8.963-23.368
		c4.283-0.017,9.091,9.547,9.146,23.296l3.657-0.014C371.97,11.774,366.46,0.194,359.213,0.223z"/>
	<path style="fill:#64798A;" d="M387.459,0.112c-7.247,0.029-12.665,11.652-12.604,27.039c0.027,6.871,1.184,12.9,3.054,17.558
		c2.075,5.169,5.061,8.502,8.546,9.14c0.383-0.856,0.607-1.799,0.603-2.799c-0.002-0.274-0.052-0.534-0.084-0.8
		c-1.835-0.416-3.699-2.45-5.219-5.8c-1.873-4.129-3.215-10.124-3.243-17.314c-0.055-13.749,4.679-23.351,8.962-23.368
		c4.283-0.017,9.092,9.547,9.147,23.296l3.657-0.014C400.216,11.663,394.707,0.083,387.459,0.112z"/>
	<path style="fill:#64798A;" d="M415.705,0c-7.245,0.029-12.663,11.652-12.603,27.039c0.028,6.866,1.183,12.892,3.05,17.548
		c2.069,5.161,5.045,8.492,8.518,9.145c0.382-0.855,0.604-1.795,0.6-2.793c-0.001-0.277-0.052-0.542-0.085-0.81
		c-1.82-0.433-3.668-2.456-5.177-5.778c-1.877-4.13-3.221-10.13-3.249-17.327c-0.054-13.749,4.679-23.351,8.96-23.368
		c4.283-0.017,9.092,9.547,9.147,23.296l3.657-0.014C428.462,11.552,422.953-0.029,415.705,0z"/>
</g>
<g>
	
		<rect x="55.332" y="94.696" transform="matrix(-1 0.0039 -0.0039 -1 490.5819 189.6439)" style="fill:#D5D6DB;" width="379.545" height="1.219"/>
	
		<rect x="55.445" y="123.546" transform="matrix(-1 0.0039 -0.0039 -1 490.9229 247.3442)" style="fill:#D5D6DB;" width="379.545" height="1.219"/>
	
		<rect x="55.559" y="152.356" transform="matrix(-1 0.0039 -0.0039 -1 491.2635 304.9625)" style="fill:#D5D6DB;" width="379.545" height="1.219"/>
	
		<rect x="55.673" y="181.196" transform="matrix(-1 0.0039 -0.0039 -1 491.6044 362.6422)" style="fill:#D5D6DB;" width="379.545" height="1.219"/>
	
		<rect x="55.786" y="210.021" transform="matrix(-1 0.0039 -0.0039 -1 491.9451 420.2913)" style="fill:#D5D6DB;" width="379.545" height="1.219"/>
	
		<rect x="55.9" y="238.846" transform="matrix(-1 0.0039 -0.0039 -1 492.2858 477.9404)" style="fill:#D5D6DB;" width="379.545" height="1.219"/>
	
		<rect x="56.013" y="267.676" transform="matrix(-1 0.0039 -0.0039 -1 492.6265 535.5997)" style="fill:#D5D6DB;" width="379.545" height="1.219"/>
	
		<rect x="56.127" y="296.506" transform="matrix(-1 0.0039 -0.0039 -1 492.9673 593.259)" style="fill:#D5D6DB;" width="379.545" height="1.219"/>
	
		<rect x="56.24" y="325.326" transform="matrix(-1 0.0039 -0.0039 -1 493.308 650.8978)" style="fill:#D5D6DB;" width="379.545" height="1.219"/>
	
		<rect x="56.364" y="354.15" transform="matrix(-1 0.0039 -0.0039 -1 493.6692 708.5467)" style="fill:#D5D6DB;" width="379.545" height="1.219"/>
	
		<rect x="56.468" y="382.975" transform="matrix(-1 0.0039 -0.0039 -1 493.9894 766.1959)" style="fill:#D5D6DB;" width="379.545" height="1.219"/>
	
		<rect x="56.571" y="411.851" transform="matrix(-1 0.0039 -0.0039 -1 494.3102 823.9475)" style="fill:#D5D6DB;" width="379.545" height="1.219"/>
	
		<rect x="56.674" y="440.676" transform="matrix(-1 0.0039 -0.0039 -1 494.6305 881.5967)" style="fill:#D5D6DB;" width="379.545" height="1.219"/>
	
		<rect x="56.824" y="469.506" transform="matrix(-1 0.0039 -0.0039 -1 495.0428 939.2555)" style="fill:#D5D6DB;" width="379.545" height="1.219"/>
</g>
<path style="fill:#EFCAAB;" d="M233.245,240.972l-6.551-6.499c-0.555-0.551-1.206-0.995-1.922-1.31l-27.86-12.257
	c-0.499,1.789-1.398,3.49-2.798,4.902c-1.401,1.412-3.095,2.324-4.879,2.837l12.477,27.763c0.32,0.713,0.769,1.361,1.324,1.912
	l6.551,6.499L233.245,240.972z"/>
<path style="fill:#E56353;" d="M383.133,437.002c1.376,1.366,3.598,1.357,4.963-0.019l18.716-18.865
	c1.365-1.376,1.357-3.598-0.019-4.963l-18.052-17.91l-23.659,23.847L383.133,437.002z"/>
<path style="fill:#F6C358;" d="M218.805,234.532L218.805,234.532c2.178-2.195,5.722-2.209,7.918-0.031l162.018,160.746l-7.886,7.949
	L218.836,242.449C216.641,240.272,216.627,236.727,218.805,234.532z"/>
<path style="fill:#FCD462;" d="M210.918,242.48L210.918,242.48c2.178-2.195,5.723-2.208,7.918-0.031l162.019,160.747l-7.887,7.948
	L210.95,250.398C208.755,248.22,208.74,244.676,210.918,242.48z"/>
<path style="fill:#F6C358;" d="M203.032,250.429L203.032,250.429c2.178-2.195,5.723-2.209,7.918-0.031l162.019,160.746l-7.887,7.949
	L203.063,258.347C200.868,256.17,200.855,252.624,203.032,250.429z"/>
<path style="fill:#64798A;" d="M196.912,220.906l-10.61-4.668c-1.16-0.51-2.338,0.677-1.819,1.833l4.751,10.573
	c1.785-0.513,3.478-1.425,4.879-2.837C195.514,224.396,196.413,222.695,196.912,220.906z"/>
<g>
</g>
<g>
</g>
<g>
</g>
<g>
</g>
<g>
</g>
<g>
</g>
<g>
</g>
<g>
</g>
<g>
</g>
<g>
</g>
<g>
</g>
<g>
</g>
<g>
</g>
<g>
</g>
<g>
</g>
</svg>
