<?xml version="1.0" encoding="iso-8859-1"?>
<!-- Generator: Adobe Illustrator 19.0.0, SVG Export Plug-In . SVG Version: 6.00 Build 0)  -->
<svg version="1.1" id="Layer_1" xmlns="http://www.w3.org/2000/svg" xmlns:xlink="http://www.w3.org/1999/xlink" x="0px" y="0px"
	 viewBox="0 0 491.52 491.52" style="enable-background:new 0 0 491.52 491.52;" xml:space="preserve">
<path style="fill:#64798A;" d="M210.349,183.026c0-7.392,2.276-14.245,6.149-19.922c-19.369,2.256-34.967,7.558-45.359,12.048
	c4.091,2.743,7.923,5.985,11.104,10.093l28.958,37.397c6.94-3.432,13.876-5.811,19.968-7.427
	C218.912,209.647,210.349,197.365,210.349,183.026z"/>
<path style="fill:#2F4859;" d="M171.139,175.152c-11.903-7.977-26.745-10.102-40.356-5.755
	c31.046,14.686,52.577,46.202,52.577,82.828c0,8.092-1.154,15.898-3.123,23.374l29.935-23.18c8.316-6.441,9.837-18.402,3.398-26.716
	l-2.37-3.061l-28.958-37.397C179.062,181.137,175.23,177.894,171.139,175.152z"/>
<path style="fill:#3A556A;" d="M130.784,169.397c-11.874-5.619-25.095-8.852-39.104-8.852c-50.634,0-91.68,41.046-91.68,91.68
	s41.046,91.68,91.68,91.68c42.54,0,78.209-29.016,88.558-68.306c1.969-7.476,3.123-15.282,3.123-23.374
	C183.36,215.599,161.83,184.082,130.784,169.397z M91.68,320.93c-37.944,0-68.706-30.762-68.706-68.706
	c0-37.944,30.761-68.706,68.706-68.706s68.705,30.761,68.705,68.706C160.385,290.168,129.625,320.93,91.68,320.93z"/>
<path style="fill:#27A2DB;" d="M160.385,252.225c0-37.944-30.76-68.706-68.705-68.706s-68.706,30.761-68.706,68.706
	c0,37.944,30.761,68.706,68.706,68.706S160.385,290.168,160.385,252.225z M82.141,219.844c-3.154,9.46-13.381,19.689-22.842,22.841
	c-9.461,3.153-14.574-1.959-11.421-11.422c3.154-9.46,13.381-19.688,22.842-22.841C80.182,205.269,85.295,210.382,82.141,219.844z
	 M124.703,293.454c-4.534,0-8.208-3.674-8.208-8.207c0-4.532,3.675-8.208,8.208-8.208c4.533,0,8.207,3.677,8.207,8.208
	C132.911,289.781,129.236,293.454,124.703,293.454z"/>
<g>
	<circle style="fill:#FFFFFF;" cx="124.703" cy="285.245" r="8.207"/>
	<path style="fill:#FFFFFF;" d="M70.72,208.422c-9.461,3.153-19.689,13.381-22.842,22.841c-3.153,9.463,1.96,14.575,11.421,11.422
		c9.461-3.153,19.688-13.381,22.842-22.841C85.295,210.382,80.182,205.269,70.72,208.422z"/>
</g>
<path style="fill:#64798A;" d="M320.38,175.152c-10.392-4.49-25.99-9.792-45.358-12.048c3.873,5.677,6.148,12.53,6.148,19.922
	c0,14.339-8.561,26.621-20.819,32.188c6.092,1.615,13.029,3.996,19.968,7.427l28.958-37.397
	C312.458,181.137,316.29,177.894,320.38,175.152z"/>
<path style="fill:#2F4859;" d="M360.735,169.397c-13.61-4.347-28.453-2.222-40.356,5.755c-4.09,2.743-7.922,5.985-11.103,10.093
	l-28.958,37.397l-2.37,3.061c-6.439,8.315-4.918,20.276,3.398,26.716l29.935,23.18c-1.97-7.476-3.122-15.282-3.122-23.374
	C308.16,215.599,329.689,184.082,360.735,169.397z"/>
<path style="fill:#3A556A;" d="M399.84,160.545c-14.008,0-27.229,3.233-39.104,8.852c-31.046,14.686-52.576,46.202-52.576,82.828
	c0,8.092,1.153,15.898,3.122,23.374c10.349,39.29,46.018,68.306,88.558,68.306c50.634,0,91.68-41.046,91.68-91.68
	S450.474,160.545,399.84,160.545z M399.84,320.93c-37.944,0-68.705-30.762-68.705-68.706c0-37.944,30.76-68.706,68.705-68.706
	s68.705,30.761,68.705,68.706C468.545,290.168,437.784,320.93,399.84,320.93z"/>
<path style="fill:#27A2DB;" d="M399.84,183.519c-37.944,0-68.705,30.761-68.705,68.706c0,37.944,30.76,68.706,68.705,68.706
	s68.705-30.762,68.705-68.706C468.545,214.28,437.784,183.519,399.84,183.519z M366.817,293.454c-4.533,0-8.207-3.674-8.207-8.207
	c0-4.532,3.675-8.208,8.207-8.208c4.534,0,8.208,3.677,8.208,8.208C375.025,289.781,371.35,293.454,366.817,293.454z
	 M432.22,242.686c-9.461-3.153-19.688-13.381-22.841-22.841c-3.154-9.462,1.96-14.575,11.421-11.422
	c9.461,3.153,19.688,13.381,22.842,22.841C446.795,240.727,441.683,245.839,432.22,242.686z"/>
<g>
	<circle style="fill:#FFFFFF;" cx="366.797" cy="285.245" r="8.207"/>
	<path style="fill:#FFFFFF;" d="M420.8,208.422c-9.461-3.153-14.575,1.96-11.421,11.422c3.154,9.46,13.38,19.689,22.841,22.841
		c9.462,3.153,14.575-1.959,11.422-11.422C440.489,221.803,430.261,211.575,420.8,208.422z"/>
</g>
<path style="fill:#3A556A;" d="M281.17,183.026c0-7.392-2.275-14.245-6.148-19.922c-6.375-9.345-17.096-15.489-29.262-15.489
	s-22.887,6.144-29.262,15.489c-3.873,5.677-6.149,12.53-6.149,19.922c0,14.339,8.563,26.621,20.82,32.188
	c4.459,2.025,9.373,3.221,14.591,3.221c5.217,0,10.132-1.196,14.591-3.221C272.609,209.647,281.17,197.365,281.17,183.026z
	 M245.76,203.354c-11.228,0-20.33-9.1-20.33-20.328c0-11.23,9.102-20.33,20.33-20.33c11.227,0,20.329,9.1,20.329,20.33
	C266.089,194.254,256.987,203.354,245.76,203.354z"/>
<circle style="fill:#2F4859;" cx="245.76" cy="183.025" r="20.332"/>
<g>
</g>
<g>
</g>
<g>
</g>
<g>
</g>
<g>
</g>
<g>
</g>
<g>
</g>
<g>
</g>
<g>
</g>
<g>
</g>
<g>
</g>
<g>
</g>
<g>
</g>
<g>
</g>
<g>
</g>
</svg>
