<?xml version="1.0" encoding="utf-8"?>
<!-- Generator: Adobe Illustrator 21.0.2, SVG Export Plug-In . SVG Version: 6.00 Build 0)  -->
<svg xmlns="http://www.w3.org/2000/svg" xmlns:xlink="http://www.w3.org/1999/xlink" version="1.1" id="Layer_1" x="0px" y="0px" viewBox="0 0 100 100" enable-background="new 0 0 100 100" xml:space="preserve" width="512" height="512">
<g>
	<g>
		
			<rect x="31.948143" y="-5.6555071" transform="matrix(-1.836970e-16 1 -1 -1.836970e-16 92.3441696 -29.947794)" fill="#DC8744" width="58.3956757" height="73.7073898"/>
		<rect x="27.7833691" y="5.4917564" fill="#EBF0F3" width="66.7245483" height="51.4130363"/>
		<g>
			<rect x="36.3251877" y="47.1996117" fill="#F6C358" width="7.6062865" height="3.0393379"/>
			<rect x="36.3251877" y="22.8847351" fill="#FCD462" width="7.6062865" height="24.3148785"/>
			<rect x="50.3367233" y="47.1996117" fill="#3EA69B" width="7.6062865" height="3.0393379"/>
			<rect x="50.3367233" y="12.1575985" fill="#44C4A1" width="7.6062865" height="35.0420151"/>
			<rect x="64.348259" y="47.1996117" fill="#D15241" width="7.6062865" height="3.0393379"/>
			<rect x="64.348259" y="28.2483044" fill="#E56353" width="7.6062865" height="18.9513092"/>
			<rect x="78.3597946" y="47.1996117" fill="#2D93BA" width="7.6062865" height="3.0393379"/>
			<rect x="78.3597946" y="18.9515572" fill="#27A2DB" width="7.6062865" height="28.2480564"/>
		</g>
	</g>
	<g>
		<polygon fill="none" points="28.5619869,84.4024811 28.5618362,84.4024811 28.4371872,84.572319 28.4637184,84.5361862   "/>
		<polygon fill="none" points="25.6277485,88.3988495 28.4368382,84.5728378 28.4368382,84.5726624 25.6273766,88.399025     28.5384235,93.6917267 28.5384235,93.6915512   "/>
		<polygon fill="none" points="36.1429634,88.3988495 33.2498932,93.6594315 33.2500916,93.6599579 36.1436615,88.399025     33.3457184,84.5883713 33.3455467,84.5887222   "/>
		<path fill="#F6C358" d="M30.8666687,81.2249069l0.0188503,0.0125656l0.0001755-0.0001755V81.220192l0.0083771,0.0115204    l0.0102978-0.0068054l0.0001755-0.0001755l0.0033169-0.0045395v0.0022736l7.1816196-4.7989197l0.0005226,0.0001755v-3.6144638    c-0.5431824,0.3742218-1.0645218,0.7793427-1.5539665,1.2218094c-3.1512184,2.8487396-6.2418747,2.3607101-6.2418747,2.3607101    c-1.8852501,0.0495758-4.5706139-1.8817596-5.7156239-2.7810135c-0.2912903-0.2288208-0.5904827-0.4477005-0.8975048-0.6550598    v3.4680176l0.0005455-0.0001755L30.8666687,81.2249069z"/>
		<polygon fill="#F6C358" points="30.8853455,81.237999 30.8856945,81.2383499 30.8856945,81.2378235 30.885519,81.237648     28.5618362,84.4024811 28.5619869,84.4024811   "/>
		<path fill="#64798A" d="M23.2514801,49.9659653h4.4706001c0.4073868,0,0.8123283-0.061615,1.2003403-0.1860657    c0.809885-0.2597198,2.0971489-0.7383232,3.0721531-1.1088791c0.8692303-0.3302383,1.8266048-0.3419304,2.7040386-0.0340347    l4.7055359,1.6520576c3.1658821,1.1629906,3.4889641,4.135128,3.4889641,4.135128v8.3992424    c0,0,0.4154129-2.8037033,1.8512154-5.1064682c0.3487396-0.5592384,0.5395164-1.2022591,0.5395164-1.8613358v-7.2465515    c0,0-0.4524193-3.5535469-3.9413834-4.3934517c0,0,1.4214897-3.0262489-2.2613945-3.7422295H25.5128746l0,0    c-4.960022,0-8.9808216,4.0208015-8.9808216,8.9808235v5.3241196c0,1.1535645,0.3860912,2.2760582,1.1085529,3.1754837    c0.5682926,0.7077751,1.1586018,1.8204956,1.2497368,3.4304924v-7.0571709    C19.762516,50.4182091,23.2514801,49.9659653,23.2514801,49.9659653z"/>
		<path fill="#FCD462" d="M30.2941628,76.391777c0,0,3.0906563,0.4880295,6.2418747-2.3607101    c0.4894447-0.4424667,1.0107841-0.8475876,1.5539665-1.2218094c0.0535851-0.0370026,0.1061249-0.0752258,0.1600571-0.1115341    c1.395134-0.9371262,4.0754318-3.5353928,4.6430511-9.8743095v-8.3992424c0,0-0.323082-2.9721375-3.4889641-4.135128    l-4.7055359-1.6520576c-0.8774338-0.3078957-1.8348083-0.2962036-2.7040386,0.0340347    c-0.9750042,0.3705559-2.2622681,0.8491592-3.0721531,1.1088791c-0.3880119,0.1244507-0.7929535,0.1860657-1.2003403,0.1860657    h-4.4706001c0,0-3.4889641,0.4522438-4.3611374,4.3611603v7.0571709v1.6330338c0,0,0.1518536,6.8646507,4.6967869,9.8730888    c0.0317669,0.0211258,0.0623112,0.0439911,0.0939045,0.0652847c0.3070221,0.2073593,0.6062145,0.426239,0.8975048,0.6550598    C25.7235489,74.5100174,28.4089127,76.4413528,30.2941628,76.391777z"/>
		<polygon fill="#D5D6DB" points="33.3455467,84.5887222 32.0956345,86.3835602 33.2498932,93.6594315 36.1429634,88.3988495   "/>
		<polygon fill="#D5D6DB" points="28.5384235,93.6915512 29.6979198,86.3835602 28.4368382,84.5728378 25.6277485,88.3988495   "/>
		<polygon fill="#D5D6DB" points="28.5619869,84.4024811 28.4637184,84.5361862 30.8856945,81.2503891 30.8856945,81.2383499     30.8853455,81.237999   "/>
		<polygon fill="#E56353" points="33.2498932,93.6594315 32.0956345,86.3835602 33.3455467,84.5887222 33.3457184,84.5883713     30.8856945,81.2378235 30.8856945,81.2383499 30.8856945,81.2503891 28.4637184,84.5361862 28.4371872,84.572319     28.4368382,84.5726624 28.4368382,84.5728378 29.6979198,86.3835602 28.5384235,93.6915512 28.5384235,93.6917267     30.885519,97.9589844 33.2500916,93.6599579   "/>
		<polygon fill="#E56353" points="30.8998318,97.9851608 31.1241436,97.7610474 30.8928509,97.9724197   "/>
		<polygon fill="#E56353" points="30.8781891,97.9724197 30.6469173,97.7610474 30.8712063,97.9851608   "/>
		<polygon fill="#E56353" points="30.8748722,97.9888306 30.885519,97.9994736 30.8961658,97.9888306 30.8856945,97.9792328     30.885519,97.9792328 30.8853455,97.9792328   "/>
		<polygon fill="#E56353" points="30.9078617,81.220192 30.9045448,81.2247314 30.9078617,81.2224655   "/>
		<polygon fill="#E56353" points="30.8856945,81.220192 30.8856945,81.2372971 30.8940716,81.2317123   "/>
		<polygon fill="#E1E6E9" points="30.9078617,81.2224655 30.9045448,81.2247314 30.9043694,81.2249069 30.8940716,81.2317123     30.8856945,81.2372971 30.885519,81.2374725 30.8856945,81.2374725 30.885519,81.237648 30.8856945,81.2378235     33.3457184,84.5883713 36.1436615,88.399025 41.9661064,77.8132706 38.090004,76.4237213 38.0894814,76.4235458   "/>
		<polygon fill="#E1E6E9" points="28.4368382,84.5726624 28.4371872,84.572319 28.5618362,84.4024811 30.885519,81.237648     30.8856945,81.2374725 30.885519,81.2374725 30.8666687,81.2249069 23.6815796,76.4235458 23.6810341,76.4237213     19.8049545,77.8132706 25.6273766,88.399025   "/>
		<path fill="#3A556A" d="M59.7340088,94.8777542l-1.3041725-7.8749084    c-0.3517303-2.1242065-1.8229637-3.8928604-3.8476753-4.6252518l-12.6160545-4.5643234l3.3507271,6.7194214l-4.1906319,0.0645828    l1.4214859,2.7136383L31.1241436,97.7610474l-0.2243118,0.2241135l0.0080299,0.0144882h3.0307827h23.1478767    C58.7436447,97.999649,60.0047264,96.5125351,59.7340088,94.8777542z"/>
		<polygon fill="#3A556A" points="30.8961658,97.9888306 30.885519,97.9994736 30.8856945,97.999649 30.9078617,97.999649   "/>
		<polygon fill="#2F4859" points="33.2500916,93.6599579 30.885519,97.9589844 30.8856945,97.9591599 30.8928509,97.9724197     31.1241436,97.7610474 42.5476875,87.3109131 41.1262016,84.5972748 45.3168335,84.532692 41.9661064,77.8132706     36.1436615,88.399025   "/>
		<polygon fill="#2F4859" points="30.8748722,97.9888306 30.8853455,97.9792328 30.885519,97.9792328 30.8781891,97.9724197     30.8712063,97.9851608   "/>
		<path fill="#3A556A" d="M30.8748722,97.9888306l-0.0036659-0.0036697l-0.2242889-0.2241135L19.2233505,87.3109131    l1.4214878-2.7136383l-4.1906319-0.0645828l3.3507481-6.7194214L7.1889,82.377594    c-2.0247126,0.7323914-3.4959676,2.5010452-3.8478489,4.6252518l-1.3040195,7.8749084    c-0.2707181,1.6347809,0.9903636,3.1218948,2.6474862,3.1218948h23.170414h1.7887058h0.0223427h1.2193661h0.000349    l-0.0001755-0.0001755L30.8748722,97.9888306z"/>
		<polygon fill="#2F4859" points="30.8998318,97.9851608 30.8928509,97.9724197 30.8856945,97.9591599 30.885519,97.9589844     28.5384235,93.6917267 25.6273766,88.399025 19.8049545,77.8132706 16.4542065,84.532692 20.6448383,84.5972748     19.2233505,87.3109131 30.6469173,97.7610474 30.8781891,97.9724197 30.885519,97.9792328 30.8856945,97.9792328     30.8961658,97.9888306 30.9078617,97.999649   "/>
	</g>
</g>
</svg>
