<?xml version="1.0" encoding="iso-8859-1"?>
<!-- Generator: Adobe Illustrator 19.0.0, SVG Export Plug-In . SVG Version: 6.00 Build 0)  -->
<svg version="1.1" id="Layer_1" xmlns="http://www.w3.org/2000/svg" xmlns:xlink="http://www.w3.org/1999/xlink" x="0px" y="0px"
	 viewBox="0 0 458.957 458.957" style="enable-background:new 0 0 458.957 458.957;" xml:space="preserve">
<path style="fill:#DC8744;" d="M373.936,3.425H51.827C23.203,3.425,0,26.63,0,55.253s23.203,51.828,51.827,51.828h357.776V39.092
	C409.603,19.394,393.635,3.425,373.936,3.425z"/>
<path style="fill:#FCD462;" d="M51.823,89.248c-18.748,0-33.994-15.247-33.994-33.994c0-18.747,15.247-33.994,33.994-33.994h322.111
	c9.83,0,17.833,8.002,17.833,17.832v50.156H51.823z"/>
<path style="fill:#DC8744;" d="M418.43,107.081h-8.827H51.832h-0.005C23.203,107.081,0,83.877,0,55.253v364.521
	c0,19.748,16.008,35.757,35.756,35.757H418.43c19.747,0,35.757-16.008,35.757-35.757V142.838
	C454.186,123.09,438.177,107.081,418.43,107.081z"/>
<path style="fill:#FCD462;" d="M454.416,250.189h-95.585c-19.895,0-36.023,16.128-36.023,36.024
	c0,19.895,16.128,36.023,36.023,36.023h95.585c2.508,0,4.541-2.033,4.541-4.541v-62.965
	C458.957,252.222,456.924,250.189,454.416,250.189z"/>
<circle style="fill:#64798A;" cx="360.909" cy="286.208" r="21.699"/>
<path style="fill:#2F4859;" d="M360.928,269.988c-0.67,0-1.307,0.118-1.954,0.197c8.028,0.977,14.27,7.737,14.27,16.029
	s-6.242,15.052-14.27,16.028c0.648,0.079,1.284,0.198,1.954,0.198c8.961,0,16.226-7.265,16.226-16.226
	C377.153,277.252,369.889,269.988,360.928,269.988z"/>
<g>
</g>
<g>
</g>
<g>
</g>
<g>
</g>
<g>
</g>
<g>
</g>
<g>
</g>
<g>
</g>
<g>
</g>
<g>
</g>
<g>
</g>
<g>
</g>
<g>
</g>
<g>
</g>
<g>
</g>
</svg>
