<?xml version="1.0" encoding="iso-8859-1"?>
<!-- Generator: Adobe Illustrator 19.0.0, SVG Export Plug-In . SVG Version: 6.00 Build 0)  -->
<svg version="1.1" id="Layer_1" xmlns="http://www.w3.org/2000/svg" xmlns:xlink="http://www.w3.org/1999/xlink" x="0px" y="0px"
	 viewBox="0 0 491.52 491.52" style="enable-background:new 0 0 491.52 491.52;" xml:space="preserve">
<g>
	<path style="fill:#64798A;" d="M0,321.128v51.007c0,5.231,4.24,9.471,9.471,9.471h472.578c5.231,0,9.471-4.241,9.471-9.471v-51.007
		H0z"/>
	<path style="fill:#64798A;" d="M491.52,38.243c0-5.231-4.24-9.47-9.471-9.47H9.471C4.24,28.773,0,33.013,0,38.243v282.885h491.52
		V38.243z"/>
</g>
<path style="fill:#EBF0F3;" d="M461.788,66.354c0-4.711-3.728-8.529-8.325-8.529H38.057c-4.598,0-8.325,3.819-8.325,8.529v254.774
	h432.057V66.354z"/>
<g>
	<circle style="fill:#3A556A;" cx="245.76" cy="351.392" r="13.619"/>
	<rect x="150.067" y="381.6" style="fill:#3A556A;" width="191.386" height="62.418"/>
</g>
<g>
	<polygon style="fill:#2F4859;" points="150.058,444.025 150.058,381.607 341.462,381.607 	"/>
	<rect x="129.126" y="444.013" style="fill:#2F4859;" width="233.216" height="18.734"/>
</g>
<rect x="29.732" y="313.76" style="fill:#E1E6E9;" width="432.077" height="7.368"/>
<g>
</g>
<g>
</g>
<g>
</g>
<g>
</g>
<g>
</g>
<g>
</g>
<g>
</g>
<g>
</g>
<g>
</g>
<g>
</g>
<g>
</g>
<g>
</g>
<g>
</g>
<g>
</g>
<g>
</g>
</svg>
