<?xml version="1.0" encoding="iso-8859-1"?>
<!-- Generator: Adobe Illustrator 19.0.0, SVG Export Plug-In . SVG Version: 6.00 Build 0)  -->
<svg version="1.1" id="Layer_1" xmlns="http://www.w3.org/2000/svg" xmlns:xlink="http://www.w3.org/1999/xlink" x="0px" y="0px"
	 viewBox="0 0 491.52 491.52" style="enable-background:new 0 0 491.52 491.52;" xml:space="preserve">
<circle style="fill:#64798A;" cx="245.76" cy="245.76" r="245.76"/>
<circle style="fill:#FFFFFF;" cx="245.76" cy="245.76" r="200.602"/>
<path style="fill:#E1E6E9;" d="M54.977,250.673c0-108.081,87.616-195.696,195.696-195.696c107.256,0,194.312,86.297,195.634,193.239
	c0.01-0.821,0.063-1.632,0.063-2.456c0-110.792-89.816-200.608-200.609-200.608S45.152,134.967,45.152,245.759
	c0,110.794,89.815,200.609,200.608,200.609c0.823,0,1.634-0.052,2.456-0.062C141.273,444.984,54.977,357.928,54.977,250.673z"/>
<path style="fill:#E56353;" d="M347.912,350.83c-1.143,0-2.286-0.437-3.159-1.309L214.621,219.389c-1.745-1.745-1.745-4.574,0-6.319
	c1.745-1.745,4.573-1.745,6.318,0l130.133,130.133c1.745,1.745,1.745,4.573,0,6.318C350.199,350.393,349.056,350.83,347.912,350.83z
	"/>
<path style="fill:#64798A;" d="M252.463,226.635V121.198c0-3.701-3.003-6.703-6.703-6.703c-3.701,0-6.703,3.002-6.703,6.703v105.436
	c-5.043,1.774-9.149,5.444-11.493,10.191h-80.484c-4.939,0-8.937,3.997-8.937,8.937c0,4.94,3.997,8.937,8.937,8.937h80.484
	c3.324,6.733,10.192,11.416,18.195,11.416c11.223,0,20.352-9.129,20.352-20.352C266.112,236.899,260.384,229.421,252.463,226.635z"
	/>
<circle style="fill:#FFFFFF;" cx="245.76" cy="245.76" r="11.418"/>
<g>
	<circle style="fill:#3A556A;" cx="245.76" cy="75.827" r="10.035"/>
	<circle style="fill:#3A556A;" cx="245.76" cy="415.693" r="10.035"/>
	<circle style="fill:#3A556A;" cx="415.693" cy="245.76" r="10.035"/>
	<circle style="fill:#3A556A;" cx="75.827" cy="245.76" r="10.035"/>
</g>
<g>
</g>
<g>
</g>
<g>
</g>
<g>
</g>
<g>
</g>
<g>
</g>
<g>
</g>
<g>
</g>
<g>
</g>
<g>
</g>
<g>
</g>
<g>
</g>
<g>
</g>
<g>
</g>
<g>
</g>
</svg>
