<?xml version="1.0" encoding="iso-8859-1"?>
<!-- Generator: Adobe Illustrator 19.0.0, SVG Export Plug-In . SVG Version: 6.00 Build 0)  -->
<svg version="1.1" id="Layer_1" xmlns="http://www.w3.org/2000/svg" xmlns:xlink="http://www.w3.org/1999/xlink" x="0px" y="0px"
	 viewBox="0 0 491.52 491.52" style="enable-background:new 0 0 491.52 491.52;" xml:space="preserve">
<rect x="30.208" style="fill:#EBF0F3;" width="431.104" height="491.52"/>
<rect x="69.832" y="35.748" style="fill:#2D93BA;" width="351.795" height="346.419"/>
<polygon style="fill:#2F4859;" points="273.122,293.289 329.826,382.167 352.702,382.167 284.303,274.964 "/>
<circle style="fill:#FCD462;" cx="245.955" cy="92.467" r="34.278"/>
<path style="fill:#FFFFFF;" d="M173.679,208.404c3.81,1.988,5.661,6.08,9.147,8.503c3.636,2.528,8.582,2.941,12.521,5.067
	c3.338,1.803,5.724,4.7,8.273,7.35c5.859,6.09,13.03,11.197,21.128,14.616c6.701,2.829,14.129,4.606,21.218,6.784l-62.588-98.101
	l-30.018,49.195c3.156,2.174,6.787,3.79,10.687,4.473C167.309,206.863,170.801,206.902,173.679,208.404z"/>
<path style="fill:#3A556A;" d="M245.965,250.723c-7.089-2.178-14.517-3.954-21.218-6.784c-8.098-3.419-15.269-8.526-21.128-14.616
	c-2.549-2.65-4.935-5.547-8.273-7.35c-3.939-2.126-8.885-2.539-12.521-5.067c-3.485-2.424-5.337-6.515-9.147-8.503
	c-2.878-1.501-6.369-1.541-9.632-2.114c-3.9-0.683-7.532-2.299-10.687-4.473L69.86,338.671v43.496h259.967L245.965,250.723z"/>
<path style="fill:#FFFFFF;" d="M321.026,238.262c8.188-1.139,16.377-3.726,24.56-2.554c2.988,0.428,5.858,1.349,8.789,2.028
	c6.407,1.485,13.019,1.75,19.655,1.629l-34.762-54.485l-32.176,52.734C311.495,238.779,316.45,238.898,321.026,238.262z"/>
<path style="fill:#3A556A;" d="M374.03,239.365c-6.636,0.121-13.248-0.144-19.655-1.629c-2.931-0.679-5.802-1.6-8.789-2.028
	c-8.183-1.172-16.372,1.415-24.56,2.554c-4.577,0.636-9.531,0.517-13.934-0.649l-22.79,37.351l68.399,107.202h68.942v-68.171
	L374.03,239.365z"/>
<g>
</g>
<g>
</g>
<g>
</g>
<g>
</g>
<g>
</g>
<g>
</g>
<g>
</g>
<g>
</g>
<g>
</g>
<g>
</g>
<g>
</g>
<g>
</g>
<g>
</g>
<g>
</g>
<g>
</g>
</svg>
