<?xml version="1.0" encoding="iso-8859-1"?>
<!-- Generator: Adobe Illustrator 19.0.0, SVG Export Plug-In . SVG Version: 6.00 Build 0)  -->
<svg version="1.1" id="Layer_1" xmlns="http://www.w3.org/2000/svg" xmlns:xlink="http://www.w3.org/1999/xlink" x="0px" y="0px"
	 viewBox="0 0 491.52 491.52" style="enable-background:new 0 0 491.52 491.52;" xml:space="preserve">
<g>
	<path style="fill:#64798A;" d="M0,321.128v51.008c0,5.23,4.24,9.47,9.471,9.47h472.578c5.231,0,9.471-4.241,9.471-9.47v-51.008H0z"
		/>
	<path style="fill:#64798A;" d="M491.52,38.244c0-5.232-4.24-9.47-9.471-9.47H9.471C4.24,28.773,0,33.012,0,38.244v282.884h491.52
		V38.244z"/>
</g>
<path style="fill:#EBF0F3;" d="M461.788,66.354c0-4.711-3.727-8.529-8.325-8.529H38.057c-4.598,0-8.325,3.818-8.325,8.529v254.774
	h432.057V66.354z"/>
<g>
	<circle style="fill:#3A556A;" cx="245.76" cy="351.392" r="13.619"/>
	<rect x="150.067" y="381.6" style="fill:#3A556A;" width="191.386" height="62.418"/>
</g>
<g>
	<polygon style="fill:#2F4859;" points="150.058,444.026 150.058,381.606 341.462,381.606 	"/>
	<rect x="129.126" y="444.012" style="fill:#2F4859;" width="233.216" height="18.734"/>
</g>
<rect x="29.732" y="313.76" style="fill:#E1E6E9;" width="432.077" height="7.368"/>
<circle style="fill:#DC8744;" cx="200.55" cy="174.956" r="79.985"/>
<path style="fill:#F6C358;" d="M200.541,240.393c-36.086,0-65.442-29.358-65.442-65.442c0-36.085,29.356-65.443,65.442-65.443
	s65.443,29.358,65.443,65.443C265.984,211.035,236.627,240.393,200.541,240.393z"/>
<path style="fill:#DC8744;" d="M198.408,215.155v-7.081c-8.86-0.908-16.812-4.428-23.86-10.577l7.08-8.438
	c5.434,4.72,11.027,7.538,16.78,8.438v-18.817c-7.308-1.744-12.656-4.033-16.05-6.883c-3.394-2.841-5.095-7.064-5.095-12.661
	c0-5.588,1.957-10.166,5.869-13.718c3.911-3.559,9.006-5.501,15.276-5.825v-4.846h6.208v4.949
	c7.112,0.513,13.837,2.944,20.175,7.269l-6.307,8.927c-4.266-3.038-8.891-4.917-13.868-5.627v18.233h0.292
	c7.435,1.744,12.897,4.113,16.39,7.081c3.492,2.976,5.237,7.293,5.237,12.953c0,5.659-2.005,10.26-6.014,13.821
	c-4.01,3.551-9.31,5.493-15.905,5.817v6.986H198.408z M191.569,152.546c-1.645,1.453-2.47,3.268-2.47,5.431
	c0,2.171,0.643,3.876,1.937,5.139c1.295,1.263,3.749,2.478,7.372,3.638v-16.78C195.5,150.234,193.218,151.094,191.569,152.546z
	 M211.988,195.074c1.808-1.483,2.715-3.362,2.715-5.627c0-2.257-0.714-4.057-2.135-5.383c-1.42-1.317-4.072-2.565-7.952-3.733v17.46
	C207.718,197.467,210.177,196.567,211.988,195.074z"/>
<polygon style="fill:#3A556A;" points="337.669,213.113 366.322,198.365 263.896,155.544 306.718,257.968 321.467,229.316 
	354.76,262.61 370.963,246.407 "/>
<g>
</g>
<g>
</g>
<g>
</g>
<g>
</g>
<g>
</g>
<g>
</g>
<g>
</g>
<g>
</g>
<g>
</g>
<g>
</g>
<g>
</g>
<g>
</g>
<g>
</g>
<g>
</g>
<g>
</g>
</svg>
