<?xml version="1.0" encoding="iso-8859-1"?>
<!-- Generator: Adobe Illustrator 19.0.0, SVG Export Plug-In . SVG Version: 6.00 Build 0)  -->
<svg version="1.1" id="Layer_1" xmlns="http://www.w3.org/2000/svg" xmlns:xlink="http://www.w3.org/1999/xlink" x="0px" y="0px"
	 viewBox="0 0 491.52 491.52" style="enable-background:new 0 0 491.52 491.52;" xml:space="preserve">
<path style="fill:#E56353;" d="M242.892,473.265c0,0-43.658-58.87-14.398-86.965l-10.28,0.139
	c-6.952,7.705-29.146,40.65,25.088,104.814v0.268c0.038-0.046,0.071-0.09,0.11-0.133c0.038,0.043,0.073,0.088,0.11,0.133v-0.268
	c56.006-66.262,30.512-99.228,24.463-105.486l-11.106,0.15C261.825,391.023,287.184,421.588,242.892,473.265z"/>
<path style="fill:#FCD462;" d="M244.052,398.543l-0.001-0.057c-2.003-3.343-3.858-7.515-5.537-12.322l-10.02,0.136
	c-29.26,28.095,14.398,86.965,14.398,86.965c44.292-51.677,18.933-82.242,13.988-87.349l-6.851,0.093
	c-1.652,5.207-3.527,9.678-5.593,13.201C244.308,399,244.185,398.76,244.052,398.543z"/>
<g>
	<path style="fill:#E56353;" d="M250.029,386.009l6.851-0.093l11.106-0.15l12.688-0.171l-0.187-13.394
		c-8.533-1.87-17.351-2.951-26.349-3.333C253.016,375.199,251.631,380.956,250.029,386.009z"/>
	<path style="fill:#E56353;" d="M238.513,386.164c-1.739-4.976-3.281-10.655-4.578-16.913c-9.507,0.843-18.714,2.641-27.621,5.124
		l0.169,12.221l11.73-0.158l10.28-0.139L238.513,386.164z"/>
</g>
<g>
	<path style="fill:#64798A;" d="M116.214,388.56c0.228,16.329,3.607,31.88,9.513,46.139c12.107-31.697,36.759-57.379,68.055-71.281
		c-10.737-23.555-19.1-50.288-24.288-79.334C136.742,307.58,115.618,345.697,116.214,388.56z"/>
	<path style="fill:#64798A;" d="M373.957,369.133c0.183,1.294,0.417,2.572,0.561,3.879
		C374.374,371.704,374.141,370.429,373.957,369.133z"/>
	<path style="fill:#64798A;" d="M371.592,356.85c0.358,1.456,0.718,2.91,1.025,4.385C372.31,359.759,371.95,358.307,371.592,356.85z
		"/>
	<path style="fill:#64798A;" d="M368.218,345.423c0.504,1.437,0.964,2.892,1.417,4.351
		C369.183,348.314,368.722,346.861,368.218,345.423z"/>
	<path style="fill:#64798A;" d="M363.889,334.612c0.592,1.287,1.105,2.614,1.654,3.925
		C364.995,337.227,364.481,335.9,363.889,334.612z"/>
	<path style="fill:#64798A;" d="M361.149,419.28c-0.441-0.806-0.876-1.612-1.334-2.408
		C360.272,417.668,360.71,418.475,361.149,419.28z"/>
	<path style="fill:#64798A;" d="M319.805,282.544c-0.225-0.156-0.441-0.324-0.668-0.477l-0.002,0.014
		C319.36,282.233,319.581,282.39,319.805,282.544z"/>
	<path style="fill:#64798A;" d="M332.376,383.716c-0.273-0.236-0.554-0.46-0.829-0.693
		C331.822,383.256,332.103,383.48,332.376,383.716z"/>
	<path style="fill:#64798A;" d="M342.527,393.456c0.309,0.332,0.601,0.681,0.907,1.016
		C343.127,394.136,342.837,393.789,342.527,393.456z"/>
	<path style="fill:#64798A;" d="M307.255,366.76c-0.11-0.056-0.219-0.113-0.328-0.168
		C307.036,366.647,307.145,366.703,307.255,366.76z"/>
	<path style="fill:#64798A;" d="M352.581,405.636c-0.259-0.357-0.542-0.693-0.805-1.048
		C352.038,404.942,352.323,405.28,352.581,405.636z"/>
	<path style="fill:#64798A;" d="M325.47,286.587c1.332,1.023,2.61,2.107,3.899,3.18C328.079,288.693,326.804,287.61,325.47,286.587z
		"/>
	<path style="fill:#64798A;" d="M334.259,294.013c1.244,1.143,2.46,2.314,3.657,3.504
		C336.717,296.326,335.504,295.158,334.259,294.013z"/>
	<path style="fill:#64798A;" d="M350.13,311.605c0.831,1.111,1.708,2.185,2.503,3.323
		C351.837,313.789,350.961,312.716,350.13,311.605z"/>
	<path style="fill:#64798A;" d="M342.436,302.269c1.09,1.203,2.188,2.4,3.232,3.642
		C344.624,304.667,343.528,303.473,342.436,302.269z"/>
	<path style="fill:#64798A;" d="M358.646,324.358c0.45,0.784,0.824,1.611,1.257,2.405
		C359.47,325.968,359.097,325.141,358.646,324.358z"/>
	<path style="fill:#64798A;" d="M307.255,366.76c8.737,4.51,16.871,9.99,24.292,16.264c0.275,0.232,0.556,0.457,0.829,0.693
		c3.561,3.063,6.949,6.315,10.151,9.74c0.31,0.332,0.6,0.68,0.907,1.016c2.951,3.227,5.735,6.602,8.342,10.115
		c0.263,0.356,0.546,0.692,0.805,1.048c2.615,3.601,5.005,7.367,7.234,11.235c0.458,0.796,0.893,1.602,1.334,2.408
		c2.161,3.951,4.187,7.986,5.921,12.175c5.511-14.41,8.459-30.043,8.235-46.375c-0.056-4.078-0.351-8.095-0.788-12.067
		c-0.144-1.307-0.378-2.585-0.561-3.879c-0.377-2.658-0.799-5.298-1.34-7.898c-0.307-1.475-0.667-2.929-1.025-4.385
		c-0.587-2.386-1.236-4.744-1.957-7.075c-0.452-1.459-0.912-2.914-1.417-4.351c-0.818-2.333-1.726-4.617-2.675-6.886
		c-0.549-1.311-1.062-2.638-1.654-3.925c-1.228-2.675-2.579-5.279-3.986-7.85c-0.433-0.794-0.807-1.621-1.257-2.405
		c-1.862-3.238-3.879-6.376-6.013-9.43c-0.795-1.138-1.672-2.212-2.503-3.323c-1.447-1.933-2.909-3.848-4.461-5.694
		c-1.045-1.242-2.142-2.439-3.232-3.642c-1.471-1.618-2.968-3.208-4.52-4.752c-1.197-1.19-2.413-2.361-3.657-3.504
		c-1.589-1.462-3.227-2.864-4.889-4.247c-1.29-1.072-2.568-2.156-3.899-3.18c-1.839-1.412-3.749-2.73-5.665-4.043
		c-0.224-0.154-0.445-0.31-0.669-0.463c-4.387,29.241-12.029,56.243-22.137,80.117c3.356,1.382,6.72,2.749,9.928,4.394
		C307.036,366.647,307.145,366.703,307.255,366.76z"/>
</g>
<g>
	<path style="fill:#EBF0F3;" d="M251.066,9.897c2.369,2.39,4.722,4.818,7.004,7.418C255.787,14.718,253.436,12.284,251.066,9.897z"
		/>
	<path style="fill:#EBF0F3;" d="M259.424,18.957c2.364,2.761,4.703,5.579,6.966,8.56C264.126,24.541,261.791,21.715,259.424,18.957z
		"/>
	<path style="fill:#EBF0F3;" d="M267.181,28.615c2.427,3.242,4.81,6.577,7.111,10.062C271.988,35.196,269.611,31.855,267.181,28.615
		z"/>
	<path style="fill:#EBF0F3;" d="M239.089,1.231V1.226c-23.595,21.188-43.143,53.006-56.478,91.645
		C195.944,54.239,215.497,22.418,239.089,1.231z"/>
	<path style="fill:#EBF0F3;" d="M300.725,91.344L300.725,91.344l0.008,0.016c-7.275-19.343-16.074-36.909-26.138-52.202
		C284.642,54.46,293.455,72.014,300.725,91.344L300.725,91.344z"/>
	<path style="fill:#EBF0F3;" d="M249.388,8.134c-2.943-2.876-5.945-5.595-9.009-8.134l-0.015,0.013l0.011-0.009
		C243.443,2.54,246.446,5.256,249.388,8.134z"/>
	<path style="fill:#EBF0F3;" d="M319.136,282.081l0.002-0.014c3.106-20.701,4.617-42.474,4.304-64.939
		c-0.572-41.162-7.209-79.833-18.414-113.718c-58.519-7.818-125.961,0.583-125.961,0.583l3.471-10.902
		c-12.727,36.967-19.798,80.1-19.156,126.18c0.313,22.471,2.431,44.199,6.113,64.813c5.188,29.046,13.552,55.78,24.288,79.334
		c1.981,4.346,3.976,8.677,6.119,12.791c2.103-0.685,4.269-1.235,6.413-1.833c8.906-2.484,18.114-4.282,27.621-5.124
		c-2.613-12.609-4.24-27.5-4.461-43.524c-0.443-31.644,4.681-59.112,12.545-73.115l-0.001-0.065
		c0.129-0.207,0.248-0.458,0.369-0.673c8.455,13.557,14.516,41.323,14.963,73.481c0.223,15.955-0.972,30.853-3.214,43.511
		c8.998,0.383,17.816,1.464,26.349,3.333c3.66,0.801,7.274,1.727,10.831,2.781c2-4.118,3.846-8.447,5.683-12.784
		C307.107,338.324,314.749,311.322,319.136,282.081z"/>
</g>
<path style="fill:#FCD462;" d="M305.028,103.41C305.424,103.461,304.632,103.355,305.028,103.41l-4.295-12.049l-0.007-0.016h-0.001
	c-9.377-0.491-18.877-0.831-28.471-1.032c-5.63-0.115-11.362-0.071-17.06-0.083c-4.525-0.008-8.993-0.106-13.559-0.045
	c-20.122,0.27-39.822,1.23-59.04,2.742h-0.001h-0.003l-0.053,0.164l-3.471,10.902C179.066,103.992,246.509,95.592,305.028,103.41z"
	/>
<path style="fill:#3A556A;" d="M238.513,386.164c1.679,4.807,3.535,8.979,5.537,12.322l0.001,0.057
	c0.133,0.217,0.256,0.457,0.384,0.667c2.066-3.524,3.941-7.995,5.593-13.201c1.602-5.053,2.987-10.81,4.108-17.142
	c2.241-12.658,3.436-27.556,3.214-43.511c-0.447-32.158-6.508-59.924-14.963-73.481c-0.122,0.215-0.241,0.466-0.369,0.673
	l0.001,0.065c-7.864,14.003-12.988,41.471-12.545,73.115c0.221,16.024,1.848,30.915,4.461,43.524
	C235.233,375.509,236.774,381.188,238.513,386.164z"/>
<path style="fill:#E56353;" d="M241.634,90.184c4.566-0.062,9.034,0.037,13.559,0.045c5.698,0.012,11.43-0.032,17.06,0.083
	c9.594,0.201,19.094,0.542,28.471,1.032h0.001c-7.271-19.33-16.083-36.884-26.131-52.186c-0.103-0.155-0.199-0.324-0.303-0.481
	c-2.301-3.484-4.684-6.82-7.111-10.062c-0.268-0.357-0.521-0.744-0.79-1.098c-2.263-2.98-4.602-5.799-6.966-8.56
	c-0.458-0.534-0.894-1.117-1.355-1.643c-2.282-2.601-4.635-5.029-7.004-7.418c-0.567-0.571-1.107-1.204-1.678-1.762
	c-2.942-2.879-5.945-5.594-9.009-8.134l-0.015,0.013c-0.43,0.377-0.85,0.786-1.277,1.169l0.003,0.044v0.004
	c-23.592,21.187-43.145,53.008-56.478,91.641c-0.007,0.017-0.014,0.035-0.021,0.055h0.003h0.001
	C201.812,91.414,221.512,90.454,241.634,90.184z"/>
<path style="fill:#FCD462;" d="M278.292,173.549c-0.265-18.956-16.183-34.375-35.479-34.375l-0.495,0.004
	c-9.468,0.123-18.33,3.871-24.95,10.551c-6.619,6.68-10.195,15.478-10.065,24.775c0.267,18.957,16.189,34.382,35.49,34.384
	l0.493-0.004C262.855,208.62,278.562,192.768,278.292,173.549z M243.168,200.416c-14.822,0.2-27.038-11.466-27.244-26.027
	c-0.203-14.549,11.689-26.551,26.509-26.745c14.813-0.202,27.034,11.477,27.237,26.023
	C269.875,188.225,257.983,200.219,243.168,200.416z"/>
<ellipse transform="matrix(-0.0139 -0.9999 0.9999 -0.0139 72.161 419.2156)" style="fill:#3A556A;" cx="242.791" cy="174.026" rx="26.388" ry="26.875"/>
<g>
</g>
<g>
</g>
<g>
</g>
<g>
</g>
<g>
</g>
<g>
</g>
<g>
</g>
<g>
</g>
<g>
</g>
<g>
</g>
<g>
</g>
<g>
</g>
<g>
</g>
<g>
</g>
<g>
</g>
</svg>
