<?xml version="1.0" encoding="iso-8859-1"?>
<!-- Generator: Adobe Illustrator 19.0.0, SVG Export Plug-In . SVG Version: 6.00 Build 0)  -->
<svg version="1.1" id="Layer_1" xmlns="http://www.w3.org/2000/svg" xmlns:xlink="http://www.w3.org/1999/xlink" x="0px" y="0px"
	 viewBox="0 0 491.52 491.52" style="enable-background:new 0 0 491.52 491.52;" xml:space="preserve">
<g>
	<rect x="53.478" y="73.467" style="fill:#DC8744;" width="50.335" height="13.302"/>
	<rect x="387.686" y="73.467" style="fill:#DC8744;" width="50.335" height="13.302"/>
	<path style="fill:#DC8744;" d="M491.52,245.967H0v226.126c0,5.066,4.107,9.174,9.174,9.174h473.173
		c5.066,0,9.173-4.107,9.173-9.173V245.967z"/>
</g>
<path style="fill:#F6C358;" d="M491.52,236.136H0v226.126c0,5.066,4.107,9.173,9.174,9.173h473.173c5.066,0,9.173-4.107,9.173-9.173
	V236.136z"/>
<g>
	<path style="fill:#DC8744;" d="M351.936,132.486H139.585V23.474c0-7.301,5.918-13.22,13.219-13.22h185.913
		c7.3,0,13.219,5.919,13.219,13.22V132.486z M169.076,102.994h153.369v-63.25H169.076V102.994z"/>
	<rect y="236.134" style="fill:#DC8744;" width="491.52" height="9.83"/>
</g>
<path style="fill:#FCD462;" d="M491.52,236.136H0V91.606c0-5.066,4.107-9.173,9.174-9.173h473.173c5.066,0,9.173,4.107,9.173,9.173
	V236.136z"/>
<rect x="360.55" y="213.827" style="fill:#64798A;" width="56.11" height="20.122"/>
<rect x="360.55" y="233.948" style="fill:#3A556A;" width="56.11" height="32.374"/>
<rect x="74.844" y="213.827" style="fill:#64798A;" width="56.11" height="20.122"/>
<rect x="74.844" y="233.948" style="fill:#3A556A;" width="56.11" height="32.374"/>
<g>
</g>
<g>
</g>
<g>
</g>
<g>
</g>
<g>
</g>
<g>
</g>
<g>
</g>
<g>
</g>
<g>
</g>
<g>
</g>
<g>
</g>
<g>
</g>
<g>
</g>
<g>
</g>
<g>
</g>
</svg>
