<?xml version="1.0" encoding="iso-8859-1"?>
<!-- Generator: Adobe Illustrator 19.0.0, SVG Export Plug-In . SVG Version: 6.00 Build 0)  -->
<svg version="1.1" id="Layer_1" xmlns="http://www.w3.org/2000/svg" xmlns:xlink="http://www.w3.org/1999/xlink" x="0px" y="0px"
	 viewBox="0 0 491.525 491.525" style="enable-background:new 0 0 491.525 491.525;" xml:space="preserve">
<rect x="24.788" y="469.401" style="fill:#E56353;" width="441.958" height="22.124"/>
<path style="fill:#EBF0F3;" d="M196.707,251.68v76.319h98.112v-76.36c0-31.808,11.034-62.486,30.717-87.469
	c13.593-17.253,21.705-39.022,21.705-62.693c0-59.853-51.817-107.604-113.038-100.837c-44.804,4.949-82.012,40.492-88.727,85.068
	c-4.393,29.16,3.644,56.411,19.605,77.29C184.714,188.678,196.707,219.353,196.707,251.68z"/>
<path style="fill:#E1E6E9;" d="M185.163,327.999c-18.061,0-32.703,14.642-32.703,32.703h186.604
	c0-18.061-14.643-32.703-32.704-32.703h-11.542h-98.112H185.163z"/>
<polygon style="fill:#F6C358;" points="491.522,360.702 0.002,360.702 0.002,469.395 29.211,469.395 462.314,469.395 
	491.522,469.395 "/>
<g>
</g>
<g>
</g>
<g>
</g>
<g>
</g>
<g>
</g>
<g>
</g>
<g>
</g>
<g>
</g>
<g>
</g>
<g>
</g>
<g>
</g>
<g>
</g>
<g>
</g>
<g>
</g>
<g>
</g>
</svg>
