<?xml version="1.0" encoding="iso-8859-1"?>
<!-- Generator: Adobe Illustrator 19.0.0, SVG Export Plug-In . SVG Version: 6.00 Build 0)  -->
<svg version="1.1" id="Layer_1" xmlns="http://www.w3.org/2000/svg" xmlns:xlink="http://www.w3.org/1999/xlink" x="0px" y="0px"
	 viewBox="0 0 491.52 491.52" style="enable-background:new 0 0 491.52 491.52;" xml:space="preserve">
<path style="fill:#EBF0F3;" d="M82.853,54.22c0,103.933,70.23,188.352,157.831,191.538c-87.6,3.187-157.831,87.609-157.831,191.542
	H245.76V54.22H82.853z"/>
<path style="fill:#D5D6DB;" d="M250.837,245.758c87.6-3.186,157.829-87.605,157.829-191.538H245.76V437.3h162.906
	C408.666,333.367,338.437,248.945,250.837,245.758z"/>
<path style="fill:#FCD462;" d="M217.117,128.49c-10.124-1.359-20.049-4.619-30.224-5.245c-18.417-1.139-36.308,6.353-54.355,10.832
	c-8.096,2.01-16.31,3.29-24.556,4.091c25.562,57.931,76.549,97.856,135.511,98.863c-1.675,3.022-3.165,7.178-4.817,9.848
	c-4.808,7.772-11.448,13.275-16.124,21.217c-6.923,11.754-8.888,27.319-15.355,39.504c-4.166,7.848-10.037,13.974-14.248,21.785
	c-4.113,7.628-6.512,16.619-10.584,24.286c-4.133,7.778-9.83,13.902-14.736,20.891c-13.225,18.84-20.569,43.591-33.464,62.739
	H245.76V128.577C236.195,129.331,226.623,129.768,217.117,128.49z"/>
<path style="fill:#F6C358;" d="M356.315,416.448c-3.488-4.632-8.456-7.584-10.763-13.325c-2.062-5.124-1.661-11.781-4.614-16.124
	c-3.525-5.177-10.076-4.555-14.305-8.766c-5.093-5.071-5.294-15.445-10.15-20.891c-2.579-2.89-6.3-4.167-8.106-7.913
	c-1.334-2.775-1.288-6.25-1.791-9.451c-1.78-11.324-10.184-18.487-17.813-24.499c-3.56-2.806-7.179-5.714-9.82-9.89
	c-1.711-2.706-2.95-5.847-4.174-8.963c-4.039-10.27-8.078-20.545-12.117-30.817c-3.287-8.357-6.345-21.55-11.146-28.94
	c61.313-2.661,113.576-47.33,136.724-110.277c-43.37-1.444-86.808-2.679-130.079,0.951c-4.128,0.347-8.265,0.71-12.402,1.035V437.3
	h116.2C362.563,429.844,360.341,421.796,356.315,416.448z"/>
<path style="fill:#3A556A;" d="M437.602,27.109C437.602,12.138,427.294,0,414.581,0H245.76v54.22h168.821
	C427.294,54.22,437.602,42.08,437.602,27.109z"/>
<g>
	<path style="fill:#64798A;" d="M76.939,0C64.225,0,53.918,12.138,53.918,27.109c0,14.972,10.307,27.111,23.021,27.111H245.76V0
		H76.939z"/>
	<path style="fill:#64798A;" d="M76.939,437.3c-12.714,0-23.021,12.137-23.021,27.111c0,14.971,10.307,27.109,23.021,27.109H245.76
		V437.3H76.939z"/>
</g>
<path style="fill:#3A556A;" d="M414.581,437.3H245.76v54.22h168.821c12.713,0,23.021-12.138,23.021-27.109
	C437.602,449.437,427.294,437.3,414.581,437.3z"/>
<g>
</g>
<g>
</g>
<g>
</g>
<g>
</g>
<g>
</g>
<g>
</g>
<g>
</g>
<g>
</g>
<g>
</g>
<g>
</g>
<g>
</g>
<g>
</g>
<g>
</g>
<g>
</g>
<g>
</g>
</svg>
