<?xml version="1.0" encoding="iso-8859-1"?>
<!-- Generator: Adobe Illustrator 19.0.0, SVG Export Plug-In . SVG Version: 6.00 Build 0)  -->
<svg version="1.1" id="Layer_1" xmlns="http://www.w3.org/2000/svg" xmlns:xlink="http://www.w3.org/1999/xlink" x="0px" y="0px"
	 viewBox="0 0 491.52 491.52" style="enable-background:new 0 0 491.52 491.52;" xml:space="preserve">
<path style="fill:#E56353;" d="M316.427,311.443c0-11.483-1.542-22.581-4.16-33.257l36.414-29.618l-31.364-54.325l-43.835,16.716
	c-16.032-15.39-35.705-26.959-57.636-33.31l-7.434-46.282h-62.729l-7.434,46.283c-21.932,6.35-41.603,17.92-57.636,33.31
	L36.78,194.243L5.416,248.568l36.415,29.619c-2.618,10.676-4.16,21.773-4.16,33.256c0,11.483,1.542,22.58,4.16,33.256l-36.415,29.62
	l31.364,54.325l43.835-16.717c16.032,15.389,35.704,26.959,57.636,33.31l7.434,46.283h62.729l7.434-46.283
	c21.932-6.35,41.605-17.921,57.637-33.31l43.835,16.717l31.364-54.325L312.267,344.7
	C314.886,334.024,316.427,322.927,316.427,311.443z M177.049,407.097c-52.829,0-95.654-42.826-95.654-95.654
	s42.826-95.654,95.654-95.654c52.828,0,95.653,42.826,95.653,95.654S229.877,407.097,177.049,407.097z"/>
<path style="fill:#D15241;" d="M177.049,215.789c-52.829,0-95.654,42.826-95.654,95.654s42.826,95.654,95.654,95.654
	c52.828,0,95.653-42.826,95.653-95.654S229.877,215.789,177.049,215.789z M177.049,392.322c-44.669,0-80.879-36.211-80.879-80.879
	s36.211-80.878,80.879-80.878c44.668,0,80.878,36.21,80.878,80.878S221.718,392.322,177.049,392.322z"/>
<path style="fill:#44C4A1;" d="M465.415,115.506c0-7.366-0.988-14.485-2.669-21.332l23.358-18.999l-20.118-34.845l-28.117,10.722
	c-10.284-9.872-22.902-17.293-36.969-21.366L396.131,0h-40.236l-4.769,29.687c-14.067,4.074-26.686,11.495-36.969,21.367
	L286.04,40.331l-20.118,34.845l23.358,18.999c-1.679,6.848-2.669,13.966-2.669,21.332c0,7.366,0.989,14.484,2.669,21.332
	l-23.358,18.999l20.118,34.846l28.117-10.723c10.284,9.872,22.902,17.293,36.969,21.366l4.769,29.688h40.236l4.768-29.688
	c14.068-4.073,26.687-11.494,36.97-21.366l28.117,10.723l20.118-34.846l-23.358-18.999
	C464.427,129.991,465.415,122.872,465.415,115.506z M376.014,176.861c-33.886,0-61.356-27.47-61.356-61.355
	s27.47-61.355,61.356-61.355c33.885,0,61.355,27.47,61.355,61.355S409.899,176.861,376.014,176.861z"/>
<path style="fill:#3EA69B;" d="M376.014,54.151c-33.886,0-61.356,27.47-61.356,61.355s27.47,61.355,61.356,61.355
	c33.885,0,61.355-27.47,61.355-61.355S409.899,54.151,376.014,54.151z M376.014,167.385c-28.652,0-51.879-23.227-51.879-51.879
	c0-28.651,23.227-51.878,51.879-51.878c28.651,0,51.878,23.227,51.878,51.878C427.891,144.158,404.665,167.385,376.014,167.385z"/>
<g>
</g>
<g>
</g>
<g>
</g>
<g>
</g>
<g>
</g>
<g>
</g>
<g>
</g>
<g>
</g>
<g>
</g>
<g>
</g>
<g>
</g>
<g>
</g>
<g>
</g>
<g>
</g>
<g>
</g>
</svg>
