<?xml version="1.0" encoding="iso-8859-1"?>
<!-- Generator: Adobe Illustrator 19.0.0, SVG Export Plug-In . SVG Version: 6.00 Build 0)  -->
<svg version="1.1" id="Layer_1" xmlns="http://www.w3.org/2000/svg" xmlns:xlink="http://www.w3.org/1999/xlink" x="0px" y="0px"
	 viewBox="0 0 491.519 491.519" style="enable-background:new 0 0 491.519 491.519;" xml:space="preserve">
<path style="fill:#DC8744;" d="M399.398,220.824h-19.802h-47.753h-86.083h-86.077h-47.753H92.122
	c-15.658,0-28.35,12.692-28.35,28.349v213.996c0,15.657,12.692,28.349,28.35,28.349h153.637h153.638
	c15.657,0,28.35-12.692,28.35-28.349V249.173C427.747,233.516,415.055,220.824,399.398,220.824z"/>
<path style="fill:#3A556A;" d="M245.763,47.753c47.467,0,86.08,38.613,86.08,86.08v69.744h47.753v-69.744
	C379.596,60.039,319.558,0,245.763,0h-0.003v47.753C245.759,47.753,245.763,47.753,245.763,47.753z"/>
<path style="fill:#64798A;" d="M228.436,49.505c5.596-1.149,11.391-1.752,17.323-1.752V0
	c-73.793,0.002-133.83,60.039-133.83,133.834v1.436h47.753v-1.436c0-23.734,9.653-45.254,25.24-60.841
	c3.897-3.897,8.164-7.423,12.744-10.519C206.828,56.281,217.238,51.803,228.436,49.505z"/>
<path style="fill:#FCD462;" d="M159.682,203.577h-47.753H92.122c-15.658,0-28.35,12.692-28.35,28.349v213.996
	c0,15.657,12.692,28.349,28.35,28.349h153.637V203.577H159.682z"/>
<path style="fill:#F6C358;" d="M399.398,203.577h-19.802h-47.753h-86.083v270.695h153.638c15.657,0,28.35-12.692,28.35-28.349
	V231.927C427.747,216.27,415.055,203.577,399.398,203.577z"/>
<path style="fill:#DC8744;" d="M278.164,297.611c0-17.896-14.508-32.405-32.405-32.405s-32.405,14.508-32.405,32.405
	c0,11.505,6.035,21.547,15.072,27.297l-9.665,46.047h53.994l-9.663-46.048C272.129,319.158,278.164,309.116,278.164,297.611z"/>
<g>
</g>
<g>
</g>
<g>
</g>
<g>
</g>
<g>
</g>
<g>
</g>
<g>
</g>
<g>
</g>
<g>
</g>
<g>
</g>
<g>
</g>
<g>
</g>
<g>
</g>
<g>
</g>
<g>
</g>
</svg>
