<?xml version="1.0" encoding="iso-8859-1"?>
<!-- Generator: Adobe Illustrator 19.0.0, SVG Export Plug-In . SVG Version: 6.00 Build 0)  -->
<svg version="1.1" id="Layer_1" xmlns="http://www.w3.org/2000/svg" xmlns:xlink="http://www.w3.org/1999/xlink" x="0px" y="0px"
	 viewBox="0 0 491.52 491.52" style="enable-background:new 0 0 491.52 491.52;" xml:space="preserve">
<polygon style="fill:#FCD462;" points="245.76,0 0,181.44 245.76,364.123 491.52,181.44 "/>
<rect x="55.803" y="80.415" style="fill:#FFFFFF;" width="379.904" height="323.379"/>
<g>
	<rect x="93.082" y="129.331" style="fill:#EBF0F3;" width="298.752" height="13.404"/>
	<rect x="93.082" y="188.611" style="fill:#EBF0F3;" width="298.752" height="13.404"/>
	<rect x="93.082" y="247.91" style="fill:#EBF0F3;" width="298.752" height="13.404"/>
	<rect x="93.082" y="307.2" style="fill:#EBF0F3;" width="298.752" height="13.404"/>
</g>
<g>
	<polygon style="fill:#F6C358;" points="0,181.439 0,491.52 199.355,343.329 	"/>
	<polygon style="fill:#F6C358;" points="292.164,343.329 491.52,491.52 491.52,181.439 	"/>
</g>
<polygon style="fill:#FCD462;" points="245.76,381.013 199.355,343.329 0,491.52 491.52,491.52 292.164,343.329 "/>
<polygon style="fill:#DC8744;" points="245.76,381.013 292.164,343.329 491.52,181.439 245.76,364.123 0,181.439 199.355,343.329 
	"/>
<g>
</g>
<g>
</g>
<g>
</g>
<g>
</g>
<g>
</g>
<g>
</g>
<g>
</g>
<g>
</g>
<g>
</g>
<g>
</g>
<g>
</g>
<g>
</g>
<g>
</g>
<g>
</g>
<g>
</g>
</svg>
