<?xml version="1.0" encoding="iso-8859-1"?>
<!-- Generator: Adobe Illustrator 19.0.0, SVG Export Plug-In . SVG Version: 6.00 Build 0)  -->
<svg version="1.1" id="Layer_1" xmlns="http://www.w3.org/2000/svg" xmlns:xlink="http://www.w3.org/1999/xlink" x="0px" y="0px"
	 viewBox="0 0 491.52 491.52" style="enable-background:new 0 0 491.52 491.52;" xml:space="preserve">
<path style="fill:#EBF0F3;" d="M387.734,0H103.787C94.63,0,87.205,7.424,87.205,16.581v458.358c0,9.157,7.425,16.581,16.582,16.581
	h283.947c9.157,0,16.581-7.424,16.581-16.581V16.581C404.315,7.424,396.891,0,387.734,0z"/>
<rect x="114.017" y="39.25" style="fill:#64798A;" width="263.475" height="368.691"/>
<rect x="114.017" y="394.906" style="fill:#3A556A;" width="263.475" height="13.041"/>
<g>
	<path style="fill:#64798A;" d="M245.759,472.575c-13.065,0-23.694-10.629-23.694-23.694c0-13.074,10.629-23.704,23.694-23.704
		c13.069,0,23.699,10.63,23.699,23.704C269.458,461.946,258.828,472.575,245.759,472.575z M245.759,434.114
		c-8.138,0-14.757,6.624-14.757,14.767c0,8.133,6.619,14.757,14.757,14.757c8.139,0,14.762-6.624,14.762-14.757
		C260.521,440.738,253.897,434.114,245.759,434.114z"/>
	<path style="fill:#64798A;" d="M266.142,23.539h-40.76c-2.47,0-4.468-1.998-4.468-4.468c0-2.469,1.998-4.468,4.468-4.468h40.76
		c2.47,0,4.468,1.999,4.468,4.468C270.61,21.541,268.612,23.539,266.142,23.539z"/>
	<circle style="fill:#64798A;" cx="198.989" cy="19.072" r="4.47"/>
</g>
<g>
</g>
<g>
</g>
<g>
</g>
<g>
</g>
<g>
</g>
<g>
</g>
<g>
</g>
<g>
</g>
<g>
</g>
<g>
</g>
<g>
</g>
<g>
</g>
<g>
</g>
<g>
</g>
<g>
</g>
</svg>
