<?xml version="1.0" encoding="iso-8859-1"?>
<!-- Generator: Adobe Illustrator 19.0.0, SVG Export Plug-In . SVG Version: 6.00 Build 0)  -->
<svg version="1.1" id="Layer_1" xmlns="http://www.w3.org/2000/svg" xmlns:xlink="http://www.w3.org/1999/xlink" x="0px" y="0px"
	 viewBox="0 0 491.52 491.52" style="enable-background:new 0 0 491.52 491.52;" xml:space="preserve">
<path style="fill:#FCD462;" d="M138.097,251.626V140.768H19.253C8.62,140.768,0,149.391,0,160.02v192.533
	c0,10.634,8.62,19.252,19.253,19.252h33.922v70.198c0,8.605,10.404,12.914,16.489,6.829l77.027-77.027h169.61
	c10.633,0,19.253-8.619,19.253-19.252v-63.801H175.223C154.749,288.752,138.097,272.101,138.097,251.626z"/>
<path style="fill:#F6C358;" d="M316.301,140.768H138.097v110.858c0,20.475,16.651,37.126,37.125,37.126h160.332V160.02
	C335.555,149.391,326.934,140.768,316.301,140.768z"/>
<path style="fill:#44C4A1;" d="M175.219,39.839h297.048c10.634,0,19.253,8.62,19.253,19.252v192.532
	c0,10.633-8.62,19.252-19.253,19.252h-33.922v70.196c0,8.605-10.404,12.915-16.489,6.83l-77.026-77.027H175.219
	c-10.633,0-19.252-8.619-19.252-19.252V59.092C155.966,48.46,164.586,39.839,175.219,39.839z"/>
<g>
	<circle style="fill:#FFFFFF;" cx="233.482" cy="151.537" r="23.066"/>
	<circle style="fill:#FFFFFF;" cx="323.738" cy="151.537" r="23.066"/>
	<circle style="fill:#FFFFFF;" cx="414.003" cy="151.537" r="23.066"/>
</g>
<g>
</g>
<g>
</g>
<g>
</g>
<g>
</g>
<g>
</g>
<g>
</g>
<g>
</g>
<g>
</g>
<g>
</g>
<g>
</g>
<g>
</g>
<g>
</g>
<g>
</g>
<g>
</g>
<g>
</g>
</svg>
