<?xml version="1.0" encoding="iso-8859-1"?>
<!-- Generator: Adobe Illustrator 19.0.0, SVG Export Plug-In . SVG Version: 6.00 Build 0)  -->
<svg version="1.1" id="Layer_1" xmlns="http://www.w3.org/2000/svg" xmlns:xlink="http://www.w3.org/1999/xlink" x="0px" y="0px"
	 viewBox="0 0 491.52 491.52" style="enable-background:new 0 0 491.52 491.52;" xml:space="preserve">
<path style="fill:#64798A;" d="M252.463,408.791v-76.178h-13.405v76.178c-19.801,3.232-35.001,20.319-35.001,41.021
	c0,22.996,18.706,41.708,41.703,41.708c22.996,0,41.703-18.712,41.703-41.708C287.463,429.111,272.264,412.022,252.463,408.791z
	 M245.76,478.115c-15.604,0-28.298-12.698-28.298-28.303c0-15.604,12.694-28.294,28.298-28.294s28.298,12.689,28.298,28.294
	C274.058,465.417,261.364,478.115,245.76,478.115z"/>
<g>
	<path style="fill:#3A556A;" d="M485.721,0H5.799C2.596,0,0,2.595,0,5.798v44.629c0,3.202,2.596,5.797,5.799,5.797h479.922
		c3.203,0,5.799-2.595,5.799-5.797V5.798C491.52,2.595,488.924,0,485.721,0z"/>
	<path style="fill:#3A556A;" d="M485.721,323.028H5.799c-3.203,0-5.799,2.595-5.799,5.797v7.579c0,3.203,2.596,5.798,5.799,5.798
		h479.922c3.203,0,5.799-2.595,5.799-5.798v-7.579C491.52,325.623,488.924,323.028,485.721,323.028z"/>
</g>
<rect x="24.97" y="56.228" style="fill:#EBF0F3;" width="441.6" height="266.803"/>
<circle style="fill:#E56353;" cx="245.76" cy="189.645" r="86.083"/>
<path style="fill:#FFFFFF;" d="M277.834,185.953l-48.216-40.526c-3.122-2.623-7.885-0.404-7.885,3.674v81.053
	c0,4.078,4.763,6.297,7.885,3.672l48.216-40.527C280.115,191.381,280.115,187.87,277.834,185.953z"/>
<g>
</g>
<g>
</g>
<g>
</g>
<g>
</g>
<g>
</g>
<g>
</g>
<g>
</g>
<g>
</g>
<g>
</g>
<g>
</g>
<g>
</g>
<g>
</g>
<g>
</g>
<g>
</g>
<g>
</g>
</svg>
