<?xml version="1.0" encoding="iso-8859-1"?>
<!-- Generator: Adobe Illustrator 19.0.0, SVG Export Plug-In . SVG Version: 6.00 Build 0)  -->
<svg version="1.1" id="Layer_1" xmlns="http://www.w3.org/2000/svg" xmlns:xlink="http://www.w3.org/1999/xlink" x="0px" y="0px"
	 viewBox="0 0 491.52 491.52" style="enable-background:new 0 0 491.52 491.52;" xml:space="preserve">
<path style="fill:#64798A;" d="M163.545,305.548c0,0,0.259,0.294,0.389,0.441c4.071-2.903,7.324-5.913,9.84-8.739
	c5.492-6.16,8.381-14.212,8.381-22.465v-5.1c-23.726-30.128-39.09-76.403-39.09-128.658c0,0,2.048-34.817,38.23-38.23h32.91
	c8.328,0,16.621-1.116,24.627-3.414c8.473-2.432,18.616-6.458,26.431-12.97l61.44,20.48c0,0,19.115,12.971,21.845,34.133
	c0,52.314-15.398,98.631-39.168,128.757v5.002c0,8.253,2.889,16.305,8.381,22.465c2.517,2.824,5.769,5.836,9.829,8.738
	c0.129-0.146,0.388-0.44,0.388-0.44l2.916,3.469l35.572,19.209h2.299V71.252c0-3.302-0.546-6.588-1.635-9.704
	c-8.976-25.72-30.694-28.822-30.694-28.822c2.779-14.396-1.642-22.578-6.755-27.16C325.553,1.87,320.105,0,314.566,0h-93.831
	c-53.883,0-97.97,44.087-97.97,97.97v230.257h2.292l35.571-19.209L163.545,305.548z"/>
<path style="fill:#F6C358;" d="M317.76,297.25c-5.492-6.16-8.381-14.212-8.381-22.465v-5.002c-0.781,0.991-1.49,2.116-2.29,3.071
	c-17.122,20.444-38.283,32.695-61.284,32.695c-23.035,0-44.226-12.288-61.361-32.789c-0.799-0.955-1.509-2.083-2.29-3.075v5.1
	c0,8.253-2.889,16.305-8.381,22.465c-2.517,2.826-5.77,5.837-9.84,8.739c0.397,0.448,1.183,1.344,2.581,3.041
	c4.21,5.118,12.671,16.187,22.875,33.439c17.502,6.784,36.473,10.595,56.373,10.595c19.897,0,38.868-3.812,56.368-10.595
	c10.207-17.255,18.669-28.325,22.879-33.441c1.398-1.699,2.184-2.593,2.579-3.039C323.528,303.086,320.276,300.074,317.76,297.25z"
	/>
<path style="fill:#FCD462;" d="M245.806,305.548c23,0,44.162-12.251,61.284-32.695c0.8-0.954,1.509-2.08,2.29-3.071
	c23.77-30.126,39.168-76.443,39.168-128.757c-2.73-21.162-21.845-34.133-21.845-34.133l-61.44-20.48
	c-7.814,6.512-17.958,10.538-26.431,12.97c-8.006,2.298-16.299,3.414-24.627,3.414h-32.91c-36.181,3.413-38.23,38.23-38.23,38.23
	c0,52.256,15.364,98.53,39.09,128.658c0.781,0.992,1.491,2.12,2.29,3.075C201.58,293.26,222.77,305.548,245.806,305.548z"/>
<path style="fill:#44C4A1;" d="M203.027,367.661c14.866,29.833,30.992,70.744,42.733,123.842
	c11.772-53.232,27.95-94.219,42.846-124.071c-13.723,3.492-28.021,5.537-42.844,5.537
	C231.006,372.97,216.706,371.098,203.027,367.661z"/>
<path style="fill:#31978C;" d="M189.389,342.469c4.298,7.265,8.897,15.68,13.637,25.193c13.679,3.437,27.98,5.308,42.735,5.308
	c14.823,0,29.121-2.046,42.844-5.537c4.701-9.42,9.261-17.755,13.524-24.964c-17.5,6.784-36.471,10.595-56.368,10.595
	C225.862,353.064,206.891,349.253,189.389,342.469z"/>
<path style="fill:#3A556A;" d="M168.783,400.807c-5.732-6.753-0.791-17.108,8.064-16.903l6.494,0.151l-38.877-41.821
	c-3.528-3.796-3.673-9.628-0.338-13.595l16.501-19.621l-35.571,19.209l-46.979,25.37c0,0-35.333,22.084-35.333,56.68v81.243h203.011
	c0-0.002,0.001-0.004,0.001-0.004L168.783,400.807z"/>
<path style="fill:#EBF0F3;" d="M203.027,367.661c-4.74-9.513-9.34-17.928-13.637-25.193c-10.203-17.251-18.665-28.32-22.875-33.439
	c-1.398-1.697-2.184-2.593-2.581-3.041c-0.13-0.147-0.389-0.441-0.389-0.441l-2.917,3.469l-16.501,19.621
	c-3.335,3.967-3.19,9.798,0.338,13.595l38.877,41.821l-6.494-0.151c-8.855-0.205-13.797,10.15-8.064,16.903l76.975,90.707
	l0.003-0.007C234.018,438.405,217.893,397.495,203.027,367.661z"/>
<path style="fill:#3A556A;" d="M413.442,353.597l-46.978-25.37l-35.572-19.209l16.501,19.621c3.336,3.967,3.19,9.798-0.339,13.595
	l-38.876,41.821l6.494-0.151c8.855-0.205,13.796,10.15,8.064,16.903l-76.981,90.713h0.008h203.01v-81.243
	C448.775,375.68,413.442,353.597,413.442,353.597z"/>
<path style="fill:#EBF0F3;" d="M314.673,383.904l-6.494,0.151l38.876-41.821c3.529-3.796,3.675-9.628,0.339-13.595l-16.501-19.621
	l-2.916-3.469c0,0-0.259,0.294-0.388,0.44c-0.395,0.446-1.181,1.34-2.579,3.039c-4.21,5.116-12.672,16.186-22.879,33.441
	c-4.263,7.208-8.823,15.544-13.524,24.964c-14.897,29.852-31.075,70.84-42.846,124.071l-0.003,0.01c0,0-0.001,0.004-0.001,0.006
	l76.981-90.713C328.469,394.054,323.528,383.699,314.673,383.904z"/>
<g>
</g>
<g>
</g>
<g>
</g>
<g>
</g>
<g>
</g>
<g>
</g>
<g>
</g>
<g>
</g>
<g>
</g>
<g>
</g>
<g>
</g>
<g>
</g>
<g>
</g>
<g>
</g>
<g>
</g>
</svg>
