<?xml version="1.0" encoding="iso-8859-1"?>
<!-- Generator: Adobe Illustrator 19.0.0, SVG Export Plug-In . SVG Version: 6.00 Build 0)  -->
<svg version="1.1" id="Layer_1" xmlns="http://www.w3.org/2000/svg" xmlns:xlink="http://www.w3.org/1999/xlink" x="0px" y="0px"
	 viewBox="0 0 491.52 491.52" style="enable-background:new 0 0 491.52 491.52;" xml:space="preserve">
<path style="fill:#E56353;" d="M448.131,299.732c-23.799,90.831-106.567,158.044-204.758,158.044
	c-116.708,0-211.653-94.945-211.653-211.653S126.665,34.469,243.373,34.469c96.72,0,178.433,65.235,203.606,153.998h32.835
	C453.914,81.897,357.912,2.75,243.373,2.75C108.962,2.75,0,111.712,0,246.123s108.962,243.373,243.373,243.373
	c115.992,0,212.964-81.171,237.382-189.789L448.131,299.732z"/>
<path style="fill:#FFFFFF;" d="M418.292,287.594c-18.803,79.255-89.998,138.464-174.919,138.464
	c-99.214,0-179.935-80.722-179.935-179.935c0-99.214,80.721-179.935,179.935-179.935c83.676,0,153.992,57.502,174.028,135.007
	l9.808-12.729h19.771C421.806,99.704,340.093,34.469,243.373,34.469c-116.708,0-211.653,94.946-211.653,211.654
	s94.945,211.653,211.653,211.653c98.191,0,180.96-67.213,204.758-158.044l-20.436,0.016L418.292,287.594z"/>
<path style="fill:#E56353;" d="M243.373,66.189c-99.214,0-179.935,80.721-179.935,179.935c0,99.213,80.721,179.935,179.935,179.935
	c84.92,0,156.116-59.208,174.919-138.464l-27.028-34.927h-0.005c-3.461,78.677-68.37,141.672-147.885,141.672
	c-81.725,0-148.216-66.492-148.216-148.217S161.648,97.907,243.373,97.907c78.105,0,142.14,60.773,147.673,137.492l26.354-34.204
	C397.365,123.691,327.049,66.189,243.373,66.189z"/>
<path style="fill:#FFFFFF;" d="M243.373,362.621c-64.236,0-116.497-52.261-116.497-116.497s52.261-116.498,116.497-116.498
	c60.787,0,110.778,46.819,115.98,106.277h31.305l0.388-0.503c-5.534-76.719-69.568-137.492-147.673-137.492
	c-81.725,0-148.216,66.492-148.216,148.217S161.648,394.34,243.373,394.34c79.515,0,144.424-62.995,147.885-141.672l-31.719,0.011
	C356.108,313.86,305.397,362.621,243.373,362.621z"/>
<path style="fill:#E56353;" d="M243.373,129.625c-64.236,0-116.497,52.262-116.497,116.498s52.261,116.497,116.497,116.497
	c62.024,0,112.735-48.761,116.166-109.942l-31.719,0.011c-3.373,43.682-39.915,78.213-84.447,78.213
	c-46.748,0-84.779-38.031-84.779-84.779s38.031-84.779,84.779-84.779c43.282,0,79.03,32.622,84.101,74.558h31.879
	C354.151,176.444,304.16,129.625,243.373,129.625z"/>
<path style="fill:#FFFFFF;" d="M243.373,299.183c-29.26,0-53.06-23.801-53.06-53.06c0-29.26,23.8-53.06,53.06-53.06
	c25.762,0,47.272,18.458,52.051,42.839h32.05c-5.071-41.936-40.819-74.558-84.101-74.558c-46.748,0-84.779,38.031-84.779,84.779
	s38.031,84.779,84.779,84.779c44.532,0,81.074-34.531,84.447-78.213l-31.838,0.012C292.726,278.86,270.4,299.183,243.373,299.183z"
	/>
<path style="fill:#E56353;" d="M243.373,193.063c-29.26,0-53.06,23.8-53.06,53.06c0,29.259,23.8,53.06,53.06,53.06
	c27.027,0,49.353-20.323,52.609-46.483l-50.817,0.017v-16.815h50.259C290.645,211.521,269.135,193.063,243.373,193.063z"/>
<path style="fill:#D15241;" d="M455.026,246.123c0,18.517-2.407,36.48-6.895,53.609l32.624-0.025
	c3.877-17.249,5.991-35.164,5.991-53.584c0-19.872-2.438-39.166-6.931-57.656h-32.835
	C452.181,206.811,455.026,226.135,455.026,246.123z"/>
<path style="fill:#EBF0F3;" d="M446.979,188.467h-19.771l-9.808,12.729c3.72,14.391,5.907,29.391,5.907,44.928
	c0,14.292-1.853,28.132-5.016,41.471l9.404,12.154l20.436-0.016c4.488-17.129,6.895-35.092,6.895-53.609
	C455.026,226.135,452.181,206.811,446.979,188.467z"/>
<path style="fill:#D15241;" d="M391.59,246.123c0,2.209-0.236,4.358-0.332,6.544h0.005l27.028,34.927
	c3.164-13.339,5.016-27.178,5.016-41.471c0-15.537-2.187-30.537-5.907-44.928l-26.354,34.204
	C391.303,238.954,391.59,242.504,391.59,246.123z"/>
<path style="fill:#EBF0F3;" d="M391.046,235.399l-0.388,0.503h-31.305c0.295,3.375,0.517,6.77,0.517,10.221
	c0,2.212-0.209,4.373-0.331,6.555l31.719-0.011c0.096-2.186,0.332-4.335,0.332-6.544
	C391.59,242.504,391.303,238.954,391.046,235.399z"/>
<path style="fill:#D15241;" d="M328.152,246.123c0,2.216-0.164,4.391-0.332,6.566l31.719-0.011c0.122-2.182,0.331-4.343,0.331-6.555
	c0-3.45-0.223-6.846-0.517-10.221h-31.879C327.88,239.261,328.152,242.658,328.152,246.123z"/>
<path style="fill:#EBF0F3;" d="M327.474,235.902h-32.05c0.649,3.31,1.01,6.723,1.01,10.221c0,2.231-0.183,4.417-0.452,6.577
	l31.838-0.012c0.168-2.174,0.332-4.349,0.332-6.566C328.152,242.658,327.88,239.261,327.474,235.902z"/>
<path style="fill:#D15241;" d="M245.165,252.718l50.817-0.017c0.269-2.16,0.452-4.346,0.452-6.577c0-3.498-0.361-6.911-1.01-10.221
	h-50.259V252.718z"/>
<path style="fill:#64798A;" d="M419.021,62.641L243.326,238.335c-3.281,3.282-3.281,8.602,0,11.882l0,0
	c3.281,3.282,8.601,3.282,11.882,0L430.902,74.523c3.282-3.282,3.282-8.601,0-11.882C427.621,59.36,422.302,59.359,419.021,62.641z"
	/>
<g>
	<polygon style="fill:#3A556A;" points="412.629,2.024 332.637,82.015 340.26,141.402 420.25,61.41 	"/>
	<polygon style="fill:#3A556A;" points="491.52,80.914 411.529,160.905 352.142,153.284 432.133,73.292 	"/>
</g>
<g>
</g>
<g>
</g>
<g>
</g>
<g>
</g>
<g>
</g>
<g>
</g>
<g>
</g>
<g>
</g>
<g>
</g>
<g>
</g>
<g>
</g>
<g>
</g>
<g>
</g>
<g>
</g>
<g>
</g>
</svg>
