<?xml version="1.0" encoding="iso-8859-1"?>
<!-- Generator: Adobe Illustrator 19.0.0, SVG Export Plug-In . SVG Version: 6.00 Build 0)  -->
<svg xmlns="http://www.w3.org/2000/svg" xmlns:xlink="http://www.w3.org/1999/xlink" version="1.1" id="Layer_1" x="0px" y="0px" viewBox="0 0 512 512" style="enable-background:new 0 0 512 512;" xml:space="preserve">
<path style="fill:#E8EAE9;" d="M480,481.067H32c-18.133,0-32-13.867-32-32V62.933c0-18.133,13.867-32,32-32h448  c18.133,0,32,13.867,32,32v386.133C512,467.2,498.133,481.067,480,481.067z"/>
<path style="fill:#F3705A;" d="M65.067,353.067c-29.867-88.533-29.867-176,0-264.533c128-20.267,254.933-20.267,382.933,0  c29.867,88.533,29.867,176,0,264.533C320,373.333,192,373.333,65.067,353.067z"/>
<g>
	<path style="fill:#FFFFFF;" d="M305.067,211.2l-85.333-61.867c-7.467-5.333-18.133,0-18.133,9.6v123.733   c0,9.6,10.667,14.933,18.133,9.6l85.333-61.867C311.467,225.067,311.467,216.533,305.067,211.2z"/>
	<path style="fill:#FFFFFF;" d="M453.333,440.533H58.667c-8.533,0-16-7.467-16-16l0,0c0-8.533,7.467-16,16-16h394.667   c8.533,0,16,7.467,16,16l0,0C469.333,434.133,461.867,440.533,453.333,440.533z"/>
</g>
<path style="fill:#415A6B;" d="M152.533,408.533H58.667c-8.533,0-16,7.467-16,16s7.467,16,16,16h93.867V408.533z"/>
<circle style="fill:#8AD7F8;" cx="152.533" cy="424.533" r="32"/>
<circle style="fill:#55C0EB;" cx="152.533" cy="424.533" r="16"/>
<g>
</g>
<g>
</g>
<g>
</g>
<g>
</g>
<g>
</g>
<g>
</g>
<g>
</g>
<g>
</g>
<g>
</g>
<g>
</g>
<g>
</g>
<g>
</g>
<g>
</g>
<g>
</g>
<g>
</g>
</svg>
