<?xml version="1.0" encoding="iso-8859-1"?>
<!-- Generator: Adobe Illustrator 19.0.0, SVG Export Plug-In . SVG Version: 6.00 Build 0)  -->
<svg xmlns="http://www.w3.org/2000/svg" xmlns:xlink="http://www.w3.org/1999/xlink" version="1.1" id="Layer_1" x="0px" y="0px" viewBox="0 0 512 512" style="enable-background:new 0 0 512 512;" xml:space="preserve">
<g>
	<path style="fill:#E8EAE9;" d="M422.4,109.867h-34.133l-89.6,177.067c0,58.667,48,106.667,106.667,106.667S512,345.6,512,286.933   L422.4,109.867z M334.933,286.933l70.4-139.733l70.4,139.733H334.933L334.933,286.933z"/>
	<path style="fill:#E8EAE9;" d="M123.733,109.867H89.6L0,286.933C0,345.6,48,393.6,106.667,393.6s106.667-48,106.667-106.667   L123.733,109.867z M36.267,286.933l70.4-139.733l70.4,139.733H36.267L36.267,286.933z"/>
</g>
<g>
	<path style="fill:#415A6B;" d="M281.6,443.733V25.6C281.6,11.733,269.867,0,256,0c-13.867,0-25.6,11.733-25.6,25.6v418.133   L281.6,443.733L281.6,443.733z"/>
	<path style="fill:#415A6B;" d="M106.667,512L106.667,512h298.667l0,0c0-22.4-18.133-41.6-41.6-41.6H147.2   C124.8,470.4,106.667,489.6,106.667,512z"/>
</g>
<path style="fill:#344A5E;" d="M349.867,470.4L349.867,470.4c0-22.4-18.133-41.6-41.6-41.6h-105.6c-22.4,0-41.6,18.133-41.6,41.6  l0,0H349.867z"/>
<path style="fill:#415A6B;" d="M0,102.4L0,102.4c0-13.867,11.733-25.6,25.6-25.6h459.733c13.867,0,25.6,11.733,25.6,25.6l0,0  c0,13.867-11.733,25.6-25.6,25.6H25.6C11.733,128,0,116.267,0,102.4z"/>
<g>
</g>
<g>
</g>
<g>
</g>
<g>
</g>
<g>
</g>
<g>
</g>
<g>
</g>
<g>
</g>
<g>
</g>
<g>
</g>
<g>
</g>
<g>
</g>
<g>
</g>
<g>
</g>
<g>
</g>
</svg>
