<?xml version="1.0" encoding="iso-8859-1"?>
<!-- Generator: Adobe Illustrator 19.0.0, SVG Export Plug-In . SVG Version: 6.00 Build 0)  -->
<svg xmlns="http://www.w3.org/2000/svg" xmlns:xlink="http://www.w3.org/1999/xlink" version="1.1" id="Layer_1" x="0px" y="0px" viewBox="0 0 512 512" style="enable-background:new 0 0 512 512;" xml:space="preserve">
<g>
	<path style="fill:#415A6B;" d="M372.267,512c-10.667-81.067-30.933-85.333-30.933-85.333c-16,3.2-33.067,68.267-37.333,85.333   H372.267z"/>
	<path style="fill:#415A6B;" d="M68.267,512c-4.267-17.067-22.4-82.133-37.333-85.333c0,0-20.267,4.267-30.933,85.333H68.267z"/>
</g>
<path style="fill:#344A5E;" d="M59.733,512h252.8c10.667-44.8,22.4-81.067,28.8-85.333L257.067,387.2l-70.4,22.4l-70.4-22.4  l-85.333,39.467C37.333,430.933,49.067,467.2,59.733,512z"/>
<polygon style="fill:#CED6E0;" points="227.2,512 229.333,395.733 186.667,408.533 144,395.733 145.067,512 "/>
<polygon style="fill:#F3705A;" points="160,512 212.267,512 198.4,453.333 210.133,433.067 186.667,408.533 162.133,433.067   173.867,453.333 "/>
<path style="fill:#E8EAE9;" d="M186.667,408.533c0,0,42.667-26.667,45.867-51.2l16,27.733l-29.867,64L186.667,408.533z"/>
<polygon style="fill:#415A6B;" points="237.867,512 281.6,435.2 257.067,422.4 282.667,411.733 241.067,371.2 206.933,512 "/>
<path style="fill:#E8EAE9;" d="M186.667,408.533c0,0-42.667-26.667-45.867-51.2l-16,27.733l29.867,64L186.667,408.533z"/>
<polygon style="fill:#415A6B;" points="90.667,435.2 134.4,512 165.333,512 131.2,371.2 89.6,411.733 115.2,422.4 "/>
<path style="fill:#F7B64C;" d="M140.8,327.467v28.8c3.2,24.533,45.867,51.2,45.867,51.2s42.667-26.667,45.867-51.2v-28.8H140.8z"/>
<g>
	<path style="fill:#415A6B;" d="M186.667,240c0,38.4-16,69.333-36.267,69.333S112,279.467,110.933,240   c-2.133-40.533,14.933-74.667,36.267-74.667S186.667,199.467,186.667,240z"/>
	<path style="fill:#415A6B;" d="M267.733,231.467c-2.133,42.667-33.067,75.733-70.4,75.733S129.067,274.133,128,231.467   c-1.067-44.8,29.867-82.133,70.4-82.133S269.867,186.667,267.733,231.467z"/>
</g>
<g>
	<path style="fill:#FFD15C;" d="M253.867,234.667c-32-3.2-64-13.867-90.667-30.933c-11.733,19.2-26.667,34.133-46.933,43.733   c-1.067,5.333-1.067,10.667-1.067,16c2.133,48,33.067,85.333,70.4,85.333s68.267-37.333,70.4-85.333   C258.133,253.867,257.067,243.2,253.867,234.667z"/>
	<path style="fill:#FFD15C;" d="M267.733,275.2c-4.267,13.867-12.8,23.467-21.333,22.4c-7.467-1.067-11.733-13.867-7.467-27.733   c3.2-13.867,12.8-24.533,21.333-23.467C267.733,248.533,270.933,261.333,267.733,275.2z"/>
	<path style="fill:#FFD15C;" d="M104.533,275.2c4.267,13.867,12.8,23.467,21.333,22.4c7.467-1.067,11.733-13.867,7.467-27.733   c-3.2-13.867-12.8-24.533-21.333-23.467C104.533,248.533,101.333,261.333,104.533,275.2z"/>
</g>
<path style="fill:#415A6B;" d="M226.133,321.067c-9.6-23.467-36.267-27.733-40.533-27.733s-30.933,4.267-40.533,27.733  c-9.6-6.4-21.333-24.533-29.867-45.867c0,0,3.2,93.867,69.333,93.867c66.133-1.067,69.333-92.8,69.333-93.867  C247.467,296.533,235.733,313.6,226.133,321.067z M201.6,332.8c0,0-18.133,5.333-9.6-5.333c4.267-5.333,3.2-8.533,0-10.667  c-2.133-1.067-4.267-2.133-6.4-2.133c-2.133,0-4.267,1.067-6.4,2.133c-2.133,2.133-4.267,5.333,0,10.667  c9.6,9.6-9.6,5.333-9.6,5.333s-30.933-21.333,14.933-27.733C232.533,312.533,201.6,332.8,201.6,332.8z"/>
<path style="fill:#F3705A;" d="M301.867,272v-71.467c-35.2-20.267-57.6-53.333-57.6-90.667C244.267,49.067,304,0,378.667,0  C452.267,0,512,49.067,512,109.867s-59.733,109.867-133.333,109.867L301.867,272z"/>
<g>
	<circle style="fill:#FFFFFF;" cx="309.333" cy="109.867" r="22.4"/>
	<circle style="fill:#FFFFFF;" cx="378.667" cy="109.867" r="22.4"/>
	<circle style="fill:#FFFFFF;" cx="448" cy="109.867" r="22.4"/>
</g>
<g>
</g>
<g>
</g>
<g>
</g>
<g>
</g>
<g>
</g>
<g>
</g>
<g>
</g>
<g>
</g>
<g>
</g>
<g>
</g>
<g>
</g>
<g>
</g>
<g>
</g>
<g>
</g>
<g>
</g>
</svg>
