<?xml version="1.0" encoding="iso-8859-1"?>
<!-- Generator: Adobe Illustrator 19.0.0, SVG Export Plug-In . SVG Version: 6.00 Build 0)  -->
<svg xmlns="http://www.w3.org/2000/svg" xmlns:xlink="http://www.w3.org/1999/xlink" version="1.1" id="Layer_1" x="0px" y="0px" viewBox="0 0 512 512" style="enable-background:new 0 0 512 512;" xml:space="preserve">
<path style="fill:#2EBEC7;" d="M324.267,230.267L324.267,230.267L324.267,230.267z"/>
<path style="fill:#F3F3F3;" d="M489.6,228.133l-5.333,144c-155.733,27.733-308.267,33.067-457.6,0l-4.267-144l62.933,56.533  l19.2-112l73.6,80L256,111.867l77.867,140.8l73.6-80l19.2,112L489.6,228.133z"/>
<path style="fill:#CED6E0;" d="M27.733,358.267c149.333,33.067,308.267,33.067,457.6,0c0,18.133,0,37.333,0,56.533  c-149.333,33.067-308.267,33.067-457.6,0C27.733,395.6,27.733,376.4,27.733,358.267z"/>
<circle style="fill:#66C6B9;" cx="408.533" cy="183.333" r="26.667"/>
<ellipse transform="matrix(-0.7071 -0.7071 0.7071 -0.7071 558.2552 578.281)" style="fill:#FFFFFF;" cx="398.894" cy="173.522" rx="4.267" ry="8.533"/>
<circle style="fill:#F3705A;" cx="485.333" cy="238.8" r="26.667"/>
<ellipse transform="matrix(-0.7071 -0.7071 0.7071 -0.7071 650.4726 725.6647)" style="fill:#FFFFFF;" cx="475.526" cy="228.115" rx="4.267" ry="8.533"/>
<circle style="fill:#66C6B9;" cx="107.733" cy="183.333" r="26.667"/>
<ellipse transform="matrix(-0.7071 -0.7071 0.7071 -0.7071 42.9099 365.6698)" style="fill:#FFFFFF;" cx="97.188" cy="173.948" rx="4.267" ry="8.533"/>
<circle style="fill:#F3705A;" cx="26.667" cy="238.8" r="26.667"/>
<ellipse transform="matrix(-0.7071 -0.7071 0.7071 -0.7071 -134.3555 401.133)" style="fill:#FFFFFF;" cx="15.9" cy="228.392" rx="4.267" ry="8.533"/>
<circle style="fill:#FFD15C;" cx="256" cy="115.067" r="42.667"/>
<ellipse transform="matrix(-0.7071 -0.7071 0.7071 -0.7071 340.2731 338.6584)" style="fill:#FFFFFF;" cx="240.275" cy="98.856" rx="6.4" ry="13.867"/>
<g>
</g>
<g>
</g>
<g>
</g>
<g>
</g>
<g>
</g>
<g>
</g>
<g>
</g>
<g>
</g>
<g>
</g>
<g>
</g>
<g>
</g>
<g>
</g>
<g>
</g>
<g>
</g>
<g>
</g>
</svg>
