<?xml version="1.0" encoding="iso-8859-1"?>
<!-- Generator: Adobe Illustrator 19.0.0, SVG Export Plug-In . SVG Version: 6.00 Build 0)  -->
<svg xmlns="http://www.w3.org/2000/svg" xmlns:xlink="http://www.w3.org/1999/xlink" version="1.1" id="Layer_1" x="0px" y="0px" viewBox="0 0 512.077 512.077" style="enable-background:new 0 0 512.077 512.077;" xml:space="preserve">
<path style="fill:#F3705A;" d="M212.705,510.61L212.705,510.61c-19.2,5.333-39.467-4.267-46.933-22.4l-56.533-122.667l80-20.267  l50.133,108.8C250.039,476.477,237.239,504.21,212.705,510.61z"/>
<path style="fill:#F3F3F3;" d="M373.772,27.41l90.667,352l0,0c-76.8-46.933-248.533-39.467-248.533-39.467L175.372,181.01  C175.372,181.01,328.972,105.277,373.772,27.41L373.772,27.41z"/>
<g>
	<path style="fill:#415A6B;" d="M487.905,396.477c-11.733,3.2-24.533-4.267-27.733-16l-90.667-352   c-3.2-11.733,4.267-24.533,16-27.733s24.533,4.267,27.733,16l90.667,352C507.105,381.543,500.705,393.277,487.905,396.477z"/>
	<path style="fill:#415A6B;" d="M218.039,354.877L66.572,394.343c-7.467,2.133-14.933-2.133-17.067-9.6l-41.6-161.067   c-2.133-7.467,2.133-14.933,9.6-17.067l151.467-39.467c7.467-2.133,14.933,2.133,17.067,9.6l41.6,161.067   C229.772,345.277,225.505,352.743,218.039,354.877z"/>
</g>
<g>
	<path style="fill:#344A5E;" d="M161.505,217.277L161.505,217.277c-2.133-6.4-8.533-10.667-14.933-8.533l-87.467,22.4   c-6.4,2.133-10.667,8.533-8.533,14.933l0,0c2.133,6.4,8.533,10.667,14.933,8.533l87.467-22.4   C159.372,231.143,163.639,224.743,161.505,217.277z"/>
	<path style="fill:#344A5E;" d="M174.305,266.343L174.305,266.343c-2.133-6.4-8.533-10.667-14.933-8.533l-87.467,22.4   c-6.4,2.133-10.667,8.533-8.533,14.933l0,0c2.133,6.4,8.533,10.667,14.933,8.533l87.467-22.4   C172.172,280.21,175.372,272.743,174.305,266.343z"/>
	<path style="fill:#344A5E;" d="M186.039,314.343L186.039,314.343c-2.133-6.4-8.533-10.667-14.933-8.533l-87.467,22.4   c-6.4,2.133-10.667,8.533-8.533,14.933l0,0c2.133,6.4,8.533,10.667,14.933,8.533l87.467-22.4   C183.905,328.21,188.172,321.81,186.039,314.343z"/>
</g>
<g>
</g>
<g>
</g>
<g>
</g>
<g>
</g>
<g>
</g>
<g>
</g>
<g>
</g>
<g>
</g>
<g>
</g>
<g>
</g>
<g>
</g>
<g>
</g>
<g>
</g>
<g>
</g>
<g>
</g>
</svg>
