<?xml version="1.0" encoding="iso-8859-1"?>
<!-- Generator: Adobe Illustrator 19.0.0, SVG Export Plug-In . SVG Version: 6.00 Build 0)  -->
<svg xmlns="http://www.w3.org/2000/svg" xmlns:xlink="http://www.w3.org/1999/xlink" version="1.1" id="Layer_1" x="0px" y="0px" viewBox="0 0 513.067 513.067" style="enable-background:new 0 0 513.067 513.067;" xml:space="preserve">
<rect x="149.333" y="422.933" style="fill:#344A5E;" width="212.267" height="36.267"/>
<g>
	<path style="fill:#415A6B;" d="M114.133,380.267l-27.733,83.2c-7.467,23.467,10.667,49.067,36.267,49.067   c16,0,30.933-10.667,35.2-25.6l36.267-106.667H114.133z"/>
	<path style="fill:#415A6B;" d="M397.867,380.267h-80l36.267,106.667c4.267,14.933,19.2,25.6,35.2,25.6   c25.6,0,43.733-25.6,35.2-50.133L397.867,380.267z"/>
</g>
<g>
	<path style="fill:#F3705A;" d="M27.733,54.933h457.6C500.267,54.933,512,43.2,512,28.267S500.267,0.533,484.267,0.533H27.733   C11.733,0.533,0,12.267,0,28.267S11.733,54.933,27.733,54.933z"/>
	<path style="fill:#F3705A;" d="M484.267,336.533H27.733C11.733,336.533,0,348.267,0,363.2s11.733,27.733,27.733,27.733h457.6   c14.933,0,27.733-11.733,27.733-27.733C512,348.267,500.267,336.533,484.267,336.533z"/>
</g>
<rect x="27.733" y="54.933" style="fill:#F3F3F3;" width="457.6" height="281.6"/>
<polygon style="fill:#ADB3BA;" points="92.8,252.267 84.267,239.467 176,176.533 221.867,212.8 280.533,132.8 340.267,193.6   421.333,137.067 429.867,148.8 338.133,212.8 282.667,156.267 225.067,235.2 174.933,195.733 "/>
<circle style="fill:#FFD15C;" cx="176" cy="186.133" r="19.2"/>
<circle style="fill:#8AD7F8;" cx="88.533" cy="245.867" r="19.2"/>
<circle style="fill:#F3705A;" cx="224" cy="223.467" r="19.2"/>
<circle style="fill:#8AD7F8;" cx="282.667" cy="145.6" r="19.2"/>
<circle style="fill:#415A6B;" cx="339.2" cy="203.2" r="19.2"/>
<circle style="fill:#F3705A;" cx="423.467" cy="145.6" r="19.2"/>
<g>
</g>
<g>
</g>
<g>
</g>
<g>
</g>
<g>
</g>
<g>
</g>
<g>
</g>
<g>
</g>
<g>
</g>
<g>
</g>
<g>
</g>
<g>
</g>
<g>
</g>
<g>
</g>
<g>
</g>
</svg>
