<?xml version="1.0" encoding="iso-8859-1"?>
<!-- Generator: Adobe Illustrator 19.0.0, SVG Export Plug-In . SVG Version: 6.00 Build 0)  -->
<svg xmlns="http://www.w3.org/2000/svg" xmlns:xlink="http://www.w3.org/1999/xlink" version="1.1" id="Layer_1" x="0px" y="0px" viewBox="0 0 512 512" style="enable-background:new 0 0 512 512;" xml:space="preserve">
<path style="fill:#415A6B;" d="M226.133,490.5h-208l0,0c23.467-20.267,37.333-51.2,37.333-83.2v-49.067  c0-37.333,29.867-67.2,67.2-67.2l0,0c37.333,0,67.2,29.867,67.2,67.2V407.3C188.8,439.3,202.667,469.167,226.133,490.5  L226.133,490.5z"/>
<g>
	<path style="fill:#4EC0AA;" d="M110.933,511.833c-10.667-25.6-23.467-55.467-29.867-65.067l-57.6,26.667   C10.667,479.833,2.133,493.7,0,507.567v4.267H110.933z"/>
	<path style="fill:#4EC0AA;" d="M244.267,511.833v-4.267c-2.133-14.933-10.667-27.733-23.467-34.133l-57.6-26.667   c-5.333,9.6-18.133,39.467-29.867,65.067L244.267,511.833L244.267,511.833z"/>
</g>
<polygon style="fill:#F7B64C;" points="109.867,511.833 134.4,511.833 153.6,440.367 153.6,375.3 90.667,375.3 90.667,440.367 "/>
<path style="fill:#E8EAE9;" d="M150.4,460.633l-14.933,51.2H108.8l-14.933-51.2c7.467,5.333,17.067,8.533,27.733,8.533  S142.933,465.967,150.4,460.633z"/>
<g>
	<polygon style="fill:#66C6B9;" points="157.867,511.833 188.8,464.9 153.6,440.367 134.4,511.833  "/>
	<polygon style="fill:#66C6B9;" points="109.867,511.833 90.667,440.367 55.467,464.9 86.4,511.833  "/>
</g>
<path style="fill:#FFD15C;" d="M173.867,387.033c0,34.133-23.467,61.867-51.2,61.867c-28.8,0-51.2-27.733-51.2-61.867  c0-14.933,4.267-27.733,11.733-38.4c26.667,6.4,54.4,6.4,80,0C169.6,358.233,173.867,372.1,173.867,387.033z"/>
<path style="fill:#415A6B;" d="M493.867,491.567H284.8l0,0c23.467-20.267,37.333-51.2,37.333-83.2V359.3  c0-37.333,29.867-67.2,67.2-67.2l0,0c37.333,0,67.2,29.867,67.2,67.2v49.067C456.533,441.433,470.4,471.3,493.867,491.567  L493.867,491.567z"/>
<path style="fill:#F7B64C;" d="M512,494.767v17.067H267.733v-17.067c0-10.667,6.4-20.267,17.067-24.533  c22.4-8.533,45.867-14.933,70.4-18.133c5.333-1.067,8.533-4.267,8.533-9.6v-56.533h53.333V442.5c0,5.333,3.2,8.533,8.533,9.6  c23.467,3.2,46.933,8.533,70.4,18.133C505.6,474.5,512,484.1,512,494.767z"/>
<path style="fill:#FFD15C;" d="M441.6,368.9c0,45.867-23.467,83.2-51.2,83.2c-28.8,0-51.2-37.333-51.2-83.2  c0,0,46.933-8.533,66.133-36.267l0,0c1.067,1.067,9.6,16,36.267,25.6C441.6,361.433,441.6,365.7,441.6,368.9z"/>
<path style="fill:#4EC0AA;" d="M512,494.767v17.067H267.733v-17.067c0-10.667,6.4-20.267,17.067-24.533  c21.333-8.533,43.733-14.933,67.2-17.067c6.4,18.133,21.333,30.933,38.4,30.933s30.933-12.8,38.4-30.933  c22.4,3.2,44.8,8.533,67.2,17.067C505.6,474.5,512,484.1,512,494.767z"/>
<path style="fill:#F7B64C;" d="M373.333,221.7v61.867H138.667V221.7c0-16,10.667-29.867,26.667-34.133c12.8-3.2,25.6-6.4,38.4-7.467  c12.8-2.133,21.333-12.8,21.333-25.6v-23.467h61.867V154.5c0,12.8,9.6,23.467,21.333,25.6c12.8,2.133,25.6,4.267,38.4,7.467  C362.667,191.833,373.333,205.7,373.333,221.7z"/>
<path style="fill:#F3705A;" d="M373.333,221.7v61.867H138.667V221.7c0-16,10.667-29.867,26.667-34.133  c12.8-3.2,25.6-5.333,38.4-7.467c2.133,0,3.2-1.067,5.333-1.067c12.8,21.333,48,36.267,48,36.267s34.133-14.933,48-36.267  c1.067,1.067,3.2,1.067,5.333,1.067c12.8,2.133,25.6,4.267,38.4,7.467C362.667,191.833,373.333,205.7,373.333,221.7z"/>
<path style="fill:#FFD15C;" d="M298.667,60.633c-9.6-1.067-20.267-6.4-27.733-13.867c-11.733,8.533-26.667-6.4-38.4-4.267  c-7.467,1.067-14.933,20.267-21.333,19.2c-2.133,7.467-3.2,16-3.2,24.533c0,40.533,21.333,73.6,48,73.6c26.667,0,48-33.067,48-73.6  c0-8.533-1.067-18.133-3.2-25.6C299.733,61.7,299.733,61.7,298.667,60.633z"/>
<path style="fill:#415A6B;" d="M192,294.233c0-6.4-2.133-12.8-2.133-19.2c0-14.933,9.6-26.667,19.2-37.333  c9.6-10.667,18.133-22.4,24.533-36.267c6.4-13.867,8.533-28.8,4.267-42.667c-3.2-10.667-10.667-20.267-14.933-32  c-3.2-9.6-5.333-20.267-4.267-29.867c0-10.667,7.467-41.6,21.333-52.267c11.733,19.2,48,3.2,56.533,23.467  c6.4,13.867,1.067,38.4-5.333,53.333c-6.4,14.933-12.8,29.867-9.6,45.867c2.133,10.667,8.533,20.267,17.067,26.667  c7.467,6.4,17.067,9.6,26.667,11.733c-3.2-4.267-6.4-8.533-9.6-11.733c-3.2-3.2-5.333-7.467-6.4-11.733s1.067-9.6,3.2-13.867  c5.333-10.667,14.933-19.2,18.133-30.933c2.133-6.4,2.133-13.867,1.067-21.333c-2.133-21.333-7.467-41.6-13.867-61.867  c-2.133-7.467-4.267-16-8.533-22.4c-4.267-7.467-10.667-12.8-17.067-17.067c-6.4-5.333-12.8-9.6-20.267-12.8  c-7.467-3.2-16-2.133-21.333,3.2c-1.067,1.067-3.2,3.2-5.333,4.267c-2.133,0-4.267-1.067-5.333-1.067  c-5.333-2.133-10.667,0-14.933,3.2S217.6,20.1,214.4,24.367c-18.133,30.933-29.867,67.2-32,103.467  c-1.067,17.067-1.067,35.2,6.4,50.133c4.267,9.6,10.667,21.333,5.333,29.867c-2.133,3.2-19.2,17.067-20.267,37.333  c10.667-16,19.2-22.4,28.8-32c-4.267,5.333-8.533,11.733-12.8,17.067c-6.4,8.533-12.8,17.067-13.867,27.733  c-1.067,7.467,2.133,14.933,5.333,21.333c3.2,7.467,7.467,13.867,12.8,19.2"/>
<path style="fill:#344A5E;" d="M297.6,398.767l-30.933-30.933v-44.8c0-6.4-4.267-10.667-10.667-10.667l0,0  c-6.4,0-10.667,4.267-10.667,10.667v44.8L214.4,398.767c-4.267,4.267-4.267,10.667,0,14.933l0,0c4.267,4.267,10.667,4.267,14.933,0  L256,387.033l26.667,26.667c4.267,4.267,10.667,4.267,14.933,0S301.867,403.033,297.6,398.767z"/>
<g>
</g>
<g>
</g>
<g>
</g>
<g>
</g>
<g>
</g>
<g>
</g>
<g>
</g>
<g>
</g>
<g>
</g>
<g>
</g>
<g>
</g>
<g>
</g>
<g>
</g>
<g>
</g>
<g>
</g>
</svg>
