<?xml version="1.0" encoding="iso-8859-1"?>
<!-- Generator: Adobe Illustrator 19.0.0, SVG Export Plug-In . SVG Version: 6.00 Build 0)  -->
<svg xmlns="http://www.w3.org/2000/svg" xmlns:xlink="http://www.w3.org/1999/xlink" version="1.1" id="Layer_1" x="0px" y="0px" viewBox="0 0 512 512" style="enable-background:new 0 0 512 512;" xml:space="preserve">
<path style="fill:#F3F3F3;" d="M33.067,480V32c0-18.133,13.867-32,32-32H364.8l114.133,114.133V480c0,18.133-13.867,32-32,32H65.067  C46.933,512,33.067,498.133,33.067,480z"/>
<g>
	<rect x="75.733" y="305.067" style="fill:#CED6E0;" width="360.533" height="26.667"/>
	<rect x="75.733" y="373.333" style="fill:#CED6E0;" width="360.533" height="26.667"/>
	<rect x="75.733" y="442.667" style="fill:#CED6E0;" width="360.533" height="26.667"/>
	<polygon style="fill:#CED6E0;" points="364.8,0 478.933,114.133 364.8,114.133  "/>
</g>
<path style="fill:#F3705A;" d="M179.2,68.267c-57.6,0-103.467,46.933-103.467,103.467c0,57.6,46.933,103.467,103.467,103.467  c57.6,0,103.467-46.933,103.467-103.467l0,0H179.2V68.267z"/>
<path style="fill:#8AD7F8;" d="M280.533,87.467c-19.2-26.667-50.133-44.8-85.333-44.8l0,0v103.467L280.533,87.467z"/>
<path style="fill:#FFD15C;" d="M179.2,171.733h103.467c0-22.4-6.4-42.667-18.133-58.667L179.2,171.733z"/>
<g>
</g>
<g>
</g>
<g>
</g>
<g>
</g>
<g>
</g>
<g>
</g>
<g>
</g>
<g>
</g>
<g>
</g>
<g>
</g>
<g>
</g>
<g>
</g>
<g>
</g>
<g>
</g>
<g>
</g>
</svg>
