<?xml version="1.0" encoding="iso-8859-1"?>
<!-- Generator: Adobe Illustrator 19.0.0, SVG Export Plug-In . SVG Version: 6.00 Build 0)  -->
<svg xmlns="http://www.w3.org/2000/svg" xmlns:xlink="http://www.w3.org/1999/xlink" version="1.1" id="Layer_1" x="0px" y="0px" viewBox="0 0 512 512" style="enable-background:new 0 0 512 512;" xml:space="preserve">
<path style="fill:#F3705A;" d="M512,313.6V32c0-18.133-13.867-32-32-32H32C13.867,0,0,13.867,0,32v281.6c0,18.133,13.867,32,32,32  h448C498.133,345.6,512,330.667,512,313.6z"/>
<rect x="91.733" y="350.933" style="fill:#F7B64C;" width="61.867" height="64"/>
<path style="fill:#415A6B;" d="M244.267,512l-9.6-44.8c-3.2-13.867-11.733-25.6-24.533-32l-51.2-24.533l-36.267-4.267l-37.333,4.267  l-51.2,24.533c-12.8,6.4-21.333,18.133-24.533,32L0,512H244.267z"/>
<g>
	<path style="fill:#FFD15C;" d="M181.333,330.667c-2.133,9.6-8.533,16-13.867,14.933s-8.533-8.533-6.4-18.133   c2.133-9.6,8.533-17.067,13.867-16C181.333,312.533,183.467,322.133,181.333,330.667z"/>
	<path style="fill:#FFD15C;" d="M62.933,330.667c2.133,9.6,8.533,16,13.867,14.933s8.533-8.533,6.4-18.133   c-2.133-9.6-8.533-17.067-13.867-16C62.933,312.533,60.8,322.133,62.933,330.667z"/>
</g>
<path style="fill:#415A6B;" d="M163.2,357.333c-16,28.8-40.533,25.6-40.533,25.6s-24.533,3.2-40.533-25.6  S51.2,250.667,122.667,247.467C194.133,250.667,179.2,328.533,163.2,357.333z"/>
<path style="fill:#E8EAE9;" d="M155.733,404.267V393.6c0-7.467-14.933-12.8-33.067-12.8S89.6,386.133,89.6,393.6v10.667H155.733z"/>
<path style="fill:#344A5E;" d="M171.733,417.067c0,0-38.4-9.6-50.133-8.533c-11.733-1.067-50.133,8.533-50.133,8.533  C78.933,406.4,89.6,397.867,102.4,393.6c6.4-2.133,12.8-3.2,19.2-3.2c5.333,0,12.8,1.067,19.2,3.2  C154.667,397.867,165.333,406.4,171.733,417.067z"/>
<rect x="358.4" y="350.933" style="fill:#F7B64C;" width="61.867" height="64"/>
<path style="fill:#415A6B;" d="M512,512l-9.6-44.8c-3.2-13.867-11.733-25.6-24.533-32l-51.2-24.533L390.4,406.4l-36.267,4.267  l-51.2,24.533c-12.8,6.4-21.333,18.133-24.533,32L267.733,512H512z"/>
<g>
	<path style="fill:#FFD15C;" d="M449.067,330.667c-2.133,9.6-8.533,16-13.867,14.933c-5.333-1.067-8.533-8.533-6.4-18.133   c2.133-9.6,8.533-17.067,13.867-16C449.067,312.533,451.2,322.133,449.067,330.667z"/>
	<path style="fill:#FFD15C;" d="M330.667,330.667c2.133,9.6,8.533,16,13.867,14.933c5.333-1.067,8.533-8.533,6.4-18.133   c-2.133-9.6-8.533-17.067-13.867-16C330.667,312.533,328.533,322.133,330.667,330.667z"/>
</g>
<path style="fill:#415A6B;" d="M429.867,357.333c-16,28.8-40.533,25.6-40.533,25.6s-24.533,3.2-40.533-25.6  s-30.933-106.667,40.533-109.867C460.8,250.667,446.933,328.533,429.867,357.333z"/>
<path style="fill:#E8EAE9;" d="M423.467,404.267V393.6c0-7.467-14.933-12.8-33.067-12.8c-18.133,0-33.067,5.333-33.067,12.8v10.667  H423.467z"/>
<path style="fill:#344A5E;" d="M439.467,417.067c0,0-38.4-9.6-50.133-8.533c-11.733-1.067-50.133,8.533-50.133,8.533  c7.467-10.667,18.133-19.2,30.933-23.467c6.4-2.133,12.8-3.2,19.2-3.2c5.333,0,12.8,1.067,19.2,3.2  C421.333,397.867,433.067,406.4,439.467,417.067z"/>
<g>
	<circle style="fill:#FFFFFF;" cx="256" cy="114.133" r="45.867"/>
	<path style="fill:#FFFFFF;" d="M332.8,197.333c-49.067-22.4-105.6-22.4-154.667,0C167.467,202.667,160,214.4,160,226.133v24.533   c26.667,20.267,59.733,32,94.933,32s68.267-11.733,94.933-32v-24.533C350.933,214.4,344.533,202.667,332.8,197.333z"/>
</g>
<g>
</g>
<g>
</g>
<g>
</g>
<g>
</g>
<g>
</g>
<g>
</g>
<g>
</g>
<g>
</g>
<g>
</g>
<g>
</g>
<g>
</g>
<g>
</g>
<g>
</g>
<g>
</g>
<g>
</g>
</svg>
