<?xml version="1.0" encoding="iso-8859-1"?>
<!-- Generator: Adobe Illustrator 19.0.0, SVG Export Plug-In . SVG Version: 6.00 Build 0)  -->
<svg xmlns="http://www.w3.org/2000/svg" xmlns:xlink="http://www.w3.org/1999/xlink" version="1.1" id="Layer_1" x="0px" y="0px" viewBox="0 0 512 512" style="enable-background:new 0 0 512 512;" xml:space="preserve">
<g>
	<ellipse style="fill:#344A5E;" cx="250.667" cy="45.867" rx="39.467" ry="45.867"/>
	<ellipse style="fill:#344A5E;" cx="279.467" cy="44.8" rx="19.2" ry="36.267"/>
</g>
<g>
	<polygon style="fill:#F3F3F3;" points="281.6,110.933 256,130.133 277.333,154.667 288,125.867  "/>
	<polygon style="fill:#F3F3F3;" points="230.4,110.933 224,125.867 234.667,154.667 256,130.133  "/>
</g>
<polygon style="fill:#55C0EB;" points="265.6,157.867 275.2,148.267 256,130.133 236.8,148.267 246.4,157.867 "/>
<polygon style="fill:#8AD7F8;" points="272,197.333 265.6,157.867 246.4,157.867 240,197.333 "/>
<path style="fill:#344A5E;" d="M354.133,197.333l-3.2-32c-1.067-12.8-10.667-23.467-22.4-27.733l-29.867-8.533l-21.333,68.267  H354.133z"/>
<polygon style="fill:#415A6B;" points="289.067,197.333 311.467,151.467 298.667,142.933 309.333,139.733 282.667,114.133   267.733,197.333 "/>
<path style="fill:#344A5E;" d="M235.733,197.333L214.4,129.067l-29.867,8.533c-12.8,3.2-21.333,14.933-22.4,27.733l-3.2,32H235.733z  "/>
<polygon style="fill:#415A6B;" points="222.933,197.333 244.267,197.333 229.333,114.133 202.667,139.733 213.333,142.933   200.533,151.467 "/>
<polygon style="fill:#F7B64C;" points="281.6,92.8 256,73.6 230.4,92.8 230.4,110.933 256,130.133 281.6,110.933 "/>
<g>
	<path style="fill:#FFD15C;" d="M235.733,49.067c-6.4,0-12.8-1.067-18.133-2.133c-2.133,5.333-3.2,11.733-3.2,19.2   c0,27.733,18.133,49.067,40.533,49.067s40.533-22.4,40.533-49.067c0-13.867-5.333-26.667-12.8-35.2   C272,41.6,256,49.067,235.733,49.067z"/>
	
		<ellipse transform="matrix(0.1776 -0.9841 0.9841 0.1776 175.9755 345.0317)" style="fill:#FFD15C;" cx="294.424" cy="67.228" rx="12.8" ry="8.533"/>
	
		<ellipse transform="matrix(0.1776 0.9841 -0.9841 0.1776 244.2325 -157.1621)" style="fill:#FFD15C;" cx="216.148" cy="67.546" rx="12.8" ry="8.533"/>
</g>
<rect x="147.2" y="250.667" style="fill:#F3705A;" width="216.533" height="195.2"/>
<polygon style="fill:#FFD15C;" points="385.067,250.667 126.933,250.667 110.933,197.333 401.067,197.333 "/>
<rect x="64" y="400" style="fill:#F7B64C;" width="43.733" height="44.8"/>
<path style="fill:#415A6B;" d="M170.667,512l-6.4-30.933c-2.133-9.6-8.533-18.133-17.067-22.4L112,441.6l-26.667-3.2l-25.6,3.2  l-35.2,17.067c-8.533,4.267-14.933,12.8-17.067,22.4L0,512H170.667z"/>
<g>
	<path style="fill:#FFD15C;" d="M126.933,386.133c-1.067,6.4-5.333,10.667-9.6,10.667c-4.267-1.067-5.333-6.4-4.267-12.8   c1.067-6.4,5.333-11.733,9.6-11.733C126.933,373.333,128,378.667,126.933,386.133z"/>
	<path style="fill:#FFD15C;" d="M43.733,386.133c1.067,6.4,5.333,10.667,9.6,10.667c4.267-1.067,5.333-6.4,4.267-12.8   c-1.067-6.4-5.333-11.733-9.6-11.733C43.733,373.333,42.667,378.667,43.733,386.133z"/>
</g>
<path style="fill:#415A6B;" d="M114.133,404.267c-11.733,20.267-28.8,18.133-28.8,18.133s-17.067,2.133-28.8-18.133  C44.8,384,35.2,329.6,85.333,327.467C135.467,329.6,124.8,384,114.133,404.267z"/>
<path style="fill:#E8EAE9;" d="M108.8,437.333v-7.467c0-5.333-10.667-8.533-23.467-8.533s-23.467,4.267-23.467,8.533v7.467H108.8z"/>
<path style="fill:#344A5E;" d="M120.533,445.867c0,0-26.667-6.4-35.2-6.4s-35.2,6.4-35.2,6.4c5.333-7.467,12.8-13.867,21.333-16  c4.267-1.067,9.6-2.133,13.867-2.133c4.267,0,8.533,1.067,13.867,2.133C107.733,432,115.2,438.4,120.533,445.867z"/>
<rect x="234.667" y="400" style="fill:#F7B64C;" width="43.733" height="44.8"/>
<path style="fill:#415A6B;" d="M341.333,512l-6.4-30.933c-2.133-9.6-8.533-18.133-17.067-22.4l-35.2-17.067L256,438.4l-25.6,3.2  l-35.2,17.067c-8.533,4.267-14.933,12.8-17.067,22.4L170.667,512H341.333z"/>
<g>
	<path style="fill:#FFD15C;" d="M297.6,386.133c-1.067,6.4-5.333,10.667-9.6,10.667c-4.267-1.067-5.333-6.4-4.267-12.8   c1.067-6.4,5.333-11.733,9.6-11.733C297.6,373.333,298.667,378.667,297.6,386.133z"/>
	<path style="fill:#FFD15C;" d="M214.4,386.133c1.067,6.4,5.333,10.667,9.6,10.667c4.267-1.067,5.333-6.4,4.267-12.8   c-1.067-6.4-5.333-11.733-9.6-11.733C214.4,373.333,213.333,378.667,214.4,386.133z"/>
</g>
<path style="fill:#415A6B;" d="M284.8,404.267C273.067,424.533,256,422.4,256,422.4s-17.067,2.133-28.8-18.133  s-21.333-74.667,28.8-76.8C306.133,329.6,295.467,384,284.8,404.267z"/>
<path style="fill:#E8EAE9;" d="M279.467,437.333v-7.467c0-5.333-10.667-8.533-23.467-8.533c-12.8,0-23.467,4.267-23.467,8.533v7.467  H279.467z"/>
<path style="fill:#344A5E;" d="M291.2,445.867c0,0-26.667-6.4-35.2-6.4s-35.2,6.4-35.2,6.4c5.333-7.467,12.8-13.867,21.333-16  c4.267-1.067,9.6-2.133,13.867-2.133s8.533,1.067,13.867,2.133C278.4,432,285.867,438.4,291.2,445.867z"/>
<rect x="405.333" y="400" style="fill:#F7B64C;" width="43.733" height="44.8"/>
<path style="fill:#415A6B;" d="M512,512l-6.4-30.933c-2.133-9.6-8.533-18.133-17.067-22.4l-35.2-17.067l-26.667-3.2l-25.6,3.2  l-35.2,17.067c-8.533,4.267-14.933,12.8-17.067,22.4L341.333,512H512z"/>
<g>
	<path style="fill:#FFD15C;" d="M468.267,386.133c-1.067,6.4-5.333,10.667-9.6,10.667c-4.267-1.067-5.333-6.4-4.267-12.8   c1.067-6.4,5.333-11.733,9.6-11.733C468.267,373.333,469.333,378.667,468.267,386.133z"/>
	<path style="fill:#FFD15C;" d="M385.067,386.133c1.067,6.4,5.333,10.667,9.6,10.667c4.267-1.067,5.333-6.4,4.267-12.8   c-1.067-6.4-5.333-11.733-9.6-11.733C385.067,373.333,384,378.667,385.067,386.133z"/>
</g>
<path style="fill:#415A6B;" d="M455.467,404.267c-11.733,20.267-28.8,18.133-28.8,18.133s-17.067,2.133-28.8-18.133  c-11.733-20.267-21.333-74.667,28.8-76.8C476.8,329.6,466.133,384,455.467,404.267z"/>
<path style="fill:#E8EAE9;" d="M450.133,437.333v-7.467c0-5.333-10.667-8.533-23.467-8.533c-12.8,0-23.467,4.267-23.467,8.533v7.467  H450.133z"/>
<path style="fill:#344A5E;" d="M461.867,445.867c0,0-26.667-6.4-35.2-6.4s-35.2,6.4-35.2,6.4c5.333-7.467,12.8-13.867,21.333-16  c4.267-1.067,9.6-2.133,13.867-2.133s8.533,1.067,13.867,2.133C449.067,432,456.533,438.4,461.867,445.867z"/>
<g>
</g>
<g>
</g>
<g>
</g>
<g>
</g>
<g>
</g>
<g>
</g>
<g>
</g>
<g>
</g>
<g>
</g>
<g>
</g>
<g>
</g>
<g>
</g>
<g>
</g>
<g>
</g>
<g>
</g>
</svg>
