<?xml version="1.0" encoding="iso-8859-1"?>
<!-- Generator: Adobe Illustrator 19.0.0, SVG Export Plug-In . SVG Version: 6.00 Build 0)  -->
<svg xmlns="http://www.w3.org/2000/svg" xmlns:xlink="http://www.w3.org/1999/xlink" version="1.1" id="Layer_1" x="0px" y="0px" viewBox="0 0 512 512" style="enable-background:new 0 0 512 512;" xml:space="preserve">
<path style="fill:#FFD15C;" d="M315.733,156.81l58.667-36.267c17.067-10.667,37.333-9.6,54.4,1.067l66.133,43.733l-22.4,90.667  l-53.333,7.467h-69.333l-46.933-36.267L315.733,156.81z"/>
<g>
	<path style="fill:#F7B64C;" d="M403.2,178.143c-6.4,13.867-10.667,28.8-8.533,44.8c0,2.133,1.067,4.267,0,7.467   c0,1.067,0,1.067,0,2.133c-2.133,7.467-10.667,10.667-18.133,12.8c-7.467,2.133-19.2,2.133-26.667,1.067   c-29.867-3.2-56.533-18.133-86.4-14.933l-1.067-1.067c4.267,1.067,8.533,0,11.733-2.133c-5.333-3.2-10.667-8.533-13.867-14.933   c4.267,2.133,7.467,4.267,10.667,7.467c3.2,3.2,6.4,7.467,10.667,7.467c3.2,1.067,6.4,0,9.6-2.133c7.467-3.2,16-6.4,22.4-10.667   c2.133-1.067,4.267-3.2,6.4-4.267c2.133-2.133,3.2-5.333,5.333-8.533c4.267-11.733,7.467-24.533,9.6-37.333   c1.067,5.333,3.2,9.6,4.267,14.933c0-1.067,0-2.133,1.067-2.133c0,13.867,2.133,28.8,7.467,41.6   c3.2-7.467,8.533-14.933,11.733-22.4c4.267-7.467,6.4-16,6.4-24.533c1.067,2.133,2.133,5.333,2.133,8.533   c0,7.467,8.533,37.333,8.533,40.533c3.2-6.4,9.6-9.6,12.8-16c2.133-4.267,2.133-8.533,1.067-12.8   c-2.133-8.533-3.2-18.133-3.2-26.667c3.2,4.267,6.4,13.867,7.467,16c1.067-1.067,5.333-8.533,5.333-9.6c0,5.333,0,10.667,0,7.467   c1.067-5.333,4.267-9.6,6.4-13.867C407.467,168.543,405.333,173.877,403.2,178.143z"/>
	<path style="fill:#F7B64C;" d="M410.667,208.01c-2.133,7.467-5.333,13.867-8.533,21.333c3.2-3.2,6.4-6.4,8.533-9.6   c-2.133,5.333-5.333,9.6-9.6,13.867c-3.2,2.133-10.667,6.4-14.933,5.333c-6.4,0-11.733-3.2-19.2-3.2c-6.4,0-13.867,0-17.067-4.267   c0-1.067-1.067-1.067-1.067-2.133c0-1.067,1.067-1.067,2.133-1.067c6.4-1.067,13.867-1.067,20.267-1.067   c6.4,0,13.867-1.067,19.2-5.333C392.533,219.743,407.467,212.277,410.667,208.01z"/>
	<path style="fill:#F7B64C;" d="M403.2,349.877c0,0,41.6-4.267,37.333,29.867c0,0,1.067,5.333-13.867,8.533l-39.467,9.6   c-9.6,2.133-20.267,1.067-28.8-3.2l-30.933-16c-11.733-6.4-14.933-20.267-7.467-30.933l27.733-40.533l57.6,25.6l-8.533,17.067   H403.2z"/>
</g>
<path style="fill:#FFFFFF;" d="M422.4,366.943c2.133,4.267,5.333,10.667,7.467,14.933c1.067,2.133,0,3.2-2.133,4.267  c-5.333,1.067-14.933,4.267-23.467,3.2c-4.267,0-7.467-3.2-9.6-6.4c-1.067-3.2-2.133-9.6,4.267-12.8c0,0,8.533-4.267,17.067-6.4  C417.067,363.743,420.267,364.81,422.4,366.943z"/>
<path style="fill:#4EC0AA;" d="M0,141.877V355.21c0,11.733,9.6,20.267,20.267,20.267H342.4c11.733,0,20.267-9.6,20.267-20.267  V141.877c0-11.733-9.6-20.267-20.267-20.267H20.267C9.6,121.61,0,131.21,0,141.877z"/>
<g>
	<rect x="52.267" y="288.01" style="fill:#FFFFFF;" width="96" height="12.8"/>
	<rect x="52.267" y="316.81" style="fill:#FFFFFF;" width="96" height="12.8"/>
</g>
<rect y="180.277" style="fill:#415A6B;" width="363.733" height="53.333"/>
<path style="fill:#FFD15C;" d="M512,177.077c-10.667-6.4-18.133-11.733-18.133-11.733l-38.4,44.8l-35.2,29.867  c0,0-53.333,12.8-89.6,1.067s-115.2-10.667-115.2-10.667c-50.133,3.2-34.133,40.533-34.133,40.533  C198.4,308.277,281.6,308.277,281.6,308.277c68.267,1.067,110.933,28.8,110.933,28.8c19.2,18.133,83.2,36.267,119.467,44.8V177.077z  "/>
<path style="fill:#F3F3F3;" d="M231.467,283.743c0,0-23.467,0-35.2-4.267c-12.8-5.333-30.933-42.667,10.667-44.8  c2.133,0,3.2,0,5.333,0l25.6,4.267C237.867,237.877,229.333,266.677,231.467,283.743z"/>
<g>
</g>
<g>
</g>
<g>
</g>
<g>
</g>
<g>
</g>
<g>
</g>
<g>
</g>
<g>
</g>
<g>
</g>
<g>
</g>
<g>
</g>
<g>
</g>
<g>
</g>
<g>
</g>
<g>
</g>
</svg>
