<?xml version="1.0" encoding="iso-8859-1"?>
<!-- Generator: Adobe Illustrator 19.0.0, SVG Export Plug-In . SVG Version: 6.00 Build 0)  -->
<svg xmlns="http://www.w3.org/2000/svg" xmlns:xlink="http://www.w3.org/1999/xlink" version="1.1" id="Layer_1" x="0px" y="0px" viewBox="0 0 512 512" style="enable-background:new 0 0 512 512;" xml:space="preserve">
<path style="fill:#415A6B;" d="M402.133,258.133H266.667v-29.867h-21.333v29.867H109.867c-6.4,0-10.667,4.267-10.667,10.667v40.533  h21.333v-29.867h272v29.867h21.333V268.8C412.8,262.4,408.533,258.133,402.133,258.133z"/>
<circle style="fill:#66C6B9;" cx="256" cy="118.4" r="118.4"/>
<g>
	<path style="fill:#FFFFFF;" d="M256,209.067c28.8,0,54.4-13.867,71.467-35.2v-3.2c0-11.733-7.467-21.333-18.133-25.6   c-34.133-11.733-72.533-11.733-106.667,0c-10.667,3.2-18.133,13.867-18.133,25.6v3.2C201.6,195.2,227.2,209.067,256,209.067z"/>
	<circle style="fill:#FFFFFF;" cx="256" cy="89.6" r="35.2"/>
</g>
<circle style="fill:#F3705A;" cx="109.867" cy="402.133" r="109.867"/>
<g>
	<path style="fill:#FFFFFF;" d="M109.867,487.467c26.667,0,51.2-12.8,66.133-32v-3.2c0-10.667-6.4-20.267-17.067-23.467   c-32-10.667-67.2-10.667-99.2,0c-9.6,3.2-17.067,12.8-17.067,23.467v3.2C58.667,474.667,82.133,487.467,109.867,487.467z"/>
	<circle style="fill:#FFFFFF;" cx="109.867" cy="376.533" r="32"/>
</g>
<circle style="fill:#F3705A;" cx="402.133" cy="402.133" r="109.867"/>
<g>
	<path style="fill:#FFFFFF;" d="M402.133,487.467c26.667,0,51.2-12.8,66.133-32v-3.2c0-10.667-6.4-20.267-17.067-23.467   c-32-10.667-67.2-10.667-99.2,0c-9.6,3.2-17.067,12.8-17.067,23.467v3.2C352,474.667,375.467,487.467,402.133,487.467z"/>
	<circle style="fill:#FFFFFF;" cx="402.133" cy="376.533" r="32"/>
</g>
<g>
</g>
<g>
</g>
<g>
</g>
<g>
</g>
<g>
</g>
<g>
</g>
<g>
</g>
<g>
</g>
<g>
</g>
<g>
</g>
<g>
</g>
<g>
</g>
<g>
</g>
<g>
</g>
<g>
</g>
</svg>
