<?xml version="1.0" encoding="iso-8859-1"?>
<!-- Generator: Adobe Illustrator 19.0.0, SVG Export Plug-In . SVG Version: 6.00 Build 0)  -->
<svg xmlns="http://www.w3.org/2000/svg" xmlns:xlink="http://www.w3.org/1999/xlink" version="1.1" id="Layer_1" x="0px" y="0px" viewBox="0 0 512 512" style="enable-background:new 0 0 512 512;" xml:space="preserve">
<circle style="fill:#FFD15C;" cx="213.333" cy="213.333" r="213.333"/>
<circle style="fill:#F7B64C;" cx="213.333" cy="213.333" r="158.933"/>
<path style="fill:#FFD15C;" d="M202.667,321.067v-19.2c-22.4-3.2-42.667-13.867-60.8-29.867l24.533-29.867  c13.867,11.733,25.6,19.2,37.333,22.4v-39.467c-18.133-4.267-32-10.667-40.533-19.2c-8.533-7.467-12.8-19.2-12.8-34.133  c0-14.933,5.333-27.733,14.933-37.333c9.6-9.6,22.4-16,38.4-17.067V105.6h27.733v13.867c17.067,2.133,35.2,9.6,52.267,21.333  L262.4,171.733c-10.667-7.467-21.333-12.8-30.933-16v37.333c19.2,5.333,33.067,11.733,41.6,19.2  c8.533,8.533,13.867,20.267,13.867,35.2S281.6,275.2,272,284.8c-9.6,9.6-23.467,16-40.533,17.067V320h-28.8V321.067z   M202.667,155.733c-7.467,2.133-11.733,7.467-11.733,14.933c0,7.467,4.267,12.8,11.733,16V155.733z M244.267,250.667  c0-3.2-1.067-6.4-3.2-9.6c-2.133-2.133-5.333-4.267-10.667-6.4v32C240,264.533,244.267,258.133,244.267,250.667z"/>
<polygon style="fill:#415A6B;" points="512,359.467 446.933,389.333 502.4,444.8 444.8,502.4 389.333,446.933 359.467,512   295.467,295.467 "/>
<g>
</g>
<g>
</g>
<g>
</g>
<g>
</g>
<g>
</g>
<g>
</g>
<g>
</g>
<g>
</g>
<g>
</g>
<g>
</g>
<g>
</g>
<g>
</g>
<g>
</g>
<g>
</g>
<g>
</g>
</svg>
