<?xml version="1.0" encoding="iso-8859-1"?>
<!-- Generator: Adobe Illustrator 19.0.0, SVG Export Plug-In . SVG Version: 6.00 Build 0)  -->
<svg version="1.1" id="Layer_1" xmlns="http://www.w3.org/2000/svg" xmlns:xlink="http://www.w3.org/1999/xlink" x="0px" y="0px"
	 viewBox="0 0 512 512" style="enable-background:new 0 0 512 512;" xml:space="preserve">
<path style="fill:#7A7674;" d="M500.416,408.088H57.302c-6.398,0-11.584-5.187-11.584-11.584V63.176
	c0-18.868-15.313-34.217-34.135-34.217C5.186,28.959,0,23.772,0,17.376S5.186,5.792,11.584,5.792
	c31.597,0,57.302,25.744,57.302,57.385v321.745h431.53c6.398,0,11.584,5.187,11.584,11.584
	C512,402.901,506.814,408.088,500.416,408.088z"/>
<polygon style="fill:#FF9E24;" points="454.081,302.265 454.081,254.422 354.59,254.422 331.423,325.433 "/>
<polygon style="fill:#FF8C00;" points="454.081,302.265 331.423,302.265 354.59,350.107 454.081,350.107 "/>
<rect x="103.639" y="254.425" style="fill:#FFB14D;" width="250.949" height="95.681"/>
<polygon style="fill:#FF9E24;" points="454.081,160.183 454.081,112.34 354.59,112.34 331.423,183.35 "/>
<polygon style="fill:#FF8C00;" points="354.59,208.025 454.081,208.025 454.081,160.183 331.423,160.183 "/>
<rect x="103.639" y="112.339" style="fill:#FFB14D;" width="250.949" height="95.681"/>
<g>
	<circle style="fill:#181818;" cx="118.038" cy="468.92" r="37.288"/>
	<circle style="fill:#181818;" cx="439.683" cy="468.92" r="37.288"/>
</g>
<g>
</g>
<g>
</g>
<g>
</g>
<g>
</g>
<g>
</g>
<g>
</g>
<g>
</g>
<g>
</g>
<g>
</g>
<g>
</g>
<g>
</g>
<g>
</g>
<g>
</g>
<g>
</g>
<g>
</g>
</svg>
