<?xml version="1.0" encoding="iso-8859-1"?>
<!-- Generator: Adobe Illustrator 19.0.0, SVG Export Plug-In . SVG Version: 6.00 Build 0)  -->
<svg version="1.1" id="Layer_1" xmlns="http://www.w3.org/2000/svg" xmlns:xlink="http://www.w3.org/1999/xlink" x="0px" y="0px"
	 viewBox="0 0 512 512" style="enable-background:new 0 0 512 512;" xml:space="preserve">
<polygon style="fill:#7A7674;" points="337.252,0 337.252,44.557 286.82,44.557 286.82,0 225.181,0 225.181,44.557 174.749,44.557 
	174.749,0 113.11,0 113.11,100.076 256.001,123.78 398.892,100.076 398.892,0 "/>
<polygon style="fill:#181818;" points="398.892,100.076 113.11,100.076 148.886,150.062 137.821,350.684 256.001,374.388 
	374.181,350.684 363.115,150.062 "/>
<polygon style="fill:#7A7674;" points="374.181,350.684 137.82,350.684 104.624,400.671 256.001,424.375 407.377,400.671 "/>
<rect x="104.629" y="400.676" style="fill:#181818;" width="302.756" height="99.477"/>
<path style="fill:#3D3D3B;" d="M407.378,512H104.623c-6.545,0-11.852-5.307-11.852-11.852c0-6.545,5.307-11.852,11.852-11.852
	h302.754c6.545,0,11.852,5.307,11.852,11.852C419.229,506.693,413.923,512,407.378,512z"/>
<g>
</g>
<g>
</g>
<g>
</g>
<g>
</g>
<g>
</g>
<g>
</g>
<g>
</g>
<g>
</g>
<g>
</g>
<g>
</g>
<g>
</g>
<g>
</g>
<g>
</g>
<g>
</g>
<g>
</g>
</svg>
