<?xml version="1.0" encoding="iso-8859-1"?>
<!-- Generator: Adobe Illustrator 19.0.0, SVG Export Plug-In . SVG Version: 6.00 Build 0)  -->
<svg version="1.1" id="Layer_1" xmlns="http://www.w3.org/2000/svg" xmlns:xlink="http://www.w3.org/1999/xlink" x="0px" y="0px"
	 viewBox="0 0 512 512" style="enable-background:new 0 0 512 512;" xml:space="preserve">
<path style="fill:#FF9E24;" d="M313.256,224.293h-11.852V271.7h11.852c39.211,0,71.111,31.9,71.111,71.111
	s-31.9,71.111-71.111,71.111h-11.852v47.407h11.852c65.351,0,118.519-53.166,118.519-118.519
	C431.775,277.46,378.607,224.293,313.256,224.293z"/>
<g>
	<path style="fill:#FFE1D6;" d="M164.741,149.92c-6.546,0-11.852-5.307-11.852-11.852c0-17.929,3.551-27.383,6.683-35.723
		c2.773-7.384,5.169-13.761,5.169-27.386c0-13.624-2.395-20.001-5.169-27.385c-3.132-8.34-6.683-17.793-6.683-35.723
		C152.889,5.307,158.195,0,164.741,0c6.546,0,11.852,5.307,11.852,11.852c0,13.625,2.395,20.002,5.169,27.386
		c3.132,8.34,6.683,17.792,6.683,35.721s-3.551,27.383-6.683,35.723c-2.773,7.384-5.169,13.761-5.169,27.386
		C176.593,144.614,171.287,149.92,164.741,149.92z"/>
	<path style="fill:#FFE1D6;" d="M216.889,149.92c-6.546,0-11.852-5.307-11.852-11.852c0-17.929,3.551-27.383,6.683-35.723
		c2.773-7.384,5.169-13.761,5.169-27.386c0-13.624-2.395-20.001-5.169-27.385c-3.132-8.34-6.683-17.793-6.683-35.723
		C205.037,5.307,210.343,0,216.889,0c6.546,0,11.852,5.307,11.852,11.852c0,13.625,2.395,20.002,5.169,27.386
		c3.132,8.34,6.683,17.792,6.683,35.721s-3.551,27.383-6.683,35.723c-2.773,7.384-5.169,13.761-5.169,27.386
		C228.741,144.614,223.435,149.92,216.889,149.92z"/>
</g>
<path style="fill:#FFB14D;" d="M80.225,173.624v302.821c0,19.556,16,35.556,35.556,35.556H277.7c19.556,0,35.556-16,35.556-35.556
	V173.624H80.225z"/>
<g>
</g>
<g>
</g>
<g>
</g>
<g>
</g>
<g>
</g>
<g>
</g>
<g>
</g>
<g>
</g>
<g>
</g>
<g>
</g>
<g>
</g>
<g>
</g>
<g>
</g>
<g>
</g>
<g>
</g>
</svg>
