<?xml version="1.0" encoding="iso-8859-1"?>
<!-- Generator: Adobe Illustrator 19.0.0, SVG Export Plug-In . SVG Version: 6.00 Build 0)  -->
<svg version="1.1" id="Layer_1" xmlns="http://www.w3.org/2000/svg" xmlns:xlink="http://www.w3.org/1999/xlink" x="0px" y="0px"
	 viewBox="0 0 512.004 512.004" style="enable-background:new 0 0 512.004 512.004;" xml:space="preserve">
<g>
	<g>
		<g>
			<path style="fill:#868491;" d="M367.895,320h-224c-4.422,0-8-3.582-8-8s3.578-8,8-8h224c4.422,0,8,3.582,8,8
				S372.317,320,367.895,320z"/>
		</g>
	</g>
	<g>
		<g>
			<path style="fill:#868491;" d="M391.89,512.004c0.797,0,1.602-0.121,2.398-0.375c4.219-1.324,6.563-5.816,5.234-10.031
				l-19.195-60.973c-1.336-4.215-5.836-6.555-10.031-5.227c-4.219,1.324-6.563,5.816-5.234,10.031l19.195,60.973
				C385.336,509.816,388.492,512.004,391.89,512.004z"/>
		</g>
	</g>
	<g>
		<path style="fill:#B4B6BC;" d="M259.264,136.001l101.579,321.608c2.148,6.828,8.457,11.199,15.258,11.199
			c1.59,0,3.211-0.238,4.809-0.742c8.43-2.652,13.109-11.637,10.457-20.066L286.058,114.589L259.264,136.001z"/>
	</g>
	<g>
		<g>
			<path style="fill:#868491;" d="M120.114,512.004c-0.797,0-1.602-0.121-2.398-0.375c-4.219-1.324-6.563-5.816-5.234-10.031
				l19.195-60.973c1.336-4.215,5.836-6.555,10.031-5.227c4.219,1.324,6.563,5.816,5.234,10.031l-19.195,60.973
				C126.668,509.816,123.512,512.004,120.114,512.004z"/>
		</g>
	</g>
	<g>
		<path style="fill:#B4B6BC;" d="M252.74,136.001L151.161,457.609c-2.148,6.828-8.457,11.199-15.258,11.199
			c-1.59,0-3.211-0.238-4.809-0.742c-8.43-2.652-13.109-11.637-10.457-20.066l105.308-333.411L252.74,136.001z"/>
	</g>
	<g>
		<g>
			<path style="fill:#3482AC;" d="M256.113,72c-8.836,0-16-7.164-16-16V16c0-8.836,7.164-16,16-16s16,7.164,16,16v40
				C272.113,64.836,264.949,72,256.113,72z"/>
		</g>
	</g>
	<g>
		<path style="fill:#009BCA;" d="M272.113,40h-32c-13.234,0-24,10.766-24,24v40c0,22.055,17.945,40,40,40s40-17.945,40-40V64
			C296.113,50.766,285.348,40,272.113,40z"/>
	</g>
	<g>
		<path style="fill:#009BCA;" d="M270.114,344h-28c-1.105,0-2-0.895-2-2v-60c0-1.105,0.895-2,2-2h28c1.105,0,2,0.895,2,2v60
			C272.114,343.104,271.218,344,270.114,344z"/>
	</g>
	<g>
		<circle style="fill:#5C546A;" cx="255.895" cy="104" r="16"/>
	</g>
</g>
<g>
</g>
<g>
</g>
<g>
</g>
<g>
</g>
<g>
</g>
<g>
</g>
<g>
</g>
<g>
</g>
<g>
</g>
<g>
</g>
<g>
</g>
<g>
</g>
<g>
</g>
<g>
</g>
<g>
</g>
</svg>
