<?xml version="1.0" encoding="iso-8859-1"?>
<!-- Generator: Adobe Illustrator 19.0.0, SVG Export Plug-In . SVG Version: 6.00 Build 0)  -->
<svg version="1.1" id="Layer_1" xmlns="http://www.w3.org/2000/svg" xmlns:xlink="http://www.w3.org/1999/xlink" x="0px" y="0px"
	 viewBox="0 0 512 512" style="enable-background:new 0 0 512 512;" xml:space="preserve">
<path style="fill:#ADA7A4;" d="M46.047,70.997c-25.749,25.749-25.749,67.647,0,93.397l34.061,34.061
	c16.507,16.507,16.507,43.367,0,59.874s-43.368,16.507-59.876,0c-4.628-4.628-12.133-4.628-16.761,0s-4.628,12.133,0,16.761
	c25.749,25.749,67.647,25.749,93.397,0c25.749-25.749,25.749-67.647,0-93.397l-34.061-34.061c-16.507-16.507-16.507-43.367,0-59.874
	s43.367-16.507,59.874,0l105.901,105.901l16.761-16.761L139.443,70.997C113.695,45.248,71.796,45.248,46.047,70.997z"/>
<path style="fill:#CCC4C1;" d="M390.775,151.757l-18.733-18.733c-41.214-41.214-108.653-41.214-149.867,0l-18.733,18.733
	l93.666,127.188L390.775,151.757z"/>
<path style="fill:#E6E2E0;" d="M203.441,151.757l-18.733,18.733c-41.214,41.214-41.214,108.653,0,149.867l18.733,18.733
	l110.427-76.905L203.441,151.757z"/>
<path style="fill:#ADA7A4;" d="M473.201,234.183l-82.426-82.426L203.441,339.09l82.426,82.426
	c51.731,51.731,135.602,51.731,187.333,0C524.932,369.786,524.932,285.914,473.201,234.183z"/>
<g>
</g>
<g>
</g>
<g>
</g>
<g>
</g>
<g>
</g>
<g>
</g>
<g>
</g>
<g>
</g>
<g>
</g>
<g>
</g>
<g>
</g>
<g>
</g>
<g>
</g>
<g>
</g>
<g>
</g>
</svg>
