<?xml version="1.0" encoding="iso-8859-1"?>
<!-- Generator: Adobe Illustrator 19.0.0, SVG Export Plug-In . SVG Version: 6.00 Build 0)  -->
<svg version="1.1" id="Layer_1" xmlns="http://www.w3.org/2000/svg" xmlns:xlink="http://www.w3.org/1999/xlink" x="0px" y="0px"
	 viewBox="0 0 512 512" style="enable-background:new 0 0 512 512;" xml:space="preserve">
<g>
	<g>
		<g>
			<path style="fill:#5C546A;" d="M448,112h-16c-30.875,0-56-25.121-56-56c0-22.055-17.945-40-40-40h-56c-39.703,0-72,32.301-72,72
				c0,4.418-3.578,8-8,8s-8-3.582-8-8c0-48.523,39.477-88,88-88h56c30.875,0,56,25.121,56,56c0,22.055,17.945,40,40,40h16
				c4.422,0,8,3.582,8,8S452.422,112,448,112z"/>
		</g>
	</g>
	<g>
		<path style="fill:#868491;" d="M256,80H144c-48.523,0-88,39.477-88,88v200c0,79.402,64.602,144,144,144s144-64.598,144-144V168
			C344,119.477,304.523,80,256,80z"/>
	</g>
	<g>
		<path style="fill:#B4B6BC;" d="M256,80h-56.219v431.989c0.074,0,0.145,0.011,0.219,0.011c79.398,0,144-64.598,144-144V168
			C344,119.477,304.523,80,256,80z"/>
	</g>
	<g>
		<path style="fill:#5C546A;" d="M304,94.339C290.181,85.303,273.708,80,256,80H144c-17.708,0-34.181,5.303-48,14.339V232
			c0,30.879,25.125,56,56,56h96c30.875,0,56-25.121,56-56V94.339z"/>
	</g>
	<g>
		<path style="fill:#868491;" d="M199.781,80v208H248c30.875,0,56-25.121,56-56V94.339C290.181,85.303,273.708,80,256,80H199.781z"
			/>
	</g>
	<g>
		<path style="fill:#B4B6BC;" d="M200,224L200,224c-8.837,0-16-7.163-16-16v-48c0-8.837,7.163-16,16-16l0,0c8.837,0,16,7.163,16,16
			v48C216,216.836,208.837,224,200,224z"/>
	</g>
	<g>
		<path style="fill:#FFFFFF;" d="M200,144c-0.075,0-0.145,0.021-0.219,0.022v79.956c0.075,0.001,0.144,0.022,0.219,0.022
			c8.836,0,16-7.164,16-16v-48C216,151.163,208.837,144,200,144z"/>
	</g>
</g>
<g>
</g>
<g>
</g>
<g>
</g>
<g>
</g>
<g>
</g>
<g>
</g>
<g>
</g>
<g>
</g>
<g>
</g>
<g>
</g>
<g>
</g>
<g>
</g>
<g>
</g>
<g>
</g>
<g>
</g>
</svg>
