<?xml version="1.0" encoding="iso-8859-1"?>
<!-- Generator: Adobe Illustrator 19.0.0, SVG Export Plug-In . SVG Version: 6.00 Build 0)  -->
<svg version="1.1" id="Layer_1" xmlns="http://www.w3.org/2000/svg" xmlns:xlink="http://www.w3.org/1999/xlink" x="0px" y="0px"
	 viewBox="0 0 512 512" style="enable-background:new 0 0 512 512;" xml:space="preserve">
<polygon style="fill:#ADA7A4;" points="389.46,0 122.54,0 122.54,256 256,280.265 389.46,256 "/>
<rect x="122.54" y="256" style="fill:#7A7674;" width="266.919" height="256"/>
<path style="fill:#524E4D;" d="M280.265,60.664h-48.531c-6.7,0-12.133-5.433-12.133-12.133s5.433-12.133,12.133-12.133h48.531
	c6.7,0,12.133,5.433,12.133,12.133S286.965,60.664,280.265,60.664z"/>
<path style="fill:#181818;" d="M280.265,316.664h-48.531c-6.7,0-12.133-5.433-12.133-12.133s5.433-12.133,12.133-12.133h48.531
	c6.7,0,12.133,5.433,12.133,12.133S286.965,316.664,280.265,316.664z"/>
<g>
	<rect x="219.602" y="353.062" style="fill:#FFFFFF;" width="72.796" height="48.531"/>
	<rect x="219.602" y="97.062" style="fill:#FFFFFF;" width="72.796" height="48.531"/>
</g>
<g>
</g>
<g>
</g>
<g>
</g>
<g>
</g>
<g>
</g>
<g>
</g>
<g>
</g>
<g>
</g>
<g>
</g>
<g>
</g>
<g>
</g>
<g>
</g>
<g>
</g>
<g>
</g>
<g>
</g>
</svg>
