<?xml version="1.0" encoding="iso-8859-1"?>
<!-- Generator: Adobe Illustrator 19.0.0, SVG Export Plug-In . SVG Version: 6.00 Build 0)  -->
<svg version="1.1" id="Layer_1" xmlns="http://www.w3.org/2000/svg" xmlns:xlink="http://www.w3.org/1999/xlink" x="0px" y="0px"
	 viewBox="0 0 512 512" style="enable-background:new 0 0 512 512;" xml:space="preserve">
<path style="fill:#C21B23;" d="M122.54,0C95.848,0,74.009,21.839,74.009,48.531v402.806l84.929-8.089L134.673,0H122.54z"/>
<polygon style="fill:#EE3840;" points="413.725,24.265 328.796,0 134.673,0 134.673,443.248 328.796,402.806 413.725,378.54 
	437.991,293.611 437.991,109.194 "/>
<g>
	<polygon style="fill:#FFB14D;" points="437.991,402.806 437.991,293.611 328.796,402.806 	"/>
	<polygon style="fill:#FFB14D;" points="328.796,0 437.991,109.194 437.991,0 	"/>
</g>
<path style="fill:#EBEDEC;" d="M122.54,402.806c-26.692,0-48.531,21.839-48.531,48.531c0,26.692,21.839,48.531,48.531,48.531
	h296.478v-97.062H122.54z"/>
<path style="fill:#EE3840;" d="M425.858,512H134.673c-33.45,0-60.664-27.214-60.664-60.663s27.214-60.664,60.664-60.664h291.185
	c6.7,0,12.133,5.433,12.133,12.133s-5.433,12.133-12.133,12.133H134.673c-20.07,0-36.398,16.328-36.398,36.398
	c0,20.07,16.328,36.398,36.398,36.398h291.185c6.7,0,12.133,5.433,12.133,12.133S432.558,512,425.858,512z"/>
<g>
</g>
<g>
</g>
<g>
</g>
<g>
</g>
<g>
</g>
<g>
</g>
<g>
</g>
<g>
</g>
<g>
</g>
<g>
</g>
<g>
</g>
<g>
</g>
<g>
</g>
<g>
</g>
<g>
</g>
</svg>
