<?xml version="1.0" encoding="iso-8859-1"?>
<!-- Generator: Adobe Illustrator 19.0.0, SVG Export Plug-In . SVG Version: 6.00 Build 0)  -->
<svg version="1.1" id="Layer_1" xmlns="http://www.w3.org/2000/svg" xmlns:xlink="http://www.w3.org/1999/xlink" x="0px" y="0px"
	 viewBox="0 0 512 512" style="enable-background:new 0 0 512 512;" xml:space="preserve">
<polygon style="fill:#7A7674;" points="267.342,237.829 173.993,0 226.41,0 377.713,237.829 "/>
<path style="fill:#ADA7A4;" d="M497.958,259.18l-14.559-7.004l-6.745-14.284c-19.342-13.812-48.901-24.332-93.788-24.332
	c-142.684,0-328.62,0-328.62,0l-20.761-53.215H0v138.37h257.708L173.993,512h52.417c21.565-37.033,130.957-205.984,135.685-213.286
	H512C512,291.494,509.359,275.432,497.958,259.18z"/>
<g>
	<path style="fill:#FFFFFF;" d="M477.952,262.091h12.133c3.005,0,5.75-1.098,7.868-2.907c-5.136-7.322-12.051-14.679-21.303-21.286
		c-6.088,0.65-10.831,5.801-10.831,12.061C465.819,256.658,471.251,262.091,477.952,262.091z"/>
	<path style="fill:#FFFFFF;" d="M429.421,262.091h-12.133c-6.701,0-12.133-5.433-12.133-12.133s5.432-12.133,12.133-12.133h12.133
		c6.701,0,12.133,5.433,12.133,12.133S436.121,262.091,429.421,262.091z"/>
	<path style="fill:#FFFFFF;" d="M368.758,262.091h-12.133c-6.701,0-12.133-5.433-12.133-12.133s5.432-12.133,12.133-12.133h12.133
		c6.701,0,12.133,5.433,12.133,12.133S375.457,262.091,368.758,262.091z"/>
	<path style="fill:#FFFFFF;" d="M308.094,262.091h-12.133c-6.701,0-12.133-5.433-12.133-12.133s5.432-12.133,12.133-12.133h12.133
		c6.701,0,12.133,5.433,12.133,12.133S314.794,262.091,308.094,262.091z"/>
	<path style="fill:#FFFFFF;" d="M247.431,262.091h-12.133c-6.701,0-12.133-5.433-12.133-12.133s5.432-12.133,12.133-12.133h12.133
		c6.701,0,12.133,5.433,12.133,12.133S254.13,262.091,247.431,262.091z"/>
	<path style="fill:#FFFFFF;" d="M186.767,262.091h-12.133c-6.701,0-12.133-5.433-12.133-12.133s5.432-12.133,12.133-12.133h12.133
		c6.701,0,12.133,5.433,12.133,12.133S193.467,262.091,186.767,262.091z"/>
	<path style="fill:#FFFFFF;" d="M126.104,262.091h-12.133c-6.701,0-12.133-5.433-12.133-12.133s5.432-12.133,12.133-12.133h12.133
		c6.701,0,12.133,5.433,12.133,12.133S132.803,262.091,126.104,262.091z"/>
</g>
<g>
</g>
<g>
</g>
<g>
</g>
<g>
</g>
<g>
</g>
<g>
</g>
<g>
</g>
<g>
</g>
<g>
</g>
<g>
</g>
<g>
</g>
<g>
</g>
<g>
</g>
<g>
</g>
<g>
</g>
</svg>
