<?xml version="1.0" encoding="iso-8859-1"?>
<!-- Generator: Adobe Illustrator 19.0.0, SVG Export Plug-In . SVG Version: 6.00 Build 0)  -->
<svg version="1.1" id="Layer_1" xmlns="http://www.w3.org/2000/svg" xmlns:xlink="http://www.w3.org/1999/xlink" x="0px" y="0px"
	 viewBox="0 0 512 512" style="enable-background:new 0 0 512 512;" xml:space="preserve">
<g>
	<g>
		<path style="fill:#FFCD00;" d="M244.108,0c-26.469,0-48,21.531-48,48v8c0,4.422,3.578,8,8,8h80c4.422,0,8-3.578,8-8v-8
			C292.108,21.531,270.577,0,244.108,0z"/>
	</g>
	<g>
		<path style="fill:#FF9100;" d="M243.891,0.011C217.522,0.131,196.108,21.605,196.108,48v8c0,4.422,3.578,8,8,8h39.781V0.011
			H243.891z"/>
	</g>
	<g>
		<path style="fill:#FFCD00;" d="M276.109,344h-64l-16,80l32,88h8v-74.227c-4.758-2.776-8-7.88-8-13.773c0-8.82,7.18-16,16-16
			s16,7.18,16,16c0,5.894-3.242,10.998-8,13.773V512h8l32-88L276.109,344z"/>
	</g>
	<g>
		<path style="fill:#FF9100;" d="M243.891,408.022V344h-31.781l-16,80l32,88h8v-74.227c-4.758-2.776-8-7.88-8-13.773
			C228.108,415.254,235.172,408.142,243.891,408.022z"/>
	</g>
	<g>
		<path style="fill:#FF4F19;" d="M196.109,56v136l7.274,144c0.406,8.531,7.441,15.239,15.982,15.239h49.485
			c8.541,0,15.575-6.708,15.982-15.239l7.278-144V56"/>
	</g>
	<g>
		<path style="fill:#E3001E;" d="M243.891,56h-47.781v136l7.273,144c0.406,8.531,7.441,15.239,15.982,15.239h24.525V56H243.891z"/>
	</g>
	<g>
		<path style="fill:#C10019;" d="M187.891,56h56v144h-55c-0.552,0-1-0.448-1-1V56z"/>
	</g>
	<g>
		<path style="fill:#E3001E;" d="M243.891,56h56v143c0,0.552-0.448,1-1,1h-55L243.891,56L243.891,56z"/>
	</g>
	<g>
		<g>
			<path style="fill:#FF9100;" d="M324.108,224c-4.422,0-8-3.578-8-8V72c0-4.414-3.586-8-8-8H187.891c-4.422,0-8-3.578-8-8
				s3.578-8,8-8h120.219c13.234,0,24,10.766,24,24v144C332.108,220.422,328.53,224,324.108,224z"/>
		</g>
	</g>
</g>
<g>
</g>
<g>
</g>
<g>
</g>
<g>
</g>
<g>
</g>
<g>
</g>
<g>
</g>
<g>
</g>
<g>
</g>
<g>
</g>
<g>
</g>
<g>
</g>
<g>
</g>
<g>
</g>
<g>
</g>
</svg>
