<?xml version="1.0" encoding="iso-8859-1"?>
<!-- Generator: Adobe Illustrator 19.0.0, SVG Export Plug-In . SVG Version: 6.00 Build 0)  -->
<svg version="1.1" id="Layer_1" xmlns="http://www.w3.org/2000/svg" xmlns:xlink="http://www.w3.org/1999/xlink" x="0px" y="0px"
	 viewBox="0 0 512.22 512.22" style="enable-background:new 0 0 512.22 512.22;" xml:space="preserve">
<g>
	<g>
		<g>
			<path style="fill:#5C546A;" d="M0,244.11v-82.746c0-10.604,4.212-20.773,11.709-28.271l22.635-22.639
				c3.125-3.125,8.187-3.125,11.312,0c3.125,3.121,3.125,8.188,0,11.312l-22.625,22.633C18.529,148.903,16,155.01,16,161.378v58.732
				c0,4.418,3.582,8,8,8h40c3.031,0,5.797,1.711,7.156,4.422c1.352,2.711,1.063,5.953-0.758,8.379l-24,32
				c-1.51,2.014-3.881,3.199-6.398,3.199h-8C14.327,276.11,0,261.783,0,244.11z"/>
		</g>
	</g>
	<g>
		<path style="fill:#AEEFFF;" d="M376,204.11c-52.935,0-96,43.065-96,96s43.065,96,96,96s96-43.065,96-96S428.935,204.11,376,204.11
			z"/>
	</g>
	<g>
		<path style="fill:#FFFFFF;" d="M395.891,248.22c-17.645,0-32,14.355-32,32s14.355,32,32,32s32-14.355,32-32
			S413.535,248.22,395.891,248.22z"/>
	</g>
	<g>
		<path style="fill:#AEEFFF;" d="M136.219,204.11c-52.935,0-96,43.065-96,96s43.065,96,96,96s96-43.065,96-96
			S189.153,204.11,136.219,204.11z"/>
	</g>
	<g>
		<g>
			<path style="fill:#5C546A;" d="M284.219,280.11c-4.422,0-8-3.582-8-8c0-11.027-8.969-20-20-20s-20,8.973-20,20
				c0,4.418-3.578,8-8,8s-8-3.582-8-8c0-19.852,16.148-36,36-36s36,16.148,36,36C292.219,276.528,288.641,280.11,284.219,280.11z"/>
		</g>
	</g>
	<g>
		<g>
			<path style="fill:#5C546A;" d="M480.219,276.11h-8c-2.517,0-4.888-1.185-6.398-3.199l-24-32c-1.82-2.426-2.109-5.668-0.758-8.379
				c1.359-2.711,4.125-4.422,7.156-4.422h40c4.418,0,8-3.582,8-8v-58.732c0-6.368-2.529-12.475-7.031-16.979l-22.625-22.633
				c-3.125-3.125-3.125-8.191,0-11.312c3.125-3.125,8.188-3.125,11.313,0l22.635,22.639c7.497,7.499,11.709,17.668,11.709,28.271
				v82.746C512.219,261.783,497.892,276.11,480.219,276.11z"/>
		</g>
	</g>
	<g>
		<g>
			<path style="fill:#868491;" d="M136.219,404.11c-57.344,0-104-46.652-104-104s46.656-104,104-104s104,46.652,104,104
				S193.562,404.11,136.219,404.11z M136.219,212.11c-48.523,0-88,39.477-88,88s39.477,88,88,88s88-39.477,88-88
				S184.742,212.11,136.219,212.11z"/>
		</g>
	</g>
	<g>
		<g>
			<path style="fill:#868491;" d="M376.219,404.11c-57.344,0-104-46.652-104-104s46.656-104,104-104s104,46.652,104,104
				S433.562,404.11,376.219,404.11z M376.219,212.11c-48.523,0-88,39.477-88,88s39.477,88,88,88s88-39.477,88-88
				S424.742,212.11,376.219,212.11z"/>
		</g>
	</g>
	<g>
		<path style="fill:#FFFFFF;" d="M156.109,248.22c-17.645,0-32,14.355-32,32s14.355,32,32,32s32-14.355,32-32
			S173.754,248.22,156.109,248.22z"/>
	</g>
</g>
<g>
</g>
<g>
</g>
<g>
</g>
<g>
</g>
<g>
</g>
<g>
</g>
<g>
</g>
<g>
</g>
<g>
</g>
<g>
</g>
<g>
</g>
<g>
</g>
<g>
</g>
<g>
</g>
<g>
</g>
</svg>
