<?xml version="1.0" encoding="iso-8859-1"?>
<!-- Generator: Adobe Illustrator 19.0.0, SVG Export Plug-In . SVG Version: 6.00 Build 0)  -->
<svg version="1.1" id="Layer_1" xmlns="http://www.w3.org/2000/svg" xmlns:xlink="http://www.w3.org/1999/xlink" x="0px" y="0px"
	 viewBox="0 0 512 512" style="enable-background:new 0 0 512 512;" xml:space="preserve">
<path style="fill:#FF8C00;" d="M459.675,193.849c11.977,0,21.687,9.71,21.687,21.699c0,11.977-9.71,21.699-21.687,21.699
	l-140.851,11.685l23.37-55.083L459.675,193.849L459.675,193.849z"/>
<path style="fill:#FF9E24;" d="M490.301,237.247c11.977,0,21.699,9.71,21.699,21.687c0,11.989-9.722,21.699-21.699,21.699h-30.626
	l-140.851,23.37v-66.756h140.851L490.301,237.247L490.301,237.247z"/>
<path style="fill:#FF8C00;" d="M459.675,280.633c11.977,0,21.687,9.722,21.687,21.699c0,11.989-9.71,21.699-21.687,21.699h-30.638
	l-110.213,23.37v-66.768H459.675z"/>
<path style="fill:#FF9E24;" d="M429.037,324.031c11.989,0,21.699,9.71,21.699,21.699c0,11.977-9.71,21.687-21.699,21.687
	c0,0-41.563,0-86.843,0l-23.37-43.386H429.037z"/>
<path style="fill:#FFB14D;" d="M295.454,193.849L97.441,280.609v51.075h65.81c15.95,21.874,41.75,35.733,70.893,35.733h108.051
	V193.849L295.454,193.849L295.454,193.849z"/>
<path style="fill:#FF8C00;" d="M361.895,132.666c0.724,11.954-8.39,22.236-20.355,22.961c-39.811,2.419-72.867,15.237-98.902,38.222
	h52.816c0,47.908-38.829,86.761-86.726,86.761H97.441v-51.028h65.81c34.704-71.851,95.373-112.398,175.672-117.27
	C350.876,111.586,361.171,120.701,361.895,132.666z"/>
<rect y="171.756" style="fill:#181818;" width="41.815" height="227.974"/>
<rect x="41.815" y="193.852" style="fill:#4C5870;" width="79.002" height="183.781"/>
<circle style="fill:#181818;" cx="81.316" cy="331.688" r="11.685"/>
<g>
</g>
<g>
</g>
<g>
</g>
<g>
</g>
<g>
</g>
<g>
</g>
<g>
</g>
<g>
</g>
<g>
</g>
<g>
</g>
<g>
</g>
<g>
</g>
<g>
</g>
<g>
</g>
<g>
</g>
</svg>
