<?xml version="1.0" encoding="iso-8859-1"?>
<!-- Generator: Adobe Illustrator 19.0.0, SVG Export Plug-In . SVG Version: 6.00 Build 0)  -->
<svg version="1.1" id="Layer_1" xmlns="http://www.w3.org/2000/svg" xmlns:xlink="http://www.w3.org/1999/xlink" x="0px" y="0px"
	 viewBox="0 0 512 512" style="enable-background:new 0 0 512 512;" xml:space="preserve">
<polygon style="fill:#4C5870;" points="512,471.103 0,471.103 0,417.068 256,392.802 512,417.068 "/>
<path style="fill:#181818;" d="M484.98,73.546v204.8L256,302.611L27.02,278.346v-204.8c0-18.053,14.632-32.649,32.649-32.649
	h392.663C470.348,40.897,484.98,55.493,484.98,73.546z"/>
<polygon style="fill:#4C5870;" points="484.98,278.346 484.98,332.385 256,356.65 27.02,332.385 27.02,278.346 "/>
<polygon style="fill:#269AF2;" points="27.017,332.386 0,417.068 512,417.068 484.983,332.386 "/>
<path style="fill:#FFFFFF;" d="M282.597,391.503h-53.195c-6.701,0-12.133-5.432-12.133-12.133s5.432-12.133,12.133-12.133h53.195
	c6.701,0,12.133,5.432,12.133,12.133S289.298,391.503,282.597,391.503z"/>
<g>
</g>
<g>
</g>
<g>
</g>
<g>
</g>
<g>
</g>
<g>
</g>
<g>
</g>
<g>
</g>
<g>
</g>
<g>
</g>
<g>
</g>
<g>
</g>
<g>
</g>
<g>
</g>
<g>
</g>
</svg>
