<?xml version="1.0" encoding="UTF-8" standalone="no"?>
<!-- Generator: Adobe Illustrator 19.0.0, SVG Export Plug-In . SVG Version: 6.00 Build 0)  -->

<svg
   xmlns:dc="http://purl.org/dc/elements/1.1/"
   xmlns:cc="http://creativecommons.org/ns#"
   xmlns:rdf="http://www.w3.org/1999/02/22-rdf-syntax-ns#"
   xmlns:svg="http://www.w3.org/2000/svg"
   xmlns="http://www.w3.org/2000/svg"
   xmlns:sodipodi="http://sodipodi.sourceforge.net/DTD/sodipodi-0.dtd"
   xmlns:inkscape="http://www.inkscape.org/namespaces/inkscape"
   version="1.1"
   id="Layer_1"
   x="0px"
   y="0px"
   viewBox="0 0 491.52 491.52"
   style="enable-background:new 0 0 491.52 491.52;"
   xml:space="preserve"
   inkscape:version="0.91 r13725"
   sodipodi:docname="linkedin-page.svg"><metadata
     id="metadata113"><rdf:RDF><cc:Work
         rdf:about=""><dc:format>image/svg+xml</dc:format><dc:type
           rdf:resource="http://purl.org/dc/dcmitype/StillImage" /><dc:title></dc:title></cc:Work></rdf:RDF></metadata><defs
     id="defs111" /><sodipodi:namedview
     pagecolor="#ffffff"
     bordercolor="#666666"
     borderopacity="1"
     objecttolerance="10"
     gridtolerance="10"
     guidetolerance="10"
     inkscape:pageopacity="0"
     inkscape:pageshadow="2"
     inkscape:window-width="640"
     inkscape:window-height="480"
     id="namedview109"
     showgrid="false"
     inkscape:zoom="0.48014324"
     inkscape:cx="245.75999"
     inkscape:cy="245.75999"
     inkscape:window-x="783"
     inkscape:window-y="107"
     inkscape:window-maximized="0"
     inkscape:current-layer="Layer_1" /><polygon
     style="fill:#EBF0F3;"
     points="326.95,0 62.336,0 62.336,491.52 429.184,491.52 429.184,102.234 "
     id="polygon3" /><polygon
     style="fill:#D5D6DB;"
     points="326.95,102.234 429.184,102.234 326.95,0 "
     id="polygon5" /><polygon
     style="fill:#E1E6E9;"
     points="429.184,102.234 326.95,102.234 429.184,173.099 "
     id="polygon7" /><g
     id="g63"><rect
       x="92.314"
       y="196.25"
       style="fill:#D5D6DB;"
       width="306.857"
       height="8.934"
       id="rect65" /><rect
       x="92.314"
       y="235.331"
       style="fill:#D5D6DB;"
       width="306.857"
       height="8.934"
       id="rect67" /><rect
       x="92.314"
       y="274.381"
       style="fill:#D5D6DB;"
       width="306.857"
       height="8.934"
       id="rect69" /><rect
       x="92.314"
       y="313.446"
       style="fill:#D5D6DB;"
       width="306.857"
       height="8.934"
       id="rect71" /><rect
       x="92.314"
       y="352.497"
       style="fill:#D5D6DB;"
       width="306.857"
       height="8.934"
       id="rect73" /><rect
       x="92.314"
       y="391.578"
       style="fill:#D5D6DB;"
       width="306.857"
       height="8.934"
       id="rect75" /><rect
       x="92.314"
       y="430.592"
       style="fill:#D5D6DB;"
       width="250.506"
       height="8.934"
       id="rect77" /></g><g
     id="g79" /><g
     id="g81" /><g
     id="g83" /><g
     id="g85" /><g
     id="g87" /><g
     id="g89" /><g
     id="g91" /><g
     id="g93" /><g
     id="g95" /><g
     id="g97" /><g
     id="g99" /><g
     id="g101" /><g
     id="g103" /><g
     id="g105" /><g
     id="g107" /><path
     inkscape:connector-curvature="0"
     style="fill:#0077b7"
     d="m 233.21362,23.519321 -126.94521,0 c -7.742734,0 -14.019603,6.10817 -14.019603,13.6428 l 0,123.532989 c 0,7.53503 6.276869,13.6432 14.019603,13.6432 l 126.94481,0 c 7.74313,0 14.02,-6.10817 14.02,-13.6432 l 0,-123.532989 c 0,-7.53463 -6.27687,-13.6428 -14.0196,-13.6428 z M 140.20756,153.74639 c 0,2.19279 -1.82655,3.97025 -4.07991,3.97025 l -17.36718,0 c -2.25336,0 -4.0799,-1.77746 -4.0799,-3.97025 l 0,-70.845839 c 0,-2.1928 1.82654,-3.97026 4.0799,-3.97026 l 17.36718,0 c 2.25336,0 4.07991,1.77746 4.07991,3.97026 l 0,70.845839 z m -12.7635,-81.494379 c -9.11202,0 -16.49894,-7.18838 -16.49894,-16.05551 0,-8.86713 7.38692,-16.05551 16.49894,-16.05551 9.11203,0 16.49895,7.18838 16.49895,16.05551 0,8.86713 -7.38651,16.05551 -16.49895,16.05551 z m 103.52391,81.814169 c 0,2.01593 -1.67967,3.65046 -3.75127,3.65046 l -18.63627,0 c -2.0716,0 -3.75127,-1.63453 -3.75127,-3.65046 l 0,-33.23071 c 0,-4.95729 1.49426,-21.723069 -13.31284,-21.723069 -11.48548,0 -13.81511,11.475669 -14.2829,16.625629 l 0,38.32815 c 0,2.01593 -1.67927,3.65046 -3.75128,3.65046 l -18.02444,0 c -2.0716,0 -3.75127,-1.63453 -3.75127,-3.65046 l 0,-71.485429 c 0,-2.01593 1.67967,-3.65046 3.75127,-3.65046 l 18.02444,0 c 2.0716,0 3.75128,1.63453 3.75128,3.65046 l 0,6.18081 c 4.25882,-6.2195 10.58803,-11.02005 24.06396,-11.02005 29.8414,0 29.67059,27.130049 29.67059,42.036649 l 0,34.28802 0,0 z"
     id="path3" /><g
     id="g5"
     transform="translate(-397.18847,-103.5261)" /><g
     id="g7"
     transform="translate(-397.18847,-103.5261)" /><g
     id="g9"
     transform="translate(-397.18847,-103.5261)" /><g
     id="g11"
     transform="translate(-397.18847,-103.5261)" /><g
     id="g13"
     transform="translate(-397.18847,-103.5261)" /><g
     id="g15"
     transform="translate(-397.18847,-103.5261)" /><g
     id="g17"
     transform="translate(-397.18847,-103.5261)" /><g
     id="g19"
     transform="translate(-397.18847,-103.5261)" /><g
     id="g21"
     transform="translate(-397.18847,-103.5261)" /><g
     id="g23"
     transform="translate(-397.18847,-103.5261)" /><g
     id="g25"
     transform="translate(-397.18847,-103.5261)" /><g
     id="g27"
     transform="translate(-397.18847,-103.5261)" /><g
     id="g29"
     transform="translate(-397.18847,-103.5261)" /><g
     id="g31"
     transform="translate(-397.18847,-103.5261)" /><g
     id="g33"
     transform="translate(-397.18847,-103.5261)" /></svg>