<?xml version="1.0" encoding="iso-8859-1"?>
<!-- Generator: Adobe Illustrator 19.0.0, SVG Export Plug-In . SVG Version: 6.00 Build 0)  -->
<svg version="1.1" id="Layer_1" xmlns="http://www.w3.org/2000/svg" xmlns:xlink="http://www.w3.org/1999/xlink" x="0px" y="0px"
	 viewBox="0 0 512 512" style="enable-background:new 0 0 512 512;" xml:space="preserve">
<polygon style="fill:#7A7674;" points="427.071,0 145.592,0 145.592,512 512,512 512,84.929 451.337,60.664 "/>
<path style="fill:#181818;" d="M357.609,148.14c-2.968,0-5.937-1.083-8.265-3.25l-20.552-19.124l-20.549,19.122
	c-4.659,4.334-11.872,4.334-16.531,0L262.9,118.075c-4.905-4.564-5.182-12.242-0.616-17.147c4.566-4.905,12.242-5.182,17.147-0.616
	l20.548,19.121l20.548-19.121c4.659-4.334,11.873-4.335,16.53-0.001l20.553,19.124l20.553-19.124
	c4.904-4.566,12.583-4.288,17.147,0.619c4.564,4.905,4.288,12.582-0.619,17.147l-28.818,26.813
	C363.545,147.057,360.577,148.14,357.609,148.14z"/>
<polygon style="fill:#524E4D;" points="427.071,0 427.071,84.929 512,84.929 "/>
<g>
	<polygon style="fill:#FF9E24;" points="0,207.327 0,440.679 135.72,367.303 135.72,299.331 	"/>
	<polygon style="fill:#FF9E24;" points="328.796,207.327 193.076,299.332 193.076,367.303 328.796,440.679 	"/>
</g>
<polygon style="fill:#FFB14D;" points="193.076,299.332 135.72,299.331 0,440.679 328.796,440.679 "/>
<path style="fill:#FFE1D6;" d="M0,207.327l153.605,159.976c5.937,6.182,15.649,6.182,21.585,0l153.606-159.976H0z"/>
<path style="fill:#7A7674;" d="M185.837,296.571c-2.968,0-5.937-1.085-8.266-3.252l-13.17-12.256l-13.172,12.258
	c-4.657,4.331-11.872,4.334-16.528,0l-21.437-19.946c-4.906-4.566-5.182-12.242-0.619-17.147c4.566-4.908,12.244-5.182,17.147-0.619
	l13.172,12.258l13.174-12.258c4.657-4.334,11.871-4.335,16.53,0.001l13.169,12.255l13.169-12.255
	c4.903-4.566,12.582-4.291,17.147,0.616c4.566,4.905,4.289,12.582-0.616,17.147l-21.434,19.946
	C191.773,295.487,188.804,296.571,185.837,296.571z"/>
<g>
</g>
<g>
</g>
<g>
</g>
<g>
</g>
<g>
</g>
<g>
</g>
<g>
</g>
<g>
</g>
<g>
</g>
<g>
</g>
<g>
</g>
<g>
</g>
<g>
</g>
<g>
</g>
<g>
</g>
</svg>
