<?xml version="1.0" encoding="iso-8859-1"?>
<!-- Generator: Adobe Illustrator 19.0.0, SVG Export Plug-In . SVG Version: 6.00 Build 0)  -->
<svg version="1.1" id="Layer_1" xmlns="http://www.w3.org/2000/svg" xmlns:xlink="http://www.w3.org/1999/xlink" x="0px" y="0px"
	 viewBox="0 0 512 512" style="enable-background:new 0 0 512 512;" xml:space="preserve">
<g>
	<path style="fill:#FF9E24;" d="M222.987,256L3.494,434.047C1.335,431.864,0,428.855,0,425.555V86.446
		c0-3.3,1.335-6.309,3.494-8.493L222.987,256z"/>
	<path style="fill:#FF9E24;" d="M512,86.446v339.109c0,3.3-1.335,6.309-3.494,8.493L289.013,256L508.506,77.953
		C510.665,80.136,512,83.145,512,86.446z"/>
</g>
<path style="fill:#FFE1D6;" d="M499.867,74.313H12.133c-3.373,0-6.43,1.395-8.638,3.64L256,340.929L508.506,77.953
	C506.298,75.708,503.24,74.313,499.867,74.313z"/>
<path style="fill:#FFB14D;" d="M337.544,256l170.962,178.047c-2.208,2.245-5.266,3.64-8.638,3.64H12.133
	c-3.373,0-6.43-1.395-8.638-3.64L174.456,256L256,340.929L337.544,256z"/>
<g>
</g>
<g>
</g>
<g>
</g>
<g>
</g>
<g>
</g>
<g>
</g>
<g>
</g>
<g>
</g>
<g>
</g>
<g>
</g>
<g>
</g>
<g>
</g>
<g>
</g>
<g>
</g>
<g>
</g>
</svg>
