<?xml version="1.0" encoding="iso-8859-1"?>
<!-- Generator: Adobe Illustrator 19.0.0, SVG Export Plug-In . SVG Version: 6.00 Build 0)  -->
<svg version="1.1" id="Layer_1" xmlns="http://www.w3.org/2000/svg" xmlns:xlink="http://www.w3.org/1999/xlink" x="0px" y="0px"
	 viewBox="0 0 504.001 504.001" style="enable-background:new 0 0 504.001 504.001;" xml:space="preserve">
<g>
	<g>
		<g>
			<path style="fill:#868491;" d="M219.95,308.001c-4.422,0-8-3.578-8-8v-208c0-4.422,3.578-8,8-8s8,3.578,8,8v208
				C227.95,304.423,224.372,308.001,219.95,308.001z"/>
		</g>
	</g>
	<g>
		<g>
			<path style="fill:#868491;" d="M267.95,308.001c-4.422,0-8-3.578-8-8v-208c0-4.422,3.578-8,8-8s8,3.578,8,8v208
				C275.95,304.423,272.372,308.001,267.95,308.001z"/>
		</g>
	</g>
	<g>
		<g>
			<path style="fill:#868491;" d="M315.95,308.001c-4.422,0-8-3.578-8-8v-208c0-4.422,3.578-8,8-8s8,3.578,8,8v208
				C323.95,304.423,320.372,308.001,315.95,308.001z"/>
		</g>
	</g>
	<g>
		<g>
			<path style="fill:#868491;" d="M463.028,247.079c-2.047,0-4.094-0.781-5.656-2.344L310.294,97.657
				c-3.125-3.125-3.125-8.188,0-11.313s8.188-3.125,11.313,0l147.078,147.078c3.125,3.125,3.125,8.188,0,11.313
				C467.122,246.298,465.075,247.079,463.028,247.079z"/>
		</g>
	</g>
	<g>
		<g>
			<path style="fill:#868491;" d="M171.95,308.001c-4.422,0-8-3.578-8-8v-208c0-4.422,3.578-8,8-8s8,3.578,8,8v208
				C179.95,304.423,176.372,308.001,171.95,308.001z"/>
		</g>
	</g>
	<g>
		<g>
			<path style="fill:#868491;" d="M123.95,308.001c-4.422,0-8-3.578-8-8v-208c0-4.422,3.578-8,8-8s8,3.578,8,8v208
				C131.95,304.423,128.372,308.001,123.95,308.001z"/>
		</g>
	</g>
	<g>
		<g>
			<path style="fill:#5C546A;" d="M399.999,372.001c-4.422,0-8-3.578-8-8v-240c0-13.234-10.766-24-24-24H72
				c-13.234,0-24,10.766-24,24v240c0,4.422-3.578,8-8,8s-8-3.578-8-8v-240c0-22.055,17.945-40,40-40h295.999
				c22.055,0,40,17.945,40,40v240C407.999,368.423,404.421,372.001,399.999,372.001z"/>
		</g>
	</g>
	<g>
		<g>
			<path style="fill:#868491;" d="M56,388.001H24c-4.422,0-8-3.578-8-8c0-13.234,10.766-24,24-24s24,10.766,24,24
				C64,384.423,60.421,388.001,56,388.001z"/>
		</g>
	</g>
	<g>
		<path style="fill:#B4B6BC;" d="M40,356.001c-0.075,0-0.144,0.021-0.219,0.022v31.978H56c4.422,0,8-3.578,8-8
			C64,366.766,53.234,356.001,40,356.001z"/>
	</g>
	<g>
		<g>
			<path style="fill:#868491;" d="M415.78,388.001h-32c-4.422,0-8-3.578-8-8c0-13.234,10.766-24,24-24s24,10.766,24,24
				C423.78,384.423,420.202,388.001,415.78,388.001z"/>
		</g>
	</g>
	<g>
		<path style="fill:#B4B6BC;" d="M399.78,356.001c-0.075,0-0.144,0.021-0.219,0.022v31.978h16.219c4.422,0,8-3.578,8-8
			C423.78,366.766,413.015,356.001,399.78,356.001z"/>
	</g>
	<g>
		<circle style="fill:#FFCD00;" cx="123.951" cy="324.001" r="24"/>
	</g>
	<g>
		<path style="fill:#7E5C62;" d="M431.999,420.001H8c-4.418,0-8-3.582-8-8v-16c0-8.837,7.163-16,16-16h407.999
			c8.837,0,16,7.163,16,16v16C439.999,416.419,436.418,420.001,431.999,420.001z"/>
	</g>
	<g>
		<path style="fill:#FFE671;" d="M106.98,307.03c-0.053,0.053-0.087,0.117-0.139,0.171l33.91,33.91
			c0.053-0.052,0.117-0.086,0.171-0.139c9.373-9.373,9.373-24.569,0-33.941C131.549,297.657,116.353,297.657,106.98,307.03z"/>
	</g>
	<g>
		<circle style="fill:#FFCD00;" cx="171.732" cy="324.001" r="24"/>
	</g>
	<g>
		<path style="fill:#FFE671;" d="M154.761,307.03c-0.053,0.053-0.087,0.117-0.139,0.171l33.91,33.91
			c0.053-0.052,0.117-0.086,0.171-0.139c9.373-9.373,9.373-24.569,0-33.941C179.33,297.657,164.134,297.657,154.761,307.03z"/>
	</g>
	<g>
		<circle style="fill:#FFCD00;" cx="219.732" cy="324.001" r="24"/>
	</g>
	<g>
		<path style="fill:#FFE671;" d="M202.761,307.03c-0.053,0.053-0.087,0.117-0.139,0.171l33.91,33.91
			c0.053-0.052,0.117-0.086,0.171-0.139c9.373-9.373,9.373-24.569,0-33.941C227.329,297.657,212.134,297.657,202.761,307.03z"/>
	</g>
	<g>
		<circle style="fill:#FFCD00;" cx="267.732" cy="324.001" r="24"/>
	</g>
	<g>
		<path style="fill:#FFE671;" d="M250.761,307.03c-0.053,0.053-0.087,0.117-0.139,0.171l33.91,33.91
			c0.053-0.052,0.117-0.086,0.171-0.139c9.373-9.373,9.373-24.569,0-33.941C275.329,297.657,260.134,297.657,250.761,307.03z"/>
	</g>
	<g>
		<circle style="fill:#FFCD00;" cx="315.731" cy="324.001" r="24"/>
	</g>
	<g>
		<path style="fill:#FFE671;" d="M298.761,307.03c-0.053,0.053-0.087,0.117-0.139,0.171l33.91,33.91
			c0.053-0.052,0.117-0.086,0.171-0.139c9.373-9.373,9.373-24.569,0-33.941C323.329,297.657,308.134,297.657,298.761,307.03z"/>
	</g>
	<g>
		<circle style="fill:#FFCD00;" cx="479.999" cy="256.049" r="24"/>
	</g>
	<g>
		<path style="fill:#FFE671;" d="M463.029,239.079c-0.053,0.053-0.087,0.117-0.139,0.171l33.91,33.91
			c0.053-0.052,0.117-0.086,0.171-0.139c9.373-9.373,9.373-24.568,0-33.941C487.597,229.706,472.401,229.706,463.029,239.079z"/>
	</g>
</g>
<g>
</g>
<g>
</g>
<g>
</g>
<g>
</g>
<g>
</g>
<g>
</g>
<g>
</g>
<g>
</g>
<g>
</g>
<g>
</g>
<g>
</g>
<g>
</g>
<g>
</g>
<g>
</g>
<g>
</g>
</svg>
