<?xml version="1.0" encoding="iso-8859-1"?>
<!-- Generator: Adobe Illustrator 19.0.0, SVG Export Plug-In . SVG Version: 6.00 Build 0)  -->
<svg version="1.1" id="Layer_1" xmlns="http://www.w3.org/2000/svg" xmlns:xlink="http://www.w3.org/1999/xlink" x="0px" y="0px"
	 viewBox="0 0 512 512" style="enable-background:new 0 0 512 512;" xml:space="preserve">
<g>
	<g>
		<path style="fill:#B4B6BC;" d="M280.041,376c-18.068,0-62.013,0-80.082,0c-4.418,0-7.959,3.582-7.959,8l0,0c0,49,48,104,48,104
			s48-55,48-104l0,0C288,379.582,284.46,376,280.041,376z"/>
	</g>
	<g>
		<path style="fill:#B4B6BC;" d="M200,280h80c4.418,0,8-3.582,8-8V56c0-4.418-3.582-8-8-8h-40h-40c-4.418,0-8,3.582-8,8v216
			C192,276.418,195.582,280,200,280z"/>
	</g>
	<g>
		<path style="fill:#009BCA;" d="M272,48V16c0-8.837-7.163-16-16-16h-32c-8.837,0-16,7.163-16,16v32H272z"/>
	</g>
	<g>
		<path style="fill:#009BCA;" d="M272,344c8.837,0,16,7.163,16,16s-7.163,16-16,16h-64c-8.837,0-16-7.163-16-16s7.163-16,16-16H272z
			"/>
	</g>
	<g>
		<path style="fill:#4BB9EC;" d="M272,344h-32.219v32H272c8.836,0,16-7.164,16-16C288,351.163,280.837,344,272,344z"/>
	</g>
	<g>
		<path style="fill:#009BCA;" d="M272,312c8.837,0,16,7.163,16,16s-7.163,16-16,16h-64c-8.837,0-16-7.163-16-16s7.163-16,16-16H272z
			"/>
	</g>
	<g>
		<path style="fill:#4BB9EC;" d="M272,312h-32.219v32H272c8.836,0,16-7.164,16-16C288,319.163,280.837,312,272,312z"/>
	</g>
	<g>
		<path style="fill:#009BCA;" d="M272,280c8.837,0,16,7.163,16,16s-7.163,16-16,16h-64c-8.837,0-16-7.163-16-16s7.163-16,16-16H272z
			"/>
	</g>
	<g>
		<path style="fill:#4BB9EC;" d="M272,280h-32.219v32H272c8.836,0,16-7.164,16-16C288,287.163,280.837,280,272,280z"/>
	</g>
	<g>
		<path style="fill:#868491;" d="M239.781,376c-15.43,0-30.83,0-39.822,0c-4.418,0-7.959,3.582-7.959,8l0,0
			c0,47.754,45.463,101.057,47.781,103.744V376z"/>
	</g>
	<g>
		<path style="fill:#868491;" d="M239.781,48H200c-4.418,0-8,3.582-8,8v216c0,4.418,3.582,8,8,8h39.781V48z"/>
	</g>
	<g>
		<g>
			<path style="fill:#5C546A;" d="M320,248c-4.422,0-8-3.582-8-8V96c0-4.41-3.586-8-8-8H192c-4.422,0-8-3.582-8-8s3.578-8,8-8h112
				c13.234,0,24,10.766,24,24v144C328,244.418,324.422,248,320,248z"/>
		</g>
	</g>
	<g>
		<path style="fill:#4BB9EC;" d="M256,0h-16.219v48H272V16C272,7.163,264.837,0,256,0z"/>
	</g>
	<g>
		<path style="fill:#5C546A;" d="M232,504c0,4.418,3.578,8,8,8s8-3.582,8-8v-25.914h-16V504z"/>
	</g>
</g>
<g>
</g>
<g>
</g>
<g>
</g>
<g>
</g>
<g>
</g>
<g>
</g>
<g>
</g>
<g>
</g>
<g>
</g>
<g>
</g>
<g>
</g>
<g>
</g>
<g>
</g>
<g>
</g>
<g>
</g>
</svg>
