<?xml version="1.0" encoding="iso-8859-1"?>
<!-- Generator: Adobe Illustrator 19.0.0, SVG Export Plug-In . SVG Version: 6.00 Build 0)  -->
<svg version="1.1" id="Layer_1" xmlns="http://www.w3.org/2000/svg" xmlns:xlink="http://www.w3.org/1999/xlink" x="0px" y="0px"
	 viewBox="0 0 512 512" style="enable-background:new 0 0 512 512;" xml:space="preserve">
<polygon style="fill:#FFB14D;" points="459.825,151.225 459.825,491.263 318.39,491.263 318.39,297.387 193.61,297.387 
	193.61,491.263 52.175,491.263 52.175,151.225 255.999,32.319 "/>
<path style="fill:#EE3840;" d="M500.404,187.715c-1.997,0-4.018-0.517-5.864-1.602L255.999,45.761L17.46,186.113
	c-5.515,3.246-12.613,1.405-15.858-4.109c-3.245-5.514-1.404-12.613,4.109-15.858L250.125,22.338c3.626-2.134,8.124-2.134,11.749,0
	l244.415,143.808c5.514,3.245,7.353,10.344,4.109,15.858C508.24,185.671,504.373,187.715,500.404,187.715z"/>
<g>
</g>
<g>
</g>
<g>
</g>
<g>
</g>
<g>
</g>
<g>
</g>
<g>
</g>
<g>
</g>
<g>
</g>
<g>
</g>
<g>
</g>
<g>
</g>
<g>
</g>
<g>
</g>
<g>
</g>
</svg>
