<?xml version="1.0" encoding="iso-8859-1"?>
<!-- Generator: Adobe Illustrator 19.0.0, SVG Export Plug-In . SVG Version: 6.00 Build 0)  -->
<svg version="1.1" id="Layer_1" xmlns="http://www.w3.org/2000/svg" xmlns:xlink="http://www.w3.org/1999/xlink" x="0px" y="0px"
	 viewBox="0 0 512.004 512.004" style="enable-background:new 0 0 512.004 512.004;" xml:space="preserve">
<g>
	<g>
		<path style="fill:#5C546A;" d="M419.941,465.244c-0.945-14.227-6.039-27.734-14.727-39.055L225.589,192.338
			c16.508-25.383,15.469-58.68-3.18-82.992l-61.875-81.195c-12.07-15.734-30.344-25.867-50.133-27.805
			c-20.116-1.937-39.46,4.305-54.616,17.633c-28.312,24.906-31.875,68.664-8.133,99.602l60.5,79.406
			c18.672,24.344,50.586,33.961,79.359,24.578l220.648,287.312c1.547,2.016,3.914,3.125,6.344,3.125c0.945,0,1.898-0.164,2.82-0.516
			c3.305-1.242,5.398-4.5,5.164-8.016L419.941,465.244z M79.636,68.846c0.836-6.367,4.094-12.016,9.164-15.914
			c4.227-3.234,9.297-4.945,14.547-4.945c1.063,0,2.125,0.07,3.195,0.211c6.367,0.836,12.016,4.094,15.898,9.148l61.867,81.195
			c8.055,10.5,6.07,25.602-4.43,33.664c-10.508,8.039-25.609,6.055-33.633-4.414L84.371,86.588
			C80.48,81.51,78.793,75.205,79.636,68.846z"/>
	</g>
	<g>
		<path style="fill:#868491;" d="M456.222,17.979c-15.148-13.328-34.516-19.57-54.609-17.633
			c-19.789,1.937-38.07,12.07-50.164,27.82l-61.828,81.164c-18.672,24.328-19.711,57.625-3.203,83.016l-30.469,39.656
			c-22.031,0.031-39.945,17.961-39.945,40c0,3.438,0.461,6.859,1.375,10.227L106.793,426.19
			c-8.688,11.32-13.781,24.828-14.727,39.055l-2.547,38.227c-0.235,3.516,1.859,6.773,5.164,8.016
			c0.922,0.352,1.875,0.516,2.82,0.516c2.43,0,4.797-1.117,6.344-3.125L255.05,311.981c0.32,0.016,0.633,0.023,0.953,0.023
			c22.055,0,40-17.945,40-40c0-3.828-0.539-7.594-1.617-11.234l30.109-39.203c28.805,9.391,60.695-0.234,79.383-24.594
			l60.461-79.375C488.097,86.635,484.535,42.877,456.222,17.979z M427.636,86.588c-0.008,0.008-0.016,0.008-0.023,0.016
			l-61.828,81.164c-8.063,10.484-23.141,12.484-33.656,4.438c-5.07-3.898-8.328-9.547-9.172-15.914
			c-0.836-6.367,0.852-12.672,4.766-17.766l61.828-81.164c3.898-5.07,9.547-8.328,15.914-9.164c1.07-0.141,2.133-0.211,3.195-0.211
			c5.25,0,10.32,1.711,14.547,4.945c5.07,3.898,8.328,9.547,9.164,15.914C433.214,75.205,431.527,81.51,427.636,86.588z"/>
	</g>
	<g>
		<path style="fill:#5C546A;" d="M255.785,256.002c-8.82,0-16,7.18-16,16s7.18,16,16,16s16-7.18,16-16
			S264.605,256.002,255.785,256.002z"/>
	</g>
</g>
<g>
</g>
<g>
</g>
<g>
</g>
<g>
</g>
<g>
</g>
<g>
</g>
<g>
</g>
<g>
</g>
<g>
</g>
<g>
</g>
<g>
</g>
<g>
</g>
<g>
</g>
<g>
</g>
<g>
</g>
</svg>
