<?xml version="1.0" encoding="iso-8859-1"?>
<!-- Generator: Adobe Illustrator 19.0.0, SVG Export Plug-In . SVG Version: 6.00 Build 0)  -->
<svg version="1.1" id="Layer_1" xmlns="http://www.w3.org/2000/svg" xmlns:xlink="http://www.w3.org/1999/xlink" x="0px" y="0px"
	 viewBox="0 0 509.241 509.241" style="enable-background:new 0 0 509.241 509.241;" xml:space="preserve">
<g>
	<g>
		<path style="fill:#FFD788;" d="M502.008,397.838L24.773,84.651c-4.922-3.234-11.203-3.496-16.375-0.695
			C3.219,86.752,0,92.147,0,98.034v313.18c0,8.824,7.18,16,16,16h477.226c7.125,0,13.289-4.59,15.328-11.418
			C510.601,408.967,507.969,401.748,502.008,397.838z M279.055,347.213H80V216.584L279.055,347.213z"/>
	</g>
	<g>
		<path style="fill:#E6BE8A;" d="M264,395.213c-4.422,0-8,3.582-8,8v24h16v-24C272,398.795,268.422,395.213,264,395.213z"/>
	</g>
	<g>
		<path style="fill:#C9A07C;" d="M296,379.213c-4.422,0-8,3.582-8,8v40h16v-40C304,382.795,300.422,379.213,296,379.213z"/>
	</g>
	<g>
		<path style="fill:#E6BE8A;" d="M144,427.213v-24c0-4.418-3.578-8-8-8s-8,3.582-8,8v24H144z"/>
	</g>
	<g>
		<path style="fill:#E6BE8A;" d="M392,395.213c-4.422,0-8,3.582-8,8v24h16v-24C400,398.795,396.422,395.213,392,395.213z"/>
	</g>
	<g>
		<path style="fill:#C9A07C;" d="M360,379.213c-4.422,0-8,3.582-8,8v40h16v-40C368,382.795,364.422,379.213,360,379.213z"/>
	</g>
	<g>
		<path style="fill:#E6BE8A;" d="M328,395.213c-4.422,0-8,3.582-8,8v24h16v-24C336,398.795,332.422,395.213,328,395.213z"/>
	</g>
	<g>
		<path style="fill:#E6BE8A;" d="M208,403.213c0-4.418-3.578-8-8-8s-8,3.582-8,8v24h16V403.213z"/>
	</g>
	<g>
		<path style="fill:#C9A07C;" d="M40,379.213c-4.422,0-8,3.582-8,8v40h16v-40C48,382.795,44.422,379.213,40,379.213z"/>
	</g>
	<g>
		<path style="fill:#E6BE8A;" d="M72,395.213c-4.422,0-8,3.582-8,8v24h16v-24C80,398.795,76.422,395.213,72,395.213z"/>
	</g>
	<g>
		<path style="fill:#C9A07C;" d="M176,387.213c0-4.418-3.578-8-8-8s-8,3.582-8,8v40h16V387.213z"/>
	</g>
	<g>
		<path style="fill:#C9A07C;" d="M424,379.213c-4.422,0-8,3.582-8,8v40h16v-40C432,382.795,428.422,379.213,424,379.213z"/>
	</g>
	<g>
		<path style="fill:#C9A07C;" d="M240,387.213c0-4.418-3.578-8-8-8s-8,3.582-8,8v40h16V387.213z"/>
	</g>
	<g>
		<path style="fill:#C9A07C;" d="M112,387.213c0-4.418-3.578-8-8-8s-8,3.582-8,8v40h16V387.213z"/>
	</g>
</g>
<g>
</g>
<g>
</g>
<g>
</g>
<g>
</g>
<g>
</g>
<g>
</g>
<g>
</g>
<g>
</g>
<g>
</g>
<g>
</g>
<g>
</g>
<g>
</g>
<g>
</g>
<g>
</g>
<g>
</g>
</svg>
