<?xml version="1.0" encoding="iso-8859-1"?>
<!-- Generator: Adobe Illustrator 19.0.0, SVG Export Plug-In . SVG Version: 6.00 Build 0)  -->
<svg version="1.1" id="Layer_1" xmlns="http://www.w3.org/2000/svg" xmlns:xlink="http://www.w3.org/1999/xlink" x="0px" y="0px"
	 viewBox="0 0 512 512" style="enable-background:new 0 0 512 512;" xml:space="preserve">
<path style="fill:#95A53B;" d="M448.827,152.9L359.1,63.172c-27.197,27.197-71.293,27.197-98.49,0L0,323.783L188.218,512
	l260.609-260.609C421.63,224.193,421.63,180.097,448.827,152.9z M364.078,189.356c-11.442,11.441-29.991,11.441-41.433,0
	c-11.441-11.442-11.441-29.991,0-41.433c11.442-11.441,29.991-11.441,41.433,0C375.519,159.364,375.519,177.914,364.078,189.356z"/>
<path style="fill:#FFD440;" d="M350.029,174.258c-3.146,0-6.289-1.199-8.688-3.599c-4.798-4.798-4.798-12.579,0-17.377
	L491.023,3.599c4.799-4.798,12.577-4.799,17.378,0c4.798,4.798,4.798,12.579,0,17.378L358.717,170.659
	C356.317,173.058,353.173,174.258,350.029,174.258z"/>
<g>
	<path style="fill:#181818;" d="M99.439,349.579c-3.146,0-6.289-1.199-8.688-3.599c-4.798-4.798-4.798-12.579,0-17.378
		l142.607-142.607c4.799-4.798,12.577-4.798,17.378,0c4.798,4.798,4.798,12.579,0,17.378L108.127,345.98
		C105.727,348.379,102.583,349.579,99.439,349.579z"/>
	<path style="fill:#181818;" d="M137.074,387.214c-3.146,0-6.289-1.199-8.688-3.599c-4.798-4.798-4.798-12.579,0-17.378
		l142.605-142.605c4.799-4.798,12.577-4.798,17.378,0c4.798,4.798,4.798,12.579,0,17.378L145.762,383.615
		C143.363,386.015,140.218,387.214,137.074,387.214z"/>
	<path style="fill:#181818;" d="M174.709,424.849c-3.146,0-6.289-1.199-8.688-3.599c-4.798-4.798-4.798-12.579,0-17.377
		l93.044-93.043c4.798-4.798,12.579-4.797,17.378,0c4.798,4.798,4.798,12.579,0,17.378l-93.044,93.043
		C180.999,423.649,177.852,424.849,174.709,424.849z"/>
</g>
<g>
</g>
<g>
</g>
<g>
</g>
<g>
</g>
<g>
</g>
<g>
</g>
<g>
</g>
<g>
</g>
<g>
</g>
<g>
</g>
<g>
</g>
<g>
</g>
<g>
</g>
<g>
</g>
<g>
</g>
</svg>
