<?xml version="1.0" encoding="iso-8859-1"?>
<!-- Generator: Adobe Illustrator 19.0.0, SVG Export Plug-In . SVG Version: 6.00 Build 0)  -->
<svg version="1.1" id="Layer_1" xmlns="http://www.w3.org/2000/svg" xmlns:xlink="http://www.w3.org/1999/xlink" x="0px" y="0px"
	 viewBox="0 0 512 512" style="enable-background:new 0 0 512 512;" xml:space="preserve">
<polygon style="fill:#181818;" points="187.021,285.928 124.014,285.928 98.714,394.777 212.322,394.777 "/>
<path style="fill:#BEC8D6;" d="M310.597,288.13c0,16.67-13.513,30.184-30.184,30.184H30.184C13.513,318.315,0,304.8,0,288.13
	V135.275c0-16.67,13.513-30.184,30.184-30.184h250.23c16.67,0,30.184,13.513,30.184,30.184V288.13z"/>
<g>
	<path style="fill:#4C5870;" d="M243.632,406.909H66.965c-6.701,0-12.133-5.432-12.133-12.133s5.432-12.133,12.133-12.133h176.665
		c6.701,0,12.133,5.432,12.133,12.133S250.333,406.909,243.632,406.909z"/>
	<rect x="353.68" y="105.093" style="fill:#4C5870;" width="158.32" height="289.68"/>
</g>
<g>
	<path style="fill:#181818;" d="M463.469,177.887h-61.262c-6.7,0-12.133-5.432-12.133-12.133s5.433-12.133,12.133-12.133h61.262
		c6.7,0,12.133,5.432,12.133,12.133S470.169,177.887,463.469,177.887z"/>
	<path style="fill:#181818;" d="M463.469,226.418h-61.262c-6.7,0-12.133-5.432-12.133-12.133s5.433-12.133,12.133-12.133h61.262
		c6.7,0,12.133,5.432,12.133,12.133S470.169,226.418,463.469,226.418z"/>
</g>
<circle style="fill:#FFD440;" cx="432.834" cy="328.044" r="18.199"/>
<g>
</g>
<g>
</g>
<g>
</g>
<g>
</g>
<g>
</g>
<g>
</g>
<g>
</g>
<g>
</g>
<g>
</g>
<g>
</g>
<g>
</g>
<g>
</g>
<g>
</g>
<g>
</g>
<g>
</g>
</svg>
