<?xml version="1.0" encoding="iso-8859-1"?>
<!-- Generator: Adobe Illustrator 19.0.0, SVG Export Plug-In . SVG Version: 6.00 Build 0)  -->
<svg version="1.1" id="Layer_1" xmlns="http://www.w3.org/2000/svg" xmlns:xlink="http://www.w3.org/1999/xlink" x="0px" y="0px"
	 viewBox="0 0 511.999 511.999" style="enable-background:new 0 0 511.999 511.999;" xml:space="preserve">
<rect x="98.456" y="178.77" style="fill:#524E4D;" width="413.542" height="253.416"/>
<rect x="49.221" y="129.535" style="fill:#7A7674;" width="413.542" height="253.416"/>
<rect y="79.812" style="fill:#BEC8D6;" width="413.542" height="253.416"/>
<circle style="fill:#FFE1D6;" cx="116.042" cy="175.888" r="27.848"/>
<path style="fill:#FFFFFF;" d="M116.045,222.505c-26.613,0-49.007,18.009-55.696,42.502h111.392
	C165.052,240.514,142.658,222.505,116.045,222.505z"/>
<g>
	<path style="fill:#524E4D;" d="M291.167,168.931h-59.078c-7.69,0-13.924-6.235-13.924-13.924s6.234-13.924,13.924-13.924h59.078
		c7.69,0,13.924,6.235,13.924,13.924S298.857,168.931,291.167,168.931z"/>
	<path style="fill:#524E4D;" d="M350.245,220.45H232.09c-7.69,0-13.924-6.235-13.924-13.924s6.234-13.924,13.924-13.924h118.155
		c7.69,0,13.924,6.235,13.924,13.924S357.935,220.45,350.245,220.45z"/>
	<path style="fill:#524E4D;" d="M350.245,271.969H232.09c-7.69,0-13.924-6.235-13.924-13.924c0-7.689,6.234-13.924,13.924-13.924
		h118.155c7.69,0,13.924,6.235,13.924,13.924C364.169,265.734,357.935,271.969,350.245,271.969z"/>
</g>
<g>
</g>
<g>
</g>
<g>
</g>
<g>
</g>
<g>
</g>
<g>
</g>
<g>
</g>
<g>
</g>
<g>
</g>
<g>
</g>
<g>
</g>
<g>
</g>
<g>
</g>
<g>
</g>
<g>
</g>
</svg>
