<?xml version="1.0" encoding="iso-8859-1"?>
<!-- Generator: Adobe Illustrator 19.0.0, SVG Export Plug-In . SVG Version: 6.00 Build 0)  -->
<svg version="1.1" id="Layer_1" xmlns="http://www.w3.org/2000/svg" xmlns:xlink="http://www.w3.org/1999/xlink" x="0px" y="0px"
	 viewBox="0 0 512 512" style="enable-background:new 0 0 512 512;" xml:space="preserve">
<polygon style="fill:#E6E2E0;" points="72.796,512 439.204,512 439.204,84.929 378.54,60.664 354.275,0 72.796,0 "/>
<polygon style="fill:#CCC4C1;" points="354.275,0 354.275,84.929 439.204,84.929 "/>
<path style="fill:#EE3840;" d="M256,146.598H145.592c-6.701,0-12.133-5.433-12.133-12.133c0-6.7,5.432-12.133,12.133-12.133H256
	c6.7,0,12.133,5.433,12.133,12.133C268.133,141.165,262.7,146.598,256,146.598z"/>
<path style="fill:#4C5870;" d="M366.408,182.996H145.592c-6.701,0-12.133,5.433-12.133,12.133V377.12
	c0,6.7,5.432,12.133,12.133,12.133h220.815c6.7,0,12.133-5.433,12.133-12.133V195.129
	C378.54,188.429,373.107,182.996,366.408,182.996z M354.275,243.66h-49.34v-36.398h49.34V243.66z M231.331,243.66v-36.398h49.34
	v36.398H231.331z M280.669,267.925v97.062h-49.34v-97.062H280.669L280.669,267.925z M207.065,207.262v36.398h-49.34v-36.398H207.065
	z M157.725,267.925h49.34v97.062h-49.34V267.925z M304.935,364.987v-97.062h49.34v97.062H304.935z"/>
<path style="fill:#269AF2;" d="M366.408,451.337H256c-6.701,0-12.133-5.433-12.133-12.133c0-6.7,5.432-12.133,12.133-12.133h110.408
	c6.7,0,12.133,5.433,12.133,12.133C378.54,445.904,373.107,451.337,366.408,451.337z"/>
<g>
</g>
<g>
</g>
<g>
</g>
<g>
</g>
<g>
</g>
<g>
</g>
<g>
</g>
<g>
</g>
<g>
</g>
<g>
</g>
<g>
</g>
<g>
</g>
<g>
</g>
<g>
</g>
<g>
</g>
</svg>
