<?xml version="1.0" encoding="iso-8859-1"?>
<!-- Generator: Adobe Illustrator 19.0.0, SVG Export Plug-In . SVG Version: 6.00 Build 0)  -->
<svg version="1.1" id="Layer_1" xmlns="http://www.w3.org/2000/svg" xmlns:xlink="http://www.w3.org/1999/xlink" x="0px" y="0px"
	 viewBox="0 0 512 512" style="enable-background:new 0 0 512 512;" xml:space="preserve">
<polygon style="fill:#EBEDEC;" points="512,122.588 512,464.776 0,464.776 0,122.588 256,84.164 "/>
<polygon style="fill:#EE3840;" points="512,47.224 512,122.588 426.991,122.588 401.374,84.906 426.991,47.224 "/>
<g>
	<path style="fill:#A2A9AF;" d="M348.703,276.345H157.859c-7.074,0-12.808-5.734-12.808-12.808s5.734-12.808,12.808-12.808h190.844
		c7.074,0,12.808,5.734,12.808,12.808S355.777,276.345,348.703,276.345z"/>
	<path style="fill:#A2A9AF;" d="M172.213,336.641h-62.07c-7.074,0-12.808-5.734-12.808-12.808c0-7.074,5.734-12.808,12.808-12.808
		h62.07c7.074,0,12.808,5.734,12.808,12.808C185.021,330.907,179.287,336.641,172.213,336.641z"/>
	<path style="fill:#A2A9AF;" d="M287.035,336.641h-62.069c-7.074,0-12.808-5.734-12.808-12.808c0-7.074,5.734-12.808,12.808-12.808
		h62.069c7.074,0,12.808,5.734,12.808,12.808C299.843,330.907,294.109,336.641,287.035,336.641z"/>
	<path style="fill:#A2A9AF;" d="M401.857,336.641h-62.07c-7.074,0-12.808-5.734-12.808-12.808c0-7.074,5.734-12.808,12.808-12.808
		h62.07c7.074,0,12.808,5.734,12.808,12.808C414.666,330.907,408.931,336.641,401.857,336.641z"/>
</g>
<rect y="47.224" style="fill:#4C5870;" width="426.991" height="75.364"/>
<g>
</g>
<g>
</g>
<g>
</g>
<g>
</g>
<g>
</g>
<g>
</g>
<g>
</g>
<g>
</g>
<g>
</g>
<g>
</g>
<g>
</g>
<g>
</g>
<g>
</g>
<g>
</g>
<g>
</g>
</svg>
