<?xml version="1.0" encoding="iso-8859-1"?>
<!-- Generator: Adobe Illustrator 19.0.0, SVG Export Plug-In . SVG Version: 6.00 Build 0)  -->
<svg version="1.1" id="Layer_1" xmlns="http://www.w3.org/2000/svg" xmlns:xlink="http://www.w3.org/1999/xlink" x="0px" y="0px"
	 viewBox="0 0 512 512" style="enable-background:new 0 0 512 512;" xml:space="preserve">
<g>
	<g>
		<path style="fill:#FF9100;" d="M32,288c-17.648,0-32-14.352-32-32s14.352-32,32-32c2.977,0,5.922,0.406,8.742,1.211
			c4.25,1.211,6.719,5.633,5.508,9.883c-1.203,4.266-5.672,6.734-9.883,5.508C34.961,240.203,33.492,240,32,240
			c-8.82,0-16,7.18-16,16s7.18,16,16,16c1.461,0,2.906-0.195,4.289-0.578c4.266-1.195,8.672,1.297,9.852,5.555
			c1.188,4.258-1.297,8.672-5.555,9.852C37.805,287.609,34.914,288,32,288z"/>
	</g>
	<g>
		<path style="fill:#FFCD00;" d="M504,104H292.586c-4.418,0-8,3.582-8,8v6c0,6.627-5.373,12-12,12l0,0c-6.627,0-12-5.373-12-12v-6
			c0-4.418-3.582-8-8-8h-68.297c-85.148,0-154.992,67.602-155.695,150.687c-0.344,41.109,15.461,79.742,44.516,108.789
			C101.844,392.219,139.961,408,180.57,408c0.445,0,0.883-0.008,1.328-0.008c83.086-0.703,150.687-70.547,150.687-155.695v-16.648
			c0-16.258,12.18-29.922,28.539-31.813l122.539-17.437C499.82,184.531,512,170.867,512,154.609V112
			C512,107.582,508.418,104,504,104z"/>
	</g>
	<g>
		<path style="fill:#FF9100;" d="M180.586,360c-57.344,0-104-46.656-104-104s46.656-104,104-104s104,46.656,104,104
			S237.93,360,180.586,360z M180.586,176c-44.115,0-80,35.885-80,80s35.885,80,80,80s80-35.885,80-80S224.7,176,180.586,176z"/>
	</g>
	<g>
		<path style="fill:#FFE671;" d="M260.586,256c0,44.114-35.885,80-80,80v24c57.344,0,104-46.656,104-104s-46.656-104-104-104v24
			C224.701,176,260.586,211.885,260.586,256z"/>
	</g>
</g>
<g>
</g>
<g>
</g>
<g>
</g>
<g>
</g>
<g>
</g>
<g>
</g>
<g>
</g>
<g>
</g>
<g>
</g>
<g>
</g>
<g>
</g>
<g>
</g>
<g>
</g>
<g>
</g>
<g>
</g>
</svg>
