<?xml version="1.0" encoding="iso-8859-1"?>
<!-- Generator: Adobe Illustrator 19.0.0, SVG Export Plug-In . SVG Version: 6.00 Build 0)  -->
<svg version="1.1" id="Layer_1" xmlns="http://www.w3.org/2000/svg" xmlns:xlink="http://www.w3.org/1999/xlink" x="0px" y="0px"
	 viewBox="0 0 512 512" style="enable-background:new 0 0 512 512;" xml:space="preserve">
<polygon style="fill:#ADA7A4;" points="503.096,324.112 487.735,0 414.938,0 401.818,270.833 "/>
<polygon style="fill:#CCC4C1;" points="256,157.725 256,225.062 128,157.725 128,225.062 0,157.725 0,512 357.511,512 
	410.489,487.735 463.469,512 512,512 512,292.398 "/>
<g>
	<polygon style="fill:#EBEDEC;" points="48.531,340.929 48.531,431.924 90.362,431.924 181.357,386.427 181.357,340.929 	"/>
	<polygon style="fill:#EBEDEC;" points="308.98,340.929 267.148,340.929 176.152,386.427 176.152,431.924 308.98,431.924 	"/>
</g>
<polygon style="fill:#FFFFFF;" points="181.357,340.929 90.362,431.924 176.152,431.924 267.148,340.929 "/>
<rect x="357.514" y="340.929" style="fill:#EE3840;" width="105.955" height="171.071"/>
<g>
</g>
<g>
</g>
<g>
</g>
<g>
</g>
<g>
</g>
<g>
</g>
<g>
</g>
<g>
</g>
<g>
</g>
<g>
</g>
<g>
</g>
<g>
</g>
<g>
</g>
<g>
</g>
<g>
</g>
</svg>
