<?xml version="1.0" encoding="iso-8859-1"?>
<!-- Generator: Adobe Illustrator 19.0.0, SVG Export Plug-In . SVG Version: 6.00 Build 0)  -->
<svg version="1.1" id="Layer_1" xmlns="http://www.w3.org/2000/svg" xmlns:xlink="http://www.w3.org/1999/xlink" x="0px" y="0px"
	 viewBox="0 0 512 512" style="enable-background:new 0 0 512 512;" xml:space="preserve">
<polygon style="fill:#181818;" points="47.508,488.721 0.005,512 23.283,464.497 53,459.004 "/>
<polygon style="fill:#FFE1D6;" points="103.862,461.111 47.508,488.721 23.283,464.497 50.895,408.143 94.982,417.022 "/>
<rect x="395.023" y="48.412" transform="matrix(-0.7071 0.7071 -0.7071 -0.7071 788.1793 -154.7477)" style="fill:#EBEDEC;" width="62.233" height="74.903"/>
<path style="fill:#FFB14D;" d="M430.624,134.35L103.862,461.111l-52.968-52.968c0-0.012,326.761-326.761,326.761-326.761
	L430.624,134.35z"/>
<path style="fill:#EE3840;" d="M501.043,10.961c14.602,14.602,14.602,38.366,0,52.968l-26.416,26.416L421.66,37.377l26.403-26.416
	C462.665-3.654,486.429-3.654,501.043,10.961z"/>
<g>
	<path style="fill:#BEC8D6;" d="M430.624,146.521c-3.115,0-6.229-1.189-8.607-3.565l-52.968-52.968
		c-4.753-4.753-4.753-12.46,0-17.213c4.754-4.752,12.459-4.752,17.213,0l52.968,52.968c4.753,4.753,4.753,12.46,0,17.213
		C436.853,145.333,433.738,146.521,430.624,146.521z"/>
	<path style="fill:#BEC8D6;" d="M474.629,102.515c-3.115,0-6.229-1.189-8.607-3.565l-52.968-52.968
		c-4.753-4.753-4.753-12.46,0-17.213c4.754-4.752,12.459-4.752,17.213,0l52.968,52.968c4.753,4.753,4.753,12.46,0,17.213
		C480.858,101.327,477.743,102.515,474.629,102.515z"/>
</g>
<g>
</g>
<g>
</g>
<g>
</g>
<g>
</g>
<g>
</g>
<g>
</g>
<g>
</g>
<g>
</g>
<g>
</g>
<g>
</g>
<g>
</g>
<g>
</g>
<g>
</g>
<g>
</g>
<g>
</g>
</svg>
