<?xml version="1.0" encoding="iso-8859-1"?>
<!-- Generator: Adobe Illustrator 19.0.0, SVG Export Plug-In . SVG Version: 6.00 Build 0)  -->
<svg version="1.1" id="Layer_1" xmlns="http://www.w3.org/2000/svg" xmlns:xlink="http://www.w3.org/1999/xlink" x="0px" y="0px"
	 viewBox="0 0 512 512" style="enable-background:new 0 0 512 512;" xml:space="preserve">
<g>
	<path style="fill:#BEC8D6;" d="M115.145,87.761c-6.701,0-12.133,5.432-12.133,12.133v54.757h24.265V99.893
		C127.277,93.192,121.846,87.761,115.145,87.761z"/>
	<path style="fill:#BEC8D6;" d="M80.207,109.665c-4.738-4.737-12.42-4.737-17.159,0c-4.738,4.738-4.738,12.42,0,17.159
		l29.118,29.118l17.159-17.159L80.207,109.665z"/>
	<path style="fill:#BEC8D6;" d="M167.539,109.175c-4.732-4.745-12.414-4.754-17.158-0.022l-29.118,29.044l17.136,17.18
		l29.118-29.044C172.261,121.601,172.27,113.919,167.539,109.175z"/>
	<path style="fill:#BEC8D6;" d="M396.569,5.336c-6.701,0-12.133,5.432-12.133,12.133v54.757h24.265V17.469
		C408.702,10.768,403.27,5.336,396.569,5.336z"/>
	<path style="fill:#BEC8D6;" d="M361.632,27.24c-4.738-4.737-12.42-4.737-17.159,0c-4.738,4.738-4.738,12.42,0,17.159l29.118,29.118
		l17.159-17.159L361.632,27.24z"/>
	<path style="fill:#BEC8D6;" d="M448.963,26.75c-4.733-4.745-12.414-4.754-17.158-0.022l-29.118,29.043l17.136,17.18l29.118-29.043
		C453.685,39.176,453.694,31.494,448.963,26.75z"/>
</g>
<path style="fill:#95A53B;" d="M396.569,47.961c-17.455,0-31.606,14.15-31.606,31.607v84.758c0,6.971-5.672,12.642-12.642,12.642
	h-35.65V60.814C316.671,27.227,289.444,0,255.857,0s-60.814,27.227-60.814,60.814v177.507h-35.65
	c-6.971,0-12.642-5.672-12.642-12.642v-63.687c0-17.455-14.15-31.607-31.606-31.607s-31.606,14.15-31.606,31.607v63.687
	c0,41.826,34.029,75.855,75.855,75.855h35.65v64.226h121.628V240.18h35.65c41.826,0,75.855-34.029,75.855-75.855V79.567
	C428.176,62.112,414.024,47.961,396.569,47.961z"/>
<path style="fill:#C21B23;" d="M344.217,365.765l-3.882,46.723l-84.334,36.398l-85.002-36.398c-0.012,0-3.882-46.723-3.882-46.723
	H344.217z"/>
<g>
	<path style="fill:#EE3840;" d="M349.737,377.892H158.559c-6.701,0-12.133-5.432-12.133-12.133c0-6.701,5.432-12.133,12.133-12.133
		h191.176c6.701,0,12.133,5.432,12.133,12.133C361.868,372.461,356.438,377.892,349.737,377.892z"/>
	<polygon style="fill:#EE3840;" points="340.335,412.488 332.085,512 179.249,512 170.999,412.488 	"/>
</g>
<g>
</g>
<g>
</g>
<g>
</g>
<g>
</g>
<g>
</g>
<g>
</g>
<g>
</g>
<g>
</g>
<g>
</g>
<g>
</g>
<g>
</g>
<g>
</g>
<g>
</g>
<g>
</g>
<g>
</g>
</svg>
