<?xml version="1.0" encoding="iso-8859-1"?>
<!-- Generator: Adobe Illustrator 19.0.0, SVG Export Plug-In . SVG Version: 6.00 Build 0)  -->
<svg xmlns="http://www.w3.org/2000/svg" xmlns:xlink="http://www.w3.org/1999/xlink" version="1.1" id="Capa_1" x="0px" y="0px" viewBox="0 0 491.52 491.52" style="enable-background:new 0 0 491.52 491.52;" xml:space="preserve">
<circle style="fill:#EFC84A;" cx="245.76" cy="245.76" r="245.76"/>
<path style="opacity:0.1;enable-background:new    ;" d="M329.574,122.901c0,0-41.984,58.061-115.61,77.67l-1.69-1.69l-0.051-0.102  l-1.331-1.28c-1.229-1.024-2.867-1.638-4.557-1.638h-94.003c-4.096,0-7.373,3.277-7.373,7.373v85.043  c0,2.048,0.819,3.891,2.15,5.222l192.118,192.118C404.166,462.325,483.817,371.99,490.939,261.84L352,122.901H329.574z"/>
<path style="fill:#64798A;" d="M350.564,209.803v71.914c19.88,0,35.996-16.098,35.996-35.957  C386.56,225.902,370.444,209.803,350.564,209.803z"/>
<rect x="329.574" y="122.88" style="fill:#D15241;" width="22.436" height="245.76"/>
<path style="fill:#EBF0F3;" d="M329.562,122.879v245.754c0,0-44.637-61.773-122.614-79.505v-86.744  C284.925,184.652,329.562,122.879,329.562,122.879z"/>
<path style="fill:#3A556A;" d="M206.317,195.858h-93.98c-4.074,0-7.377,3.299-7.377,7.369v85.059c0,4.069,3.302,7.369,7.377,7.369  h93.98c4.074,0,7.377-3.299,7.377-7.369v-85.059C213.693,199.157,210.391,195.858,206.317,195.858z"/>
<g>
</g>
<g>
</g>
<g>
</g>
<g>
</g>
<g>
</g>
<g>
</g>
<g>
</g>
<g>
</g>
<g>
</g>
<g>
</g>
<g>
</g>
<g>
</g>
<g>
</g>
<g>
</g>
<g>
</g>
</svg>
