<?xml version="1.0" encoding="iso-8859-1"?>
<!-- Generator: Adobe Illustrator 19.0.0, SVG Export Plug-In . SVG Version: 6.00 Build 0)  -->
<svg xmlns="http://www.w3.org/2000/svg" xmlns:xlink="http://www.w3.org/1999/xlink" version="1.1" id="Capa_1" x="0px" y="0px" viewBox="0 0 491.52 491.52" style="enable-background:new 0 0 491.52 491.52;" xml:space="preserve">
<circle style="fill:#EFC84A;" cx="245.76" cy="245.76" r="245.76"/>
<path style="opacity:0.1;enable-background:new    ;" d="M480.296,319.359L265.882,104.981H104.96v281.6l101.832,101.832  c12.695,2.023,25.703,3.107,38.968,3.107C355.848,491.52,449.017,419.13,480.296,319.359z"/>
<rect x="104.96" y="376.678" style="fill:#D5D6DB;" width="210.586" height="9.882"/>
<polygon style="fill:#EBF0F3;" points="265.905,104.96 104.96,104.96 104.96,376.679 315.556,376.679 315.556,154.785 "/>
<polygon style="fill:#E1E6E9;" points="265.905,154.785 315.556,154.785 265.905,104.96 "/>
<rect x="122.839" y="130.816" style="fill:#44C4A1;" width="105.708" height="10.24"/>
<g>
	<rect x="122.168" y="260.695" style="fill:#D5D6DB;" width="123.546" height="9.554"/>
	<rect x="122.168" y="288.512" style="fill:#D5D6DB;" width="176.184" height="9.554"/>
	<rect x="122.168" y="232.909" style="fill:#D5D6DB;" width="176.184" height="9.554"/>
	<rect x="122.168" y="205.107" style="fill:#D5D6DB;" width="176.184" height="9.554"/>
	<rect x="122.168" y="316.303" style="fill:#D5D6DB;" width="176.184" height="9.554"/>
	<rect x="122.168" y="344.115" style="fill:#D5D6DB;" width="80.205" height="9.554"/>
</g>
<rect x="160.461" y="171.884" style="fill:#D15241;" width="99.553" height="9.554"/>
<rect x="294.093" y="278.579" style="fill:#44C4A1;" width="30.822" height="107.981"/>
<rect x="324.915" y="278.579" style="fill:#3EA69B;" width="30.822" height="107.981"/>
<rect x="355.738" y="278.579" style="fill:#31978C;" width="30.822" height="107.981"/>
<path style="fill:#64798A;" d="M340.325,181.437l23.024,48.379c-6.634,4.315-14.529,6.847-23.025,6.847  c-8.495,0-16.389-2.532-23.023-6.847L340.325,181.437z"/>
<path style="fill:#FCD462;" d="M294.09,278.587l23.212-48.772c4.185,2.722,8.87,4.729,13.891,5.844l-6.279,42.928H294.09z"/>
<path style="fill:#DC8744;" d="M386.559,278.587h-30.823l-6.28-42.928c5.021-1.115,9.709-3.123,13.892-5.844L386.559,278.587z"/>
<path style="fill:#F6C358;" d="M324.913,278.587l6.279-42.928c2.941,0.653,5.995,1.004,9.133,1.004c3.137,0,6.191-0.35,9.132-1.004  l6.28,42.928H324.913z"/>
<g>
</g>
<g>
</g>
<g>
</g>
<g>
</g>
<g>
</g>
<g>
</g>
<g>
</g>
<g>
</g>
<g>
</g>
<g>
</g>
<g>
</g>
<g>
</g>
<g>
</g>
<g>
</g>
<g>
</g>
</svg>
