<?xml version="1.0" encoding="UTF-8" standalone="no" ?>
<!DOCTYPE svg PUBLIC "-//W3C//DTD SVG 1.1//EN" "http://www.w3.org/Graphics/SVG/1.1/DTD/svg11.dtd">
<svg xmlns="http://www.w3.org/2000/svg" xmlns:xlink="http://www.w3.org/1999/xlink" version="1.1" width="1080" height="1080" viewBox="0 0 1080 1080" xml:space="preserve">
<desc>Created with Fabric.js 5.2.4</desc>
<defs>
</defs>
<rect x="0" y="0" width="100%" height="100%" fill="transparent"></rect>
<g transform="matrix(1 0 0 1 540 540)" id="4780cb7f-3af6-45a4-83bb-93ef58cb5e90"  >
<rect style="stroke: none; stroke-width: 1; stroke-dasharray: none; stroke-linecap: butt; stroke-dashoffset: 0; stroke-linejoin: miter; stroke-miterlimit: 4; fill: rgb(255,255,255); fill-rule: nonzero; opacity: 1; visibility: hidden;" vector-effect="non-scaling-stroke"  x="-540" y="-540" rx="0" ry="0" width="1080" height="1080" />
</g>
<g transform="matrix(1 0 0 1 540 540)" id="f084f50e-ce57-434e-9717-d132809c5562"  >
</g>
<g transform="matrix(1 0 0 1 50 50)"  >
<rect style="stroke: none; stroke-width: 1; stroke-dasharray: none; stroke-linecap: butt; stroke-dashoffset: 0; stroke-linejoin: miter; stroke-miterlimit: 4; fill: rgb(255,255,255); fill-opacity: 0; fill-rule: nonzero; opacity: 1;" vector-effect="non-scaling-stroke"  x="-50" y="-50" rx="0" ry="0" width="100" height="100" />
</g>
<g transform="matrix(1 0 0 1 540 540)"  >
<rect style="stroke: none; stroke-width: 1; stroke-dasharray: none; stroke-linecap: butt; stroke-dashoffset: 0; stroke-linejoin: miter; stroke-miterlimit: 4; fill: rgb(255,255,255); fill-rule: nonzero; opacity: 1; visibility: hidden;" vector-effect="non-scaling-stroke"  x="-540" y="-540" rx="0" ry="0" width="1080" height="1080" />
</g>
<g transform="matrix(15.12 0 0 14.99 539.96 540.15)"  >
<circle style="stroke: rgb(0,0,0); stroke-width: 0; stroke-dasharray: none; stroke-linecap: butt; stroke-dashoffset: 0; stroke-linejoin: miter; stroke-miterlimit: 4; fill: rgb(211,47,47); fill-rule: nonzero; opacity: 1;" vector-effect="non-scaling-stroke"  cx="0" cy="0" r="35" />
</g>
<g transform="matrix(1 0 0 1 540 540)" id="2955cc66-f10f-4c78-b596-e7926f950b02"  >
<path style="stroke: rgb(0,0,0); stroke-width: 0; stroke-dasharray: none; stroke-linecap: butt; stroke-dashoffset: 0; stroke-linejoin: miter; stroke-miterlimit: 4; fill: rgb(255,255,255); fill-rule: nonzero; opacity: 1;" vector-effect="non-scaling-stroke"  transform=" translate(-320, -255.05)" d="M 544 248 L 544 251.3 L 613.7 181.60000000000002 C 635.6 159.70000000000002 635.6 124.30000000000003 613.7 102.40000000000002 L 535.6 24.4 C 513.7 2.5 478.3 2.5 456.40000000000003 24.4 L 416.3 64.5 C 413.6 64.2 410.8 64 408 64 L 296 64 C 258.9 64 228.4 92 224.4 128 L 224 128 L 224 248 C 224 270.1 241.9 288 264 288 C 286.1 288 304 270.1 304 248 L 304 176 C 304 176 304 175.9 304 175.9 L 304 160 L 320 160 L 456 160 C 456 160 456 160 456.1 160 L 464 160 C 508.2 160 544 195.8 544 240 L 544 248 z M 336 192 L 336 248 C 336 287.8 303.8 320 264 320 C 224.2 320 192 287.8 192 248 L 192 129.4 C 156.1 135.6 126.2 161.7 116 197.60000000000002 L 99.5 255.2 L 26.3 328.4 C 4.400000000000002 350.29999999999995 4.400000000000002 385.7 26.3 407.59999999999997 L 104.39999999999999 485.69999999999993 C 126.29999999999998 507.5999999999999 161.7 507.5999999999999 183.6 485.69999999999993 L 221.3 447.99999999999994 C 222.20000000000002 447.99999999999994 223.10000000000002 448.09999999999997 224 448.09999999999997 L 384 448.09999999999997 C 410.5 448.09999999999997 432 426.59999999999997 432 400.09999999999997 C 432 394.49999999999994 431 389.09999999999997 429.3 384.09999999999997 L 432 384.09999999999997 C 458.5 384.09999999999997 480 362.59999999999997 480 336.09999999999997 C 480 323.29999999999995 475 311.7 466.8 303.09999999999997 C 492.5 298.09999999999997 511.90000000000003 275.49999999999994 512 248.29999999999995 L 512 247.89999999999995 C 511.9 217.09999999999994 486.9 192.09999999999997 456 192.09999999999997 C 456 192.09999999999997 456 192.09999999999997 456 192.09999999999997 L 336 192.09999999999997 z" stroke-linecap="round" />
</g>
</svg>