<!--?xml version="1.0" encoding="utf-8"?-->
<!-- Generator: Adobe Illustrator 18.1.1, SVG Export Plug-In . SVG Version: 6.00 Build 0)  -->

<svg version="1.1" id="_x31_0" xmlns="http://www.w3.org/2000/svg" xmlns:xlink="http://www.w3.org/1999/xlink" x="0px" y="0px" viewBox="0 0 512 512" style="width: 512px; height: 512px; opacity: 1;" xml:space="preserve">
<style type="text/css">
	.st0{fill:#374149;}
</style>
<g>
	<path class="st0" d="M149.195,155.775v-0.168L13.481,205.03l-0.965,0.351h0.003l-0.152,0.054
		c4.145,11.254,9.254,22.141,15.176,32.43l121.652-70.266v-8.855l0.055-2.988L149.195,155.775z" style="fill: rgb(255, 255, 255);"></path>
	<path class="st0" d="M149.195,102.592V87.858L48.129,3.08c-7.461,8.824-14.117,18.363-19.98,28.375
		c-0.168,0.274-0.364,0.531-0.524,0.805l0.004,0.003c-0.027,0.047-0.058,0.09-0.086,0.137L149.195,102.592z" style="fill: rgb(255, 255, 255);"></path>
	<path class="st0" d="M149.195,135.096v-9.922L3.183,99.408c-2.007,11.258-3.062,22.805-3.133,34.555
		c-0.003,0.32-0.046,0.652-0.05,0.972h0.008c0,0.055-0.008,0.106-0.008,0.161H149.195z" style="fill: rgb(255, 255, 255);"></path>
	<path class="st0" d="M397.844,168.358l-34.879-12.75v0.055l-0.16-0.055v11.992l121.652,70.266
		c5.809-9.972,10.746-20.519,14.825-31.406c0.113-0.294,0.258-0.578,0.374-0.875h-0.007c0.015-0.051,0.042-0.098,0.058-0.149
		L397.844,168.358z" style="fill: rgb(255, 255, 255);"></path>
	<path class="st0" d="M464.594,3.924c-0.187-0.23-0.359-0.496-0.546-0.723l-0.004,0.004c-0.035-0.039-0.062-0.086-0.098-0.125
		L362.805,87.931v14.661L484.457,32.4C478.637,22.342,472.016,12.802,464.594,3.924z" style="fill: rgb(255, 255, 255);"></path>
	<path class="st0" d="M362.805,134.935v0.161H512c0-11.864-1.09-23.508-3.004-34.883c-0.035-0.215-0.046-0.434-0.082-0.649
		l-0.004,0.004c-0.008-0.054-0.012-0.109-0.02-0.16l-146.086,25.766v9.73V134.935L362.805,134.935z" style="fill: rgb(255, 255, 255);"></path>
	<polygon class="st0" points="314.168,299.717 310.242,227.342 198.676,227.342 194.981,295.478 194.75,299.557 194.758,299.557 
		194.75,299.717 	" style="fill: rgb(255, 255, 255);"></polygon>
	<path class="st0" d="M208.61,214.49h91.71c14.207,0,25.727-11.516,25.727-25.723v-20.218c0-1.234-1.004-2.234-2.238-2.234H185.121
		c-1.234,0-2.234,1-2.234,2.234v20.218C182.886,202.974,194.402,214.49,208.61,214.49z" style="fill: rgb(255, 255, 255);"></path>
	<polygon class="st0" points="212.535,89.506 212.535,152.709 212.531,153.099 212.535,153.099 212.535,153.256 236.023,153.256 
		236.023,104.607 272.93,104.607 272.93,153.256 296.418,153.256 296.418,89.506 303.258,89.506 308.469,89.63 308.324,89.506 
		308.57,89.506 260.738,48.721 260.738,24.314 260.742,24.24 260.738,24.24 260.738,24.08 248.39,24.08 248.351,24.076 
		248.351,24.08 248.191,24.08 248.191,48.721 221.047,71.865 200.359,89.346 200.543,89.35 200.359,89.506 	" style="fill: rgb(255, 255, 255);"></polygon>
	<path class="st0" d="M336.683,477.045h-12.855l-8.554-157.195H193.645l-8.524,157.195h-12.874c-6.418,0-11.626,5.203-11.626,11.625
		v20.027l-0.004,0.063h0.004v0.16h187.692v-20.25C348.313,482.248,343.106,477.045,336.683,477.045z M231.426,476.642v-50.363
		c0-12.683,10.367-23.05,23.051-23.05c12.683,0,23.05,10.367,23.05,23.05v50.363h-45.98H231.426z" style="fill: rgb(255, 255, 255);"></path>
</g>
</svg>
