<?xml version="1.0" encoding="UTF-8" standalone="no"?>
<!-- Generator: Adobe Illustrator 19.0.0, SVG Export Plug-In . SVG Version: 6.00 Build 0)  -->

<svg
   xmlns:dc="http://purl.org/dc/elements/1.1/"
   xmlns:cc="http://creativecommons.org/ns#"
   xmlns:rdf="http://www.w3.org/1999/02/22-rdf-syntax-ns#"
   xmlns:svg="http://www.w3.org/2000/svg"
   xmlns="http://www.w3.org/2000/svg"
   xmlns:sodipodi="http://sodipodi.sourceforge.net/DTD/sodipodi-0.dtd"
   xmlns:inkscape="http://www.inkscape.org/namespaces/inkscape"
   version="1.1"
   id="Layer_1"
   x="0px"
   y="0px"
   viewBox="0 0 1024 1024"
   xml:space="preserve"
   inkscape:version="0.92.5 (2060ec1f9f, 2020-04-08)"
   sodipodi:docname="page-stats.svg"
   width="1024"
   height="1024"><metadata
     id="metadata87"><rdf:RDF><cc:Work
         rdf:about=""><dc:format>image/svg+xml</dc:format><dc:type
           rdf:resource="http://purl.org/dc/dcmitype/StillImage" /><dc:title></dc:title></cc:Work></rdf:RDF></metadata><defs
     id="defs85" /><sodipodi:namedview
     pagecolor="#ffffff"
     bordercolor="#666666"
     borderopacity="1"
     objecttolerance="10"
     gridtolerance="10"
     guidetolerance="10"
     inkscape:pageopacity="0"
     inkscape:pageshadow="2"
     inkscape:window-width="1920"
     inkscape:window-height="1019"
     id="namedview83"
     showgrid="false"
     showguides="false"
     inkscape:zoom="0.4609375"
     inkscape:cx="512"
     inkscape:cy="512"
     inkscape:window-x="0"
     inkscape:window-y="29"
     inkscape:window-maximized="1"
     inkscape:current-layer="Layer_1"
     fit-margin-top="0"
     fit-margin-left="0"
     fit-margin-right="0"
     fit-margin-bottom="0" /><path
     style="fill:#324a5e;stroke-width:2"
     d="M 620.32,910.222 H 403.684 c -34.436,0 -62.35,-27.914 -62.35,-62.346 v -501.08 c 0,-34.434 27.914,-62.346 62.346,-62.346 h 216.636 c 34.434,0 62.346,27.914 62.346,62.346 v 501.08 c 0.004,34.432 -27.908,62.346 -62.342,62.346 z"
     id="path7"
     inkscape:connector-curvature="0" /><circle
     style="fill:#ffd15d;stroke-width:2"
     cx="512"
     cy="512"
     r="512"
     id="circle3" /><g
     id="g53"
     transform="scale(2)" /><g
     id="g55"
     transform="scale(2)" /><g
     id="g57"
     transform="scale(2)" /><g
     id="g59"
     transform="scale(2)" /><g
     id="g61"
     transform="scale(2)" /><g
     id="g63"
     transform="scale(2)" /><g
     id="g65"
     transform="scale(2)" /><g
     id="g67"
     transform="scale(2)" /><g
     id="g69"
     transform="scale(2)" /><g
     id="g71"
     transform="scale(2)" /><g
     id="g73"
     transform="scale(2)" /><g
     id="g75"
     transform="scale(2)" /><g
     id="g77"
     transform="scale(2)" /><g
     id="g79"
     transform="scale(2)" /><g
     id="g81"
     transform="scale(2)" /><rect
     x="236.0761"
     y="245.92197"
     style="fill:#f2f2f2;stroke-width:2"
     width="537.20337"
     height="607.08667"
     id="rect3" /><rect
     y="175.33034"
     x="236.0761"
     style="fill:#84dbff;stroke-width:2"
     width="537.20337"
     height="70.591629"
     id="rect5" /><g
     id="g7"
     transform="matrix(1.3857698,0,0,1.3511652,236.0761,175.33034)"><rect
       x="107.624"
       y="303.01999"
       style="fill:#cdd6e0"
       width="24.033001"
       height="50.154999"
       id="rect9" /><rect
       x="63.738998"
       y="271.673"
       style="fill:#cdd6e0"
       width="24.033001"
       height="82.546997"
       id="rect11" /><rect
       x="20.898001"
       y="318.694"
       style="fill:#cdd6e0"
       width="24.033001"
       height="35.527"
       id="rect13" /><rect
       x="194.351"
       y="227.78799"
       style="fill:#cdd6e0"
       width="24.033001"
       height="125.388"
       id="rect15" /><rect
       x="150.465"
       y="246.59599"
       style="fill:#cdd6e0"
       width="24.033001"
       height="106.58"
       id="rect17" /></g><rect
     x="265.03595"
     y="665.23584"
     style="fill:#40596b;stroke-width:2"
     width="273.6701"
     height="12.706358"
     id="rect19" /><rect
     x="265.03595"
     y="730.17957"
     style="fill:#ffd15c;stroke-width:2"
     width="273.6701"
     height="32.472557"
     id="rect21" /><rect
     x="265.03595"
     y="788.06482"
     style="fill:#ff7058;stroke-width:2"
     width="273.6701"
     height="32.472557"
     id="rect23" /><rect
     x="265.03595"
     y="305.21921"
     style="fill:#ffd15c;stroke-width:2"
     width="127.42291"
     height="118.59313"
     id="rect25" /><rect
     x="440.24295"
     y="305.21921"
     style="fill:#ff7058;stroke-width:2"
     width="127.42291"
     height="118.59313"
     id="rect27" /><rect
     x="616.89673"
     y="305.21921"
     style="fill:#acb3ba;stroke-width:2"
     width="127.42291"
     height="118.59313"
     id="rect29" /><g
     id="g31"
     transform="matrix(1.3857698,0,0,1.3511652,236.0761,175.33034)"><rect
       x="364.66901"
       y="253.91"
       style="fill:#cdd6e0"
       width="45.976002"
       height="45.976002"
       id="rect33" /><rect
       x="283.14801"
       y="283.20901"
       transform="matrix(-0.7071,0.7071,-0.7071,-0.7071,739.1205,306.2401)"
       style="fill:#cdd6e0"
       width="45.974998"
       height="45.974998"
       id="rect35" /></g><rect
     x="721.15228"
     y="478.87366"
     style="fill:#acb3ba;stroke-width:2"
     width="104.25562"
     height="39.53104"
     id="rect37" /><ellipse
     style="fill:#4cdbc4;stroke-width:2"
     cx="773.27948"
     cy="699.11902"
     id="circle39"
     rx="157.83086"
     ry="153.8896" /><path
     inkscape:connector-curvature="0"
     style="fill:#ffffff;stroke-width:2"
     d="m 773.27944,817.71348 c -66.60702,0 -121.6304,-53.64936 -121.6304,-118.59312 0,-64.94376 55.02338,-118.59312 121.6304,-118.59312 66.60704,0 121.6304,53.64936 121.6304,118.59312 10e-4,64.9424 -55.02336,118.59312 -121.6304,118.59312 z"
     id="path41" /><rect
     x="742.10376"
     y="518.89923"
     style="fill:#b8cad8;stroke-width:2"
     width="63.712154"
     height="14.118326"
     id="rect43" /><g
     id="g45"
     transform="matrix(1.3857698,0,0,1.3511652,236.0761,175.33034)"><rect
       x="386.612"
       y="310.33499"
       style="fill:#acb3ba"
       width="2.0899999"
       height="9.4040003"
       id="rect47" /><rect
       x="386.612"
       y="455.57501"
       style="fill:#acb3ba"
       width="2.0899999"
       height="9.4040003"
       id="rect49" /><polygon
       style="fill:#acb3ba"
       points="375.118,311.38 373.029,311.38 375.118,320.784 377.208,320.784 "
       id="polygon51" /><polygon
       style="fill:#acb3ba"
       points="400.196,454.531 398.106,454.531 400.196,463.935 402.286,463.935 "
       id="polygon53" /><rect
       x="361.479"
       y="314.61301"
       transform="matrix(-0.9398,0.3416,-0.3416,-0.9398,812.3206,495.5773)"
       style="fill:#acb3ba"
       width="2.0899999"
       height="9.4040003"
       id="rect55" /><rect
       x="411.66501"
       y="451.32501"
       transform="matrix(-0.9398,0.3416,-0.3416,-0.9398,956.3769,743.6309)"
       style="fill:#acb3ba"
       width="2.0899999"
       height="9.4040003"
       id="rect57" /><polygon
       style="fill:#acb3ba"
       points="350.041,319.739 347.951,320.784 353.176,329.143 354.22,328.098 "
       id="polygon59" /><polygon
       style="fill:#acb3ba"
       points="423.184,446.171 421.094,447.216 425.273,455.575 427.363,454.531 "
       id="polygon61" /><polygon
       style="fill:#acb3ba"
       points="338.547,328.098 337.502,329.143 342.727,336.457 344.816,334.367 "
       id="polygon63" /><polygon
       style="fill:#acb3ba"
       points="432.588,438.857 430.498,440.947 436.767,447.216 437.812,446.171 "
       id="polygon65" /><polygon
       style="fill:#acb3ba"
       points="329.143,337.502 328.098,338.547 334.367,344.816 336.457,342.727 "
       id="polygon67" /><polygon
       style="fill:#acb3ba"
       points="440.947,430.498 438.857,432.588 446.171,437.812 447.216,436.767 "
       id="polygon69" /><polygon
       style="fill:#acb3ba"
       points="328.098,354.22 329.143,353.176 320.784,347.951 319.739,350.041 "
       id="polygon71" /><polygon
       style="fill:#acb3ba"
       points="447.216,421.094 446.171,423.184 454.531,427.363 455.575,425.273 "
       id="polygon73" /><rect
       x="318.67001"
       y="357.811"
       transform="matrix(-0.3416,0.9398,-0.9398,-0.3416,769.6383,185.8718)"
       style="fill:#acb3ba"
       width="2.0899999"
       height="9.4040003"
       id="rect75" /><polygon
       style="fill:#acb3ba"
       points="452.441,409.6 451.396,411.69 459.755,414.824 460.8,412.735 "
       id="polygon77" /><polygon
       style="fill:#acb3ba"
       points="320.784,377.208 320.784,375.118 311.38,373.029 311.38,375.118 "
       id="polygon79" /><polygon
       style="fill:#acb3ba"
       points="454.531,398.106 454.531,400.196 463.935,402.286 463.935,400.196 "
       id="polygon81" /><rect
       x="310.33499"
       y="386.612"
       style="fill:#acb3ba"
       width="9.4040003"
       height="2.0899999"
       id="rect83" /><rect
       x="455.57501"
       y="386.612"
       style="fill:#acb3ba"
       width="9.4040003"
       height="2.0899999"
       id="rect85" /><polygon
       style="fill:#acb3ba"
       points="320.784,400.196 320.784,398.106 311.38,400.196 311.38,402.286 "
       id="polygon87" /><polygon
       style="fill:#acb3ba"
       points="454.531,375.118 454.531,377.208 463.935,375.118 463.935,373.029 "
       id="polygon89" /><rect
       x="314.54401"
       y="411.745"
       transform="matrix(-0.9398,0.3416,-0.3416,-0.9398,760.3004,691.6883)"
       style="fill:#acb3ba"
       width="9.4040003"
       height="2.0899999"
       id="rect91" /><polygon
       style="fill:#acb3ba"
       points="451.396,363.624 452.441,365.714 460.8,362.58 459.755,360.49 "
       id="polygon93" /><polygon
       style="fill:#acb3ba"
       points="329.143,423.184 328.098,421.094 319.739,425.273 320.784,427.363 "
       id="polygon95" /><polygon
       style="fill:#acb3ba"
       points="446.171,353.176 447.216,354.22 455.575,350.041 454.531,347.951 "
       id="polygon97" /><polygon
       style="fill:#acb3ba"
       points="334.367,430.498 328.098,436.767 329.143,437.812 336.457,432.588 "
       id="polygon99" /><polygon
       style="fill:#acb3ba"
       points="440.947,344.816 447.216,338.547 446.171,337.502 438.857,342.727 "
       id="polygon101" /><polygon
       style="fill:#acb3ba"
       points="342.727,438.857 337.502,446.171 338.547,447.216 344.816,440.947 "
       id="polygon103" /><polygon
       style="fill:#acb3ba"
       points="437.812,329.143 436.767,328.098 430.498,334.367 432.588,336.457 "
       id="polygon105" /><polygon
       style="fill:#acb3ba"
       points="354.22,447.216 353.176,446.171 347.951,454.531 350.041,455.575 "
       id="polygon107" /><polygon
       style="fill:#acb3ba"
       points="427.363,320.784 425.273,319.739 421.094,328.098 423.184,329.143 "
       id="polygon109" /><rect
       x="357.728"
       y="454.62701"
       transform="matrix(-0.3427,0.9394,-0.9394,-0.3427,914.7166,271.3558)"
       style="fill:#acb3ba"
       width="9.4040003"
       height="2.0899999"
       id="rect111" /><rect
       x="408.11301"
       y="318.785"
       transform="matrix(-0.3416,0.9398,-0.9398,-0.3416,854.428,41.1086)"
       style="fill:#acb3ba"
       width="9.4040003"
       height="2.0899999"
       id="rect113" /><polygon
       style="fill:#acb3ba"
       points="377.208,454.531 375.118,454.531 373.029,463.935 375.118,463.935 "
       id="polygon115" /><polygon
       style="fill:#acb3ba"
       points="402.286,311.38 400.196,311.38 398.106,320.784 400.196,320.784 "
       id="polygon117" /></g><path
     inkscape:connector-curvature="0"
     style="fill:#ff7058;stroke-width:2"
     d="m 790.65562,700.53098 c 0,9.88242 -7.23926,16.94226 -17.37618,16.94226 -10.13552,0 -17.37616,-7.0585 -17.37616,-16.94226 0,-9.88242 17.37616,-59.29724 17.37616,-59.29724 0,0 17.37618,49.41482 17.37618,59.29724 z"
     id="path119" /><ellipse
     style="fill:#ffffff;stroke-width:2"
     cx="773.27948"
     cy="700.53094"
     id="circle121"
     rx="8.6873903"
     ry="8.4704552" /><g
     id="g123"
     transform="matrix(1.3857698,0,0,1.3511652,236.0761,175.33034)" /><g
     id="g125"
     transform="matrix(1.3857698,0,0,1.3511652,236.0761,175.33034)" /><g
     id="g127"
     transform="matrix(1.3857698,0,0,1.3511652,236.0761,175.33034)" /><g
     id="g129"
     transform="matrix(1.3857698,0,0,1.3511652,236.0761,175.33034)" /><g
     id="g131"
     transform="matrix(1.3857698,0,0,1.3511652,236.0761,175.33034)" /><g
     id="g133"
     transform="matrix(1.3857698,0,0,1.3511652,236.0761,175.33034)" /><g
     id="g135"
     transform="matrix(1.3857698,0,0,1.3511652,236.0761,175.33034)" /><g
     id="g137"
     transform="matrix(1.3857698,0,0,1.3511652,236.0761,175.33034)" /><g
     id="g139"
     transform="matrix(1.3857698,0,0,1.3511652,236.0761,175.33034)" /><g
     id="g141"
     transform="matrix(1.3857698,0,0,1.3511652,236.0761,175.33034)" /><g
     id="g143"
     transform="matrix(1.3857698,0,0,1.3511652,236.0761,175.33034)" /><g
     id="g145"
     transform="matrix(1.3857698,0,0,1.3511652,236.0761,175.33034)" /><g
     id="g147"
     transform="matrix(1.3857698,0,0,1.3511652,236.0761,175.33034)" /><g
     id="g149"
     transform="matrix(1.3857698,0,0,1.3511652,236.0761,175.33034)" /><g
     id="g151"
     transform="matrix(1.3857698,0,0,1.3511652,236.0761,175.33034)" /></svg>