<?xml version="1.0" encoding="UTF-8" standalone="no" ?>
<!DOCTYPE svg PUBLIC "-//W3C//DTD SVG 1.1//EN" "http://www.w3.org/Graphics/SVG/1.1/DTD/svg11.dtd">
<svg xmlns="http://www.w3.org/2000/svg" xmlns:xlink="http://www.w3.org/1999/xlink" version="1.1" width="1080" height="1080" viewBox="0 0 1080 1080" xml:space="preserve">
<desc>Created with Fabric.js 5.2.4</desc>
<defs>
</defs>
<g transform="matrix(1 0 0 1 540 540)" id="4780cb7f-3af6-45a4-83bb-93ef58cb5e90"  >
<rect style="stroke: none; stroke-width: 1; stroke-dasharray: none; stroke-linecap: butt; stroke-dashoffset: 0; stroke-linejoin: miter; stroke-miterlimit: 4; fill: rgb(255,255,255); fill-rule: nonzero; opacity: 1; visibility: hidden;" vector-effect="non-scaling-stroke"  x="-540" y="-540" rx="0" ry="0" width="1080" height="1080" />
</g>
<g transform="matrix(1 0 0 1 540 540)" id="f084f50e-ce57-434e-9717-d132809c5562"  >
</g>
<g transform="matrix(1 0 0 1 50 50)"  >
<rect style="stroke: none; stroke-width: 1; stroke-dasharray: none; stroke-linecap: butt; stroke-dashoffset: 0; stroke-linejoin: miter; stroke-miterlimit: 4; fill: rgb(255,255,255); fill-opacity: 0; fill-rule: nonzero; opacity: 1;" vector-effect="non-scaling-stroke"  x="-50" y="-50" rx="0" ry="0" width="100" height="100" />
</g>
<g transform="matrix(1 0 0 1 540 540)"  >
<rect style="stroke: none; stroke-width: 1; stroke-dasharray: none; stroke-linecap: butt; stroke-dashoffset: 0; stroke-linejoin: miter; stroke-miterlimit: 4; fill: rgb(255,255,255); fill-rule: nonzero; opacity: 1; visibility: hidden;" vector-effect="non-scaling-stroke"  x="-540" y="-540" rx="0" ry="0" width="1080" height="1080" />
</g>
<g transform="matrix(15.12 0 0 14.99 539.96 540.15)"  >
<circle style="stroke: rgb(0,0,0); stroke-width: 0; stroke-dasharray: none; stroke-linecap: butt; stroke-dashoffset: 0; stroke-linejoin: miter; stroke-miterlimit: 4; fill: rgb(211,47,47); fill-rule: nonzero; opacity: 1;" vector-effect="non-scaling-stroke"  cx="0" cy="0" r="35" />
</g>
<g transform="matrix(1 0 0 1 564 540)" id="e14ad06c-4be6-4346-b2b6-8bf74452b1b3"  >
<path style="stroke: rgb(0,0,0); stroke-width: 0; stroke-dasharray: none; stroke-linecap: butt; stroke-dashoffset: 0; stroke-linejoin: miter; stroke-miterlimit: 4; fill: rgb(255,255,255); fill-rule: nonzero; opacity: 1;" vector-effect="non-scaling-stroke"  transform=" translate(-320, -256)" d="M 184 48 L 328 48 C 332.4 48 336 51.6 336 56 L 336 96 L 176 96 L 176 56 C 176 51.6 179.6 48 184 48 z M 128 56 L 128 96 L 64 96 C 28.7 96 0 124.7 0 160 L 0 256 L 192 256 L 352 256 L 360.2 256 C 392.5 216.9 441.29999999999995 192 496 192 C 501.4 192 506.7 192.2 512 192.7 L 512 160 C 512 124.7 483.3 96 448 96 L 384 96 L 384 56 C 384 25.1 358.9 0 328 0 L 184 0 C 153.1 0 128 25.1 128 56 z M 320 352 L 224 352 C 206.3 352 192 337.7 192 320 L 192 288 L 0 288 L 0 416 C 0 451.3 28.7 480 64 480 L 360.2 480 C 335.1 449.6 320 410.5 320 368 C 320 362.6 320.2 357.3 320.7 352 L 320 352 z M 640 368 C 640 288.4709960243657 575.5290039756343 224 496 224 C 416.4709960243657 224 352 288.4709960243657 352 368 C 352 447.5290039756343 416.4709960243657 512 496 512 C 575.5290039756343 512 640 447.5290039756343 640 368 z M 496 288 C 504.8 288 512 295.2 512 304 L 512 352 L 544 352 C 552.8 352 560 359.2 560 368 C 560 376.8 552.8 384 544 384 L 496 384 C 487.2 384 480 376.8 480 368 L 480 304 C 480 295.2 487.2 288 496 288 z" stroke-linecap="round" />
</g>
</svg>